<svg width="832" height="416" viewBox="0 0 832 416" fill="none" xmlns="http://www.w3.org/2000/svg">
<rect width="832" height="416" fill="#09151E"/>
<path d="M176.835 249.67C199.939 249.67 218.67 230.939 218.67 207.835C218.67 184.73 199.939 166 176.835 166C153.73 166 135 184.73 135 207.835C135 230.939 153.73 249.67 176.835 249.67Z" fill="#242B33"/>
<path fill-rule="evenodd" clip-rule="evenodd" d="M200.178 183.612L198.003 181.604C197.626 181.228 197.124 181.06 196.581 181.06H179.094C178.508 181.06 177.922 181.269 177.462 181.646L175.245 183.529C173.864 181.73 171.689 180.6 169.053 180.6C163.949 180.6 159.138 184.7 158.218 189.804C157.632 193.025 158.804 195.87 161.021 197.501L157.381 218.084C154.578 219.716 152.403 222.56 151.817 225.782C150.939 230.885 154.327 234.985 159.389 234.985C162.067 234.985 164.702 233.814 166.711 231.973L168.886 234.023C169.262 234.4 169.764 234.567 170.308 234.567H187.795C188.381 234.567 188.967 234.358 189.427 233.981L191.979 231.806C192.439 231.429 192.732 230.885 192.815 230.342L194.238 222.309C194.363 221.598 194.112 220.887 193.61 220.427L191.435 218.419C191.058 218.042 190.556 217.875 190.012 217.875H184.992L184.407 221.222H191.1L189.343 231.262H169.262L171.019 221.222H177.713L178.299 217.875H172.526C171.94 217.875 171.354 218.084 170.894 218.461L169.137 219.967C168.677 219.255 168.091 218.628 167.38 218.126L171.019 197.543C171.94 196.999 172.818 196.33 173.571 195.535L175.37 197.208C175.747 197.585 176.249 197.752 176.793 197.752H181.813L182.399 194.406H175.705L177.462 184.365H197.543L195.786 194.406H189.092L188.506 197.752H194.28C194.865 197.752 195.451 197.543 195.911 197.167L198.463 194.991C198.923 194.615 199.216 194.071 199.3 193.527L200.722 185.495C200.973 184.825 200.722 184.114 200.178 183.612ZM163.74 220.218C166.041 220.929 167.38 223.188 166.92 225.823C166.334 229.045 163.28 231.68 160.017 231.68C156.754 231.68 154.62 229.045 155.206 225.823C155.666 223.188 157.842 220.929 160.393 220.218L164.744 195.451C162.443 194.74 161.105 192.481 161.565 189.846C162.151 186.624 165.204 183.989 168.468 183.989C171.731 183.989 173.864 186.624 173.279 189.846C172.818 192.481 170.643 194.74 168.091 195.451L163.74 220.218Z" fill="#A3876E"/>
<path d="M173.697 213.692H174.534L174.827 211.935H176.291L176.458 211.182H174.994L175.12 210.261H177.211L177.379 209.508H174.45L173.697 213.692Z" fill="white"/>
<path d="M177.462 213.692H178.299L179.052 209.508H178.215L177.462 213.692Z" fill="white"/>
<path d="M179.763 210.261H181.018L180.391 213.692H181.227L181.813 210.261H183.068L183.235 209.508H179.889L179.763 210.261Z" fill="white"/>
<path d="M186.29 212.353L184.909 209.508H184.072L183.319 213.692H184.156L184.658 210.847L186.039 213.692H186.875L187.628 209.508H186.792L186.29 212.353Z" fill="white"/>
<path d="M188.13 213.692H191.059L191.184 212.939H189.093L189.26 211.935H190.724L190.891 211.182H189.427L189.553 210.261H191.645L191.812 209.508H188.883L188.13 213.692Z" fill="white"/>
<path d="M192.732 210.136L192.523 211.307C192.481 211.642 192.732 211.935 193.067 211.935H194.74L194.573 212.939H192.272L192.146 213.692H194.657C195.033 213.692 195.326 213.441 195.41 213.064L195.619 211.809C195.661 211.475 195.41 211.182 195.075 211.182H193.402L193.569 210.261H195.661L195.786 209.508H193.485C193.109 209.508 192.774 209.759 192.732 210.136Z" fill="white"/>
<path d="M180.475 206.162H181.311L181.604 204.488L183.487 201.978H182.566L181.353 203.651L180.684 201.978H179.722L180.768 204.488L180.475 206.162Z" fill="white"/>
<path d="M184.24 206.162L184.7 203.4L185.536 205.325H185.704L187.21 203.4L186.75 206.162H187.586L188.298 201.978H187.461L185.871 204.07L184.951 201.978H184.114L183.403 206.162H184.24Z" fill="white"/>
<path d="M199.802 210.261L199.928 209.508H197.627C197.25 209.508 196.957 209.759 196.874 210.136L196.665 211.307C196.623 211.642 196.874 211.935 197.208 211.935H198.882L198.715 212.939H196.414L196.288 213.692H198.798C199.175 213.692 199.468 213.441 199.551 213.064L199.76 211.809C199.802 211.475 199.551 211.182 199.217 211.182H197.543L197.71 210.261H199.802Z" fill="white"/>
<path d="M175.664 206.162H177.714C178.09 206.162 178.383 205.91 178.467 205.534L178.801 203.651H177.128L177.002 204.404H177.839L177.672 205.408H175.998L176.459 202.731H178.759L178.885 201.978H176.375C175.998 201.978 175.705 202.229 175.622 202.606L175.12 205.534C175.078 205.869 175.329 206.162 175.664 206.162Z" fill="white"/>
<path d="M190.515 206.162H191.477C191.644 206.162 191.812 206.078 191.979 205.994L192.439 205.618L192.816 206.162H193.862L193.109 205.032L193.862 204.363L193.443 203.861L192.732 204.488L191.728 203.024L191.77 202.731H192.607L192.523 203.233H193.36L193.485 202.606C193.527 202.271 193.276 201.978 192.941 201.978H191.728C191.352 201.978 191.059 202.229 190.975 202.606L190.891 203.024C190.849 203.149 190.891 203.317 190.975 203.442L191.142 203.693L190.389 204.321C190.264 204.446 190.18 204.572 190.138 204.781L190.013 205.534C189.929 205.869 190.18 206.162 190.515 206.162ZM190.975 204.697L191.519 204.237L192.063 205.032L191.603 205.408H190.849L190.975 204.697Z" fill="white"/>
<path d="M278.619 197.794H250.59C249.376 197.794 248.331 198.673 248.121 199.886L245.277 215.909C245.109 216.913 245.904 217.875 246.908 217.875H275.021L273.808 224.569H247.034C245.82 224.569 244.649 224.15 243.729 223.439L239.127 219.883C237.537 218.628 236.742 216.62 237.077 214.654L239.545 200.555C239.838 198.798 240.842 197.25 242.306 196.246L247.87 192.356C249 191.561 250.339 191.143 251.719 191.143H279.707L278.619 197.794Z" fill="#A3876E"/>
<path d="M288.952 224.569H280.585L284.81 200.514C285.103 198.757 286.107 197.209 287.571 196.205L293.135 192.314C294.265 191.519 295.604 191.101 296.984 191.101H319.784C320.956 191.101 322.127 191.478 323.047 192.189L327.816 195.787C329.448 197 330.243 199.05 329.908 201.058L325.766 224.569H317.4L321.792 199.761C321.96 198.757 321.165 197.795 320.161 197.795H295.813C294.6 197.795 293.554 198.673 293.345 199.886L288.952 224.569Z" fill="#A3876E"/>
<path d="M346.684 192.314L341.12 196.205C339.656 197.209 338.694 198.757 338.359 200.514L335.891 214.57C335.556 216.578 336.351 218.628 337.983 219.842L342.752 223.439C343.714 224.151 344.843 224.527 346.015 224.527H372.203C373.584 224.527 374.923 224.109 376.052 223.314L381.616 219.423C383.08 218.419 384.043 216.871 384.377 215.114L386.846 201.058C387.18 199.05 386.385 197 384.754 195.787L379.985 192.189C379.022 191.478 377.893 191.101 376.722 191.101H350.533C349.152 191.101 347.814 191.519 346.684 192.314ZM373.375 217.875H345.68C344.634 217.875 343.839 216.955 344.049 215.909L346.893 199.886C347.102 198.673 348.148 197.795 349.362 197.795H377.056C378.102 197.795 378.897 198.715 378.688 199.761L375.843 215.784C375.634 216.997 374.588 217.875 373.375 217.875Z" fill="#A3876E"/>
<path d="M434.119 191.101H407.386C406.006 191.101 404.667 191.519 403.537 192.314L397.973 196.205C396.509 197.209 395.547 198.757 395.212 200.514L391.029 224.569H399.396L401.111 214.947C401.32 213.734 402.366 212.855 403.579 212.855H431.985C435.625 212.855 438.762 210.22 439.39 206.622L440.729 198.966C441.44 194.866 438.302 191.101 434.119 191.101ZM428.973 206.162H411.444C410.064 206.162 408.725 206.58 407.595 207.375L402.533 210.931C402.241 211.14 401.822 210.889 401.864 210.512L403.747 199.845C403.956 198.631 405.002 197.753 406.215 197.753H430.563C431.609 197.753 432.403 198.673 432.194 199.719L431.441 204.028C431.232 205.283 430.186 206.162 428.973 206.162Z" fill="#A3876E"/>
<path d="M493.147 191.101H448.008L446.794 197.795H470.138C470.557 197.795 470.724 198.338 470.389 198.548L466.582 201.225C465.118 202.229 464.156 203.777 463.821 205.534L460.474 224.569H468.841L473.192 199.886C473.401 198.673 474.447 197.795 475.66 197.795H491.934L493.147 191.101Z" fill="#A3876E"/>
<path d="M528.247 224.569L520.173 195.117C519.545 192.733 517.37 191.101 514.943 191.101H514.065H509.421C507.12 191.101 504.987 192.272 503.732 194.239L484.739 224.569H493.106L510.718 196.456C511.095 195.828 512.057 195.996 512.224 196.665L519.88 224.569H528.247Z" fill="#A3876E"/>
<path d="M584.64 198.966C585.351 194.866 582.214 191.101 578.03 191.101H551.298C549.917 191.101 548.578 191.519 547.449 192.314L541.885 196.205C540.421 197.209 539.458 198.757 539.124 200.514L534.898 224.569H543.265L544.688 216.62C544.897 215.407 545.943 214.529 547.156 214.529H573.512L571.755 224.569H580.122L584.64 198.966ZM574.725 207.835H555.105C553.724 207.835 552.385 208.253 551.256 209.048L546.194 212.604C545.901 212.813 545.483 212.562 545.524 212.186L547.7 199.845C547.909 198.631 548.955 197.753 550.168 197.753H574.516C575.562 197.753 576.357 198.673 576.148 199.719L574.725 207.835Z" fill="#A3876E"/>
<path d="M631.202 191.101H639.569L634.758 218.335C634.13 221.933 630.993 224.569 627.353 224.569H600.37C599.198 224.569 598.027 224.192 597.107 223.481L592.338 219.883C590.706 218.67 589.911 216.62 590.246 214.612L594.387 191.101H602.754L598.362 215.909C598.194 216.913 598.989 217.875 599.993 217.875H624.341C625.554 217.875 626.6 216.997 626.809 215.784L631.202 191.101Z" fill="#A3876E"/>
<path d="M627.647 181.061H615.012C613.632 181.061 612.293 181.479 611.164 182.274L605.516 186.248C604.847 186.708 605.181 187.754 605.976 187.754H626.308C627.521 187.754 628.567 186.876 628.776 185.704L629.236 183.027C629.487 182.023 628.692 181.061 627.647 181.061Z" fill="#A3876E"/>
<path d="M696.925 202.731C697.259 200.723 696.464 198.673 694.833 197.46L690.064 193.862C689.102 193.151 687.972 192.774 686.801 192.774H676.928L677.22 191.101H668.854L668.561 192.774H657.307C655.927 192.774 654.588 193.193 653.458 193.988L647.894 197.878C646.43 198.882 645.468 200.43 645.133 202.187L643.251 212.897C642.916 214.905 643.711 216.955 645.342 218.168L650.112 221.766C651.074 222.477 652.203 222.854 653.375 222.854H663.248L662.955 224.527H671.322L671.615 222.854H682.868C684.249 222.854 685.587 222.435 686.717 221.64L692.281 217.75C693.745 216.746 694.707 215.198 695.042 213.441L696.925 202.731ZM664.419 216.202H653.04C651.994 216.202 651.199 215.282 651.408 214.236L653.668 201.56C653.877 200.347 654.923 199.468 656.136 199.468H667.431L664.419 216.202ZM687.135 199.468C688.181 199.468 688.976 200.388 688.767 201.434L686.508 214.11C686.299 215.323 685.253 216.202 684.04 216.202H672.744L675.714 199.468H687.135Z" fill="#A3876E"/>
</svg>
