<svg width="343" height="169" viewBox="0 0 343 169" fill="none" xmlns="http://www.w3.org/2000/svg">
<path d="M17.8269 137.787H325.127" stroke="#A3876E" stroke-width="0.546875"/>
<path d="M17.8269 137.787L17.8269 120.287" stroke="#A3876E" stroke-width="0.546875"/>
<path d="M325.127 137.787L325.127 120.287" stroke="#A3876E" stroke-width="0.546875"/>
<path d="M63.7647 47.5526V30.0526H17.8272V47.5526" stroke="#A3876E" stroke-width="0.546875"/>
<path d="M30.8628 10.0031C31.7588 9.55508 32.2768 8.81308 32.2768 7.76308C32.2768 6.02708 30.7648 5.03308 28.9308 5.03308C26.7888 5.03308 25.4588 6.32108 25.1928 8.28108H26.6068C26.7608 6.92308 27.7408 6.23708 28.8608 6.23708C30.0788 6.23708 30.8208 6.81108 30.8208 7.91708C30.8208 8.98108 30.0088 9.54108 28.8188 9.54108H27.6988V10.7031H28.9028C30.4708 10.7031 31.1988 11.3191 31.1988 12.4531C31.1988 13.5871 30.4148 14.3291 28.8888 14.3291C27.4888 14.3291 26.5928 13.6851 26.3548 12.4531H24.9548C25.3468 14.3431 26.6068 15.5331 28.7908 15.5331C30.7928 15.5331 32.6548 14.6231 32.6548 12.4951C32.6548 11.0531 31.9688 10.3251 30.8628 10.0031ZM40.5922 15.3651V7.83308H39.3182V10.9691H35.5942V7.83308H34.3202V15.3651H35.5942V12.0751H39.3182V15.3651H40.5922ZM47.4181 12.2151C47.4181 13.9931 46.2841 14.5391 45.0941 14.5391C44.1841 14.5391 43.6381 14.0631 43.6381 13.3491C43.6381 12.3131 45.1081 11.9631 47.4181 11.7391V12.2151ZM44.8141 15.5471C46.1581 15.5471 46.9281 15.1131 47.3901 14.3291C47.4041 14.7771 47.4461 15.0851 47.4881 15.3651H48.7761C48.6221 14.6511 48.5661 13.7971 48.5801 12.5231L48.5941 10.7871C48.6081 8.65908 47.6841 7.67908 45.5981 7.67908C44.1421 7.67908 42.6861 8.58908 42.5741 10.2131H43.8901C43.9461 9.27508 44.5481 8.71508 45.6121 8.71508C46.5641 8.71508 47.3201 9.16308 47.3201 10.5491V10.7311C44.2401 11.0671 42.2241 11.5991 42.2241 13.3771C42.2241 14.7631 43.4001 15.5471 44.8141 15.5471ZM55.4064 15.3651H56.9884L53.8524 11.3891L56.6944 7.83308H55.1824L52.7884 10.9131H51.8504V7.83308H50.5624V15.3651H51.8504V12.0191H52.8164L55.4064 15.3651Z" fill="#848E99"/>
<path d="M325.172 47.5525V30.0525H73.6096V47.5525" stroke="#848E99" stroke-width="0.546875"/>
<path d="M136.105 4.65499H134.677V5.91499C131.835 6.02699 130.141 7.81899 130.141 10.227C130.141 12.649 131.835 14.427 134.677 14.539V15.729H136.105V14.539C138.947 14.427 140.627 12.663 140.627 10.283C140.627 7.81899 138.947 6.02699 136.105 5.91499V4.65499ZM134.677 13.349C132.899 13.237 131.597 12.131 131.597 10.255C131.597 8.30899 132.899 7.21699 134.677 7.10499V13.349ZM136.105 7.10499C137.855 7.21699 139.171 8.33699 139.171 10.255C139.171 12.131 137.855 13.237 136.105 13.349V7.10499ZM147.406 15.365H148.68V7.83299H147.406L143.514 13.517V7.83299H142.24V15.365H143.514L147.406 9.68099V15.365ZM150.839 7.83299V17.815H152.113V14.231C152.575 15.029 153.359 15.547 154.577 15.547C156.313 15.547 157.797 14.133 157.797 11.627C157.797 9.16299 156.313 7.70699 154.577 7.70699C153.359 7.70699 152.575 8.22499 152.113 9.02299V7.83299H150.839ZM152.057 11.627C152.057 9.63899 153.121 8.79899 154.255 8.79899C155.557 8.79899 156.411 9.82099 156.411 11.627C156.411 13.433 155.557 14.455 154.255 14.455C153.121 14.455 152.057 13.615 152.057 11.627ZM167.603 7.83299H165.783L163.529 13.629L161.191 7.83299H159.371V15.365H160.617V9.40099L163.025 15.365H163.935L166.357 9.31699V15.365H167.603V7.83299ZM176.341 12.019C176.495 9.62499 175.137 7.70699 172.827 7.70699C170.769 7.70699 169.173 9.21899 169.173 11.613C169.173 13.839 170.489 15.547 172.869 15.547C174.703 15.547 175.907 14.469 176.243 13.181H174.927C174.605 13.923 173.989 14.427 172.869 14.427C171.763 14.427 170.587 13.643 170.545 12.019H176.341ZM172.827 8.79899C174.185 8.79899 174.955 9.86299 174.997 10.927H170.559C170.671 9.41499 171.707 8.79899 172.827 8.79899ZM184.182 15.365V7.83299H182.908V10.969H179.184V7.83299H177.91V15.365H179.184V12.075H182.908V15.365H184.182ZM192.604 15.365V7.83299H191.33V10.969H187.606V7.83299H186.332V15.365H187.606V12.075H191.33V15.365H192.604ZM199.429 12.215C199.429 13.993 198.295 14.539 197.105 14.539C196.195 14.539 195.649 14.063 195.649 13.349C195.649 12.313 197.119 11.963 199.429 11.739V12.215ZM196.825 15.547C198.169 15.547 198.939 15.113 199.401 14.329C199.415 14.777 199.457 15.085 199.499 15.365H200.787C200.633 14.651 200.577 13.797 200.591 12.523L200.605 10.787C200.619 8.65899 199.695 7.67899 197.609 7.67899C196.153 7.67899 194.697 8.58899 194.585 10.213H195.901C195.957 9.27499 196.559 8.71499 197.623 8.71499C198.575 8.71499 199.331 9.16299 199.331 10.549V10.731C196.251 11.067 194.235 11.599 194.235 13.377C194.235 14.763 195.411 15.547 196.825 15.547ZM208.146 7.83299H205.192C203.456 7.83299 202.392 8.60299 202.392 10.157C202.392 11.277 203.036 12.005 203.988 12.327L201.706 15.365H203.288L205.332 12.677C205.402 12.691 205.472 12.691 205.542 12.691H206.872V15.365H208.146V7.83299ZM206.872 8.93899V11.585H205.374C204.492 11.585 203.694 11.263 203.694 10.241C203.694 9.33099 204.324 8.93899 205.262 8.93899H206.872ZM219.893 15.365V7.83299H218.619V10.969H214.895V7.83299H213.621V15.365H214.895V12.075H218.619V15.365H219.893ZM226.719 12.215C226.719 13.993 225.585 14.539 224.395 14.539C223.485 14.539 222.939 14.063 222.939 13.349C222.939 12.313 224.409 11.963 226.719 11.739V12.215ZM224.115 15.547C225.459 15.547 226.229 15.113 226.691 14.329C226.705 14.777 226.747 15.085 226.789 15.365H228.077C227.923 14.651 227.867 13.797 227.881 12.523L227.895 10.787C227.909 8.65899 226.985 7.67899 224.899 7.67899C223.443 7.67899 221.987 8.58899 221.875 10.213H223.191C223.247 9.27499 223.849 8.71499 224.913 8.71499C225.865 8.71499 226.621 9.16299 226.621 10.549V10.731C223.541 11.067 221.525 11.599 221.525 13.377C221.525 14.763 222.701 15.547 224.115 15.547ZM236.905 14.259H235.855V7.83299H230.773L230.675 10.255C230.563 13.139 230.115 14.259 229.261 14.259H228.925V17.031H230.157V15.365H235.673V17.031H236.905V14.259ZM234.581 14.259H230.913C231.501 13.699 231.823 12.607 231.935 10.381L232.005 8.93899H234.581V14.259ZM244.391 7.83299H238.189V15.365H239.463V8.93899H243.117V15.365H244.391V7.83299ZM251.709 15.365H252.983V7.83299H251.709L247.817 13.517V7.83299H246.543V15.365H247.817L251.709 9.68099V15.365ZM258.194 7.70699C255.968 7.70699 254.554 9.37299 254.554 11.613C254.554 13.909 255.898 15.547 258.068 15.547C259.832 15.547 261.162 14.329 261.428 12.915H260.112C259.93 13.699 259.188 14.427 258.11 14.427C256.99 14.427 255.94 13.503 255.94 11.599C255.94 9.70899 256.99 8.82699 258.11 8.82699C259.104 8.82699 259.874 9.45699 260.056 10.353H261.344C261.162 9.06499 260.042 7.70699 258.194 7.70699ZM264.209 10.493V7.83299H262.935V15.365H265.987C267.723 15.365 268.815 14.735 268.815 12.873C268.815 11.263 267.975 10.493 266.001 10.493H264.209ZM264.209 14.259V11.599H265.847C266.981 11.599 267.569 11.879 267.569 12.873C267.569 13.881 266.995 14.259 265.875 14.259H264.209Z" fill="#848E99"/>
<path d="M136.569 163.724H138.277L134.217 158.376L138.137 153.574H136.415L132.999 157.872H131.977V153.574H130.549V163.724H131.977V159.104H133.041L136.569 163.724ZM140.091 159.986C140.091 157.928 141.183 157.186 142.345 157.186C143.507 157.186 144.599 157.97 144.599 159.986C144.599 161.918 143.507 162.786 142.345 162.786C141.183 162.786 140.091 162.002 140.091 159.986ZM142.345 156.066C140.595 156.066 138.733 157.256 138.733 159.986C138.733 162.716 140.595 163.906 142.345 163.906C144.095 163.906 145.957 162.716 145.957 159.986C145.957 157.256 144.095 156.066 142.345 156.066ZM155.783 156.192H153.963L151.709 161.988L149.371 156.192H147.551V163.724H148.797V157.76L151.205 163.724H152.115L154.537 157.676V163.724H155.783V156.192ZM164.143 156.192H157.941V163.724H159.215V157.298H162.869V163.724H164.143V156.192ZM167.093 159.986C167.093 157.928 168.185 157.186 169.347 157.186C170.509 157.186 171.601 157.97 171.601 159.986C171.601 161.918 170.509 162.786 169.347 162.786C168.185 162.786 167.093 162.002 167.093 159.986ZM169.347 156.066C167.597 156.066 165.735 157.256 165.735 159.986C165.735 162.716 167.597 163.906 169.347 163.906C171.097 163.906 172.959 162.716 172.959 159.986C172.959 157.256 171.097 156.066 169.347 156.066ZM178.585 159.776C179.257 159.454 179.775 158.922 179.775 158.152C179.775 156.738 178.403 156.024 176.919 156.024C175.337 156.024 174.119 156.878 173.853 158.516H175.169C175.337 157.494 176.051 157.144 176.989 157.144C177.815 157.144 178.459 157.466 178.459 158.18C178.459 158.964 177.927 159.356 177.045 159.356H175.911V160.406H177.115C178.179 160.406 178.753 160.756 178.753 161.638C178.753 162.352 178.081 162.842 177.017 162.842C175.939 162.842 175.225 162.394 175.015 161.428H173.727C173.993 163.15 175.323 163.906 176.933 163.906C178.613 163.906 180.111 163.206 180.111 161.582C180.111 160.574 179.383 160 178.585 159.776ZM186.787 163.724H188.061V156.192H186.787L182.895 161.876V156.192H181.621V163.724H182.895L186.787 158.04V163.724ZM196.213 162.618V156.192H194.939V162.618H191.495V156.192H190.221V163.724H196.059V165.53H197.263V162.618H196.213ZM203.713 163.724H204.987V156.192H203.713L199.821 161.876V156.192H198.547V163.724H199.821L203.713 158.04V163.724ZM212.718 156.192H209.764C208.028 156.192 206.964 156.962 206.964 158.516C206.964 159.636 207.608 160.364 208.56 160.686L206.278 163.724H207.86L209.904 161.036C209.974 161.05 210.044 161.05 210.114 161.05H211.444V163.724H212.718V156.192ZM211.444 157.298V159.944H209.946C209.064 159.944 208.266 159.622 208.266 158.6C208.266 157.69 208.896 157.298 209.834 157.298H211.444Z" fill="#848E99"/>
<path opacity="0.3" d="M-0.766846 55.7556L17.569 55.7556L63.4087 55.7555L73.5371 55.7555L325.429 55.7555L343.764 55.7555" stroke="#848E99" stroke-width="0.546875"/>
<path opacity="0.3" d="M17.8269 120.287V101.815V87.9604V69.4882V55.634V37.1618" stroke="#848E99" stroke-width="0.546875"/>
<path opacity="0.3" d="M-0.766846 101.693H17.569H63.4087H73.5371H325.429H343.764" stroke="#848E99" stroke-width="0.546875"/>
<path opacity="0.3" d="M325.171 120.287L325.171 101.815L325.171 87.9604L325.171 69.4882L325.171 55.634L325.171 37.1618" stroke="#848E99" stroke-width="0.546875"/>
<path opacity="0.3" d="M73.6082 120.287V101.815V87.9604V69.4882V55.634V37.1618" stroke="#848E99" stroke-width="0.546875"/>
<path opacity="0.3" d="M63.7644 120.287V101.815V87.9604V69.4882V55.634V37.1618" stroke="#848E99" stroke-width="0.546875"/>
<path d="M40.705 101.697C53.3402 101.697 63.5831 91.4542 63.5831 78.819C63.5831 66.1838 53.3402 55.9409 40.705 55.9409C28.0698 55.9409 17.8269 66.1838 17.8269 78.819C17.8269 91.4542 28.0698 101.697 40.705 101.697Z" fill="#242B33"/>
<path fill-rule="evenodd" clip-rule="evenodd" d="M53.4813 65.5833L52.3005 64.4835C52.0888 64.2863 51.8102 64.1767 51.5209 64.1767H41.9518C41.626 64.1767 41.3109 64.2925 41.0627 64.5035L39.8451 65.5386C39.1 64.56 37.9045 63.9479 36.4568 63.9479C33.677 63.9479 31.0262 66.2013 30.5361 68.9811C30.2249 70.7456 30.8629 72.2936 32.0789 73.1918L30.0952 84.4417C28.5593 85.3394 27.3726 86.8892 27.061 88.6562C26.5708 91.436 28.4269 93.6894 31.2067 93.6894C32.6819 93.6894 34.1206 93.0547 35.2195 92.0436L36.4116 93.1538C36.6233 93.351 36.9019 93.4606 37.1912 93.4606H46.7603C47.0861 93.4606 47.4012 93.3448 47.6494 93.1338L49.0411 91.9508C49.2846 91.7437 49.4483 91.4581 49.5038 91.1433L50.2782 86.7517C50.3455 86.37 50.2149 85.9802 49.9313 85.716L48.7505 84.6162C48.5388 84.419 48.2602 84.3094 47.9708 84.3094H45.2181L44.8954 86.1396H48.5558L47.5877 91.6304H36.6062L37.5744 86.1396H41.2349L41.5576 84.3094H38.4017C38.076 84.3094 37.7609 84.4252 37.5126 84.6362L36.543 85.4605C36.2881 85.067 35.9641 84.726 35.5852 84.446L37.5692 73.1947C38.0811 72.8952 38.553 72.5239 38.9673 72.095L39.9616 73.0211C40.1733 73.2183 40.4519 73.3279 40.7413 73.3279H43.494L43.8167 71.4976H40.1562L41.1244 66.0069H52.1059L51.1377 71.4976H47.4772L47.1545 73.3279H50.3104C50.6361 73.3279 50.9512 73.212 51.1995 73.0011L52.5911 71.818C52.8347 71.611 52.9984 71.3254 53.0539 71.0105L53.8282 66.619C53.8956 66.2373 53.765 65.8475 53.4813 65.5833ZM33.5535 85.5885C34.8049 85.9835 35.5527 87.2067 35.2971 88.6562C34.9852 90.4252 33.2983 91.8592 31.5294 91.8592C29.7605 91.8592 28.5793 90.4252 28.8912 88.6562C29.1472 87.2043 30.3299 85.9798 31.7236 85.5868L34.1107 72.049C32.8589 71.6542 32.1107 70.4309 32.3664 68.9811C32.6782 67.2121 34.3651 65.7781 36.134 65.7781C37.903 65.7781 39.0841 67.2121 38.7722 68.9811C38.5162 70.4327 37.334 71.657 35.9407 72.0502L33.5535 85.5885Z" fill="#A3876E"/>
<path d="M38.9864 82.0211H39.444L39.6134 81.0603H40.4141L40.4867 80.6486L39.686 80.6485L39.7748 80.1451H40.9187L40.9913 79.7333H39.3898L38.9864 82.0211Z" fill="white"/>
<path d="M41.0452 82.0211H41.5027L41.9062 79.7333H41.4486L41.0452 82.0211Z" fill="white"/>
<path d="M42.2954 80.1451H42.9819L42.6475 82.0211H43.105L43.4359 80.1451H44.1222L44.1948 79.7333H42.3646L42.2954 80.1451Z" fill="white"/>
<path d="M45.8667 81.2776L45.1095 79.7333H44.6519L44.2485 82.0211H44.706L44.9784 80.4768L45.7356 82.0211H46.1931L46.5965 79.7333H46.139L45.8667 81.2776Z" fill="white"/>
<path d="M46.8792 82.0211H48.4807L48.5533 81.6093H47.4094L47.5062 81.0603H48.307L48.3796 80.6483L47.5788 80.6485L47.6676 80.1451H48.8115L48.8841 79.7333H47.2827L46.8792 82.0211Z" fill="white"/>
<path d="M49.3964 80.0736L49.2839 80.7113C49.2518 80.8934 49.3918 81.0603 49.5767 81.0604L50.4825 81.0607L50.3857 81.6093H49.126L49.0534 82.0211H50.4233C50.6231 82.0211 50.7941 81.8777 50.8288 81.6809L50.9494 80.9972C50.9815 80.8151 50.8413 80.6481 50.6564 80.6482L49.7517 80.6485L49.8417 80.1451H50.9852L51.0579 79.7333H49.8019C49.6021 79.7333 49.4311 79.8768 49.3964 80.0736Z" fill="white"/>
<path d="M42.6869 77.9033H43.1445L43.3058 76.9882L44.3486 75.6155H43.8349L43.164 76.5306L42.8032 75.6155H42.2896L42.8493 76.9878L42.6869 77.9033Z" fill="white"/>
<path d="M44.7461 77.9033L45.0125 76.3907L45.4641 77.4457H45.5612L46.3852 76.3907L46.1188 77.9033H46.5763L46.9797 75.6155H46.5221L45.6357 76.7508L45.1495 75.6155H44.6919L44.2885 77.9033H44.7461Z" fill="white"/>
<path d="M53.2721 80.1451L53.3447 79.7333H52.0888C51.8889 79.7333 51.7179 79.8768 51.6832 80.0736L51.5708 80.7113C51.5387 80.8934 51.6787 81.0603 51.8636 81.0604L52.7694 81.0607L52.6725 81.6093H51.4128L51.3402 82.0211H52.7101C52.91 82.0211 53.081 81.8777 53.1157 81.6809L53.2362 80.9972C53.2683 80.8151 53.1282 80.6481 52.9432 80.6482L52.0385 80.6485L52.1286 80.1451H53.2721Z" fill="white"/>
<path d="M40.0667 77.9034L41.1978 77.9038C41.3974 77.9035 41.5681 77.7601 41.6027 77.5635L41.7848 76.5306H40.8697L40.7971 76.9424H41.2547L41.1579 77.4915H40.2427L40.5009 76.0273H41.7592L41.8318 75.6155H40.4615C40.2617 75.6155 40.0906 75.7589 40.056 75.9557L39.774 77.5543C39.7418 77.7364 39.8819 77.9033 40.0667 77.9034Z" fill="white"/>
<path d="M48.1883 77.9033H48.7119C48.8096 77.9033 48.9042 77.8685 48.9787 77.8052L49.2256 77.5953L49.4353 77.9033H50.0072L49.5842 77.2905L50.0072 76.9309L49.7715 76.645L49.3726 76.984L48.8227 76.1874L48.8509 76.0273H49.3085L49.2601 76.3018H49.7177L49.7771 75.9645C49.8092 75.7824 49.6691 75.6155 49.4842 75.6155H48.8115C48.6117 75.6155 48.4407 75.759 48.406 75.9558L48.3659 76.1827C48.3525 76.2591 48.3694 76.3377 48.413 76.4018L48.5127 76.5482L48.1082 76.8921C48.0352 76.9542 47.9861 77.0398 47.9694 77.1343L47.8953 77.5542C47.8632 77.7363 48.0033 77.9033 48.1883 77.9033ZM48.4326 77.1026L48.7224 76.8562L49.0159 77.2872L48.7755 77.4915H48.364L48.4326 77.1026Z" fill="white"/>
<path d="M96.3635 73.3275H81.0431C80.3769 73.3275 79.8069 73.8058 79.6912 74.4618L78.1443 83.235C78.0455 83.7953 78.4765 84.309 79.0455 84.309H94.4271L93.7665 87.9695H79.1339C78.4761 87.9695 77.8368 87.7514 77.3161 87.3493L74.8027 85.4083C73.9275 84.7324 73.4995 83.6268 73.6915 82.5379L75.0525 74.8194C75.221 73.8641 75.7618 73.0147 76.5561 72.4578L79.5907 70.3303C80.2064 69.8986 80.9401 69.667 81.692 69.667H97.0089L96.3635 73.3275Z" fill="#242B33"/>
<path d="M102.018 87.9695H97.4423L99.761 74.8194C99.9295 73.8641 100.47 73.0147 101.265 72.4578L104.299 70.3303C104.915 69.8986 105.649 69.667 106.401 69.667H118.89C119.537 69.667 120.167 69.8781 120.683 70.2681L123.28 72.2304C124.172 72.9038 124.61 74.0198 124.416 75.1199L122.151 87.9695H117.575L119.967 74.4016C120.066 73.8412 119.635 73.3275 119.066 73.3275H105.752C105.085 73.3275 104.515 73.8058 104.4 74.4618L102.018 87.9695Z" fill="#242B33"/>
<path d="M133.583 70.3303L130.548 72.4578C129.754 73.0147 129.213 73.8641 129.045 74.8194L127.687 82.5166C127.493 83.6167 127.932 84.7328 128.824 85.4061L131.421 87.3684C131.937 87.7585 132.567 87.9695 133.214 87.9695H147.534C148.285 87.9695 149.019 87.7379 149.635 87.3063L152.67 85.1787C153.464 84.6218 154.005 83.7724 154.173 82.8171L155.53 75.1199C155.724 74.0198 155.285 72.9038 154.394 72.2304L151.797 70.2681C151.28 69.8781 150.651 69.667 150.004 69.667H135.684C134.932 69.667 134.199 69.8986 133.583 70.3303ZM148.182 84.309H133.038C132.469 84.309 132.038 83.7953 132.136 83.235L133.683 74.4618C133.799 73.8058 134.369 73.3275 135.035 73.3275H150.18C150.749 73.3275 151.18 73.8412 151.081 74.4016L149.534 83.1747C149.419 83.8307 148.849 84.309 148.182 84.309Z" fill="#242B33"/>
<path d="M181.413 69.667H166.798C166.046 69.667 165.313 69.8986 164.697 70.3303L161.662 72.4578C160.868 73.0147 160.327 73.8641 160.159 74.8194L157.84 87.9695H162.416L163.345 82.698C163.461 82.0419 164.031 81.5636 164.697 81.5636H180.222C182.221 81.5636 183.931 80.1288 184.278 78.1607L185.018 73.9632C185.413 71.7219 183.689 69.667 181.413 69.667ZM178.596 77.9031H169.006C168.254 77.9031 167.521 78.1347 166.905 78.5664L164.127 80.5142C163.96 80.6312 163.735 80.4879 163.77 80.2871L164.797 74.4618C164.913 73.8058 165.483 73.3275 166.149 73.3275H179.464C180.033 73.3275 180.464 73.8412 180.365 74.4016L179.948 76.7688C179.832 77.4249 179.262 77.9031 178.596 77.9031Z" fill="#242B33"/>
<path d="M213.687 69.667H188.994L188.334 73.3275H201.107C201.33 73.3275 201.421 73.6153 201.238 73.7436L199.156 75.2032C198.362 75.7601 197.821 76.6095 197.653 77.5648L195.818 87.9695H200.394L202.775 74.4618C202.891 73.8058 203.461 73.3275 204.127 73.3275H213.027L213.687 69.667Z" fill="#242B33"/>
<path d="M232.881 87.9695L228.471 71.8561C228.117 70.5634 226.942 69.667 225.602 69.667H225.126H222.578C221.317 69.667 220.144 70.3165 219.475 71.3857L209.097 87.9695H213.663L223.299 72.5847C223.51 72.2469 224.023 72.3224 224.128 72.7068L228.305 87.9695H232.881Z" fill="#242B33"/>
<path d="M263.719 73.9632C264.114 71.7219 262.39 69.667 260.114 69.667H245.499C244.747 69.667 244.014 69.8986 243.398 70.3303L240.363 72.4579C239.569 73.0148 239.028 73.8642 238.86 74.8195L236.541 87.9695H241.117L241.885 83.6131C242.001 82.957 242.571 82.4788 243.237 82.4788H257.642L256.674 87.9695H261.249L263.719 73.9632ZM258.287 78.8183H247.546C246.794 78.8183 246.06 79.0498 245.445 79.4815L242.667 81.4293C242.5 81.5464 242.275 81.4031 242.31 81.2023L243.498 74.4618C243.614 73.8058 244.184 73.3275 244.85 73.3275H258.165C258.734 73.3275 259.165 73.8412 259.066 74.4016L258.287 78.8183Z" fill="#242B33"/>
<path d="M289.185 69.667H293.76L291.133 84.5666C290.786 86.5347 289.076 87.9695 287.078 87.9695H272.313C271.665 87.9695 271.036 87.7585 270.52 87.3684L267.922 85.4061C267.031 84.7328 266.592 83.6167 266.786 82.5166L269.052 69.667H273.628L271.235 83.235C271.136 83.7953 271.567 84.309 272.136 84.309H285.451C286.117 84.309 286.687 83.8307 286.803 83.1747L289.185 69.667Z" fill="#242B33"/>
<path d="M287.243 64.1764H280.342C279.59 64.1764 278.856 64.408 278.241 64.8396L275.153 67.0047C274.786 67.2614 274.968 67.8369 275.415 67.8369H286.53C287.194 67.8369 287.763 67.3615 287.881 66.708L288.143 65.254C288.245 64.6926 287.813 64.1764 287.243 64.1764Z" fill="#242B33"/>
<path d="M325.125 76.0351C325.319 74.9349 324.88 73.8189 323.988 73.1455L321.391 71.1832C320.875 70.7932 320.245 70.5821 319.598 70.5821H314.193L314.354 69.667H309.775L309.614 70.5821H303.448C302.696 70.5821 301.963 70.8137 301.347 71.2454L298.312 73.373C297.518 73.9299 296.977 74.7793 296.809 75.7346L295.774 81.6015C295.58 82.7016 296.019 83.8176 296.91 84.491L299.508 86.4533C300.024 86.8433 300.654 87.0544 301.301 87.0544H306.709L306.545 87.9695H311.124L311.288 87.0544H317.451C318.203 87.0544 318.936 86.8228 319.552 86.3911L322.587 84.2636C323.381 83.7067 323.922 82.8573 324.09 81.902L325.125 76.0351ZM307.355 83.3939H301.124C300.555 83.3939 300.124 82.8802 300.223 82.3198L301.447 75.377C301.563 74.7209 302.133 74.2426 302.799 74.2426H308.968L307.355 83.3939ZM319.774 74.2426C320.343 74.2426 320.774 74.7564 320.676 75.3167L319.451 82.2596C319.336 82.9156 318.766 83.3939 318.1 83.3939H311.934L313.548 74.2426H319.774Z" fill="#242B33"/>
</svg>
