<svg width="832" height="352" viewBox="0 0 832 352" fill="none" xmlns="http://www.w3.org/2000/svg">
<path d="M135 273H657" stroke="#A3876E"/>
<path d="M135 273L135 241" stroke="#A3876E"/>
<path d="M657 273L657 241" stroke="#A3876E"/>
<path d="M219 108V76H135V108" stroke="#A3876E"/>
<path d="M167.067 49.638C167.963 49.19 168.481 48.448 168.481 47.398C168.481 45.662 166.969 44.668 165.135 44.668C162.993 44.668 161.663 45.956 161.397 47.916H162.811C162.965 46.558 163.945 45.872 165.065 45.872C166.283 45.872 167.025 46.446 167.025 47.552C167.025 48.616 166.213 49.176 165.023 49.176H163.903V50.338H165.107C166.675 50.338 167.403 50.954 167.403 52.088C167.403 53.222 166.619 53.964 165.093 53.964C163.693 53.964 162.797 53.32 162.559 52.088H161.159C161.551 53.978 162.811 55.168 164.995 55.168C166.997 55.168 168.859 54.258 168.859 52.13C168.859 50.688 168.173 49.96 167.067 49.638ZM176.796 55V47.468H175.522V50.604H171.798V47.468H170.524V55H171.798V51.71H175.522V55H176.796ZM183.622 51.85C183.622 53.628 182.488 54.174 181.298 54.174C180.388 54.174 179.842 53.698 179.842 52.984C179.842 51.948 181.312 51.598 183.622 51.374V51.85ZM181.018 55.182C182.362 55.182 183.132 54.748 183.594 53.964C183.608 54.412 183.65 54.72 183.692 55H184.98C184.826 54.286 184.77 53.432 184.784 52.158L184.798 50.422C184.812 48.294 183.888 47.314 181.802 47.314C180.346 47.314 178.89 48.224 178.778 49.848H180.094C180.15 48.91 180.752 48.35 181.816 48.35C182.768 48.35 183.524 48.798 183.524 50.184V50.366C180.444 50.702 178.428 51.234 178.428 53.012C178.428 54.398 179.604 55.182 181.018 55.182ZM191.61 55H193.192L190.056 51.024L192.898 47.468H191.386L188.992 50.548H188.054V47.468H186.766V55H188.054V51.654H189.02L191.61 55Z" fill="#848E99"/>
<path d="M657 108V76H237V108" stroke="#848E99"/>
<path d="M383.715 44.29H382.287V45.55C379.445 45.662 377.751 47.454 377.751 49.862C377.751 52.284 379.445 54.062 382.287 54.174V55.364H383.715V54.174C386.557 54.062 388.237 52.298 388.237 49.918C388.237 47.454 386.557 45.662 383.715 45.55V44.29ZM382.287 52.984C380.509 52.872 379.207 51.766 379.207 49.89C379.207 47.944 380.509 46.852 382.287 46.74V52.984ZM383.715 46.74C385.465 46.852 386.781 47.972 386.781 49.89C386.781 51.766 385.465 52.872 383.715 52.984V46.74ZM395.015 55H396.289V47.468H395.015L391.123 53.152V47.468H389.849V55H391.123L395.015 49.316V55ZM398.449 47.468V57.45H399.723V53.866C400.185 54.664 400.969 55.182 402.187 55.182C403.923 55.182 405.407 53.768 405.407 51.262C405.407 48.798 403.923 47.342 402.187 47.342C400.969 47.342 400.185 47.86 399.723 48.658V47.468H398.449ZM399.667 51.262C399.667 49.274 400.731 48.434 401.865 48.434C403.167 48.434 404.021 49.456 404.021 51.262C404.021 53.068 403.167 54.09 401.865 54.09C400.731 54.09 399.667 53.25 399.667 51.262ZM415.212 47.468H413.392L411.138 53.264L408.8 47.468H406.98V55H408.226V49.036L410.634 55H411.544L413.966 48.952V55H415.212V47.468ZM423.951 51.654C424.105 49.26 422.747 47.342 420.437 47.342C418.379 47.342 416.783 48.854 416.783 51.248C416.783 53.474 418.099 55.182 420.479 55.182C422.313 55.182 423.517 54.104 423.853 52.816H422.537C422.215 53.558 421.599 54.062 420.479 54.062C419.373 54.062 418.197 53.278 418.155 51.654H423.951ZM420.437 48.434C421.795 48.434 422.565 49.498 422.607 50.562H418.169C418.281 49.05 419.317 48.434 420.437 48.434ZM431.791 55V47.468H430.517V50.604H426.793V47.468H425.519V55H426.793V51.71H430.517V55H431.791ZM440.213 55V47.468H438.939V50.604H435.215V47.468H433.941V55H435.215V51.71H438.939V55H440.213ZM447.039 51.85C447.039 53.628 445.905 54.174 444.715 54.174C443.805 54.174 443.259 53.698 443.259 52.984C443.259 51.948 444.729 51.598 447.039 51.374V51.85ZM444.435 55.182C445.779 55.182 446.549 54.748 447.011 53.964C447.025 54.412 447.067 54.72 447.109 55H448.397C448.243 54.286 448.187 53.432 448.201 52.158L448.215 50.422C448.229 48.294 447.305 47.314 445.219 47.314C443.763 47.314 442.307 48.224 442.195 49.848H443.511C443.567 48.91 444.169 48.35 445.233 48.35C446.185 48.35 446.941 48.798 446.941 50.184V50.366C443.861 50.702 441.845 51.234 441.845 53.012C441.845 54.398 443.021 55.182 444.435 55.182ZM455.755 47.468H452.801C451.065 47.468 450.001 48.238 450.001 49.792C450.001 50.912 450.645 51.64 451.597 51.962L449.315 55H450.897L452.941 52.312C453.011 52.326 453.081 52.326 453.151 52.326H454.481V55H455.755V47.468ZM454.481 48.574V51.22H452.983C452.101 51.22 451.303 50.898 451.303 49.876C451.303 48.966 451.933 48.574 452.871 48.574H454.481ZM467.502 55V47.468H466.228V50.604H462.504V47.468H461.23V55H462.504V51.71H466.228V55H467.502ZM474.328 51.85C474.328 53.628 473.194 54.174 472.004 54.174C471.094 54.174 470.548 53.698 470.548 52.984C470.548 51.948 472.018 51.598 474.328 51.374V51.85ZM471.724 55.182C473.068 55.182 473.838 54.748 474.3 53.964C474.314 54.412 474.356 54.72 474.398 55H475.686C475.532 54.286 475.476 53.432 475.49 52.158L475.504 50.422C475.518 48.294 474.594 47.314 472.508 47.314C471.052 47.314 469.596 48.224 469.484 49.848H470.8C470.856 48.91 471.458 48.35 472.522 48.35C473.474 48.35 474.23 48.798 474.23 50.184V50.366C471.15 50.702 469.134 51.234 469.134 53.012C469.134 54.398 470.31 55.182 471.724 55.182ZM484.515 53.894H483.465V47.468H478.383L478.285 49.89C478.173 52.774 477.725 53.894 476.871 53.894H476.535V56.666H477.767V55H483.283V56.666H484.515V53.894ZM482.191 53.894H478.523C479.111 53.334 479.433 52.242 479.545 50.016L479.615 48.574H482.191V53.894ZM492.001 47.468H485.799V55H487.073V48.574H490.727V55H492.001V47.468ZM499.318 55H500.592V47.468H499.318L495.426 53.152V47.468H494.152V55H495.426L499.318 49.316V55ZM505.804 47.342C503.578 47.342 502.164 49.008 502.164 51.248C502.164 53.544 503.508 55.182 505.678 55.182C507.442 55.182 508.772 53.964 509.038 52.55H507.722C507.54 53.334 506.798 54.062 505.72 54.062C504.6 54.062 503.55 53.138 503.55 51.234C503.55 49.344 504.6 48.462 505.72 48.462C506.714 48.462 507.484 49.092 507.666 49.988H508.954C508.772 48.7 507.652 47.342 505.804 47.342ZM511.819 50.128V47.468H510.545V55H513.597C515.333 55 516.425 54.37 516.425 52.508C516.425 50.898 515.585 50.128 513.611 50.128H511.819ZM511.819 53.894V51.234H513.457C514.591 51.234 515.179 51.514 515.179 52.508C515.179 53.516 514.605 53.894 513.485 53.894H511.819Z" fill="#848E99"/>
<path d="M376.842 308V297.85H370.472L370.402 300.412C370.29 303.884 369.94 306.768 368.596 306.768H368.386V308H368.806C370.892 308 371.578 305.256 371.76 300.846L371.83 299.082H375.414V308H376.842ZM380.068 304.262C380.068 302.204 381.16 301.462 382.322 301.462C383.484 301.462 384.576 302.246 384.576 304.262C384.576 306.194 383.484 307.062 382.322 307.062C381.16 307.062 380.068 306.278 380.068 304.262ZM382.322 300.342C380.572 300.342 378.71 301.532 378.71 304.262C378.71 306.992 380.572 308.182 382.322 308.182C384.072 308.182 385.934 306.992 385.934 304.262C385.934 301.532 384.072 300.342 382.322 300.342ZM392.33 301.574V300.468H387.528V308H388.802V301.574H392.33ZM394.096 304.262C394.096 302.204 395.188 301.462 396.35 301.462C397.512 301.462 398.604 302.246 398.604 304.262C398.604 306.194 397.512 307.062 396.35 307.062C395.188 307.062 394.096 306.278 394.096 304.262ZM396.35 300.342C394.6 300.342 392.738 301.532 392.738 304.262C392.738 306.992 394.6 308.182 396.35 308.182C398.1 308.182 399.962 306.992 399.962 304.262C399.962 301.532 398.1 300.342 396.35 300.342ZM406.867 301.574V300.468H400.441V301.574H403.017V308H404.291V301.574H406.867ZM413.325 308H414.599V300.468H413.325L409.433 306.152V300.468H408.159V308H409.433L413.325 302.316V308ZM422.961 300.468H416.759V308H418.033V301.574H421.687V308H422.961V300.468Z" fill="#848E99"/>
<path opacity="0.3" d="M101 123L132.4 123L210.899 123L228.243 123L659.6 123L691 123" stroke="#848E99"/>
<path opacity="0.3" d="M135 241V207.222V181.889V148.111V122.778V89" stroke="#848E99"/>
<path opacity="0.3" d="M101 207H132.4H210.899H228.243H659.6H691" stroke="#848E99"/>
<path opacity="0.3" d="M657 241L657 207.222L657 181.889L657 148.111L657 122.778L657 89" stroke="#848E99"/>
<path opacity="0.3" d="M237 241V207.222V181.889V148.111V122.778V89" stroke="#848E99"/>
<path opacity="0.3" d="M219 241V207.222V181.889V148.111V122.778V89" stroke="#848E99"/>
<path d="M176.823 206.988C199.921 206.988 218.646 188.263 218.646 165.165C218.646 142.067 199.921 123.342 176.823 123.342C153.725 123.342 135 142.067 135 165.165C135 188.263 153.725 206.988 176.823 206.988Z" fill="#242B33"/>
<path fill-rule="evenodd" clip-rule="evenodd" d="M200.16 140.949L197.985 138.942C197.609 138.565 197.107 138.398 196.563 138.398H179.081C178.496 138.398 177.91 138.607 177.45 138.984L175.234 140.866C173.853 139.067 171.679 137.938 169.044 137.938C163.941 137.938 159.132 142.037 158.212 147.139C157.626 150.359 158.797 153.203 161.014 154.835L157.375 175.412C154.573 177.043 152.398 179.887 151.813 183.107C150.934 188.209 154.322 192.308 159.383 192.308C162.059 192.308 164.694 191.137 166.702 189.297L168.876 191.346C169.253 191.723 169.755 191.89 170.298 191.89H187.781C188.366 191.89 188.952 191.681 189.412 191.304L191.963 189.129C192.423 188.753 192.716 188.209 192.799 187.666L194.221 179.636C194.347 178.925 194.096 178.214 193.594 177.754L191.419 175.746C191.043 175.37 190.541 175.202 189.997 175.202H184.978L184.393 178.548H191.085L189.328 188.586H169.253L171.009 178.548H177.701L178.287 175.202H172.515C171.93 175.202 171.344 175.412 170.884 175.788L169.127 177.294C168.667 176.583 168.082 175.955 167.371 175.453L171.009 154.876C171.93 154.333 172.808 153.663 173.561 152.869L175.359 154.542C175.735 154.918 176.237 155.085 176.781 155.085H181.8L182.385 151.74H175.694L177.45 141.702H197.525L195.769 151.74H189.077L188.492 155.085H194.263C194.849 155.085 195.434 154.876 195.894 154.5L198.445 152.325C198.906 151.949 199.198 151.405 199.282 150.861L200.704 142.831C200.955 142.162 200.704 141.451 200.16 140.949ZM163.732 177.544C166.033 178.255 167.371 180.514 166.911 183.149C166.325 186.369 163.272 189.004 160.01 189.004C156.748 189.004 154.615 186.369 155.2 183.149C155.66 180.514 157.835 178.255 160.386 177.544L164.736 152.785C162.436 152.074 161.097 149.816 161.557 147.181C162.143 143.961 165.196 141.326 168.458 141.326C171.72 141.326 173.853 143.961 173.268 147.181C172.808 149.816 170.633 152.074 168.082 152.785L163.732 177.544Z" fill="#A3876E"/>
<path d="M173.687 171.02H174.523L174.816 169.264H176.28L176.447 168.511H174.983L175.109 167.591H177.2L177.367 166.838H174.439L173.687 171.02Z" fill="white"/>
<path d="M177.45 171.02H178.287L179.04 166.838H178.203L177.45 171.02Z" fill="white"/>
<path d="M179.751 167.591H181.005L180.378 171.02H181.215L181.8 167.591H183.055L183.222 166.838H179.876L179.751 167.591Z" fill="white"/>
<path d="M186.275 169.682L184.895 166.838H184.058L183.306 171.02H184.142L184.644 168.176L186.024 171.02H186.861L187.613 166.838H186.777L186.275 169.682Z" fill="white"/>
<path d="M188.115 171.02H191.043L191.169 170.267H189.077L189.245 169.264H190.709L190.876 168.511H189.412L189.537 167.591H191.629L191.796 166.838H188.868L188.115 171.02Z" fill="white"/>
<path d="M192.716 167.465L192.507 168.636C192.465 168.971 192.716 169.264 193.05 169.264H194.723L194.556 170.267H192.256L192.13 171.02H194.64C195.016 171.02 195.309 170.769 195.392 170.393L195.601 169.138C195.643 168.804 195.392 168.511 195.058 168.511H193.385L193.552 167.591H195.643L195.769 166.838H193.468C193.092 166.838 192.757 167.089 192.716 167.465Z" fill="white"/>
<path d="M180.462 163.492H181.298L181.591 161.819L183.473 159.31H182.553L181.34 160.982L180.671 159.31H179.709L180.755 161.819L180.462 163.492Z" fill="white"/>
<path d="M184.226 163.492L184.686 160.732L185.522 162.655H185.69L187.195 160.732L186.735 163.492H187.572L188.283 159.31H187.446L185.857 161.401L184.937 159.31H184.1L183.389 163.492H184.226Z" fill="white"/>
<path d="M199.784 167.591L199.91 166.838H197.609C197.233 166.838 196.94 167.089 196.857 167.465L196.647 168.636C196.606 168.971 196.857 169.264 197.191 169.264H198.864L198.697 170.267H196.396L196.271 171.02H198.78C199.157 171.02 199.45 170.769 199.533 170.393L199.742 169.138C199.784 168.804 199.533 168.511 199.199 168.511H197.526L197.693 167.591H199.784Z" fill="white"/>
<path d="M175.652 163.492H177.701C178.078 163.492 178.371 163.241 178.454 162.865L178.789 160.982H177.116L176.99 161.735H177.827L177.66 162.739H175.987L176.447 160.062H178.747L178.872 159.31H176.363C175.987 159.31 175.694 159.561 175.61 159.937L175.108 162.865C175.066 163.199 175.317 163.492 175.652 163.492Z" fill="white"/>
<path d="M190.499 163.492H191.461C191.629 163.492 191.796 163.408 191.963 163.325L192.423 162.948L192.8 163.492H193.845L193.092 162.363L193.845 161.693L193.427 161.192L192.716 161.819L191.712 160.355L191.754 160.062H192.59L192.507 160.564H193.343L193.469 159.937C193.511 159.602 193.26 159.31 192.925 159.31H191.712C191.336 159.31 191.043 159.561 190.959 159.937L190.876 160.355C190.834 160.481 190.876 160.648 190.959 160.773L191.127 161.024L190.374 161.652C190.248 161.777 190.165 161.903 190.123 162.112L189.997 162.865C189.914 163.199 190.165 163.492 190.499 163.492ZM190.959 162.028L191.503 161.568L192.047 162.363L191.587 162.739H190.834L190.959 162.028Z" fill="white"/>
<path d="M246.503 166.083L248.076 157.153C248.309 155.936 249.358 155.066 250.523 155.066H278.551L279.716 148.397H251.572C250.174 148.397 248.834 148.861 247.668 149.673L242.307 153.5C240.909 154.486 239.918 156.052 239.627 157.733L238.753 162.488C238.17 165.562 240.559 168.345 243.706 168.345H269.228C270.277 168.345 271.034 169.273 270.859 170.317L270.393 172.984C270.16 174.202 269.111 175.071 267.946 175.071H236.597L235.432 181.74H270.918C274.589 181.74 277.677 179.131 278.318 175.535L279.367 169.563C280.066 165.504 276.919 161.734 272.782 161.734H256.117C254.719 161.734 253.379 162.14 252.271 162.952L247.202 166.489C246.852 166.721 246.445 166.489 246.503 166.083Z" fill="#242B33"/>
<path d="M288.981 157.849L284.727 181.798H293.118L294.808 172.23C295.041 171.013 296.09 170.143 297.255 170.143H325.632C329.303 170.143 332.391 167.533 333.032 163.938L334.373 156.284C335.072 152.225 331.925 148.456 327.788 148.456H301.043C299.644 148.456 298.304 148.861 297.197 149.673L291.661 153.558C290.263 154.544 289.272 156.11 288.981 157.849ZM322.661 163.416H305.121C303.723 163.416 302.383 163.822 301.276 164.634L296.206 168.171C295.915 168.403 295.507 168.113 295.565 167.765L297.43 157.154C297.663 155.936 298.712 155.066 299.877 155.066H324.234C325.283 155.066 326.04 155.994 325.865 157.038L325.108 161.329C324.933 162.546 323.884 163.416 322.661 163.416Z" fill="#242B33"/>
<path d="M349.989 149.673L344.453 153.558C342.997 154.544 342.006 156.11 341.715 157.849L339.209 171.882C338.859 173.912 339.675 175.941 341.307 177.159L346.027 180.754C346.959 181.45 348.124 181.856 349.29 181.856H375.452C376.851 181.856 378.191 181.45 379.298 180.638L384.834 176.753C386.29 175.767 387.281 174.202 387.572 172.462L390.078 158.429C390.428 156.4 389.612 154.37 387.98 153.153L383.261 149.557C382.328 148.861 381.163 148.456 379.997 148.456H353.835C352.436 148.456 351.096 148.861 349.989 149.673ZM376.676 175.072H348.998C347.949 175.072 347.192 174.144 347.367 173.1L350.222 157.154C350.455 155.936 351.504 155.066 352.669 155.066H380.347C381.396 155.066 382.153 155.994 381.979 157.038L379.123 172.984C378.949 174.202 377.9 175.072 376.676 175.072Z" fill="#242B33"/>
<path d="M437.451 148.456H410.705C409.307 148.456 407.967 148.861 406.859 149.673L401.324 153.558C399.867 154.544 398.877 156.11 398.585 157.849L394.332 181.798H402.664L404.354 172.23C404.587 171.013 405.636 170.143 406.801 170.143H424.806C425.389 170.143 425.855 170.433 426.205 170.897L433.663 181.798H442.87L435.12 170.433C435.003 170.317 435.12 170.143 435.295 170.143C438.966 170.143 442.054 167.533 442.695 163.938L444.035 156.284C444.734 152.167 441.588 148.456 437.451 148.456ZM432.265 163.416H414.726C413.386 163.416 412.045 163.822 410.938 164.576L405.869 168.055C405.577 168.287 405.17 167.997 405.228 167.649L407.092 157.096C407.326 155.878 408.374 155.008 409.54 155.008H433.896C434.945 155.008 435.703 155.936 435.528 156.98L434.77 161.271C434.537 162.546 433.488 163.416 432.265 163.416Z" fill="#242B33"/>
<path d="M511.511 148.456H503.12L498.459 174.898C497.818 178.493 500.556 181.74 504.227 181.74H535.751L536.916 175.072H508.772C507.723 175.072 506.966 174.144 507.141 173.1L511.511 148.456Z" fill="#242B33"/>
<path d="M542.393 181.74H550.784L556.669 148.456H548.279L542.393 181.74Z" fill="#242B33"/>
<path d="M607.364 155.124L608.529 148.456H575.49C574.092 148.456 572.752 148.861 571.645 149.673L566.109 153.558C564.652 154.544 563.662 156.11 563.37 157.849L559.117 181.798H567.507L569.197 172.23C569.43 171.013 570.479 170.143 571.645 170.143H601.362L602.527 163.474H579.569C578.171 163.474 576.831 163.88 575.723 164.692L570.654 168.229C570.363 168.461 569.955 168.171 570.013 167.823L571.878 157.212C572.111 155.994 573.16 155.124 574.325 155.124H607.364Z" fill="#242B33"/>
<path d="M655.843 155.124L657.009 148.456H623.97C622.572 148.456 621.232 148.861 620.125 149.673L614.589 153.558C613.132 154.544 612.142 156.11 611.85 157.849L608.995 173.97C608.296 178.029 611.442 181.798 615.58 181.798H651.124L652.289 175.13H619.134C618.085 175.13 617.328 174.202 617.502 173.158L617.969 170.491C618.202 169.273 619.25 168.403 620.416 168.403H650.075L651.24 161.735H628.282C626.884 161.735 625.544 162.14 624.436 162.952L619.367 166.49C619.076 166.721 618.668 166.432 618.726 166.084L620.299 157.154C620.532 155.936 621.581 155.066 622.747 155.066H655.843V155.124Z" fill="#242B33"/>
<path d="M450.095 155.124H473.461C473.869 155.124 474.044 155.646 473.694 155.878L469.907 158.545C468.45 159.531 467.459 161.097 467.168 162.836L463.788 181.74H472.179L476.549 157.153C476.782 155.936 477.831 155.066 478.997 155.066H495.312L496.536 148.397H451.319L450.095 155.124Z" fill="#242B33"/>
</svg>
