<svg width="323" height="169" viewBox="0 0 323 169" fill="none" xmlns="http://www.w3.org/2000/svg">
<path d="M18.8269 137.787H304.296" stroke="#A3876E" stroke-width="0.546875"/>
<path d="M18.8269 137.787L18.8269 120.287" stroke="#A3876E" stroke-width="0.546875"/>
<path d="M304.296 137.787L304.296 120.287" stroke="#A3876E" stroke-width="0.546875"/>
<path d="M64.7647 47.5525V30.0525H18.8272V47.5525" stroke="#A3876E" stroke-width="0.546875"/>
<path d="M31.8629 10.003C32.7589 9.55502 33.2769 8.81302 33.2769 7.76302C33.2769 6.02702 31.7649 5.03302 29.9309 5.03302C27.7889 5.03302 26.4589 6.32102 26.1929 8.28102H27.6069C27.7609 6.92302 28.7409 6.23702 29.8609 6.23702C31.0789 6.23702 31.8209 6.81102 31.8209 7.91702C31.8209 8.98102 31.0089 9.54102 29.8189 9.54102H28.6989V10.703H29.9029C31.4709 10.703 32.1989 11.319 32.1989 12.453C32.1989 13.587 31.4149 14.329 29.8889 14.329C28.4889 14.329 27.5929 13.685 27.3549 12.453H25.9549C26.3469 14.343 27.6069 15.533 29.7909 15.533C31.7929 15.533 33.6549 14.623 33.6549 12.495C33.6549 11.053 32.9689 10.325 31.8629 10.003ZM41.5922 15.365V7.83302H40.3182V10.969H36.5942V7.83302H35.3202V15.365H36.5942V12.075H40.3182V15.365H41.5922ZM48.4181 12.215C48.4181 13.993 47.2841 14.539 46.0941 14.539C45.1841 14.539 44.6381 14.063 44.6381 13.349C44.6381 12.313 46.1081 11.963 48.4181 11.739V12.215ZM45.8141 15.547C47.1581 15.547 47.9281 15.113 48.3901 14.329C48.4041 14.777 48.4461 15.085 48.4881 15.365H49.7761C49.6221 14.651 49.5661 13.797 49.5801 12.523L49.5941 10.787C49.6081 8.65902 48.6841 7.67902 46.5981 7.67902C45.1421 7.67902 43.6861 8.58902 43.5741 10.213H44.8901C44.9461 9.27502 45.5481 8.71502 46.6121 8.71502C47.5641 8.71502 48.3201 9.16302 48.3201 10.549V10.731C45.2401 11.067 43.2241 11.599 43.2241 13.377C43.2241 14.763 44.4001 15.547 45.8141 15.547ZM56.4064 15.365H57.9884L54.8524 11.389L57.6944 7.83302H56.1824L53.7884 10.913H52.8504V7.83302H51.5624V15.365H52.8504V12.019H53.8164L56.4064 15.365Z" fill="#848E99"/>
<path d="M304.297 47.5524V30.0524H74.6097V47.5524" stroke="#848E99" stroke-width="0.546875"/>
<path d="M126.168 4.65493H124.74V5.91493C121.898 6.02693 120.204 7.81893 120.204 10.2269C120.204 12.6489 121.898 14.4269 124.74 14.5389V15.7289H126.168V14.5389C129.01 14.4269 130.69 12.6629 130.69 10.2829C130.69 7.81893 129.01 6.02693 126.168 5.91493V4.65493ZM124.74 13.3489C122.962 13.2369 121.66 12.1309 121.66 10.2549C121.66 8.30893 122.962 7.21693 124.74 7.10493V13.3489ZM126.168 7.10493C127.918 7.21693 129.234 8.33693 129.234 10.2549C129.234 12.1309 127.918 13.2369 126.168 13.3489V7.10493ZM137.468 15.3649H138.742V7.83293H137.468L133.576 13.5169V7.83293H132.302V15.3649H133.576L137.468 9.68093V15.3649ZM140.902 7.83293V17.8149H142.176V14.2309C142.638 15.0289 143.422 15.5469 144.64 15.5469C146.376 15.5469 147.86 14.1329 147.86 11.6269C147.86 9.16293 146.376 7.70693 144.64 7.70693C143.422 7.70693 142.638 8.22493 142.176 9.02293V7.83293H140.902ZM142.12 11.6269C142.12 9.63893 143.184 8.79893 144.318 8.79893C145.62 8.79893 146.474 9.82093 146.474 11.6269C146.474 13.4329 145.62 14.4549 144.318 14.4549C143.184 14.4549 142.12 13.6149 142.12 11.6269ZM157.665 7.83293H155.845L153.591 13.6289L151.253 7.83293H149.433V15.3649H150.679V9.40093L153.087 15.3649H153.997L156.419 9.31693V15.3649H157.665V7.83293ZM166.404 12.0189C166.558 9.62493 165.2 7.70693 162.89 7.70693C160.832 7.70693 159.236 9.21893 159.236 11.6129C159.236 13.8389 160.552 15.5469 162.932 15.5469C164.766 15.5469 165.97 14.4689 166.306 13.1809H164.99C164.668 13.9229 164.052 14.4269 162.932 14.4269C161.826 14.4269 160.65 13.6429 160.608 12.0189H166.404ZM162.89 8.79893C164.248 8.79893 165.018 9.86293 165.06 10.9269H160.622C160.734 9.41493 161.77 8.79893 162.89 8.79893ZM174.244 15.3649V7.83293H172.97V10.9689H169.246V7.83293H167.972V15.3649H169.246V12.0749H172.97V15.3649H174.244ZM182.666 15.3649V7.83293H181.392V10.9689H177.668V7.83293H176.394V15.3649H177.668V12.0749H181.392V15.3649H182.666ZM189.492 12.2149C189.492 13.9929 188.358 14.5389 187.168 14.5389C186.258 14.5389 185.712 14.0629 185.712 13.3489C185.712 12.3129 187.182 11.9629 189.492 11.7389V12.2149ZM186.888 15.5469C188.232 15.5469 189.002 15.1129 189.464 14.3289C189.478 14.7769 189.52 15.0849 189.562 15.3649H190.85C190.696 14.6509 190.64 13.7969 190.654 12.5229L190.668 10.7869C190.682 8.65893 189.758 7.67893 187.672 7.67893C186.216 7.67893 184.76 8.58893 184.648 10.2129H185.964C186.02 9.27493 186.622 8.71493 187.686 8.71493C188.638 8.71493 189.394 9.16293 189.394 10.5489V10.7309C186.314 11.0669 184.298 11.5989 184.298 13.3769C184.298 14.7629 185.474 15.5469 186.888 15.5469ZM198.208 7.83293H195.254C193.518 7.83293 192.454 8.60293 192.454 10.1569C192.454 11.2769 193.098 12.0049 194.05 12.3269L191.768 15.3649H193.35L195.394 12.6769C195.464 12.6909 195.534 12.6909 195.604 12.6909H196.934V15.3649H198.208V7.83293ZM196.934 8.93893V11.5849H195.436C194.554 11.5849 193.756 11.2629 193.756 10.2409C193.756 9.33093 194.386 8.93893 195.324 8.93893H196.934ZM209.955 15.3649V7.83293H208.681V10.9689H204.957V7.83293H203.683V15.3649H204.957V12.0749H208.681V15.3649H209.955ZM216.781 12.2149C216.781 13.9929 215.647 14.5389 214.457 14.5389C213.547 14.5389 213.001 14.0629 213.001 13.3489C213.001 12.3129 214.471 11.9629 216.781 11.7389V12.2149ZM214.177 15.5469C215.521 15.5469 216.291 15.1129 216.753 14.3289C216.767 14.7769 216.809 15.0849 216.851 15.3649H218.139C217.985 14.6509 217.929 13.7969 217.943 12.5229L217.957 10.7869C217.971 8.65893 217.047 7.67893 214.961 7.67893C213.505 7.67893 212.049 8.58893 211.937 10.2129H213.253C213.309 9.27493 213.911 8.71493 214.975 8.71493C215.927 8.71493 216.683 9.16293 216.683 10.5489V10.7309C213.603 11.0669 211.587 11.5989 211.587 13.3769C211.587 14.7629 212.763 15.5469 214.177 15.5469ZM226.967 14.2589H225.917V7.83293H220.835L220.737 10.2549C220.625 13.1389 220.177 14.2589 219.323 14.2589H218.987V17.0309H220.219V15.3649H225.735V17.0309H226.967V14.2589ZM224.643 14.2589H220.975C221.563 13.6989 221.885 12.6069 221.997 10.3809L222.067 8.93893H224.643V14.2589ZM234.454 7.83293H228.252V15.3649H229.526V8.93893H233.18V15.3649H234.454V7.83293ZM241.771 15.3649H243.045V7.83293H241.771L237.879 13.5169V7.83293H236.605V15.3649H237.879L241.771 9.68093V15.3649ZM248.257 7.70693C246.031 7.70693 244.617 9.37293 244.617 11.6129C244.617 13.9089 245.961 15.5469 248.131 15.5469C249.895 15.5469 251.225 14.3289 251.491 12.9149H250.175C249.993 13.6989 249.251 14.4269 248.173 14.4269C247.053 14.4269 246.003 13.5029 246.003 11.5989C246.003 9.70893 247.053 8.82693 248.173 8.82693C249.167 8.82693 249.937 9.45693 250.119 10.3529H251.407C251.225 9.06493 250.105 7.70693 248.257 7.70693ZM254.272 10.4929V7.83293H252.998V15.3649H256.05C257.786 15.3649 258.878 14.7349 258.878 12.8729C258.878 11.2629 258.038 10.4929 256.064 10.4929H254.272ZM254.272 14.2589V11.5989H255.91C257.044 11.5989 257.632 11.8789 257.632 12.8729C257.632 13.8809 257.058 14.2589 255.938 14.2589H254.272Z" fill="#848E99"/>
<path d="M126.632 163.724H128.34L124.28 158.376L128.2 153.574H126.478L123.062 157.872H122.04V153.574H120.612V163.724H122.04V159.104H123.104L126.632 163.724ZM130.153 159.986C130.153 157.928 131.245 157.186 132.407 157.186C133.569 157.186 134.661 157.97 134.661 159.986C134.661 161.918 133.569 162.786 132.407 162.786C131.245 162.786 130.153 162.002 130.153 159.986ZM132.407 156.066C130.657 156.066 128.795 157.256 128.795 159.986C128.795 162.716 130.657 163.906 132.407 163.906C134.157 163.906 136.019 162.716 136.019 159.986C136.019 157.256 134.157 156.066 132.407 156.066ZM145.845 156.192H144.025L141.771 161.988L139.433 156.192H137.613V163.724H138.859V157.76L141.267 163.724H142.177L144.599 157.676V163.724H145.845V156.192ZM154.206 156.192H148.004V163.724H149.278V157.298H152.932V163.724H154.206V156.192ZM157.155 159.986C157.155 157.928 158.247 157.186 159.409 157.186C160.571 157.186 161.663 157.97 161.663 159.986C161.663 161.918 160.571 162.786 159.409 162.786C158.247 162.786 157.155 162.002 157.155 159.986ZM159.409 156.066C157.659 156.066 155.797 157.256 155.797 159.986C155.797 162.716 157.659 163.906 159.409 163.906C161.159 163.906 163.021 162.716 163.021 159.986C163.021 157.256 161.159 156.066 159.409 156.066ZM168.647 159.776C169.319 159.454 169.837 158.922 169.837 158.152C169.837 156.738 168.465 156.024 166.981 156.024C165.399 156.024 164.181 156.878 163.915 158.516H165.231C165.399 157.494 166.113 157.144 167.051 157.144C167.877 157.144 168.521 157.466 168.521 158.18C168.521 158.964 167.989 159.356 167.107 159.356H165.973V160.406H167.177C168.241 160.406 168.815 160.756 168.815 161.638C168.815 162.352 168.143 162.842 167.079 162.842C166.001 162.842 165.287 162.394 165.077 161.428H163.789C164.055 163.15 165.385 163.906 166.995 163.906C168.675 163.906 170.173 163.206 170.173 161.582C170.173 160.574 169.445 160 168.647 159.776ZM176.85 163.724H178.124V156.192H176.85L172.958 161.876V156.192H171.684V163.724H172.958L176.85 158.04V163.724ZM186.275 162.618V156.192H185.001V162.618H181.557V156.192H180.283V163.724H186.121V165.53H187.325V162.618H186.275ZM193.775 163.724H195.049V156.192H193.775L189.883 161.876V156.192H188.609V163.724H189.883L193.775 158.04V163.724ZM202.781 156.192H199.827C198.091 156.192 197.027 156.962 197.027 158.516C197.027 159.636 197.671 160.364 198.623 160.686L196.341 163.724H197.923L199.967 161.036C200.037 161.05 200.107 161.05 200.177 161.05H201.507V163.724H202.781V156.192ZM201.507 157.298V159.944H200.009C199.127 159.944 198.329 159.622 198.329 158.6C198.329 157.69 198.959 157.298 199.897 157.298H201.507Z" fill="#848E99"/>
<path opacity="0.3" d="M0.232611 55.7556L17.4043 55.7556L60.3335 55.7556L69.8188 55.7556L305.717 55.7556L322.889 55.7556" stroke="#848E99" stroke-width="0.546875"/>
<path opacity="0.3" d="M18.8264 120.287V101.815V87.9605V69.4883V55.6341V37.1619" stroke="#848E99" stroke-width="0.546875"/>
<path opacity="0.3" d="M0.232611 101.693H17.4043H60.3335H69.8188H305.717H322.889" stroke="#848E99" stroke-width="0.546875"/>
<path opacity="0.3" d="M304.295 120.287L304.295 101.815L304.295 87.9605L304.295 69.4883L304.295 55.6341L304.295 37.1619" stroke="#848E99" stroke-width="0.546875"/>
<path opacity="0.3" d="M74.6076 120.287V101.815V87.9605V69.4883V55.6341V37.1619" stroke="#848E99" stroke-width="0.546875"/>
<path opacity="0.3" d="M64.7639 120.287V101.815V87.9605V69.4883V55.6341V37.1619" stroke="#848E99" stroke-width="0.546875"/>
<path d="M41.699 101.686C54.3308 101.686 64.571 91.4463 64.571 78.8144C64.571 66.1826 54.3308 55.9424 41.699 55.9424C29.0671 55.9424 18.827 66.1826 18.827 78.8144C18.827 91.4463 29.0671 101.686 41.699 101.686Z" fill="#242B33"/>
<path fill-rule="evenodd" clip-rule="evenodd" d="M54.4616 65.5715L53.2722 64.4737C53.0664 64.2678 52.7919 64.1763 52.4946 64.1763H42.9341C42.6139 64.1763 42.2937 64.2907 42.0421 64.4965L40.8298 65.5258C40.0751 64.5423 38.8857 63.9247 37.4448 63.9247C34.6544 63.9247 32.0241 66.1662 31.5209 68.9566C31.2007 70.7177 31.8411 72.273 33.0534 73.165L31.0635 84.4181C29.5311 85.3101 28.3417 86.8654 28.0215 88.6265C27.5412 91.4169 29.3938 93.6584 32.1613 93.6584C33.6252 93.6584 35.0661 93.018 36.164 92.0116L37.3533 93.1323C37.5591 93.3382 37.8336 93.4297 38.1309 93.4297H47.6915C48.0117 93.4297 48.3319 93.3153 48.5835 93.1094L49.9787 91.9201C50.2302 91.7142 50.3904 91.4169 50.4361 91.1196L51.2137 86.7281C51.2824 86.3393 51.1451 85.9505 50.8707 85.6989L49.6813 84.601C49.4755 84.3952 49.201 84.3037 48.9037 84.3037H46.159L45.8388 86.1335H49.4983L48.5377 91.6228H37.5591L38.5198 86.1335H42.1793L42.4995 84.3037H39.3432C39.023 84.3037 38.7027 84.4181 38.4512 84.6239L37.4905 85.4473C37.2389 85.0585 36.9187 84.7154 36.5299 84.4409L38.5198 73.1879C39.023 72.8906 39.5033 72.5246 39.915 72.09L40.8985 73.0049C41.1043 73.2108 41.3788 73.3023 41.6761 73.3023H44.4208L44.741 71.4725H41.0814L42.0421 65.9832H53.0206L52.06 71.4725H48.4005L48.0803 73.3023H51.2366C51.5568 73.3023 51.877 73.1879 52.1286 72.9821L53.5238 71.7927C53.7754 71.5869 53.9355 71.2895 53.9813 70.9922L54.7589 66.6008C54.8961 66.2348 54.7589 65.846 54.4616 65.5715ZM34.54 85.5845C35.798 85.9734 36.5299 87.2085 36.2783 88.6494C35.9581 90.4105 34.2884 91.8515 32.5044 91.8515C30.7204 91.8515 29.5539 90.4105 29.8741 88.6494C30.1257 87.2085 31.3151 85.9734 32.7103 85.5845L35.089 72.0443C33.831 71.6555 33.0991 70.4204 33.3507 68.9795C33.6709 67.2183 35.3406 65.7774 37.1246 65.7774C38.9086 65.7774 40.0751 67.2183 39.7549 68.9795C39.5033 70.4204 38.3139 71.6555 36.9187 72.0443L34.54 85.5845Z" fill="#A3876E"/>
<path d="M39.9836 82.0165H40.441L40.6011 81.0559H41.4016L41.4931 80.6442H40.6926L40.7612 80.141H41.9048L41.9963 79.7293H40.3953L39.9836 82.0165Z" fill="white"/>
<path d="M42.0421 82.0165H42.4995L42.9112 79.7293H42.4538L42.0421 82.0165Z" fill="white"/>
<path d="M43.3 80.141H43.9862L43.6431 82.0165H44.1005L44.4208 80.141H45.1069L45.1984 79.7293H43.3686L43.3 80.141Z" fill="white"/>
<path d="M46.8681 81.2846L46.1133 79.7293H45.6558L45.2441 82.0165H45.7016L45.9761 80.4612L46.7308 82.0165H47.1883L47.6 79.7293H47.1425L46.8681 81.2846Z" fill="white"/>
<path d="M47.8744 82.0165H49.4755L49.5441 81.6048H48.4005L48.492 81.0559H49.2925L49.384 80.6442H48.5835L48.6521 80.141H49.7957L49.8872 79.7293H48.2861L47.8744 82.0165Z" fill="white"/>
<path d="M50.3904 80.0724L50.276 80.7128C50.2531 80.8958 50.3904 81.0559 50.5733 81.0559H51.4882L51.3967 81.6048H50.1388L50.0702 82.0165H51.4425C51.6483 82.0165 51.8084 81.8793 51.8542 81.6735L51.9685 80.9873C51.9914 80.8043 51.8542 80.6442 51.6712 80.6442H50.7563L50.8478 80.141H51.9914L52.06 79.7293H50.8021C50.5962 79.7293 50.4132 79.8666 50.3904 80.0724Z" fill="white"/>
<path d="M43.6889 77.8996H44.1463L44.3064 76.9847L45.3356 75.6124H44.8325L44.1692 76.5272L43.8032 75.6124H43.2772L43.849 76.9847L43.6889 77.8996Z" fill="white"/>
<path d="M45.7473 77.8996L45.9989 76.39L46.4564 77.4421H46.5479L47.3713 76.39L47.1197 77.8996H47.5771L47.9659 75.6124H47.5085L46.6393 76.756L46.1362 75.6124H45.6787L45.2899 77.8996H45.7473Z" fill="white"/>
<path d="M54.2557 80.141L54.3243 79.7293H53.0664C52.8605 79.7293 52.7004 79.8666 52.6547 80.0724L52.5403 80.7128C52.5175 80.8958 52.6547 81.0559 52.8377 81.0559H53.7525L53.6611 81.6048H52.4031L52.3345 82.0165H53.7068C53.9127 82.0165 54.0728 81.8793 54.1185 81.6735L54.2329 80.9873C54.2557 80.8043 54.1185 80.6442 53.9355 80.6442H53.0206L53.1121 80.141H54.2557Z" fill="white"/>
<path d="M41.0586 77.8996H42.1793C42.3851 77.8996 42.5453 77.7623 42.591 77.5565L42.774 76.5272H41.8591L41.7905 76.9389H42.2479L42.1564 77.4879H41.2415L41.4931 76.0241H42.7511L42.8197 75.6124H41.4474C41.2415 75.6124 41.0814 75.7496 41.0357 75.9554L40.7612 77.5565C40.7384 77.7395 40.8756 77.8996 41.0586 77.8996Z" fill="white"/>
<path d="M49.1781 77.8996H49.7042C49.7957 77.8996 49.8872 77.8538 49.9787 77.8081L50.2303 77.6022L50.4361 77.8996H51.0079L50.5962 77.282L51.0079 76.9161L50.7792 76.6416L50.3904 76.9847L49.8414 76.1842L49.8643 76.0241H50.3217L50.276 76.2985H50.7334L50.8021 75.9554C50.8249 75.7725 50.6877 75.6124 50.5047 75.6124H49.8414C49.6356 75.6124 49.4755 75.7496 49.4297 75.9554L49.384 76.1842C49.3611 76.2528 49.384 76.3443 49.4297 76.4129L49.5212 76.5501L49.1095 76.8932C49.0409 76.9618 48.9952 77.0304 48.9723 77.1448L48.9037 77.5565C48.8579 77.7395 48.9952 77.8996 49.1781 77.8996ZM49.4297 77.099L49.7271 76.8475L50.0244 77.282L49.7728 77.4879H49.3611L49.4297 77.099Z" fill="white"/>
<path d="M79.8048 79.317L80.6652 74.4334C80.7926 73.7674 81.3662 73.2918 82.0036 73.2918H97.3311L97.9684 69.6449H82.5771C81.8124 69.6449 81.0794 69.8986 80.4421 70.3426L77.5105 72.4355C76.7457 72.9746 76.204 73.8309 76.0446 74.7505L75.5666 77.3509C75.248 79.0316 76.5545 80.5537 78.2752 80.5537H92.2325C92.8061 80.5537 93.2204 81.0611 93.1248 81.6319L92.8698 83.0907C92.7424 83.7566 92.1688 84.2323 91.5315 84.2323H74.3876L73.7503 87.8791H93.1566C95.1642 87.8791 96.8531 86.4521 97.2036 84.486L97.7772 81.2197C98.1596 78.9999 96.4388 76.9386 94.1763 76.9386H85.0627C84.2979 76.9386 83.565 77.1606 82.9595 77.6045L80.1872 79.539C79.996 79.6658 79.7729 79.539 79.8048 79.317Z" fill="#242B33"/>
<path d="M103.035 74.8139L100.709 87.9108H105.298L106.222 82.6784C106.349 82.0125 106.923 81.5368 107.56 81.5368H123.079C125.086 81.5368 126.775 80.1098 127.126 78.1436L127.859 73.9577C128.241 71.7379 126.52 69.6766 124.258 69.6766H109.631C108.867 69.6766 108.134 69.8986 107.528 70.3426L104.501 72.4673C103.736 73.0064 103.194 73.8626 103.035 74.8139ZM121.454 77.8582H111.862C111.097 77.8582 110.364 78.0802 109.759 78.5242L106.986 80.4586C106.827 80.5854 106.604 80.4269 106.636 80.2366L107.656 74.4334C107.783 73.7674 108.357 73.2918 108.994 73.2918H122.314C122.888 73.2918 123.302 73.7991 123.206 74.37L122.792 76.7166C122.696 77.3826 122.123 77.8582 121.454 77.8582Z" fill="#242B33"/>
<path d="M136.399 70.3426L133.371 72.4673C132.575 73.0064 132.033 73.8626 131.874 74.8139L130.504 82.4881C130.312 83.5981 130.758 84.708 131.651 85.3739L134.232 87.34C134.742 87.7206 135.379 87.9426 136.016 87.9426H150.324C151.089 87.9426 151.822 87.7206 152.427 87.2766L155.455 85.1519C156.251 84.6128 156.793 83.7566 156.952 82.8053L158.322 75.131C158.514 74.0211 158.068 72.9112 157.175 72.2453L154.594 70.2792C154.084 69.8986 153.447 69.6766 152.81 69.6766H138.502C137.737 69.6766 137.004 69.8986 136.399 70.3426ZM150.993 84.2323H135.857C135.283 84.2323 134.869 83.7249 134.965 83.1541L136.526 74.4334C136.654 73.7674 137.227 73.2918 137.865 73.2918H153.001C153.574 73.2918 153.989 73.7991 153.893 74.37L152.332 83.0907C152.236 83.7566 151.662 84.2323 150.993 84.2323Z" fill="#242B33"/>
<path d="M184.229 69.6766H169.603C168.838 69.6766 168.105 69.8986 167.5 70.3426L164.473 72.4673C163.676 73.0064 163.134 73.8626 162.975 74.8139L160.649 87.9108H165.206L166.13 82.6784C166.257 82.0125 166.831 81.5368 167.468 81.5368H177.315C177.633 81.5368 177.888 81.6954 178.079 81.949L182.158 87.9108H187.193L182.955 81.6954C182.891 81.6319 182.955 81.5368 183.05 81.5368C185.058 81.5368 186.747 80.1098 187.097 78.1436L187.83 73.9577C188.213 71.7062 186.492 69.6766 184.229 69.6766ZM181.393 77.8582H171.802C171.069 77.8582 170.336 78.0802 169.73 78.4925L166.958 80.3952C166.799 80.522 166.576 80.3635 166.608 80.1732L167.627 74.4017C167.755 73.7357 168.328 73.26 168.966 73.26H182.286C182.859 73.26 183.274 73.7674 183.178 74.3383L182.764 76.6849C182.636 77.3826 182.063 77.8582 181.393 77.8582Z" fill="#242B33"/>
<path d="M224.731 69.6766H220.142L217.593 84.1372C217.243 86.1033 218.74 87.8791 220.748 87.8791H237.987L238.625 84.2323H223.233C222.66 84.2323 222.246 83.7249 222.341 83.1541L224.731 69.6766Z" fill="#242B33"/>
<path d="M241.62 87.8791H246.209L249.427 69.6766H244.839L241.62 87.8791Z" fill="#242B33"/>
<path d="M277.151 73.3235L277.788 69.6766H259.72C258.955 69.6766 258.222 69.8986 257.617 70.3426L254.589 72.4673C253.793 73.0064 253.251 73.8626 253.092 74.8139L250.766 87.9108H255.354L256.278 82.6784C256.406 82.0125 256.979 81.5368 257.617 81.5368H273.868L274.506 77.89H261.951C261.186 77.89 260.453 78.1119 259.847 78.5559L257.075 80.4903C256.916 80.6172 256.693 80.4586 256.724 80.2683L257.744 74.4651C257.872 73.7992 258.445 73.3235 259.083 73.3235H277.151Z" fill="#242B33"/>
<path d="M303.663 73.3235L304.3 69.6766H286.232C285.468 69.6766 284.735 69.8986 284.129 70.3426L281.102 72.4673C280.305 73.0064 279.764 73.8626 279.604 74.8139L278.043 83.6298C277.66 85.8496 279.381 87.9108 281.644 87.9108H301.082L301.719 84.264H283.587C283.014 84.264 282.6 83.7566 282.695 83.1858L282.95 81.7271C283.078 81.0611 283.651 80.5854 284.288 80.5854H300.508L301.146 76.9386H288.59C287.826 76.9386 287.093 77.1606 286.487 77.6045L283.715 79.539C283.556 79.6658 283.333 79.5073 283.364 79.317L284.225 74.4334C284.352 73.7674 284.926 73.2918 285.563 73.2918H303.663V73.3235Z" fill="#242B33"/>
<path d="M191.144 73.3235H203.923C204.146 73.3235 204.241 73.6089 204.05 73.7357L201.979 75.1945C201.182 75.7336 200.64 76.5898 200.481 77.5411L198.633 87.8791H203.222L205.612 74.4334C205.739 73.7674 206.313 73.2918 206.95 73.2918H215.872L216.542 69.6449H191.814L191.144 73.3235Z" fill="#242B33"/>
</svg>
