<svg width="832" height="352" viewBox="0 0 832 352" fill="none" xmlns="http://www.w3.org/2000/svg">
<path d="M135 273H657" stroke="#A3876E"/>
<path d="M135 273L135 241" stroke="#A3876E"/>
<path d="M657 273L657 241" stroke="#A3876E"/>
<path d="M219 108V76H135V108" stroke="#A3876E"/>
<path d="M162.474 52.1699L163.738 51.8418C163.834 52.3294 164.089 52.8171 164.504 53.3047C164.923 53.7923 165.477 54.0361 166.165 54.0361C166.867 54.0361 167.421 53.8561 167.826 53.4961C168.232 53.1361 168.435 52.7008 168.435 52.1904C168.435 51.639 168.22 51.2015 167.792 50.8779C167.364 50.5498 166.78 50.3857 166.042 50.3857H165.406V49.2305C166.017 49.2305 166.484 49.1963 166.808 49.1279C167.131 49.055 167.416 48.875 167.662 48.5879C167.913 48.2962 168.038 47.9658 168.038 47.5967C168.038 47.1592 167.867 46.7786 167.525 46.4551C167.188 46.1315 166.73 45.9697 166.151 45.9697C165.646 45.9697 165.213 46.0973 164.853 46.3525C164.497 46.6032 164.251 46.9382 164.114 47.3574C163.978 47.7721 163.909 48.082 163.909 48.2871L162.638 48C162.952 45.8717 164.128 44.8076 166.165 44.8076C167.145 44.8076 167.922 45.0811 168.496 45.6279C169.07 46.1702 169.357 46.806 169.357 47.5352C169.357 48.4694 168.915 49.194 168.031 49.709C168.542 49.8503 168.968 50.1396 169.31 50.5771C169.656 51.0101 169.829 51.5296 169.829 52.1357C169.829 52.9971 169.494 53.7194 168.824 54.3027C168.159 54.8815 167.275 55.1709 166.172 55.1709C164.276 55.1709 163.043 54.1706 162.474 52.1699ZM171.333 47.7402H172.563V50.7617H175.975V47.7402H177.205V55H175.975V51.7803H172.563V55H171.333V47.7402ZM183.802 54.1045C183.346 54.4919 182.906 54.7653 182.482 54.9248C182.063 55.0843 181.612 55.1641 181.129 55.1641C180.331 55.1641 179.718 54.9704 179.29 54.583C178.862 54.1911 178.647 53.6921 178.647 53.0859C178.647 52.7305 178.727 52.4069 178.887 52.1152C179.051 51.819 179.263 51.582 179.522 51.4043C179.787 51.2266 180.083 51.0921 180.411 51.001C180.653 50.9372 181.017 50.8757 181.505 50.8164C182.498 50.6979 183.23 50.5566 183.699 50.3926C183.704 50.224 183.706 50.1169 183.706 50.0713C183.706 49.57 183.59 49.2168 183.357 49.0117C183.043 48.7337 182.576 48.5947 181.956 48.5947C181.377 48.5947 180.949 48.6973 180.671 48.9023C180.397 49.1029 180.195 49.4606 180.062 49.9756L178.859 49.8115C178.969 49.2965 179.149 48.8818 179.399 48.5674C179.65 48.2484 180.012 48.0046 180.486 47.8359C180.96 47.6628 181.509 47.5762 182.134 47.5762C182.754 47.5762 183.257 47.6491 183.645 47.7949C184.032 47.9408 184.317 48.1253 184.499 48.3486C184.681 48.5674 184.809 48.8454 184.882 49.1826C184.923 49.3923 184.943 49.7705 184.943 50.3174V51.958C184.943 53.1019 184.968 53.8265 185.019 54.1318C185.073 54.4326 185.178 54.722 185.333 55H184.048C183.92 54.7448 183.838 54.4463 183.802 54.1045ZM183.699 51.3564C183.253 51.5387 182.583 51.6937 181.689 51.8213C181.184 51.8942 180.826 51.9762 180.616 52.0674C180.407 52.1585 180.245 52.293 180.131 52.4707C180.017 52.6439 179.96 52.8376 179.96 53.0518C179.96 53.3799 180.083 53.6533 180.329 53.8721C180.58 54.0908 180.944 54.2002 181.423 54.2002C181.897 54.2002 182.318 54.0977 182.688 53.8926C183.057 53.6829 183.328 53.3981 183.501 53.0381C183.633 52.7601 183.699 52.3499 183.699 51.8076V51.3564ZM186.851 47.7402H188.081V50.8779C188.473 50.8779 188.746 50.8027 188.901 50.6523C189.061 50.502 189.293 50.0645 189.599 49.3398C189.84 48.7656 190.036 48.3874 190.187 48.2051C190.337 48.0228 190.51 47.8997 190.706 47.8359C190.902 47.7721 191.216 47.7402 191.649 47.7402H191.896V48.7588L191.554 48.752C191.23 48.752 191.023 48.7998 190.932 48.8955C190.836 48.9958 190.69 49.2943 190.494 49.791C190.307 50.265 190.136 50.5931 189.981 50.7754C189.826 50.9577 189.587 51.124 189.264 51.2744C189.792 51.4157 190.312 51.9079 190.822 52.751L192.169 55H190.815L189.503 52.751C189.234 52.2998 188.999 52.0036 188.799 51.8623C188.598 51.7165 188.359 51.6436 188.081 51.6436V55H186.851V47.7402Z" fill="#848E99"/>
<path d="M657 108V76H237V108" stroke="#848E99"/>
<path d="M385.777 46.1816V44.8965H387.021V46.1816C388.298 46.25 389.305 46.6351 390.043 47.3369C390.781 48.0342 391.15 48.9023 391.15 49.9414C391.15 50.9577 390.793 51.8213 390.077 52.5322C389.362 53.2432 388.343 53.6351 387.021 53.708V55H385.777V53.708C384.592 53.6624 383.606 53.3024 382.817 52.6279C382.029 51.9489 381.635 51.0534 381.635 49.9414C381.635 48.8249 382.027 47.9316 382.811 47.2617C383.599 46.5918 384.588 46.2318 385.777 46.1816ZM387.021 47.3164V52.5664C387.878 52.5254 388.553 52.277 389.045 51.8213C389.537 51.3656 389.783 50.7389 389.783 49.9414C389.783 49.1576 389.542 48.5378 389.059 48.082C388.576 47.6217 387.896 47.3665 387.021 47.3164ZM385.777 47.3232C384.952 47.3597 384.285 47.6035 383.774 48.0547C383.264 48.5059 383.009 49.1348 383.009 49.9414C383.009 50.7389 383.259 51.3656 383.761 51.8213C384.267 52.277 384.939 52.5231 385.777 52.5596V47.3232ZM392.647 47.7402H393.878V53.2773L397.289 47.7402H398.615V55H397.385V49.4971L393.974 55H392.647V47.7402ZM400.468 57.7822V47.7402H401.589V48.6836C401.853 48.3145 402.152 48.0387 402.484 47.8564C402.817 47.6696 403.22 47.5762 403.694 47.5762C404.314 47.5762 404.861 47.7357 405.335 48.0547C405.809 48.3737 406.167 48.8249 406.408 49.4082C406.65 49.987 406.771 50.6227 406.771 51.3154C406.771 52.0583 406.636 52.7282 406.367 53.3252C406.103 53.9176 405.715 54.3734 405.205 54.6924C404.699 55.0068 404.166 55.1641 403.605 55.1641C403.195 55.1641 402.826 55.0775 402.498 54.9043C402.174 54.7311 401.908 54.5124 401.698 54.248V57.7822H400.468ZM401.582 51.4111C401.582 52.3454 401.771 53.0358 402.149 53.4824C402.528 53.929 402.986 54.1523 403.523 54.1523C404.07 54.1523 404.537 53.9222 404.925 53.4619C405.317 52.9971 405.513 52.2793 405.513 51.3086C405.513 50.3835 405.321 49.6908 404.938 49.2305C404.56 48.7702 404.107 48.54 403.578 48.54C403.054 48.54 402.589 48.7861 402.184 49.2783C401.783 49.766 401.582 50.4769 401.582 51.4111ZM408.295 47.7402H410.209L412.116 53.5508L414.235 47.7402H416.006V55H414.775V49.1553L412.629 55H411.528L409.498 48.875V55H408.295V47.7402ZM422.855 52.6621L424.127 52.8193C423.926 53.5622 423.555 54.1387 423.013 54.5488C422.47 54.959 421.778 55.1641 420.935 55.1641C419.873 55.1641 419.03 54.8382 418.405 54.1865C417.785 53.5303 417.476 52.612 417.476 51.4316C417.476 50.2103 417.79 49.2624 418.419 48.5879C419.048 47.9134 419.864 47.5762 420.866 47.5762C421.837 47.5762 422.63 47.9066 423.245 48.5674C423.86 49.2282 424.168 50.1579 424.168 51.3564C424.168 51.4294 424.166 51.5387 424.161 51.6846H418.747C418.793 52.4821 419.018 53.0928 419.424 53.5166C419.829 53.9404 420.335 54.1523 420.941 54.1523C421.393 54.1523 421.778 54.0339 422.097 53.7969C422.416 53.5599 422.669 53.1816 422.855 52.6621ZM418.815 50.6729H422.869C422.814 50.0622 422.66 49.6042 422.404 49.2988C422.012 48.8249 421.504 48.5879 420.88 48.5879C420.315 48.5879 419.839 48.777 419.451 49.1553C419.068 49.5335 418.856 50.0394 418.815 50.6729ZM425.686 47.7402H426.916V50.7617H430.327V47.7402H431.558V55H430.327V51.7803H426.916V55H425.686V47.7402ZM433.424 47.7402H434.654V50.7617H438.065V47.7402H439.296V55H438.065V51.7803H434.654V55H433.424V47.7402ZM445.893 54.1045C445.437 54.4919 444.997 54.7653 444.573 54.9248C444.154 55.0843 443.703 55.1641 443.22 55.1641C442.422 55.1641 441.809 54.9704 441.381 54.583C440.952 54.1911 440.738 53.6921 440.738 53.0859C440.738 52.7305 440.818 52.4069 440.978 52.1152C441.142 51.819 441.354 51.582 441.613 51.4043C441.878 51.2266 442.174 51.0921 442.502 51.001C442.743 50.9372 443.108 50.8757 443.596 50.8164C444.589 50.6979 445.321 50.5566 445.79 50.3926C445.795 50.224 445.797 50.1169 445.797 50.0713C445.797 49.57 445.681 49.2168 445.448 49.0117C445.134 48.7337 444.667 48.5947 444.047 48.5947C443.468 48.5947 443.04 48.6973 442.762 48.9023C442.488 49.1029 442.285 49.4606 442.153 49.9756L440.95 49.8115C441.06 49.2965 441.24 48.8818 441.49 48.5674C441.741 48.2484 442.103 48.0046 442.577 47.8359C443.051 47.6628 443.6 47.5762 444.225 47.5762C444.844 47.5762 445.348 47.6491 445.735 47.7949C446.123 47.9408 446.408 48.1253 446.59 48.3486C446.772 48.5674 446.9 48.8454 446.973 49.1826C447.014 49.3923 447.034 49.7705 447.034 50.3174V51.958C447.034 53.1019 447.059 53.8265 447.109 54.1318C447.164 54.4326 447.269 54.722 447.424 55H446.139C446.011 54.7448 445.929 54.4463 445.893 54.1045ZM445.79 51.3564C445.343 51.5387 444.674 51.6937 443.78 51.8213C443.274 51.8942 442.917 51.9762 442.707 52.0674C442.497 52.1585 442.336 52.293 442.222 52.4707C442.108 52.6439 442.051 52.8376 442.051 53.0518C442.051 53.3799 442.174 53.6533 442.42 53.8721C442.671 54.0908 443.035 54.2002 443.514 54.2002C443.988 54.2002 444.409 54.0977 444.778 53.8926C445.147 53.6829 445.419 53.3981 445.592 53.0381C445.724 52.7601 445.79 52.3499 445.79 51.8076V51.3564ZM454.663 47.7402V55H453.439V52.1699H452.729C452.296 52.1699 451.972 52.2269 451.758 52.3408C451.548 52.4502 451.241 52.8079 450.835 53.4141L449.762 55H448.237L449.563 53.0449C449.969 52.4479 450.372 52.1107 450.773 52.0332C450.072 51.9375 449.55 51.6846 449.208 51.2744C448.871 50.8643 448.702 50.3926 448.702 49.8594C448.702 49.2305 448.923 48.7201 449.365 48.3281C449.812 47.9362 450.457 47.7402 451.3 47.7402H454.663ZM453.439 48.7588H451.689C450.956 48.7588 450.482 48.8727 450.268 49.1006C450.058 49.3285 449.953 49.5951 449.953 49.9004C449.953 50.3333 450.108 50.6523 450.418 50.8574C450.732 51.0579 451.286 51.1582 452.079 51.1582H453.439V48.7588ZM460.439 47.7402H461.67V50.7617H465.081V47.7402H466.312V55H465.081V51.7803H461.67V55H460.439V47.7402ZM472.908 54.1045C472.452 54.4919 472.013 54.7653 471.589 54.9248C471.17 55.0843 470.718 55.1641 470.235 55.1641C469.438 55.1641 468.825 54.9704 468.396 54.583C467.968 54.1911 467.754 53.6921 467.754 53.0859C467.754 52.7305 467.834 52.4069 467.993 52.1152C468.157 51.819 468.369 51.582 468.629 51.4043C468.893 51.2266 469.189 51.0921 469.518 51.001C469.759 50.9372 470.124 50.8757 470.611 50.8164C471.605 50.6979 472.336 50.5566 472.806 50.3926C472.81 50.224 472.812 50.1169 472.812 50.0713C472.812 49.57 472.696 49.2168 472.464 49.0117C472.149 48.7337 471.682 48.5947 471.062 48.5947C470.484 48.5947 470.055 48.6973 469.777 48.9023C469.504 49.1029 469.301 49.4606 469.169 49.9756L467.966 49.8115C468.075 49.2965 468.255 48.8818 468.506 48.5674C468.757 48.2484 469.119 48.0046 469.593 47.8359C470.067 47.6628 470.616 47.5762 471.24 47.5762C471.86 47.5762 472.364 47.6491 472.751 47.7949C473.138 47.9408 473.423 48.1253 473.605 48.3486C473.788 48.5674 473.915 48.8454 473.988 49.1826C474.029 49.3923 474.05 49.7705 474.05 50.3174V51.958C474.05 53.1019 474.075 53.8265 474.125 54.1318C474.18 54.4326 474.285 54.722 474.439 55H473.154C473.027 54.7448 472.945 54.4463 472.908 54.1045ZM472.806 51.3564C472.359 51.5387 471.689 51.6937 470.796 51.8213C470.29 51.8942 469.932 51.9762 469.723 52.0674C469.513 52.1585 469.351 52.293 469.237 52.4707C469.123 52.6439 469.066 52.8376 469.066 53.0518C469.066 53.3799 469.189 53.6533 469.436 53.8721C469.686 54.0908 470.051 54.2002 470.529 54.2002C471.003 54.2002 471.425 54.0977 471.794 53.8926C472.163 53.6829 472.434 53.3981 472.607 53.0381C472.74 52.7601 472.806 52.3499 472.806 51.8076V51.3564ZM476.935 47.7402H481.993V53.9883H482.779V57.0576H481.768V55H476.053V57.0576H475.041V53.9883H475.69C476.556 52.8125 476.971 50.7298 476.935 47.7402ZM477.96 48.7588C477.869 51.1149 477.504 52.8581 476.866 53.9883H480.77V48.7588H477.96ZM484.146 47.7402H489.875V55H488.645V48.7588H485.377V55H484.146V47.7402ZM491.728 47.7402H492.958V53.2773L496.369 47.7402H497.695V55H496.465V49.4971L493.054 55H491.728V47.7402ZM504.285 52.3408L505.495 52.498C505.363 53.332 505.023 53.986 504.477 54.46C503.934 54.9294 503.267 55.1641 502.474 55.1641C501.48 55.1641 500.68 54.8405 500.074 54.1934C499.473 53.5417 499.172 52.6097 499.172 51.3975C499.172 50.6136 499.302 49.9277 499.562 49.3398C499.821 48.752 500.215 48.3122 500.744 48.0205C501.277 47.7243 501.856 47.5762 502.48 47.5762C503.269 47.5762 503.914 47.7767 504.415 48.1777C504.916 48.5742 505.238 49.1393 505.379 49.873L504.183 50.0576C504.069 49.57 503.866 49.2031 503.574 48.957C503.287 48.7109 502.938 48.5879 502.528 48.5879C501.909 48.5879 501.405 48.8112 501.018 49.2578C500.63 49.6999 500.437 50.4017 500.437 51.3633C500.437 52.3385 500.623 53.0472 500.997 53.4893C501.371 53.9313 501.858 54.1523 502.46 54.1523C502.943 54.1523 503.346 54.0042 503.67 53.708C503.993 53.4118 504.199 52.9561 504.285 52.3408ZM506.527 47.7402H507.758V50.5771H509.316C510.333 50.5771 511.114 50.7754 511.661 51.1719C512.213 51.5638 512.488 52.1061 512.488 52.7988C512.488 53.4049 512.258 53.9245 511.798 54.3574C511.342 54.7858 510.611 55 509.604 55H506.527V47.7402ZM507.758 53.9883H509.05C509.829 53.9883 510.385 53.8926 510.718 53.7012C511.05 53.5098 511.217 53.2113 511.217 52.8057C511.217 52.4912 511.094 52.2109 510.848 51.9648C510.602 51.7188 510.057 51.5957 509.214 51.5957H507.758V53.9883Z" fill="#848E99"/>
<path d="M357.862 297.979H359.188V302.367C359.795 302.367 360.221 302.251 360.467 302.019C360.713 301.782 361.027 301.216 361.41 300.323C361.688 299.667 361.916 299.204 362.094 298.936C362.276 298.662 362.534 298.434 362.866 298.252C363.199 298.065 363.566 297.972 363.967 297.972C364.477 297.972 364.746 297.976 364.773 297.985V299.134C364.728 299.134 364.639 299.132 364.507 299.127C364.361 299.122 364.272 299.12 364.24 299.12C363.816 299.12 363.502 299.223 363.297 299.428C363.087 299.633 362.848 300.07 362.579 300.74C362.242 301.588 361.957 302.123 361.725 302.347C361.492 302.565 361.214 302.741 360.891 302.873C361.538 303.051 362.176 303.648 362.805 304.664L364.869 308H363.222L361.547 305.279C361.087 304.527 360.701 304.012 360.392 303.734C360.082 303.452 359.681 303.311 359.188 303.311V308H357.862V297.979ZM365.389 304.37C365.389 303.026 365.762 302.03 366.51 301.383C367.134 300.845 367.895 300.576 368.793 300.576C369.791 300.576 370.607 300.904 371.24 301.561C371.874 302.212 372.19 303.115 372.19 304.268C372.19 305.202 372.049 305.938 371.767 306.476C371.489 307.009 371.081 307.424 370.543 307.72C370.01 308.016 369.426 308.164 368.793 308.164C367.777 308.164 366.954 307.838 366.325 307.187C365.701 306.535 365.389 305.596 365.389 304.37ZM366.653 304.37C366.653 305.3 366.856 305.997 367.262 306.462C367.667 306.922 368.178 307.152 368.793 307.152C369.404 307.152 369.912 306.92 370.317 306.455C370.723 305.99 370.926 305.282 370.926 304.329C370.926 303.431 370.721 302.752 370.311 302.292C369.905 301.827 369.399 301.595 368.793 301.595C368.178 301.595 367.667 301.825 367.262 302.285C366.856 302.745 366.653 303.44 366.653 304.37ZM373.674 300.74H375.588L377.495 306.551L379.614 300.74H381.385V308H380.154V302.155L378.008 308H376.907L374.877 301.875V308H373.674V300.74ZM383.271 300.74H389V308H387.77V301.759H384.502V308H383.271V300.74ZM390.395 304.37C390.395 303.026 390.768 302.03 391.516 301.383C392.14 300.845 392.901 300.576 393.799 300.576C394.797 300.576 395.613 300.904 396.246 301.561C396.88 302.212 397.196 303.115 397.196 304.268C397.196 305.202 397.055 305.938 396.772 306.476C396.494 307.009 396.087 307.424 395.549 307.72C395.016 308.016 394.432 308.164 393.799 308.164C392.783 308.164 391.96 307.838 391.331 307.187C390.707 306.535 390.395 305.596 390.395 304.37ZM391.659 304.37C391.659 305.3 391.862 305.997 392.268 306.462C392.673 306.922 393.184 307.152 393.799 307.152C394.41 307.152 394.918 306.92 395.323 306.455C395.729 305.99 395.932 305.282 395.932 304.329C395.932 303.431 395.727 302.752 395.316 302.292C394.911 301.827 394.405 301.595 393.799 301.595C393.184 301.595 392.673 301.825 392.268 302.285C391.862 302.745 391.659 303.44 391.659 304.37ZM400.088 304.719V303.755C400.607 303.75 400.961 303.73 401.147 303.693C401.339 303.657 401.519 303.548 401.688 303.365C401.856 303.183 401.94 302.955 401.94 302.682C401.94 302.349 401.829 302.085 401.605 301.889C401.387 301.688 401.102 301.588 400.751 301.588C400.058 301.588 399.573 301.996 399.295 302.812L398.126 302.62C398.491 301.257 399.37 300.576 400.765 300.576C401.539 300.576 402.146 300.788 402.583 301.212C403.025 301.636 403.246 302.142 403.246 302.729C403.246 303.322 402.959 303.794 402.385 304.145C402.749 304.34 403.023 304.591 403.205 304.896C403.387 305.197 403.479 305.555 403.479 305.97C403.479 306.621 403.242 307.15 402.768 307.556C402.294 307.961 401.631 308.164 400.778 308.164C399.124 308.164 398.165 307.428 397.9 305.956L399.056 305.71C399.16 306.175 399.372 306.535 399.691 306.79C400.015 307.045 400.384 307.173 400.799 307.173C401.214 307.173 401.558 307.057 401.831 306.824C402.109 306.587 402.248 306.286 402.248 305.922C402.248 305.639 402.161 305.393 401.988 305.184C401.815 304.974 401.631 304.844 401.435 304.794C401.239 304.739 400.883 304.712 400.368 304.712C400.327 304.712 400.234 304.714 400.088 304.719ZM404.907 300.74H406.138V306.277L409.549 300.74H410.875V308H409.645V302.497L406.233 308H404.907V300.74ZM412.748 300.74H413.979V306.988H417.383V300.74H418.613V306.988H419.406V310.058H418.395V308H412.748V300.74ZM420.753 300.74H421.983V306.277L425.395 300.74H426.721V308H425.49V302.497L422.079 308H420.753V300.74ZM434.288 300.74V308H433.064V305.17H432.354C431.921 305.17 431.597 305.227 431.383 305.341C431.173 305.45 430.866 305.808 430.46 306.414L429.387 308H427.862L429.188 306.045C429.594 305.448 429.997 305.111 430.398 305.033C429.697 304.938 429.175 304.685 428.833 304.274C428.496 303.864 428.327 303.393 428.327 302.859C428.327 302.23 428.548 301.72 428.99 301.328C429.437 300.936 430.082 300.74 430.925 300.74H434.288ZM433.064 301.759H431.314C430.581 301.759 430.107 301.873 429.893 302.101C429.683 302.328 429.578 302.595 429.578 302.9C429.578 303.333 429.733 303.652 430.043 303.857C430.357 304.058 430.911 304.158 431.704 304.158H433.064V301.759Z" fill="#848E99"/>
<path opacity="0.3" d="M101 123L132.4 123L210.899 123L228.243 123L659.6 123L691 123" stroke="#848E99"/>
<path opacity="0.3" d="M135 241V207.222V181.889V148.111V122.778V89" stroke="#848E99"/>
<path opacity="0.3" d="M101 207H132.4H210.899H228.243H659.6H691" stroke="#848E99"/>
<path opacity="0.3" d="M657 241L657 207.222L657 181.889L657 148.111L657 122.778L657 89" stroke="#848E99"/>
<path opacity="0.3" d="M237 241V207.222V181.889V148.111V122.778V89" stroke="#848E99"/>
<path opacity="0.3" d="M219 241V207.222V181.889V148.111V122.778V89" stroke="#848E99"/>
<path d="M176.823 206.988C199.921 206.988 218.646 188.263 218.646 165.165C218.646 142.067 199.921 123.342 176.823 123.342C153.725 123.342 135 142.067 135 165.165C135 188.263 153.725 206.988 176.823 206.988Z" fill="#242B33"/>
<path fill-rule="evenodd" clip-rule="evenodd" d="M200.16 140.949L197.985 138.942C197.609 138.565 197.107 138.398 196.563 138.398H179.081C178.496 138.398 177.91 138.607 177.45 138.984L175.234 140.866C173.853 139.067 171.679 137.938 169.044 137.938C163.941 137.938 159.132 142.037 158.212 147.139C157.626 150.359 158.797 153.203 161.014 154.835L157.375 175.412C154.573 177.043 152.398 179.887 151.813 183.107C150.934 188.209 154.322 192.308 159.383 192.308C162.059 192.308 164.694 191.137 166.702 189.297L168.876 191.346C169.253 191.723 169.755 191.89 170.298 191.89H187.781C188.366 191.89 188.952 191.681 189.412 191.304L191.963 189.129C192.423 188.753 192.716 188.209 192.799 187.666L194.221 179.636C194.347 178.925 194.096 178.214 193.594 177.754L191.419 175.746C191.043 175.37 190.541 175.202 189.997 175.202H184.978L184.393 178.548H191.085L189.328 188.586H169.253L171.009 178.548H177.701L178.287 175.202H172.515C171.93 175.202 171.344 175.412 170.884 175.788L169.127 177.294C168.667 176.583 168.082 175.955 167.371 175.453L171.009 154.876C171.93 154.333 172.808 153.663 173.561 152.869L175.359 154.542C175.735 154.918 176.237 155.085 176.781 155.085H181.8L182.385 151.74H175.694L177.45 141.702H197.525L195.769 151.74H189.077L188.492 155.085H194.263C194.849 155.085 195.434 154.876 195.894 154.5L198.445 152.325C198.906 151.949 199.198 151.405 199.282 150.861L200.704 142.831C200.955 142.162 200.704 141.451 200.16 140.949ZM163.732 177.544C166.033 178.255 167.371 180.514 166.911 183.149C166.325 186.369 163.272 189.004 160.01 189.004C156.748 189.004 154.615 186.369 155.2 183.149C155.66 180.514 157.835 178.255 160.386 177.544L164.736 152.785C162.436 152.074 161.097 149.816 161.557 147.181C162.143 143.961 165.196 141.326 168.458 141.326C171.72 141.326 173.853 143.961 173.268 147.181C172.808 149.816 170.633 152.074 168.082 152.785L163.732 177.544Z" fill="#A3876E"/>
<path d="M173.687 171.02H174.523L174.816 169.264H176.28L176.447 168.511H174.983L175.109 167.591H177.2L177.367 166.838H174.439L173.687 171.02Z" fill="white"/>
<path d="M177.45 171.02H178.287L179.04 166.838H178.203L177.45 171.02Z" fill="white"/>
<path d="M179.751 167.591H181.005L180.378 171.02H181.215L181.8 167.591H183.055L183.222 166.838H179.876L179.751 167.591Z" fill="white"/>
<path d="M186.275 169.682L184.895 166.838H184.058L183.306 171.02H184.142L184.644 168.176L186.024 171.02H186.861L187.613 166.838H186.777L186.275 169.682Z" fill="white"/>
<path d="M188.115 171.02H191.043L191.169 170.267H189.077L189.245 169.264H190.709L190.876 168.511H189.412L189.537 167.591H191.629L191.796 166.838H188.868L188.115 171.02Z" fill="white"/>
<path d="M192.716 167.465L192.507 168.636C192.465 168.971 192.716 169.264 193.05 169.264H194.723L194.556 170.267H192.256L192.13 171.02H194.64C195.016 171.02 195.309 170.769 195.392 170.393L195.601 169.138C195.643 168.804 195.392 168.511 195.058 168.511H193.385L193.552 167.591H195.643L195.769 166.838H193.468C193.092 166.838 192.757 167.089 192.716 167.465Z" fill="white"/>
<path d="M180.462 163.492H181.298L181.591 161.819L183.473 159.31H182.553L181.34 160.982L180.671 159.31H179.709L180.755 161.819L180.462 163.492Z" fill="white"/>
<path d="M184.226 163.492L184.686 160.732L185.522 162.655H185.69L187.195 160.732L186.735 163.492H187.572L188.283 159.31H187.446L185.857 161.401L184.937 159.31H184.1L183.389 163.492H184.226Z" fill="white"/>
<path d="M199.784 167.591L199.91 166.838H197.609C197.233 166.838 196.94 167.089 196.857 167.465L196.647 168.636C196.606 168.971 196.857 169.264 197.191 169.264H198.864L198.697 170.267H196.396L196.271 171.02H198.78C199.157 171.02 199.45 170.769 199.533 170.393L199.742 169.138C199.784 168.804 199.533 168.511 199.199 168.511H197.526L197.693 167.591H199.784Z" fill="white"/>
<path d="M175.652 163.492H177.701C178.078 163.492 178.371 163.241 178.454 162.865L178.789 160.982H177.116L176.99 161.735H177.827L177.66 162.739H175.987L176.447 160.062H178.747L178.872 159.31H176.363C175.987 159.31 175.694 159.561 175.61 159.937L175.108 162.865C175.066 163.199 175.317 163.492 175.652 163.492Z" fill="white"/>
<path d="M190.499 163.492H191.461C191.629 163.492 191.796 163.408 191.963 163.325L192.423 162.948L192.8 163.492H193.845L193.092 162.363L193.845 161.693L193.427 161.192L192.716 161.819L191.712 160.355L191.754 160.062H192.59L192.507 160.564H193.343L193.469 159.937C193.511 159.602 193.26 159.31 192.925 159.31H191.712C191.336 159.31 191.043 159.561 190.959 159.937L190.876 160.355C190.834 160.481 190.876 160.648 190.959 160.773L191.127 161.024L190.374 161.652C190.248 161.777 190.165 161.903 190.123 162.112L189.997 162.865C189.914 163.199 190.165 163.492 190.499 163.492ZM190.959 162.028L191.503 161.568L192.047 162.363L191.587 162.739H190.834L190.959 162.028Z" fill="white"/>
<path d="M246.503 166.083L248.076 157.153C248.309 155.936 249.358 155.066 250.523 155.066H278.551L279.716 148.397H251.572C250.174 148.397 248.834 148.861 247.668 149.673L242.307 153.5C240.909 154.486 239.918 156.052 239.627 157.733L238.753 162.488C238.17 165.562 240.559 168.345 243.706 168.345H269.228C270.277 168.345 271.034 169.273 270.859 170.317L270.393 172.984C270.16 174.202 269.111 175.071 267.946 175.071H236.597L235.432 181.74H270.918C274.589 181.74 277.677 179.131 278.318 175.535L279.367 169.563C280.066 165.504 276.919 161.734 272.782 161.734H256.117C254.719 161.734 253.379 162.14 252.271 162.952L247.202 166.489C246.852 166.721 246.445 166.489 246.503 166.083Z" fill="#242B33"/>
<path d="M288.981 157.849L284.727 181.798H293.118L294.808 172.23C295.041 171.013 296.09 170.143 297.255 170.143H325.632C329.303 170.143 332.391 167.533 333.032 163.938L334.372 156.284C335.072 152.225 331.925 148.456 327.788 148.456H301.042C299.644 148.456 298.304 148.861 297.197 149.673L291.661 153.558C290.263 154.544 289.272 156.11 288.981 157.849ZM322.66 163.416H305.121C303.723 163.416 302.383 163.822 301.275 164.634L296.206 168.171C295.915 168.403 295.507 168.113 295.565 167.765L297.43 157.154C297.663 155.936 298.712 155.066 299.877 155.066H324.234C325.282 155.066 326.04 155.994 325.865 157.038L325.108 161.329C324.933 162.546 323.884 163.416 322.66 163.416Z" fill="#242B33"/>
<path d="M349.989 149.673L344.453 153.558C342.997 154.544 342.006 156.11 341.715 157.849L339.209 171.882C338.859 173.912 339.675 175.941 341.307 177.159L346.027 180.754C346.959 181.45 348.124 181.856 349.29 181.856H375.452C376.851 181.856 378.191 181.45 379.298 180.638L384.834 176.753C386.29 175.767 387.281 174.202 387.572 172.462L390.078 158.429C390.428 156.4 389.612 154.37 387.98 153.153L383.261 149.557C382.328 148.861 381.163 148.456 379.997 148.456H353.835C352.436 148.456 351.096 148.861 349.989 149.673ZM376.676 175.072H348.998C347.949 175.072 347.192 174.144 347.367 173.1L350.222 157.154C350.455 155.936 351.504 155.066 352.669 155.066H380.347C381.396 155.066 382.153 155.994 381.979 157.038L379.123 172.984C378.949 174.202 377.9 175.072 376.676 175.072Z" fill="#242B33"/>
<path d="M437.451 148.456H410.705C409.307 148.456 407.967 148.861 406.86 149.673L401.324 153.558C399.867 154.544 398.877 156.11 398.585 157.849L394.332 181.798H402.664L404.354 172.23C404.587 171.013 405.636 170.143 406.801 170.143H424.807C425.389 170.143 425.855 170.433 426.205 170.897L433.663 181.798H442.87L435.12 170.433C435.004 170.317 435.12 170.143 435.295 170.143C438.966 170.143 442.054 167.533 442.695 163.938L444.035 156.284C444.735 152.167 441.588 148.456 437.451 148.456ZM432.265 163.416H414.726C413.386 163.416 412.046 163.822 410.938 164.576L405.869 168.055C405.578 168.287 405.17 167.997 405.228 167.649L407.093 157.096C407.326 155.878 408.375 155.008 409.54 155.008H433.897C434.945 155.008 435.703 155.936 435.528 156.98L434.771 161.271C434.537 162.546 433.489 163.416 432.265 163.416Z" fill="#242B33"/>
<path d="M511.511 148.456H503.12L498.459 174.898C497.818 178.493 500.557 181.74 504.227 181.74H535.751L536.916 175.072H508.772C507.724 175.072 506.966 174.144 507.141 173.1L511.511 148.456Z" fill="#242B33"/>
<path d="M542.393 181.74H550.784L556.669 148.456H548.279L542.393 181.74Z" fill="#242B33"/>
<path d="M607.364 155.124L608.529 148.456H575.49C574.092 148.456 572.752 148.861 571.645 149.673L566.109 153.558C564.652 154.544 563.662 156.11 563.37 157.849L559.117 181.798H567.507L569.197 172.23C569.43 171.013 570.479 170.143 571.645 170.143H601.362L602.527 163.474H579.569C578.171 163.474 576.831 163.88 575.723 164.692L570.654 168.229C570.363 168.461 569.955 168.171 570.013 167.823L571.878 157.212C572.111 155.994 573.16 155.124 574.325 155.124H607.364Z" fill="#242B33"/>
<path d="M655.844 155.124L657.009 148.456H623.97C622.572 148.456 621.232 148.861 620.125 149.673L614.589 153.558C613.132 154.544 612.142 156.11 611.851 157.849L608.995 173.97C608.296 178.029 611.443 181.798 615.58 181.798H651.124L652.289 175.13H619.134C618.085 175.13 617.328 174.202 617.503 173.158L617.969 170.491C618.202 169.273 619.251 168.403 620.416 168.403H650.075L651.24 161.735H628.282C626.884 161.735 625.544 162.14 624.437 162.952L619.367 166.49C619.076 166.721 618.668 166.432 618.726 166.084L620.3 157.154C620.533 155.936 621.581 155.066 622.747 155.066H655.844V155.124Z" fill="#242B33"/>
<path d="M450.095 155.124H473.461C473.869 155.124 474.044 155.646 473.694 155.878L469.907 158.545C468.45 159.531 467.46 161.097 467.168 162.836L463.789 181.74H472.179L476.55 157.153C476.783 155.936 477.832 155.066 478.997 155.066H495.312L496.536 148.397H451.319L450.095 155.124Z" fill="#242B33"/>
</svg>
