<svg width="832" height="352" viewBox="0 0 832 352" fill="none" xmlns="http://www.w3.org/2000/svg">
<path d="M135 273H696.921" stroke="#A3876E"/>
<path d="M135 273L135 241" stroke="#A3876E"/>
<path d="M696.921 273L696.921 241" stroke="#A3876E"/>
<path d="M219 108V76H135V108" stroke="#A3876E"/>
<path d="M167.067 49.638C167.963 49.19 168.481 48.448 168.481 47.398C168.481 45.662 166.969 44.668 165.135 44.668C162.993 44.668 161.663 45.956 161.397 47.916H162.811C162.965 46.558 163.945 45.872 165.065 45.872C166.283 45.872 167.025 46.446 167.025 47.552C167.025 48.616 166.213 49.176 165.023 49.176H163.903V50.338H165.107C166.675 50.338 167.403 50.954 167.403 52.088C167.403 53.222 166.619 53.964 165.093 53.964C163.693 53.964 162.797 53.32 162.559 52.088H161.159C161.551 53.978 162.811 55.168 164.995 55.168C166.997 55.168 168.859 54.258 168.859 52.13C168.859 50.688 168.173 49.96 167.067 49.638ZM176.796 55V47.468H175.522V50.604H171.798V47.468H170.524V55H171.798V51.71H175.522V55H176.796ZM183.622 51.85C183.622 53.628 182.488 54.174 181.298 54.174C180.388 54.174 179.842 53.698 179.842 52.984C179.842 51.948 181.312 51.598 183.622 51.374V51.85ZM181.018 55.182C182.362 55.182 183.132 54.748 183.594 53.964C183.608 54.412 183.65 54.72 183.692 55H184.98C184.826 54.286 184.77 53.432 184.784 52.158L184.798 50.422C184.812 48.294 183.888 47.314 181.802 47.314C180.346 47.314 178.89 48.224 178.778 49.848H180.094C180.15 48.91 180.752 48.35 181.816 48.35C182.768 48.35 183.524 48.798 183.524 50.184V50.366C180.444 50.702 178.428 51.234 178.428 53.012C178.428 54.398 179.604 55.182 181.018 55.182ZM191.61 55H193.192L190.056 51.024L192.898 47.468H191.386L188.992 50.548H188.054V47.468H186.766V55H188.054V51.654H189.02L191.61 55Z" fill="#848E99"/>
<path d="M697 108V76H237V108" stroke="#848E99"/>
<path d="M403.715 44.29H402.287V45.55C399.445 45.662 397.751 47.454 397.751 49.862C397.751 52.284 399.445 54.062 402.287 54.174V55.364H403.715V54.174C406.557 54.062 408.237 52.298 408.237 49.918C408.237 47.454 406.557 45.662 403.715 45.55V44.29ZM402.287 52.984C400.509 52.872 399.207 51.766 399.207 49.89C399.207 47.944 400.509 46.852 402.287 46.74V52.984ZM403.715 46.74C405.465 46.852 406.781 47.972 406.781 49.89C406.781 51.766 405.465 52.872 403.715 52.984V46.74ZM415.015 55H416.289V47.468H415.015L411.123 53.152V47.468H409.849V55H411.123L415.015 49.316V55ZM418.449 47.468V57.45H419.723V53.866C420.185 54.664 420.969 55.182 422.187 55.182C423.923 55.182 425.407 53.768 425.407 51.262C425.407 48.798 423.923 47.342 422.187 47.342C420.969 47.342 420.185 47.86 419.723 48.658V47.468H418.449ZM419.667 51.262C419.667 49.274 420.731 48.434 421.865 48.434C423.167 48.434 424.021 49.456 424.021 51.262C424.021 53.068 423.167 54.09 421.865 54.09C420.731 54.09 419.667 53.25 419.667 51.262ZM435.212 47.468H433.392L431.138 53.264L428.8 47.468H426.98V55H428.226V49.036L430.634 55H431.544L433.966 48.952V55H435.212V47.468ZM443.951 51.654C444.105 49.26 442.747 47.342 440.437 47.342C438.379 47.342 436.783 48.854 436.783 51.248C436.783 53.474 438.099 55.182 440.479 55.182C442.313 55.182 443.517 54.104 443.853 52.816H442.537C442.215 53.558 441.599 54.062 440.479 54.062C439.373 54.062 438.197 53.278 438.155 51.654H443.951ZM440.437 48.434C441.795 48.434 442.565 49.498 442.607 50.562H438.169C438.281 49.05 439.317 48.434 440.437 48.434ZM451.791 55V47.468H450.517V50.604H446.793V47.468H445.519V55H446.793V51.71H450.517V55H451.791ZM460.213 55V47.468H458.939V50.604H455.215V47.468H453.941V55H455.215V51.71H458.939V55H460.213ZM467.039 51.85C467.039 53.628 465.905 54.174 464.715 54.174C463.805 54.174 463.259 53.698 463.259 52.984C463.259 51.948 464.729 51.598 467.039 51.374V51.85ZM464.435 55.182C465.779 55.182 466.549 54.748 467.011 53.964C467.025 54.412 467.067 54.72 467.109 55H468.397C468.243 54.286 468.187 53.432 468.201 52.158L468.215 50.422C468.229 48.294 467.305 47.314 465.219 47.314C463.763 47.314 462.307 48.224 462.195 49.848H463.511C463.567 48.91 464.169 48.35 465.233 48.35C466.185 48.35 466.941 48.798 466.941 50.184V50.366C463.861 50.702 461.845 51.234 461.845 53.012C461.845 54.398 463.021 55.182 464.435 55.182ZM475.755 47.468H472.801C471.065 47.468 470.001 48.238 470.001 49.792C470.001 50.912 470.645 51.64 471.597 51.962L469.315 55H470.897L472.941 52.312C473.011 52.326 473.081 52.326 473.151 52.326H474.481V55H475.755V47.468ZM474.481 48.574V51.22H472.983C472.101 51.22 471.303 50.898 471.303 49.876C471.303 48.966 471.933 48.574 472.871 48.574H474.481ZM487.502 55V47.468H486.228V50.604H482.504V47.468H481.23V55H482.504V51.71H486.228V55H487.502ZM494.328 51.85C494.328 53.628 493.194 54.174 492.004 54.174C491.094 54.174 490.548 53.698 490.548 52.984C490.548 51.948 492.018 51.598 494.328 51.374V51.85ZM491.724 55.182C493.068 55.182 493.838 54.748 494.3 53.964C494.314 54.412 494.356 54.72 494.398 55H495.686C495.532 54.286 495.476 53.432 495.49 52.158L495.504 50.422C495.518 48.294 494.594 47.314 492.508 47.314C491.052 47.314 489.596 48.224 489.484 49.848H490.8C490.856 48.91 491.458 48.35 492.522 48.35C493.474 48.35 494.23 48.798 494.23 50.184V50.366C491.15 50.702 489.134 51.234 489.134 53.012C489.134 54.398 490.31 55.182 491.724 55.182ZM504.515 53.894H503.465V47.468H498.383L498.285 49.89C498.173 52.774 497.725 53.894 496.871 53.894H496.535V56.666H497.767V55H503.283V56.666H504.515V53.894ZM502.191 53.894H498.523C499.111 53.334 499.433 52.242 499.545 50.016L499.615 48.574H502.191V53.894ZM512.001 47.468H505.799V55H507.073V48.574H510.727V55H512.001V47.468ZM519.318 55H520.592V47.468H519.318L515.426 53.152V47.468H514.152V55H515.426L519.318 49.316V55ZM525.804 47.342C523.578 47.342 522.164 49.008 522.164 51.248C522.164 53.544 523.508 55.182 525.678 55.182C527.442 55.182 528.772 53.964 529.038 52.55H527.722C527.54 53.334 526.798 54.062 525.72 54.062C524.6 54.062 523.55 53.138 523.55 51.234C523.55 49.344 524.6 48.462 525.72 48.462C526.714 48.462 527.484 49.092 527.666 49.988H528.954C528.772 48.7 527.652 47.342 525.804 47.342ZM531.819 50.128V47.468H530.545V55H533.597C535.333 55 536.425 54.37 536.425 52.508C536.425 50.898 535.585 50.128 533.611 50.128H531.819ZM531.819 53.894V51.234H533.457C534.591 51.234 535.179 51.514 535.179 52.508C535.179 53.516 534.605 53.894 533.485 53.894H531.819Z" fill="#848E99"/>
<path d="M381.07 308H382.778L378.718 302.652L382.638 297.85H380.916L377.5 302.148H376.478V297.85H375.05V308H376.478V303.38H377.542L381.07 308ZM384.592 304.262C384.592 302.204 385.684 301.462 386.846 301.462C388.008 301.462 389.1 302.246 389.1 304.262C389.1 306.194 388.008 307.062 386.846 307.062C385.684 307.062 384.592 306.278 384.592 304.262ZM386.846 300.342C385.096 300.342 383.234 301.532 383.234 304.262C383.234 306.992 385.096 308.182 386.846 308.182C388.596 308.182 390.458 306.992 390.458 304.262C390.458 301.532 388.596 300.342 386.846 300.342ZM400.284 300.468H398.464L396.21 306.264L393.872 300.468H392.052V308H393.298V302.036L395.706 308H396.616L399.038 301.952V308H400.284V300.468ZM408.644 300.468H402.442V308H403.716V301.574H407.37V308H408.644V300.468ZM411.594 304.262C411.594 302.204 412.686 301.462 413.848 301.462C415.01 301.462 416.102 302.246 416.102 304.262C416.102 306.194 415.01 307.062 413.848 307.062C412.686 307.062 411.594 306.278 411.594 304.262ZM413.848 300.342C412.098 300.342 410.236 301.532 410.236 304.262C410.236 306.992 412.098 308.182 413.848 308.182C415.598 308.182 417.46 306.992 417.46 304.262C417.46 301.532 415.598 300.342 413.848 300.342ZM423.086 304.052C423.758 303.73 424.276 303.198 424.276 302.428C424.276 301.014 422.904 300.3 421.42 300.3C419.838 300.3 418.62 301.154 418.354 302.792H419.67C419.838 301.77 420.552 301.42 421.49 301.42C422.316 301.42 422.96 301.742 422.96 302.456C422.96 303.24 422.428 303.632 421.546 303.632H420.412V304.682H421.616C422.68 304.682 423.254 305.032 423.254 305.914C423.254 306.628 422.582 307.118 421.518 307.118C420.44 307.118 419.726 306.67 419.516 305.704H418.228C418.494 307.426 419.824 308.182 421.434 308.182C423.114 308.182 424.612 307.482 424.612 305.858C424.612 304.85 423.884 304.276 423.086 304.052ZM431.288 308H432.562V300.468H431.288L427.396 306.152V300.468H426.122V308H427.396L431.288 302.316V308ZM440.714 306.894V300.468H439.44V306.894H435.996V300.468H434.722V308H440.56V309.806H441.764V306.894H440.714ZM448.214 308H449.488V300.468H448.214L444.322 306.152V300.468H443.048V308H444.322L448.214 302.316V308ZM457.219 300.468H454.265C452.529 300.468 451.465 301.238 451.465 302.792C451.465 303.912 452.109 304.64 453.061 304.962L450.779 308H452.361L454.405 305.312C454.475 305.326 454.545 305.326 454.615 305.326H455.945V308H457.219V300.468ZM455.945 301.574V304.22H454.447C453.565 304.22 452.767 303.898 452.767 302.876C452.767 301.966 453.397 301.574 454.335 301.574H455.945Z" fill="#848E99"/>
<path opacity="0.3" d="M101 123L134.528 123L218.35 123L236.87 123L697.472 123L731 123" stroke="#848E99"/>
<path opacity="0.3" d="M135 241V207.222V181.889V148.111V122.778V89" stroke="#848E99"/>
<path opacity="0.3" d="M101 207H134.528H218.35H236.87H697.472H731" stroke="#848E99"/>
<path opacity="0.3" d="M697 241L697 207.222L697 181.889L697 148.111L697 122.778L697 89" stroke="#848E99"/>
<path opacity="0.3" d="M237 241V207.222V181.889V148.111V122.778V89" stroke="#848E99"/>
<path opacity="0.3" d="M219 241V207.222V181.889V148.111V122.778V89" stroke="#848E99"/>
<path d="M176.834 207.007C199.939 207.007 218.668 188.278 218.668 165.173C218.668 142.069 199.939 123.339 176.834 123.339C153.73 123.339 135 142.069 135 165.173C135 188.278 153.73 207.007 176.834 207.007Z" fill="#242B33"/>
<path fill-rule="evenodd" clip-rule="evenodd" d="M200.197 140.971L198.038 138.96C197.65 138.599 197.141 138.399 196.612 138.399H179.114C178.518 138.399 177.942 138.611 177.488 138.996L175.262 140.889C173.9 139.1 171.713 137.98 169.066 137.98C163.983 137.98 159.136 142.101 158.24 147.184C157.671 150.411 158.837 153.241 161.061 154.884L157.434 175.455C154.625 177.096 152.455 179.93 151.885 183.161C150.989 188.244 154.383 192.365 159.466 192.365C162.163 192.365 164.794 191.204 166.804 189.355L168.983 191.386C169.371 191.746 169.88 191.947 170.409 191.947H187.907C188.503 191.947 189.079 191.735 189.533 191.349L192.077 189.186C192.523 188.807 192.822 188.285 192.924 187.709L194.34 179.679C194.463 178.981 194.224 178.268 193.705 177.785L191.546 175.774C191.159 175.413 190.649 175.213 190.12 175.213H185.087L184.497 178.56H191.19L189.42 188.6H169.339L171.11 178.56H177.803L178.393 175.213H172.623C172.027 175.213 171.451 175.425 170.997 175.811L169.224 177.318C168.758 176.598 168.165 175.975 167.472 175.463L171.1 154.889C172.036 154.341 172.899 153.662 173.657 152.878L175.475 154.571C175.862 154.932 176.372 155.133 176.901 155.133H181.934L182.524 151.786H175.831L177.601 141.746H197.682L195.911 151.786H189.218L188.628 155.133H194.398C194.994 155.133 195.57 154.921 196.024 154.535L198.569 152.372C199.014 151.993 199.314 151.471 199.415 150.895L200.831 142.865C200.954 142.167 200.715 141.454 200.197 140.971ZM163.757 177.552C166.046 178.274 167.413 180.511 166.946 183.161C166.375 186.396 163.291 189.018 160.056 189.018C156.821 189.018 154.662 186.396 155.232 183.161C155.7 180.507 157.863 178.267 160.411 177.549L164.776 152.794C162.487 152.072 161.119 149.835 161.586 147.184C162.157 143.949 165.241 141.327 168.476 141.327C171.711 141.327 173.87 143.949 173.3 147.184C172.832 149.838 170.67 152.077 168.122 152.796L163.757 177.552Z" fill="#A3876E"/>
<path d="M173.692 171.029H174.529L174.839 169.272H176.303L176.436 168.519L174.972 168.519L175.134 167.598H177.226L177.358 166.845H174.43L173.692 171.029Z" fill="white"/>
<path d="M177.457 171.029H178.294L179.031 166.845H178.195L177.457 171.029Z" fill="white"/>
<path d="M179.743 167.598H180.998L180.386 171.029H181.223L181.828 167.598H183.083L183.216 166.845H179.869L179.743 167.598Z" fill="white"/>
<path d="M186.273 169.669L184.889 166.845H184.052L183.314 171.029H184.151L184.649 168.205L186.034 171.029H186.87L187.608 166.845H186.771L186.273 169.669Z" fill="white"/>
<path d="M188.125 171.029H191.053L191.186 170.276H189.094L189.272 169.272H190.736L190.869 168.518L189.404 168.519L189.567 167.598H191.658L191.791 166.845H188.863L188.125 171.029Z" fill="white"/>
<path d="M192.727 167.467L192.522 168.634C192.463 168.966 192.719 169.272 193.057 169.272L194.713 169.272L194.536 170.276H192.233L192.1 171.029H194.605C194.97 171.029 195.283 170.766 195.347 170.406L195.567 169.156C195.626 168.823 195.369 168.518 195.031 168.518L193.377 168.519L193.542 167.598H195.633L195.765 166.845H193.469C193.103 166.845 192.791 167.108 192.727 167.467Z" fill="white"/>
<path d="M180.459 163.499H181.296L181.591 161.825L183.498 159.315H182.558L181.331 160.989L180.672 159.315H179.732L180.756 161.825L180.459 163.499Z" fill="white"/>
<path d="M184.224 163.499L184.711 160.733L185.537 162.662H185.714L187.221 160.733L186.734 163.499H187.571L188.308 159.315H187.472L185.851 161.391L184.962 159.315H184.125L183.387 163.499H184.224Z" fill="white"/>
<path d="M199.815 167.598L199.948 166.845H197.651C197.286 166.845 196.973 167.108 196.909 167.467L196.704 168.634C196.645 168.966 196.901 169.272 197.239 169.272L198.896 169.272L198.718 170.276H196.415L196.282 171.029H198.787C199.153 171.029 199.465 170.766 199.529 170.406L199.749 169.156C199.808 168.823 199.552 168.518 199.213 168.518L197.559 168.519L197.724 167.598H199.815Z" fill="white"/>
<path d="M175.667 163.499L177.736 163.5C178.101 163.499 178.413 163.237 178.476 162.878L178.809 160.989H177.136L177.003 161.742H177.84L177.663 162.746H175.989L176.461 160.068H178.762L178.895 159.315H176.389C176.024 159.315 175.711 159.578 175.648 159.938L175.132 162.861C175.073 163.194 175.329 163.499 175.667 163.499Z" fill="white"/>
<path d="M190.519 163.499H191.476C191.655 163.499 191.828 163.435 191.964 163.32L192.415 162.936L192.799 163.499H193.845L193.071 162.378L193.845 161.721L193.414 161.198L192.684 161.818L191.679 160.361L191.73 160.068H192.567L192.479 160.57H193.315L193.424 159.954C193.483 159.621 193.227 159.315 192.888 159.315H191.658C191.293 159.315 190.98 159.578 190.917 159.938L190.844 160.353C190.819 160.492 190.85 160.636 190.93 160.753L191.112 161.021L190.372 161.65C190.239 161.763 190.149 161.92 190.118 162.093L189.983 162.861C189.924 163.194 190.18 163.499 190.519 163.499ZM190.965 162.035L191.495 161.584L192.032 162.372L191.592 162.746H190.84L190.965 162.035Z" fill="white"/>
<path d="M278.611 155.131H250.597C249.379 155.131 248.336 156.006 248.125 157.206L245.296 173.248C245.116 174.273 245.904 175.212 246.944 175.212H275.07L273.863 181.905H247.106C245.903 181.905 244.734 181.507 243.782 180.771L239.186 177.222C237.586 175.986 236.803 173.964 237.154 171.973L239.643 157.86C239.951 156.113 240.94 154.56 242.392 153.541L247.941 149.651C249.067 148.861 250.409 148.438 251.784 148.438H279.792L278.611 155.131Z" fill="#242B33"/>
<path d="M288.95 181.905H280.583L284.824 157.86C285.132 156.113 286.12 154.56 287.573 153.541L293.122 149.651C294.248 148.861 295.589 148.438 296.964 148.438H319.802C320.985 148.438 322.136 148.824 323.08 149.537L327.83 153.125C329.46 154.357 330.262 156.397 329.908 158.409L325.764 181.905H317.398L321.772 157.095C321.953 156.071 321.165 155.131 320.124 155.131H295.778C294.559 155.131 293.517 156.006 293.306 157.206L288.95 181.905Z" fill="#242B33"/>
<path d="M346.67 149.651L341.121 153.541C339.668 154.56 338.679 156.113 338.371 157.86L335.889 171.934C335.535 173.946 336.337 175.987 337.967 177.218L342.716 180.806C343.661 181.519 344.812 181.905 345.995 181.905H372.179C373.554 181.905 374.896 181.482 376.022 180.693L381.571 176.802C383.023 175.784 384.012 174.231 384.32 172.484L386.802 158.409C387.157 156.397 386.354 154.357 384.724 153.125L379.975 149.537C379.031 148.824 377.88 148.438 376.697 148.438H350.512C349.137 148.438 347.795 148.861 346.67 149.651ZM373.366 175.212H345.673C344.632 175.212 343.844 174.273 344.025 173.248L346.853 157.206C347.065 156.006 348.107 155.131 349.325 155.131H377.019C378.059 155.131 378.847 156.071 378.667 157.095L375.838 173.138C375.627 174.337 374.584 175.212 373.366 175.212Z" fill="#242B33"/>
<path d="M434.131 148.438H407.407C406.032 148.438 404.69 148.861 403.564 149.651L398.015 153.541C396.563 154.56 395.574 156.113 395.266 157.86L391.026 181.905H399.393L401.092 172.266C401.304 171.066 402.346 170.192 403.564 170.192H431.954C435.608 170.192 438.735 167.568 439.37 163.969L440.723 156.294C441.446 152.195 438.293 148.438 434.131 148.438ZM428.98 163.498H411.445C410.07 163.498 408.728 163.922 407.602 164.711L402.522 168.273C402.217 168.487 401.805 168.225 401.87 167.858L403.748 157.206C403.96 156.006 405.002 155.131 406.22 155.131H430.567C431.607 155.131 432.395 156.071 432.215 157.095L431.451 161.424C431.24 162.624 430.198 163.498 428.98 163.498Z" fill="#242B33"/>
<path d="M493.146 148.438H447.993L446.785 155.131H470.142C470.551 155.131 470.717 155.658 470.382 155.892L466.575 158.561C465.123 159.58 464.134 161.133 463.826 162.88L460.471 181.905H468.838L473.193 157.206C473.405 156.006 474.447 155.131 475.665 155.131H491.938L493.146 148.438Z" fill="#242B33"/>
<path d="M528.243 181.905L520.179 152.441C519.532 150.077 517.384 148.438 514.934 148.438H514.063H509.404C507.097 148.438 504.953 149.626 503.73 151.581L484.753 181.905H493.102L510.722 153.773C511.109 153.156 512.046 153.294 512.238 153.997L519.876 181.905H528.243Z" fill="#242B33"/>
<path d="M584.633 156.294C585.356 152.195 582.203 148.438 578.041 148.438H551.317C549.942 148.438 548.6 148.861 547.474 149.651L541.925 153.541C540.473 154.56 539.484 156.113 539.176 157.86L534.936 181.905H543.303L544.708 173.939C544.919 172.74 545.961 171.865 547.179 171.865H573.521L571.75 181.905H580.117L584.633 156.294ZM574.701 165.172H555.06C553.685 165.172 552.343 165.595 551.217 166.384L546.137 169.946C545.832 170.16 545.42 169.898 545.485 169.531L547.658 157.206C547.87 156.006 548.912 155.131 550.13 155.131H574.477C575.517 155.131 576.306 156.071 576.125 157.095L574.701 165.172Z" fill="#242B33"/>
<path d="M631.199 148.438H639.566L634.761 175.683C634.127 179.282 631 181.905 627.346 181.905H600.347C599.164 181.905 598.013 181.519 597.069 180.806L592.319 177.218C590.689 175.987 589.887 173.946 590.241 171.934L594.385 148.438H602.751L598.377 173.248C598.196 174.273 598.984 175.212 600.025 175.212H624.371C625.59 175.212 626.632 174.337 626.843 173.138L631.199 148.438Z" fill="#242B33"/>
<path d="M627.648 138.398H615.029C613.654 138.398 612.313 138.821 611.187 139.611L605.54 143.57C604.871 144.039 605.203 145.091 606.02 145.091H626.345C627.559 145.091 628.599 144.222 628.815 143.027L629.295 140.369C629.48 139.342 628.691 138.398 627.648 138.398Z" fill="#242B33"/>
<path d="M696.918 160.082C697.272 158.071 696.47 156.03 694.84 154.799L690.09 151.21C689.146 150.497 687.995 150.111 686.812 150.111H676.928L677.223 148.438H668.85L668.555 150.111H657.281C655.906 150.111 654.564 150.535 653.438 151.324L647.889 155.215C646.437 156.233 645.448 157.786 645.14 159.533L643.248 170.261C642.894 172.273 643.696 174.313 645.326 175.545L650.075 179.133C651.02 179.846 652.17 180.232 653.354 180.232H663.244L662.942 181.905H671.316L671.617 180.232H682.885C684.26 180.232 685.602 179.809 686.728 179.019L692.277 175.129C693.729 174.11 694.718 172.557 695.026 170.81L696.918 160.082ZM664.424 173.539H653.031C651.991 173.539 651.203 172.599 651.384 171.575L653.622 158.879C653.834 157.679 654.876 156.805 656.094 156.805H667.375L664.424 173.539ZM687.134 156.805C688.175 156.805 688.963 157.744 688.782 158.769L686.544 171.464C686.332 172.664 685.29 173.539 684.072 173.539H672.797L675.748 156.805H687.134Z" fill="#242B33"/>
</svg>
