<svg width="832" height="416" viewBox="0 0 832 416" fill="none" xmlns="http://www.w3.org/2000/svg">
<rect width="832" height="416" fill="white"/>
<path d="M216.992 207.835C216.992 230.013 199.013 247.992 176.835 247.992C154.657 247.992 136.678 230.013 136.678 207.835C136.678 185.657 154.657 167.678 176.835 167.678C199.013 167.678 216.992 185.657 216.992 207.835Z" stroke="#A3876E" stroke-width="3.355"/>
<path fill-rule="evenodd" clip-rule="evenodd" d="M200.178 183.612L198.003 181.604C197.626 181.228 197.124 181.06 196.581 181.06H179.094C178.508 181.06 177.922 181.269 177.462 181.646L175.245 183.529C173.864 181.73 171.689 180.6 169.053 180.6C163.949 180.6 159.138 184.7 158.218 189.804C157.632 193.025 158.804 195.87 161.021 197.501L157.381 218.084C154.578 219.716 152.403 222.56 151.817 225.782C150.939 230.885 154.327 234.985 159.389 234.985C162.067 234.985 164.702 233.814 166.711 231.973L168.886 234.023C169.262 234.4 169.764 234.567 170.308 234.567H187.795C188.381 234.567 188.967 234.358 189.427 233.981L191.979 231.806C192.439 231.429 192.732 230.885 192.815 230.342L194.238 222.309C194.363 221.598 194.112 220.887 193.61 220.427L191.435 218.419C191.058 218.042 190.556 217.875 190.012 217.875H184.992L184.407 221.222H191.1L189.343 231.262H169.262L171.019 221.222H177.713L178.299 217.875H172.526C171.94 217.875 171.354 218.084 170.894 218.461L169.137 219.967C168.677 219.255 168.091 218.628 167.38 218.126L171.019 197.543C171.94 196.999 172.818 196.33 173.571 195.535L175.37 197.208C175.747 197.585 176.249 197.752 176.793 197.752H181.813L182.399 194.406H175.705L177.462 184.365H197.543L195.786 194.406H189.092L188.506 197.752H194.28C194.865 197.752 195.451 197.543 195.911 197.167L198.463 194.991C198.923 194.615 199.216 194.071 199.3 193.527L200.722 185.495C200.973 184.825 200.722 184.114 200.178 183.612ZM163.74 220.218C166.041 220.929 167.38 223.188 166.92 225.823C166.334 229.045 163.28 231.68 160.017 231.68C156.754 231.68 154.62 229.045 155.206 225.823C155.666 223.188 157.842 220.929 160.393 220.218L164.744 195.451C162.443 194.74 161.105 192.481 161.565 189.846C162.151 186.624 165.204 183.989 168.468 183.989C171.731 183.989 173.864 186.624 173.279 189.846C172.818 192.481 170.643 194.74 168.091 195.451L163.74 220.218Z" fill="#A3876E"/>
<path d="M173.697 213.692H174.534L174.827 211.935H176.291L176.458 211.182H174.994L175.12 210.261H177.211L177.379 209.508H174.45L173.697 213.692Z" fill="#A3876E"/>
<path d="M177.462 213.692H178.299L179.052 209.508H178.215L177.462 213.692Z" fill="#A3876E"/>
<path d="M179.763 210.261H181.018L180.391 213.692H181.227L181.813 210.261H183.068L183.235 209.508H179.889L179.763 210.261Z" fill="#A3876E"/>
<path d="M186.29 212.353L184.909 209.508H184.072L183.319 213.692H184.156L184.658 210.847L186.039 213.692H186.875L187.628 209.508H186.792L186.29 212.353Z" fill="#A3876E"/>
<path d="M188.13 213.692H191.059L191.184 212.939H189.093L189.26 211.935H190.724L190.891 211.182H189.427L189.553 210.261H191.645L191.812 209.508H188.883L188.13 213.692Z" fill="#A3876E"/>
<path d="M192.732 210.136L192.523 211.307C192.481 211.642 192.732 211.935 193.067 211.935H194.74L194.573 212.939H192.272L192.146 213.692H194.657C195.033 213.692 195.326 213.441 195.41 213.064L195.619 211.809C195.661 211.475 195.41 211.182 195.075 211.182H193.402L193.569 210.261H195.661L195.786 209.508H193.485C193.109 209.508 192.774 209.759 192.732 210.136Z" fill="#A3876E"/>
<path d="M180.475 206.162H181.311L181.604 204.488L183.487 201.978H182.566L181.353 203.651L180.684 201.978H179.722L180.768 204.488L180.475 206.162Z" fill="#A3876E"/>
<path d="M184.24 206.162L184.7 203.4L185.536 205.325H185.704L187.21 203.4L186.75 206.162H187.586L188.298 201.978H187.461L185.871 204.07L184.951 201.978H184.114L183.403 206.162H184.24Z" fill="#A3876E"/>
<path d="M199.802 210.261L199.928 209.508H197.627C197.25 209.508 196.957 209.759 196.874 210.136L196.665 211.307C196.623 211.642 196.874 211.935 197.208 211.935H198.882L198.715 212.939H196.414L196.288 213.692H198.798C199.175 213.692 199.468 213.441 199.551 213.064L199.76 211.809C199.802 211.475 199.551 211.182 199.217 211.182H197.543L197.71 210.261H199.802Z" fill="#A3876E"/>
<path d="M175.664 206.162H177.714C178.09 206.162 178.383 205.91 178.467 205.534L178.801 203.651H177.128L177.002 204.404H177.839L177.672 205.408H175.998L176.459 202.731H178.759L178.885 201.978H176.375C175.998 201.978 175.705 202.229 175.622 202.606L175.12 205.534C175.078 205.869 175.329 206.162 175.664 206.162Z" fill="#A3876E"/>
<path d="M190.515 206.162H191.477C191.644 206.162 191.812 206.078 191.979 205.994L192.439 205.618L192.816 206.162H193.862L193.109 205.032L193.862 204.363L193.443 203.861L192.732 204.488L191.728 203.024L191.77 202.731H192.607L192.523 203.233H193.36L193.485 202.606C193.527 202.271 193.276 201.978 192.941 201.978H191.728C191.352 201.978 191.059 202.229 190.975 202.606L190.891 203.024C190.849 203.149 190.891 203.317 190.975 203.442L191.142 203.693L190.389 204.321C190.264 204.446 190.18 204.572 190.138 204.781L190.013 205.534C189.929 205.869 190.18 206.162 190.515 206.162ZM190.975 204.697L191.519 204.237L192.063 205.032L191.603 205.408H190.849L190.975 204.697Z" fill="#A3876E"/>
<path d="M246.52 208.75L248.093 199.818C248.326 198.599 249.376 197.729 250.541 197.729H278.576L279.742 191.059H251.59C250.191 191.059 248.851 191.523 247.685 192.335L242.323 196.163C240.924 197.149 239.933 198.715 239.642 200.398L238.768 205.154C238.185 208.228 240.574 211.012 243.722 211.012H269.251C270.3 211.012 271.058 211.94 270.883 212.984L270.417 215.652C270.183 216.87 269.134 217.741 267.969 217.741H236.611L235.445 224.411H270.941C274.613 224.411 277.702 221.801 278.343 218.205L279.392 212.23C280.092 208.17 276.944 204.4 272.806 204.4H256.137C254.738 204.4 253.397 204.806 252.29 205.618L247.219 209.156C246.869 209.388 246.461 209.156 246.52 208.75Z" fill="#A3876E"/>
<path d="M289.01 200.514L284.755 224.469H293.148L294.838 214.898C295.071 213.68 296.121 212.81 297.286 212.81H325.671C329.343 212.81 332.432 210.2 333.073 206.604L334.414 198.948C335.113 194.887 331.966 191.117 327.828 191.117H301.075C299.676 191.117 298.335 191.523 297.228 192.335L291.691 196.221C290.292 197.208 289.301 198.774 289.01 200.514ZM322.699 206.082H305.155C303.756 206.082 302.415 206.488 301.308 207.3L296.237 210.838C295.946 211.07 295.538 210.78 295.596 210.432L297.461 199.818C297.694 198.6 298.743 197.73 299.909 197.73H324.272C325.321 197.73 326.079 198.658 325.904 199.702L325.147 203.994C324.972 205.212 323.923 206.082 322.699 206.082Z" fill="#A3876E"/>
<path d="M350.034 192.335L344.497 196.221C343.04 197.208 342.049 198.774 341.758 200.514L339.251 214.55C338.902 216.581 339.718 218.611 341.35 219.829L346.071 223.425C347.003 224.121 348.169 224.527 349.335 224.527H375.505C376.904 224.527 378.244 224.121 379.352 223.309L384.889 219.423C386.346 218.437 387.337 216.871 387.628 215.13L390.134 201.094C390.484 199.064 389.668 197.034 388.036 195.815L383.315 192.219C382.382 191.523 381.217 191.117 380.051 191.117H353.881C352.482 191.117 351.141 191.523 350.034 192.335ZM376.729 217.741H349.043C347.994 217.741 347.236 216.813 347.411 215.769L350.267 199.818C350.5 198.6 351.549 197.73 352.715 197.73H380.401C381.45 197.73 382.208 198.658 382.033 199.702L379.177 215.652C379.002 216.871 377.953 217.741 376.729 217.741Z" fill="#A3876E"/>
<path d="M437.52 191.117H410.767C409.368 191.117 408.028 191.523 406.921 192.335L401.383 196.221C399.926 197.208 398.935 198.774 398.644 200.514L394.389 224.469H402.724L404.414 214.898C404.647 213.68 405.697 212.81 406.862 212.81H424.872C425.455 212.81 425.922 213.1 426.271 213.564L433.732 224.469H442.941L435.189 213.1C435.072 212.984 435.189 212.81 435.364 212.81C439.036 212.81 442.125 210.2 442.766 206.604L444.107 198.948C444.806 194.829 441.659 191.117 437.52 191.117ZM432.333 206.082H414.789C413.448 206.082 412.108 206.488 411 207.242L405.93 210.722C405.638 210.954 405.23 210.664 405.289 210.316L407.154 199.76C407.387 198.542 408.436 197.672 409.602 197.672H433.965C435.014 197.672 435.772 198.6 435.597 199.644L434.839 203.936C434.606 205.212 433.557 206.082 432.333 206.082Z" fill="#A3876E"/>
<path d="M511.601 191.117H503.208L498.545 217.567C497.904 221.163 500.643 224.411 504.315 224.411H535.848L537.013 217.741H508.862C507.812 217.741 507.055 216.813 507.23 215.769L511.601 191.117Z" fill="#A3876E"/>
<path d="M542.492 224.411H550.885L556.772 191.117H548.379L542.492 224.411Z" fill="#A3876E"/>
<path d="M607.48 197.788L608.646 191.117H575.598C574.2 191.117 572.859 191.523 571.752 192.335L566.214 196.221C564.757 197.208 563.766 198.774 563.475 200.514L559.22 224.469H567.613L569.304 214.898C569.537 213.68 570.586 212.81 571.752 212.81H601.477L602.643 206.14H579.678C578.28 206.14 576.939 206.546 575.832 207.358L570.761 210.896C570.469 211.128 570.061 210.838 570.12 210.49L571.985 199.876C572.218 198.658 573.267 197.788 574.433 197.788H607.48Z" fill="#A3876E"/>
<path d="M655.974 197.788L657.139 191.117H624.092C622.693 191.117 621.352 191.523 620.245 192.335L614.708 196.221C613.251 197.208 612.26 198.774 611.968 200.514L609.112 216.639C608.413 220.699 611.56 224.469 615.699 224.469H651.253L652.418 217.799H619.254C618.205 217.799 617.447 216.871 617.622 215.827L618.088 213.158C618.321 211.94 619.371 211.07 620.536 211.07H650.203L651.369 204.4H628.405C627.006 204.4 625.665 204.806 624.558 205.618L619.487 209.156C619.196 209.388 618.788 209.098 618.846 208.75L620.42 199.818C620.653 198.6 621.702 197.73 622.868 197.73H655.974V197.788Z" fill="#A3876E"/>
<path d="M450.168 197.787H473.541C473.949 197.787 474.124 198.309 473.774 198.541L469.985 201.21C468.528 202.196 467.537 203.762 467.246 205.502L463.866 224.411H472.259L476.63 199.818C476.863 198.599 477.912 197.729 479.078 197.729H495.398L496.622 191.059H451.392L450.168 197.787Z" fill="#A3876E"/>
</svg>
