<svg width="832" height="352" viewBox="0 0 832 352" fill="none" xmlns="http://www.w3.org/2000/svg">
<g clip-path="url(#clip0_4767_28316)">
<rect width="832" height="352" rx="4" fill="white"/>
<g clip-path="url(#clip1_4767_28316)">
<path d="M45.048 170.42L48.0004 153.793C48.3888 151.539 50.3311 149.908 52.5842 149.908H104.638L106.814 137.476H54.6042C52.0404 137.476 49.4765 138.253 47.3788 139.807L37.3565 146.955C34.7149 148.82 32.928 151.695 32.3842 154.88L30.7526 163.816C29.7426 169.488 34.0934 174.772 39.9203 174.772H87.2351C89.1774 174.772 90.6535 176.481 90.2651 178.424L89.4105 183.319C89.022 185.572 87.0797 187.204 84.8266 187.204H26.5572L24.3818 199.636H90.3428C97.102 199.636 102.929 194.741 104.094 188.058L106.037 176.947C107.435 169.333 101.53 162.34 93.8389 162.34H62.8396C60.2758 162.34 57.7896 163.117 55.6919 164.593L46.2911 171.197C45.7473 171.586 44.9704 171.12 45.048 170.42Z" fill="#242B33"/>
<path d="M123.907 154.958L116.06 199.636H131.598L134.783 181.765C135.172 179.511 137.114 177.88 139.367 177.88H192.121C198.88 177.88 204.707 172.985 205.872 166.302L208.358 152.083C209.679 144.469 203.852 137.476 196.083 137.476H146.437C143.873 137.476 141.387 138.253 139.29 139.729L128.957 146.955C126.315 148.82 124.528 151.695 123.907 154.958ZM186.527 165.448H153.974C151.41 165.448 148.924 166.225 146.826 167.701L137.425 174.305C136.881 174.694 136.104 174.228 136.182 173.528L139.678 153.715C140.067 151.462 142.009 149.83 144.262 149.83H189.479C191.421 149.83 192.897 151.539 192.509 153.482L191.111 161.563C190.722 163.816 188.78 165.448 186.527 165.448Z" fill="#242B33"/>
<path d="M237.258 139.729L226.925 146.955C224.206 148.82 222.419 151.695 221.798 154.958L217.214 181.065C216.592 184.795 218.068 188.602 221.098 190.856L229.955 197.538C231.742 198.859 233.84 199.558 236.015 199.558H284.651C287.215 199.558 289.701 198.781 291.798 197.305L302.132 190.079C304.851 188.214 306.638 185.339 307.259 182.076L311.843 155.968C312.465 152.239 310.989 148.431 307.958 146.178L299.102 139.496C297.315 138.175 295.217 137.476 293.042 137.476H244.406C241.842 137.476 239.356 138.253 237.258 139.729ZM286.826 187.204H235.394C233.451 187.204 231.975 185.494 232.364 183.552L237.647 153.793C238.035 151.539 239.978 149.908 242.231 149.908H293.663C295.605 149.908 297.082 151.617 296.693 153.56L291.41 183.319C291.022 185.572 289.079 187.204 286.826 187.204Z" fill="#242B33"/>
<path d="M399.636 137.476H349.991C347.427 137.476 344.941 138.253 342.843 139.729L332.51 146.955C329.791 148.82 328.004 151.695 327.382 154.958L319.613 199.636H335.151L338.337 181.765C338.725 179.511 340.667 177.88 342.921 177.88H376.173C377.183 177.88 378.193 178.424 378.737 179.201L392.644 199.636H409.736L395.285 178.424C395.13 178.19 395.285 177.88 395.596 177.88C402.355 177.88 408.182 172.985 409.348 166.302L411.834 152.083C413.232 144.469 407.405 137.476 399.636 137.476ZM390.08 165.448H357.449C354.885 165.448 352.477 166.225 350.379 167.623L340.978 174.15C340.434 174.539 339.657 174.072 339.735 173.373L343.231 153.715C343.62 151.462 345.562 149.83 347.815 149.83H393.032C394.975 149.83 396.451 151.539 396.062 153.482L394.664 161.563C394.275 163.816 392.333 165.448 390.08 165.448Z" fill="#242B33"/>
<path d="M537.229 137.476H521.691L512.989 186.893C511.824 193.497 516.951 199.636 523.711 199.636H582.213L584.388 187.204H532.179C530.237 187.204 528.761 185.494 529.149 183.552L537.229 137.476Z" fill="#242B33"/>
<path d="M594.645 199.636H610.183L621.138 137.476H605.599L594.645 199.636Z" fill="#242B33"/>
<path d="M715.301 149.908L717.476 137.476H656.177C653.613 137.476 651.127 138.253 649.029 139.729L638.696 146.955C635.977 148.82 634.19 151.695 633.568 154.958L625.721 199.636H641.26L644.445 181.765C644.834 179.511 646.776 177.88 649.029 177.88H704.191L706.366 165.448H663.713C661.149 165.448 658.663 166.225 656.565 167.701L647.164 174.305C646.62 174.694 645.844 174.228 645.921 173.528L649.417 153.715C649.806 151.462 651.748 149.83 654.001 149.83H715.301V149.908Z" fill="#242B33"/>
<path d="M805.424 149.908L807.599 137.476H746.3C743.736 137.476 741.25 138.253 739.152 139.729L728.819 146.955C726.1 148.82 724.313 151.695 723.692 154.958L718.409 185.028C717.088 192.643 722.915 199.636 730.684 199.636H796.645L798.82 187.204H737.288C735.345 187.204 733.869 185.494 734.258 183.552L735.112 178.657C735.501 176.403 737.443 174.772 739.696 174.772H794.858L797.033 162.34H754.38C751.816 162.34 749.33 163.117 747.232 164.593L737.832 171.197C737.288 171.586 736.511 171.12 736.589 170.42L739.541 153.715C739.929 151.462 741.872 149.83 744.125 149.83H805.424V149.908Z" fill="#242B33"/>
<path d="M423.178 149.908H466.53C467.307 149.908 467.618 150.918 466.996 151.306L459.926 156.279C457.207 158.144 455.42 161.019 454.799 164.282L448.583 199.636H464.122L472.202 153.793C472.59 151.539 474.532 149.908 476.786 149.908H507.086L509.339 137.476H425.353L423.178 149.908Z" fill="#242B33"/>
</g>
<path d="M0 137.399L832.053 137.4" stroke="#C0C6CC" stroke-width="0.4"/>
<path d="M0 199.479L832.053 199.479" stroke="#C0C6CC" stroke-width="0.4"/>
<path d="M0 187.126L832.053 187.126" stroke="#C0C6CC" stroke-width="0.4"/>
<path d="M0 177.701L832.053 177.701" stroke="#C0C6CC" stroke-width="0.4"/>
<path d="M0 165.35L832.053 165.35" stroke="#C0C6CC" stroke-width="0.4"/>
<path d="M0 149.75L832.053 149.75" stroke="#C0C6CC" stroke-width="0.4"/>
<path d="M265.125 507.959L392.369 -213.674" stroke="#C0C6CC" stroke-width="0.4"/>
<path d="M249.93 507.959L377.173 -213.674" stroke="#C0C6CC" stroke-width="0.4"/>
<path d="M159.592 507.959L286.835 -213.674" stroke="#C0C6CC" stroke-width="0.4"/>
<path d="M145.779 507.959L273.023 -213.674" stroke="#C0C6CC" stroke-width="0.4"/>
<path d="M61.7915 507.959L189.035 -213.674" stroke="#C0C6CC" stroke-width="0.4"/>
<path d="M47.7017 507.959L174.945 -213.674" stroke="#C0C6CC" stroke-width="0.4"/>
<path d="M349.367 507.959L476.61 -213.674" stroke="#C0C6CC" stroke-width="0.4"/>
<path d="M359.866 507.959L487.11 -213.674" stroke="#C0C6CC" stroke-width="0.4"/>
<path d="M444.405 507.959L571.648 -213.674" stroke="#C0C6CC" stroke-width="0.4"/>
<path d="M456.559 507.959L583.802 -213.674" stroke="#C0C6CC" stroke-width="0.4"/>
<path d="M528.388 507.96L655.632 -213.673" stroke="#C0C6CC" stroke-width="0.4"/>
<path d="M540.544 507.96L667.787 -213.673" stroke="#C0C6CC" stroke-width="0.4"/>
<path d="M556.015 507.96L683.258 -213.673" stroke="#C0C6CC" stroke-width="0.4"/>
<path d="M571.487 507.96L698.73 -213.673" stroke="#C0C6CC" stroke-width="0.4"/>
<path d="M654.529 496.633L781.773 -225" stroke="#C0C6CC" stroke-width="0.4"/>
<path d="M663.646 496.633L790.889 -225" stroke="#C0C6CC" stroke-width="0.4"/>
</g>
<defs>
<clipPath id="clip0_4767_28316">
<rect width="832" height="352" rx="4" fill="white"/>
</clipPath>
<clipPath id="clip1_4767_28316">
<rect width="783.218" height="62.1602" fill="white" transform="translate(24.3774 137.475)"/>
</clipPath>
</defs>
</svg>
