<svg width="832" height="416" viewBox="0 0 832 416" fill="none" xmlns="http://www.w3.org/2000/svg">
<g clip-path="url(#clip0_4767_26782)">
<rect width="832" height="416" rx="4" fill="white"/>
<rect x="120" y="177" width="562" height="84" fill="#F2F4F5"/>
<path d="M86.1655 177.003H119.671H203.433H221.941H682.222H715.727" stroke="#848E99" stroke-width="0.418814" stroke-miterlimit="10"/>
<path d="M119.67 294.271V260.766V235.637V202.132V177.003V143.498" stroke="#848E99" stroke-width="0.418814" stroke-miterlimit="10"/>
<path d="M86.1655 260.766H119.671H203.433H221.941H682.222H715.727" stroke="#848E99" stroke-width="0.418814" stroke-miterlimit="10"/>
<path d="M221.857 294.271V260.766V235.637V202.132V177.003V143.498" stroke="#848E99" stroke-width="0.418814" stroke-miterlimit="10"/>
<path d="M203.434 294.271V260.766V235.637V202.132V177.003V143.498" stroke="#848E99" stroke-width="0.418814" stroke-miterlimit="10"/>
<path d="M86.1655 235.638H119.671H203.433H221.941H682.222H715.727" stroke="#848E99" stroke-width="0.418814" stroke-miterlimit="10"/>
<path d="M86.1655 202.133H119.671H203.433H221.941H682.222H715.727" stroke="#848E99" stroke-width="0.418814" stroke-miterlimit="10"/>
<path d="M161.552 260.768C184.683 260.768 203.434 242.017 203.434 218.886C203.434 195.756 184.683 177.005 161.552 177.005C138.422 177.005 119.671 195.756 119.671 218.886C119.671 242.017 138.422 260.768 161.552 260.768Z" fill="#242B33"/>
<path fill-rule="evenodd" clip-rule="evenodd" d="M184.941 194.656L182.78 192.643C182.392 192.282 181.882 192.081 181.352 192.081H163.835C163.239 192.081 162.662 192.293 162.207 192.679L159.978 194.574C158.614 192.783 156.426 191.662 153.776 191.662C148.687 191.662 143.834 195.787 142.937 200.876C142.367 204.106 143.535 206.94 145.761 208.584L142.13 229.179C139.318 230.822 137.146 233.659 136.575 236.894C135.678 241.983 139.076 246.108 144.165 246.108C146.865 246.108 149.499 244.946 151.511 243.095L153.693 245.127C154.08 245.488 154.59 245.689 155.12 245.689H172.638C173.234 245.689 173.811 245.477 174.265 245.091L176.813 242.925C177.259 242.546 177.558 242.023 177.66 241.447L179.078 233.408C179.201 232.709 178.962 231.995 178.442 231.512L176.281 229.498C175.893 229.137 175.383 228.937 174.854 228.937H169.814L169.224 232.287H175.925L174.152 242.339H154.049L155.821 232.287H162.523L163.113 228.937H157.336C156.74 228.937 156.163 229.149 155.708 229.535L153.933 231.044C153.467 230.323 152.874 229.699 152.18 229.187L155.812 208.59C156.749 208.041 157.613 207.362 158.371 206.576L160.192 208.272C160.579 208.633 161.089 208.833 161.619 208.833H166.658L167.249 205.483H160.548L162.32 195.431H182.423L180.651 205.483H173.95L173.359 208.833H179.136C179.733 208.833 180.31 208.621 180.764 208.235L183.312 206.069C183.757 205.69 184.057 205.168 184.159 204.591L185.576 196.552C185.7 195.853 185.461 195.14 184.941 194.656ZM148.461 231.278C150.752 232.001 152.121 234.241 151.653 236.894C151.082 240.132 147.994 242.757 144.755 242.757C141.517 242.757 139.355 240.132 139.926 236.894C140.394 234.236 142.56 231.994 145.111 231.275L149.481 206.492C147.189 205.77 145.82 203.53 146.288 200.876C146.858 197.638 149.947 195.013 153.185 195.013C156.423 195.013 158.585 197.638 158.014 200.876C157.546 203.533 155.382 205.775 152.831 206.495L148.461 231.278Z" fill="#A3876E"/>
<path d="M158.407 224.752H159.244L159.555 222.993H161.02L161.153 222.239L159.688 222.239L159.85 221.317H161.944L162.077 220.563H159.145L158.407 224.752Z" fill="white"/>
<path d="M162.175 224.752H163.013L163.751 220.563H162.914L162.175 224.752Z" fill="white"/>
<path d="M164.463 221.317H165.72L165.107 224.752H165.945L166.551 221.317H167.807L167.94 220.563H164.589L164.463 221.317Z" fill="white"/>
<path d="M171.001 223.39L169.615 220.563H168.778L168.039 224.752H168.877L169.375 221.924L170.761 224.752H171.599L172.337 220.563H171.5L171.001 223.39Z" fill="white"/>
<path d="M172.856 224.752H175.788L175.921 223.998H173.827L174.004 222.993H175.47L175.603 222.238L174.137 222.239L174.299 221.317H176.393L176.526 220.563H173.595L172.856 224.752Z" fill="white"/>
<path d="M177.463 221.186L177.257 222.354C177.199 222.687 177.455 222.993 177.793 222.993L179.452 222.993L179.274 223.998H176.968L176.835 224.752H179.343C179.709 224.752 180.022 224.489 180.086 224.129L180.306 222.877C180.365 222.544 180.108 222.238 179.77 222.238L178.114 222.239L178.279 221.317H180.372L180.505 220.563H178.206C177.84 220.563 177.527 220.826 177.463 221.186Z" fill="white"/>
<path d="M165.181 217.213H166.018L166.314 215.537L168.222 213.024H167.282L166.054 214.7L165.394 213.024H164.453L165.478 215.537L165.181 217.213Z" fill="white"/>
<path d="M168.95 217.213L169.438 214.444L170.264 216.375H170.442L171.951 214.444L171.463 217.213H172.3L173.039 213.024H172.201L170.578 215.103L169.688 213.024H168.851L168.112 217.213H168.95Z" fill="white"/>
<path d="M184.559 221.317L184.692 220.563H182.393C182.027 220.563 181.714 220.826 181.651 221.186L181.445 222.354C181.386 222.687 181.643 222.993 181.981 222.993L183.639 222.993L183.462 223.998H181.156L181.023 224.752H183.531C183.897 224.752 184.21 224.489 184.273 224.129L184.494 222.877C184.553 222.544 184.296 222.238 183.958 222.238L182.301 222.239L182.466 221.317H184.559Z" fill="white"/>
<path d="M160.385 217.213L162.455 217.214C162.821 217.213 163.133 216.95 163.197 216.591L163.53 214.7H161.855L161.722 215.454H162.559L162.382 216.459H160.707L161.18 213.778H163.483L163.616 213.024H161.107C160.742 213.024 160.429 213.287 160.365 213.647L159.849 216.574C159.79 216.907 160.046 217.213 160.385 217.213Z" fill="white"/>
<path d="M175.253 217.213H176.212C176.391 217.213 176.564 217.149 176.7 217.033L177.152 216.649L177.536 217.213H178.583L177.809 216.091L178.583 215.432L178.151 214.909L177.421 215.53L176.415 214.071L176.466 213.778H177.304L177.215 214.281H178.053L178.162 213.663C178.22 213.33 177.964 213.024 177.626 213.024H176.394C176.028 213.024 175.715 213.287 175.652 213.647L175.578 214.063C175.554 214.203 175.585 214.347 175.665 214.464L175.847 214.732L175.107 215.361C174.973 215.475 174.883 215.632 174.852 215.805L174.717 216.574C174.658 216.907 174.915 217.213 175.253 217.213ZM175.7 215.747L176.231 215.296L176.768 216.085L176.328 216.459H175.575L175.7 215.747Z" fill="white"/>
<path d="M263.444 208.835H235.398C234.179 208.835 233.135 209.71 232.923 210.911L230.092 226.972C229.911 227.997 230.7 228.938 231.741 228.938H259.899L258.69 235.639H231.903C230.699 235.639 229.529 235.24 228.576 234.504L223.974 230.95C222.372 229.713 221.589 227.689 221.94 225.696L224.432 211.566C224.74 209.817 225.73 208.262 227.184 207.243L232.739 203.348C233.867 202.558 235.21 202.134 236.586 202.134H264.626L263.444 208.835Z" fill="#242B33"/>
<path d="M273.795 235.639H265.419L269.664 211.566C269.972 209.817 270.962 208.262 272.416 207.243L277.971 203.348C279.099 202.558 280.442 202.134 281.818 202.134H304.682C305.866 202.134 307.019 202.52 307.964 203.234L312.719 206.826C314.35 208.059 315.154 210.102 314.799 212.116L310.651 235.639H302.275L306.654 210.801C306.835 209.775 306.046 208.835 305.004 208.835H280.63C279.411 208.835 278.367 209.71 278.155 210.911L273.795 235.639Z" fill="#242B33"/>
<path d="M331.579 203.348L326.024 207.243C324.57 208.262 323.58 209.817 323.272 211.566L320.787 225.657C320.432 227.671 321.235 229.714 322.867 230.946L327.622 234.539C328.567 235.253 329.719 235.639 330.904 235.639H357.118C358.494 235.639 359.838 235.215 360.965 234.425L366.52 230.53C367.974 229.511 368.964 227.956 369.272 226.207L371.757 212.116C372.112 210.102 371.309 208.059 369.677 206.826L364.922 203.234C363.977 202.52 362.825 202.134 361.64 202.134H335.426C334.05 202.134 332.706 202.558 331.579 203.348ZM358.306 228.938H330.581C329.54 228.938 328.75 227.997 328.931 226.972L331.763 210.911C331.975 209.71 333.018 208.835 334.238 208.835H361.963C363.004 208.835 363.793 209.775 363.613 210.801L360.781 226.861C360.569 228.062 359.525 228.938 358.306 228.938Z" fill="#242B33"/>
<path d="M419.139 202.134H392.385C391.008 202.134 389.665 202.558 388.538 203.348L382.983 207.243C381.529 208.262 380.539 209.817 380.23 211.566L375.985 235.639H384.362L386.063 225.989C386.275 224.788 387.318 223.912 388.538 223.912H416.959C420.618 223.912 423.748 221.285 424.384 217.683L425.739 209.998C426.462 205.895 423.306 202.134 419.139 202.134ZM413.982 217.211H396.427C395.05 217.211 393.707 217.635 392.58 218.425L387.494 221.991C387.189 222.205 386.777 221.943 386.841 221.575L388.722 210.911C388.934 209.71 389.977 208.835 391.197 208.835H415.571C416.612 208.835 417.402 209.775 417.221 210.801L416.457 215.135C416.245 216.336 415.201 217.211 413.982 217.211Z" fill="#242B33"/>
<path d="M478.221 202.134H433.017L431.808 208.835H455.191C455.6 208.835 455.766 209.362 455.431 209.597L451.62 212.269C450.166 213.288 449.176 214.843 448.868 216.592L445.509 235.639H453.885L458.246 210.911C458.457 209.71 459.501 208.835 460.72 208.835H477.012L478.221 202.134Z" fill="#242B33"/>
<path d="M513.357 235.639L505.284 206.141C504.637 203.775 502.486 202.134 500.033 202.134H499.162H494.497C492.188 202.134 490.042 203.323 488.817 205.28L469.819 235.639H478.177L495.817 207.475C496.204 206.857 497.142 206.995 497.334 207.699L504.981 235.639H513.357Z" fill="#242B33"/>
<path d="M569.811 209.998C570.534 205.895 567.378 202.134 563.212 202.134H536.457C535.08 202.134 533.737 202.558 532.61 203.348L527.055 207.243C525.601 208.262 524.611 209.817 524.302 211.566L520.058 235.639H528.434L529.84 227.664C530.052 226.463 531.095 225.587 532.315 225.587H558.686L556.913 235.639H565.29L569.811 209.998ZM559.867 218.886H540.204C538.827 218.886 537.484 219.31 536.357 220.101L531.271 223.666C530.966 223.881 530.554 223.618 530.618 223.251L532.794 210.911C533.006 209.71 534.049 208.835 535.269 208.835H559.643C560.685 208.835 561.474 209.775 561.293 210.801L559.867 218.886Z" fill="#242B33"/>
<path d="M616.43 202.134H624.806L619.997 229.409C619.362 233.012 616.231 235.639 612.573 235.639H585.543C584.359 235.639 583.207 235.253 582.261 234.539L577.506 230.946C575.875 229.714 575.072 227.671 575.427 225.657L579.574 202.134H587.951L583.571 226.972C583.39 227.997 584.179 228.938 585.221 228.938H609.595C610.815 228.938 611.858 228.062 612.07 226.861L616.43 202.134Z" fill="#242B33"/>
<path d="M612.875 192.081H600.242C598.866 192.081 597.522 192.505 596.395 193.295L590.742 197.259C590.072 197.729 590.404 198.782 591.223 198.782H611.57C612.786 198.782 613.827 197.912 614.043 196.715L614.524 194.054C614.709 193.026 613.919 192.081 612.875 192.081Z" fill="#242B33"/>
<path d="M682.222 213.791C682.577 211.777 681.774 209.734 680.142 208.502L675.387 204.909C674.442 204.195 673.29 203.809 672.105 203.809H662.21L662.505 202.134H654.123L653.827 203.809H642.54C641.164 203.809 639.821 204.233 638.693 205.023L633.138 208.918C631.684 209.938 630.694 211.492 630.386 213.241L628.492 223.981C628.137 225.995 628.94 228.038 630.572 229.271L635.327 232.863C636.272 233.577 637.424 233.964 638.609 233.964H648.51L648.208 235.639H656.591L656.893 233.964H668.173C669.55 233.964 670.893 233.54 672.02 232.749L677.576 228.855C679.03 227.835 680.02 226.28 680.328 224.531L682.222 213.791ZM649.692 227.263H638.286C637.245 227.263 636.456 226.322 636.636 225.296L638.878 212.587C639.089 211.386 640.133 210.51 641.352 210.51H652.646L649.692 227.263ZM672.428 210.51C673.469 210.51 674.258 211.45 674.077 212.476L671.836 225.186C671.624 226.387 670.581 227.263 669.361 227.263H658.074L661.028 210.51H672.428Z" fill="#242B33"/>
<path d="M102.384 166.16C101.701 166.16 101.098 165.995 100.576 165.664C100.053 165.333 99.6423 164.843 99.3436 164.192C99.045 163.531 98.8956 162.715 98.8956 161.744C98.8956 160.293 99.2103 159.184 99.8396 158.416C100.48 157.648 101.349 157.264 102.448 157.264C102.853 157.264 103.221 157.323 103.552 157.44C103.882 157.547 104.176 157.701 104.432 157.904C104.698 158.096 104.922 158.325 105.104 158.592H105.168L105.376 157.424H106.496V164.112C106.496 164.443 106.56 164.677 106.688 164.816C106.816 164.944 106.97 165.008 107.152 165.008C107.237 165.008 107.328 164.997 107.424 164.976C107.52 164.955 107.589 164.939 107.632 164.928V165.952C107.578 165.984 107.504 166.016 107.408 166.048C107.312 166.08 107.205 166.107 107.088 166.128C106.97 166.149 106.853 166.16 106.736 166.16C106.341 166.16 106.01 166.064 105.744 165.872C105.488 165.68 105.301 165.339 105.184 164.848H105.072C104.901 165.104 104.688 165.333 104.432 165.536C104.176 165.728 103.877 165.883 103.536 166C103.194 166.107 102.81 166.16 102.384 166.16ZM102.672 164.992C103.258 164.992 103.728 164.88 104.08 164.656C104.442 164.432 104.704 164.085 104.864 163.616C105.024 163.147 105.104 162.549 105.104 161.824V161.728C105.104 160.661 104.922 159.845 104.56 159.28C104.208 158.715 103.573 158.432 102.656 158.432C101.877 158.432 101.296 158.72 100.912 159.296C100.538 159.861 100.352 160.683 100.352 161.76C100.352 162.827 100.549 163.632 100.944 164.176C101.338 164.72 101.914 164.992 102.672 164.992Z" fill="#848E99"/>
<path d="M698.384 225.16C697.701 225.16 697.098 224.995 696.576 224.664C696.053 224.333 695.642 223.843 695.344 223.192C695.045 222.531 694.896 221.715 694.896 220.744C694.896 219.293 695.21 218.184 695.84 217.416C696.48 216.648 697.349 216.264 698.448 216.264C698.853 216.264 699.221 216.323 699.552 216.44C699.882 216.547 700.176 216.701 700.432 216.904C700.698 217.096 700.922 217.325 701.104 217.592H701.168L701.376 216.424H702.496V223.112C702.496 223.443 702.56 223.677 702.688 223.816C702.816 223.944 702.97 224.008 703.152 224.008C703.237 224.008 703.328 223.997 703.424 223.976C703.52 223.955 703.589 223.939 703.632 223.928V224.952C703.578 224.984 703.504 225.016 703.408 225.048C703.312 225.08 703.205 225.107 703.088 225.128C702.97 225.149 702.853 225.16 702.736 225.16C702.341 225.16 702.01 225.064 701.744 224.872C701.488 224.68 701.301 224.339 701.184 223.848H701.072C700.901 224.104 700.688 224.333 700.432 224.536C700.176 224.728 699.877 224.883 699.536 225C699.194 225.107 698.81 225.16 698.384 225.16ZM698.672 223.992C699.258 223.992 699.728 223.88 700.08 223.656C700.442 223.432 700.704 223.085 700.864 222.616C701.024 222.147 701.104 221.549 701.104 220.824V220.728C701.104 219.661 700.922 218.845 700.56 218.28C700.208 217.715 699.573 217.432 698.656 217.432C697.877 217.432 697.296 217.72 696.912 218.296C696.538 218.861 696.352 219.683 696.352 220.76C696.352 221.827 696.549 222.632 696.944 223.176C697.338 223.72 697.914 223.992 698.672 223.992Z" fill="#848E99"/>
<path d="M102.384 284.16C101.701 284.16 101.098 283.995 100.576 283.664C100.053 283.333 99.6423 282.843 99.3436 282.192C99.045 281.531 98.8956 280.715 98.8956 279.744C98.8956 278.293 99.2103 277.184 99.8396 276.416C100.48 275.648 101.349 275.264 102.448 275.264C102.853 275.264 103.221 275.323 103.552 275.44C103.882 275.547 104.176 275.701 104.432 275.904C104.698 276.096 104.922 276.325 105.104 276.592H105.168L105.376 275.424H106.496V282.112C106.496 282.443 106.56 282.677 106.688 282.816C106.816 282.944 106.97 283.008 107.152 283.008C107.237 283.008 107.328 282.997 107.424 282.976C107.52 282.955 107.589 282.939 107.632 282.928V283.952C107.578 283.984 107.504 284.016 107.408 284.048C107.312 284.08 107.205 284.107 107.088 284.128C106.97 284.149 106.853 284.16 106.736 284.16C106.341 284.16 106.01 284.064 105.744 283.872C105.488 283.68 105.301 283.339 105.184 282.848H105.072C104.901 283.104 104.688 283.333 104.432 283.536C104.176 283.728 103.877 283.883 103.536 284C103.194 284.107 102.81 284.16 102.384 284.16ZM102.672 282.992C103.258 282.992 103.728 282.88 104.08 282.656C104.442 282.432 104.704 282.085 104.864 281.616C105.024 281.147 105.104 280.549 105.104 279.824V279.728C105.104 278.661 104.922 277.845 104.56 277.28C104.208 276.715 103.573 276.432 102.656 276.432C101.877 276.432 101.296 276.72 100.912 277.296C100.538 277.861 100.352 278.683 100.352 279.76C100.352 280.827 100.549 281.632 100.944 282.176C101.338 282.72 101.914 282.992 102.672 282.992Z" fill="#848E99"/>
<path d="M119.645 293.908V260.42V235.304V201.816V176.701V143.213" stroke="#848E99" stroke-width="0.418597" stroke-miterlimit="10"/>
<path d="M681.903 293.908V260.42V235.304V201.816V176.701V143.213" stroke="#848E99" stroke-width="0.418597" stroke-miterlimit="10"/>
<path d="M221.777 293.908V260.42V235.304V201.816V176.701V143.213" stroke="#848E99" stroke-width="0.418597" stroke-miterlimit="10"/>
<path d="M203.364 293.908V260.42V235.304V201.816V176.701V143.213" stroke="#848E99" stroke-width="0.418597" stroke-miterlimit="10"/>
<path d="M161.504 260.421C184.623 260.421 203.364 241.679 203.364 218.561C203.364 195.442 184.623 176.701 161.504 176.701C138.386 176.701 119.645 195.442 119.645 218.561C119.645 241.679 138.386 260.421 161.504 260.421Z" fill="#242B33"/>
<path fill-rule="evenodd" clip-rule="evenodd" d="M184.881 194.346L182.72 192.334C182.333 191.973 181.823 191.772 181.294 191.772H163.785C163.189 191.772 162.612 191.984 162.158 192.37L159.93 194.264C158.567 192.474 156.38 191.354 153.731 191.354C148.645 191.354 143.795 195.477 142.898 200.563C142.329 203.791 143.496 206.624 145.721 208.267L142.091 228.851C139.281 230.493 137.11 233.329 136.54 236.562C135.643 241.648 139.039 245.771 144.125 245.771C146.824 245.771 149.457 244.61 151.467 242.76L153.648 244.791C154.036 245.152 154.545 245.353 155.075 245.353H172.583C173.179 245.353 173.756 245.141 174.21 244.755L176.756 242.59C177.202 242.211 177.501 241.689 177.603 241.112L179.02 233.077C179.143 232.379 178.904 231.666 178.385 231.182L176.225 229.17C175.837 228.809 175.327 228.609 174.798 228.609H169.761L169.171 231.957H175.868L174.097 242.004H154.004L155.776 231.957H162.473L163.064 228.609H157.29C156.694 228.609 156.117 228.821 155.663 229.207L153.889 230.715C153.422 229.995 152.83 229.371 152.136 228.859L155.766 208.272C156.703 207.724 157.566 207.045 158.324 206.26L160.144 207.955C160.531 208.315 161.041 208.516 161.57 208.516H166.607L167.197 205.167H160.5L162.271 195.121H182.364L180.592 205.167H173.895L173.304 208.516H179.079C179.675 208.516 180.251 208.304 180.705 207.918L183.252 205.753C183.697 205.375 183.997 204.852 184.098 204.276L185.515 196.241C185.638 195.542 185.399 194.829 184.881 194.346ZM148.419 230.949C150.709 231.672 152.077 233.91 151.609 236.562C151.038 239.799 147.952 242.422 144.715 242.422C141.479 242.422 139.318 239.799 139.888 236.562C140.357 233.905 142.521 231.665 145.071 230.946L149.438 206.176C147.148 205.454 145.779 203.215 146.247 200.563C146.817 197.326 149.904 194.702 153.14 194.702C156.377 194.702 158.538 197.326 157.967 200.563C157.499 203.219 155.336 205.459 152.787 206.178L148.419 230.949Z" fill="#A3876E"/>
<path d="M158.36 224.419H159.197L159.507 222.661H160.972L161.105 221.908L159.64 221.908L159.802 220.987H161.895L162.028 220.233H159.098L158.36 224.419Z" fill="white"/>
<path d="M162.127 224.419H162.964L163.702 220.233H162.865L162.127 224.419Z" fill="white"/>
<path d="M164.413 220.987H165.669L165.057 224.419H165.894L166.499 220.987H167.755L167.888 220.233H164.539L164.413 220.987Z" fill="white"/>
<path d="M170.949 223.059L169.563 220.233H168.726L167.988 224.419H168.825L169.323 221.594L170.709 224.419H171.546L172.284 220.233H171.447L170.949 223.059Z" fill="white"/>
<path d="M172.801 224.419H175.731L175.864 223.666H173.771L173.948 222.661H175.413L175.546 221.907L174.081 221.908L174.243 220.987H176.336L176.469 220.233H173.539L172.801 224.419Z" fill="white"/>
<path d="M177.407 220.856L177.201 222.023C177.142 222.356 177.399 222.661 177.737 222.662L179.394 222.662L179.217 223.666H176.912L176.779 224.419H179.286C179.651 224.419 179.964 224.157 180.028 223.797L180.248 222.546C180.307 222.213 180.051 221.907 179.712 221.907L178.057 221.908L178.222 220.987H180.314L180.447 220.233H178.149C177.783 220.233 177.47 220.496 177.407 220.856Z" fill="white"/>
<path d="M165.13 216.886H165.967L166.262 215.212L168.17 212.7H167.23L166.003 214.375L165.343 212.7H164.403L165.427 215.211L165.13 216.886Z" fill="white"/>
<path d="M168.897 216.886L169.385 214.119L170.211 216.049H170.389L171.896 214.119L171.409 216.886H172.246L172.984 212.7H172.147L170.525 214.777L169.635 212.7H168.798L168.06 216.886H168.897Z" fill="white"/>
<path d="M184.499 220.987L184.631 220.233H182.334C181.968 220.233 181.655 220.496 181.591 220.856L181.386 222.023C181.327 222.356 181.583 222.661 181.921 222.662L183.579 222.662L183.402 223.666H181.097L180.964 224.419H183.47C183.836 224.419 184.149 224.157 184.212 223.797L184.433 222.546C184.492 222.213 184.235 221.907 183.897 221.907L182.242 221.908L182.406 220.987H184.499Z" fill="white"/>
<path d="M160.337 216.886L162.407 216.887C162.772 216.887 163.084 216.624 163.147 216.264L163.481 214.375H161.806L161.673 215.128H162.511L162.334 216.133H160.659L161.131 213.454H163.434L163.567 212.7H161.059C160.694 212.7 160.381 212.963 160.317 213.323L159.801 216.248C159.743 216.581 159.999 216.886 160.337 216.886Z" fill="white"/>
<path d="M175.198 216.886H176.156C176.335 216.886 176.508 216.823 176.644 216.707L177.096 216.323L177.479 216.886H178.526L177.752 215.765L178.526 215.107L178.095 214.584L177.365 215.204L176.359 213.747L176.41 213.454H177.247L177.159 213.956H177.996L178.105 213.339C178.164 213.006 177.907 212.7 177.569 212.7H176.338C175.972 212.7 175.659 212.963 175.596 213.323L175.523 213.738C175.498 213.878 175.529 214.022 175.609 214.139L175.791 214.407L175.051 215.036C174.918 215.15 174.828 215.306 174.797 215.479L174.662 216.247C174.603 216.581 174.859 216.886 175.198 216.886ZM175.645 215.421L176.175 214.97L176.712 215.759L176.272 216.133H175.519L175.645 215.421Z" fill="white"/>
<path d="M263.343 208.516H235.312C234.093 208.516 233.05 209.391 232.838 210.591L230.008 226.643C229.827 227.669 230.616 228.609 231.657 228.609H259.8L258.592 235.306H231.819C230.615 235.306 229.445 234.907 228.492 234.171L223.894 230.62C222.292 229.383 221.509 227.36 221.861 225.368L224.351 211.246C224.659 209.498 225.649 207.944 227.102 206.925L232.654 203.032C233.781 202.242 235.123 201.818 236.499 201.818H264.524L263.343 208.516Z" fill="#242B33"/>
<path d="M273.688 235.306H265.316L269.559 211.246C269.867 209.498 270.857 207.944 272.31 206.925L277.862 203.032C278.989 202.242 280.331 201.818 281.707 201.818H304.559C305.743 201.818 306.895 202.204 307.839 202.918L312.592 206.509C314.223 207.741 315.025 209.783 314.671 211.795L310.525 235.306H302.153L306.53 210.481C306.711 209.456 305.922 208.516 304.881 208.516H280.52C279.301 208.516 278.258 209.391 278.046 210.591L273.688 235.306Z" fill="#242B33"/>
<path d="M331.442 203.032L325.89 206.925C324.437 207.944 323.447 209.498 323.139 211.246L320.656 225.329C320.301 227.342 321.104 229.384 322.734 230.616L327.487 234.206C328.432 234.92 329.583 235.306 330.767 235.306H356.968C358.344 235.306 359.686 234.882 360.812 234.093L366.365 230.2C367.818 229.181 368.808 227.627 369.116 225.879L371.599 211.795C371.954 209.783 371.151 207.741 369.52 206.509L364.768 202.918C363.823 202.204 362.672 201.818 361.488 201.818H335.287C333.911 201.818 332.569 202.242 331.442 203.032ZM358.155 228.609H330.445C329.404 228.609 328.615 227.669 328.796 226.643L331.626 210.591C331.838 209.391 332.881 208.516 334.1 208.516H361.81C362.851 208.516 363.64 209.456 363.459 210.481L360.629 226.533C360.417 227.733 359.374 228.609 358.155 228.609Z" fill="#242B33"/>
<path d="M418.958 201.818H392.217C390.842 201.818 389.499 202.242 388.373 203.032L382.82 206.925C381.367 207.944 380.377 209.498 380.069 211.246L375.827 235.306H384.199L385.899 225.661C386.111 224.461 387.154 223.585 388.373 223.585H416.779C420.436 223.585 423.565 220.96 424.2 217.359L425.554 209.679C426.277 205.578 423.122 201.818 418.958 201.818ZM413.803 216.888H396.258C394.882 216.888 393.539 217.312 392.413 218.101L387.33 221.665C387.024 221.879 386.612 221.617 386.677 221.25L388.557 210.591C388.768 209.391 389.811 208.516 391.03 208.516H415.392C416.433 208.516 417.221 209.456 417.041 210.481L416.277 214.812C416.065 216.013 415.022 216.888 413.803 216.888Z" fill="#242B33"/>
<path d="M478.008 201.818H432.827L431.619 208.516H454.99C455.399 208.516 455.565 209.042 455.23 209.277L451.421 211.948C449.968 212.967 448.978 214.521 448.67 216.269L445.313 235.306H453.685L458.043 210.591C458.255 209.391 459.297 208.516 460.516 208.516H476.799L478.008 201.818Z" fill="#242B33"/>
<path d="M513.126 235.306L505.058 205.824C504.41 203.458 502.261 201.818 499.809 201.818H498.938H494.276C491.968 201.818 489.823 203.007 488.598 204.963L469.61 235.306H477.964L495.595 207.157C495.982 206.539 496.919 206.677 497.112 207.38L504.754 235.306H513.126Z" fill="#242B33"/>
<path d="M569.552 209.679C570.275 205.578 567.12 201.818 562.956 201.818H536.215C534.839 201.818 533.497 202.242 532.37 203.032L526.818 206.925C525.364 207.944 524.375 209.498 524.067 211.246L519.824 235.306H528.196L529.602 227.335C529.813 226.135 530.856 225.26 532.075 225.26H558.432L556.661 235.306H565.033L569.552 209.679ZM559.613 218.562H539.96C538.584 218.562 537.242 218.986 536.115 219.776L531.032 223.34C530.727 223.554 530.315 223.292 530.379 222.924L532.554 210.591C532.766 209.391 533.809 208.516 535.027 208.516H559.389C560.43 208.516 561.219 209.456 561.038 210.481L559.613 218.562Z" fill="#242B33"/>
<path d="M616.145 201.818H624.517L619.71 229.08C619.075 232.681 615.946 235.306 612.29 235.306H585.274C584.09 235.306 582.939 234.92 581.994 234.206L577.242 230.616C575.611 229.384 574.808 227.342 575.163 225.329L579.309 201.818H587.68L583.303 226.643C583.122 227.669 583.911 228.609 584.952 228.609H609.314C610.533 228.609 611.575 227.733 611.787 226.533L616.145 201.818Z" fill="#242B33"/>
<path d="M612.592 191.771H599.966C598.59 191.771 597.248 192.195 596.121 192.985L590.471 196.946C589.801 197.416 590.133 198.469 590.952 198.469H611.288C612.503 198.469 613.544 197.599 613.76 196.404L614.24 193.743C614.425 192.716 613.636 191.771 612.592 191.771Z" fill="#242B33"/>
<path d="M681.904 213.47C682.259 211.457 681.456 209.415 679.825 208.183L675.073 204.593C674.128 203.879 672.976 203.493 671.792 203.493H661.902L662.198 201.818H653.819L653.524 203.493H642.243C640.867 203.493 639.525 203.916 638.398 204.706L632.846 208.599C631.392 209.618 630.403 211.172 630.095 212.92L628.202 223.655C627.847 225.667 628.65 227.709 630.281 228.942L635.033 232.532C635.978 233.246 637.13 233.632 638.313 233.632H648.21L647.908 235.306H656.286L656.588 233.632H667.863C669.239 233.632 670.581 233.208 671.708 232.418L677.26 228.525C678.713 227.506 679.703 225.952 680.011 224.204L681.904 213.47ZM649.391 226.934H637.991C636.95 226.934 636.161 225.994 636.342 224.969L638.582 212.266C638.794 211.065 639.837 210.19 641.056 210.19H652.343L649.391 226.934ZM672.115 210.19C673.156 210.19 673.944 211.13 673.764 212.155L671.524 224.859C671.312 226.059 670.269 226.934 669.05 226.934H657.769L660.721 210.19H672.115Z" fill="#242B33"/>
</g>
<defs>
<clipPath id="clip0_4767_26782">
<rect width="832" height="416" rx="4" fill="white"/>
</clipPath>
</defs>
</svg>
