<svg width="343" height="145" viewBox="0 0 343 145" fill="none" xmlns="http://www.w3.org/2000/svg">
<g clip-path="url(#clip0_4823_21151)">
<g clip-path="url(#clip1_4823_21151)">
<rect width="343" height="145.115" transform="translate(0 0.115479)" fill="white"/>
<g clip-path="url(#clip2_4823_21151)">
<path d="M18.5717 70.3734L19.7888 63.5184C19.949 62.5894 20.7497 61.9167 21.6786 61.9167H43.1383L44.0351 56.7915H22.5113C21.4544 56.7915 20.3974 57.1118 19.5326 57.7525L15.4008 60.6995C14.3118 61.4683 13.5751 62.6535 13.3509 63.9668L12.6783 67.6506C12.2619 69.989 14.0556 72.1672 16.4578 72.1672H35.9637C36.7645 72.1672 37.373 72.8719 37.2129 73.6727L36.8605 75.6908C36.7004 76.6197 35.8997 77.2924 34.9708 77.2924H10.9487L10.0519 82.4176H37.2449C40.0315 82.4176 42.4337 80.3996 42.9141 77.6448L43.7149 73.0641C44.2914 69.9249 41.8571 67.042 38.6862 67.042H25.9065C24.8495 67.042 23.8245 67.3623 22.9597 67.9709L19.0842 70.6937C18.86 70.8538 18.5397 70.6616 18.5717 70.3734Z" fill="#242B33"/>
<path d="M51.0818 63.9989L47.8468 82.4176H54.2527L55.5659 75.0501C55.726 74.1212 56.5268 73.4485 57.4556 73.4485H79.2036C81.9902 73.4485 84.3924 71.4304 84.8729 68.6756L85.8978 62.8136C86.4423 59.6744 84.0401 56.7915 80.8372 56.7915H60.3703C59.3133 56.7915 58.2884 57.1118 57.4236 57.7205L53.1637 60.6995C52.0747 61.4683 51.338 62.6535 51.0818 63.9989ZM76.8975 68.3233H63.4772C62.4202 68.3233 61.3953 68.6436 60.5305 69.2522L56.6549 71.975C56.4307 72.1351 56.1104 71.943 56.1424 71.6547L57.5837 63.4863C57.7439 62.5574 58.5446 61.8847 59.4735 61.8847H78.1146C78.9154 61.8847 79.5239 62.5894 79.3638 63.3902L78.7873 66.7216C78.6271 67.6506 77.8264 68.3233 76.8975 68.3233Z" fill="#242B33"/>
<path d="M97.8121 57.7205L93.5522 60.6995C92.4312 61.4683 91.6945 62.6535 91.4383 63.9989L89.5485 74.7618C89.2923 76.2994 89.9009 77.869 91.15 78.7979L94.8014 81.5527C95.538 82.0973 96.4028 82.3856 97.2997 82.3856H117.35C118.407 82.3856 119.432 82.0653 120.297 81.4566L124.557 78.4776C125.678 77.7088 126.414 76.5236 126.671 75.1782L128.56 64.4153C128.817 62.8777 128.208 61.3081 126.959 60.3792L123.308 57.6244C122.571 57.0798 121.706 56.7915 120.809 56.7915H100.759C99.7019 56.7915 98.6769 57.1118 97.8121 57.7205ZM118.247 77.2924H97.0434C96.2427 77.2924 95.6341 76.5877 95.7943 75.7869L97.9723 63.5184C98.1324 62.5894 98.9332 61.9167 99.862 61.9167H121.066C121.866 61.9167 122.475 62.6214 122.315 63.4223L120.137 75.6908C119.977 76.6197 119.176 77.2924 118.247 77.2924Z" fill="#242B33"/>
<path d="M164.754 56.7915H144.287C143.23 56.7915 142.205 57.1118 141.34 57.7205L137.08 60.6995C135.959 61.4683 135.223 62.6535 134.967 63.9989L131.764 82.4176H138.169L139.483 75.0501C139.643 74.1212 140.444 73.4485 141.372 73.4485H155.081C155.497 73.4485 155.914 73.6727 156.138 73.993L161.871 82.4176H168.918L162.96 73.6727C162.896 73.5766 162.96 73.4485 163.088 73.4485C165.875 73.4485 168.277 71.4304 168.758 68.6756L169.783 62.8136C170.359 59.6744 167.957 56.7915 164.754 56.7915ZM160.814 68.3233H147.362C146.305 68.3233 145.312 68.6436 144.447 69.2202L140.572 71.9109C140.347 72.0711 140.027 71.8789 140.059 71.5906L141.501 63.4863C141.661 62.5574 142.461 61.8847 143.39 61.8847H162.031C162.832 61.8847 163.441 62.5894 163.281 63.3902L162.704 66.7216C162.544 67.6506 161.743 68.3233 160.814 68.3233Z" fill="#242B33"/>
<path d="M221.478 56.7915H215.072L211.485 77.1643C211.004 79.8871 213.118 82.4176 215.905 82.4176H240.023L240.92 77.2924H219.396C218.595 77.2924 217.987 76.5877 218.147 75.7869L221.478 56.7915Z" fill="#242B33"/>
<path d="M245.148 82.4176H251.554L256.07 56.7915H249.664L245.148 82.4176Z" fill="#242B33"/>
<path d="M294.89 61.9167L295.786 56.7915H270.515C269.458 56.7915 268.433 57.1118 267.569 57.7205L263.309 60.6995C262.188 61.4683 261.451 62.6535 261.195 63.9989L257.96 82.4176H264.366L265.679 75.0501C265.839 74.1212 266.64 73.4485 267.569 73.4485H290.309L291.206 68.3233H273.622C272.565 68.3233 271.54 68.6436 270.675 69.2522L266.8 71.975C266.576 72.1351 266.255 71.943 266.287 71.6547L267.729 63.4863C267.889 62.5574 268.69 61.8847 269.618 61.8847H294.89V61.9167Z" fill="#242B33"/>
<path d="M332.044 61.9167L332.941 56.7915H307.67C306.613 56.7915 305.588 57.1118 304.723 57.7205L300.463 60.6995C299.342 61.4683 298.605 62.6535 298.349 63.9989L296.171 76.3955C295.626 79.5347 298.029 82.4176 301.232 82.4176H328.425L329.321 77.2924H303.954C303.153 77.2924 302.545 76.5877 302.705 75.7869L303.057 73.7688C303.217 72.8399 304.018 72.1672 304.947 72.1672H327.688L328.585 67.042H311.001C309.944 67.042 308.919 67.3623 308.054 67.9709L304.178 70.6937C303.954 70.8538 303.634 70.6616 303.666 70.3734L304.883 63.4863C305.043 62.5574 305.844 61.8847 306.773 61.8847H332.044V61.9167Z" fill="#242B33"/>
<path d="M174.459 61.9167H192.332C192.652 61.9167 192.78 62.3332 192.524 62.4933L189.609 64.5434C188.488 65.3122 187.751 66.4974 187.495 67.8428L184.933 82.4176H191.339L194.67 63.5184C194.83 62.5894 195.631 61.9167 196.56 61.9167H209.051L209.98 56.7915H175.356L174.459 61.9167Z" fill="#242B33"/>
</g>
<path d="M0 56.76L343.022 56.76" stroke="#C0C6CC" stroke-width="0.164904"/>
<path d="M0 82.3527L343.022 82.3527" stroke="#C0C6CC" stroke-width="0.164904"/>
<path d="M0 77.2603L343.022 77.2603" stroke="#C0C6CC" stroke-width="0.164904"/>
<path d="M0 73.3748L343.022 73.3748" stroke="#C0C6CC" stroke-width="0.164904"/>
<path d="M0 68.2827L343.022 68.2828" stroke="#C0C6CC" stroke-width="0.164904"/>
<path d="M0 61.8514L343.022 61.8515" stroke="#C0C6CC" stroke-width="0.164904"/>
<path d="M109.301 209.527L161.758 -87.9734" stroke="#C0C6CC" stroke-width="0.164904"/>
<path d="M103.036 209.527L155.493 -87.9734" stroke="#C0C6CC" stroke-width="0.164904"/>
<path d="M65.7933 209.527L118.251 -87.9734" stroke="#C0C6CC" stroke-width="0.164904"/>
<path d="M60.0989 209.527L112.556 -87.9734" stroke="#C0C6CC" stroke-width="0.164904"/>
<path d="M25.4741 209.527L77.9314 -87.9734" stroke="#C0C6CC" stroke-width="0.164904"/>
<path d="M19.6655 209.527L72.1228 -87.9734" stroke="#C0C6CC" stroke-width="0.164904"/>
<path d="M144.03 209.527L196.487 -87.9734" stroke="#C0C6CC" stroke-width="0.164904"/>
<path d="M148.358 209.527L200.816 -87.9734" stroke="#C0C6CC" stroke-width="0.164904"/>
<path d="M183.21 209.527L235.667 -87.9734" stroke="#C0C6CC" stroke-width="0.164904"/>
<path d="M188.221 209.527L240.678 -87.9734" stroke="#C0C6CC" stroke-width="0.164904"/>
<path d="M217.833 209.527L270.29 -87.9731" stroke="#C0C6CC" stroke-width="0.164904"/>
<path d="M222.844 209.527L275.302 -87.9731" stroke="#C0C6CC" stroke-width="0.164904"/>
<path d="M229.222 209.527L281.68 -87.9731" stroke="#C0C6CC" stroke-width="0.164904"/>
<path d="M235.601 209.527L288.058 -87.9731" stroke="#C0C6CC" stroke-width="0.164904"/>
<path d="M269.836 204.857L322.293 -92.6428" stroke="#C0C6CC" stroke-width="0.164904"/>
<path d="M273.594 204.857L326.052 -92.6428" stroke="#C0C6CC" stroke-width="0.164904"/>
</g>
</g>
<defs>
<clipPath id="clip0_4823_21151">
<rect width="343" height="145.115" fill="white" transform="translate(0 0.115356)"/>
</clipPath>
<clipPath id="clip1_4823_21151">
<rect width="343" height="145.115" fill="white" transform="translate(0 0.115479)"/>
</clipPath>
<clipPath id="clip2_4823_21151">
<rect width="322.889" height="25.6261" fill="white" transform="translate(10.0498 56.791)"/>
</clipPath>
</defs>
</svg>
