<svg width="832" height="352" viewBox="0 0 832 352" fill="none" xmlns="http://www.w3.org/2000/svg">
<g clip-path="url(#clip0_4767_26663)">
<rect width="832" height="352" rx="4" fill="white"/>
<g clip-path="url(#clip1_4767_26663)">
<path d="M415.43 313.174C491.246 313.174 552.706 251.713 552.706 175.897C552.706 100.082 491.246 38.6211 415.43 38.6211C339.615 38.6211 278.154 100.082 278.154 175.897C278.154 251.713 339.615 313.174 415.43 313.174Z" fill="#242B33"/>
<path fill-rule="evenodd" clip-rule="evenodd" d="M492.093 96.481L485.008 89.8819C483.737 88.6986 482.066 88.0407 480.329 88.0407H422.912C420.957 88.0407 419.066 88.7358 417.577 90.0018L410.271 96.2126C405.8 90.3412 398.627 86.668 389.94 86.668C373.26 86.668 357.355 100.189 354.414 116.869C352.547 127.457 356.375 136.745 363.671 142.135L351.768 209.638C342.552 215.024 335.431 224.324 333.562 234.926C330.621 251.606 341.758 265.127 358.437 265.127C367.289 265.127 375.922 261.319 382.516 255.251L389.669 261.913C390.939 263.097 392.611 263.754 394.347 263.754H451.765C453.719 263.754 455.61 263.059 457.099 261.793L465.45 254.695C466.911 253.452 467.893 251.739 468.226 249.849L472.873 223.499C473.277 221.208 472.493 218.869 470.791 217.284L463.706 210.685C462.436 209.502 460.764 208.844 459.028 208.844H442.511L440.574 219.826H462.538L456.729 252.772H390.836L396.646 219.826H418.61L420.546 208.844H401.61C399.656 208.844 397.765 209.539 396.275 210.805L390.457 215.751C388.928 213.39 386.984 211.344 384.71 209.664L396.615 142.152C399.686 140.355 402.518 138.127 405.004 135.553L410.97 141.11C412.24 142.293 413.912 142.951 415.648 142.951H432.165L434.102 131.969H412.138L417.947 99.0228H483.84L478.03 131.969H456.066L454.13 142.951H473.066C475.021 142.951 476.912 142.256 478.401 140.99L486.751 133.891C488.213 132.649 489.195 130.935 489.528 129.046L494.174 102.696C494.578 100.405 493.795 98.0661 492.093 96.481ZM372.519 216.519C380.028 218.889 384.515 226.229 382.981 234.926C381.11 245.541 370.988 254.145 360.374 254.145C349.76 254.145 342.672 245.541 344.544 234.926C346.08 226.215 353.177 218.867 361.539 216.509L375.863 135.277C368.351 132.909 363.862 125.568 365.396 116.869C367.267 106.255 377.389 97.6501 388.003 97.6501C398.617 97.6501 405.705 106.255 403.833 116.869C402.297 125.579 395.203 132.926 386.843 135.285L372.519 216.519Z" fill="#A3876E"/>
<path d="M405.123 195.117H407.868L408.885 189.352H413.689L414.125 186.882L409.32 186.881L409.853 183.861H416.717L417.152 181.39H407.543L405.123 195.117Z" fill="white"/>
<path d="M417.477 195.117H420.222L422.643 181.39H419.897L417.477 195.117Z" fill="white"/>
<path d="M424.974 183.861H429.093L427.086 195.117H429.832L431.817 183.861H435.935L436.37 181.39H425.388L424.974 183.861Z" fill="white"/>
<path d="M446.406 190.656L441.862 181.39H439.116L436.696 195.117H439.441L441.075 185.851L445.619 195.117H448.364L450.785 181.39H448.039L446.406 190.656Z" fill="white"/>
<path d="M452.483 195.117H462.092L462.528 192.646H455.664L456.245 189.352H461.05L461.486 186.88L456.681 186.881L457.213 183.861H464.077L464.513 181.39H454.904L452.483 195.117Z" fill="white"/>
<path d="M467.584 183.432L466.91 187.258C466.717 188.35 467.557 189.352 468.667 189.352L474.102 189.355L473.521 192.646H465.962L465.526 195.117H473.746C474.945 195.117 475.971 194.256 476.18 193.075L476.903 188.973C477.096 187.88 476.255 186.879 475.145 186.879L469.716 186.881L470.257 183.861H477.118L477.554 181.39H470.018C468.819 181.39 467.793 182.251 467.584 183.432Z" fill="white"/>
<path d="M427.326 170.408H430.072L431.04 164.917L437.297 156.681H434.215L430.189 162.172L428.025 156.681H424.942L428.301 164.915L427.326 170.408Z" fill="white"/>
<path d="M439.68 170.408L441.278 161.333L443.988 167.663H444.57L449.515 161.333L447.916 170.408H450.662L453.082 156.681H450.337L445.017 163.493L442.1 156.681H439.355L436.934 170.408H439.68Z" fill="white"/>
<path d="M490.843 183.861L491.279 181.39H483.743C482.544 181.39 481.518 182.251 481.31 183.432L480.635 187.258C480.442 188.35 481.282 189.352 482.392 189.352L487.827 189.355L487.246 192.646H479.687L479.251 195.117H487.471C488.671 195.117 489.697 194.256 489.905 193.075L490.628 188.973C490.821 187.88 489.98 186.879 488.87 186.879L483.442 186.881L483.982 183.861H490.843Z" fill="white"/>
<path d="M411.605 170.409L418.392 170.411C419.59 170.41 420.614 169.549 420.821 168.37L421.914 162.172H416.423L415.988 164.643H418.733L418.152 167.937H412.661L414.21 159.152H421.761L422.196 156.681H413.974C412.775 156.681 411.749 157.541 411.54 158.722L409.848 168.314C409.656 169.407 410.496 170.409 411.605 170.409Z" fill="white"/>
<path d="M460.339 170.408H463.481C464.068 170.408 464.635 170.2 465.082 169.82L466.564 168.56L467.822 170.408H471.254L468.715 166.731L471.254 164.573L469.839 162.858L467.446 164.892L464.146 160.113L464.316 159.152H467.061L466.771 160.799H469.516L469.873 158.775C470.066 157.682 469.225 156.681 468.116 156.681H464.079C462.88 156.681 461.854 157.542 461.646 158.723L461.406 160.084C461.325 160.543 461.426 161.014 461.688 161.399L462.286 162.277L459.859 164.341C459.421 164.713 459.126 165.227 459.026 165.794L458.582 168.314C458.389 169.406 459.23 170.408 460.339 170.408ZM461.805 165.604L463.544 164.125L465.305 166.712L463.863 167.937H461.394L461.805 165.604Z" fill="white"/>
</g>
<path d="M0 38L832 38.0001" stroke="#C0C6CC" stroke-width="0.4"/>
<path d="M0 313L832 313" stroke="#C0C6CC" stroke-width="0.4"/>
<path d="M351.956 497.004L472.388 -186" stroke="#C0C6CC" stroke-width="0.4"/>
<path d="M341.234 497.004L461.666 -186" stroke="#C0C6CC" stroke-width="0.4"/>
<path d="M287.42 497.004L407.852 -186" stroke="#C0C6CC" stroke-width="0.4"/>
<path d="M369.86 497.004L490.292 -186" stroke="#C0C6CC" stroke-width="0.4"/>
<path d="M436.705 497.004L557.137 -186" stroke="#C0C6CC" stroke-width="0.4"/>
<path d="M424.598 497.004L545.03 -186" stroke="#C0C6CC" stroke-width="0.4"/>
<path d="M0 263L832 263" stroke="#C0C6CC" stroke-width="0.4"/>
<path d="M0 195L832 195" stroke="#C0C6CC" stroke-width="0.4"/>
<path d="M0 181L832 181" stroke="#C0C6CC" stroke-width="0.4"/>
<path d="M0 170L832 170" stroke="#C0C6CC" stroke-width="0.4"/>
<path d="M0 156L832 156" stroke="#C0C6CC" stroke-width="0.4"/>
<path d="M0 143L832 143" stroke="#C0C6CC" stroke-width="0.4"/>
<path d="M0 209L832 209" stroke="#C0C6CC" stroke-width="0.4"/>
<path d="M0 88L832 88.0001" stroke="#C0C6CC" stroke-width="0.4"/>
</g>
<defs>
<clipPath id="clip0_4767_26663">
<rect width="832" height="352" rx="4" fill="white"/>
</clipPath>
<clipPath id="clip1_4767_26663">
<rect width="274.553" height="274.553" fill="white" transform="translate(278.153 38.6191)"/>
</clipPath>
</defs>
</svg>
