<svg width="832" height="352" viewBox="0 0 832 352" fill="none" xmlns="http://www.w3.org/2000/svg">
<g clip-path="url(#clip0_4767_26698)">
<g clip-path="url(#clip1_4767_26698)">
<rect width="832" height="352" rx="4" fill="white"/>
<g clip-path="url(#clip2_4767_26698)">
<path d="M112.397 155.767H66.484C64.4967 155.767 62.7836 157.207 62.4409 159.194L57.7811 185.443C57.507 187.088 58.809 188.665 60.4536 188.665H106.504L104.516 199.63H60.7963C58.809 199.63 56.8903 198.945 55.3827 197.78L47.8448 191.954C45.2407 189.898 43.9387 186.608 44.487 183.387L48.53 160.291C49.0097 157.412 50.6543 154.876 53.0528 153.232L62.1668 146.789C64.017 145.487 66.2099 144.802 68.4713 144.802H114.316L112.397 155.767Z" fill="#242B33"/>
<path d="M129.323 199.63H115.618L122.539 160.222C123.019 157.344 124.664 154.808 127.062 153.163L136.176 146.789C138.026 145.487 140.219 144.802 142.481 144.802H179.896C181.815 144.802 183.734 145.419 185.241 146.584L193.053 152.478C195.726 154.465 197.028 157.824 196.48 161.113L189.627 199.63H175.922L183.117 158.989C183.391 157.344 182.089 155.767 180.444 155.767H140.562C138.575 155.767 136.861 157.207 136.519 159.194L129.323 199.63Z" fill="#242B33"/>
<path d="M223.89 146.789L214.776 153.163C212.378 154.808 210.802 157.344 210.253 160.222L206.21 183.25C205.662 186.54 206.964 189.898 209.637 191.886L217.449 197.78C219.025 198.945 220.875 199.562 222.794 199.562H265.691C267.953 199.562 270.146 198.876 271.996 197.574L281.11 191.2C283.508 189.555 285.084 187.02 285.633 184.141L289.676 161.113C290.224 157.824 288.922 154.465 286.249 152.478L278.437 146.584C276.861 145.419 275.011 144.802 273.092 144.802H230.195C227.933 144.802 225.74 145.487 223.89 146.789ZM267.61 188.665H222.246C220.532 188.665 219.23 187.157 219.573 185.443L224.233 159.194C224.575 157.207 226.289 155.767 228.276 155.767H273.641C275.354 155.767 276.656 157.275 276.313 158.989L271.653 185.238C271.311 187.225 269.597 188.665 267.61 188.665Z" fill="#242B33"/>
<path d="M367.109 144.802H323.32C321.059 144.802 318.866 145.487 317.016 146.789L307.902 153.163C305.503 154.808 303.927 157.344 303.379 160.222L296.526 199.63H310.232L313.041 183.867C313.384 181.88 315.097 180.44 317.084 180.44H363.614C369.576 180.44 374.715 176.123 375.743 170.228L377.936 157.686C379.101 150.97 373.961 144.802 367.109 144.802ZM358.68 169.475H329.967C327.706 169.475 325.513 170.16 323.663 171.462L315.371 177.288C314.891 177.63 314.206 177.219 314.275 176.602L317.358 159.126C317.701 157.138 319.414 155.699 321.402 155.699H361.284C362.997 155.699 364.299 157.207 363.957 158.92L362.723 166.048C362.38 168.035 360.667 169.475 358.68 169.475Z" fill="#242B33"/>
<path d="M463.801 144.802H389.86L387.873 155.767H426.111C426.796 155.767 427.07 156.658 426.522 157.001L420.286 161.387C417.888 163.032 416.312 165.568 415.763 168.447L410.281 199.63H423.987L431.113 159.194C431.456 157.207 433.169 155.767 435.156 155.767H461.813L463.801 144.802Z" fill="#242B33"/>
<path d="M521.296 199.63L508.071 151.381C507.043 147.475 503.479 144.802 499.505 144.802H498.066H490.459C486.69 144.802 483.196 146.721 481.14 149.942L450.097 199.63H463.802L492.652 153.574C493.269 152.546 494.845 152.82 495.119 153.917L507.591 199.63H521.296Z" fill="#242B33"/>
<path d="M613.669 157.686C614.834 150.97 609.695 144.802 602.842 144.802H559.054C556.792 144.802 554.599 145.487 552.749 146.789L543.635 153.163C541.237 154.808 539.661 157.344 539.112 160.222L532.26 199.63H545.965L548.295 186.608C548.638 184.621 550.351 183.182 552.338 183.182H595.51L592.632 199.63H606.337L613.669 157.686ZM597.429 172.216H565.221C562.96 172.216 560.767 172.901 558.917 174.204L550.625 180.029C550.145 180.372 549.46 179.961 549.528 179.344L553.092 159.126C553.434 157.138 555.148 155.699 557.135 155.699H597.017C598.731 155.699 600.033 157.207 599.69 158.92L597.429 172.216Z" fill="#242B33"/>
<path d="M689.939 144.802H703.645L695.764 189.418C694.736 195.312 689.597 199.63 683.635 199.63H639.435C637.517 199.63 635.598 199.013 634.09 197.848L626.278 191.954C623.606 189.967 622.304 186.608 622.852 183.319L629.636 144.802H643.341L636.146 185.443C635.872 187.088 637.174 188.665 638.819 188.665H678.701C680.688 188.665 682.402 187.225 682.744 185.238L689.939 144.802Z" fill="#242B33"/>
<path d="M684.113 128.354H663.418C661.157 128.354 658.964 129.039 657.114 130.341L647.863 136.852C646.766 137.606 647.314 139.319 648.616 139.319H681.92C683.908 139.319 685.621 137.88 685.963 135.961L686.717 131.575C687.128 129.93 685.826 128.354 684.113 128.354Z" fill="#242B33"/>
<path d="M797.593 163.855C798.141 160.565 796.839 157.207 794.166 155.219L786.355 149.325C784.778 148.16 782.928 147.543 781.009 147.543H764.837L765.317 144.802H751.611L751.132 147.543H732.63C730.368 147.543 728.175 148.229 726.325 149.531L717.28 155.905C714.881 157.549 713.305 160.085 712.757 162.964L709.673 180.509C709.125 183.798 710.427 187.157 713.1 189.144L720.912 195.038C722.488 196.203 724.338 196.82 726.257 196.82H742.429L741.949 199.562H755.655L756.134 196.82H774.568C776.829 196.82 779.022 196.135 780.872 194.833L789.986 188.459C792.385 186.814 793.961 184.278 794.509 181.4L797.593 163.855ZM744.348 185.923H725.708C723.995 185.923 722.693 184.415 723.036 182.702L726.736 161.936C727.079 159.948 728.792 158.509 730.779 158.509H749.282L744.348 185.923ZM781.558 158.509C783.271 158.509 784.573 160.017 784.23 161.73L780.53 182.496C780.187 184.484 778.474 185.923 776.487 185.923H757.984L762.85 158.509H781.558Z" fill="#242B33"/>
</g>
<path d="M0 139.344L832.053 139.344" stroke="#C0C6CC" stroke-width="0.4"/>
<path d="M0 128.293L832.053 128.293" stroke="#C0C6CC" stroke-width="0.4"/>
<path d="M0 199.473L832.053 199.473" stroke="#C0C6CC" stroke-width="0.4"/>
<path d="M0 188.422L832.053 188.422" stroke="#C0C6CC" stroke-width="0.4"/>
<path d="M0 183.223L832.053 183.223" stroke="#C0C6CC" stroke-width="0.4"/>
<path d="M0 180.621L832.053 180.621" stroke="#C0C6CC" stroke-width="0.4"/>
<path d="M0 169.571L832.053 169.571" stroke="#C0C6CC" stroke-width="0.4"/>
<path d="M0 172.171L832.053 172.171" stroke="#C0C6CC" stroke-width="0.4"/>
<path d="M0 155.919L832.053 155.919" stroke="#C0C6CC" stroke-width="0.4"/>
<path d="M0 144.652L832.703 144.652" stroke="#C0C6CC" stroke-width="0.4"/>
<path d="M242 507.961L369.243 -213.672" stroke="#C0C6CC" stroke-width="0.4"/>
<path d="M228.462 507.961L355.705 -213.672" stroke="#C0C6CC" stroke-width="0.4"/>
<path d="M148.621 507.961L275.864 -213.672" stroke="#C0C6CC" stroke-width="0.4"/>
<path d="M135.359 507.961L262.603 -213.672" stroke="#C0C6CC" stroke-width="0.4"/>
<path d="M61.0439 507.961L188.287 -213.672" stroke="#C0C6CC" stroke-width="0.4"/>
<path d="M50.2705 507.961L177.514 -213.672" stroke="#C0C6CC" stroke-width="0.4"/>
<path d="M316.02 507.961L443.263 -213.672" stroke="#C0C6CC" stroke-width="0.4"/>
<path d="M325.413 507.961L452.656 -213.672" stroke="#C0C6CC" stroke-width="0.4"/>
<path d="M399.729 507.961L526.973 -213.672" stroke="#C0C6CC" stroke-width="0.4"/>
<path d="M466.862 507.961L594.106 -213.672" stroke="#C0C6CC" stroke-width="0.4"/>
<path d="M477.638 507.961L604.881 -213.672" stroke="#C0C6CC" stroke-width="0.4"/>
<path d="M552.229 507.961L679.472 -213.672" stroke="#C0C6CC" stroke-width="0.4"/>
<path d="M565.766 507.961L693.009 -213.672" stroke="#C0C6CC" stroke-width="0.4"/>
<path d="M641.902 496.633L769.146 -225" stroke="#C0C6CC" stroke-width="0.4"/>
<path d="M653.781 496.633L781.025 -225" stroke="#C0C6CC" stroke-width="0.4"/>
</g>
</g>
<defs>
<clipPath id="clip0_4767_26698">
<rect width="832" height="352" fill="white"/>
</clipPath>
<clipPath id="clip1_4767_26698">
<rect width="832" height="352" rx="4" fill="white"/>
</clipPath>
<clipPath id="clip2_4767_26698">
<rect width="753.381" height="71.277" fill="white" transform="translate(44.3506 128.352)"/>
</clipPath>
</defs>
</svg>
