<svg width="832" height="416" viewBox="0 0 832 416" fill="none" xmlns="http://www.w3.org/2000/svg">
<rect width="832" height="416" rx="4" fill="white"/>
<rect width="832" height="416" rx="4" fill="white"/>
<rect x="140.8" y="177" width="522.2" height="83.8" fill="#F2F4F5"/>
<path d="M696.587 235.577H661.082H213.671H195.919H107.156" stroke="#848E99" stroke-width="0.418597" stroke-miterlimit="10"/>
<path d="M696.587 202.089H661.082H213.671H195.919H107.156" stroke="#848E99" stroke-width="0.418597" stroke-miterlimit="10"/>
<path d="M252.254 219.849L253.838 210.865C254.049 209.664 255.092 208.789 256.311 208.789H284.343L285.524 202.092H257.378C255.977 202.092 254.612 202.531 253.474 203.347L248.093 207.207C246.678 208.222 245.714 209.747 245.405 211.46L244.537 216.269C243.981 219.351 246.349 222.184 249.481 222.184H274.962C276.003 222.184 276.792 223.124 276.611 224.15L276.143 226.807C275.931 228.007 274.888 228.882 273.669 228.882H242.289L241.108 235.58H276.645C280.302 235.58 283.431 232.954 284.065 229.353L285.124 223.347C285.848 219.247 282.693 215.487 278.529 215.487H261.834C260.458 215.487 259.116 215.911 257.989 216.7L252.906 220.264C252.601 220.478 252.189 220.216 252.254 219.849Z" fill="#242B33"/>
<path d="M294.745 211.519L290.502 235.58H298.874L300.575 225.934C300.786 224.734 301.829 223.859 303.048 223.859H331.455C335.111 223.859 338.24 221.234 338.875 217.633L340.229 209.952C340.952 205.851 337.798 202.092 333.634 202.092H306.893C305.517 202.092 304.174 202.516 303.048 203.305L297.496 207.198C296.042 208.217 295.053 209.771 294.745 211.519ZM328.479 217.161H310.933C309.557 217.161 308.215 217.585 307.088 218.375L302.005 221.939C301.7 222.153 301.288 221.891 301.352 221.523L303.232 210.865C303.444 209.664 304.486 208.789 305.705 208.789H330.067C331.108 208.789 331.897 209.729 331.716 210.754L330.952 215.086C330.741 216.286 329.698 217.161 328.479 217.161Z" fill="#242B33"/>
<path d="M355.791 203.305L350.239 207.198C348.785 208.217 347.796 209.771 347.488 211.519L345.004 225.602C344.649 227.615 345.452 229.657 347.083 230.889L351.836 234.48C352.78 235.193 353.932 235.58 355.116 235.58H381.316C382.692 235.58 384.035 235.156 385.161 234.366L390.714 230.473C392.167 229.454 393.156 227.9 393.465 226.152L395.948 212.069C396.303 210.056 395.5 208.014 393.869 206.782L389.117 203.192C388.172 202.478 387.02 202.092 385.836 202.092H359.636C358.26 202.092 356.917 202.516 355.791 203.305ZM382.504 228.882H354.793C353.752 228.882 352.964 227.942 353.144 226.917L355.975 210.865C356.187 209.664 357.229 208.789 358.448 208.789H386.159C387.2 208.789 387.988 209.729 387.808 210.754L384.977 226.807C384.766 228.007 383.723 228.882 382.504 228.882Z" fill="#242B33"/>
<path d="M443.306 202.092H416.566C415.19 202.092 413.847 202.516 412.721 203.305L407.168 207.198C405.715 208.217 404.726 209.771 404.417 211.519L400.175 235.58H408.547L410.247 225.934C410.459 224.734 411.502 223.859 412.721 223.859H430.658C431.212 223.859 431.73 224.133 432.042 224.591L439.523 235.58H448.732L440.964 224.169C440.874 224.037 440.968 223.859 441.128 223.859C444.784 223.859 447.913 221.234 448.548 217.633L449.902 209.952C450.625 205.851 447.471 202.092 443.306 202.092ZM438.152 217.161H420.583C419.221 217.161 417.892 217.576 416.772 218.351L411.688 221.868C411.383 222.08 410.973 221.817 411.038 221.451L412.905 210.865C413.116 209.664 414.159 208.789 415.378 208.789H439.74C440.781 208.789 441.57 209.729 441.389 210.754L440.625 215.086C440.413 216.286 439.37 217.161 438.152 217.161Z" fill="#242B33"/>
<path d="M517.426 202.092H509.054L504.362 228.702C503.729 232.29 506.49 235.58 510.133 235.58H541.66L542.841 228.882H514.698C513.657 228.882 512.868 227.942 513.049 226.917L517.426 202.092Z" fill="#242B33"/>
<path d="M548.358 235.58H556.73L562.635 202.092H554.263L548.358 235.58Z" fill="#242B33"/>
<path d="M613.359 208.789L614.54 202.092H581.492C580.116 202.092 578.774 202.516 577.647 203.305L572.095 207.198C570.641 208.217 569.652 209.771 569.344 211.519L565.101 235.58H573.473L575.174 225.934C575.385 224.734 576.428 223.859 577.647 223.859H607.353L608.534 217.161H585.532C584.156 217.161 582.814 217.585 581.687 218.375L576.604 221.939C576.299 222.153 575.887 221.891 575.952 221.523L577.831 210.865C578.043 209.664 579.086 208.789 580.304 208.789H613.359V208.789Z" fill="#242B33"/>
<path d="M661.917 208.789L663.098 202.092H630.05C628.674 202.092 627.332 202.516 626.205 203.305L620.653 207.198C619.2 208.217 618.21 209.771 617.902 211.519L615.045 227.719C614.322 231.82 617.477 235.58 621.641 235.58H657.193L658.374 228.882H625.208C624.167 228.882 623.378 227.942 623.559 226.917L624.027 224.26C624.239 223.06 625.282 222.184 626.501 222.184H656.207L657.388 215.487H634.386C633.01 215.487 631.667 215.911 630.541 216.7L625.458 220.264C625.152 220.478 624.74 220.216 624.805 219.849L626.389 210.865C626.601 209.664 627.644 208.789 628.863 208.789H661.917V208.789Z" fill="#242B33"/>
<path d="M455.967 208.789H479.338C479.747 208.789 479.913 209.316 479.578 209.551L475.769 212.221C474.316 213.24 473.326 214.794 473.018 216.542L469.661 235.58H478.033L482.391 210.865C482.603 209.664 483.646 208.789 484.864 208.789H501.175L502.384 202.092H457.148L455.967 208.789Z" fill="#242B33"/>
<path d="M182.504 260.694C205.623 260.694 224.364 241.953 224.364 218.834C224.364 195.716 205.623 176.975 182.504 176.975C159.386 176.975 140.645 195.716 140.645 218.834C140.645 241.953 159.386 260.694 182.504 260.694Z" fill="#242B33"/>
<path fill-rule="evenodd" clip-rule="evenodd" d="M205.882 194.619L203.721 192.607C203.334 192.246 202.824 192.046 202.294 192.046H184.786C184.19 192.046 183.613 192.258 183.159 192.644L180.931 194.537C179.568 192.747 177.381 191.627 174.732 191.627C169.646 191.627 164.796 195.75 163.899 200.836C163.33 204.065 164.497 206.897 166.722 208.54L163.092 229.124C160.282 230.767 158.111 233.602 157.541 236.835C156.644 241.921 160.04 246.045 165.126 246.045C167.825 246.045 170.458 244.883 172.468 243.033L174.649 245.065C175.037 245.425 175.546 245.626 176.076 245.626H193.584C194.18 245.626 194.757 245.414 195.211 245.028L197.757 242.863C198.203 242.484 198.502 241.962 198.604 241.386L200.021 233.351C200.144 232.652 199.905 231.939 199.386 231.456L197.226 229.443C196.838 229.083 196.328 228.882 195.799 228.882H190.762L190.172 232.231H196.869L195.098 242.277H175.005L176.777 232.231H183.474L184.065 228.882H178.291C177.695 228.882 177.118 229.094 176.664 229.48L174.89 230.988C174.423 230.268 173.831 229.644 173.137 229.132L176.767 208.546C177.704 207.998 178.567 207.318 179.325 206.534L181.145 208.228C181.532 208.589 182.042 208.789 182.571 208.789H187.608L188.198 205.441H181.501L183.272 195.394H203.365L201.593 205.441H194.896L194.305 208.789H200.08C200.676 208.789 201.252 208.577 201.706 208.191L204.253 206.027C204.698 205.648 204.998 205.125 205.099 204.549L206.516 196.514C206.639 195.816 206.4 195.103 205.882 194.619ZM169.42 231.223C171.71 231.945 173.078 234.183 172.61 236.835C172.039 240.072 168.953 242.696 165.716 242.696C162.48 242.696 160.319 240.072 160.889 236.835C161.358 234.179 163.522 231.938 166.072 231.219L170.439 206.449C168.149 205.727 166.78 203.489 167.248 200.836C167.818 197.599 170.905 194.976 174.141 194.976C177.378 194.976 179.539 197.599 178.968 200.836C178.5 203.492 176.337 205.732 173.788 206.452L169.42 231.223Z" fill="#A3876E"/>
<path d="M179.361 224.693H180.199L180.509 222.935H181.974L182.106 222.181L180.641 222.181L180.804 221.26H182.897L183.03 220.507H180.099L179.361 224.693Z" fill="white"/>
<path d="M183.128 224.693H183.966L184.704 220.507H183.867L183.128 224.693Z" fill="white"/>
<path d="M185.414 221.26H186.67L186.058 224.693H186.895L187.501 221.26H188.756L188.889 220.507H185.541L185.414 221.26Z" fill="white"/>
<path d="M191.95 223.332L190.565 220.507H189.727L188.989 224.693H189.826L190.325 221.867L191.71 224.693H192.547L193.285 220.507H192.448L191.95 223.332Z" fill="white"/>
<path d="M193.802 224.693H196.732L196.865 223.939H194.772L194.949 222.935H196.415L196.547 222.181L195.082 222.181L195.245 221.26H197.338L197.471 220.507H194.54L193.802 224.693Z" fill="white"/>
<path d="M198.409 221.129L198.203 222.296C198.144 222.629 198.401 222.935 198.739 222.935L200.396 222.936L200.219 223.939H197.914L197.781 224.693H200.288C200.653 224.693 200.966 224.43 201.03 224.07L201.25 222.819C201.309 222.486 201.053 222.181 200.714 222.181L199.059 222.181L199.224 221.26H201.316L201.449 220.507H199.151C198.785 220.507 198.472 220.769 198.409 221.129Z" fill="white"/>
<path d="M186.131 217.16H186.968L187.264 215.485L189.172 212.974H188.232L187.004 214.648L186.344 212.974H185.404L186.428 215.485L186.131 217.16Z" fill="white"/>
<path d="M189.899 217.16L190.387 214.392L191.213 216.322H191.391L192.898 214.392L192.411 217.16H193.248L193.986 212.974H193.149L191.527 215.051L190.637 212.974H189.8L189.062 217.16H189.899Z" fill="white"/>
<path d="M205.5 221.26L205.633 220.507H203.335C202.969 220.507 202.656 220.769 202.593 221.129L202.387 222.296C202.328 222.629 202.585 222.935 202.923 222.935L204.58 222.936L204.403 223.939H202.098L201.965 224.693H204.472C204.837 224.693 205.15 224.43 205.214 224.07L205.434 222.819C205.493 222.486 205.237 222.181 204.898 222.181L203.243 222.181L203.408 221.26H205.5Z" fill="white"/>
<path d="M181.339 217.16L183.408 217.161C183.773 217.16 184.085 216.898 184.149 216.538L184.482 214.648H182.808L182.675 215.401H183.512L183.335 216.406H181.661L182.133 213.727H184.435L184.568 212.974H182.061C181.695 212.974 181.382 213.236 181.319 213.596L180.803 216.521C180.744 216.854 181 217.16 181.339 217.16Z" fill="white"/>
<path d="M196.199 217.16H197.157C197.336 217.16 197.509 217.096 197.645 216.98L198.097 216.596L198.481 217.16H199.527L198.753 216.038L199.527 215.38L199.096 214.857L198.366 215.478L197.36 214.02L197.412 213.727H198.249L198.16 214.229H198.997L199.106 213.612C199.165 213.279 198.909 212.974 198.57 212.974H197.34C196.974 212.974 196.661 213.236 196.598 213.596L196.524 214.012C196.5 214.151 196.531 214.295 196.61 214.412L196.793 214.68L196.053 215.309C195.919 215.423 195.829 215.58 195.799 215.753L195.663 216.521C195.604 216.854 195.861 217.16 196.199 217.16ZM196.646 215.695L197.176 215.244L197.713 216.032L197.274 216.406H196.521L196.646 215.695Z" fill="white"/>
<path d="M107.156 176.974H140.644H224.363H241.107H663.099H696.587" stroke="#848E99" stroke-width="0.418597" stroke-miterlimit="10"/>
<path d="M107.156 260.693H140.644H224.363H241.107H663.099H696.587" stroke="#848E99" stroke-width="0.418597" stroke-miterlimit="10"/>
<path d="M663.099 143.486V176.974V202.09V235.578V260.693V294.181" stroke="#848E99" stroke-width="0.418597" stroke-miterlimit="10"/>
<path d="M140.644 294.181V260.693V235.578V202.09V176.974V143.486" stroke="#848E99" stroke-width="0.418597" stroke-miterlimit="10"/>
<path d="M224.364 294.181V260.693V235.578V202.09V176.974V143.486" stroke="#848E99" stroke-width="0.418597" stroke-miterlimit="10"/>
<path d="M241.108 294.181V260.693V235.578V202.09V176.974V143.486" stroke="#848E99" stroke-width="0.418597" stroke-miterlimit="10"/>
<path d="M123.384 166.16C122.701 166.16 122.098 165.995 121.576 165.664C121.053 165.333 120.642 164.843 120.344 164.192C120.045 163.531 119.896 162.715 119.896 161.744C119.896 160.293 120.21 159.184 120.84 158.416C121.48 157.648 122.349 157.264 123.448 157.264C123.853 157.264 124.221 157.323 124.552 157.44C124.882 157.547 125.176 157.701 125.432 157.904C125.698 158.096 125.922 158.325 126.104 158.592H126.168L126.376 157.424H127.496V164.112C127.496 164.443 127.56 164.677 127.688 164.816C127.816 164.944 127.97 165.008 128.152 165.008C128.237 165.008 128.328 164.997 128.424 164.976C128.52 164.955 128.589 164.939 128.632 164.928V165.952C128.578 165.984 128.504 166.016 128.408 166.048C128.312 166.08 128.205 166.107 128.088 166.128C127.97 166.149 127.853 166.16 127.736 166.16C127.341 166.16 127.01 166.064 126.744 165.872C126.488 165.68 126.301 165.339 126.184 164.848H126.072C125.901 165.104 125.688 165.333 125.432 165.536C125.176 165.728 124.877 165.883 124.536 166C124.194 166.107 123.81 166.16 123.384 166.16ZM123.672 164.992C124.258 164.992 124.728 164.88 125.08 164.656C125.442 164.432 125.704 164.085 125.864 163.616C126.024 163.147 126.104 162.549 126.104 161.824V161.728C126.104 160.661 125.922 159.845 125.56 159.28C125.208 158.715 124.573 158.432 123.656 158.432C122.877 158.432 122.296 158.72 121.912 159.296C121.538 159.861 121.352 160.683 121.352 161.76C121.352 162.827 121.549 163.632 121.944 164.176C122.338 164.72 122.914 164.992 123.672 164.992Z" fill="#848E99"/>
<path d="M679.384 224.16C678.701 224.16 678.098 223.995 677.576 223.664C677.053 223.333 676.642 222.843 676.344 222.192C676.045 221.531 675.896 220.715 675.896 219.744C675.896 218.293 676.21 217.184 676.84 216.416C677.48 215.648 678.349 215.264 679.448 215.264C679.853 215.264 680.221 215.323 680.552 215.44C680.882 215.547 681.176 215.701 681.432 215.904C681.698 216.096 681.922 216.325 682.104 216.592H682.168L682.376 215.424H683.496V222.112C683.496 222.443 683.56 222.677 683.688 222.816C683.816 222.944 683.97 223.008 684.152 223.008C684.237 223.008 684.328 222.997 684.424 222.976C684.52 222.955 684.589 222.939 684.632 222.928V223.952C684.578 223.984 684.504 224.016 684.408 224.048C684.312 224.08 684.205 224.107 684.088 224.128C683.97 224.149 683.853 224.16 683.736 224.16C683.341 224.16 683.01 224.064 682.744 223.872C682.488 223.68 682.301 223.339 682.184 222.848H682.072C681.901 223.104 681.688 223.333 681.432 223.536C681.176 223.728 680.877 223.883 680.536 224C680.194 224.107 679.81 224.16 679.384 224.16ZM679.672 222.992C680.258 222.992 680.728 222.88 681.08 222.656C681.442 222.432 681.704 222.085 681.864 221.616C682.024 221.147 682.104 220.549 682.104 219.824V219.728C682.104 218.661 681.922 217.845 681.56 217.28C681.208 216.715 680.573 216.432 679.656 216.432C678.877 216.432 678.296 216.72 677.912 217.296C677.538 217.861 677.352 218.683 677.352 219.76C677.352 220.827 677.549 221.632 677.944 222.176C678.338 222.72 678.914 222.992 679.672 222.992Z" fill="#848E99"/>
<path d="M123.384 284.16C122.701 284.16 122.098 283.995 121.576 283.664C121.053 283.333 120.642 282.843 120.344 282.192C120.045 281.531 119.896 280.715 119.896 279.744C119.896 278.293 120.21 277.184 120.84 276.416C121.48 275.648 122.349 275.264 123.448 275.264C123.853 275.264 124.221 275.323 124.552 275.44C124.882 275.547 125.176 275.701 125.432 275.904C125.698 276.096 125.922 276.325 126.104 276.592H126.168L126.376 275.424H127.496V282.112C127.496 282.443 127.56 282.677 127.688 282.816C127.816 282.944 127.97 283.008 128.152 283.008C128.237 283.008 128.328 282.997 128.424 282.976C128.52 282.955 128.589 282.939 128.632 282.928V283.952C128.578 283.984 128.504 284.016 128.408 284.048C128.312 284.08 128.205 284.107 128.088 284.128C127.97 284.149 127.853 284.16 127.736 284.16C127.341 284.16 127.01 284.064 126.744 283.872C126.488 283.68 126.301 283.339 126.184 282.848H126.072C125.901 283.104 125.688 283.333 125.432 283.536C125.176 283.728 124.877 283.883 124.536 284C124.194 284.107 123.81 284.16 123.384 284.16ZM123.672 282.992C124.258 282.992 124.728 282.88 125.08 282.656C125.442 282.432 125.704 282.085 125.864 281.616C126.024 281.147 126.104 280.549 126.104 279.824V279.728C126.104 278.661 125.922 277.845 125.56 277.28C125.208 276.715 124.573 276.432 123.656 276.432C122.877 276.432 122.296 276.72 121.912 277.296C121.538 277.861 121.352 278.683 121.352 279.76C121.352 280.827 121.549 281.632 121.944 282.176C122.338 282.72 122.914 282.992 123.672 282.992Z" fill="#848E99"/>
</svg>
