<svg width="343" height="146" viewBox="0 0 343 146" fill="none" xmlns="http://www.w3.org/2000/svg">
<g clip-path="url(#clip0_4932_30222)">
<rect width="343" height="145.115" rx="1.64904" fill="white"/>
<g clip-path="url(#clip1_4932_30222)">
<path d="M171.266 129.109C202.521 129.109 227.859 103.771 227.859 72.5153C227.859 41.2596 202.521 15.9218 171.266 15.9218C140.01 15.9218 114.672 41.2596 114.672 72.5153C114.672 103.771 140.01 129.109 171.266 129.109Z" fill="#242B33"/>
<path fill-rule="evenodd" clip-rule="evenodd" d="M202.87 39.7749L199.949 37.0543C199.426 36.5665 198.736 36.2953 198.021 36.2953H174.35C173.544 36.2953 172.764 36.5819 172.15 37.1038L169.138 39.6642C167.295 37.2437 164.338 35.7294 160.757 35.7294C153.88 35.7294 147.323 41.3037 146.111 48.1799C145.341 52.5449 146.919 56.3742 149.927 58.596L145.02 86.425C141.221 88.6454 138.285 92.4793 137.514 96.8503C136.302 103.727 140.893 109.301 147.77 109.301C151.419 109.301 154.978 107.731 157.696 105.23L160.645 107.976C161.169 108.464 161.858 108.735 162.574 108.735H186.245C187.05 108.735 187.83 108.448 188.444 107.926L191.886 105C192.489 104.488 192.894 103.781 193.031 103.002L194.947 92.1392C195.113 91.195 194.79 90.2306 194.089 89.5772L191.168 86.8566C190.644 86.3688 189.955 86.0976 189.239 86.0976H182.43L181.631 90.625H190.686L188.291 104.207H161.126L163.521 90.625H172.576L173.375 86.0976H165.568C164.762 86.0976 163.983 86.3841 163.369 86.9061L160.97 88.9451C160.339 87.9716 159.538 87.1281 158.601 86.4355L163.508 58.6032C164.775 57.8625 165.942 56.9439 166.967 55.8829L169.427 58.1737C169.95 58.6615 170.639 58.9327 171.355 58.9327H178.165L178.963 54.4052H169.908L172.303 40.8228H199.468L197.073 54.4052H188.018L187.22 58.9327H195.026C195.832 58.9327 196.612 58.6461 197.226 58.1242L200.668 55.1977C201.271 54.6855 201.676 53.979 201.813 53.2002L203.728 42.3369C203.895 41.3927 203.572 40.4283 202.87 39.7749ZM153.575 89.2618C156.67 90.2389 158.52 93.2647 157.888 96.8503C157.116 101.226 152.944 104.773 148.568 104.773C144.192 104.773 141.27 101.226 142.042 96.8503C142.675 93.2588 145.601 90.2296 149.048 89.2576L154.953 55.769C151.857 54.7925 150.006 51.7663 150.638 48.1799C151.41 43.8041 155.583 40.2568 159.958 40.2568C164.334 40.2568 167.256 43.8041 166.484 48.1799C165.851 51.7707 162.927 54.7995 159.48 55.7721L153.575 89.2618Z" fill="#A3876E"/>
<path d="M167.016 80.4385H168.148L168.567 78.0615H170.548L170.728 77.0432L168.747 77.0429L168.966 75.7978H171.796L171.976 74.7791H168.014L167.016 80.4385Z" fill="white"/>
<path d="M172.109 80.4385H173.241L174.239 74.7791H173.107L172.109 80.4385Z" fill="white"/>
<path d="M175.2 75.7978H176.899L176.071 80.4385H177.203L178.021 75.7978H179.719L179.899 74.7791H175.371L175.2 75.7978Z" fill="white"/>
<path d="M184.036 78.5992L182.163 74.7791H181.031L180.033 80.4385H181.165L181.838 76.6182L183.711 80.4385H184.843L185.841 74.7791H184.709L184.036 78.5992Z" fill="white"/>
<path d="M186.541 80.4385H190.503L190.682 79.4198H187.853L188.092 78.0615H190.073L190.253 77.0424L188.272 77.0429L188.491 75.7978H191.321L191.501 74.7791H187.539L186.541 80.4385Z" fill="white"/>
<path d="M192.767 75.6209L192.489 77.1984C192.409 77.6488 192.756 78.0617 193.213 78.0619L195.454 78.0627L195.214 79.4198H192.098L191.919 80.4385H195.307C195.802 80.4385 196.225 80.0835 196.31 79.5967L196.609 77.9056C196.688 77.455 196.341 77.042 195.884 77.0421L193.646 77.0429L193.869 75.7978H196.697L196.877 74.7791H193.77C193.276 74.7791 192.853 75.134 192.767 75.6209Z" fill="white"/>
<path d="M176.17 70.2521H177.302L177.701 67.9884L180.28 64.5928H179.01L177.35 66.8565L176.458 64.5928H175.187L176.572 67.9876L176.17 70.2521Z" fill="white"/>
<path d="M181.263 70.2521L181.922 66.5105L183.039 69.1203H183.279L185.317 66.5105L184.658 70.2521H185.79L186.788 64.5928H185.656L183.463 67.4012L182.261 64.5928H181.129L180.131 70.2521H181.263Z" fill="white"/>
<path d="M202.355 75.7978L202.535 74.7791H199.428C198.934 74.7791 198.511 75.134 198.425 75.6209L198.147 77.1984C198.068 77.6488 198.414 78.0617 198.871 78.0619L201.112 78.0627L200.872 79.4198H197.756L197.577 80.4385H200.965C201.46 80.4385 201.883 80.0835 201.969 79.5967L202.267 77.9056C202.346 77.455 202 77.042 201.542 77.0421L199.304 77.0429L199.527 75.7978H202.355Z" fill="white"/>
<path d="M169.689 70.2524L172.487 70.2534C172.98 70.2527 173.403 69.8979 173.488 69.4116L173.939 66.8565H171.675L171.496 67.8752H172.627L172.388 69.2334H170.124L170.763 65.6114H173.875L174.055 64.5928H170.665C170.171 64.5928 169.748 64.9477 169.662 65.4345L168.965 69.3889C168.885 69.8393 169.232 70.2523 169.689 70.2524Z" fill="white"/>
<path d="M189.78 70.2521H191.075C191.317 70.2521 191.551 70.1661 191.735 70.0096L192.346 69.4903L192.865 70.2521H194.28L193.233 68.7362L194.28 67.8466L193.697 67.1395L192.71 67.9782L191.349 66.0076L191.419 65.6114H192.551L192.431 66.2906H193.563L193.71 65.4563C193.79 65.0058 193.443 64.5928 192.986 64.5928H191.322C190.827 64.5928 190.404 64.9477 190.319 65.4346L190.22 65.996C190.186 66.1849 190.228 66.3793 190.336 66.5378L190.583 66.9L189.582 67.7506C189.401 67.9043 189.28 68.1162 189.239 68.3499L189.055 69.3886C188.976 69.8391 189.323 70.2521 189.78 70.2521ZM190.384 68.2713L191.101 67.6619L191.827 68.7282L191.233 69.2334H190.215L190.384 68.2713Z" fill="white"/>
</g>
<path d="M0 15.6661L343 15.6661" stroke="#C0C6CC" stroke-width="0.164904"/>
<path d="M0 129.037L343 129.037" stroke="#C0C6CC" stroke-width="0.164904"/>
<path d="M145.097 204.895L194.747 -76.6801" stroke="#C0C6CC" stroke-width="0.164904"/>
<path d="M140.677 204.895L190.326 -76.6801" stroke="#C0C6CC" stroke-width="0.164904"/>
<path d="M118.492 204.895L168.141 -76.6801" stroke="#C0C6CC" stroke-width="0.164904"/>
<path d="M152.478 204.895L202.128 -76.6801" stroke="#C0C6CC" stroke-width="0.164904"/>
<path d="M180.036 204.895L229.685 -76.6801" stroke="#C0C6CC" stroke-width="0.164904"/>
<path d="M175.044 204.895L224.694 -76.6801" stroke="#C0C6CC" stroke-width="0.164904"/>
<path d="M0 108.424L343 108.425" stroke="#C0C6CC" stroke-width="0.164904"/>
<path d="M0 80.3909L343 80.3909" stroke="#C0C6CC" stroke-width="0.164904"/>
<path d="M0 74.6192L343 74.6192" stroke="#C0C6CC" stroke-width="0.164904"/>
<path d="M0 70.0844L343 70.0844" stroke="#C0C6CC" stroke-width="0.164904"/>
<path d="M0 64.3127L343 64.3128" stroke="#C0C6CC" stroke-width="0.164904"/>
<path d="M0 58.9534L343 58.9534" stroke="#C0C6CC" stroke-width="0.164904"/>
<path d="M0 86.1625L343 86.1625" stroke="#C0C6CC" stroke-width="0.164904"/>
<path d="M0 36.2791L343 36.2791" stroke="#C0C6CC" stroke-width="0.164904"/>
</g>
<defs>
<clipPath id="clip0_4932_30222">
<rect width="343" height="145.115" rx="1.64904" fill="white"/>
</clipPath>
<clipPath id="clip1_4932_30222">
<rect width="113.187" height="113.187" fill="white" transform="translate(114.671 15.9213)"/>
</clipPath>
</defs>
</svg>
