<svg width="343" height="145" viewBox="0 0 343 145" fill="none" xmlns="http://www.w3.org/2000/svg">
<g clip-path="url(#clip0_4932_30258)">
<g clip-path="url(#clip1_4932_30258)">
<rect y="0.115356" width="343" height="145.115" rx="1.64904" fill="white"/>
<g clip-path="url(#clip2_4932_30258)">
<path d="M46.3365 64.3321H27.4085C26.5893 64.3321 25.883 64.9255 25.7417 65.7448L23.8207 76.5663C23.7077 77.2444 24.2445 77.8942 24.9225 77.8942H43.907L43.0877 82.415H25.0637C24.2445 82.415 23.4534 82.1324 22.8319 81.6521L19.7243 79.2505C18.6508 78.4028 18.114 77.0466 18.34 75.7187L20.0068 66.1969C20.2046 65.0102 20.8826 63.9648 21.8714 63.2867L25.6287 60.6308C26.3915 60.0939 27.2955 59.8114 28.2278 59.8114H47.1276L46.3365 64.3321Z" fill="#242B33"/>
<path d="M53.3147 82.415H47.6646L50.5179 66.1687C50.7156 64.982 51.3936 63.9366 52.3824 63.2584L56.1398 60.6308C56.9025 60.0939 57.8066 59.8114 58.7388 59.8114H74.1637C74.9548 59.8114 75.7458 60.0657 76.3673 60.546L79.5879 62.9759C80.6897 63.7953 81.2264 65.1797 81.0004 66.536L78.1754 82.415H72.5252L75.4915 65.6601C75.6045 64.982 75.0678 64.3321 74.3898 64.3321H57.9478C57.1285 64.3321 56.4223 64.9255 56.281 65.7448L53.3147 82.415Z" fill="#242B33"/>
<path d="M92.3008 60.6308L88.5434 63.2584C87.5546 63.9366 86.9049 64.982 86.6789 66.1687L85.0121 75.6621C84.7861 77.0184 85.3228 78.4028 86.4246 79.2222L89.6452 81.6521C90.295 82.1324 91.0577 82.3867 91.8487 82.3867H109.534C110.466 82.3867 111.37 82.1042 112.133 81.5673L115.89 78.9397C116.879 78.2616 117.529 77.2161 117.755 76.0295L119.421 66.536C119.647 65.1797 119.111 63.7953 118.009 62.9759L114.788 60.546C114.139 60.0657 113.376 59.8114 112.585 59.8114H94.8998C93.9676 59.8114 93.0635 60.0939 92.3008 60.6308ZM110.325 77.8942H91.6227C90.9165 77.8942 90.3797 77.2726 90.521 76.5663L92.442 65.7448C92.5833 64.9255 93.2895 64.3321 94.1088 64.3321H112.811C113.517 64.3321 114.054 64.9537 113.913 65.6601L111.992 76.4815C111.85 77.3009 111.144 77.8942 110.325 77.8942Z" fill="#242B33"/>
<path d="M151.344 59.8114H133.292C132.359 59.8114 131.455 60.0939 130.693 60.6308L126.935 63.2584C125.947 63.9366 125.297 64.982 125.071 66.1687L122.246 82.415H127.896L129.054 75.9164C129.195 75.0971 129.902 74.5037 130.721 74.5037H149.903C152.361 74.5037 154.48 72.7237 154.904 70.2938L155.808 65.1232C156.288 62.3543 154.169 59.8114 151.344 59.8114ZM147.869 69.983H136.032C135.1 69.983 134.196 70.2655 133.433 70.8024L130.015 73.204C129.817 73.3453 129.534 73.1758 129.563 72.9215L130.834 65.7166C130.975 64.8972 131.681 64.3039 132.501 64.3039H148.943C149.649 64.3039 150.186 64.9255 150.044 65.6318L149.536 68.5703C149.395 69.3897 148.688 69.983 147.869 69.983Z" fill="#242B33"/>
<path d="M191.206 59.8114H160.724L159.904 64.3321H175.668C175.951 64.3321 176.064 64.6994 175.838 64.8407L173.267 66.649C172.278 67.3271 171.628 68.3725 171.402 69.5592L169.142 82.415H174.792L177.731 65.7448C177.872 64.9255 178.578 64.3321 179.397 64.3321H190.387L191.206 59.8114Z" fill="#242B33"/>
<path d="M214.909 82.415L209.457 62.5238C209.033 60.9133 207.564 59.8114 205.926 59.8114H205.332H202.197C200.643 59.8114 199.202 60.6025 198.355 61.9305L185.557 82.415H191.207L203.101 63.428C203.355 63.0042 204.005 63.1172 204.118 63.5692L209.259 82.415H214.909Z" fill="#242B33"/>
<path d="M252.991 65.1232C253.471 62.3543 251.352 59.8114 248.527 59.8114H230.475C229.543 59.8114 228.639 60.0939 227.876 60.6308L224.119 63.2584C223.13 63.9366 222.48 64.982 222.254 66.1687L219.429 82.415H225.079L226.04 77.0466C226.181 76.2272 226.887 75.6339 227.707 75.6339H245.505L244.318 82.415H249.968L252.991 65.1232ZM246.296 71.1132H233.018C232.085 71.1132 231.181 71.3957 230.419 71.9326L227 74.3342C226.803 74.4755 226.52 74.3059 226.548 74.0516L228.017 65.7166C228.159 64.8972 228.865 64.3039 229.684 64.3039H246.126C246.832 64.3039 247.369 64.9255 247.228 65.6318L246.296 71.1132Z" fill="#242B33"/>
<path d="M284.434 59.8114H290.084L286.835 78.205C286.412 80.6349 284.293 82.415 281.835 82.415H263.613C262.822 82.415 262.031 82.1607 261.41 81.6803L258.189 79.2505C257.087 78.4311 256.551 77.0466 256.777 75.6904L259.573 59.8114H265.224L262.257 76.5663C262.144 77.2444 262.681 77.8942 263.359 77.8942H279.801C280.62 77.8942 281.326 77.3009 281.468 76.4815L284.434 59.8114Z" fill="#242B33"/>
<path d="M282.032 53.0305H273.5C272.568 53.0305 271.664 53.3131 270.901 53.8499L267.087 56.5341C266.635 56.8449 266.861 57.5512 267.398 57.5512H281.128C281.947 57.5512 282.654 56.9579 282.795 56.1668L283.106 54.3585C283.275 53.6804 282.738 53.0305 282.032 53.0305Z" fill="#242B33"/>
<path d="M328.815 67.6661C329.041 66.3099 328.504 64.9255 327.403 64.1061L324.182 61.6762C323.532 61.1959 322.77 60.9416 321.979 60.9416H315.311L315.509 59.8114H309.859L309.661 60.9416H302.034C301.101 60.9416 300.197 61.2241 299.434 61.761L295.705 64.3886C294.717 65.0667 294.067 66.1121 293.841 67.2988L292.57 74.532C292.343 75.8882 292.88 77.2726 293.982 78.092L297.203 80.5219C297.852 81.0022 298.615 81.2565 299.406 81.2565H306.073L305.876 82.3867H311.526L311.723 81.2565H319.323C320.255 81.2565 321.159 80.974 321.922 80.4371L325.679 77.8095C326.668 77.1314 327.318 76.086 327.544 74.8993L328.815 67.6661ZM306.864 76.7641H299.18C298.474 76.7641 297.937 76.1425 298.078 75.4361L299.604 66.875C299.745 66.0556 300.451 65.4623 301.271 65.4623H308.898L306.864 76.7641ZM322.205 65.4623C322.911 65.4623 323.448 66.0839 323.306 66.7902L321.781 75.3513C321.64 76.1707 320.933 76.7641 320.114 76.7641H312.486L314.492 65.4623H322.205Z" fill="#242B33"/>
</g>
<path d="M0 57.5616L343.022 57.5617" stroke="#C0C6CC" stroke-width="0.164904"/>
<path d="M0 53.0056L343.022 53.0057" stroke="#C0C6CC" stroke-width="0.164904"/>
<path d="M0 82.3501L343.022 82.3501" stroke="#C0C6CC" stroke-width="0.164904"/>
<path d="M0 77.7943L343.022 77.7944" stroke="#C0C6CC" stroke-width="0.164904"/>
<path d="M0 75.6509L343.022 75.6509" stroke="#C0C6CC" stroke-width="0.164904"/>
<path d="M0 74.5784L343.022 74.5784" stroke="#C0C6CC" stroke-width="0.164904"/>
<path d="M0 70.0229L343.022 70.023" stroke="#C0C6CC" stroke-width="0.164904"/>
<path d="M0 71.0947L343.022 71.0948" stroke="#C0C6CC" stroke-width="0.164904"/>
<path d="M0 64.3947L343.022 64.3947" stroke="#C0C6CC" stroke-width="0.164904"/>
<path d="M0 59.7499L343.29 59.7499" stroke="#C0C6CC" stroke-width="0.164904"/>
<path d="M99.7668 209.527L152.224 -87.9728" stroke="#C0C6CC" stroke-width="0.164904"/>
<path d="M94.1856 209.527L146.643 -87.9728" stroke="#C0C6CC" stroke-width="0.164904"/>
<path d="M61.2705 209.527L113.728 -87.9728" stroke="#C0C6CC" stroke-width="0.164904"/>
<path d="M55.8032 209.527L108.261 -87.9728" stroke="#C0C6CC" stroke-width="0.164904"/>
<path d="M25.166 209.527L77.6233 -87.9728" stroke="#C0C6CC" stroke-width="0.164904"/>
<path d="M20.7245 209.527L73.1818 -87.9728" stroke="#C0C6CC" stroke-width="0.164904"/>
<path d="M130.282 209.527L182.739 -87.9728" stroke="#C0C6CC" stroke-width="0.164904"/>
<path d="M134.155 209.527L186.612 -87.9728" stroke="#C0C6CC" stroke-width="0.164904"/>
<path d="M164.792 209.527L217.25 -87.9728" stroke="#C0C6CC" stroke-width="0.164904"/>
<path d="M192.468 209.527L244.926 -87.9728" stroke="#C0C6CC" stroke-width="0.164904"/>
<path d="M196.911 209.527L249.368 -87.9728" stroke="#C0C6CC" stroke-width="0.164904"/>
<path d="M227.661 209.527L280.119 -87.9728" stroke="#C0C6CC" stroke-width="0.164904"/>
<path d="M233.242 209.527L285.7 -87.9728" stroke="#C0C6CC" stroke-width="0.164904"/>
<path d="M264.63 204.857L317.088 -92.6429" stroke="#C0C6CC" stroke-width="0.164904"/>
<path d="M269.528 204.857L321.985 -92.6429" stroke="#C0C6CC" stroke-width="0.164904"/>
</g>
</g>
<defs>
<clipPath id="clip0_4932_30258">
<rect width="343" height="145.115" fill="white" transform="translate(0 0.115356)"/>
</clipPath>
<clipPath id="clip1_4932_30258">
<rect y="0.115356" width="343" height="145.115" rx="1.64904" fill="white"/>
</clipPath>
<clipPath id="clip2_4932_30258">
<rect width="310.589" height="29.3846" fill="white" transform="translate(18.2839 53.0298)"/>
</clipPath>
</defs>
</svg>
