<svg width="343" height="198" viewBox="0 0 343 198" fill="none" xmlns="http://www.w3.org/2000/svg">
<g clip-path="url(#clip0_4932_30341)">
<g clip-path="url(#clip1_4932_30341)">
<rect x="-47" y="-32" width="454" height="262.076" rx="5.29446" fill="white"/>
<rect x="18.4808" y="81.7911" width="306.668" height="45.8365" fill="#F2F4F5"/>
<path d="M0.0187378 81.7927H18.3016H64.0087H74.1077H325.271H343.553" stroke="#848E99" stroke-width="0.228536" stroke-miterlimit="10"/>
<path d="M18.3009 145.783V127.5V113.788V95.5054V81.7932V63.5104" stroke="#848E99" stroke-width="0.228536" stroke-miterlimit="10"/>
<path d="M0.0187378 127.499H18.3016H64.0087H74.1077H325.271H343.553" stroke="#848E99" stroke-width="0.228536" stroke-miterlimit="10"/>
<path d="M74.0614 145.783V127.5V113.788V95.5054V81.7932V63.5104" stroke="#848E99" stroke-width="0.228536" stroke-miterlimit="10"/>
<path d="M64.0085 145.783V127.5V113.788V95.5054V81.7932V63.5104" stroke="#848E99" stroke-width="0.228536" stroke-miterlimit="10"/>
<path d="M0.0187378 113.788H18.3016H64.0087H74.1077H325.271H343.553" stroke="#848E99" stroke-width="0.228536" stroke-miterlimit="10"/>
<path d="M0.0187378 95.5055H18.3016H64.0087H74.1077H325.271H343.553" stroke="#848E99" stroke-width="0.228536" stroke-miterlimit="10"/>
<path d="M41.1538 127.5C53.7755 127.5 64.0073 117.268 64.0073 104.647C64.0073 92.0251 53.7755 81.7932 41.1538 81.7932C28.5321 81.7932 18.3002 92.0251 18.3002 104.647C18.3002 117.268 28.5321 127.5 41.1538 127.5Z" fill="#242B33"/>
<path fill-rule="evenodd" clip-rule="evenodd" d="M53.9165 91.4247L52.737 90.3261C52.5255 90.1291 52.2472 90.0196 51.9582 90.0196H42.3993C42.0739 90.0196 41.7591 90.1353 41.5112 90.346L40.2949 91.38C39.5507 90.4025 38.3564 89.791 36.9102 89.791C34.1334 89.791 31.4855 92.042 30.9959 94.8188C30.6851 96.5815 31.3224 98.1278 32.5371 99.025L30.5555 110.263C29.0212 111.16 27.8358 112.708 27.5245 114.473C27.0349 117.25 28.889 119.501 31.6658 119.501C33.1394 119.501 34.5766 118.867 35.6743 117.857L36.8651 118.966C37.0766 119.163 37.3549 119.272 37.6439 119.272H47.2027C47.5281 119.272 47.8429 119.156 48.0908 118.946L49.481 117.764C49.7243 117.557 49.8878 117.272 49.9433 116.957L50.7168 112.57C50.784 112.189 50.6536 111.8 50.3703 111.536L49.1908 110.437C48.9793 110.24 48.7009 110.131 48.4119 110.131H45.6621L45.3398 111.959H48.9963L48.0292 117.444H37.0595L38.0266 111.959H41.6832L42.0056 110.131H38.8531C38.5277 110.131 38.2129 110.246 37.965 110.457L36.9964 111.281C36.7417 110.887 36.4181 110.547 36.0396 110.267L38.0214 99.0279C38.5328 98.7288 39.0042 98.3578 39.4181 97.9294L40.4113 98.8545C40.6228 99.0514 40.9011 99.161 41.1901 99.161H43.9399L44.2623 97.3327H40.6057L41.5729 91.8478H52.5426L51.5754 97.3327H47.9189L47.5965 99.161H50.749C51.0743 99.161 51.3891 99.0452 51.6371 98.8345L53.0273 97.6527C53.2705 97.4459 53.4341 97.1606 53.4895 96.8461L54.263 92.4593C54.3303 92.078 54.1999 91.6886 53.9165 91.4247ZM34.0101 111.408C35.2601 111.803 36.0071 113.025 35.7518 114.473C35.4402 116.24 33.7552 117.672 31.9881 117.672C30.2211 117.672 29.0412 116.24 29.3528 114.473C29.6085 113.023 30.7899 111.799 32.1821 111.407L34.5667 97.8834C33.3162 97.4891 32.5688 96.2671 32.8242 94.8188C33.1358 93.0518 34.8208 91.6193 36.5878 91.6193C38.3549 91.6193 39.5348 93.0518 39.2232 94.8188C38.9675 96.2688 37.7865 97.4919 36.3947 97.8847L34.0101 111.408Z" fill="#A3876E"/>
<path d="M39.4368 107.847H39.8939L40.0632 106.888H40.8631L40.9355 106.476L40.1357 106.476L40.2244 105.973H41.3671L41.4396 105.562H39.8398L39.4368 107.847Z" fill="white"/>
<path d="M41.4932 107.847H41.9503L42.3533 105.562H41.8962L41.4932 107.847Z" fill="white"/>
<path d="M42.7412 105.973H43.427L43.0929 107.847H43.55L43.8804 105.973H44.566L44.6386 105.562H42.8103L42.7412 105.973Z" fill="white"/>
<path d="M46.3097 107.105L45.5533 105.562H45.0962L44.6932 107.847H45.1502L45.4223 106.305L46.1787 107.847H46.6357L47.0387 105.562H46.5817L46.3097 107.105Z" fill="white"/>
<path d="M47.3214 107.847H48.9212L48.9937 107.436H47.851L47.9478 106.888H48.7476L48.8202 106.476L48.0203 106.476L48.109 105.973H49.2516L49.3242 105.562H47.7244L47.3214 107.847Z" fill="white"/>
<path d="M49.8354 105.902L49.7231 106.539C49.691 106.721 49.8309 106.888 50.0156 106.888L50.9204 106.888L50.8237 107.436H49.5654L49.4929 107.847H50.8613C51.0609 107.847 51.2317 107.704 51.2664 107.507L51.3868 106.825C51.4189 106.643 51.2789 106.476 51.0941 106.476L50.1904 106.476L50.2803 105.973H51.4226L51.4952 105.562H50.2406C50.0409 105.562 49.8701 105.705 49.8354 105.902Z" fill="white"/>
<path d="M43.1328 103.734H43.5899L43.7511 102.819L44.7927 101.448H44.2796L43.6094 102.362L43.249 101.448H42.7359L43.295 102.819L43.1328 103.734Z" fill="white"/>
<path d="M45.1897 103.734L45.4558 102.223L45.907 103.277H46.0039L46.827 102.223L46.5609 103.734H47.018L47.4209 101.448H46.9638L46.0783 102.582L45.5926 101.448H45.1356L44.7326 103.734H45.1897Z" fill="white"/>
<path d="M53.7077 105.973L53.7802 105.562H52.5257C52.326 105.562 52.1552 105.705 52.1205 105.902L52.0082 106.539C51.9761 106.721 52.116 106.888 52.3007 106.888L53.2055 106.888L53.1088 107.436H51.8504L51.7779 107.847H53.1463C53.346 107.847 53.5168 107.704 53.5514 107.507L53.6718 106.825C53.7039 106.643 53.5639 106.476 53.3792 106.476L52.4754 106.476L52.5654 105.973H53.7077Z" fill="white"/>
<path d="M40.5162 103.734L41.646 103.734C41.8454 103.734 42.0159 103.591 42.0505 103.394L42.2324 102.362H41.3183L41.2458 102.774H41.7028L41.6061 103.322H40.692L40.9499 101.86H42.2068L42.2794 101.448H40.9105C40.7109 101.448 40.5401 101.592 40.5054 101.788L40.2237 103.385C40.1916 103.567 40.3315 103.734 40.5162 103.734Z" fill="white"/>
<path d="M48.6295 103.734H49.1525C49.2502 103.734 49.3446 103.699 49.419 103.636L49.6657 103.426L49.8751 103.734H50.4465L50.0239 103.121L50.4465 102.762L50.211 102.477L49.8125 102.815L49.2632 102.02L49.2914 101.86H49.7485L49.7002 102.134H50.1572L50.2166 101.797C50.2487 101.615 50.1087 101.448 49.924 101.448H49.2521C49.0524 101.448 48.8816 101.592 48.8469 101.788L48.8069 102.015C48.7935 102.091 48.8104 102.17 48.854 102.234L48.9536 102.38L48.5495 102.723C48.4765 102.785 48.4275 102.871 48.4108 102.965L48.3369 103.385C48.3048 103.567 48.4447 103.734 48.6295 103.734ZM48.8735 102.934L49.163 102.688L49.4562 103.118L49.2161 103.322H48.805L48.8735 102.934Z" fill="white"/>
<path d="M96.754 99.1618H81.4501C80.7846 99.1618 80.2152 99.6396 80.0997 100.295L78.5544 109.059C78.4557 109.618 78.8862 110.132 79.4546 110.132H94.8197L94.1599 113.788H79.543C78.8859 113.788 78.2472 113.57 77.7271 113.169L75.2164 111.23C74.3422 110.554 73.9147 109.45 74.1064 108.362L75.466 100.652C75.6342 99.6978 76.1745 98.8494 76.9679 98.2931L79.9992 96.1678C80.6143 95.7366 81.3472 95.5052 82.0984 95.5052H97.3988L96.754 99.1618Z" fill="#242B33"/>
<path d="M102.402 113.788H97.8316L100.148 100.652C100.316 99.6978 100.856 98.8494 101.65 98.2931L104.681 96.1678C105.296 95.7366 106.029 95.5052 106.78 95.5052H119.256C119.903 95.5052 120.531 95.7161 121.047 96.1057L123.642 98.0659C124.532 98.7385 124.971 99.8534 124.777 100.952L122.513 113.788H117.943L120.333 100.235C120.431 99.675 120.001 99.1618 119.432 99.1618H106.132C105.466 99.1618 104.897 99.6396 104.782 100.295L102.402 113.788Z" fill="#242B33"/>
<path d="M133.933 96.1678L130.902 98.2931C130.109 98.8494 129.568 99.6978 129.4 100.652L128.044 108.341C127.851 109.44 128.289 110.555 129.179 111.227L131.774 113.188C132.29 113.577 132.918 113.788 133.565 113.788H147.869C148.62 113.788 149.353 113.557 149.968 113.126L153 111C153.793 110.444 154.333 109.596 154.502 108.641L155.857 100.952C156.051 99.8534 155.613 98.7385 154.722 98.0659L152.128 96.1057C151.612 95.7161 150.983 95.5052 150.337 95.5052H136.033C135.281 95.5052 134.549 95.7366 133.933 96.1678ZM148.517 110.132H133.389C132.82 110.132 132.39 109.618 132.489 109.059L134.034 100.295C134.149 99.6396 134.719 99.1618 135.384 99.1618H150.513C151.081 99.1618 151.512 99.675 151.413 100.235L149.868 108.998C149.752 109.654 149.183 110.132 148.517 110.132Z" fill="#242B33"/>
<path d="M181.713 95.5052H167.113C166.362 95.5052 165.629 95.7366 165.014 96.1678L161.983 98.2931C161.189 98.8494 160.649 99.6978 160.481 100.652L158.165 113.788H162.735L163.664 108.522C163.779 107.867 164.349 107.389 165.014 107.389H180.523C182.519 107.389 184.228 105.956 184.574 103.99L185.314 99.7968C185.708 97.5579 183.986 95.5052 181.713 95.5052ZM178.898 103.733H169.319C168.568 103.733 167.835 103.964 167.22 104.395L164.445 106.341C164.278 106.458 164.053 106.315 164.089 106.114L165.115 100.295C165.23 99.6396 165.8 99.1618 166.465 99.1618H179.765C180.334 99.1618 180.764 99.675 180.666 100.235L180.249 102.599C180.133 103.255 179.564 103.733 178.898 103.733Z" fill="#242B33"/>
<path d="M213.952 95.5052H189.285L188.625 99.1618H201.385C201.608 99.1618 201.699 99.4493 201.516 99.5775L199.436 101.036C198.643 101.592 198.103 102.44 197.935 103.395L196.102 113.788H200.673L203.052 100.295C203.167 99.6396 203.737 99.1618 204.402 99.1618H213.292L213.952 95.5052Z" fill="#242B33"/>
<path d="M233.124 113.788L228.719 97.692C228.366 96.4007 227.193 95.5052 225.854 95.5052H225.379H222.833C221.573 95.5052 220.402 96.154 219.733 97.2221L209.367 113.788H213.927L223.553 98.4198C223.764 98.0824 224.276 98.1578 224.381 98.5418L228.554 113.788H233.124Z" fill="#242B33"/>
<path d="M263.93 99.7968C264.325 97.5579 262.602 95.5052 260.329 95.5052H245.73C244.979 95.5052 244.246 95.7366 243.631 96.1678L240.599 98.2931C239.806 98.8494 239.266 99.6979 239.097 100.652L236.781 113.788H241.352L242.119 109.436C242.235 108.781 242.804 108.303 243.469 108.303H257.859L256.892 113.788H261.463L263.93 99.7968ZM258.504 104.647H247.774C247.023 104.647 246.29 104.878 245.675 105.309L242.9 107.255C242.733 107.372 242.508 107.229 242.544 107.028L243.731 100.295C243.847 99.6396 244.416 99.1618 245.081 99.1618H258.382C258.95 99.1618 259.381 99.675 259.282 100.235L258.504 104.647Z" fill="#242B33"/>
<path d="M289.369 95.5052H293.94L291.315 110.389C290.968 112.355 289.26 113.788 287.264 113.788H272.515C271.868 113.788 271.24 113.577 270.724 113.188L268.129 111.227C267.239 110.555 266.801 109.44 266.994 108.341L269.258 95.5052H273.828L271.439 109.059C271.34 109.618 271.77 110.132 272.339 110.132H285.639C286.305 110.132 286.874 109.654 286.99 108.998L289.369 95.5052Z" fill="#242B33"/>
<path d="M287.429 90.0198H280.535C279.784 90.0198 279.051 90.2511 278.436 90.6823L275.352 92.845C274.986 93.1015 275.167 93.6763 275.614 93.6763H286.717C287.38 93.6763 287.949 93.2015 288.066 92.5487L288.329 91.0963C288.43 90.5355 287.999 90.0198 287.429 90.0198Z" fill="#242B33"/>
<path d="M325.27 101.866C325.463 100.768 325.025 99.6527 324.135 98.98L321.54 97.0198C321.024 96.6302 320.396 96.4194 319.749 96.4194H314.35L314.511 95.5052H309.937L309.776 96.4194H303.617C302.865 96.4194 302.132 96.6507 301.517 97.0819L298.486 99.2072C297.693 99.7635 297.152 100.612 296.984 101.566L295.951 107.427C295.757 108.526 296.195 109.641 297.086 110.313L299.68 112.274C300.196 112.663 300.825 112.874 301.471 112.874H306.874L306.709 113.788H311.284L311.448 112.874H317.604C318.355 112.874 319.088 112.643 319.703 112.211L322.734 110.086C323.528 109.53 324.068 108.681 324.236 107.727L325.27 101.866ZM307.519 109.217H301.295C300.727 109.217 300.296 108.704 300.395 108.144L301.618 101.209C301.733 100.554 302.303 100.076 302.968 100.076H309.131L307.519 109.217ZM319.925 100.076C320.494 100.076 320.924 100.589 320.825 101.149L319.602 108.084C319.487 108.74 318.918 109.217 318.252 109.217H312.093L313.705 100.076H319.925Z" fill="#242B33"/>
<path d="M8.86796 76.3255C8.49545 76.3255 8.16659 76.2352 7.88138 76.0548C7.59618 75.8744 7.37209 75.6066 7.20911 75.2516C7.04614 74.8907 6.96465 74.4454 6.96465 73.9158C6.96465 73.1242 7.13636 72.5189 7.47977 72.0998C7.829 71.6807 8.30337 71.4712 8.90288 71.4712C9.12406 71.4712 9.32487 71.5032 9.5053 71.5672C9.68574 71.6254 9.8458 71.7098 9.9855 71.8204C10.131 71.9252 10.2532 72.0503 10.3522 72.1958H10.3871L10.5006 71.5585H11.1118V75.2079C11.1118 75.3884 11.1467 75.5164 11.2165 75.5921C11.2864 75.6619 11.3708 75.6969 11.4697 75.6969C11.5163 75.6969 11.5658 75.691 11.6182 75.6794C11.6705 75.6677 11.7084 75.659 11.7317 75.6532V76.212C11.7025 76.2294 11.6618 76.2469 11.6094 76.2644C11.557 76.2818 11.4988 76.2964 11.4348 76.308C11.3708 76.3196 11.3068 76.3255 11.2427 76.3255C11.0274 76.3255 10.8469 76.2731 10.7014 76.1683C10.5617 76.0635 10.4599 75.8773 10.3958 75.6095H10.3347C10.2416 75.7492 10.1252 75.8744 9.9855 75.985C9.8458 76.0897 9.68283 76.1741 9.49657 76.2382C9.31032 76.2964 9.10078 76.3255 8.86796 76.3255ZM9.02511 75.6881C9.34524 75.6881 9.60134 75.627 9.79342 75.5048C9.99132 75.3825 10.1339 75.1934 10.2212 74.9373C10.3085 74.6812 10.3522 74.3552 10.3522 73.9594V73.907C10.3522 73.325 10.2532 72.8797 10.0553 72.5712C9.86327 72.2627 9.51695 72.1085 9.01638 72.1085C8.59148 72.1085 8.27427 72.2657 8.06473 72.58C7.86101 72.8885 7.75915 73.3366 7.75915 73.9245C7.75915 74.5066 7.86683 74.946 8.08219 75.2429C8.29755 75.5397 8.61186 75.6881 9.02511 75.6881Z" fill="#848E99"/>
<path d="M334.089 108.52C333.717 108.52 333.388 108.43 333.103 108.25C332.818 108.069 332.594 107.801 332.431 107.446C332.268 107.085 332.186 106.64 332.186 106.11C332.186 105.319 332.358 104.714 332.701 104.294C333.05 103.875 333.525 103.666 334.124 103.666C334.346 103.666 334.546 103.698 334.727 103.762C334.907 103.82 335.067 103.905 335.207 104.015C335.352 104.12 335.475 104.245 335.574 104.391H335.609L335.722 103.753H336.333V107.403C336.333 107.583 336.368 107.711 336.438 107.787C336.508 107.857 336.592 107.892 336.691 107.892C336.738 107.892 336.787 107.886 336.84 107.874C336.892 107.862 336.93 107.854 336.953 107.848V108.407C336.924 108.424 336.883 108.442 336.831 108.459C336.779 108.477 336.72 108.491 336.656 108.503C336.592 108.514 336.528 108.52 336.464 108.52C336.249 108.52 336.068 108.468 335.923 108.363C335.783 108.258 335.681 108.072 335.617 107.804H335.556C335.463 107.944 335.347 108.069 335.207 108.18C335.067 108.284 334.904 108.369 334.718 108.433C334.532 108.491 334.322 108.52 334.089 108.52ZM334.247 107.883C334.567 107.883 334.823 107.822 335.015 107.699C335.213 107.577 335.355 107.388 335.443 107.132C335.53 106.876 335.574 106.55 335.574 106.154V106.102C335.574 105.52 335.475 105.074 335.277 104.766C335.085 104.457 334.738 104.303 334.238 104.303C333.813 104.303 333.496 104.46 333.286 104.775C333.082 105.083 332.981 105.531 332.981 106.119C332.981 106.701 333.088 107.141 333.304 107.438C333.519 107.734 333.833 107.883 334.247 107.883Z" fill="#848E99"/>
<path d="M8.86826 140.715C8.49575 140.715 8.16689 140.625 7.88169 140.444C7.59648 140.264 7.37239 139.996 7.20942 139.641C7.04644 139.28 6.96496 138.835 6.96496 138.305C6.96496 137.514 7.13666 136.908 7.48007 136.489C7.8293 136.07 8.30367 135.861 8.90319 135.861C9.12437 135.861 9.32517 135.893 9.50561 135.957C9.68605 136.015 9.84611 136.099 9.9858 136.21C10.1313 136.315 10.2535 136.44 10.3525 136.585H10.3874L10.5009 135.948H11.1121V139.597C11.1121 139.778 11.147 139.906 11.2168 139.981C11.2867 140.051 11.3711 140.086 11.47 140.086C11.5166 140.086 11.5661 140.08 11.6185 140.069C11.6708 140.057 11.7087 140.048 11.732 140.043V140.601C11.7029 140.619 11.6621 140.636 11.6097 140.654C11.5573 140.671 11.4991 140.686 11.4351 140.697C11.3711 140.709 11.3071 140.715 11.243 140.715C11.0277 140.715 10.8472 140.662 10.7017 140.558C10.562 140.453 10.4602 140.267 10.3961 139.999H10.335C10.2419 140.139 10.1255 140.264 9.9858 140.374C9.84611 140.479 9.68314 140.564 9.49688 140.628C9.31062 140.686 9.10108 140.715 8.86826 140.715ZM9.02542 140.078C9.34555 140.078 9.60165 140.016 9.79373 139.894C9.99162 139.772 10.1342 139.583 10.2215 139.327C10.3088 139.071 10.3525 138.745 10.3525 138.349V138.296C10.3525 137.714 10.2535 137.269 10.0556 136.961C9.86357 136.652 9.51725 136.498 9.01669 136.498C8.59179 136.498 8.27457 136.655 8.06503 136.969C7.86132 137.278 7.75946 137.726 7.75946 138.314C7.75946 138.896 7.86714 139.335 8.08249 139.632C8.29785 139.929 8.61216 140.078 9.02542 140.078Z" fill="#848E99"/>
<path d="M18.2873 145.585V127.311V113.606V95.333V81.628V63.3546" stroke="#848E99" stroke-width="0.228417" stroke-miterlimit="10"/>
<path d="M325.097 145.585V127.311V113.606V95.333V81.628V63.3546" stroke="#848E99" stroke-width="0.228417" stroke-miterlimit="10"/>
<path d="M74.0184 145.585V127.311V113.606V95.333V81.628V63.3546" stroke="#848E99" stroke-width="0.228417" stroke-miterlimit="10"/>
<path d="M63.9709 145.585V127.311V113.606V95.333V81.628V63.3546" stroke="#848E99" stroke-width="0.228417" stroke-miterlimit="10"/>
<path d="M41.13 127.312C53.7452 127.312 63.9717 117.085 63.9717 104.47C63.9717 91.8549 53.7452 81.6283 41.13 81.6283C28.5149 81.6283 18.2883 91.8549 18.2883 104.47C18.2883 117.085 28.5149 127.312 41.13 127.312Z" fill="#242B33"/>
<path fill-rule="evenodd" clip-rule="evenodd" d="M53.8861 91.2563L52.7072 90.1583C52.4958 89.9614 52.2177 89.852 51.9288 89.852H42.3749C42.0497 89.852 41.735 89.9676 41.4873 90.1783L40.2716 91.2117C39.5277 90.2347 38.3341 89.6235 36.8887 89.6235C34.1133 89.6235 31.4668 91.8734 30.9774 94.6487C30.6667 96.4105 31.3037 97.956 32.5178 98.8527L30.5373 110.085C29.0037 110.981 27.8189 112.528 27.5078 114.293C27.0184 117.068 28.8716 119.318 31.6469 119.318C33.1198 119.318 34.5562 118.684 35.6534 117.675L36.8435 118.783C37.0549 118.98 37.3331 119.089 37.6219 119.089H47.1758C47.5011 119.089 47.8157 118.974 48.0635 118.763L49.4529 117.582C49.6961 117.375 49.8595 117.09 49.9149 116.776L50.6881 112.391C50.7553 112.01 50.6249 111.621 50.3417 111.357L49.1628 110.259C48.9514 110.062 48.6733 109.953 48.3844 109.953H45.636L45.3138 111.78H48.9685L48.0018 117.262H37.0378L38.0045 111.78H41.6591L41.9814 109.953H38.8305C38.5053 109.953 38.1907 110.068 37.9429 110.279L36.9748 111.102C36.7202 110.709 36.3968 110.369 36.0185 110.089L37.9993 98.8557C38.5104 98.5567 38.9815 98.1859 39.3952 97.7577L40.388 98.6823C40.5993 98.8792 40.8775 98.9886 41.1663 98.9886H43.9147L44.2369 97.1613H40.5823L41.5489 91.6793H52.5129L51.5463 97.1613H47.8916L47.5694 98.9886H50.7202C51.0454 98.9886 51.3601 98.873 51.6079 98.6623L52.9974 97.4812C53.2405 97.2744 53.4039 96.9893 53.4594 96.6749L54.2325 92.2904C54.2997 91.9093 54.1693 91.5201 53.8861 91.2563ZM33.99 111.23C35.2394 111.624 35.986 112.845 35.7308 114.293C35.4194 116.059 33.7353 117.49 31.9691 117.49C30.203 117.49 29.0237 116.059 29.3352 114.293C29.5907 112.843 30.7715 111.62 32.163 111.228L34.5463 97.7117C33.2965 97.3176 32.5495 96.0962 32.8048 94.6487C33.1161 92.8826 34.8003 91.4509 36.5664 91.4509C38.3325 91.4509 39.5118 92.8826 39.2004 94.6487C38.9449 96.098 37.7645 97.3204 36.3734 97.713L33.99 111.23Z" fill="#A3876E"/>
<path d="M39.4152 107.666H39.872L40.0412 106.707H40.8406L40.9131 106.296L40.1137 106.296L40.2023 105.793H41.3444L41.4169 105.382H39.818L39.4152 107.666Z" fill="white"/>
<path d="M41.471 107.666H41.9278L42.3306 105.382H41.8738L41.471 107.666Z" fill="white"/>
<path d="M42.718 105.793H43.4034L43.0694 107.666H43.5263L43.8566 105.793H44.5418L44.6143 105.382H42.787L42.718 105.793Z" fill="white"/>
<path d="M46.2845 106.924L45.5285 105.382H45.0717L44.6689 107.666H45.1257L45.3976 106.124L46.1536 107.666H46.6104L47.0132 105.382H46.5564L46.2845 106.924Z" fill="white"/>
<path d="M47.2955 107.666H48.8944L48.9669 107.255H47.8248L47.9215 106.707H48.721L48.7935 106.296L47.994 106.296L48.0826 105.793H49.2247L49.2972 105.382H47.6983L47.2955 107.666Z" fill="white"/>
<path d="M49.8083 105.722L49.696 106.359C49.664 106.54 49.8038 106.707 49.9884 106.707L50.8927 106.707L50.7961 107.255H49.5384L49.4659 107.666H50.8336C51.0331 107.666 51.2038 107.523 51.2385 107.326L51.3589 106.644C51.3909 106.462 51.2509 106.295 51.0663 106.295L50.1631 106.296L50.253 105.793H51.3946L51.4672 105.382H50.2132C50.0137 105.382 49.843 105.525 49.8083 105.722Z" fill="white"/>
<path d="M43.1094 103.556H43.5662L43.7273 102.642L44.7684 101.271H44.2556L43.5857 102.185L43.2255 101.271H42.7126L43.2715 102.642L43.1094 103.556Z" fill="white"/>
<path d="M45.1651 103.556L45.4312 102.046L45.8821 103.099H45.9789L46.8017 102.046L46.5356 103.556H46.9925L47.3952 101.271H46.9384L46.0533 102.405L45.5679 101.271H45.1111L44.7083 103.556H45.1651Z" fill="white"/>
<path d="M53.6786 105.793L53.7511 105.382H52.4972C52.2977 105.382 52.1269 105.525 52.0923 105.722L51.98 106.359C51.948 106.54 52.0878 106.707 52.2723 106.707L53.1767 106.707L53.08 107.255H51.8223L51.7498 107.666H53.1175C53.3171 107.666 53.4878 107.523 53.5224 107.326L53.6428 106.644C53.6749 106.462 53.5349 106.295 53.3503 106.295L52.447 106.296L52.537 105.793H53.6786Z" fill="white"/>
<path d="M40.4938 103.556L41.6231 103.556C41.8224 103.556 41.9928 103.413 42.0273 103.216L42.2092 102.185H41.2955L41.223 102.596H41.6798L41.5832 103.145H40.6695L40.9273 101.683H42.1836L42.2561 101.271H40.8879C40.6884 101.271 40.5177 101.415 40.4831 101.611L40.2015 103.207C40.1694 103.389 40.3092 103.556 40.4938 103.556Z" fill="white"/>
<path d="M48.6028 103.556H49.1256C49.2232 103.556 49.3176 103.521 49.392 103.458L49.6385 103.248L49.8478 103.556H50.4189L49.9965 102.944L50.4189 102.585L50.1836 102.299L49.7853 102.638L49.2363 101.843L49.2644 101.683H49.7213L49.673 101.957H50.1298L50.1891 101.62C50.2212 101.438 50.0813 101.271 49.8967 101.271H49.2251C49.0256 101.271 48.8548 101.415 48.8202 101.611L48.7802 101.838C48.7668 101.914 48.7837 101.993 48.8272 102.057L48.9268 102.203L48.5229 102.546C48.45 102.608 48.4009 102.694 48.3843 102.788L48.3104 103.207C48.2783 103.389 48.4182 103.556 48.6028 103.556ZM48.8467 102.756L49.1361 102.51L49.4291 102.941L49.1891 103.145H48.7783L48.8467 102.756Z" fill="white"/>
<path d="M96.7 98.9887H81.4039C80.7388 98.9887 80.1697 99.4662 80.0542 100.121L78.5098 108.88C78.4111 109.44 78.8414 109.953 79.4095 109.953H94.7667L94.1072 113.607H79.4979C78.8411 113.607 78.2028 113.39 77.6829 112.988L75.1735 111.05C74.2997 110.375 73.8724 109.272 74.0641 108.184L75.4229 100.478C75.5911 99.5244 76.1311 98.6764 76.9241 98.1204L79.9539 95.9962C80.5686 95.5652 81.3012 95.334 82.0519 95.334H97.3444L96.7 98.9887Z" fill="#242B33"/>
<path d="M102.345 113.607H97.7765L100.092 100.478C100.26 99.5244 100.8 98.6764 101.593 98.1204L104.622 95.9962C105.237 95.5652 105.97 95.334 106.72 95.334H119.19C119.836 95.334 120.465 95.5447 120.98 95.9341L123.573 97.8933C124.463 98.5656 124.901 99.6799 124.708 100.778L122.446 113.607H117.877L120.266 100.061C120.364 99.5015 119.934 98.9887 119.366 98.9887H106.073C105.407 98.9887 104.838 99.4662 104.723 100.121L102.345 113.607Z" fill="#242B33"/>
<path d="M133.86 95.9962L130.83 98.1204C130.037 98.6764 129.497 99.5244 129.329 100.478L127.974 108.163C127.78 109.261 128.218 110.376 129.108 111.048L131.701 113.007C132.217 113.397 132.845 113.607 133.491 113.607H147.788C148.539 113.607 149.272 113.376 149.886 112.945L152.916 110.821C153.709 110.265 154.249 109.417 154.417 108.463L155.772 100.778C155.966 99.6799 155.528 98.5656 154.638 97.8933L152.045 95.9341C151.529 95.5447 150.901 95.334 150.255 95.334H135.958C135.207 95.334 134.475 95.5652 133.86 95.9962ZM148.436 109.953H133.315C132.747 109.953 132.317 109.44 132.416 108.88L133.96 100.121C134.076 99.4662 134.645 98.9887 135.31 98.9887H150.431C150.999 98.9887 151.429 99.5015 151.331 100.061L149.786 108.82C149.671 109.475 149.101 109.953 148.436 109.953Z" fill="#242B33"/>
<path d="M181.615 95.334H167.023C166.273 95.334 165.54 95.5652 164.925 95.9962L161.895 98.1204C161.102 98.6764 160.562 99.5244 160.394 100.478L158.079 113.607H162.648L163.576 108.344C163.691 107.689 164.26 107.212 164.925 107.212H180.426C182.421 107.212 184.129 105.779 184.475 103.814L185.214 99.6233C185.609 97.3855 183.887 95.334 181.615 95.334ZM178.802 103.557H169.228C168.477 103.557 167.745 103.788 167.13 104.219L164.356 106.164C164.189 106.281 163.965 106.138 164 105.937L165.026 100.121C165.141 99.4662 165.71 98.9887 166.375 98.9887H179.669C180.237 98.9887 180.667 99.5015 180.569 100.061L180.152 102.424C180.036 103.079 179.467 103.557 178.802 103.557Z" fill="#242B33"/>
<path d="M213.837 95.334H189.183L188.523 98.9887H201.276C201.5 98.9887 201.59 99.2759 201.407 99.4041L199.329 100.861C198.536 101.417 197.996 102.265 197.828 103.219L195.996 113.607H200.564L202.942 100.121C203.058 99.4662 203.627 98.9887 204.292 98.9887H213.177L213.837 95.334Z" fill="#242B33"/>
<path d="M233 113.607L228.597 97.5196C228.244 96.229 227.071 95.334 225.733 95.334H225.258H222.714C221.455 95.334 220.284 95.9824 219.616 97.0499L209.255 113.607H213.813L223.434 98.2471C223.645 97.9098 224.156 97.9851 224.261 98.369L228.432 113.607H233Z" fill="#242B33"/>
<path d="M263.79 99.6233C264.184 97.3855 262.463 95.334 260.191 95.334H245.599C244.848 95.334 244.116 95.5652 243.501 95.9962L240.471 98.1204C239.678 98.6764 239.138 99.5244 238.97 100.478L236.655 113.607H241.223L241.99 109.258C242.106 108.603 242.675 108.125 243.34 108.125H257.722L256.756 113.607H261.324L263.79 99.6233ZM258.367 104.471H247.642C246.892 104.471 246.159 104.702 245.544 105.133L242.771 107.078C242.604 107.194 242.379 107.051 242.415 106.851L243.601 100.121C243.717 99.4662 244.286 98.9887 244.951 98.9887H258.244C258.812 98.9887 259.243 99.5015 259.144 100.061L258.367 104.471Z" fill="#242B33"/>
<path d="M289.214 95.334H293.783L291.16 110.21C290.813 112.175 289.106 113.607 287.111 113.607H272.369C271.723 113.607 271.095 113.397 270.579 113.007L267.986 111.048C267.096 110.376 266.658 109.261 266.852 108.163L269.114 95.334H273.682L271.293 108.88C271.195 109.44 271.625 109.953 272.193 109.953H285.487C286.152 109.953 286.721 109.475 286.836 108.82L289.214 95.334Z" fill="#242B33"/>
<path d="M287.276 89.8517H280.386C279.635 89.8517 278.903 90.0829 278.288 90.5139L275.205 92.6755C274.839 92.9318 275.021 93.5064 275.467 93.5064H286.564C287.227 93.5064 287.795 93.0317 287.913 92.3793L288.175 90.9276C288.276 90.3671 287.845 89.8517 287.276 89.8517Z" fill="#242B33"/>
<path d="M325.098 101.692C325.291 100.594 324.853 99.4793 323.963 98.8069L321.37 96.8478C320.854 96.4583 320.226 96.2477 319.58 96.2477H314.183L314.344 95.334H309.773L309.611 96.2477H303.456C302.705 96.2477 301.972 96.4789 301.358 96.9099L298.328 99.0341C297.535 99.5901 296.995 100.438 296.827 101.392L295.794 107.249C295.6 108.348 296.038 109.462 296.928 110.134L299.521 112.094C300.037 112.483 300.665 112.694 301.311 112.694H306.712L306.547 113.607H311.119L311.283 112.694H317.436C318.186 112.694 318.919 112.462 319.534 112.031L322.564 109.907C323.357 109.351 323.896 108.503 324.065 107.549L325.098 101.692ZM307.356 109.039H301.136C300.567 109.039 300.137 108.526 300.236 107.967L301.458 101.035C301.573 100.38 302.143 99.9023 302.808 99.9023H308.967L307.356 109.039ZM319.756 99.9023C320.324 99.9023 320.754 100.415 320.656 100.975L319.433 107.906C319.318 108.561 318.749 109.039 318.084 109.039H311.928L313.539 99.9023H319.756Z" fill="#242B33"/>
</g>
</g>
<defs>
<clipPath id="clip0_4932_30341">
<rect width="343" height="198" rx="4" fill="white"/>
</clipPath>
<clipPath id="clip1_4932_30341">
<rect x="-47" y="-32" width="454" height="262.076" rx="5.29446" fill="white"/>
</clipPath>
</defs>
</svg>
