<svg width="343" height="198" viewBox="0 0 343 198" fill="none" xmlns="http://www.w3.org/2000/svg">
<g clip-path="url(#clip0_4823_20983)">
<rect width="455" height="263" transform="translate(-46 -32)" fill="white"/>
<path d="M51.2065 121.788C63.8419 121.788 74.0849 111.545 74.0849 98.9096C74.0849 86.2743 63.8419 76.0312 51.2065 76.0312C38.5711 76.0312 28.3281 86.2743 28.3281 98.9096C28.3281 111.545 38.5711 121.788 51.2065 121.788Z" fill="#242B33"/>
<path fill-rule="evenodd" clip-rule="evenodd" d="M63.9726 85.663L62.783 84.5649C62.5771 84.359 62.3025 84.2674 62.0051 84.2674H52.4419C52.1216 84.2674 51.8013 84.3818 51.5497 84.5878L50.3371 85.6173C49.5821 84.6335 48.3925 84.0158 46.9511 84.0158C44.16 84.0158 41.529 86.2579 41.0256 89.049C40.7053 90.8107 41.3459 92.3664 42.5585 93.2587L40.5681 104.515C39.0352 105.407 37.8455 106.963 37.5252 108.724C37.0448 111.516 38.8979 113.758 41.6662 113.758C43.1304 113.758 44.5718 113.117 45.6699 112.11L46.8596 113.231C47.0655 113.437 47.3401 113.529 47.6375 113.529H57.2006C57.5209 113.529 57.8412 113.415 58.0929 113.209L59.4885 112.019C59.7401 111.813 59.9003 111.516 59.9461 111.218L60.7239 106.826C60.7926 106.437 60.6553 106.048 60.3807 105.796L59.1911 104.698C58.9852 104.492 58.7106 104.4 58.4132 104.4H55.6678L55.3475 106.231H59.008L58.0471 111.722H47.0655L48.0264 106.231H51.687L52.0072 104.4H48.85C48.5297 104.4 48.2094 104.515 47.9578 104.721L46.9969 105.544C46.7452 105.155 46.4249 104.812 46.036 104.538L48.0264 93.2815C48.5297 92.9841 49.0102 92.6181 49.422 92.1834L50.4058 93.0985C50.6117 93.3044 50.8862 93.3959 51.1836 93.3959H53.929L54.2493 91.5657H50.5888L51.5497 86.0748H62.5313L61.5704 91.5657H57.9099L57.5896 93.3959H60.7468C61.0671 93.3959 61.3874 93.2815 61.6391 93.0756L63.0346 91.8859C63.2863 91.68 63.4464 91.3826 63.4922 91.0852L64.2701 86.6926C64.4073 86.3265 64.2701 85.9376 63.9726 85.663ZM44.0456 105.682C45.3039 106.071 46.036 107.306 45.7843 108.747C45.464 110.509 43.7939 111.95 42.0094 111.95C40.2249 111.95 39.0581 110.509 39.3784 108.747C39.63 107.306 40.8197 106.071 42.2153 105.682L44.5947 92.1376C43.3363 91.7487 42.6042 90.5132 42.8559 89.0719C43.1762 87.3103 44.8463 85.8689 46.6308 85.8689C48.4153 85.8689 49.5821 87.3103 49.2618 89.0719C49.0102 90.5132 47.8205 91.7487 46.4249 92.1376L44.0456 105.682Z" fill="white"/>
<path d="M49.4906 102.113H49.9482L50.1083 101.152H50.9091L51.0006 100.74H50.1999L50.2685 100.236H51.4124L51.5039 99.8247H49.9024L49.4906 102.113Z" fill="white"/>
<path d="M51.5497 102.113H52.0072L52.4191 99.8247H51.9615L51.5497 102.113Z" fill="white"/>
<path d="M52.808 100.236H53.4943L53.1512 102.113H53.6087L53.929 100.236H54.6154L54.7069 99.8247H52.8766L52.808 100.236Z" fill="white"/>
<path d="M56.377 101.38L55.622 99.8247H55.1645L54.7526 102.113H55.2102L55.4848 100.557L56.2397 102.113H56.6973L57.1091 99.8247H56.6516L56.377 101.38Z" fill="white"/>
<path d="M57.3837 102.113H58.9851L59.0538 101.701H57.9099L58.0014 101.152H58.8021L58.8936 100.74H58.0929L58.1615 100.236H59.3054L59.397 99.8247H57.7955L57.3837 102.113Z" fill="white"/>
<path d="M59.9003 100.168L59.7859 100.808C59.763 100.991 59.9003 101.152 60.0833 101.152H60.9984L60.9069 101.701H59.6486L59.58 102.113H60.9527C61.1586 102.113 61.3187 101.975 61.3645 101.769L61.4789 101.083C61.5018 100.9 61.3645 100.74 61.1815 100.74H60.2663L60.3579 100.236H61.5018L61.5704 99.8247H60.3121C60.1062 99.8247 59.9232 99.962 59.9003 100.168Z" fill="white"/>
<path d="M53.1969 97.9944H53.6545L53.8146 97.0793L54.8442 95.7066H54.3408L53.6774 96.6217L53.3113 95.7066H52.7851L53.3571 97.0793L53.1969 97.9944Z" fill="white"/>
<path d="M55.256 97.9944L55.5076 96.4845L55.9652 97.5369H56.0567L56.8803 96.4845L56.6287 97.9944H57.0863L57.4752 95.7066H57.0176L56.1482 96.8505L55.6449 95.7066H55.1873L54.7984 97.9944H55.256Z" fill="white"/>
<path d="M63.7667 100.236L63.8354 99.8247H62.5771C62.3711 99.8247 62.211 99.962 62.1652 100.168L62.0509 100.808C62.028 100.991 62.1652 101.152 62.3483 101.152H63.2634L63.1719 101.701H61.9136L61.8449 102.113H63.2176C63.4235 102.113 63.5837 101.975 63.6295 101.769L63.7438 101.083C63.7667 100.9 63.6295 100.74 63.4464 100.74H62.5313L62.6228 100.236H63.7667V100.236Z" fill="white"/>
<path d="M50.5659 97.9944H51.6869C51.8929 97.9944 52.053 97.8572 52.0988 97.6513L52.2818 96.6217H51.3667L51.298 97.0335H51.7556L51.6641 97.5826H50.7489L51.0006 96.1184H52.2589L52.3275 95.7066H50.9548C50.7489 95.7066 50.5888 95.8439 50.543 96.0498L50.2685 97.6513C50.2456 97.8343 50.3829 97.9944 50.5659 97.9944Z" fill="white"/>
<path d="M58.6877 97.9944H59.2139C59.3054 97.9944 59.397 97.9487 59.4885 97.9029L59.7401 97.697L59.946 97.9944H60.518L60.1062 97.3767L60.518 97.0107L60.2892 96.7361L59.9003 97.0793L59.3512 96.2785L59.3741 96.1184H59.8317L59.7859 96.3929H60.2435L60.3121 96.0498C60.335 95.8667 60.1977 95.7066 60.0147 95.7066H59.3512C59.1453 95.7066 58.9852 95.8439 58.9394 96.0498L58.8936 96.2785C58.8708 96.3472 58.8936 96.4387 58.9394 96.5073L59.0309 96.6446L58.6191 96.9878C58.5505 97.0564 58.5047 97.1251 58.4818 97.2394L58.4132 97.6513C58.3674 97.8343 58.5047 97.9944 58.6877 97.9944ZM58.9394 97.1937L59.2368 96.942L59.5342 97.3767L59.2826 97.5826H58.8708L58.9394 97.1937Z" fill="white"/>
<path d="M89.3153 99.4101L90.176 94.5252C90.3035 93.859 90.8772 93.3832 91.5147 93.3832H106.846L107.484 89.7354H92.0885C91.3235 89.7354 90.5903 89.9891 89.9528 90.4332L87.0204 92.5268C86.2554 93.066 85.7135 93.9225 85.5541 94.8424L85.076 97.4434C84.7573 99.1246 86.0641 100.647 87.7854 100.647H101.747C102.32 100.647 102.735 101.155 102.639 101.726L102.384 103.185C102.257 103.851 101.683 104.327 101.045 104.327H83.8966L83.2591 107.975H102.671C104.679 107.975 106.368 106.547 106.719 104.581L107.293 101.313C107.675 99.0929 105.954 97.0311 103.691 97.0311H94.5747C93.8097 97.0311 93.0766 97.2531 92.471 97.6972L89.6978 99.6322C89.5066 99.7591 89.2835 99.6322 89.3153 99.4101Z" fill="#242B33"/>
<path d="M112.552 94.9058L110.225 108.006H114.815L115.74 102.772C115.867 102.106 116.441 101.631 117.078 101.631H132.601C134.609 101.631 136.299 100.203 136.649 98.2364L137.383 94.0493C137.765 91.8289 136.044 89.767 133.781 89.767H119.15C118.385 89.767 117.652 89.9891 117.046 90.4332L114.018 92.5584C113.253 93.0977 112.711 93.9541 112.552 94.9058ZM130.976 97.9509H121.381C120.616 97.9509 119.883 98.173 119.278 98.6171L116.505 100.552C116.345 100.679 116.122 100.52 116.154 100.33L117.174 94.5251C117.301 93.859 117.875 93.3832 118.513 93.3832H131.836C132.41 93.3832 132.824 93.8907 132.729 94.4617L132.314 96.809C132.219 97.4751 131.645 97.9509 130.976 97.9509Z" fill="#242B33"/>
<path d="M145.925 90.4332L142.897 92.5584C142.1 93.0977 141.558 93.9541 141.399 94.9058L140.028 102.582C139.837 103.692 140.283 104.803 141.176 105.469L143.757 107.435C144.267 107.816 144.905 108.038 145.542 108.038H159.854C160.619 108.038 161.352 107.816 161.958 107.372L164.986 105.247C165.783 104.707 166.325 103.851 166.484 102.899L167.855 95.223C168.046 94.1128 167.6 93.0025 166.707 92.3364L164.125 90.3697C163.615 89.9891 162.978 89.767 162.34 89.767H148.029C147.264 89.767 146.531 89.9891 145.925 90.4332ZM160.524 104.327H145.383C144.809 104.327 144.395 103.819 144.491 103.248L146.052 94.5251C146.18 93.859 146.754 93.3832 147.391 93.3832H162.532C163.105 93.3832 163.52 93.8907 163.424 94.4617L161.862 103.185C161.767 103.851 161.193 104.327 160.524 104.327Z" fill="#242B33"/>
<path d="M193.769 89.767H179.138C178.373 89.767 177.64 89.9891 177.035 90.4332L174.007 92.5584C173.21 93.0977 172.668 93.9541 172.509 94.9058L170.182 108.006H174.74L175.664 102.772C175.792 102.106 176.365 101.631 177.003 101.631H186.852C187.171 101.631 187.426 101.789 187.617 102.043L191.697 108.006H196.733L192.494 101.789C192.43 101.726 192.494 101.631 192.59 101.631C194.598 101.631 196.287 100.203 196.638 98.2364L197.371 94.0493C197.753 91.7972 196.032 89.767 193.769 89.767ZM190.932 97.9509H181.338C180.605 97.9509 179.872 98.173 179.266 98.5853L176.493 100.489C176.334 100.615 176.11 100.457 176.142 100.267L177.162 94.4934C177.29 93.8273 177.864 93.3515 178.501 93.3515H191.825C192.398 93.3515 192.813 93.859 192.717 94.43L192.303 96.7773C192.175 97.4751 191.602 97.9509 190.932 97.9509Z" fill="#242B33"/>
<path d="M234.282 89.767H229.692L227.142 104.232C226.791 106.198 228.289 107.975 230.298 107.975H247.542L248.179 104.327H232.784C232.21 104.327 231.796 103.819 231.891 103.248L234.282 89.767Z" fill="#242B33"/>
<path d="M251.175 107.975H255.765L258.985 89.767H254.395L251.175 107.975Z" fill="#242B33"/>
<path d="M286.716 93.4149L287.353 89.767H269.28C268.515 89.767 267.782 89.9891 267.177 90.4332L264.149 92.5584C263.352 93.0977 262.81 93.9541 262.65 94.9058L260.324 108.006H264.914L265.838 102.772C265.965 102.106 266.539 101.631 267.177 101.631H283.433L284.07 97.9827H271.512C270.747 97.9827 270.014 98.2047 269.408 98.6488L266.635 100.584C266.475 100.711 266.252 100.552 266.284 100.362L267.304 94.5568C267.432 93.8907 268.005 93.4149 268.643 93.4149H286.716Z" fill="#242B33"/>
<path d="M313.236 93.4149L313.873 89.767H295.8C295.035 89.767 294.302 89.9891 293.696 90.4332L290.668 92.5584C289.872 93.0977 289.33 93.9541 289.17 94.9058L287.608 103.724C287.226 105.944 288.947 108.006 291.21 108.006H310.654L311.291 104.358H293.155C292.581 104.358 292.166 103.851 292.262 103.28L292.517 101.821C292.645 101.155 293.218 100.679 293.856 100.679H310.08L310.718 97.031H298.159C297.394 97.031 296.661 97.2531 296.055 97.6972L293.282 99.6321C293.123 99.759 292.9 99.6004 292.931 99.4101L293.792 94.5251C293.92 93.859 294.493 93.3832 295.131 93.3832H313.236V93.4149Z" fill="#242B33"/>
<path d="M200.686 93.4149H213.468C213.691 93.4149 213.786 93.7004 213.595 93.8272L211.523 95.2864C210.726 95.8256 210.185 96.6821 210.025 97.6337L208.176 107.975H212.766L215.157 94.5251C215.284 93.859 215.858 93.3832 216.496 93.3832H225.421L226.09 89.7353H201.355L200.686 93.4149Z" fill="#242B33"/>
</g>
<defs>
<clipPath id="clip0_4823_20983">
<rect width="343" height="198" rx="4" fill="white"/>
</clipPath>
</defs>
</svg>
