<svg width="343" height="198" viewBox="0 0 343 198" fill="none" xmlns="http://www.w3.org/2000/svg">
<g clip-path="url(#clip0_4932_30090)">
<rect width="455" height="263" transform="translate(-56 -32)" fill="white"/>
<path d="M41.2065 121.788C53.8419 121.788 64.0849 111.545 64.0849 98.9096C64.0849 86.2743 53.8419 76.0312 41.2065 76.0312C28.5711 76.0312 18.3281 86.2743 18.3281 98.9096C18.3281 111.545 28.5711 121.788 41.2065 121.788Z" fill="#242B33"/>
<path fill-rule="evenodd" clip-rule="evenodd" d="M53.9727 85.663L52.783 84.5649C52.5771 84.359 52.3026 84.2674 52.0051 84.2674H42.442C42.1217 84.2674 41.8014 84.3818 41.5497 84.5878L40.3372 85.6173C39.5822 84.6335 38.3925 84.0158 36.9512 84.0158C34.16 84.0158 31.529 86.2579 31.0257 89.049C30.7054 90.8107 31.346 92.3664 32.5585 93.2587L30.5681 104.515C29.0352 105.407 27.8456 106.963 27.5253 108.724C27.0448 111.516 28.898 113.758 31.6663 113.758C33.1305 113.758 34.5718 113.117 35.67 112.11L36.8597 113.231C37.0656 113.437 37.3401 113.529 37.6375 113.529H47.2007C47.521 113.529 47.8413 113.415 48.0929 113.209L49.4885 112.019C49.7402 111.813 49.9003 111.516 49.9461 111.218L50.724 106.826C50.7926 106.437 50.6553 106.048 50.3808 105.796L49.1911 104.698C48.9852 104.492 48.7107 104.4 48.4132 104.4H45.6678L45.3475 106.231H49.0081L48.0472 111.722H37.0656L38.0265 106.231H41.687L42.0073 104.4H38.8501C38.5298 104.4 38.2095 104.515 37.9578 104.721L36.9969 105.544C36.7453 105.155 36.425 104.812 36.036 104.538L38.0265 93.2815C38.5298 92.9841 39.0102 92.6181 39.422 92.1834L40.4058 93.0985C40.6117 93.3044 40.8863 93.3959 41.1837 93.3959H43.9291L44.2494 91.5657H40.5888L41.5497 86.0748H52.5313L51.5705 91.5657H47.9099L47.5896 93.3959H50.7468C51.0671 93.3959 51.3874 93.2815 51.6391 93.0756L53.0347 91.8859C53.2863 91.68 53.4465 91.3826 53.4922 91.0852L54.2701 86.6926C54.4074 86.3265 54.2701 85.9376 53.9727 85.663ZM34.0456 105.682C35.3039 106.071 36.036 107.306 35.7844 108.747C35.4641 110.509 33.794 111.95 32.0094 111.95C30.2249 111.95 29.0581 110.509 29.3784 108.747C29.6301 107.306 30.8198 106.071 32.2153 105.682L34.5947 92.1376C33.3364 91.7487 32.6043 90.5132 32.8559 89.0719C33.1762 87.3103 34.8464 85.8689 36.6309 85.8689C38.4154 85.8689 39.5822 87.3103 39.2619 89.0719C39.0102 90.5132 37.8205 91.7487 36.425 92.1376L34.0456 105.682Z" fill="white"/>
<path d="M39.4907 102.113H39.9482L40.1084 101.152H40.9091L41.0006 100.74H40.1999L40.2685 100.236H41.4125L41.504 99.8247H39.9025L39.4907 102.113Z" fill="white"/>
<path d="M41.5497 102.113H42.0073L42.4191 99.8247H41.9615L41.5497 102.113Z" fill="white"/>
<path d="M42.808 100.236H43.4943L43.1512 102.113H43.6087L43.929 100.236H44.6154L44.7069 99.8247H42.8766L42.808 100.236Z" fill="white"/>
<path d="M46.3771 101.38L45.6221 99.8247H45.1645L44.7527 102.113H45.2103L45.4848 100.557L46.2398 102.113H46.6973L47.1092 99.8247H46.6516L46.3771 101.38Z" fill="white"/>
<path d="M47.3837 102.113H48.9852L49.0538 101.701H47.9099L48.0014 101.152H48.8021L48.8936 100.74H48.0929L48.1615 100.236H49.3055L49.397 99.8247H47.7955L47.3837 102.113Z" fill="white"/>
<path d="M49.9003 100.168L49.7859 100.808C49.763 100.991 49.9003 101.152 50.0833 101.152H50.9985L50.907 101.701H49.6487L49.58 102.113H50.9527C51.1586 102.113 51.3188 101.975 51.3645 101.769L51.4789 101.083C51.5018 100.9 51.3645 100.74 51.1815 100.74H50.2664L50.3579 100.236H51.5018L51.5704 99.8247H50.3121C50.1062 99.8247 49.9232 99.962 49.9003 100.168Z" fill="white"/>
<path d="M43.1969 97.9944H43.6545L43.8146 97.0793L44.8441 95.7066H44.3408L43.6774 96.6217L43.3113 95.7066H42.7851L43.3571 97.0793L43.1969 97.9944Z" fill="white"/>
<path d="M45.256 97.9944L45.5076 96.4845L45.9652 97.5369H46.0567L46.8803 96.4845L46.6287 97.9944H47.0862L47.4752 95.7066H47.0176L46.1482 96.8505L45.6449 95.7066H45.1873L44.7984 97.9944H45.256Z" fill="white"/>
<path d="M53.7668 100.236L53.8354 99.8247H52.5771C52.3712 99.8247 52.211 99.962 52.1653 100.168L52.0509 100.808C52.028 100.991 52.1653 101.152 52.3483 101.152H53.2634L53.1719 101.701H51.9136L51.845 102.113H53.2177C53.4236 102.113 53.5837 101.975 53.6295 101.769L53.7439 101.083C53.7668 100.9 53.6295 100.74 53.4465 100.74H52.5313L52.6228 100.236H53.7668V100.236Z" fill="white"/>
<path d="M40.5659 97.9944H41.6869C41.8928 97.9944 42.053 97.8572 42.0988 97.6513L42.2818 96.6217H41.3666L41.298 97.0335H41.7556L41.6641 97.5826H40.7489L41.0006 96.1184H42.2589L42.3275 95.7066H40.9548C40.7489 95.7066 40.5888 95.8439 40.543 96.0498L40.2685 97.6513C40.2456 97.8343 40.3829 97.9944 40.5659 97.9944Z" fill="white"/>
<path d="M48.6878 97.9944H49.214C49.3055 97.9944 49.397 97.9487 49.4885 97.9029L49.7402 97.697L49.9461 97.9944H50.518L50.1062 97.3767L50.518 97.0107L50.2893 96.7361L49.9003 97.0793L49.3512 96.2785L49.3741 96.1184H49.8317L49.7859 96.3929H50.2435L50.3121 96.0498C50.335 95.8667 50.1977 95.7066 50.0147 95.7066H49.3512C49.1453 95.7066 48.9852 95.8439 48.9394 96.0498L48.8937 96.2785C48.8708 96.3472 48.8937 96.4387 48.9394 96.5073L49.0309 96.6446L48.6191 96.9878C48.5505 97.0564 48.5047 97.1251 48.4819 97.2394L48.4132 97.6513C48.3675 97.8343 48.5047 97.9944 48.6878 97.9944ZM48.9394 97.1937L49.2368 96.942L49.5343 97.3767L49.2826 97.5826H48.8708L48.9394 97.1937Z" fill="white"/>
<path d="M96.8697 93.4188H81.5412C80.8778 93.4188 80.3058 93.8993 80.1914 94.5628L78.6357 103.325C78.5442 103.874 78.9789 104.4 79.5279 104.4H94.9022L94.2387 108.061H79.5966C78.9331 108.061 78.2925 107.832 77.7892 107.443L75.2726 105.499C74.4032 104.812 73.9685 103.714 74.1515 102.639L75.5013 94.9288C75.6615 93.9679 76.2106 93.1214 77.0113 92.5723L80.0541 90.4447C80.6719 90.01 81.404 89.7812 82.159 89.7812H97.4646L96.8697 93.4188Z" fill="#242B33"/>
<path d="M102.521 108.061H97.945L100.256 94.9059C100.416 93.945 100.965 93.0985 101.766 92.5494L104.809 90.4217C105.426 89.9871 106.158 89.7583 106.913 89.7583H119.382C120.023 89.7583 120.663 89.9642 121.167 90.3531L123.775 92.3207C124.667 92.9841 125.102 94.1052 124.919 95.2033L122.654 108.061H118.078L120.48 94.4941C120.572 93.945 120.137 93.4188 119.588 93.4188H106.273C105.609 93.4188 105.037 93.8993 104.923 94.5627L102.521 108.061Z" fill="#242B33"/>
<path d="M134.093 90.4217L131.05 92.5494C130.249 93.0985 129.723 93.945 129.54 94.9059L128.19 102.593C128.007 103.691 128.442 104.812 129.334 105.476L131.942 107.443C132.469 107.832 133.086 108.038 133.727 108.038H148.049C148.804 108.038 149.536 107.809 150.154 107.375L153.196 105.247C153.997 104.698 154.523 103.851 154.706 102.89L156.056 95.2033C156.239 94.1052 155.804 92.9841 154.912 92.3207L152.304 90.3531C151.778 89.9642 151.16 89.7583 150.52 89.7583H136.198C135.443 89.7583 134.711 89.9871 134.093 90.4217ZM148.689 104.4H133.544C132.972 104.4 132.537 103.897 132.652 103.325L134.207 94.5627C134.322 93.8993 134.894 93.4188 135.557 93.4188H150.703C151.275 93.4188 151.709 93.9221 151.595 94.4941L150.039 103.257C149.925 103.92 149.353 104.4 148.689 104.4Z" fill="#242B33"/>
<path d="M181.909 89.7583H167.289C166.534 89.7583 165.802 89.9871 165.185 90.4217L162.142 92.5494C161.341 93.0985 160.815 93.945 160.632 94.9059L158.344 108.061H162.92L163.858 102.799C163.972 102.135 164.544 101.655 165.207 101.655H180.742C182.732 101.655 184.448 100.214 184.791 98.2461L185.523 94.0594C185.912 91.8173 184.197 89.7583 181.909 89.7583ZM179.095 97.9945H169.509C168.754 97.9945 168.021 98.2233 167.404 98.658L164.635 100.603C164.475 100.717 164.247 100.58 164.269 100.374L165.299 94.5399C165.413 93.8764 165.985 93.3959 166.649 93.3959H179.964C180.536 93.3959 180.971 93.8993 180.856 94.4712L180.444 96.8277C180.33 97.514 179.758 97.9945 179.095 97.9945Z" fill="#242B33"/>
<path d="M214.19 89.7583H189.504L188.841 93.4188H201.607C201.836 93.4188 201.927 93.7162 201.744 93.8306L199.662 95.2948C198.862 95.8439 198.335 96.6904 198.152 97.6513L196.322 108.061H200.898L203.277 94.5627C203.391 93.8993 203.963 93.4188 204.627 93.4188H213.527L214.19 89.7583Z" fill="#242B33"/>
<path d="M233.385 108.061L228.97 91.9546C228.626 90.6505 227.437 89.7583 226.11 89.7583H225.629H223.09C221.831 89.7583 220.665 90.3989 219.978 91.4741L209.592 108.061H214.167L223.799 92.6867C224.005 92.3435 224.531 92.435 224.623 92.8011L228.809 108.061H233.385Z" fill="#242B33"/>
<path d="M264.225 94.0594C264.614 91.8173 262.898 89.7583 260.61 89.7583H245.991C245.236 89.7583 244.504 89.9871 243.886 90.4217L240.843 92.5494C240.043 93.0985 239.517 93.945 239.333 94.9059L237.023 108.061H241.598L242.376 103.714C242.491 103.051 243.063 102.57 243.726 102.57H258.139L257.179 108.061H261.754L264.225 94.0594ZM258.803 98.9096H248.073C247.318 98.9096 246.586 99.1384 245.968 99.5731L243.2 101.518C243.04 101.632 242.811 101.495 242.834 101.289L244.024 94.5399C244.138 93.8764 244.71 93.3959 245.373 93.3959H258.689C259.261 93.3959 259.695 93.8993 259.581 94.4712L258.803 98.9096Z" fill="#242B33"/>
<path d="M289.689 89.7583H294.264L291.633 104.652C291.29 106.62 289.574 108.061 287.584 108.061H272.827C272.187 108.061 271.546 107.855 271.043 107.466L268.435 105.499C267.542 104.835 267.108 103.714 267.291 102.616L269.556 89.7583H274.131L271.729 103.325C271.638 103.874 272.072 104.4 272.621 104.4H285.937C286.6 104.4 287.172 103.92 287.287 103.257L289.689 89.7583Z" fill="#242B33"/>
<path d="M287.744 84.2675H280.835C280.08 84.2675 279.348 84.4962 278.73 84.9309L275.641 87.1044C275.275 87.356 275.458 87.928 275.893 87.928H287.012C287.675 87.928 288.247 87.4475 288.362 86.807L288.613 85.3427C288.751 84.7937 288.316 84.2675 287.744 84.2675Z" fill="#242B33"/>
<path d="M325.631 96.1185C325.814 95.0203 325.379 93.8993 324.487 93.2358L321.879 91.2682C321.352 90.8793 320.735 90.6734 320.094 90.6734H314.695L314.855 89.7583H310.279L310.119 90.6734H303.965C303.21 90.6734 302.478 90.9022 301.86 91.3369L298.817 93.4646C298.016 94.0137 297.49 94.8601 297.307 95.821L296.278 101.678C296.095 102.776 296.529 103.897 297.422 104.561L300.03 106.528C300.556 106.917 301.174 107.123 301.814 107.123H307.214L307.053 108.038H311.629L311.789 107.123H317.944C318.699 107.123 319.431 106.894 320.048 106.459L323.091 104.332C323.892 103.783 324.418 102.936 324.601 101.975L325.631 96.1185ZM307.854 103.485H301.631C301.059 103.485 300.625 102.982 300.739 102.41L301.974 95.4779C302.089 94.8144 302.661 94.3339 303.324 94.3339H309.501L307.854 103.485ZM320.277 94.3339C320.849 94.3339 321.284 94.8373 321.169 95.4092L319.934 102.341C319.82 103.005 319.248 103.485 318.584 103.485H312.407L314.031 94.3339H320.277Z" fill="#242B33"/>
</g>
<defs>
<clipPath id="clip0_4932_30090">
<rect width="343" height="198" rx="4" fill="white"/>
</clipPath>
</defs>
</svg>
