<svg width="832" height="190" viewBox="0 0 832 190" fill="none" xmlns="http://www.w3.org/2000/svg">
<rect width="832" height="190" rx="4" fill="#09151E"/>
<path d="M174.302 48.123C166.269 63.4467 165.108 73.9508 164.415 77.2874C163.798 80.2533 161.573 85.5672 161.202 87.4208C160.832 89.2745 161.697 97.3071 160.461 102.127C159.225 106.946 155.394 120.787 157.001 124.123C158.607 127.46 166.022 128.819 166.887 131.044C167.752 133.268 167.629 136.111 163.427 136.234C162.191 137.841 160.585 137.346 160.09 137.223C159.349 138.458 156.506 139.2 153.541 137.964C150.698 140.312 144.89 139.892 142.171 139.447C139.601 139.027 138.464 136.358 138.464 136.358C138.168 135.814 137.723 135.369 137.723 135.369" stroke="#A3876E" stroke-width="2" stroke-miterlimit="10" stroke-linecap="round" stroke-linejoin="round"/>
<path d="M144.271 48C143.283 55.2911 139.081 67.4017 134.756 73.2099C130.431 79.0181 120.05 86.4327 124.005 94.3417C127.959 102.251 134.262 105.711 135.127 106.452C135.992 107.194 136.486 108.059 134.879 112.384C133.273 116.709 129.071 129.438 131.469 133.639C134.385 138.706 139.155 137.643 139.155 137.643" stroke="#A3876E" stroke-width="2" stroke-miterlimit="10" stroke-linecap="round" stroke-linejoin="round"/>
<path d="M145.211 125.482C146.397 127.336 149.66 132.156 150.525 132.774C151.39 133.391 154.677 133.317 153.54 137.964" stroke="#A3876E" stroke-width="2" stroke-miterlimit="10" stroke-linecap="round" stroke-linejoin="round"/>
<path d="M153.615 129.512C154.48 130.055 156.037 131.934 156.334 132.28C156.631 132.626 161.796 132.156 160.091 137.223" stroke="#A3876E" stroke-width="2" stroke-miterlimit="10" stroke-linecap="round" stroke-linejoin="round"/>
<path d="M158.805 129.561C159.744 130.104 162.092 130.994 162.932 131.785C163.451 132.279 164.86 133.515 163.426 136.234" stroke="#A3876E" stroke-width="2" stroke-miterlimit="10" stroke-linecap="round" stroke-linejoin="round"/>
<path d="M116.342 48.2471C113.253 61.9642 109.026 83.4421 110.534 88.657C112.141 94.218 115.601 96.4424 115.724 101.756C115.848 107.441 115.23 113.002 116.095 117.451C116.96 121.899 118.69 125.978 119.679 129.314C120.667 132.651 123.732 138.681 119.926 140.436C116.169 142.191 109.496 141.87 108.063 140.436C105.962 141.548 102.254 142.166 99.6593 140.93C96.4462 141.796 94.469 141.548 93.2332 140.189C90.6381 141.054 88.2901 140.93 87.425 139.448C85.2006 140.189 82.9762 139.2 83.7177 135.864C84.4592 132.527 87.5486 130.303 89.6494 127.955C91.7503 125.607 92.7389 123.877 92.986 119.304C93.1343 116.338 94.3949 113.595 95.4823 111.346" stroke="#A3876E" stroke-width="2" stroke-miterlimit="10" stroke-linecap="round" stroke-linejoin="round"/>
<path d="M93.8521 115.226C93.9262 113.99 93.8521 113.57 92.9376 111.692C92.0232 109.814 91.3805 107.985 92.3692 104.772C93.3578 101.559 94.0251 97.604 91.7019 88.8794C89.3786 80.1548 83.9659 62.0136 81 48.1729" stroke="#A3876E" stroke-width="2" stroke-miterlimit="10" stroke-linecap="round" stroke-linejoin="round"/>
<path d="M108.559 134.134C107.57 135.172 106.829 138.335 108.262 140.436" stroke="#A3876E" stroke-width="2" stroke-miterlimit="10" stroke-linecap="round" stroke-linejoin="round"/>
<path d="M102.008 134.134C100.648 136.062 99.1654 138.039 99.6598 140.931" stroke="#A3876E" stroke-width="2" stroke-miterlimit="10" stroke-linecap="round" stroke-linejoin="round"/>
<path d="M95.5076 134.184C93.9752 136.284 93.0608 137.669 93.2338 140.189" stroke="#A3876E" stroke-width="2" stroke-miterlimit="10" stroke-linecap="round" stroke-linejoin="round"/>
<path d="M90.0945 133.442C88.7846 135.296 87.3016 137.224 87.4252 139.448" stroke="#A3876E" stroke-width="2" stroke-miterlimit="10" stroke-linecap="round" stroke-linejoin="round"/>
<path d="M267.735 118.209C267.735 118.209 268.006 103.015 268.426 97.77C268.727 94.1223 272.331 94.1223 273.172 97.77C273.623 99.7596 274.704 102.382 275.155 103.377C275.606 104.372 276.687 105.819 278.429 106.181C280.292 106.573 281.493 106.573 282.785 106.754C284.047 106.904 284.738 106.844 287.982 105.879C291.226 104.915 298.195 102.835 301.47 101.84C304.624 100.905 306.907 100.001 311.893 102.925C316.91 105.819 323.399 109.497 324.961 110.431C326.523 111.336 328.535 112.723 333.943 113.235C339.47 113.748 369.209 116.853 370.32 117.033C371.432 117.184 372.333 117.727 372.994 119.023C373.655 120.319 374.766 122.068 375.277 123.123C375.788 124.178 376.599 126.228 373.595 128.248C370.561 130.268 365.905 133.313 361.669 135.393C357.434 137.473 348.452 141.663 334.934 141.633C321.296 141.603 288.913 141.542 284.317 141.512C279.751 141.482 279.15 140.879 275.696 138.739C272.271 136.598 264.491 130.207 263.169 129.062C261.817 127.916 261.547 126.349 262.839 124.54C264.161 122.641 267.735 118.209 267.735 118.209Z" stroke="#A3876E" stroke-width="2" stroke-miterlimit="10" stroke-linecap="round" stroke-linejoin="round"/>
<path d="M267.736 118.209C267.736 118.209 325.232 129.273 330.429 130.298C335.626 131.353 338.81 132.167 345.959 130.539C353.079 128.881 367.738 125.203 369.45 124.6C371.163 123.998 371.553 123.877 371.583 120.591L371.643 117.396" stroke="#A3876E" stroke-width="2" stroke-miterlimit="10" stroke-linecap="round" stroke-linejoin="round"/>
<path d="M300.148 102.232C300.148 102.232 300.239 97.3787 300.239 95.178C300.269 93.0075 301.41 90.5958 306.487 93.6707C311.563 96.7155 342.985 114.02 342.985 114.02" stroke="#A3876E" stroke-width="2" stroke-miterlimit="10" stroke-linecap="round" stroke-linejoin="round"/>
<path d="M323.94 115.104L316.1 127.585" stroke="#A3876E" stroke-width="2" stroke-miterlimit="10"/>
<path d="M316.97 111.186L307.598 125.897" stroke="#A3876E" stroke-width="2" stroke-miterlimit="10"/>
<path d="M309.732 106.904L298.918 124.027" stroke="#A3876E" stroke-width="2" stroke-miterlimit="10"/>
<path d="M373.024 71.4239C373.024 71.4239 372.754 86.6177 372.333 91.8631C372.033 95.5108 368.428 95.5108 367.587 91.8631C367.137 89.8735 366.055 87.2507 365.605 86.2559C365.154 85.2611 364.073 83.814 362.33 83.4523C360.468 83.0604 359.266 83.0604 357.975 82.8795C356.713 82.7288 356.022 82.7891 352.778 83.7537C349.533 84.7184 342.564 86.7985 339.29 87.7934C336.136 88.7279 333.853 89.6323 328.866 86.7081C323.85 83.814 317.361 80.1362 315.799 79.2016C314.237 78.2973 312.224 76.9105 306.817 76.398C301.29 75.8856 271.551 72.7805 270.439 72.5996C269.328 72.4489 268.426 71.9062 267.766 70.6099C267.105 69.3136 265.993 67.5652 265.483 66.51C264.972 65.4549 264.161 63.405 267.165 61.3851C270.199 59.3653 274.855 56.3206 279.091 54.2405C283.326 52.1604 292.308 47.97 305.826 48.0002C319.464 48.0303 351.846 48.0906 356.443 48.1207C361.009 48.1509 361.609 48.7538 365.064 50.8942C368.488 53.0346 376.269 59.4256 377.59 60.5712C378.942 61.7168 379.213 63.2844 377.921 65.0932C376.569 67.0225 373.024 71.4239 373.024 71.4239Z" stroke="#A3876E" stroke-width="2" stroke-miterlimit="10" stroke-linecap="round" stroke-linejoin="round"/>
<path d="M373.024 71.4233C373.024 71.4233 315.528 60.3596 310.332 59.3346C305.135 58.2795 301.95 57.4656 294.801 59.0935C287.682 60.7515 273.022 64.4294 271.31 65.0323C269.598 65.6352 269.207 65.7558 269.177 69.0418L269.117 72.2373" stroke="#A3876E" stroke-width="2" stroke-miterlimit="10" stroke-linecap="round" stroke-linejoin="round"/>
<path d="M340.583 87.4318C340.583 87.4318 340.492 92.2853 340.492 94.486C340.462 96.6565 339.321 99.0683 334.244 95.9933C329.168 92.9485 297.746 75.6445 297.746 75.6445" stroke="#A3876E" stroke-width="2" stroke-miterlimit="10" stroke-linecap="round" stroke-linejoin="round"/>
<path d="M316.82 74.5587L324.631 62.0781" stroke="#A3876E" stroke-width="2" stroke-miterlimit="10"/>
<path d="M323.76 78.4477L333.132 63.7363" stroke="#A3876E" stroke-width="2" stroke-miterlimit="10"/>
<path d="M331 82.7589L341.814 65.6357" stroke="#A3876E" stroke-width="2" stroke-miterlimit="10"/>
<path d="M475.173 111.999C476.831 113.53 478.591 113.759 479.739 112.713C482.902 109.423 474.79 99.7294 469.306 105.061C465.403 109.627 470.709 116.029 474.484 117.279C478.132 118.478 481.958 119.499 483.999 117.534C487.672 114.014 486.626 107.254 482.494 102.28C478.31 97.2295 469.79 94.7807 464.969 100.035C458.312 107.305 463.005 120.493 474.229 123.095C483.131 125.136 486.371 125.876 490.325 120.187C495.018 112.739 492.672 99.6783 480.223 92.638C476.448 90.5973 465.071 88.3525 459.357 96.8214" stroke="#A3876E" stroke-width="2" stroke-miterlimit="10" stroke-linecap="round" stroke-linejoin="round"/>
<path d="M535.068 87.078L523.717 84.7822" stroke="#A3876E" stroke-width="2" stroke-miterlimit="10" stroke-linecap="round" stroke-linejoin="round"/>
<path d="M541.314 124.754C551.084 113.836 563.048 100.495 566.491 96.6432C567.333 95.7249 567.971 93.8117 565.318 93.225L551.263 90.3936" stroke="#A3876E" stroke-width="2" stroke-miterlimit="10" stroke-linecap="round" stroke-linejoin="round"/>
<path d="M463.642 91.873C462.673 92.8934 460.454 95.2402 458.668 97.7655C452.98 105.775 455.76 124.116 473.131 128.223C492.237 132.508 519.965 138.273 525.679 139.498C526.827 139.753 528.077 139.574 528.919 138.605C529.046 138.452 530.016 137.355 531.597 135.62" stroke="#A3876E" stroke-width="2" stroke-miterlimit="10" stroke-linecap="round" stroke-linejoin="round"/>
<path d="M488.155 122.789C488.155 122.789 527.566 80.7765 528.841 79.0165C533.586 72.3842 533.509 61.1349 525.27 54.1456C515.092 45.4726 504.047 49.0948 498.154 55.2424C497.287 56.1607 463.564 91.9748 463.564 91.9748" stroke="#A3876E" stroke-width="2" stroke-miterlimit="10" stroke-linecap="round" stroke-linejoin="round"/>
<path d="M477.852 105.775L475.173 108.836C474.229 109.78 474 110.928 475.173 111.999" stroke="#A3876E" stroke-width="2" stroke-miterlimit="10" stroke-linecap="round" stroke-linejoin="round"/>
<path d="M480.146 112.254L485.07 106.693" stroke="#A3876E" stroke-width="2" stroke-miterlimit="10" stroke-linecap="round" stroke-linejoin="round"/>
<path d="M484.994 116.387L492.06 108.505" stroke="#A3876E" stroke-width="2" stroke-miterlimit="10" stroke-linecap="round" stroke-linejoin="round"/>
<path d="M469.281 105.036L475.786 97.9189" stroke="#A3876E" stroke-width="2" stroke-miterlimit="10" stroke-linecap="round" stroke-linejoin="round"/>
<path d="M465.275 99.6781L473.081 90.9541" stroke="#A3876E" stroke-width="2" stroke-miterlimit="10" stroke-linecap="round" stroke-linejoin="round"/>
<path d="M552.335 82.2066C552.335 84.936 548.407 87.1808 543.56 87.1808C538.713 87.1808 534.785 84.9615 534.785 82.2066C534.785 79.4772 538.713 77.2324 543.56 77.2324C548.407 77.2324 552.335 79.4517 552.335 82.2066Z" stroke="#A3876E" stroke-width="2" stroke-miterlimit="10" stroke-linecap="round" stroke-linejoin="round"/>
<path d="M549.786 99.0156C549.786 100.954 547.005 102.536 543.587 102.536C540.169 102.536 537.389 100.954 537.389 99.0156" stroke="#A3876E" stroke-width="2" stroke-miterlimit="10" stroke-linecap="round" stroke-linejoin="round"/>
<path d="M536.471 84.6037C537.695 83.0732 540.424 82.0273 543.562 82.0273C546.725 82.0273 549.429 83.0732 550.653 84.6037" stroke="#A3876E" stroke-width="2" stroke-miterlimit="10" stroke-linecap="round" stroke-linejoin="round"/>
<path d="M552.338 82.4854L549.889 98.6068" stroke="#A3876E" stroke-width="2" stroke-miterlimit="10" stroke-linecap="round" stroke-linejoin="round"/>
<path d="M534.762 82.4854L537.236 98.6068" stroke="#A3876E" stroke-width="2" stroke-miterlimit="10" stroke-linecap="round" stroke-linejoin="round"/>
<path d="M539.048 127.662C539.073 127.968 539.048 130.417 539.048 130.621C539.048 131.233 538.64 131.744 537.976 131.846L524.967 133.886C524.125 134.014 523.207 133.478 522.926 132.687L515.682 113.071C515.554 112.689 515.427 112.357 515.427 111.388C515.427 110.954 515.427 109.143 515.427 109.092C515.401 108.48 515.835 107.97 516.498 107.893L529.431 106.005C530.273 105.878 531.191 106.439 531.472 107.23L538.92 127.127C539.226 127.917 538.767 128.657 537.951 128.81L524.942 130.851" stroke="#A3876E" stroke-width="2" stroke-miterlimit="10" stroke-linecap="round" stroke-linejoin="round"/>
<path d="M530.654 127.28C531.387 127.28 531.981 126.834 531.981 126.285C531.981 125.735 531.387 125.29 530.654 125.29C529.922 125.29 529.328 125.735 529.328 126.285C529.328 126.834 529.922 127.28 530.654 127.28Z" fill="#A3876E"/>
<path d="M523.027 109.755L526.012 109.296" stroke="#A3876E" stroke-width="2" stroke-miterlimit="10" stroke-linecap="round" stroke-linejoin="round"/>
<path d="M704.26 47C700.67 47 696.586 49.6517 694.24 52.4678C691.893 55.2838 685.956 59.813 683.281 61.5495C680.605 63.2861 672.955 67.6509 672.955 80.6281" stroke="#A3876E" stroke-width="2" stroke-miterlimit="10" stroke-linecap="round" stroke-linejoin="round"/>
<path d="M704.259 78.5869C695.177 78.7512 677.483 80.4408 672.039 81.4029C668.472 82.0366 668.753 86.378 668.918 88.2788C669.059 90.0623 669.692 93.9108 672.978 94.0751C676.263 94.2394 704.259 94.0751 704.259 94.0751" stroke="#A3876E" stroke-width="2" stroke-miterlimit="10" stroke-linecap="round" stroke-linejoin="round"/>
<path d="M676.357 94.1445C676.944 99.8705 678.704 113.692 679.291 117.799C679.877 121.906 681.872 127.538 684.688 130.119C687.504 132.701 690.555 136.807 692.08 138.802C693.606 140.797 695.765 142.909 704.236 142.909" stroke="#A3876E" stroke-width="2" stroke-miterlimit="10" stroke-linecap="round" stroke-linejoin="round"/>
<path d="M672.416 94.0742C671.243 94.4732 670.609 98.4625 671.783 101.044C672.956 103.625 674.364 106.676 674.833 107.779C675.303 108.882 676.312 109.961 678.189 109.821" stroke="#A3876E" stroke-width="2" stroke-miterlimit="10" stroke-linecap="round" stroke-linejoin="round"/>
<path d="M704.331 103.462C699.708 103.626 700.036 110.666 691.494 110.431C684.196 110.22 678.892 104.471 677.531 102.805" stroke="#A3876E" stroke-width="2" stroke-miterlimit="10" stroke-linecap="round" stroke-linejoin="round"/>
<path d="M704.237 118.645C702.336 118.598 699.989 117.636 698.957 116.885C697.901 116.11 697.901 114.585 698.722 112.309" stroke="#A3876E" stroke-width="2" stroke-miterlimit="10" stroke-linecap="round" stroke-linejoin="round"/>
<path d="M708.227 117.753C714.071 118.457 717.356 120.921 718.201 124.089C707.007 124.089 705.458 124.136 704.332 122.047" stroke="#A3876E" stroke-width="2" stroke-miterlimit="10" stroke-linecap="round" stroke-linejoin="round"/>
<path d="M700.46 117.753C694.617 118.457 691.331 120.921 690.486 124.089C701.68 124.089 703.229 124.136 704.355 122.047" stroke="#A3876E" stroke-width="2" stroke-miterlimit="10" stroke-linecap="round" stroke-linejoin="round"/>
<path d="M681.028 124.44C678.047 126.552 673.518 132.724 671.336 141.806" stroke="#A3876E" stroke-width="2" stroke-miterlimit="10" stroke-linecap="round" stroke-linejoin="round"/>
<path d="M673.66 134.532C669.131 135.635 659.181 138.991 652 142.441" stroke="#A3876E" stroke-width="2" stroke-miterlimit="10" stroke-linecap="round" stroke-linejoin="round"/>
<path d="M704.4 47C707.991 47 712.074 49.6517 714.421 52.4678C716.768 55.2838 722.705 59.813 725.38 61.5495C728.055 63.2861 735.705 67.6509 735.705 80.6281" stroke="#A3876E" stroke-width="2" stroke-miterlimit="10" stroke-linecap="round" stroke-linejoin="round"/>
<path d="M704.4 78.5869C713.482 78.7512 731.176 80.4408 736.62 81.4029C740.187 82.0366 739.906 86.378 739.742 88.2788C739.601 90.0623 738.967 93.9108 735.682 94.0751C732.396 94.2394 704.4 94.0751 704.4 94.0751" stroke="#A3876E" stroke-width="2" stroke-miterlimit="10" stroke-linecap="round" stroke-linejoin="round"/>
<path d="M732.304 94.1445C731.718 99.8705 729.958 113.692 729.371 117.799C728.784 121.906 726.79 127.538 723.974 130.119C721.158 132.701 718.107 136.807 716.582 138.802C715.056 140.797 712.897 142.909 704.426 142.909" stroke="#A3876E" stroke-width="2" stroke-miterlimit="10" stroke-linecap="round" stroke-linejoin="round"/>
<path d="M736.246 94.0742C737.419 94.4732 738.052 98.4625 736.879 101.044C735.706 103.625 734.298 106.676 733.828 107.779C733.359 108.882 732.35 109.961 730.473 109.821" stroke="#A3876E" stroke-width="2" stroke-miterlimit="10" stroke-linecap="round" stroke-linejoin="round"/>
<path d="M704.332 103.462C708.955 103.626 708.626 110.666 717.168 110.431C724.467 110.22 729.77 104.471 731.131 102.805" stroke="#A3876E" stroke-width="2" stroke-miterlimit="10" stroke-linecap="round" stroke-linejoin="round"/>
<path d="M704.426 118.645C706.327 118.598 708.673 117.636 709.706 116.885C710.762 116.11 710.762 114.585 709.941 112.309" stroke="#A3876E" stroke-width="2" stroke-miterlimit="10" stroke-linecap="round" stroke-linejoin="round"/>
<path d="M727.635 124.44C730.615 126.552 735.144 132.724 737.327 141.806" stroke="#A3876E" stroke-width="2" stroke-miterlimit="10" stroke-linecap="round" stroke-linejoin="round"/>
<path d="M735.002 134.532C739.531 135.635 749.481 138.991 756.662 142.441" stroke="#A3876E" stroke-width="2" stroke-miterlimit="10" stroke-linecap="round" stroke-linejoin="round"/>
<path d="M699.402 127.14C703.087 127.75 706.489 127.75 709.258 127.14" stroke="#A3876E" stroke-width="2" stroke-miterlimit="10" stroke-linecap="round" stroke-linejoin="round"/>
<path d="M703.486 130.847C704.096 130.917 704.66 130.941 705.176 130.847" stroke="#A3876E" stroke-width="2" stroke-miterlimit="10" stroke-linecap="round" stroke-linejoin="round"/>
<path d="M690.181 103.907C686.614 103.907 683.774 102.804 683.727 100.574C683.68 98.3451 686.614 97.2422 690.181 97.2422C693.748 97.2422 696.681 98.3451 696.634 100.574C696.587 102.804 693.748 103.907 690.181 103.907Z" stroke="#A3876E" stroke-width="2" stroke-miterlimit="10" stroke-linecap="round" stroke-linejoin="round"/>
<path d="M693.372 101.607C693.956 101.607 694.428 101.134 694.428 100.551C694.428 99.9679 693.956 99.4951 693.372 99.4951C692.789 99.4951 692.316 99.9679 692.316 100.551C692.316 101.134 692.789 101.607 693.372 101.607Z" fill="#A3876E"/>
<path d="M693.115 103.579C691.449 103.579 690.111 102.241 690.111 100.575C690.111 98.9089 691.449 97.5713 693.115 97.5713" stroke="#A3876E" stroke-width="2" stroke-miterlimit="10" stroke-linecap="round" stroke-linejoin="round"/>
<path d="M718.809 103.907C715.242 103.907 712.403 102.804 712.356 100.574C712.309 98.3451 715.242 97.2422 718.809 97.2422C722.376 97.2422 725.31 98.3451 725.263 100.574C725.216 102.804 722.376 103.907 718.809 103.907Z" stroke="#A3876E" stroke-width="2" stroke-miterlimit="10" stroke-linecap="round" stroke-linejoin="round"/>
<path d="M722.001 101.607C722.585 101.607 723.057 101.134 723.057 100.551C723.057 99.9679 722.585 99.4951 722.001 99.4951C721.418 99.4951 720.945 99.9679 720.945 100.551C720.945 101.134 721.418 101.607 722.001 101.607Z" fill="#A3876E"/>
<path d="M721.744 103.579C720.078 103.579 718.74 102.241 718.74 100.575C718.74 98.9089 720.078 97.5713 721.744 97.5713" stroke="#A3876E" stroke-width="2" stroke-miterlimit="10" stroke-linecap="round" stroke-linejoin="round"/>
</svg>
