<svg width="832" height="560" viewBox="0 0 832 560" fill="none" xmlns="http://www.w3.org/2000/svg">
<rect width="832" height="560" rx="4" fill="#09151E"/>
<path d="M606.497 437.33C604.688 431.586 603.467 426.159 605.276 421.364C607.085 416.57 607.085 411.414 605.864 403.861C604.643 396.307 606.452 392.101 607.99 383.372C609.528 374.642 611.925 365.868 613.734 357.455C615.543 349.043 613.734 339.68 616.131 331.81C618.528 323.94 619.75 318.241 621.242 312.497C622.735 306.753 623.956 304.944 631.193 299.245C638.429 293.546 652.315 280.565 658.918 261.84C665.522 243.115 670.678 235.29 667.648 225.657C664.617 216.023 663.713 215.39 650.777 217.199C637.796 219.008 599.803 227.149 579.314 237.416" stroke="#A3876E" stroke-width="2.18603" stroke-miterlimit="10" stroke-linecap="round" stroke-linejoin="round"/>
<path d="M573.707 274.911C576.421 271.519 580.491 267.448 580.265 259.081C589.311 253.427 606.498 249.357 621.198 252.07C635.897 254.784 636.802 253.427 636.802 253.427" stroke="#A3876E" stroke-width="2.18603" stroke-miterlimit="10" stroke-linecap="round" stroke-linejoin="round"/>
<path d="M621.197 252.071C616.448 256.594 611.246 260.891 610.342 275.364" stroke="#A3876E" stroke-width="2.18603" stroke-miterlimit="10" stroke-linecap="round" stroke-linejoin="round"/>
<path d="M602.654 322.63C606.182 314.172 610.253 301.507 609.982 287.215" stroke="#A3876E" stroke-width="2.18603" stroke-miterlimit="10" stroke-linecap="round" stroke-linejoin="round"/>
<path d="M587.729 278.078L574.16 274.008" stroke="#A3876E" stroke-width="2.18603" stroke-miterlimit="10" stroke-linecap="round" stroke-linejoin="round"/>
<path d="M581.619 285.359C586.052 280.429 590.62 275.816 595.731 271.836C602.289 266.77 612.466 263.242 612.466 263.242" stroke="#A3876E" stroke-width="2.18603" stroke-miterlimit="10" stroke-linecap="round" stroke-linejoin="round"/>
<path d="M573.934 281.155C572.894 274.687 570.903 266.682 571.22 262.159C571.537 257.636 575.155 248.59 577.869 241.67C580.583 234.75 582.256 228.101 579.995 217.698C577.733 207.295 573.074 196.44 548.198 195.536C523.322 194.631 516.99 205.034 517.759 211.23C514.457 218.784 513.1 223.759 515.633 226.608C511.427 231.9 509.165 236.559 508.08 238.685C507.492 239.861 509.889 243.208 512.603 244.564C511.698 247.731 511.02 251.485 512.241 253.113C510.884 255.374 510.341 257.229 512.784 260.53C511.11 265.37 510.839 271.838 516.085 271.702C521.332 271.566 526.488 271.25 535.082 268.4C543.675 265.551 550.912 263.289 554.53 251.982" stroke="#A3876E" stroke-width="2.18603" stroke-miterlimit="10" stroke-linecap="round" stroke-linejoin="round"/>
<path d="M559.416 234.205C564.753 231.175 570.09 230.903 571.99 235.2C573.89 239.497 566.336 253.97 554.803 250.081" stroke="#A3876E" stroke-width="2.18603" stroke-miterlimit="10" stroke-linecap="round" stroke-linejoin="round"/>
<path d="M521.782 242.121L519.656 243.795C524.088 246.644 525.445 247.911 527.661 251.8C536.572 249.403 545.165 245.604 547.427 240.81C549.688 236.015 550.593 232.216 550.909 228.145C551.226 224.075 549.869 221.813 547.743 219.552C545.617 217.29 544.894 216.069 546.386 212.767C547.879 209.466 550.593 206.752 550.593 206.752C537.476 207.069 525.4 207.069 517.711 211.275" stroke="#A3876E" stroke-width="2.18603" stroke-miterlimit="10" stroke-linecap="round" stroke-linejoin="round"/>
<path d="M523.412 220.729C527.257 221.407 533.136 222.99 536.302 224.256" stroke="#A3876E" stroke-width="2.18603" stroke-miterlimit="10" stroke-linecap="round" stroke-linejoin="round"/>
<path d="M526.439 227.421L525.67 230.361L533.585 230.813" stroke="#A3876E" stroke-width="2.18603" stroke-miterlimit="10" stroke-linecap="round" stroke-linejoin="round"/>
<path d="M537.027 268.354C538.61 271.293 540.736 274.233 542.998 276.721" stroke="#A3876E" stroke-width="2.18603" stroke-miterlimit="10" stroke-linecap="round" stroke-linejoin="round"/>
<path d="M530.512 270.254C530.512 274.46 530.964 280.385 530.964 283.868" stroke="#A3876E" stroke-width="2.18603" stroke-miterlimit="10" stroke-linecap="round" stroke-linejoin="round"/>
<path d="M530.242 278.575C525.402 282.782 517.577 287.033 514.095 288.661C510.612 290.335 498.717 289.114 490.575 297.255C482.434 305.396 479.404 309.919 473.388 325.433C467.373 340.947 464.207 343.072 456.97 350.761C449.733 358.45 446.703 364.195 443.853 370.21C441.004 376.226 434.807 384.095 438.29 392.237C441.592 399.609 446.929 399.157 450.185 398.705C454.708 398.117 460.453 399.247 466.151 396.895C475.604 393.051 483.203 384.231 491.615 375.773C496.726 371.115 499.621 372.336 505.772 372.019C511.788 371.703 517.08 370.527 522.824 368.084C528.568 365.687 538.338 362.34 541.685 359.807C544.986 357.229 544.398 353.159 540.011 354.696C535.624 356.189 525.945 359.762 524.724 357.636C523.502 355.51 541.187 346.058 545.439 343.525C550.957 340.178 550.64 334.841 544.896 334.479C549.057 330.634 548.695 326.428 542.544 325.976C545.032 320.548 540.463 318.106 534.312 320.186C528.161 322.267 515.316 331.041 507.22 335.7C514.321 325.614 517.487 321.227 511.878 316.387C505.863 322.267 503.149 325.885 500.707 328.735C498.309 331.584 494.963 338.233 492.565 344.113C491.57 346.51 489.806 349.631 486.098 352.887C480.76 357.591 471.443 359.219 454.437 366.592" stroke="#A3876E" stroke-width="2.18603" stroke-miterlimit="10" stroke-linecap="round" stroke-linejoin="round"/>
<path d="M490.578 334.39C492.252 335.52 493.428 336.515 494.513 338.325" stroke="#A3876E" stroke-width="2.18603" stroke-miterlimit="10" stroke-linecap="round" stroke-linejoin="round"/>
<path d="M516.402 341.399C520.699 337.871 533.499 329.911 542.635 325.659" stroke="#A3876E" stroke-width="2.18603" stroke-miterlimit="10" stroke-linecap="round" stroke-linejoin="round"/>
<path d="M521.471 348.272C525.903 345.106 537.211 338.412 545.216 334.342" stroke="#A3876E" stroke-width="2.18603" stroke-miterlimit="10" stroke-linecap="round" stroke-linejoin="round"/>
<path d="M505.633 372.383C508.799 381.429 510.834 386.856 511.513 396.128C512.643 409.019 509.477 421.004 518.071 431.407" stroke="#A3876E" stroke-width="2.18603" stroke-miterlimit="10" stroke-linecap="round" stroke-linejoin="round"/>
<path d="M510.16 440C510.16 433.442 511.291 427.788 513.552 423.943" stroke="#A3876E" stroke-width="2.18603" stroke-miterlimit="10" stroke-linecap="round" stroke-linejoin="round"/>
<path d="M598.807 431.406C602.199 427.788 604.234 424.848 605.274 421.365" stroke="#A3876E" stroke-width="2.18603" stroke-miterlimit="10" stroke-linecap="round" stroke-linejoin="round"/>
<path d="M588.724 339.907C588.543 341.354 587.458 342.394 586.327 342.258C585.196 342.123 584.427 340.811 584.608 339.364C584.789 337.916 585.875 336.876 587.006 337.012C588.136 337.193 588.905 338.459 588.724 339.907Z" fill="#A3876E"/>
<path d="M604.098 147.727C604.098 151.481 583.564 154.511 558.28 154.511C532.997 154.511 512.463 151.481 512.463 147.727C512.463 143.973 532.997 140.942 558.28 140.942C583.564 140.942 604.098 143.973 604.098 147.727Z" stroke="#A3876E" stroke-width="2.18603" stroke-miterlimit="10" stroke-linecap="round" stroke-linejoin="round"/>
<path d="M512.42 140.489C512.42 136.735 532.954 133.705 558.237 133.705C583.521 133.705 604.055 136.735 604.055 140.489" stroke="#A3876E" stroke-width="2.18603" stroke-miterlimit="10" stroke-linecap="round" stroke-linejoin="round"/>
<path d="M604.191 140.218V147.726" stroke="#A3876E" stroke-width="2.18603" stroke-miterlimit="10" stroke-linecap="round" stroke-linejoin="round"/>
<path d="M512.373 140.218V147.726" stroke="#A3876E" stroke-width="2.18603" stroke-miterlimit="10" stroke-linecap="round" stroke-linejoin="round"/>
<path d="M539.105 134.247C544.081 134.021 548.83 125.654 549.282 120" stroke="#A3876E" stroke-width="2.18603" stroke-miterlimit="10" stroke-linecap="round" stroke-linejoin="round"/>
<path d="M577.772 134.247C572.797 134.021 568.048 125.654 567.596 120" stroke="#A3876E" stroke-width="2.18603" stroke-miterlimit="10" stroke-linecap="round" stroke-linejoin="round"/>
<path d="M519.523 184.317L518.438 192.504" stroke="#A3876E" stroke-width="2.18603" stroke-miterlimit="10" stroke-linecap="round" stroke-linejoin="round"/>
<path d="M524.179 148.496L520.471 176.9" stroke="#A3876E" stroke-width="2.18603" stroke-miterlimit="10" stroke-linecap="round" stroke-linejoin="round"/>
<path d="M534.443 178.798L533.9 185.537" stroke="#A3876E" stroke-width="2.18603" stroke-miterlimit="10" stroke-linecap="round" stroke-linejoin="round"/>
<path d="M536.842 148.947L535.033 170.657" stroke="#A3876E" stroke-width="2.18603" stroke-miterlimit="10" stroke-linecap="round" stroke-linejoin="round"/>
<path d="M582.879 193.588L583.648 203.222" stroke="#A3876E" stroke-width="2.18603" stroke-miterlimit="10" stroke-linecap="round" stroke-linejoin="round"/>
<path d="M581.391 174.955L582.024 182.644" stroke="#A3876E" stroke-width="2.18603" stroke-miterlimit="10" stroke-linecap="round" stroke-linejoin="round"/>
<path d="M579.264 148.947L580.621 165.863" stroke="#A3876E" stroke-width="2.18603" stroke-miterlimit="10" stroke-linecap="round" stroke-linejoin="round"/>
<path d="M600.389 205.666L601.972 217.923" stroke="#A3876E" stroke-width="2.18603" stroke-miterlimit="10" stroke-linecap="round" stroke-linejoin="round"/>
<path d="M597.27 184.091L598.581 194.177" stroke="#A3876E" stroke-width="2.18603" stroke-miterlimit="10" stroke-linecap="round" stroke-linejoin="round"/>
<path d="M592.473 148.496L595.865 174.277" stroke="#A3876E" stroke-width="2.18603" stroke-miterlimit="10" stroke-linecap="round" stroke-linejoin="round"/>
<path d="M549.459 178.299L549.188 185.219" stroke="#A3876E" stroke-width="2.18603" stroke-miterlimit="10" stroke-linecap="round" stroke-linejoin="round"/>
<path d="M550.41 149.174L549.641 169.844" stroke="#A3876E" stroke-width="2.18603" stroke-miterlimit="10" stroke-linecap="round" stroke-linejoin="round"/>
<path d="M565.742 179.93L566.194 189.111" stroke="#A3876E" stroke-width="2.18603" stroke-miterlimit="10" stroke-linecap="round" stroke-linejoin="round"/>
<path d="M563.979 149.174L565.245 171.879" stroke="#A3876E" stroke-width="2.18603" stroke-miterlimit="10" stroke-linecap="round" stroke-linejoin="round"/>
<path d="M321.482 439.071C317.864 429.121 314.517 421.839 316.869 404.245C319.221 386.65 321.302 377.243 322.839 369.916C324.377 362.634 326.91 355.578 329.171 345.673C330.257 340.878 330.528 339.024 331.659 333.37C333.197 325.591 340.343 321.068 348.032 314.148C363.274 300.398 366.35 294.066 374.989 281.175C382.316 270.275 389.372 259.963 392.176 255.53C395.523 250.238 397.468 237.71 390.864 235.132C383.266 232.147 382.135 232.011 359.52 232.373C329.94 232.825 317.14 232.916 307.461 232.463C297.782 232.011 294.842 230.745 283.671 230.88C272.499 231.016 264.674 232.056 261.644 232.644C258.614 233.187 258.659 236.398 259.563 238.207C253.231 238.524 251.105 238.524 251.105 242.142" stroke="#A3876E" stroke-width="2.18603" stroke-miterlimit="10" stroke-linecap="round" stroke-linejoin="round"/>
<path d="M306.515 232.414C307.872 227.439 303.394 222.464 298.645 220.066C296.565 213.508 292.042 209.664 285.167 208.307C277.342 199.939 265.763 199.939 259.793 208.307C251.607 210.252 247.445 215.408 245.501 219.931C239.078 222.192 233.424 227.755 237.359 235.897" stroke="#A3876E" stroke-width="2.18603" stroke-miterlimit="10" stroke-linecap="round" stroke-linejoin="round"/>
<path d="M226.868 438.072C229.355 432.056 233.607 423.191 231.391 405.19C229.174 387.234 227.184 377.691 225.104 368.871C223.973 364.122 221.712 360.051 219.224 351.231C217.912 346.663 215.922 340.105 214.927 336.306C212.53 326.943 207.962 320.928 204.524 317.988C200.001 314.143 193.669 308.037 187.789 302.157C181.91 296.278 172.411 282.03 168.115 275.472C163.818 268.914 159.069 261.225 154.546 255.345C151.832 251.817 148.892 239.062 159.521 237.253C173.18 234.946 212.213 234.087 226.461 234.766C240.708 235.444 242.065 237.253 245.231 239.062C248.397 240.871 252.015 243.133 254.729 243.811C257.443 244.49 266.489 246.57 269.655 247.294C273.137 248.063 273.364 254.395 268.026 253.852" stroke="#A3876E" stroke-width="2.18603" stroke-miterlimit="10" stroke-linecap="round" stroke-linejoin="round"/>
<path d="M298.371 297.64C300.949 297.369 303.799 297.188 307.643 297.776C315.377 289.499 319.674 284.886 331.072 280.363C335.233 278.373 337.314 275.976 338.354 274.664C345.5 265.663 351.651 262.588 356.446 260.462" stroke="#A3876E" stroke-width="2.18603" stroke-miterlimit="10" stroke-linecap="round" stroke-linejoin="round"/>
<path d="M377.159 256.618C370.691 259.784 364.314 261.594 349.207 259.468C334.101 257.342 323.245 255.035 318.632 254.085C313.973 253.136 310.762 252.502 308.275 256.257C305.787 260.011 304.928 264.172 301.852 266.885C299.138 269.328 290.771 277.198 288.735 279.052C286.7 280.907 282.856 277.56 285.072 273.851C287.333 270.142 289.866 267.88 291.359 266.162C292.58 264.76 292.851 260.87 288.871 260.463C284.981 260.056 283.127 259.965 283.127 259.965" stroke="#A3876E" stroke-width="2.18603" stroke-miterlimit="10" stroke-linecap="round" stroke-linejoin="round"/>
<path d="M281.636 415.01C280.415 410.623 279.827 406.869 281.41 402.572C282.993 398.275 285.933 393.978 284.124 388.099C282.315 382.219 281.184 380.41 282.767 373.625C284.35 366.841 285.481 363.222 284.576 357.116C283.672 351.01 284.033 350.106 284.938 344C285.843 337.894 285.255 334.818 283.717 330.883C282.36 327.401 281.365 323.194 281.455 318.807C281.591 312.792 281.591 309.173 280.415 304.469C279.33 300.263 278.742 294.519 280.098 287.282" stroke="#A3876E" stroke-width="2.18603" stroke-miterlimit="10" stroke-linecap="round" stroke-linejoin="round"/>
<path d="M299.997 269.461C299.228 274.255 296.469 279.457 295.655 284.296C294.75 289.95 298.368 294.699 298.368 301.936C298.368 309.172 296.333 307.816 299.952 318.671C303.57 329.526 303.118 338.798 300.63 347.617C298.142 356.437 301.399 363.583 300.313 368.74C298.956 375.388 295.429 378.102 295.202 383.077C294.976 388.053 296.514 391.083 295.202 396.33C293.981 401.169 290.68 404.606 289.639 410.667C289.006 414.286 287.513 419.578 291.358 424.1" stroke="#A3876E" stroke-width="2.18603" stroke-miterlimit="10" stroke-linecap="round" stroke-linejoin="round"/>
<path d="M281.497 414.242C282.402 418.448 285.116 426.454 275.934 435.183C275.798 426.137 275.03 421.931 272.768 418.312C269.828 413.608 268.245 411.844 268.697 407.321C269.15 402.798 271.411 399.768 271.095 396.15C270.778 392.531 267.476 387.873 267.16 383.938C266.843 380.003 269.421 372.63 268.833 369.148C268.245 365.665 264.898 362.499 264.446 357.976C263.994 353.544 267.16 348.026 266.255 343.05C265.124 336.763 260.239 333.597 263.089 320.119C265.35 309.354 266.933 307.545 265.893 301.665C264.717 294.791 265.486 286.378 265.486 286.378" stroke="#A3876E" stroke-width="2.18603" stroke-miterlimit="10" stroke-linecap="round" stroke-linejoin="round"/>
<path d="M262.052 425.275C264.223 419.622 265.218 416.682 263.409 413.064C261.826 409.897 259.021 408.676 257.438 402.344C255.855 396.012 256.76 390.811 256.081 385.835C255.403 380.86 250.654 377.694 250.202 372.493C249.749 367.291 250.88 360.733 250.428 355.758C249.975 350.783 245.226 345.355 245.226 336.988C245.226 328.62 248.845 321.384 249.523 316.861C250.202 312.338 247.262 309.398 248.166 303.066C249.071 296.733 250.88 290.627 250.428 285.652C250.021 281.31 247.081 277.013 244.684 270.591" stroke="#A3876E" stroke-width="2.18603" stroke-miterlimit="10" stroke-linecap="round" stroke-linejoin="round"/>
<path d="M172.318 260.457C177.746 261.588 183.264 263.261 195.114 259.417C206.964 255.572 222.252 255.391 224.739 255.437C227.227 255.482 228.765 255.934 233.649 259.191C238.579 262.447 242.017 267.332 244.052 269.367C246.088 271.403 247.444 271.855 251.741 272.533C256.038 273.212 276.889 275.518 279.105 272.307C280.1 270.86 279.648 267.694 279.648 267.694C283.854 267.558 285.211 262.266 281.005 261.497C283.583 260.14 283.99 255.934 277.07 255.03C271.506 254.261 257.169 252.18 255.224 251.547" stroke="#A3876E" stroke-width="2.18603" stroke-miterlimit="10" stroke-linecap="round" stroke-linejoin="round"/>
<path d="M248.894 297.635C246.271 297.409 243.467 297.228 239.622 297.862C231.797 289.675 227.455 285.107 216.012 280.674C211.851 278.73 209.725 276.332 208.685 275.066C203.122 268.236 196.88 263.668 192.086 260.909" stroke="#A3876E" stroke-width="2.18603" stroke-miterlimit="10" stroke-linecap="round" stroke-linejoin="round"/>
<path d="M254.59 265.615C260.334 266.52 273.179 267.56 279.692 267.696" stroke="#A3876E" stroke-width="2.18603" stroke-miterlimit="10" stroke-linecap="round" stroke-linejoin="round"/>
<path d="M255.406 258.832C261.15 259.872 273.95 261.229 280.418 261.546" stroke="#A3876E" stroke-width="2.18603" stroke-miterlimit="10" stroke-linecap="round" stroke-linejoin="round"/>
<path d="M280.867 238.39C273.087 238.028 263.137 238.3 258.795 238.164" stroke="#A3876E" stroke-width="2.18603" stroke-miterlimit="10" stroke-linecap="round" stroke-linejoin="round"/>
<path d="M260.559 245.126C265.624 245.804 281.183 245.85 281.183 245.85" stroke="#A3876E" stroke-width="2.18603" stroke-miterlimit="10" stroke-linecap="round" stroke-linejoin="round"/>
<path d="M271.547 252.546C276.613 253.224 281.995 253.36 281.995 253.36" stroke="#A3876E" stroke-width="2.18603" stroke-miterlimit="10" stroke-linecap="round" stroke-linejoin="round"/>
<path d="M271.833 155.524C297.137 155.524 317.65 152.486 317.65 148.739C317.65 144.993 297.137 141.955 271.833 141.955C246.529 141.955 226.016 144.993 226.016 148.739C226.016 152.486 246.529 155.524 271.833 155.524Z" stroke="#A3876E" stroke-width="2.18603" stroke-miterlimit="10" stroke-linecap="round" stroke-linejoin="round"/>
<path d="M226.016 141.502C226.016 137.748 246.55 134.718 271.833 134.718C297.116 134.718 317.65 137.748 317.65 141.502" stroke="#A3876E" stroke-width="2.18603" stroke-miterlimit="10" stroke-linecap="round" stroke-linejoin="round"/>
<path d="M317.787 141.232V148.786" stroke="#A3876E" stroke-width="2.18603" stroke-miterlimit="10" stroke-linecap="round" stroke-linejoin="round"/>
<path d="M225.969 141.232V148.786" stroke="#A3876E" stroke-width="2.18603" stroke-miterlimit="10" stroke-linecap="round" stroke-linejoin="round"/>
<path d="M252.701 135.262C257.676 135.036 262.425 126.668 262.878 121.015" stroke="#A3876E" stroke-width="2.18603" stroke-miterlimit="10" stroke-linecap="round" stroke-linejoin="round"/>
<path d="M291.368 135.262C286.393 135.036 281.644 126.668 281.191 121.015" stroke="#A3876E" stroke-width="2.18603" stroke-miterlimit="10" stroke-linecap="round" stroke-linejoin="round"/>
<path d="M230.359 206.451L228.73 218.708" stroke="#A3876E" stroke-width="2.18603" stroke-miterlimit="10" stroke-linecap="round" stroke-linejoin="round"/>
<path d="M237.775 149.508L232.031 193.516" stroke="#A3876E" stroke-width="2.18603" stroke-miterlimit="10" stroke-linecap="round" stroke-linejoin="round"/>
<path d="M246.636 197.363L245.822 207.54" stroke="#A3876E" stroke-width="2.18603" stroke-miterlimit="10" stroke-linecap="round" stroke-linejoin="round"/>
<path d="M250.436 149.962L247.496 186.598" stroke="#A3876E" stroke-width="2.18603" stroke-miterlimit="10" stroke-linecap="round" stroke-linejoin="round"/>
<path d="M296.436 194.646L297.204 204.235" stroke="#A3876E" stroke-width="2.18603" stroke-miterlimit="10" stroke-linecap="round" stroke-linejoin="round"/>
<path d="M292.863 149.962L295.622 184.472" stroke="#A3876E" stroke-width="2.18603" stroke-miterlimit="10" stroke-linecap="round" stroke-linejoin="round"/>
<path d="M313.533 206.452L315.116 218.709" stroke="#A3876E" stroke-width="2.18603" stroke-miterlimit="10" stroke-linecap="round" stroke-linejoin="round"/>
<path d="M306.07 149.508L311.814 193.516" stroke="#A3876E" stroke-width="2.18603" stroke-miterlimit="10" stroke-linecap="round" stroke-linejoin="round"/>
<path d="M262.965 183.566L262.648 194.286" stroke="#A3876E" stroke-width="2.18603" stroke-miterlimit="10" stroke-linecap="round" stroke-linejoin="round"/>
<path d="M264.009 150.188L263.285 173.346" stroke="#A3876E" stroke-width="2.18603" stroke-miterlimit="10" stroke-linecap="round" stroke-linejoin="round"/>
<path d="M279.475 183.566L280.063 194.24" stroke="#A3876E" stroke-width="2.18603" stroke-miterlimit="10" stroke-linecap="round" stroke-linejoin="round"/>
<path d="M277.574 150.188L278.886 173.301" stroke="#A3876E" stroke-width="2.18603" stroke-miterlimit="10" stroke-linecap="round" stroke-linejoin="round"/>
</svg>
