<svg width="832" height="190" viewBox="0 0 832 190" fill="none" xmlns="http://www.w3.org/2000/svg">
<rect width="832" height="190" rx="4" fill="#09151E"/>
<path d="M130.362 141.55C154.527 141.55 174.115 120.589 174.115 94.7325C174.115 68.8759 154.527 47.915 130.362 47.915C106.198 47.915 86.6094 68.8759 86.6094 94.7325C86.6094 120.589 106.198 141.55 130.362 141.55Z" stroke="#A3876E" stroke-width="1.89544" stroke-miterlimit="10" stroke-linecap="round" stroke-linejoin="round"/>
<path d="M130.405 47.915H124.753C100.589 47.915 81 68.876 81 94.7325C81 120.589 100.589 141.55 124.753 141.55L131.014 141.549" stroke="#A3876E" stroke-width="1.89544" stroke-miterlimit="10" stroke-linecap="round" stroke-linejoin="round"/>
<path d="M162.899 94.7325C162.899 113.834 148.428 129.318 130.578 129.318C112.727 129.318 98.2559 113.834 98.2559 94.7325C98.2559 75.6315 112.727 60.147 130.578 60.147C148.428 60.147 162.899 75.6315 162.899 94.7325Z" stroke="#A3876E" stroke-width="1.89544" stroke-miterlimit="10" stroke-linecap="round" stroke-linejoin="round"/>
<path d="M132.11 94.7325C132.11 96.13 131.052 97.2628 129.746 97.2628C128.44 97.2628 127.381 96.13 127.381 94.7325C127.381 93.335 128.44 92.2021 129.746 92.2021C131.052 92.2021 132.11 93.335 132.11 94.7325Z" stroke="#A3876E" stroke-width="1.89544" stroke-miterlimit="10" stroke-linecap="round" stroke-linejoin="round"/>
<path d="M129.746 97.2628H126.898C125.592 97.2628 124.533 96.13 124.533 94.7325C124.533 93.335 125.592 92.2021 126.898 92.2021H129.746" stroke="#A3876E" stroke-width="1.89544" stroke-miterlimit="10" stroke-linecap="round" stroke-linejoin="round"/>
<path d="M129.174 60.2144C146.077 61.3396 159.462 76.3944 159.462 94.8006C159.462 112.853 146.586 127.682 130.143 129.306" stroke="#A3876E" stroke-width="1.89544" stroke-miterlimit="10" stroke-linecap="round" stroke-linejoin="round"/>
<path d="M155.495 94.7568H148.262" stroke="#A3876E" stroke-width="1.89544" stroke-miterlimit="10" stroke-linecap="round" stroke-linejoin="round"/>
<path d="M105.433 94.7568H98.1992" stroke="#A3876E" stroke-width="1.89544" stroke-miterlimit="10" stroke-linecap="round" stroke-linejoin="round"/>
<path d="M127.152 63.3281V70.0524" stroke="#A3876E" stroke-width="1.89544" stroke-miterlimit="10" stroke-linecap="round" stroke-linejoin="round"/>
<path d="M127.152 119.341V126.065" stroke="#A3876E" stroke-width="1.89544" stroke-miterlimit="10" stroke-linecap="round" stroke-linejoin="round"/>
<path d="M127.381 92.1538L119.014 69.3545" stroke="#A3876E" stroke-width="1.89544" stroke-miterlimit="10" stroke-linecap="round" stroke-linejoin="round"/>
<path d="M129.525 92.2176L141.413 83.5854C143.499 82.1156 145.123 84.6364 143.223 86.006L132.004 94.1604" stroke="#A3876E" stroke-width="1.89544" stroke-miterlimit="10" stroke-linecap="round" stroke-linejoin="round"/>
<path d="M142.635 120.984L141.811 119.69" stroke="#A3876E" stroke-width="1.89544" stroke-miterlimit="10" stroke-linecap="round" stroke-linejoin="round"/>
<path d="M152.682 109.37L151.154 108.488" stroke="#A3876E" stroke-width="1.89544" stroke-miterlimit="10" stroke-linecap="round" stroke-linejoin="round"/>
<path d="M152.803 80.1499L151.266 81.015" stroke="#A3876E" stroke-width="1.89544" stroke-miterlimit="10" stroke-linecap="round" stroke-linejoin="round"/>
<path d="M142.487 68.7056L141.57 70.2114" stroke="#A3876E" stroke-width="1.89544" stroke-miterlimit="10" stroke-linecap="round" stroke-linejoin="round"/>
<path d="M112.215 120.984L113.039 119.69" stroke="#A3876E" stroke-width="1.89544" stroke-miterlimit="10" stroke-linecap="round" stroke-linejoin="round"/>
<path d="M102.168 109.37L103.696 108.488" stroke="#A3876E" stroke-width="1.89544" stroke-miterlimit="10" stroke-linecap="round" stroke-linejoin="round"/>
<path d="M102.047 80.1499L103.584 81.015" stroke="#A3876E" stroke-width="1.89544" stroke-miterlimit="10" stroke-linecap="round" stroke-linejoin="round"/>
<path d="M112.363 68.7056L113.28 70.2114" stroke="#A3876E" stroke-width="1.89544" stroke-miterlimit="10" stroke-linecap="round" stroke-linejoin="round"/>
<path d="M271.548 123.389C270.4 125.149 271.114 127.037 273.155 127.598L313.919 138.694C315.959 139.256 318.536 138.235 319.658 136.475L366.978 61.8093C368.1 60.0237 367.361 58.1615 365.32 57.6258L325.857 46.9119C323.816 46.4017 321.214 47.3966 320.066 49.1567L271.548 123.389Z" stroke="#A3876E" stroke-width="2" stroke-miterlimit="10" stroke-linecap="round" stroke-linejoin="round"/>
<path d="M271.113 125.685C271.547 126.935 272.593 129.409 272.873 130.174C273.18 130.965 273.868 131.577 274.914 131.858L313.943 142.47C316.903 143.21 320.652 142.036 322.234 139.409L368.584 66.0949C369.12 65.2276 369.248 64.3602 368.993 63.6205C368.712 62.7787 367.666 60.2022 367.13 58.9268" stroke="#A3876E" stroke-width="2" stroke-miterlimit="10" stroke-linecap="round" stroke-linejoin="round"/>
<path d="M332.822 48.7998C335.705 49.5906 333.919 53.519 337.108 54.4629C340.526 55.4832 343.511 56.2485 346.929 57.1924C349.76 57.9576 353.51 54.4374 356.622 55.3047" stroke="#A3876E" stroke-width="2" stroke-miterlimit="10" stroke-linecap="round" stroke-linejoin="round"/>
<path d="M299.021 111.119C299.862 113.746 297.924 116.68 294.709 117.726C291.495 118.746 288.205 117.47 287.363 114.843C286.521 112.216 288.46 109.282 291.674 108.236C294.888 107.241 298.179 108.517 299.021 111.119Z" stroke="#A3876E" stroke-width="2" stroke-miterlimit="10" stroke-linecap="round" stroke-linejoin="round"/>
<path d="M321.802 117.445C322.644 120.072 320.705 123.006 317.491 124.051C314.276 125.072 310.986 123.796 310.144 121.169C309.302 118.541 311.241 115.608 314.455 114.562C317.695 113.542 320.985 114.843 321.802 117.445Z" stroke="#A3876E" stroke-width="2" stroke-miterlimit="10" stroke-linecap="round" stroke-linejoin="round"/>
<path d="M324.811 106.604C324.964 107.114 324.607 107.676 323.97 107.88C323.357 108.084 322.72 107.829 322.541 107.319C322.388 106.808 322.745 106.247 323.383 106.043C323.995 105.839 324.633 106.094 324.811 106.604Z" fill="#A3876E"/>
<path d="M302.005 100.405C302.158 100.915 301.801 101.476 301.163 101.681C300.525 101.885 299.913 101.63 299.734 101.119C299.581 100.609 299.939 100.048 300.576 99.8439C301.214 99.6398 301.852 99.8949 302.005 100.405Z" fill="#A3876E"/>
<path d="M293.895 89.4111L341.036 102.395" stroke="#A3876E" stroke-width="2" stroke-miterlimit="10" stroke-linecap="round" stroke-linejoin="round"/>
<path d="M291.037 112.522C291.037 112.522 292.236 112.19 293.409 112.547C294.583 112.879 295.348 113.721 295.348 113.721" stroke="#A3876E" stroke-width="2" stroke-miterlimit="10" stroke-linecap="round" stroke-linejoin="round"/>
<path d="M315.526 117.471C315.526 117.471 315.143 118.338 315.475 119.435C315.807 120.532 316.546 121.068 316.546 121.068" stroke="#A3876E" stroke-width="2" stroke-miterlimit="10" stroke-linecap="round" stroke-linejoin="round"/>
<path d="M316.777 54.4883L363.179 67.2685" stroke="#A3876E" stroke-width="2" stroke-miterlimit="10" stroke-linecap="round" stroke-linejoin="round"/>
<path d="M339.019 77.8032C336.417 81.7317 334.02 83.3132 332.438 84.3591C332.004 84.6397 331.571 84.8948 331.111 85.1244C327.055 87.1652 322.591 86.655 320.704 83.7979C320.296 83.1857 320.04 82.5225 319.913 81.8082C319.607 79.997 319.76 76.7318 321.903 73.1605C323.51 70.4821 323.586 70.329 324.3 69.3341C326.8 65.0486 332.183 64.5639 335.984 65.6353C340.882 67.0383 343.33 70.431 341.723 73.4922C341.29 74.4615 340.499 75.4819 339.019 77.8032Z" stroke="#A3876E" stroke-width="2" stroke-miterlimit="10" stroke-linecap="round" stroke-linejoin="round"/>
<path d="M330.398 85.584C328.256 89.0277 329.429 90.5073 330.857 91.4001C332.49 92.4205 339.99 96.7826 339.99 96.7826C341.724 97.8285 343.051 99.4866 341.979 101.272" stroke="#A3876E" stroke-width="2" stroke-miterlimit="10" stroke-linecap="round" stroke-linejoin="round"/>
<path d="M320.041 82.5225C317.822 85.8642 317.082 86.1703 313.842 86.0938C310.296 86.0172 301.292 85.6091 301.292 85.6091C298.46 85.5326 295.807 86.2978 294.863 87.7519" stroke="#A3876E" stroke-width="2" stroke-miterlimit="10" stroke-linecap="round" stroke-linejoin="round"/>
<path d="M511.175 135.68L478.867 144.683V71.0152L543.508 53.0098V126.677" stroke="#A3876E" stroke-width="2" stroke-miterlimit="10" stroke-linecap="round" stroke-linejoin="round"/>
<path d="M511.175 135.68L473.252 146.329V66.8772L549.001 45.6289V125.08L543.507 126.677" stroke="#A3876E" stroke-width="2" stroke-miterlimit="10" stroke-linecap="round" stroke-linejoin="round"/>
<path d="M511.174 62.0615V135.535" stroke="#A3876E" stroke-width="2" stroke-miterlimit="10" stroke-linecap="round" stroke-linejoin="round"/>
<path d="M520.614 41.6602L501.641 47.0569V52.9135L520.614 47.5167V41.6602Z" stroke="#A3876E" stroke-width="2" stroke-miterlimit="10" stroke-linecap="round" stroke-linejoin="round"/>
<path d="M543.507 53.9545L522.549 67.0714V139.577L543.507 126.46V53.2285" stroke="#A3876E" stroke-width="2" stroke-miterlimit="10" stroke-linecap="round" stroke-linejoin="round"/>
<path d="M535.809 55.2607L519.256 65.4251V138.633L522.547 139.576" stroke="#A3876E" stroke-width="2" stroke-miterlimit="10" stroke-linecap="round" stroke-linejoin="round"/>
<path d="M507.908 96.1846V115.836" stroke="#A3876E" stroke-width="2" stroke-miterlimit="10" stroke-linecap="round" stroke-linejoin="round"/>
<path d="M507.906 112.981L505.922 112.352" stroke="#A3876E" stroke-width="2" stroke-miterlimit="10" stroke-linecap="round" stroke-linejoin="round"/>
<path d="M507.906 99.8636L505.922 99.2344" stroke="#A3876E" stroke-width="2" stroke-miterlimit="10" stroke-linecap="round" stroke-linejoin="round"/>
<path d="M528.623 96.3779V115.763" stroke="#A3876E" stroke-width="2" stroke-miterlimit="10" stroke-linecap="round" stroke-linejoin="round"/>
<path d="M528.626 112.69L526.182 112.061" stroke="#A3876E" stroke-width="2" stroke-miterlimit="10" stroke-linecap="round" stroke-linejoin="round"/>
<path d="M528.626 100.275L526.182 99.6455" stroke="#A3876E" stroke-width="2" stroke-miterlimit="10" stroke-linecap="round" stroke-linejoin="round"/>
<path d="M549 125.081L556.212 123.048" stroke="#A3876E" stroke-width="2" stroke-miterlimit="10" stroke-linecap="round" stroke-linejoin="round"/>
<path d="M468 147.805L473.252 146.329" stroke="#A3876E" stroke-width="2" stroke-miterlimit="10" stroke-linecap="round" stroke-linejoin="round"/>
<path d="M725.263 105.889C714.729 120.72 701.672 129.012 694.735 124.715C687.097 119.996 689.783 101.824 700.738 84.1431C711.669 66.4383 726.734 55.9276 734.349 60.6458C741.122 64.8267 739.768 79.6585 731.686 95.3312" stroke="#A3876E" stroke-width="2" stroke-miterlimit="10" stroke-linecap="round" stroke-linejoin="round"/>
<path d="M719.049 102.268C712.322 110.981 704.427 115.652 700.129 112.989C695.084 109.86 696.859 97.8306 704.1 86.1053C711.341 74.38 721.314 67.3961 726.383 70.526C730.634 73.142 730.05 82.0411 725.472 91.7577" stroke="#A3876E" stroke-width="2" stroke-miterlimit="10" stroke-linecap="round" stroke-linejoin="round"/>
<path d="M753.892 115.654C755.073 113.745 755.362 111.784 754.539 111.276C753.716 110.767 752.093 111.902 750.912 113.812C749.732 115.721 749.443 117.681 750.265 118.19C751.088 118.698 752.712 117.563 753.892 115.654Z" stroke="#A3876E" stroke-width="2" stroke-miterlimit="10" stroke-linecap="round" stroke-linejoin="round"/>
<path d="M651.219 59.4786C650.728 58.7311 651.079 57.0494 652.106 55.391C653.157 53.686 654.582 52.6115 655.446 52.7984" stroke="#A3876E" stroke-width="2" stroke-miterlimit="10" stroke-linecap="round" stroke-linejoin="round"/>
<path d="M741.799 115.465C740.584 114.718 741.004 111.798 742.756 108.972C744.508 106.146 746.914 104.464 748.128 105.212" stroke="#A3876E" stroke-width="2" stroke-miterlimit="10" stroke-linecap="round" stroke-linejoin="round"/>
<path d="M658.506 66.2281C657.291 65.4807 657.711 62.561 659.463 59.7348C661.215 56.9086 663.621 55.2269 664.835 55.9744" stroke="#A3876E" stroke-width="2" stroke-miterlimit="10" stroke-linecap="round" stroke-linejoin="round"/>
<path d="M710.967 97.2945C709.752 96.5471 710.172 93.6275 711.924 90.8012C713.676 87.975 716.082 86.2933 717.296 87.0408" stroke="#A3876E" stroke-width="2" stroke-miterlimit="10" stroke-linecap="round" stroke-linejoin="round"/>
<path d="M712.857 98.8125C711.292 99.7468 708.957 100.915 707.976 101.125C707.181 101.288 706.481 101.218 705.92 100.845C703.538 99.373 704.379 93.7206 707.789 88.2083C711.199 82.696 715.894 79.426 718.253 80.8741C718.813 81.2245 719.187 81.7851 719.397 82.5559C719.654 83.4434 719.467 85.7792 719.421 87.6477" stroke="#A3876E" stroke-width="2" stroke-miterlimit="10" stroke-linecap="round" stroke-linejoin="round"/>
<path d="M674.389 112.733C666.751 108.015 669.437 89.843 680.392 72.1616C691.323 54.4569 706.389 43.9462 714.003 48.6643" stroke="#A3876E" stroke-width="2" stroke-miterlimit="10" stroke-linecap="round" stroke-linejoin="round"/>
<path d="M682.706 117.662C675.068 112.944 677.754 94.7718 688.708 77.0904C699.64 59.3856 714.705 48.8749 722.319 53.593" stroke="#A3876E" stroke-width="2" stroke-miterlimit="10" stroke-linecap="round" stroke-linejoin="round"/>
<path d="M686.559 119.881C678.921 115.162 681.607 96.9905 692.562 79.3091C703.493 61.6044 718.558 51.0936 726.173 55.8118" stroke="#A3876E" stroke-width="2" stroke-miterlimit="10" stroke-linecap="round" stroke-linejoin="round"/>
<path d="M754.552 111.238L748.128 105.212L717.297 87.04" stroke="#A3876E" stroke-width="2" stroke-miterlimit="10" stroke-linecap="round" stroke-linejoin="round"/>
<path d="M750.279 118.174L741.8 115.465L710.969 97.293" stroke="#A3876E" stroke-width="2" stroke-miterlimit="10" stroke-linecap="round" stroke-linejoin="round"/>
<path d="M683.754 67.1391L664.835 55.9745L655.445 52.7979" stroke="#A3876E" stroke-width="2" stroke-miterlimit="10" stroke-linecap="round" stroke-linejoin="round"/>
<path d="M677.402 77.3701L658.506 66.2287L651.219 59.4785" stroke="#A3876E" stroke-width="2" stroke-miterlimit="10" stroke-linecap="round" stroke-linejoin="round"/>
<path d="M734.862 60.9732L714.004 48.6406" stroke="#A3876E" stroke-width="2" stroke-miterlimit="10" stroke-linecap="round" stroke-linejoin="round"/>
<path d="M694.756 124.716L674.389 112.733" stroke="#A3876E" stroke-width="2" stroke-miterlimit="10" stroke-linecap="round" stroke-linejoin="round"/>
<path d="M679.339 132.446L683.987 135.296L669.179 141.929L667.193 125.065L671.374 127.611" stroke="#A3876E" stroke-width="2" stroke-miterlimit="10" stroke-linecap="round" stroke-linejoin="round"/>
<path d="M671.654 127.494C672.939 125.228 673.943 123.593 674.808 122.332" stroke="#A3876E" stroke-width="2" stroke-miterlimit="10" stroke-linecap="round" stroke-linejoin="round"/>
<path d="M679.41 132.237C680.695 129.995 681.746 128.336 682.657 127.075" stroke="#A3876E" stroke-width="2" stroke-miterlimit="10" stroke-linecap="round" stroke-linejoin="round"/>
<path d="M674.949 122.192L682.704 126.934" stroke="#A3876E" stroke-width="2" stroke-miterlimit="10" stroke-linecap="round" stroke-linejoin="round"/>
</svg>
