<svg width="832" height="560" viewBox="0 0 832 560" fill="none" xmlns="http://www.w3.org/2000/svg">
<rect width="832" height="560" rx="4" fill="#09151E"/>
<path d="M697.748 99.1509C697.748 103.291 692.639 106.65 686.322 106.65C680.006 106.65 674.896 105.491 674.896 101.351C674.896 97.2111 679.841 93.5917 686.039 92.4089C692.639 91.1079 697.748 95.0111 697.748 99.1509Z" stroke="#A3876E" stroke-width="2" stroke-miterlimit="10" stroke-linecap="round" stroke-linejoin="round"/>
<path d="M693.183 111.712C692.095 116.088 690.297 121.222 694.697 121.222C699.074 121.222 701.676 116.278 704.278 116.278" stroke="#A3876E" stroke-width="2" stroke-miterlimit="10" stroke-linecap="round" stroke-linejoin="round"/>
<path d="M694.674 121.198H713.835" stroke="#A3876E" stroke-width="2" stroke-miterlimit="10" stroke-linecap="round" stroke-linejoin="round"/>
<path d="M710.664 99.1275C710.664 103.267 715.774 106.626 722.09 106.626C728.406 106.626 733.516 105.467 733.516 101.328C733.516 97.1877 728.572 93.5683 722.374 92.3855C715.774 91.0844 710.664 94.9877 710.664 99.1275Z" stroke="#A3876E" stroke-width="2" stroke-miterlimit="10" stroke-linecap="round" stroke-linejoin="round"/>
<path d="M715.229 111.688C716.318 116.065 718.116 121.198 713.715 121.198C709.315 121.198 706.737 116.254 704.135 116.254" stroke="#A3876E" stroke-width="2" stroke-miterlimit="10" stroke-linecap="round" stroke-linejoin="round"/>
<path d="M718.944 133.666C718.944 131.726 716.034 130.733 712.817 129.857C707.637 128.462 700.634 128.533 695.596 129.857C692.378 130.733 689.469 131.702 689.469 133.666C689.469 136.221 697.725 139.722 704.23 139.722C710.665 139.745 718.944 136.15 718.944 133.666Z" stroke="#A3876E" stroke-width="2" stroke-miterlimit="10" stroke-linecap="round" stroke-linejoin="round"/>
<path d="M671.111 117.863L659.047 121.152" stroke="#A3876E" stroke-width="2" stroke-miterlimit="10" stroke-linecap="round" stroke-linejoin="round"/>
<path d="M671.112 117.863L659 114.291" stroke="#A3876E" stroke-width="2" stroke-miterlimit="10" stroke-linecap="round" stroke-linejoin="round"/>
<path d="M704.278 64.4707C675.938 64.4707 660.065 78.4988 659 114.007" stroke="#A3876E" stroke-width="2" stroke-miterlimit="10" stroke-linecap="round" stroke-linejoin="round"/>
<path d="M659.047 121.151C658.976 153.442 667.019 159.096 697.276 161.177C699.452 161.319 701.557 161.438 704.136 161.438" stroke="#A3876E" stroke-width="2" stroke-miterlimit="10" stroke-linecap="round" stroke-linejoin="round"/>
<path d="M680.48 159.025L683.674 149.823" stroke="#A3876E" stroke-width="2" stroke-miterlimit="10" stroke-linecap="round" stroke-linejoin="round"/>
<path d="M680.48 69.25L683.674 77.9082" stroke="#A3876E" stroke-width="2" stroke-miterlimit="10" stroke-linecap="round" stroke-linejoin="round"/>
<path d="M737.467 117.934L749.531 121.222" stroke="#A3876E" stroke-width="2" stroke-miterlimit="10" stroke-linecap="round" stroke-linejoin="round"/>
<path d="M737.467 117.933L749.579 114.361" stroke="#A3876E" stroke-width="2" stroke-miterlimit="10" stroke-linecap="round" stroke-linejoin="round"/>
<path d="M704.303 64.542C732.643 64.542 748.516 78.57 749.581 114.078" stroke="#A3876E" stroke-width="2" stroke-miterlimit="10" stroke-linecap="round" stroke-linejoin="round"/>
<path d="M749.534 121.223C749.605 153.513 741.562 159.167 711.306 161.249C709.129 161.391 707.024 161.509 704.445 161.509" stroke="#A3876E" stroke-width="2" stroke-miterlimit="10" stroke-linecap="round" stroke-linejoin="round"/>
<path d="M728.1 159.071L724.906 149.869" stroke="#A3876E" stroke-width="2" stroke-miterlimit="10" stroke-linecap="round" stroke-linejoin="round"/>
<path d="M728.1 69.2979L724.906 77.956" stroke="#A3876E" stroke-width="2" stroke-miterlimit="10" stroke-linecap="round" stroke-linejoin="round"/>
<path d="M127.141 255.804C127.141 255.804 127.613 253.291 124.63 252.193C121.647 251.096 104.409 244.835 100.986 243.499C96.0719 241.587 91.3355 243.711 90.8383 257.203C90.4196 268.567 89.691 273.839 88.6413 281.79C87.0025 294.248 88.343 301.881 90.3201 302.761C91.5286 303.42 92.6281 303.64 93.7276 304.08C96.4754 305.105 96.7508 300.481 96.7508 296.661C96.7508 294.517 96.8598 290.282 96.8598 290.282" stroke="#A3876E" stroke-width="2" stroke-linecap="round" stroke-linejoin="round"/>
<path d="M123.386 253.921C121.816 254.391 119.37 256.149 119.097 265.157C118.781 275.618 119.875 280.659 119.619 290.893C119.506 295.375 119.341 299.922 119.183 303.916C118.907 310.768 118.32 313.533 115.932 312.433C114.612 311.993 113.356 311.368 112.121 310.904C111.021 310.481 110.364 308.741 110.289 300.498C110.216 297.274 107.048 292.985 101.809 290.897" stroke="#A3876E" stroke-width="2" stroke-linecap="round" stroke-linejoin="round"/>
<path d="M116.373 312.599C114.614 311.775 114.844 293.051 116.427 285.787C116.676 284.64 117.433 284.129 118.148 284.093" stroke="#A3876E" stroke-width="2" stroke-linecap="round" stroke-linejoin="round"/>
<path d="M101.642 290.833C96.3681 288.893 93.0371 290.158 93.0371 296.094C93.0371 302.029 93.4042 303.861 94.7217 304.228" stroke="#A3876E" stroke-width="2" stroke-linecap="round" stroke-linejoin="round"/>
<path d="M145.63 263.845C143.045 267.35 137.188 267.159 135.199 267.35C132.06 267.663 131.641 281.159 132.616 286.292C132.966 288.137 133.524 289.11 135.102 289.215C143.188 289.755 160.289 288.894 162.547 288.797C159.059 288.953 161.1 268.761 166.488 268.814" stroke="#A3876E" stroke-width="2" stroke-linecap="round" stroke-linejoin="round"/>
<path d="M125.369 269.76C125.369 272.054 122.229 277.292 119.508 278.129" stroke="#A3876E" stroke-width="2" stroke-linecap="round" stroke-linejoin="round"/>
<path d="M167.843 272.201C167.558 271.366 168.541 269.836 165.611 268.155C162.682 266.474 155.111 264.036 147.966 262.088C145.515 261.38 142.928 261.284 140.432 261.809" stroke="#A3876E" stroke-width="2" stroke-linecap="round" stroke-linejoin="round"/>
<path d="M162.541 288.8C164.807 288.8 165.304 281.706 165.386 274.361C165.398 273.455 165.541 271.85 166.656 271.921" stroke="#A3876E" stroke-width="2" stroke-linecap="round" stroke-linejoin="round"/>
<path d="M158.775 288.94C156.961 288.87 156.89 281.198 158.636 274.362C159.869 269.522 162.053 266.482 163.726 267.249" stroke="#A3876E" stroke-width="2" stroke-linecap="round" stroke-linejoin="round"/>
<path d="M154.857 243.479C155.114 244.053 155.177 245.009 154.857 245.9" stroke="#A3876E" stroke-width="2" stroke-linecap="round" stroke-linejoin="round"/>
<path d="M161.871 261.65C162.159 260.862 162.123 259.992 161.771 259.229" stroke="#A3876E" stroke-width="2" stroke-linecap="round" stroke-linejoin="round"/>
<path d="M150.336 230.923C150.016 231.699 150.016 232.57 150.336 233.346" stroke="#A3876E" stroke-width="2" stroke-linecap="round" stroke-linejoin="round"/>
<path d="M158.492 236.276C158.812 236.722 158.875 237.678 158.492 238.699" stroke="#A3876E" stroke-width="2" stroke-linecap="round" stroke-linejoin="round"/>
<path d="M153.138 256.163C153.108 257.406 153.06 257.884 153.138 258.712" stroke="#A3876E" stroke-width="2" stroke-linecap="round" stroke-linejoin="round"/>
<path d="M158.75 250.236C158.43 250.938 158.493 252.02 158.75 252.785" stroke="#A3876E" stroke-width="2" stroke-linecap="round" stroke-linejoin="round"/>
<path d="M145.044 253.041C144.725 253.741 144.79 254.825 145.044 255.59" stroke="#A3876E" stroke-width="2" stroke-linecap="round" stroke-linejoin="round"/>
<path d="M148.293 245.71C148.612 246.53 148.612 247.44 148.293 248.261" stroke="#A3876E" stroke-width="2" stroke-linecap="round" stroke-linejoin="round"/>
<path d="M122.364 245.969C122.677 244.81 122.291 243.716 122.285 243.548" stroke="#A3876E" stroke-width="2" stroke-linecap="round" stroke-linejoin="round"/>
<path d="M100.045 234.875C99.6932 236.022 100.045 237.128 100.045 237.296" stroke="#A3876E" stroke-width="2" stroke-linecap="round" stroke-linejoin="round"/>
<path d="M115.342 240.994C115.294 242.013 115.342 243.245 115.342 243.415" stroke="#A3876E" stroke-width="2" stroke-linecap="round" stroke-linejoin="round"/>
<path d="M111.771 231.942C111.643 232.453 111.579 233.728 111.899 234.619" stroke="#A3876E" stroke-width="2" stroke-linecap="round" stroke-linejoin="round"/>
<path d="M106.928 238.188C106.98 239.037 106.98 239.889 106.928 240.737" stroke="#A3876E" stroke-width="2" stroke-linecap="round" stroke-linejoin="round"/>
<path d="M118.531 234.308C118.531 234.52 119.105 235.772 118.531 236.857" stroke="#A3876E" stroke-width="2" stroke-linecap="round" stroke-linejoin="round"/>
<path d="M105.71 232.388C105.701 232.176 105.077 230.946 105.609 229.841" stroke="#A3876E" stroke-width="2" stroke-linecap="round" stroke-linejoin="round"/>
<path d="M115.215 224.422C115.215 224.72 114.705 225.984 115.215 227.227" stroke="#A3876E" stroke-width="2" stroke-linecap="round" stroke-linejoin="round"/>
<path d="M109.863 220.979C109.679 221.905 109.679 222.859 109.863 223.785" stroke="#A3876E" stroke-width="2" stroke-linecap="round" stroke-linejoin="round"/>
<path d="M166.482 271.956L182.143 277.972" stroke="#A3876E" stroke-width="2" stroke-linecap="round" stroke-linejoin="round"/>
<path d="M122.156 254.764L145.63 263.845" stroke="#A3876E" stroke-width="2" stroke-linecap="round" stroke-linejoin="round"/>
<path d="M73 235.761L94.8159 244.161" stroke="#A3876E" stroke-width="2" stroke-linecap="round" stroke-linejoin="round"/>
<path d="M165.016 284.614L182.141 291.154" stroke="#A3876E" stroke-width="2" stroke-linecap="round" stroke-linejoin="round"/>
<path d="M119.23 266.829L132.69 271.956" stroke="#A3876E" stroke-width="2" stroke-linecap="round" stroke-linejoin="round"/>
<path d="M73 248.943L89.655 255.384" stroke="#A3876E" stroke-width="2" stroke-linecap="round" stroke-linejoin="round"/>
<path d="M142.197 289.724L182.142 305.174" stroke="#A3876E" stroke-width="2" stroke-linecap="round" stroke-linejoin="round"/>
<path d="M119.918 281.107L132.412 285.939" stroke="#A3876E" stroke-width="2" stroke-linecap="round" stroke-linejoin="round"/>
<path d="M73 262.963L89.5842 269.34" stroke="#A3876E" stroke-width="2" stroke-linecap="round" stroke-linejoin="round"/>
<path d="M100.162 290.443V319.56" stroke="#A3876E" stroke-width="2" stroke-linecap="round" stroke-linejoin="round"/>
<path d="M84.9121 254.291V267.336" stroke="#A3876E" stroke-width="2" stroke-linecap="round" stroke-linejoin="round"/>
<path d="M84.9121 281.283V314.375" stroke="#A3876E" stroke-width="2" stroke-linecap="round" stroke-linejoin="round"/>
<path d="M160.309 309.729V334.033" stroke="#A3876E" stroke-width="2" stroke-linecap="round" stroke-linejoin="round"/>
<path d="M145.061 304.545V328.851" stroke="#A3876E" stroke-width="2" stroke-linecap="round" stroke-linejoin="round"/>
<path d="M119.715 293.771L182.141 317.938" stroke="#A3876E" stroke-width="2" stroke-linecap="round" stroke-linejoin="round"/>
<path d="M73 275.727L87.7065 281.413" stroke="#A3876E" stroke-width="2" stroke-linecap="round" stroke-linejoin="round"/>
<path d="M160.377 288.729L160.309 296.409" stroke="#A3876E" stroke-width="2" stroke-linecap="round" stroke-linejoin="round"/>
<path d="M550.59 277.889C550.59 276.163 549.255 275.196 547.598 275.748L520.736 284.909C519.102 285.462 517.744 287.349 517.744 289.098V324.2C517.744 325.926 519.079 326.893 520.736 326.341L547.598 317.18C549.232 316.627 550.59 314.74 550.59 312.99V277.889Z" stroke="#A3876E" stroke-width="2" stroke-miterlimit="10" stroke-linecap="round" stroke-linejoin="round"/>
<path d="M514.223 320.724L515.143 320.425" stroke="#A3876E" stroke-width="2" stroke-miterlimit="10" stroke-linecap="round" stroke-linejoin="round"/>
<path d="M536.806 277.889C536.806 279.362 533.952 280.559 530.43 280.559C526.909 280.559 524.055 279.362 524.055 277.889" fill="#09151E"/>
<path d="M536.806 277.889C536.806 279.362 533.952 280.559 530.43 280.559C526.909 280.559 524.055 279.362 524.055 277.889" stroke="#A3876E" stroke-width="2" stroke-miterlimit="10" stroke-linecap="round" stroke-linejoin="round"/>
<path d="M510.244 321.276L518.53 326.041" stroke="#A3876E" stroke-width="2" stroke-miterlimit="10" stroke-linecap="round" stroke-linejoin="round"/>
<path d="M541.131 270.937L549.762 275.931" stroke="#A3876E" stroke-width="2" stroke-miterlimit="10" stroke-linecap="round" stroke-linejoin="round"/>
<path d="M524.055 277.726V272.317" stroke="#A3876E" stroke-width="2" stroke-miterlimit="10" stroke-linecap="round" stroke-linejoin="round"/>
<path d="M536.803 277.728V268.383" stroke="#A3876E" stroke-width="2" stroke-miterlimit="10" stroke-linecap="round" stroke-linejoin="round"/>
<path d="M523.293 276.276L512.291 280.028C510.657 280.581 509.299 282.468 509.299 284.217V319.319C509.299 320.217 509.667 320.907 510.243 321.298" stroke="#A3876E" stroke-width="2" stroke-miterlimit="10" stroke-linecap="round" stroke-linejoin="round"/>
<path d="M541.591 271.213C540.854 270.707 540.072 270.569 539.128 270.891L528.172 274.62" stroke="#A3876E" stroke-width="2" stroke-miterlimit="10" stroke-linecap="round" stroke-linejoin="round"/>
<path d="M517.768 307.856L547.69 297.637" stroke="#A3876E" stroke-width="2" stroke-miterlimit="10" stroke-linecap="round" stroke-linejoin="round"/>
<path d="M511.99 304.335L541.913 294.139" stroke="#A3876E" stroke-width="2" stroke-miterlimit="10" stroke-linecap="round" stroke-linejoin="round"/>
<path d="M511.832 304.335L517.771 307.857" stroke="#A3876E" stroke-width="2" stroke-miterlimit="10" stroke-linecap="round" stroke-linejoin="round"/>
<path d="M541.754 294.139L547.692 297.637" stroke="#A3876E" stroke-width="2" stroke-miterlimit="10" stroke-linecap="round" stroke-linejoin="round"/>
<path d="M542.123 294.345V280.534" stroke="#A3876E" stroke-width="2" stroke-miterlimit="10" stroke-linecap="round" stroke-linejoin="round"/>
<path d="M520.416 318.652L539.129 312.276C540.763 311.723 542.121 309.836 542.121 308.087V299.893" stroke="#A3876E" stroke-width="2" stroke-miterlimit="10" stroke-linecap="round" stroke-linejoin="round"/>
<path d="M530.428 280.559V300.377" stroke="#A3876E" stroke-width="2" stroke-miterlimit="10" stroke-linecap="round" stroke-linejoin="round"/>
<path d="M530.429 303.529V310.135C530.36 315.59 526.953 320.263 526.953 320.263" stroke="#A3876E" stroke-width="2" stroke-miterlimit="10" stroke-linecap="round" stroke-linejoin="round"/>
<path d="M542.928 262.652C542.859 262.215 542.491 261.754 541.8 261.34L538.301 259.268C536.667 258.302 533.859 258.002 532.064 258.624L519.174 263.02C518.207 263.342 517.724 263.872 517.747 264.424C517.747 264.585 517.77 264.931 517.77 264.931L517.747 270.455C517.747 270.938 518.138 271.445 518.898 271.905L522.442 273.953C524.077 274.897 526.908 275.196 528.703 274.575L541.501 270.248C542.468 269.925 542.951 269.419 542.951 268.844L542.928 262.652Z" fill="#09151E"/>
<path d="M517.771 264.929L517.748 270.453C517.748 270.937 518.139 271.443 518.899 271.903L522.444 273.952C524.078 274.896 526.909 275.195 528.704 274.573L541.502 270.246C542.469 269.924 542.952 269.418 542.952 268.842V262.65" stroke="#A3876E" stroke-width="2" stroke-miterlimit="10" stroke-linecap="round" stroke-linejoin="round"/>
<path d="M519.174 262.998C517.378 263.619 517.24 264.885 518.898 265.852L522.442 267.9C524.077 268.844 526.908 269.143 528.703 268.522L541.501 264.195C543.296 263.596 543.434 262.307 541.8 261.318L538.301 259.246C536.667 258.279 533.859 257.98 532.064 258.601L519.174 262.998Z" stroke="#A3876E" stroke-width="2" stroke-miterlimit="10" stroke-linecap="round" stroke-linejoin="round"/>
<path d="M503.015 319.618V251.579H473V319.618" stroke="#A3876E" stroke-width="2" stroke-miterlimit="10" stroke-linecap="round" stroke-linejoin="round"/>
<path d="M503.015 319.618C503.015 323.094 496.294 325.925 488.007 325.925C479.721 325.925 473 323.094 473 319.618" stroke="#A3876E" stroke-width="2" stroke-miterlimit="10" stroke-linecap="round" stroke-linejoin="round"/>
<path d="M497.997 244.097C501.081 245.962 503.015 249.437 503.015 251.302C503.015 254.777 496.294 257.609 488.007 257.609C479.721 257.609 473 254.777 473 251.302C473 249.414 475.002 245.893 478.156 244.028" fill="#09151E"/>
<path d="M497.997 244.097C501.081 245.962 503.015 249.437 503.015 251.302C503.015 254.777 496.294 257.609 488.007 257.609C479.721 257.609 473 254.777 473 251.302C473 249.414 475.002 245.893 478.156 244.028" stroke="#A3876E" stroke-width="2" stroke-miterlimit="10" stroke-linecap="round" stroke-linejoin="round"/>
<path d="M493.946 272.755C492.127 273.078 490.125 273.262 488.007 273.262C483.496 273.262 479.468 272.433 476.729 271.121" stroke="#A3876E" stroke-width="2" stroke-miterlimit="10" stroke-linecap="round" stroke-linejoin="round"/>
<path d="M490.767 294.115C489.87 294.184 488.949 294.23 488.005 294.23C484.898 294.23 482.021 293.839 479.627 293.148" stroke="#A3876E" stroke-width="2" stroke-miterlimit="10" stroke-linecap="round" stroke-linejoin="round"/>
<path d="M490.767 298.258C489.87 298.327 488.949 298.373 488.005 298.373C484.898 298.373 482.021 297.982 479.627 297.291" stroke="#A3876E" stroke-width="2" stroke-miterlimit="10" stroke-linecap="round" stroke-linejoin="round"/>
<path d="M493.946 288.407C492.127 288.729 490.125 288.913 488.007 288.913C483.496 288.913 479.468 288.084 476.729 286.772" stroke="#A3876E" stroke-width="2" stroke-miterlimit="10" stroke-linecap="round" stroke-linejoin="round"/>
<path d="M497.722 245.157C497.722 247.413 493.371 249.231 488.008 249.231C482.645 249.231 478.295 247.413 478.295 245.157" fill="#09151E"/>
<path d="M497.722 245.157C497.722 247.413 493.371 249.231 488.008 249.231C482.645 249.231 478.295 247.413 478.295 245.157" stroke="#A3876E" stroke-width="2" stroke-miterlimit="10" stroke-linecap="round" stroke-linejoin="round"/>
<path d="M494.637 231.301C494.637 232.843 491.668 234.086 488.008 234.086C484.348 234.086 481.379 232.843 481.379 231.301C481.379 229.759 484.348 228.516 488.008 228.516C491.668 228.516 494.637 229.782 494.637 231.301Z" fill="#09151E" stroke="#A3876E" stroke-width="2" stroke-miterlimit="10" stroke-linecap="round" stroke-linejoin="round"/>
<path d="M478.295 245.156V238.089C478.295 233.946 479.469 231.99 482.001 230.148" stroke="#A3876E" stroke-width="2" stroke-miterlimit="10" stroke-linecap="round" stroke-linejoin="round"/>
<path d="M497.628 245.156V238.089C497.628 233.946 496.454 231.99 493.922 230.148" stroke="#A3876E" stroke-width="2" stroke-miterlimit="10" stroke-linecap="round" stroke-linejoin="round"/>
<path d="M486.905 239.311C486.905 240.002 486.422 240.554 485.8 240.554C485.202 240.554 484.695 240.002 484.695 239.311C484.695 238.621 485.179 238.068 485.8 238.068C486.422 238.068 486.905 238.621 486.905 239.311Z" fill="#A3876E"/>
<path d="M476.729 271.121V286.773" stroke="#A3876E" stroke-width="2" stroke-miterlimit="10" stroke-linecap="round" stroke-linejoin="round"/>
<path d="M493.945 272.755V288.407" stroke="#A3876E" stroke-width="2" stroke-miterlimit="10" stroke-linecap="round" stroke-linejoin="round"/>
<path d="M642.979 252.51L681.405 322.3C683.567 326.019 685.873 327.23 690.774 326.077L759.671 310.654C765.378 309.299 767.742 304.658 764.485 298.085" stroke="#A3876E" stroke-width="2" stroke-miterlimit="10" stroke-linecap="round" stroke-linejoin="round"/>
<path d="M642.98 252.509C641.25 249.973 641.481 245.735 646.381 244.582L715.278 229.16C721.332 227.718 725.425 228.641 728.164 232.532" stroke="#A3876E" stroke-width="2" stroke-miterlimit="10" stroke-linecap="round" stroke-linejoin="round"/>
<path d="M764.486 298.086L728.164 232.533" stroke="#A3876E" stroke-width="2" stroke-miterlimit="10" stroke-linecap="round" stroke-linejoin="round"/>
<path d="M697.608 314.545C697.608 314.545 746.499 303.792 752.236 302.524C757.338 301.399 759.5 301.774 759.846 303.388C760.192 305.118 758.088 306.098 753.879 307.049C753.879 307.049 696.686 319.849 691.641 320.973C688.326 321.694 687.432 318.609 688.845 317.168C691.843 314.689 696.08 311.489 700.203 305.896C706.285 297.652 723.264 275.455 731.912 264.097C738.312 255.708 736.611 252.019 722.832 249.684C710.062 247.522 705.247 246.887 705.247 246.887C700.837 246.224 699.511 247.377 698.905 252.22C698.041 259.052 693.63 292.607 692.765 300.794C692.391 304.34 690.747 307.136 690.171 307.799" stroke="#A3876E" stroke-width="2" stroke-miterlimit="10" stroke-linecap="round" stroke-linejoin="round"/>
<path d="M168.48 458.927C170.608 457.554 171.844 456.845 172.279 455.655C172.622 454.465 172.759 454.099 172.988 452.84C173.217 451.742 173.4 450.758 172.988 450.025C173.515 449.179 173.423 447.691 172.645 447.096C171.57 446.227 171.043 445.586 169.075 445.586C167.405 445.586 166.512 445.632 166.283 445.632C165.826 445.632 165.025 445.746 164.338 446.547C163.629 447.394 162.851 448.355 162.851 448.355C162.782 449.316 162.919 450.529 162.919 450.529C162.919 450.529 162.393 453.046 163.743 454.625C164.407 455.357 164.704 455.724 164.704 455.724L166.055 454.465H168.297" stroke="#A3876E" stroke-width="2" stroke-miterlimit="10" stroke-linecap="round" stroke-linejoin="round"/>
<path d="M110.629 421.238C110.789 436.159 107.723 439.774 94.5189 444.671C90.4913 446.159 87.7223 448.402 86.2349 458.104C85.4797 462.498 86.6925 467.35 85.3653 473.482C84.5186 477.396 81.9327 481.652 82.0013 486.137C82.07 490.211 84.244 491.629 84.6788 495.428C84.9076 497.305 86.8985 497.671 88.8436 497.808C90.7888 497.968 91.3838 496.458 92.7339 494.673C94.0841 492.888 96.464 490.943 96.3038 486.915C96.1436 482.888 95.2512 479.089 95.8462 475.588C97.6998 474.421 99.1186 471.034 99.1186 471.034C101.59 469.775 102.757 467.899 102.757 467.899C107.128 467.899 107.746 467.67 108.615 466.64C110.881 466.526 112.345 466.343 112.345 466.343L113.902 465.29L113.078 463.505C113.078 463.505 110.309 460.667 108.387 459.935C106.441 459.18 102.711 458.631 100.171 458.471C97.6311 458.31 97.3794 458.31 96.0292 460.85C94.6791 463.391 91.3609 468.86 90.3311 470.37C89.2784 471.858 88.5462 474.558 87.9512 476.64C87.3562 478.723 85.2738 480.965 85.2738 480.965" stroke="#A3876E" stroke-width="2" stroke-miterlimit="10" stroke-linecap="round" stroke-linejoin="round"/>
<path d="M125.254 432.429C125.254 432.429 125.391 433.916 125.483 434.488C125.597 435.266 125.94 435.632 126.833 435.93C131.387 437.44 133.469 438.379 138.687 438.379C144.202 438.379 146.811 440.278 147.406 444.9C148.001 449.523 148.161 454.191 148.161 454.191" stroke="#A3876E" stroke-width="2" stroke-miterlimit="10" stroke-linecap="round" stroke-linejoin="round"/>
<path d="M142.257 454.786C142.028 455.335 142.371 458.47 142.806 460.713C143.264 462.956 144.637 465.496 145.232 466.823C145.849 468.196 145.895 470.187 145.689 472.727C145.529 474.627 144.728 482.087 146.627 486.778C148.527 491.469 150.77 496.618 150.77 500.211" stroke="#A3876E" stroke-width="2" stroke-miterlimit="10" stroke-linecap="round" stroke-linejoin="round"/>
<path d="M101.82 468.997C101.614 472.956 105.687 479.981 106.74 484.215C107.129 485.771 106.694 489.135 105.779 490.806C104.887 492.476 103.765 495.062 105.115 498.517C104.658 499.524 103.88 501.195 103.88 501.195" stroke="#A3876E" stroke-width="2" stroke-miterlimit="10" stroke-linecap="round" stroke-linejoin="round"/>
<path d="M168.294 454.488C168.294 454.488 168.111 488.563 169.118 500.302" stroke="#A3876E" stroke-width="2" stroke-miterlimit="10" stroke-linecap="round" stroke-linejoin="round"/>
<path d="M164.98 455.563C163.309 457.303 161.73 461.559 160.06 468.31C158.961 472.772 157.085 482.384 151.959 490.05" stroke="#A3876E" stroke-width="2" stroke-miterlimit="10" stroke-linecap="round" stroke-linejoin="round"/>
<path d="M160.264 454.671C159.44 456.09 158.41 458.927 155.344 465.861C152.689 471.857 148.524 480.736 146.625 486.777" stroke="#A3876E" stroke-width="2" stroke-miterlimit="10" stroke-linecap="round" stroke-linejoin="round"/>
<path d="M141.958 457.051C138.388 454.739 133.193 458.515 127.999 459.064C120.905 459.82 116.351 458.767 110.172 460.323" stroke="#A3876E" stroke-width="2" stroke-miterlimit="10" stroke-linecap="round" stroke-linejoin="round"/>
<path d="M125.482 432.428C129.51 433.893 131.981 434.785 133.079 433.16C134.178 431.536 133.949 430.277 134.498 429.819C135.139 429.293 135.848 428.767 135.459 427.645C136.169 427.119 136.1 426.684 135.986 425.448C135.871 424.213 136.1 424.167 137.336 423.778C138.686 423.32 139.121 422.107 138.228 420.094C137.336 418.08 137.176 416.524 137.885 415.288C138.778 413.732 138.938 407.462 135.459 403.869C133.743 403.8 132.073 404.006 130.173 404.807C127.931 405.768 124.59 408.194 120.242 411.306C115.825 414.51 110.699 419.224 110.607 421.238" stroke="#A3876E" stroke-width="2" stroke-miterlimit="10" stroke-linecap="round" stroke-linejoin="round"/>
<path d="M142.484 458.356C148.823 454.374 156.444 446.868 159.762 444.534C163.194 442.131 163.744 442.291 167.314 441.902C168.183 441.811 168.275 445.541 168.275 445.541" stroke="#A3876E" stroke-width="2" stroke-miterlimit="10" stroke-linecap="round" stroke-linejoin="round"/>
<path d="M110.398 423.114C108.453 421.032 104.769 414.624 105.112 409.681C105.478 404.235 109.3 400.276 114.746 398.033" stroke="#A3876E" stroke-width="2" stroke-miterlimit="10" stroke-linecap="round" stroke-linejoin="round"/>
<path d="M104.954 410.139C102.642 410.207 100.331 409.315 98.981 406.866C97.5622 404.258 98.8208 400.299 97.6309 398.354" stroke="#A3876E" stroke-width="2" stroke-miterlimit="10" stroke-linecap="round" stroke-linejoin="round"/>
<path d="M135.205 399.612C136.098 401.168 135.937 402.633 135.525 403.823" stroke="#A3876E" stroke-width="2" stroke-miterlimit="10" stroke-linecap="round" stroke-linejoin="round"/>
<path d="M112.805 404.831C118.663 401.856 125.368 399.659 129.281 399.545C131.524 399.476 132.805 399.545 135.208 399.59C135.895 399.613 136.902 399.041 137.222 398.08" stroke="#A3876E" stroke-width="2" stroke-miterlimit="10" stroke-linecap="round" stroke-linejoin="round"/>
<path d="M118.044 421.718C116.876 422.702 115.664 421.924 115.023 420.94C113.856 419.155 113.627 417.622 113.627 417.622" stroke="#A3876E" stroke-width="2" stroke-miterlimit="10" stroke-linecap="round" stroke-linejoin="round"/>
<path d="M116.305 414.602C117.495 415.654 119.097 416.066 120.172 415.769C121.66 415.38 122.758 414.007 123.696 412.382C124.429 411.123 127.77 405.7 129.989 404.876" stroke="#A3876E" stroke-width="2" stroke-miterlimit="10" stroke-linecap="round" stroke-linejoin="round"/>
<path d="M135.161 413.868C134.406 412.816 133.101 412.381 129.943 413.274" stroke="#A3876E" stroke-width="2" stroke-miterlimit="10" stroke-linecap="round" stroke-linejoin="round"/>
<path d="M120.333 480.965C117.358 486.549 113.697 491.148 110.928 494.512" stroke="#A3876E" stroke-width="2" stroke-miterlimit="10" stroke-linecap="round" stroke-linejoin="round"/>
<path d="M128.593 485.405C126.534 489.25 124.017 492.408 122.117 494.719" stroke="#A3876E" stroke-width="2" stroke-miterlimit="10" stroke-linecap="round" stroke-linejoin="round"/>
<path d="M326.614 291.905C330.962 294.482 335.152 297.261 337.595 299.86C342.951 305.597 344.9 313.507 338.2 317.294C331.5 321.081 316.508 321.933 307.477 318.146C298.446 314.359 291.634 308.398 286.637 300.465C281.64 292.532 279.085 286.325 275.432 281.216C273.034 277.944 271.645 275.793 270.569 273.866C267.567 268.51 269.225 264.476 272.698 262.661C276.172 260.824 278.614 260.263 278.614 260.263C284.822 258.202 293.359 260.375 296.654 265.149C299.948 269.899 307.253 280.745 312.855 284.174C315.006 285.474 318.368 287.266 321.976 289.283" stroke="#A3876E" stroke-width="2" stroke-miterlimit="10" stroke-linecap="round" stroke-linejoin="round"/>
<path d="M356.821 252.443C360.003 255.132 363.386 258.65 365.65 262.751C369.952 270.527 372.507 286.236 361.907 290.449C351.308 294.662 340.417 287.065 336.316 282.852C333.784 280.275 325.896 269.586 321.235 263.289C316.574 256.992 310.456 251.592 305.975 248.297C301.493 245.003 293.448 235.86 303.241 230.662C310.053 227.031 318.793 228.645 322.804 230.841C326.815 233.037 346.288 245.295 349.672 247.289C350.703 247.894 352.16 248.835 353.84 250.068" stroke="#A3876E" stroke-width="2" stroke-miterlimit="10" stroke-linecap="round" stroke-linejoin="round"/>
<path d="M369.371 284.085C369.169 289.395 366.951 294.281 361.662 296.141C352.273 299.435 340.867 294.236 336.318 289.171C330.962 283.233 325.898 275.905 321.237 269.608C316.576 263.311 310.458 257.463 305.976 254.169C303.063 252.04 298.671 247.446 298.604 243.054" stroke="#A3876E" stroke-width="2" stroke-miterlimit="10" stroke-linecap="round" stroke-linejoin="round"/>
<path d="M342.479 316.331C342.479 319.11 341.202 321.642 338.199 323.323C331.499 327.11 316.059 327.648 307.476 324.175C298.423 320.5 291.14 314.516 286.143 306.584C281.146 298.651 277.784 292.197 275.835 288.813C273.885 285.429 271.644 281.822 270.569 279.894C269.515 278.035 269.045 276.309 269 274.808" stroke="#A3876E" stroke-width="2" stroke-miterlimit="10" stroke-linecap="round" stroke-linejoin="round"/>
<path d="M298.58 243.278V236.734" stroke="#A3876E" stroke-width="2" stroke-miterlimit="10" stroke-linecap="round" stroke-linejoin="round"/>
<path d="M342.479 316.332V310.752" stroke="#A3876E" stroke-width="2" stroke-miterlimit="10" stroke-linecap="round" stroke-linejoin="round"/>
<path d="M285.068 297.798C283.903 295.669 285.785 294.549 289.707 295.423C293.785 296.341 298.491 296.7 304.385 296.879C310.301 297.059 313.796 296.79 316.172 296.476C318.547 296.162 320.923 296.117 321.662 298.784C322.401 301.473 322.738 303.938 323.051 304.902C323.365 305.888 324.351 306.47 325.135 306.291C325.92 306.112 326.614 305.215 326.435 303.871C326.256 302.526 325.651 299.546 325.337 298.089C325.023 296.633 324.306 294.728 325.763 292.913C327.219 291.098 328.138 288.162 326.861 284.868C325.584 281.574 320.766 276.039 304.183 275.546" stroke="#A3876E" stroke-width="2" stroke-miterlimit="10" stroke-linecap="round" stroke-linejoin="round"/>
<path d="M277.92 285.071C280.9 286.774 287.13 290.987 301.203 291.704C315.276 292.443 319.242 290.718 320.878 290.068C322.514 289.396 327.825 284.891 321.483 279.334" stroke="#A3876E" stroke-width="2" stroke-miterlimit="10" stroke-linecap="round" stroke-linejoin="round"/>
<path d="M311.666 283.233C311.845 282.045 312.876 281.418 315.319 281.866C318.949 282.538 322.848 284.443 324.282 286.168" stroke="#A3876E" stroke-width="2" stroke-miterlimit="10" stroke-linecap="round" stroke-linejoin="round"/>
<path d="M322.672 265.193C322.739 263.557 324.621 264.409 325.787 265.126C326.952 265.866 330.425 267.681 333.518 268.174C336.117 268.577 339.299 268.532 342.549 268.532C345.776 268.532 346.515 269.742 346.762 271.513C347.008 273.283 347.075 274.022 347.434 276.151C347.904 278.84 351.266 278.101 350.952 275.681C350.773 274.381 350.459 272.14 350.235 270.572C350.011 269.003 349.809 267.322 352.7 265.485C355.904 263.445 357.137 259.591 357.182 257.037C357.227 254.482 357.719 249.485 350.885 244.555" stroke="#A3876E" stroke-width="2" stroke-miterlimit="10" stroke-linecap="round" stroke-linejoin="round"/>
<path d="M312.586 253.653C313.505 252.555 315.544 252.981 321.908 257.732C328.496 262.572 337.034 264.32 346.491 262.393C355.432 260.555 354.827 252.331 354.043 250.337C353.258 248.32 352.205 241.194 337.415 239.737" stroke="#A3876E" stroke-width="2" stroke-miterlimit="10" stroke-linecap="round" stroke-linejoin="round"/>
<path d="M369.391 284.152V278.953" stroke="#A3876E" stroke-width="2" stroke-miterlimit="10" stroke-linecap="round" stroke-linejoin="round"/>
<path d="M269.023 274.875V267.95" stroke="#A3876E" stroke-width="2" stroke-miterlimit="10" stroke-linecap="round" stroke-linejoin="round"/>
<path d="M491.48 125.32L494.536 149.266" stroke="#A3876E" stroke-width="2" stroke-miterlimit="10" stroke-linecap="round" stroke-linejoin="round"/>
<path d="M501.373 143.744C501.373 146.325 503.478 148.43 506.058 148.43C508.638 148.43 510.743 146.325 510.743 143.744C510.743 141.164 506.058 133.062 506.058 133.062C506.058 133.062 501.373 141.142 501.373 143.744Z" stroke="#A3876E" stroke-width="2" stroke-miterlimit="10"/>
<path d="M522.06 119.911C522.06 123.396 514.908 126.248 506.058 126.248C497.209 126.248 490.057 123.419 490.057 119.911C490.057 116.425 497.209 113.573 506.058 113.573C514.908 113.573 522.06 116.425 522.06 119.911Z" stroke="#A3876E" stroke-width="2" stroke-miterlimit="10" stroke-linecap="round" stroke-linejoin="round"/>
<path d="M492.229 123.102C494.628 121.02 499.901 119.594 506.057 119.594C512.191 119.594 517.487 121.042 519.886 123.102" stroke="#A3876E" stroke-width="2" stroke-miterlimit="10" stroke-linecap="round" stroke-linejoin="round"/>
<path d="M516.494 153.182C516.019 155.287 511.537 156.961 506.06 156.961C500.47 156.961 495.92 155.241 495.604 153.046" stroke="#A3876E" stroke-width="2" stroke-miterlimit="10" stroke-linecap="round" stroke-linejoin="round"/>
<path d="M517.556 149.335C517.534 149.38 517.534 149.448 517.511 149.493C516.742 151.734 511.898 153.454 506.036 153.454C500.242 153.454 495.444 151.756 494.606 149.561C494.561 149.47 494.538 149.38 494.516 149.267" stroke="#A3876E" stroke-width="2" stroke-miterlimit="10" stroke-linecap="round" stroke-linejoin="round"/>
<path d="M521.178 124.755L517.557 149.335" stroke="#A3876E" stroke-width="2" stroke-miterlimit="10" stroke-linecap="round" stroke-linejoin="round"/>
<path d="M522.06 119.911C522.083 120.024 521.924 122.74 521.924 122.831C521.924 126.294 514.817 129.1 506.058 129.1C497.571 129.1 490.645 126.475 490.215 123.148C490.192 123.035 490.057 120.002 490.057 119.889" stroke="#A3876E" stroke-width="2" stroke-miterlimit="10" stroke-linecap="round" stroke-linejoin="round"/>
<path d="M495.193 150.488L495.601 153.046" stroke="#A3876E" stroke-width="2" stroke-miterlimit="10" stroke-linecap="round" stroke-linejoin="round"/>
<path d="M516.762 150.58L516.49 153.183" stroke="#A3876E" stroke-width="2" stroke-miterlimit="10" stroke-linecap="round" stroke-linejoin="round"/>
<path d="M477.449 105.606L480.482 129.53" stroke="#A3876E" stroke-width="2" stroke-miterlimit="10" stroke-linecap="round" stroke-linejoin="round"/>
<path d="M508.003 100.198C508.003 103.683 500.851 106.535 492.002 106.535C483.152 106.535 476 103.706 476 100.198C476 96.7121 483.152 93.8604 492.002 93.8604C500.851 93.8604 508.003 96.7121 508.003 100.198Z" stroke="#A3876E" stroke-width="2" stroke-miterlimit="10" stroke-linecap="round" stroke-linejoin="round"/>
<path d="M478.197 103.388C480.596 101.306 485.87 99.8799 492.026 99.8799C498.16 99.8799 503.456 101.328 505.855 103.388" stroke="#A3876E" stroke-width="2" stroke-miterlimit="10" stroke-linecap="round" stroke-linejoin="round"/>
<path d="M492.66 137.225C492.433 137.225 492.23 137.225 492.003 137.225C486.413 137.225 481.864 135.505 481.547 133.31" stroke="#A3876E" stroke-width="2" stroke-miterlimit="10" stroke-linecap="round" stroke-linejoin="round"/>
<path d="M492.001 133.718C486.207 133.718 481.408 132.021 480.571 129.825C480.526 129.735 480.503 129.644 480.48 129.531" stroke="#A3876E" stroke-width="2" stroke-miterlimit="10" stroke-linecap="round" stroke-linejoin="round"/>
<path d="M507.121 105.018L505.854 113.46" stroke="#A3876E" stroke-width="2" stroke-miterlimit="10" stroke-linecap="round" stroke-linejoin="round"/>
<path d="M508.003 100.197C508.026 100.311 507.868 103.027 507.868 103.117C507.868 106.58 500.761 109.387 492.002 109.387C483.514 109.387 476.588 106.761 476.158 103.434C476.136 103.321 476 100.288 476 100.175" stroke="#A3876E" stroke-width="2" stroke-miterlimit="10" stroke-linecap="round" stroke-linejoin="round"/>
<path d="M481.162 130.775L481.547 133.333" stroke="#A3876E" stroke-width="2" stroke-miterlimit="10" stroke-linecap="round" stroke-linejoin="round"/>
<path d="M556.915 111.401C556.915 114.456 550.645 116.946 542.905 116.946C535.164 116.946 528.895 114.456 528.895 111.401C528.895 108.345 535.164 105.855 542.905 105.855C550.645 105.855 556.915 108.345 556.915 111.401Z" stroke="#A3876E" stroke-width="2" stroke-miterlimit="10" stroke-linecap="round" stroke-linejoin="round"/>
<path d="M552.909 82.5653C552.909 84.7607 548.427 86.5261 542.882 86.5261C537.36 86.5261 532.855 84.7607 532.855 82.5653C532.855 80.3699 537.337 78.6045 542.882 78.6045C548.427 78.6045 552.909 80.3699 552.909 82.5653Z" stroke="#A3876E" stroke-width="2" stroke-miterlimit="10" stroke-linecap="round" stroke-linejoin="round"/>
<path d="M557.095 134.124C557.095 137.202 550.781 139.692 543.017 139.692C535.231 139.692 528.939 137.202 528.939 134.124" stroke="#A3876E" stroke-width="2" stroke-miterlimit="10" stroke-linecap="round" stroke-linejoin="round"/>
<path d="M557.073 91.6875C557.073 97.9795 552.908 98.9075 552.908 101.012C552.908 103.253 557.05 104.091 557.073 108.934" stroke="#A3876E" stroke-width="2" stroke-miterlimit="10" stroke-linecap="round" stroke-linejoin="round"/>
<path d="M528.871 108.934V143.087" stroke="#A3876E" stroke-width="2" stroke-miterlimit="10" stroke-linecap="round" stroke-linejoin="round"/>
<path d="M557.072 142.838V108.934" stroke="#A3876E" stroke-width="2" stroke-miterlimit="10" stroke-linecap="round" stroke-linejoin="round"/>
<path d="M528.871 91.6875C528.871 97.9795 533.036 98.9075 533.036 101.012C533.036 103.253 528.894 104.091 528.871 108.934" stroke="#A3876E" stroke-width="2" stroke-miterlimit="10" stroke-linecap="round" stroke-linejoin="round"/>
<path d="M528.871 91.6867C528.871 86.3679 531.361 83.7877 537.245 76.6582C537.789 76.0018 537.924 75.6397 537.924 74.3722C537.924 73.9648 537.924 73.5801 537.924 73.5801" stroke="#A3876E" stroke-width="2" stroke-miterlimit="10" stroke-linecap="round" stroke-linejoin="round"/>
<path d="M557.073 91.6867C557.073 86.3679 554.583 83.7877 548.699 76.6582C548.155 76.0018 548.02 75.6397 548.02 74.3722C548.02 73.9648 548.02 73.5801 548.02 73.5801" stroke="#A3876E" stroke-width="2" stroke-miterlimit="10" stroke-linecap="round" stroke-linejoin="round"/>
<path d="M535.32 150.035C535.864 150.035 536.724 150.895 537.584 153.091C538.444 155.286 539.417 157.979 542.97 157.979" stroke="#A3876E" stroke-width="2" stroke-miterlimit="10" stroke-linecap="round" stroke-linejoin="round"/>
<path d="M550.644 150.035C550.101 150.035 549.241 150.895 548.381 153.091C547.521 155.286 546.548 157.979 542.994 157.979" stroke="#A3876E" stroke-width="2" stroke-miterlimit="10" stroke-linecap="round" stroke-linejoin="round"/>
<path d="M528.871 142.86C528.871 142.86 528.871 144.467 528.871 146.595C528.871 151.642 532.198 155.58 537.245 152.864" stroke="#A3876E" stroke-width="2" stroke-miterlimit="10" stroke-linecap="round" stroke-linejoin="round"/>
<path d="M557.07 142.86C557.07 142.86 557.07 144.467 557.07 146.595C557.07 151.642 553.766 155.603 548.719 152.842" stroke="#A3876E" stroke-width="2" stroke-miterlimit="10" stroke-linecap="round" stroke-linejoin="round"/>
<path d="M549.672 68.3975C549.672 69.8686 546.684 71.0456 542.995 71.0456C539.306 71.0456 536.318 69.8686 536.318 68.3975" stroke="#A3876E" stroke-width="2" stroke-miterlimit="10" stroke-linecap="round" stroke-linejoin="round"/>
<path d="M549.672 71.498C549.672 72.9692 546.684 74.1461 542.995 74.1461C539.306 74.1461 536.318 72.9692 536.318 71.498" stroke="#A3876E" stroke-width="2" stroke-miterlimit="10" stroke-linecap="round" stroke-linejoin="round"/>
<path d="M549.672 62.6481C549.672 64.1193 546.684 65.2962 542.995 65.2962C539.306 65.2962 536.318 64.1193 536.318 62.6481C536.318 61.1769 539.306 60 542.995 60C546.684 60.0226 549.672 61.1996 549.672 62.6481Z" stroke="#A3876E" stroke-width="2" stroke-miterlimit="10" stroke-linecap="round" stroke-linejoin="round"/>
<path d="M536.295 68.3963V62.6475" stroke="#A3876E" stroke-width="2" stroke-miterlimit="10" stroke-linecap="round" stroke-linejoin="round"/>
<path d="M549.672 68.3963V62.6475" stroke="#A3876E" stroke-width="2" stroke-miterlimit="10" stroke-linecap="round" stroke-linejoin="round"/>
<path d="M552.572 466.605C557.658 468.748 560.618 471.316 560.618 474.077C560.618 481.576 538.766 487.655 511.809 487.655C484.853 487.655 463 481.576 463 474.077C463 470.013 469.418 466.365 479.589 463.877" stroke="#A3876E" stroke-width="2" stroke-miterlimit="10" stroke-linecap="round" stroke-linejoin="round"/>
<path d="M547.803 464.905C545.756 464.284 543.492 463.772 541.078 463.209" stroke="#A3876E" stroke-width="2" stroke-miterlimit="10" stroke-linecap="round" stroke-linejoin="round"/>
<path d="M553.142 471.049C553.142 476.876 534.636 481.6 511.808 481.6C488.98 481.6 470.475 476.876 470.475 471.049C470.475 469.847 471.262 468.646 472.712 467.516" stroke="#A3876E" stroke-width="2" stroke-miterlimit="10" stroke-linecap="round" stroke-linejoin="round"/>
<path d="M463 474.077V498.543" stroke="#A3876E" stroke-width="2" stroke-miterlimit="10" stroke-linecap="round" stroke-linejoin="round"/>
<path d="M560.617 474.077V498.604" stroke="#A3876E" stroke-width="2" stroke-miterlimit="10" stroke-linecap="round" stroke-linejoin="round"/>
<path d="M515.236 481.233L513.095 474.566L507.406 472.976L491.449 476.279L490.898 479.949" stroke="#A3876E" stroke-width="2" stroke-miterlimit="10" stroke-linecap="round" stroke-linejoin="round"/>
<path d="M519.797 479.214L523.161 474.474L532.237 473.403L533.583 480.009" stroke="#A3876E" stroke-width="2" stroke-miterlimit="10" stroke-linecap="round" stroke-linejoin="round"/>
<path d="M535.119 468.939L538.599 469.061L545.058 477.227" stroke="#A3876E" stroke-width="2" stroke-miterlimit="10" stroke-linecap="round" stroke-linejoin="round"/>
<path d="M491.506 468.419L485.94 468.572L483.279 473.067" stroke="#A3876E" stroke-width="2" stroke-miterlimit="10" stroke-linecap="round" stroke-linejoin="round"/>
<path d="M485.484 479.123L481.349 468.144L476.7 468.021L473.887 475.178" stroke="#A3876E" stroke-width="2" stroke-miterlimit="10" stroke-linecap="round" stroke-linejoin="round"/>
<path d="M491.539 468.297L491.906 465.178L497.869 465.086L501.814 473.802" stroke="#A3876E" stroke-width="2" stroke-miterlimit="10" stroke-linecap="round" stroke-linejoin="round"/>
<path d="M513.377 473.619L517.047 467.869L524.738 468.175L525.671 473.94" stroke="#A3876E" stroke-width="2" stroke-miterlimit="10" stroke-linecap="round" stroke-linejoin="round"/>
<path d="M524.568 468.175L526.58 463.725L532.458 464.535L535.088 468.725" stroke="#A3876E" stroke-width="2" stroke-miterlimit="10" stroke-linecap="round" stroke-linejoin="round"/>
<path d="M506.826 435.631C506.826 435.631 506.884 451.903 506.826 454.114C506.756 456.832 506.594 458.126 504.815 458.18C503.259 458.227 502.367 456.508 502.857 454.605C503.921 450.472 498.616 450.741 499.425 454.406C500.096 457.447 496.965 457.96 495.839 454.809C495.209 453.045 494.355 450.933 493.073 450.234C492.389 449.861 491.237 449.449 490.091 450.308C488.555 451.46 488.67 452.803 488.915 453.793C489.263 455.197 490.916 456.432 492.464 457.428C494.57 458.783 503.528 464.505 503.528 464.505" stroke="#A3876E" stroke-width="2" stroke-miterlimit="10" stroke-linecap="round" stroke-linejoin="round"/>
<path d="M509.292 457.746C509.292 461.003 508.093 461.966 506.166 462.7C504.24 463.434 502.989 464.346 503.283 465.912C503.65 467.869 505.913 468.725 507.931 467.135" stroke="#A3876E" stroke-width="2" stroke-miterlimit="10" stroke-linecap="round" stroke-linejoin="round"/>
<path d="M517.044 467.869C521.959 468.068 521.264 461.202 517.129 462.93C515.527 463.599 514.23 463.282 514.23 459.857V455.881" stroke="#A3876E" stroke-width="2" stroke-miterlimit="10" stroke-linecap="round" stroke-linejoin="round"/>
<path d="M519.797 460.652L520.531 457.899L525.913 458.312L526.586 463.634" stroke="#A3876E" stroke-width="2" stroke-miterlimit="10" stroke-linecap="round" stroke-linejoin="round"/>
<path d="M532.459 464.199L534.661 458.984L540.166 459.03L541.725 466.737" stroke="#A3876E" stroke-width="2" stroke-miterlimit="10" stroke-linecap="round" stroke-linejoin="round"/>
<path d="M538.605 469.26L541.939 466.584L545.985 467.654" stroke="#A3876E" stroke-width="2" stroke-miterlimit="10" stroke-linecap="round" stroke-linejoin="round"/>
<path d="M545.982 467.655L549.194 463.297L552.084 464.26L553.141 471.049" stroke="#A3876E" stroke-width="2" stroke-miterlimit="10" stroke-linecap="round" stroke-linejoin="round"/>
<path d="M478.596 467.93L480.293 461.462L486.44 460.132L489.245 468.206" stroke="#A3876E" stroke-width="2" stroke-miterlimit="10" stroke-linecap="round" stroke-linejoin="round"/>
<path d="M509.853 423.92C508.982 422.722 508.215 421.353 507.6 419.849C504.831 413.074 506.199 406.105 510.654 404.283C515.11 402.462 520.967 406.478 523.736 413.253C526.506 420.028 525.139 426.997 520.682 428.818C519.337 429.368 517.864 429.386 516.386 428.956" stroke="#A3876E" stroke-width="2" stroke-miterlimit="10" stroke-linecap="round" stroke-linejoin="round"/>
<path d="M524.475 424.787C521.298 423.896 518.089 420.756 516.29 416.355C514.475 411.916 514.584 407.386 516.27 404.528" stroke="#A3876E" stroke-width="2" stroke-miterlimit="10" stroke-linecap="round" stroke-linejoin="round"/>
<path d="M519.631 400.796C523.856 399.749 529.062 403.583 531.603 409.798C534.007 415.68 533.214 421.711 529.945 424.217" stroke="#A3876E" stroke-width="2" stroke-miterlimit="10" stroke-linecap="round" stroke-linejoin="round"/>
<path d="M507.507 426.105C506.43 424.65 505.482 422.977 504.728 421.132C501.452 413.117 503.069 404.871 508.34 402.717C513.612 400.562 520.542 405.313 523.818 413.329C527.094 421.345 525.476 429.589 520.205 431.744C518.546 432.422 516.724 432.416 514.902 431.84" stroke="#A3876E" stroke-width="2" stroke-miterlimit="10" stroke-linecap="round" stroke-linejoin="round"/>
<path d="M523.43 429.06L530.253 423.924" stroke="#A3876E" stroke-width="2" stroke-miterlimit="10" stroke-linecap="round" stroke-linejoin="round"/>
<path d="M511.668 402.228L520.069 400.69" stroke="#A3876E" stroke-width="2" stroke-miterlimit="10" stroke-linecap="round" stroke-linejoin="round"/>
<path d="M467.019 408.424C465.545 408.076 464.633 406.6 464.98 405.127C465.327 403.654 466.803 402.741 468.277 403.088" stroke="#A3876E" stroke-width="2" stroke-miterlimit="10" stroke-linecap="round" stroke-linejoin="round"/>
<path d="M494 413.499C493.493 413.999 492.849 414.241 492.227 414.094C491.115 413.832 490.495 412.425 490.843 410.952C491.19 409.478 492.373 408.497 493.485 408.759C494.148 408.915 494.635 409.478 494.848 410.218" stroke="#A3876E" stroke-width="2" stroke-miterlimit="10" stroke-linecap="round" stroke-linejoin="round"/>
<path d="M468.277 403.089L493.521 408.815" stroke="#A3876E" stroke-width="2" stroke-miterlimit="10" stroke-linecap="round" stroke-linejoin="round"/>
<path d="M467.42 408.472L492.226 414.095" stroke="#A3876E" stroke-width="2" stroke-miterlimit="10" stroke-linecap="round" stroke-linejoin="round"/>
<path d="M494.133 413.402L503.124 415.39" stroke="#A3876E" stroke-width="2" stroke-miterlimit="10" stroke-linecap="round" stroke-linejoin="round"/>
<path d="M494.924 410.436L502.967 412.27" stroke="#A3876E" stroke-width="2" stroke-miterlimit="10" stroke-linecap="round" stroke-linejoin="round"/>
<path d="M523.878 424.9C514.902 427.255 514.23 427.255 514.107 434.84L514.23 457.47" stroke="#A3876E" stroke-width="2" stroke-miterlimit="10" stroke-linecap="round" stroke-linejoin="round"/>
<path d="M519.155 421.231C516.586 421.721 516.463 421.782 514.659 422.18C509.601 423.294 506.962 423.462 506.83 436.431" stroke="#A3876E" stroke-width="2" stroke-miterlimit="10" stroke-linecap="round" stroke-linejoin="round"/>
<path d="M523.066 449.603C523.711 449.01 524.714 449.052 525.307 449.697C525.9 450.341 525.858 451.345 525.214 451.938C524.569 452.531 521.318 453.366 521.318 453.366C521.318 453.366 522.421 450.196 523.066 449.603Z" stroke="#A3876E" stroke-width="2" stroke-miterlimit="10" stroke-linecap="round" stroke-linejoin="round"/>
<path d="M533.055 454.031C533.486 454.031 533.835 453.682 533.835 453.252C533.835 452.821 533.486 452.472 533.055 452.472C532.625 452.472 532.275 452.821 532.275 453.252C532.275 453.682 532.625 454.031 533.055 454.031Z" fill="#A3876E"/>
<path d="M536.862 446.324C537.293 446.324 537.642 445.975 537.642 445.544C537.642 445.114 537.293 444.765 536.862 444.765C536.431 444.765 536.082 445.114 536.082 445.544C536.082 445.975 536.431 446.324 536.862 446.324Z" fill="#A3876E"/>
<path d="M490.745 443.266C491.175 443.266 491.525 442.917 491.525 442.486C491.525 442.055 491.175 441.706 490.745 441.706C490.314 441.706 489.965 442.055 489.965 442.486C489.965 442.917 490.314 443.266 490.745 443.266Z" fill="#A3876E"/>
<path d="M526.676 460.682C528.992 460.888 532.364 461.416 533.526 461.63" stroke="#A3876E" stroke-width="2" stroke-miterlimit="10" stroke-linecap="round" stroke-linejoin="round"/>
<path d="M514.23 459.855C515.454 459.855 518.764 459.947 519.98 460.039" stroke="#A3876E" stroke-width="2" stroke-miterlimit="10" stroke-linecap="round" stroke-linejoin="round"/>
<path d="M487.354 462.063C490.952 461.423 494.881 460.995 497.597 460.728" stroke="#A3876E" stroke-width="2" stroke-miterlimit="10" stroke-linecap="round" stroke-linejoin="round"/>
<path d="M509.276 469.948C509.093 470.682 508.285 471.966 507.404 472.976" stroke="#A3876E" stroke-width="2" stroke-miterlimit="10" stroke-linecap="round" stroke-linejoin="round"/>
<path d="M671.795 417.961C671.795 417.961 676.711 420.237 678.697 421.158C680.682 422.078 680.61 422.78 680.634 424.596V451.476C680.634 452.808 680.392 453.704 678.697 454.697" stroke="#A3876E" stroke-width="2" stroke-miterlimit="10" stroke-linecap="round" stroke-linejoin="round"/>
<path d="M677.752 424.62L668.501 429.028C667.388 429.584 667 430.093 667 432.49V457.409" stroke="#A3876E" stroke-width="2" stroke-miterlimit="10" stroke-linecap="round" stroke-linejoin="round"/>
<path d="M653.172 424.693L661.987 429.028C663.101 429.585 663.488 430.094 663.488 432.491V457.41" stroke="#A3876E" stroke-width="2" stroke-miterlimit="10" stroke-linecap="round" stroke-linejoin="round"/>
<path d="M651.938 454.697L662.472 460.315C663.876 461.066 666.007 461.09 667.678 460.315L678.697 454.697" stroke="#A3876E" stroke-width="2" stroke-miterlimit="10" stroke-linecap="round" stroke-linejoin="round"/>
<path d="M667.485 411.98C669.713 412.392 671.311 413.433 671.311 414.644C671.311 416.218 668.647 417.502 665.354 417.502C662.06 417.502 659.396 416.218 659.396 414.644C659.396 413.458 660.922 412.441 663.077 412.005" stroke="#A3876E" stroke-width="2" stroke-miterlimit="10" stroke-linecap="round" stroke-linejoin="round"/>
<path d="M668.138 410.455C668.138 411.206 666.879 411.787 665.329 411.787C663.779 411.787 662.52 411.182 662.52 410.455" stroke="#A3876E" stroke-width="2" stroke-miterlimit="10" stroke-linecap="round" stroke-linejoin="round"/>
<path d="M662.52 401.954C662.52 401.203 663.779 400.622 665.329 400.622C666.879 400.622 668.138 401.227 668.138 401.954" stroke="#A3876E" stroke-width="2" stroke-miterlimit="10" stroke-linecap="round" stroke-linejoin="round"/>
<path d="M671.311 421.643C671.311 423.217 668.647 424.5 665.354 424.5C662.06 424.5 659.396 423.217 659.396 421.643" stroke="#A3876E" stroke-width="2" stroke-miterlimit="10" stroke-linecap="round" stroke-linejoin="round"/>
<path d="M671.309 421.643V414.475" stroke="#A3876E" stroke-width="2" stroke-miterlimit="10" stroke-linecap="round" stroke-linejoin="round"/>
<path d="M659.348 421.642V414.498" stroke="#A3876E" stroke-width="2" stroke-miterlimit="10" stroke-linecap="round" stroke-linejoin="round"/>
<path d="M662.52 401.955V410.479" stroke="#A3876E" stroke-width="2" stroke-miterlimit="10" stroke-linecap="round" stroke-linejoin="round"/>
<path d="M663.174 414.328V411.519" stroke="#A3876E" stroke-width="2" stroke-miterlimit="10" stroke-linecap="round" stroke-linejoin="round"/>
<path d="M667.459 414.328V411.519" stroke="#A3876E" stroke-width="2" stroke-miterlimit="10" stroke-linecap="round" stroke-linejoin="round"/>
<path d="M668.113 410.333V402.075" stroke="#A3876E" stroke-width="2" stroke-miterlimit="10" stroke-linecap="round" stroke-linejoin="round"/>
<path d="M666.807 406.119L675.113 408.928" stroke="#A3876E" stroke-width="2" stroke-miterlimit="10" stroke-linecap="round" stroke-linejoin="round"/>
<path d="M658.839 417.961C658.839 417.961 653.923 420.237 651.937 421.158C649.952 422.078 650.024 422.78 650 424.596V451.476C650 452.808 650.242 453.704 651.937 454.697" stroke="#A3876E" stroke-width="2" stroke-miterlimit="10" stroke-linecap="round" stroke-linejoin="round"/>
<path d="M665.787 485.697C666.828 483.954 670.679 479.716 674.868 479.014" stroke="#A3876E" stroke-width="2" stroke-miterlimit="10" stroke-linecap="round" stroke-linejoin="round"/>
<path d="M669.396 490.202C673.223 489.112 676.831 486.569 678.938 483.203" stroke="#A3876E" stroke-width="2" stroke-miterlimit="10" stroke-linecap="round" stroke-linejoin="round"/>
<path d="M662.836 488.651L665.379 486.398C665.379 486.398 666.662 486.737 667.825 487.924C668.914 489.038 668.793 490.661 668.793 490.661L666.323 492.985C666.323 492.985 666.372 491.363 665.306 490.273C664.216 489.183 662.836 488.651 662.836 488.651Z" stroke="#A3876E" stroke-width="2" stroke-miterlimit="10" stroke-linecap="round" stroke-linejoin="round"/>
<path d="M675.184 478.867L677.775 476.615C677.775 476.615 679.058 476.906 680.293 478.359C681.528 479.812 681.48 481.289 681.48 481.289L678.792 483.396C678.792 483.396 678.647 481.943 677.46 480.635C676.419 479.424 675.184 478.867 675.184 478.867Z" stroke="#A3876E" stroke-width="2" stroke-miterlimit="10" stroke-linecap="round" stroke-linejoin="round"/>
<path d="M662.568 488.966C661.115 490.201 657.144 492.066 654.432 492.768" stroke="#A3876E" stroke-width="2" stroke-miterlimit="10" stroke-linecap="round" stroke-linejoin="round"/>
<path d="M666.226 493.035C665.427 493.689 662.835 496.958 662.061 498.605" stroke="#A3876E" stroke-width="2" stroke-miterlimit="10" stroke-linecap="round" stroke-linejoin="round"/>
<path d="M656.053 494.778L656.803 494.439" stroke="#A3876E" stroke-width="2" stroke-miterlimit="10" stroke-linecap="round" stroke-linejoin="round"/>
<path d="M657.846 496.619L658.403 496.086" stroke="#A3876E" stroke-width="2" stroke-miterlimit="10" stroke-linecap="round" stroke-linejoin="round"/>
<path d="M659.855 497.901L660.219 497.417" stroke="#A3876E" stroke-width="2" stroke-miterlimit="10" stroke-linecap="round" stroke-linejoin="round"/>
<path d="M678.066 476.398C680.585 473.904 681.263 472.499 682.28 470.465" stroke="#A3876E" stroke-width="2" stroke-miterlimit="10" stroke-linecap="round" stroke-linejoin="round"/>
<path d="M682.766 476.809C687.173 473.782 688.19 473.346 693.493 471.288" stroke="#A3876E" stroke-width="2" stroke-miterlimit="10" stroke-linecap="round" stroke-linejoin="round"/>
<path d="M681.506 481.265C684.291 479.497 686.834 478.819 690.393 477.875" stroke="#A3876E" stroke-width="2" stroke-miterlimit="10" stroke-linecap="round" stroke-linejoin="round"/>
<path d="M678.647 473.008C678.454 470.199 678.454 467.026 679.955 464.048C682.401 465.041 682.885 465.816 682.885 465.816" stroke="#A3876E" stroke-width="2" stroke-miterlimit="10" stroke-linecap="round" stroke-linejoin="round"/>
<path d="M682.885 465.792C684.217 462.692 684.41 459.229 684.41 459.229C683.49 457.195 683.006 452.134 685.113 448.913C687.098 450.1 687.413 450.754 687.777 451.335C688.116 451.867 688.382 452.885 688.551 453.345" stroke="#A3876E" stroke-width="2" stroke-miterlimit="10" stroke-linecap="round" stroke-linejoin="round"/>
<path d="M686.543 481.556C685.453 482.137 684.993 485.527 690.95 481.943C692.524 483.081 694.922 484.389 698.239 485.213C698.53 483.227 698.191 482.137 698.191 482.137C700.855 482.767 703.567 482.815 706.182 482.064C708.798 481.314 708.047 479.933 712.309 479.449C715.312 479.11 719.235 479.546 721.802 477.657C720.518 476.979 718.605 475.405 718.605 475.405C722.383 474.799 724.369 474.291 728.195 473.419C727.032 472.063 725.628 470.755 725.628 470.755C736.743 470.634 738.245 466.59 734.782 465.355C740.037 464.265 745.025 463.006 747.641 461.795C746.89 460.221 746.454 459.592 744.783 458.187C751.128 456.758 754.47 453.295 754.47 453.295L750.643 450.22C754.494 449.76 758.126 446.006 758.126 446.006L753.331 443.076C755.148 440.582 757.303 435.133 757.303 435.133C757.303 435.133 754.542 435.036 750.111 434.867C749.239 434.842 750.861 430.169 745.631 427.82C746.987 426.706 749.651 423.461 749.651 423.461C747.253 423.146 745.122 423.703 744.226 422.662C742.991 421.257 743.306 419.707 742.047 418.739C740.569 417.6 738.124 418.351 735.072 419.538C734.394 416.68 733.183 414.283 733.183 414.283C733.183 414.283 730.011 414.549 725.797 416.39C725.797 416.39 725.652 414.525 725.846 412.079C719.767 412.806 719.283 414.767 718.508 417.382C717.733 419.998 716.256 420.797 715.191 421.814C715.191 421.814 715.094 419.223 713.35 417.116C705.795 424.357 709.379 425.374 706.182 431.597C706.182 431.597 704.802 428.401 702.477 427.917C701.339 432.736 700.322 434.77 698.191 438.233C697.658 437.07 696.665 435.642 695.672 434.576C693.614 438.499 689.715 441.599 691.095 446.515C690.345 448.84 689.957 449.905 688.674 452.811" stroke="#A3876E" stroke-width="2" stroke-miterlimit="10" stroke-linecap="round" stroke-linejoin="round"/>
<path d="M698.189 438.233C698.577 439.129 698.746 440.728 698.335 441.938" stroke="#A3876E" stroke-width="2" stroke-miterlimit="10" stroke-linecap="round" stroke-linejoin="round"/>
<path d="M725.628 470.755C724.127 469.496 720.567 467.898 717.08 468.818" stroke="#A3876E" stroke-width="2" stroke-miterlimit="10" stroke-linecap="round" stroke-linejoin="round"/>
<path d="M750.113 434.843C748.03 434.794 745.318 436.78 743.938 438.863" stroke="#A3876E" stroke-width="2" stroke-miterlimit="10" stroke-linecap="round" stroke-linejoin="round"/>
<path d="M701.364 473.927C706.715 476.349 709.137 475.259 712.963 473.176C710.421 469.762 706.788 468.043 700.443 470.295" stroke="#A3876E" stroke-width="2" stroke-miterlimit="10" stroke-linecap="round" stroke-linejoin="round"/>
<path d="M710.518 458.671L716.184 452.859" stroke="#A3876E" stroke-width="2" stroke-miterlimit="10" stroke-linecap="round" stroke-linejoin="round"/>
<path d="M712.551 457.025C715.384 457.873 719.864 459.689 723.497 456.977C727.129 454.265 727.129 454.264 727.129 454.264C727.129 454.264 724.586 452.424 720.106 452.618" stroke="#A3876E" stroke-width="2" stroke-miterlimit="10" stroke-linecap="round" stroke-linejoin="round"/>
<path d="M714.584 438.693C714.584 438.693 717.829 433.389 714.802 429.66C711.509 432.954 707.634 436.077 708.627 441.986" stroke="#A3876E" stroke-width="2" stroke-miterlimit="10" stroke-linecap="round" stroke-linejoin="round"/>
<path d="M700.927 454.385C700.854 452.327 699.353 448.21 699.353 448.21C697.779 450.68 693.323 453.659 694.679 459.979" stroke="#A3876E" stroke-width="2" stroke-miterlimit="10" stroke-linecap="round" stroke-linejoin="round"/>
<path d="M728.34 436.247C729.381 434.552 731.149 430.121 738.947 427.796C738.68 432.494 737.566 435.158 734.418 437.773" stroke="#A3876E" stroke-width="2" stroke-miterlimit="10" stroke-linecap="round" stroke-linejoin="round"/>
<path d="M735.193 420.167C735.556 422.25 733.667 422.758 730.18 424.381" stroke="#A3876E" stroke-width="2" stroke-miterlimit="10" stroke-linecap="round" stroke-linejoin="round"/>
<path d="M743.765 449.59C741.682 449.953 739.939 451.091 737.105 452.907" stroke="#A3876E" stroke-width="2" stroke-miterlimit="10" stroke-linecap="round" stroke-linejoin="round"/>
<path d="M741.489 445.425C741.102 446.515 740.254 450.97 740.254 450.97" stroke="#A3876E" stroke-width="2" stroke-miterlimit="10" stroke-linecap="round" stroke-linejoin="round"/>
<path d="M292.334 137.199C285.365 137.199 279.723 134.289 279.723 130.664C279.723 127.039 282.173 126.017 284.471 120.478" stroke="#A3876E" stroke-width="2" stroke-miterlimit="10" stroke-linecap="round" stroke-linejoin="round"/>
<path d="M292.332 123.567C287.712 123.567 285.465 121.984 283.627 119.431C277.526 110.471 278.419 104.446 283.499 100.055" stroke="#A3876E" stroke-width="2" stroke-miterlimit="10" stroke-linecap="round" stroke-linejoin="round"/>
<path d="M292.334 104.395C287.713 104.395 285.467 102.812 283.629 100.259C277.527 91.2984 271.4 81.2655 271.4 76.7725" stroke="#A3876E" stroke-width="2" stroke-miterlimit="10" stroke-linecap="round" stroke-linejoin="round"/>
<path d="M292.336 137.225C299.305 137.225 304.947 134.315 304.947 130.689C304.947 127.09 302.496 126.043 300.199 120.503" stroke="#A3876E" stroke-width="2" stroke-miterlimit="10" stroke-linecap="round" stroke-linejoin="round"/>
<path d="M292.336 123.593C296.957 123.593 299.203 122.01 301.041 119.457C307.143 110.497 306.249 104.472 301.169 100.081" stroke="#A3876E" stroke-width="2" stroke-miterlimit="10" stroke-linecap="round" stroke-linejoin="round"/>
<path d="M292.336 104.42C296.957 104.42 299.203 102.837 301.041 100.284C307.143 91.3233 313.27 81.2905 313.27 76.7974" stroke="#A3876E" stroke-width="2" stroke-miterlimit="10" stroke-linecap="round" stroke-linejoin="round"/>
<path d="M288.303 81.4185L288.481 83.231" stroke="#A3876E" stroke-width="2" stroke-miterlimit="10" stroke-linecap="round" stroke-linejoin="round"/>
<path d="M281.742 79.7598L282.151 81.4191" stroke="#A3876E" stroke-width="2" stroke-miterlimit="10" stroke-linecap="round" stroke-linejoin="round"/>
<path d="M283.018 73.7603L283.273 75.4196" stroke="#A3876E" stroke-width="2" stroke-miterlimit="10" stroke-linecap="round" stroke-linejoin="round"/>
<path d="M288.223 71.2842L288.376 73.0712" stroke="#A3876E" stroke-width="2" stroke-miterlimit="10" stroke-linecap="round" stroke-linejoin="round"/>
<path d="M275.816 76.5679L276.48 78.2528" stroke="#A3876E" stroke-width="2" stroke-miterlimit="10" stroke-linecap="round" stroke-linejoin="round"/>
<path d="M282.965 66.459L283.399 68.3991" stroke="#A3876E" stroke-width="2" stroke-miterlimit="10" stroke-linecap="round" stroke-linejoin="round"/>
<path d="M278.268 70.543L278.676 72.1512" stroke="#A3876E" stroke-width="2" stroke-miterlimit="10" stroke-linecap="round" stroke-linejoin="round"/>
<path d="M296.444 81.4185L296.266 83.231" stroke="#A3876E" stroke-width="2" stroke-miterlimit="10" stroke-linecap="round" stroke-linejoin="round"/>
<path d="M303.006 79.7598L302.598 81.4191" stroke="#A3876E" stroke-width="2" stroke-miterlimit="10" stroke-linecap="round" stroke-linejoin="round"/>
<path d="M301.73 73.7603L301.5 75.4196" stroke="#A3876E" stroke-width="2" stroke-miterlimit="10" stroke-linecap="round" stroke-linejoin="round"/>
<path d="M296.548 71.2842L296.369 73.0712" stroke="#A3876E" stroke-width="2" stroke-miterlimit="10" stroke-linecap="round" stroke-linejoin="round"/>
<path d="M308.929 76.5679L308.266 78.2528" stroke="#A3876E" stroke-width="2" stroke-miterlimit="10" stroke-linecap="round" stroke-linejoin="round"/>
<path d="M301.78 66.459L301.346 68.3991" stroke="#A3876E" stroke-width="2" stroke-miterlimit="10" stroke-linecap="round" stroke-linejoin="round"/>
<path d="M306.479 70.543L306.07 72.1512" stroke="#A3876E" stroke-width="2" stroke-miterlimit="10" stroke-linecap="round" stroke-linejoin="round"/>
<path d="M292.361 76.3638V77.9211" stroke="#A3876E" stroke-width="2" stroke-miterlimit="10" stroke-linecap="round" stroke-linejoin="round"/>
<path d="M361.265 101.842C361.265 106.335 352.509 109.96 341.684 109.96C330.86 109.96 322.104 106.335 322.104 101.842C322.104 98.8806 322.027 93.0345 326.801 89.4859C326.877 84.7631 327.209 79.7594 341.684 76.7981C344.595 76.2109 350.339 75.4195 351.053 67.0205C359.708 72.4582 360.32 83.2569 355.112 88.8732C360.525 93.545 361.265 97.7062 361.265 101.842Z" stroke="#A3876E" stroke-width="2" stroke-miterlimit="10" stroke-linecap="round" stroke-linejoin="round"/>
<path d="M355.11 88.8477C353.885 90.022 351.664 91.3495 351.664 91.3495" stroke="#A3876E" stroke-width="2" stroke-miterlimit="10" stroke-linecap="round" stroke-linejoin="round"/>
<path d="M326.799 88.8477C326.799 90.9921 330.015 95.7149 338.21 95.7149" stroke="#A3876E" stroke-width="2" stroke-miterlimit="10" stroke-linecap="round" stroke-linejoin="round"/>
<path d="M272.065 163.29C273.188 165.613 272.882 168.089 271.401 168.804C269.92 169.519 267.802 168.217 266.678 165.894C265.555 163.571 265.861 161.094 267.342 160.38C268.848 159.665 270.942 160.967 272.065 163.29Z" stroke="#A3876E" stroke-width="2" stroke-miterlimit="10" stroke-linecap="round" stroke-linejoin="round"/>
<path d="M270.072 158.21C271.783 157.393 274.208 158.899 275.51 161.58C276.812 164.26 276.454 167.12 274.744 167.936" stroke="#A3876E" stroke-width="2" stroke-miterlimit="10" stroke-linecap="round" stroke-linejoin="round"/>
<path d="M319.932 133.115C321.821 132.196 324.501 133.881 325.931 136.843C327.361 139.804 326.978 142.944 325.088 143.838" stroke="#A3876E" stroke-width="2" stroke-miterlimit="10" stroke-linecap="round" stroke-linejoin="round"/>
<path d="M328.584 127.959C330.677 126.963 333.639 128.801 335.222 132.069C336.804 135.336 336.37 138.808 334.277 139.829" stroke="#A3876E" stroke-width="2" stroke-miterlimit="10" stroke-linecap="round" stroke-linejoin="round"/>
<path d="M325.293 131.327C326.876 130.562 329.097 131.966 330.297 134.442C331.496 136.918 331.165 139.522 329.582 140.288" stroke="#A3876E" stroke-width="2" stroke-miterlimit="10" stroke-linecap="round" stroke-linejoin="round"/>
<path d="M267.494 160.304C271.017 157.98 273.647 152.926 283.858 148.203C296.776 142.229 305.226 140.799 310.868 138.349C315.616 136.281 318.092 134.366 319.931 133.115" stroke="#A3876E" stroke-width="2" stroke-miterlimit="10" stroke-linecap="round" stroke-linejoin="round"/>
<path d="M271.58 168.804C275.563 167.425 281.179 168.421 291.135 163.213C303.747 156.626 310.052 150.806 315.413 147.819C319.932 145.317 322.97 144.526 325.089 143.836" stroke="#A3876E" stroke-width="2" stroke-miterlimit="10" stroke-linecap="round" stroke-linejoin="round"/>
<path d="M329.608 140.288L326.621 141.718" stroke="#A3876E" stroke-width="2" stroke-miterlimit="10" stroke-linecap="round" stroke-linejoin="round"/>
<path d="M325.292 131.302L321.795 132.962" stroke="#A3876E" stroke-width="2" stroke-miterlimit="10" stroke-linecap="round" stroke-linejoin="round"/>
<path d="M326.442 131.124C326.416 129.975 327.208 128.647 328.586 127.958" stroke="#A3876E" stroke-width="2" stroke-miterlimit="10" stroke-linecap="round" stroke-linejoin="round"/>
<path d="M330.449 139.906C331.394 140.544 332.951 140.595 334.279 139.83" stroke="#A3876E" stroke-width="2" stroke-miterlimit="10" stroke-linecap="round" stroke-linejoin="round"/>
<path d="M336.169 135.131C337.164 134.442 339.232 134.544 341.76 135.999C344.287 137.454 345.742 137.811 347.759 137.76C349.776 137.735 353.707 136.535 356.515 133.114L346.559 127.268C344.363 129.183 342.525 129.974 340.509 129.974C338.798 130 335.939 128.8 333.871 129.974" stroke="#A3876E" stroke-width="2" stroke-miterlimit="10" stroke-linecap="round" stroke-linejoin="round"/>
<path d="M371.933 132.477C372.852 133.345 371.882 135.821 369.789 138.042C367.695 140.263 365.27 141.336 364.351 140.493C363.432 139.625 364.402 137.149 366.496 134.928C368.589 132.732 371.04 131.635 371.933 132.477Z" stroke="#A3876E" stroke-width="2" stroke-miterlimit="10" stroke-linecap="round" stroke-linejoin="round"/>
<path d="M339.437 125.66C338.518 124.792 339.488 122.316 341.582 120.095C343.675 117.874 346.1 116.802 347.019 117.644" stroke="#A3876E" stroke-width="2" stroke-miterlimit="10" stroke-linecap="round" stroke-linejoin="round"/>
<path d="M347.02 117.645L371.936 132.477" stroke="#A3876E" stroke-width="2" stroke-miterlimit="10" stroke-linecap="round" stroke-linejoin="round"/>
<path d="M354.855 134.8L364.403 140.493" stroke="#A3876E" stroke-width="2" stroke-miterlimit="10" stroke-linecap="round" stroke-linejoin="round"/>
<path d="M339.486 125.661L344.643 128.724" stroke="#A3876E" stroke-width="2" stroke-miterlimit="10" stroke-linecap="round" stroke-linejoin="round"/>
<path d="M272.066 72.0762L272.679 73.7866" stroke="#A3876E" stroke-width="2" stroke-miterlimit="10" stroke-linecap="round" stroke-linejoin="round"/>
<path d="M273.803 68.2983L274.543 70.1875" stroke="#A3876E" stroke-width="2" stroke-miterlimit="10" stroke-linecap="round" stroke-linejoin="round"/>
<path d="M276.432 65.2603L277.019 67.2005" stroke="#A3876E" stroke-width="2" stroke-miterlimit="10" stroke-linecap="round" stroke-linejoin="round"/>
<path d="M279.826 62.8857L280.311 64.8515" stroke="#A3876E" stroke-width="2" stroke-miterlimit="10" stroke-linecap="round" stroke-linejoin="round"/>
<path d="M283.709 61.2271L284.041 63.2438" stroke="#A3876E" stroke-width="2" stroke-miterlimit="10" stroke-linecap="round" stroke-linejoin="round"/>
<path d="M287.766 60.3843L287.944 62.401" stroke="#A3876E" stroke-width="2" stroke-miterlimit="10" stroke-linecap="round" stroke-linejoin="round"/>
<path d="M312.503 72.0767L311.891 73.7871" stroke="#A3876E" stroke-width="2" stroke-miterlimit="10" stroke-linecap="round" stroke-linejoin="round"/>
<path d="M310.77 68.2988L310.029 70.1879" stroke="#A3876E" stroke-width="2" stroke-miterlimit="10" stroke-linecap="round" stroke-linejoin="round"/>
<path d="M308.138 65.2607L307.551 67.201" stroke="#A3876E" stroke-width="2" stroke-miterlimit="10" stroke-linecap="round" stroke-linejoin="round"/>
<path d="M304.743 62.8862L304.258 64.8519" stroke="#A3876E" stroke-width="2" stroke-miterlimit="10" stroke-linecap="round" stroke-linejoin="round"/>
<path d="M300.865 61.2275L300.559 63.2443" stroke="#A3876E" stroke-width="2" stroke-miterlimit="10" stroke-linecap="round" stroke-linejoin="round"/>
<path d="M296.804 60.3848L296.65 62.4015" stroke="#A3876E" stroke-width="2" stroke-miterlimit="10" stroke-linecap="round" stroke-linejoin="round"/>
<path d="M292.336 60V62.1444" stroke="#A3876E" stroke-width="2" stroke-miterlimit="10" stroke-linecap="round" stroke-linejoin="round"/>
<path d="M295.27 64.9531L295.117 67.072" stroke="#A3876E" stroke-width="2" stroke-miterlimit="10" stroke-linecap="round" stroke-linejoin="round"/>
<path d="M289.297 64.9531L289.425 67.072" stroke="#A3876E" stroke-width="2" stroke-miterlimit="10" stroke-linecap="round" stroke-linejoin="round"/>
<path d="M358.644 468.669C358.292 470.87 357.73 471.783 359.791 475.716C361.874 479.649 365.573 491.659 366.135 500.438" stroke="#A3876E" stroke-width="2" stroke-miterlimit="10" stroke-linecap="round" stroke-linejoin="round"/>
<path d="M317.532 488.639C317.298 490.722 316.83 497.184 316.713 500.532" stroke="#A3876E" stroke-width="2" stroke-miterlimit="10" stroke-linecap="round" stroke-linejoin="round"/>
<path d="M315.566 480.188C310.485 480.656 297.188 481.194 283.258 480.937" stroke="#A3876E" stroke-width="2" stroke-miterlimit="10" stroke-linecap="round" stroke-linejoin="round"/>
<path d="M271.178 478.595C272.278 477.823 272.957 477.518 273.87 477.027C275.204 476.324 276.82 475.762 277.569 475.575C278.318 475.411 279.653 475.107 280.683 474.99C281.713 474.873 283.118 475.622 285.248 472.976C287.378 470.331 290.914 466.679 292.412 464.314C293.91 461.95 297.89 455.769 298.593 454.669C299.295 453.568 303.158 449.425 304.539 447.037C305.92 444.672 309.807 438.023 310.017 437.391C310.251 436.759 310.462 431.515 311.75 427.863C313.014 424.281 314.629 421.518 317.649 420.348C320.552 419.224 321.793 419.388 322.87 418.802C324.041 418.17 331.954 414.003 331.954 414.003L331.673 411.521" stroke="#A3876E" stroke-width="2" stroke-miterlimit="10" stroke-linecap="round" stroke-linejoin="round"/>
<path d="M275.065 501C272.841 488.381 271.459 485.455 270.125 481.686C269.891 481.1 269.961 480.796 270.546 480.796C271.272 480.796 271.881 480.819 272.888 480.796" stroke="#A3876E" stroke-width="2" stroke-miterlimit="10" stroke-linecap="round" stroke-linejoin="round"/>
<path d="M285.295 479.555C284.288 480.163 281.971 482.036 279.255 481.193C277.476 480.702 277.546 481.217 276.024 481.591C275.345 481.755 273.753 481.943 273.027 480.913" stroke="#A3876E" stroke-width="2" stroke-miterlimit="10" stroke-linecap="round" stroke-linejoin="round"/>
<path d="M345.931 405.88C345.931 405.88 346.118 408.104 346.282 409.485C346.446 410.867 346.516 412.716 349.044 413.793C351.596 414.87 362.436 420.02 364.519 421.566C366.603 423.111 368.686 425.639 368.593 430.181C368.523 434.723 369.061 437.813 369.131 439.499C369.201 441.184 369.506 444.813 367.75 450.362C365.971 455.91 363.513 460.452 362.974 462.137C362.436 463.823 362.038 465.93 359.579 467.92C356.817 470.144 353.282 473.117 348.178 475.693C343.028 478.315 332.094 481.546 330.783 482.014C328.7 484.472 328.325 485.549 326.007 486.719C323.69 487.867 321.864 489.927 321.419 490.208C320.014 491.074 318.68 489.927 318.844 488.873C318.094 489.037 316.643 487.96 316.947 486.79C315.73 486.743 315.004 485.291 315.308 484.449C314.302 484.332 313.81 483.536 313.716 483.091C313.529 482.201 314.208 481.382 315.355 480.492C315.87 480.094 316.385 479.743 316.385 479.743" stroke="#A3876E" stroke-width="2" stroke-miterlimit="10" stroke-linecap="round" stroke-linejoin="round"/>
<path d="M315.17 477.331C317.09 477.495 317.839 477.541 319.173 477.073C320.508 476.605 319.993 476.792 322.076 476.464C324.16 476.113 324.933 476.113 328.842 474.24C332.752 472.367 337.2 470.495 341.321 466.491C345.441 462.488 349.257 459.983 350.638 459.093C351.692 458.414 353.213 456.939 353.565 455.979" stroke="#A3876E" stroke-width="2" stroke-miterlimit="10" stroke-linecap="round" stroke-linejoin="round"/>
<path d="M352.37 457.315C351.762 455.278 351.504 451.486 352.417 447.716C353.517 443.175 355.063 440.037 355.39 438.375C355.695 436.713 354.805 434.442 354.782 434.208" stroke="#A3876E" stroke-width="2" stroke-miterlimit="10" stroke-linecap="round" stroke-linejoin="round"/>
<path d="M319.289 440.294C319.453 442.869 319.781 445.304 320.717 447.832C321.63 450.384 323.409 456.776 322.941 459.07C322.473 461.388 321.63 463.143 321.326 466.07C321.021 468.996 321.092 472.227 321.092 472.929C321.092 473.632 320.717 474.779 320.577 476.394" stroke="#A3876E" stroke-width="2" stroke-miterlimit="10" stroke-linecap="round" stroke-linejoin="round"/>
<path d="M319.825 446.311C318.749 448.769 316.08 453.24 314.019 455.535C312.404 457.314 310.555 458.391 309.407 460.474C308.26 462.558 306.223 466.585 301.33 470.401C296.391 474.24 287.611 480.679 287.611 480.679" stroke="#A3876E" stroke-width="2" stroke-miterlimit="10" stroke-linecap="round" stroke-linejoin="round"/>
<path d="M317.02 435.213C317.3 435.822 318.167 438.397 319.946 441.323C320.625 442.447 321.093 443.103 322.217 443.945" stroke="#A3876E" stroke-width="2" stroke-miterlimit="10" stroke-linecap="round" stroke-linejoin="round"/>
<path d="M359.066 474.334C355.835 475.177 350.357 476.183 346.119 476.792" stroke="#A3876E" stroke-width="2" stroke-miterlimit="10" stroke-linecap="round" stroke-linejoin="round"/>
<path d="M325.141 487.726C328.137 488.873 331.485 490.605 345.251 491.776" stroke="#A3876E" stroke-width="2" stroke-miterlimit="10" stroke-linecap="round" stroke-linejoin="round"/>
<path d="M322.848 489.575C324.112 491.191 326.43 494.304 332.212 496.622" stroke="#A3876E" stroke-width="2" stroke-miterlimit="10" stroke-linecap="round" stroke-linejoin="round"/>
<path d="M277.338 484.612C284.034 493.157 291.432 499.619 292.134 500.321" stroke="#A3876E" stroke-width="2" stroke-miterlimit="10" stroke-linecap="round" stroke-linejoin="round"/>
<path d="M347.971 396.539C348.088 397.686 348.205 401.9 346.238 402.134" stroke="#A3876E" stroke-width="2" stroke-miterlimit="10" stroke-linecap="round" stroke-linejoin="round"/>
<path d="M325.211 396L326.241 398.552C325.422 398.833 324.977 400.448 326.077 402.134C327.177 403.819 327.341 403.819 327.341 403.819C327.341 403.819 328.161 406.184 329.027 408.151C329.846 410 332.492 411.896 334.107 412.997C335.723 414.097 336.472 414.378 338.719 413.98C340.967 413.582 343.402 409.766 344.619 408.151C346.234 405.997 346.188 404.054 346.234 402.134" stroke="#A3876E" stroke-width="2" stroke-miterlimit="10" stroke-linecap="round" stroke-linejoin="round"/>
<path d="M342.514 396.866C341.437 396.632 339.096 397.357 337.621 397.802" stroke="#A3876E" stroke-width="2" stroke-miterlimit="10" stroke-linecap="round" stroke-linejoin="round"/>
<path d="M332.702 398.599C330.502 398.435 329.12 398.481 328.488 398.833" stroke="#A3876E" stroke-width="2" stroke-miterlimit="10" stroke-linecap="round" stroke-linejoin="round"/>
<path d="M334.156 404.662C334.156 404.662 334.976 405.294 335.655 405.411" stroke="#A3876E" stroke-width="2" stroke-miterlimit="10" stroke-linecap="round" stroke-linejoin="round"/>
<path d="M349.466 443.032L348.764 443.149" stroke="#A3876E" stroke-width="2" stroke-miterlimit="10" stroke-linecap="round" stroke-linejoin="round"/>
<path d="M140.298 138.083C142.538 149.146 139.303 159.146 133.081 160.412C126.837 161.679 119.96 153.738 117.72 142.675C115.48 131.612 118.715 121.613 124.937 120.346C131.158 119.079 138.059 127.02 140.298 138.083Z" stroke="#A3876E" stroke-width="2" stroke-miterlimit="10" stroke-linecap="round" stroke-linejoin="round"/>
<path d="M126.818 162.109C120.574 163.376 113.696 155.435 111.456 144.372C109.216 133.309 112.452 123.309 118.673 122.042" stroke="#A3876E" stroke-width="2" stroke-miterlimit="10" stroke-linecap="round" stroke-linejoin="round"/>
<path d="M118.49 122.087L124.825 120.368" stroke="#A3876E" stroke-width="2" stroke-miterlimit="10" stroke-linecap="round" stroke-linejoin="round"/>
<path d="M126.93 162.086L133.264 160.366" stroke="#A3876E" stroke-width="2" stroke-miterlimit="10" stroke-linecap="round" stroke-linejoin="round"/>
<path d="M112.424 127.947C109.347 128.965 105.592 129.553 101.542 129.553C91.2028 129.553 82.832 125.685 82.832 120.934C82.832 116.16 91.2028 112.314 101.542 112.314C111.881 112.314 120.252 116.183 120.252 120.934C120.252 121.024 120.252 121.137 120.252 121.228" stroke="#A3876E" stroke-width="2" stroke-miterlimit="10" stroke-linecap="round" stroke-linejoin="round"/>
<path d="M86.4727 125.933C89.8889 123.807 95.3638 122.427 101.517 122.427C106.449 122.427 110.929 123.309 114.255 124.734" stroke="#A3876E" stroke-width="2" stroke-miterlimit="10" stroke-linecap="round" stroke-linejoin="round"/>
<path d="M110.796 133.173C108.059 133.897 104.891 134.304 101.52 134.304C91.1814 134.304 82.8105 130.436 82.8105 125.685" stroke="#A3876E" stroke-width="2" stroke-miterlimit="10" stroke-linecap="round" stroke-linejoin="round"/>
<path d="M110.569 136.657C107.832 137.268 104.778 137.63 101.52 137.63C90.1853 137.63 81 133.399 81 128.173C81 126.838 81.5882 125.571 82.6742 124.44" stroke="#A3876E" stroke-width="2" stroke-miterlimit="10" stroke-linecap="round" stroke-linejoin="round"/>
<path d="M116.496 156.86C112.763 158.693 107.446 159.846 101.541 159.846C90.2068 159.846 81.0215 155.616 81.0215 150.39" stroke="#A3876E" stroke-width="2" stroke-miterlimit="10" stroke-linecap="round" stroke-linejoin="round"/>
<path d="M82.832 120.821V126.612" stroke="#A3876E" stroke-width="2" stroke-miterlimit="10" stroke-linecap="round" stroke-linejoin="round"/>
<path d="M81.0215 150.391V128.355" stroke="#A3876E" stroke-width="2" stroke-miterlimit="10" stroke-linecap="round" stroke-linejoin="round"/>
<path d="M127.652 120.345V99.4633C127.675 96.8389 127.562 95.8208 130.458 94.486C133.354 93.1512 140.457 89.8481 140.457 89.8481" stroke="#A3876E" stroke-width="2" stroke-miterlimit="10" stroke-linecap="round" stroke-linejoin="round"/>
<path d="M158.195 89.8481C158.195 89.8481 165.299 93.1512 168.195 94.486C171.091 95.8208 170.955 96.8389 171 99.4633V138.399C170.978 140.345 170.638 141.634 168.195 143.059" stroke="#A3876E" stroke-width="2" stroke-miterlimit="10" stroke-linecap="round" stroke-linejoin="round"/>
<path d="M167.562 99.2598L153.49 106.205C151.861 107.02 151.318 107.744 151.318 111.228V148.376" stroke="#A3876E" stroke-width="2" stroke-miterlimit="10" stroke-linecap="round" stroke-linejoin="round"/>
<path d="M131.229 99.4409L144.803 106.205C146.432 107.02 146.975 107.744 146.975 111.228V148.376" stroke="#A3876E" stroke-width="2" stroke-miterlimit="10" stroke-linecap="round" stroke-linejoin="round"/>
<path d="M140.752 148.716L145.05 150.978C147.087 152.064 150.163 152.11 152.584 150.978L168.534 142.856" stroke="#A3876E" stroke-width="2" stroke-miterlimit="10" stroke-linecap="round" stroke-linejoin="round"/>
<path d="M152.312 81.2061C155.547 81.7943 157.855 83.3101 157.855 85.0521C157.855 87.3371 153.986 89.1696 149.213 89.1696C144.439 89.1696 140.57 87.3145 140.57 85.0521C140.57 83.3327 142.765 81.8622 145.91 81.2287" stroke="#A3876E" stroke-width="2" stroke-miterlimit="10" stroke-linecap="round" stroke-linejoin="round"/>
<path d="M153.262 78.9888C153.262 80.0521 151.429 80.9344 149.189 80.9344C146.95 80.9344 145.117 80.0747 145.117 78.9888" stroke="#A3876E" stroke-width="2" stroke-miterlimit="10" stroke-linecap="round" stroke-linejoin="round"/>
<path d="M152.291 84.645C152.291 85.4595 150.911 86.1156 149.191 86.1156C147.472 86.1156 146.092 85.4595 146.092 84.645" stroke="#A3876E" stroke-width="2" stroke-miterlimit="10" stroke-linecap="round" stroke-linejoin="round"/>
<path d="M153.262 66.7039C153.262 67.7672 151.429 68.6496 149.189 68.6496C146.95 68.6496 145.117 67.7899 145.117 66.7039C145.117 65.618 146.95 64.7583 149.189 64.7583C151.452 64.7583 153.262 65.618 153.262 66.7039Z" stroke="#A3876E" stroke-width="2" stroke-miterlimit="10" stroke-linecap="round" stroke-linejoin="round"/>
<path d="M157.855 95.1875C157.855 97.4725 153.986 99.305 149.213 99.305C144.439 99.305 140.57 97.4499 140.57 95.1875" stroke="#A3876E" stroke-width="2" stroke-miterlimit="10" stroke-linecap="round" stroke-linejoin="round"/>
<path d="M157.857 95.1879V84.8262" stroke="#A3876E" stroke-width="2" stroke-miterlimit="10" stroke-linecap="round" stroke-linejoin="round"/>
<path d="M140.525 95.2103V84.8486" stroke="#A3876E" stroke-width="2" stroke-miterlimit="10" stroke-linecap="round" stroke-linejoin="round"/>
<path d="M145.117 66.7041V79.0341" stroke="#A3876E" stroke-width="2" stroke-miterlimit="10" stroke-linecap="round" stroke-linejoin="round"/>
<path d="M146.07 84.6001V80.5278" stroke="#A3876E" stroke-width="2" stroke-miterlimit="10" stroke-linecap="round" stroke-linejoin="round"/>
<path d="M152.289 84.6001V80.5278" stroke="#A3876E" stroke-width="2" stroke-miterlimit="10" stroke-linecap="round" stroke-linejoin="round"/>
<path d="M153.219 71.2287V66.6587" stroke="#A3876E" stroke-width="2" stroke-miterlimit="10" stroke-linecap="round" stroke-linejoin="round"/>
<path d="M153.219 78.8081V74.6001" stroke="#A3876E" stroke-width="2" stroke-miterlimit="10" stroke-linecap="round" stroke-linejoin="round"/>
<path d="M150.775 73.604L164.463 78.2872" stroke="#A3876E" stroke-width="2" stroke-miterlimit="10" stroke-linecap="round" stroke-linejoin="round"/>
<path d="M152.131 71.1162L165.569 75.7541" stroke="#A3876E" stroke-width="2" stroke-miterlimit="10" stroke-linecap="round" stroke-linejoin="round"/>
<path d="M165.571 75.7539C165.685 75.7992 165.866 75.8671 166.001 75.9123C166.567 76.1838 166.522 77.134 166.047 77.7448C165.617 78.2878 164.961 78.5141 164.463 78.2878" stroke="#A3876E" stroke-width="2" stroke-miterlimit="10" stroke-linecap="round" stroke-linejoin="round"/>
<path d="M150.571 73.4689C150.074 73.0843 150.051 72.2698 150.526 71.659C150.911 71.1613 151.499 70.935 151.974 71.0934" stroke="#A3876E" stroke-width="2" stroke-miterlimit="10" stroke-linecap="round" stroke-linejoin="round"/>
</svg>
