<svg width="832" height="560" viewBox="0 0 832 560" fill="none" xmlns="http://www.w3.org/2000/svg">
<rect width="832" height="560" rx="4" fill="#09151E"/>
<path d="M508.461 169.377C499.397 165.421 498.596 149.897 498.596 144.689C498.596 131.067 535.203 120 580.323 120C625.444 120 662.051 131.067 662.051 144.689C662.051 149.746 661.5 165.822 652.837 169.778" stroke="#A3876E" stroke-width="1.41038" stroke-miterlimit="10" stroke-linecap="round" stroke-linejoin="round"/>
<path d="M508.912 164.771C508.912 153.503 541.012 144.389 580.624 144.389C620.236 144.389 652.336 153.503 652.336 164.771" stroke="#A3876E" stroke-width="1.41038" stroke-miterlimit="10" stroke-linecap="round" stroke-linejoin="round"/>
<path d="M508.912 164.769V413.858" stroke="#A3876E" stroke-width="1.41038" stroke-miterlimit="10" stroke-linecap="round" stroke-linejoin="round"/>
<path d="M652.387 164.769V412.706" stroke="#A3876E" stroke-width="1.41038" stroke-miterlimit="10" stroke-linecap="round" stroke-linejoin="round"/>
<path d="M579.972 439.95C536.203 439.95 500.748 431.938 500.748 422.072C500.748 418.717 501.599 408.801 508.61 405.847" stroke="#A3876E" stroke-width="1.41038" stroke-miterlimit="10" stroke-linecap="round" stroke-linejoin="round"/>
<path d="M652.386 405.697C659.797 408.401 660.649 418.617 660.649 422.072C660.649 431.938 625.193 439.95 581.425 439.95L579.422 440" stroke="#A3876E" stroke-width="1.41038" stroke-miterlimit="10" stroke-linecap="round" stroke-linejoin="round"/>
<path d="M537.955 158.311C546.869 155.556 561.792 153.553 579.821 153.553C596.897 153.553 612.872 155.356 621.986 157.86" stroke="#A3876E" stroke-width="1.41038" stroke-miterlimit="10" stroke-linecap="round" stroke-linejoin="round"/>
<path d="M538.207 173.083C544.567 174.436 552.93 175.637 562.445 176.038C564.648 176.138 570.257 176.238 570.257 176.238" stroke="#A3876E" stroke-width="1.41038" stroke-miterlimit="10" stroke-linecap="round" stroke-linejoin="round"/>
<path d="M621.739 172.782C615.279 174.284 606.415 175.386 596.249 176.037C593.545 176.237 589.088 176.337 589.088 176.337" stroke="#A3876E" stroke-width="1.41038" stroke-miterlimit="10" stroke-linecap="round" stroke-linejoin="round"/>
<path d="M537.955 158.31V420.97" stroke="#A3876E" stroke-width="1.41038" stroke-miterlimit="10" stroke-linecap="round" stroke-linejoin="round"/>
<path d="M526.291 151.9V422.473" stroke="#A3876E" stroke-width="1.41038" stroke-miterlimit="10" stroke-linecap="round" stroke-linejoin="round"/>
<path d="M635.062 151.549V422.072" stroke="#A3876E" stroke-width="1.41038" stroke-miterlimit="10" stroke-linecap="round" stroke-linejoin="round"/>
<path d="M621.988 157.86V420.22" stroke="#A3876E" stroke-width="1.41038" stroke-miterlimit="10" stroke-linecap="round" stroke-linejoin="round"/>
<path d="M621.539 412.157C610.822 413.81 595.448 414.811 578.322 414.811C563.048 414.811 549.176 414.01 538.76 412.658" stroke="#A3876E" stroke-width="1.41038" stroke-miterlimit="10" stroke-linecap="round" stroke-linejoin="round"/>
<path d="M621.539 420.62C610.822 422.272 595.448 423.274 578.322 423.274C563.048 423.274 549.176 422.473 538.76 421.12" stroke="#A3876E" stroke-width="1.41038" stroke-miterlimit="10" stroke-linecap="round" stroke-linejoin="round"/>
<path d="M580.522 128.713C544.966 128.713 526.137 138.328 526.137 152.6" stroke="#A3876E" stroke-width="1.41038" stroke-miterlimit="10" stroke-linecap="round" stroke-linejoin="round"/>
<path d="M580.521 128.713C616.077 128.713 635.257 138.328 635.257 152.6" stroke="#A3876E" stroke-width="1.41038" stroke-miterlimit="10" stroke-linecap="round" stroke-linejoin="round"/>
<path d="M670.059 280.101H726.196" stroke="#A3876E" stroke-width="1.41038" stroke-miterlimit="10" stroke-linecap="round" stroke-linejoin="round"/>
<path d="M669.959 237.835L702.31 223.763" stroke="#A3876E" stroke-width="1.41038" stroke-miterlimit="10" stroke-linecap="round" stroke-linejoin="round"/>
<path d="M670.059 258.819L718.885 247.051" stroke="#A3876E" stroke-width="1.41038" stroke-miterlimit="10" stroke-linecap="round" stroke-linejoin="round"/>
<path d="M669.959 217.954L681.878 208.94" stroke="#A3876E" stroke-width="1.41038" stroke-miterlimit="10" stroke-linecap="round" stroke-linejoin="round"/>
<path d="M669.959 322.317L702.31 336.389" stroke="#A3876E" stroke-width="1.41038" stroke-miterlimit="10" stroke-linecap="round" stroke-linejoin="round"/>
<path d="M670.059 301.334L718.885 313.102" stroke="#A3876E" stroke-width="1.41038" stroke-miterlimit="10" stroke-linecap="round" stroke-linejoin="round"/>
<path d="M669.959 342.197L681.878 351.211" stroke="#A3876E" stroke-width="1.41038" stroke-miterlimit="10" stroke-linecap="round" stroke-linejoin="round"/>
<path d="M492.235 280.102H436.098" stroke="#A3876E" stroke-width="1.41038" stroke-miterlimit="10" stroke-linecap="round" stroke-linejoin="round"/>
<path d="M492.337 237.833L459.986 223.761" stroke="#A3876E" stroke-width="1.41038" stroke-miterlimit="10" stroke-linecap="round" stroke-linejoin="round"/>
<path d="M492.238 258.818L443.412 247.05" stroke="#A3876E" stroke-width="1.41038" stroke-miterlimit="10" stroke-linecap="round" stroke-linejoin="round"/>
<path d="M492.337 217.954L480.418 208.939" stroke="#A3876E" stroke-width="1.41038" stroke-miterlimit="10" stroke-linecap="round" stroke-linejoin="round"/>
<path d="M492.337 322.318L459.986 336.39" stroke="#A3876E" stroke-width="1.41038" stroke-miterlimit="10" stroke-linecap="round" stroke-linejoin="round"/>
<path d="M492.238 301.335L443.412 313.103" stroke="#A3876E" stroke-width="1.41038" stroke-miterlimit="10" stroke-linecap="round" stroke-linejoin="round"/>
<path d="M492.337 342.197L480.418 351.211" stroke="#A3876E" stroke-width="1.41038" stroke-miterlimit="10" stroke-linecap="round" stroke-linejoin="round"/>
<path d="M601.756 276.995C598.401 278.748 592.091 281.652 587.183 283.305C584.229 288.513 582.726 291.368 579.922 291.368" stroke="#A3876E" stroke-width="1.41038" stroke-miterlimit="10" stroke-linecap="round" stroke-linejoin="round"/>
<path d="M600.954 266.578C600.604 269.182 597.9 269.833 594.544 270.834C591.089 271.836 585.33 273.038 580.322 273.138" stroke="#A3876E" stroke-width="1.41038" stroke-miterlimit="10" stroke-linecap="round" stroke-linejoin="round"/>
<path d="M580.075 191.112C582.078 191.112 583.631 190.16 584.933 188.908C586.235 187.656 588.188 186.104 588.538 181.997C588.889 177.891 589.39 173.284 589.29 169.278C589.24 166.123 585.384 161.065 579.875 161.015" stroke="#A3876E" stroke-width="1.41038" stroke-miterlimit="10" stroke-linecap="round" stroke-linejoin="round"/>
<path d="M557.087 232.976C557.638 237.282 560.192 244.994 560.142 256.112C560.091 264.074 557.938 266.428 557.788 276.043C557.638 285.658 556.386 293.57 556.386 301.533C556.386 310.747 558.038 321.564 559.19 331.88C560.292 342.196 557.537 345.101 557.638 355.417C557.788 365.733 562.245 383.911 561.694 392.024C561.143 400.087 555.935 402.44 554.833 406.797C554.282 409.251 565.951 410.403 568.354 407.649C570.007 405.746 569.656 403.742 570.057 402.44C570.408 401.138 571.359 399.336 571.209 397.282C571.059 394.578 570.608 392.775 570.808 387.517C570.958 382.71 573.112 366.735 573.312 361.126C573.512 355.567 573.012 346.303 573.012 344.3C573.012 342.296 574.013 338.541 574.414 335.235C574.714 332.481 574.815 326.221 575.365 323.066C575.916 319.911 579.872 305.539 579.872 292.519" stroke="#A3876E" stroke-width="1.41038" stroke-miterlimit="10" stroke-linecap="round" stroke-linejoin="round"/>
<path d="M569.155 228.169C562.795 227.869 558.588 226.366 555.984 220.908" stroke="#A3876E" stroke-width="1.41038" stroke-miterlimit="10" stroke-linecap="round" stroke-linejoin="round"/>
<path d="M602.609 232.526C602.058 236.833 599.454 244.996 599.504 256.113C599.554 264.076 601.708 266.429 601.858 276.044C602.008 285.659 603.26 293.572 603.26 301.534C603.26 310.748 601.608 321.565 600.456 331.882C599.354 342.198 602.108 345.102 602.008 355.418C601.858 365.734 597.401 383.913 597.952 392.026C598.503 400.088 603.711 402.442 604.813 406.799C605.363 409.253 593.695 410.404 591.291 407.65C589.639 405.747 589.989 403.744 589.589 402.442C589.238 401.14 588.287 399.337 588.437 397.284C588.587 394.58 589.038 392.777 588.838 387.519C588.687 382.711 586.534 366.736 586.334 361.127C586.133 355.569 586.634 346.304 586.634 344.301C586.634 342.298 585.633 338.542 585.232 335.237C584.932 332.482 584.831 326.223 584.28 323.068C583.73 319.913 579.773 305.54 579.773 292.52" stroke="#A3876E" stroke-width="1.41038" stroke-miterlimit="10" stroke-linecap="round" stroke-linejoin="round"/>
<path d="M611.52 289.014C608.766 285.809 609.166 282.604 609.717 279.549C610.719 274.041 614.124 274.041 614.124 273.59C614.274 270.535 613.022 265.527 611.57 261.421C610.068 257.064 606.462 249.402 608.115 243.944C606.462 241.139 603.157 235.981 602.556 231.424C602.105 228.319 602.105 226.316 602.105 223.412" stroke="#A3876E" stroke-width="1.41038" stroke-miterlimit="10" stroke-linecap="round" stroke-linejoin="round"/>
<path d="M621.991 255.312C621.841 244.295 617.084 238.386 616.633 234.38C616.082 229.572 615.03 224.364 613.528 219.957C613.528 219.957 614.83 216.952 613.578 209.591C612.326 202.229 604.865 199.976 599.156 198.724C593.447 197.472 587.988 196.02 587.337 192.915C586.836 190.561 586.586 187.506 586.586 187.506" stroke="#A3876E" stroke-width="1.41038" stroke-miterlimit="10" stroke-linecap="round" stroke-linejoin="round"/>
<path d="M611.721 289.064C611.12 291.368 610.77 293.121 610.219 295.624C610.219 295.624 613.824 297.477 615.878 296.476C620.435 294.272 621.587 288.864 621.887 284.106" stroke="#A3876E" stroke-width="1.41038" stroke-miterlimit="10" stroke-linecap="round" stroke-linejoin="round"/>
<path d="M548.419 289.114C551.173 285.909 550.773 282.704 550.222 279.649C549.22 274.14 545.815 274.14 545.815 273.69C545.665 270.635 546.917 265.627 548.369 261.521C549.871 257.164 553.477 249.502 551.824 244.043C553.477 241.239 556.782 236.081 557.383 231.524C557.834 228.419 557.784 226.816 557.784 223.962" stroke="#A3876E" stroke-width="1.41038" stroke-miterlimit="10" stroke-linecap="round" stroke-linejoin="round"/>
<path d="M537.906 255.412C538.056 244.395 542.814 238.485 543.265 234.479C543.815 229.672 544.867 224.464 546.369 220.057C546.369 220.057 545.067 217.052 546.319 209.69C547.571 202.329 555.033 200.075 560.742 198.823C566.451 197.572 571.909 196.119 572.56 193.014C573.061 190.661 573.312 187.606 573.312 187.606" stroke="#A3876E" stroke-width="1.41038" stroke-miterlimit="10" stroke-linecap="round" stroke-linejoin="round"/>
<path d="M548.176 289.164C548.777 291.467 549.127 293.22 549.678 295.724C549.678 295.724 546.072 297.577 544.019 296.575C539.462 294.372 538.31 288.963 538.01 284.206" stroke="#A3876E" stroke-width="1.41038" stroke-miterlimit="10" stroke-linecap="round" stroke-linejoin="round"/>
<path d="M590.438 228.169C596.797 227.869 601.004 226.366 603.608 220.908" stroke="#A3876E" stroke-width="1.41038" stroke-miterlimit="10" stroke-linecap="round" stroke-linejoin="round"/>
<path d="M557.842 276.995C561.197 278.748 567.507 281.652 572.414 283.305C575.369 288.513 576.871 291.368 579.676 291.368" stroke="#A3876E" stroke-width="1.41038" stroke-miterlimit="10" stroke-linecap="round" stroke-linejoin="round"/>
<path d="M558.693 266.578C559.044 269.182 561.748 269.833 565.103 270.834C568.559 271.836 574.318 273.038 579.326 273.138" stroke="#A3876E" stroke-width="1.41038" stroke-miterlimit="10" stroke-linecap="round" stroke-linejoin="round"/>
<path d="M579.522 191.112C577.519 191.112 575.967 190.16 574.665 188.908C573.363 187.656 571.41 186.104 571.059 181.997C570.709 177.891 570.208 173.284 570.308 169.278C570.358 166.123 574.214 161.065 579.723 161.015" stroke="#A3876E" stroke-width="1.41038" stroke-miterlimit="10" stroke-linecap="round" stroke-linejoin="round"/>
<path d="M600.156 398.984C608.169 399.385 615.38 400.036 621.339 400.887" stroke="#A3876E" stroke-width="1.41038" stroke-miterlimit="10" stroke-linecap="round" stroke-linejoin="round"/>
<path d="M571.111 398.585C573.816 398.535 576.62 398.485 579.474 398.485C582.529 398.485 585.534 398.535 588.438 398.585" stroke="#A3876E" stroke-width="1.41038" stroke-miterlimit="10" stroke-linecap="round" stroke-linejoin="round"/>
<path d="M538.656 400.738C544.565 399.937 551.677 399.336 559.539 398.935" stroke="#A3876E" stroke-width="1.41038" stroke-miterlimit="10" stroke-linecap="round" stroke-linejoin="round"/>
<path d="M178.365 169.377C169.301 165.421 168.5 149.897 168.5 144.688C168.5 131.067 205.107 120 250.227 120C295.348 120 331.955 131.067 331.955 144.688C331.955 149.746 331.404 165.821 322.741 169.778" stroke="#A3876E" stroke-width="1.41038" stroke-miterlimit="10" stroke-linecap="round" stroke-linejoin="round"/>
<path d="M178.814 164.771C178.814 153.504 210.914 144.39 250.526 144.39C290.138 144.39 322.238 153.504 322.238 164.771" stroke="#A3876E" stroke-width="1.41038" stroke-miterlimit="10" stroke-linecap="round" stroke-linejoin="round"/>
<path d="M178.814 164.77V413.859" stroke="#A3876E" stroke-width="1.41038" stroke-miterlimit="10" stroke-linecap="round" stroke-linejoin="round"/>
<path d="M322.289 164.77V412.707" stroke="#A3876E" stroke-width="1.41038" stroke-miterlimit="10" stroke-linecap="round" stroke-linejoin="round"/>
<path d="M249.876 439.95C206.108 439.95 170.652 431.937 170.652 422.072C170.652 418.717 171.504 408.801 178.515 405.847" stroke="#A3876E" stroke-width="1.41038" stroke-miterlimit="10" stroke-linecap="round" stroke-linejoin="round"/>
<path d="M322.29 405.696C329.702 408.401 330.553 418.616 330.553 422.072C330.553 431.937 295.098 439.95 251.329 439.95L249.326 440" stroke="#A3876E" stroke-width="1.41038" stroke-miterlimit="10" stroke-linecap="round" stroke-linejoin="round"/>
<path d="M207.857 158.31C216.771 155.555 231.695 153.552 249.723 153.552C266.799 153.552 282.774 155.355 291.888 157.859" stroke="#A3876E" stroke-width="1.41038" stroke-miterlimit="10" stroke-linecap="round" stroke-linejoin="round"/>
<path d="M208.109 173.083C214.469 174.435 222.832 175.637 232.347 176.038C234.551 176.138 236.454 176.238 236.454 176.238" stroke="#A3876E" stroke-width="1.41038" stroke-miterlimit="10" stroke-linecap="round" stroke-linejoin="round"/>
<path d="M291.638 172.732C285.178 174.234 276.315 175.336 266.149 175.987C263.444 176.187 261.992 176.187 261.992 176.187" stroke="#A3876E" stroke-width="1.41038" stroke-miterlimit="10" stroke-linecap="round" stroke-linejoin="round"/>
<path d="M207.857 158.312V420.971" stroke="#A3876E" stroke-width="1.41038" stroke-miterlimit="10" stroke-linecap="round" stroke-linejoin="round"/>
<path d="M196.193 151.901V422.473" stroke="#A3876E" stroke-width="1.41038" stroke-miterlimit="10" stroke-linecap="round" stroke-linejoin="round"/>
<path d="M304.963 151.5V422.072" stroke="#A3876E" stroke-width="1.41038" stroke-miterlimit="10" stroke-linecap="round" stroke-linejoin="round"/>
<path d="M291.891 157.86V420.169" stroke="#A3876E" stroke-width="1.41038" stroke-miterlimit="10" stroke-linecap="round" stroke-linejoin="round"/>
<path d="M261.941 398.535C273.509 398.936 283.475 399.837 291.287 401.039" stroke="#A3876E" stroke-width="1.41038" stroke-miterlimit="10" stroke-linecap="round" stroke-linejoin="round"/>
<path d="M208.461 400.588C216.524 399.537 226.689 398.836 237.957 398.535" stroke="#A3876E" stroke-width="1.41038" stroke-miterlimit="10" stroke-linecap="round" stroke-linejoin="round"/>
<path d="M291.441 412.155C280.725 413.808 265.351 414.809 248.224 414.809C232.95 414.809 219.078 414.008 208.662 412.656" stroke="#A3876E" stroke-width="1.41038" stroke-miterlimit="10" stroke-linecap="round" stroke-linejoin="round"/>
<path d="M291.441 420.618C280.725 422.271 265.351 423.272 248.224 423.272C232.95 423.272 219.078 422.471 208.662 421.119" stroke="#A3876E" stroke-width="1.41038" stroke-miterlimit="10" stroke-linecap="round" stroke-linejoin="round"/>
<path d="M250.426 128.713C214.87 128.713 196.041 138.328 196.041 152.6" stroke="#A3876E" stroke-width="1.41038" stroke-miterlimit="10" stroke-linecap="round" stroke-linejoin="round"/>
<path d="M250.422 128.713C285.977 128.713 305.157 138.328 305.157 152.6" stroke="#A3876E" stroke-width="1.41038" stroke-miterlimit="10" stroke-linecap="round" stroke-linejoin="round"/>
<path d="M249.925 407.349C246.069 407.399 239.008 407.199 237.405 405.046C236.003 403.243 241.311 396.382 240.961 392.776C240.61 389.171 233.599 366.936 232.848 356.67C232.147 346.354 233.95 341.146 233.199 335.537C232.498 329.928 227.239 309.146 226.488 301.384C225.787 293.622 226.688 282.404 228.641 276.094C230.645 269.785 236.604 262.173 236.954 259.318C237.305 256.414 235.702 249.002 235.502 245.747" stroke="#A3876E" stroke-width="1.41038" stroke-miterlimit="10" stroke-linecap="round" stroke-linejoin="round"/>
<path d="M249.926 407.349C253.782 407.399 260.993 407.199 262.646 405.046C264.048 403.243 258.74 396.382 259.09 392.776C259.441 389.171 266.452 366.936 267.203 356.67C267.904 346.354 266.101 341.146 266.852 335.537C267.553 329.928 272.811 309.146 273.563 301.384C274.264 293.622 273.362 282.404 271.409 276.094C269.406 269.785 263.447 262.173 263.096 259.318C262.746 256.414 264.348 249.002 264.549 245.747" stroke="#A3876E" stroke-width="1.41038" stroke-miterlimit="10" stroke-linecap="round" stroke-linejoin="round"/>
<path d="M255.93 201.726C255.93 206.584 255.63 210.89 259.185 213.094C262.24 214.997 266.046 214.796 269.101 215.147C271.955 215.498 277.664 217.701 277.364 231.272C277.113 244.843 276.212 248.699 277.364 253.357C278.816 259.266 281.27 271.936 281.42 290.615C281.57 306.339 276.011 306.59 276.011 306.59C274.058 307.14 273.307 305.889 273.307 305.889" stroke="#A3876E" stroke-width="1.41038" stroke-miterlimit="10" stroke-linecap="round" stroke-linejoin="round"/>
<path d="M243.764 202.178C243.764 207.035 244.065 210.941 240.509 213.095C237.454 214.998 233.648 214.797 230.594 215.148C227.739 215.499 222.03 217.702 222.331 231.273C222.581 244.844 223.483 248.7 222.331 253.358C220.879 259.267 218.425 271.937 218.274 290.616C218.124 306.34 223.683 306.591 223.683 306.591C225.636 307.141 226.387 305.889 226.387 305.889" stroke="#A3876E" stroke-width="1.41038" stroke-miterlimit="10" stroke-linecap="round" stroke-linejoin="round"/>
<path d="M228.689 276.144C232.145 279.298 242.01 283.305 249.772 283.355" stroke="#A3876E" stroke-width="1.41038" stroke-miterlimit="10" stroke-linecap="round" stroke-linejoin="round"/>
<path d="M270.958 276.043C267.503 279.198 257.487 283.254 249.775 283.304" stroke="#A3876E" stroke-width="1.41038" stroke-miterlimit="10" stroke-linecap="round" stroke-linejoin="round"/>
<path d="M234.25 279.598C239.308 282.603 244.917 298.327 249.924 298.327" stroke="#A3876E" stroke-width="1.41038" stroke-miterlimit="10" stroke-linecap="round" stroke-linejoin="round"/>
<path d="M266.551 279.049C260.842 282.504 254.432 298.179 249.875 298.279" stroke="#A3876E" stroke-width="1.41038" stroke-miterlimit="10" stroke-linecap="round" stroke-linejoin="round"/>
<path d="M249.926 298.379V407.349" stroke="#A3876E" stroke-width="1.41038" stroke-miterlimit="10" stroke-linecap="round" stroke-linejoin="round"/>
<path d="M249.723 239.988C253.328 239.888 257.234 240.138 260.189 240.689C265.247 241.641 267.851 237.084 267.951 232.577C268.051 228.57 266.399 225.415 264.946 223.813C260.74 223.813 257.885 223.813 254.881 228.821C253.278 231.475 251.075 232.226 249.723 232.276" stroke="#A3876E" stroke-width="1.41038" stroke-miterlimit="10" stroke-linecap="round" stroke-linejoin="round"/>
<path d="M264.848 223.862C264.397 218.254 263.897 214.899 262.094 214.348" stroke="#A3876E" stroke-width="1.41038" stroke-miterlimit="10" stroke-linecap="round" stroke-linejoin="round"/>
<path d="M249.727 239.988C246.121 239.888 242.215 240.138 239.261 240.689C234.203 241.641 231.599 237.084 231.498 232.577C231.398 228.57 233.051 225.415 234.503 223.813C238.71 223.813 241.564 223.813 244.569 228.821C246.171 231.475 248.375 232.226 249.727 232.276" stroke="#A3876E" stroke-width="1.41038" stroke-miterlimit="10" stroke-linecap="round" stroke-linejoin="round"/>
<path d="M234.645 224.012C235.095 218.403 235.596 214.948 237.399 214.397" stroke="#A3876E" stroke-width="1.41038" stroke-miterlimit="10" stroke-linecap="round" stroke-linejoin="round"/>
<path d="M249.421 172.782C236.4 169.727 228.989 179.142 235.349 214.747" stroke="#A3876E" stroke-width="1.41038" stroke-miterlimit="10" stroke-linecap="round" stroke-linejoin="round"/>
<path d="M249.424 172.782C262.444 169.727 269.856 179.142 263.496 214.747" stroke="#A3876E" stroke-width="1.41038" stroke-miterlimit="10" stroke-linecap="round" stroke-linejoin="round"/>
<path d="M249.772 205.134C251.675 205.134 254.63 203.081 255.832 201.428C257.034 199.776 257.885 197.472 258.135 195.218C258.386 193.015 258.386 191.713 258.386 191.713C253.678 189.56 253.628 179.544 246.918 179.544" stroke="#A3876E" stroke-width="1.41038" stroke-miterlimit="10" stroke-linecap="round" stroke-linejoin="round"/>
<path d="M249.122 205.133C247.219 205.133 244.264 203.08 243.062 201.427C241.86 199.775 241.009 197.471 240.759 195.218C240.508 193.014 240.408 189.559 240.408 189.559C240.408 184.551 242.562 180.795 246.718 179.593" stroke="#A3876E" stroke-width="1.41038" stroke-miterlimit="10" stroke-linecap="round" stroke-linejoin="round"/>
<path d="M339.961 279.599H396.098" stroke="#A3876E" stroke-width="1.41038" stroke-miterlimit="10" stroke-linecap="round" stroke-linejoin="round"/>
<path d="M339.861 237.333L372.212 223.261" stroke="#A3876E" stroke-width="1.41038" stroke-miterlimit="10" stroke-linecap="round" stroke-linejoin="round"/>
<path d="M339.961 258.317L388.787 246.549" stroke="#A3876E" stroke-width="1.41038" stroke-miterlimit="10" stroke-linecap="round" stroke-linejoin="round"/>
<path d="M339.861 217.452L351.78 208.438" stroke="#A3876E" stroke-width="1.41038" stroke-miterlimit="10" stroke-linecap="round" stroke-linejoin="round"/>
<path d="M339.861 321.815L372.212 335.887" stroke="#A3876E" stroke-width="1.41038" stroke-miterlimit="10" stroke-linecap="round" stroke-linejoin="round"/>
<path d="M339.961 300.833L388.787 312.602" stroke="#A3876E" stroke-width="1.41038" stroke-miterlimit="10" stroke-linecap="round" stroke-linejoin="round"/>
<path d="M339.861 341.695L351.78 350.709" stroke="#A3876E" stroke-width="1.41038" stroke-miterlimit="10" stroke-linecap="round" stroke-linejoin="round"/>
<path d="M162.138 279.599H106" stroke="#A3876E" stroke-width="1.41038" stroke-miterlimit="10" stroke-linecap="round" stroke-linejoin="round"/>
<path d="M162.237 237.333L129.887 223.261" stroke="#A3876E" stroke-width="1.41038" stroke-miterlimit="10" stroke-linecap="round" stroke-linejoin="round"/>
<path d="M162.141 258.316L113.314 246.547" stroke="#A3876E" stroke-width="1.41038" stroke-miterlimit="10" stroke-linecap="round" stroke-linejoin="round"/>
<path d="M162.239 217.452L150.32 208.438" stroke="#A3876E" stroke-width="1.41038" stroke-miterlimit="10" stroke-linecap="round" stroke-linejoin="round"/>
<path d="M162.237 321.815L129.887 335.887" stroke="#A3876E" stroke-width="1.41038" stroke-miterlimit="10" stroke-linecap="round" stroke-linejoin="round"/>
<path d="M162.141 300.833L113.314 312.601" stroke="#A3876E" stroke-width="1.41038" stroke-miterlimit="10" stroke-linecap="round" stroke-linejoin="round"/>
<path d="M162.239 341.696L150.32 350.71" stroke="#A3876E" stroke-width="1.41038" stroke-miterlimit="10" stroke-linecap="round" stroke-linejoin="round"/>
</svg>
