<svg width="832" height="190" viewBox="0 0 832 190" fill="none" xmlns="http://www.w3.org/2000/svg">
<rect width="832" height="190" rx="4" fill="#09151E"/>
<path d="M502.467 113.704C502.467 118.93 498.165 123.231 492.94 123.231H472.528C467.302 123.231 463 118.93 463 113.704V77.2395C463 71.9849 467.302 67.7119 472.528 67.7119H492.94C498.165 67.7119 502.467 71.9849 502.467 77.2395V113.704Z" stroke="#A3876E" stroke-width="2" stroke-miterlimit="10" stroke-linecap="round" stroke-linejoin="round"/>
<path d="M510.927 88.0076V113.443C510.927 121.181 504.575 127.532 496.838 127.532H477.119C469.381 127.532 463.029 121.181 463.029 113.443V77.4984C463.029 69.7609 469.381 63.4092 477.119 63.4092H496.838C503.911 63.4092 509.83 68.6926 510.782 75.5351" stroke="#A3876E" stroke-width="2" stroke-miterlimit="10" stroke-linecap="round" stroke-linejoin="round"/>
<path d="M473.711 93.8105L481.044 101.144L492.304 87.7764" stroke="#A3876E" stroke-width="2" stroke-miterlimit="10" stroke-linecap="round" stroke-linejoin="round"/>
<path d="M515.054 81.8299C515.054 85.1212 513.004 87.8063 510.464 87.8063C507.923 87.8063 505.873 85.1212 505.873 81.8299C505.873 78.5386 507.923 75.8535 510.464 75.8535C513.004 75.8535 515.054 78.5386 515.054 81.8299Z" stroke="#A3876E" stroke-width="2" stroke-miterlimit="10" stroke-linecap="round" stroke-linejoin="round"/>
<path d="M506.623 100.278V113.357" stroke="#A3876E" stroke-width="2" stroke-miterlimit="10"/>
<path d="M555.475 78.9131C557.208 84.2543 558.276 90.2884 558.276 97.3619C558.276 122.451 544.071 145 526.575 145C519.011 145 511.966 140.986 506.654 134C504.691 131.43 502.958 127.013 505.008 124.876" stroke="#A3876E" stroke-width="2" stroke-miterlimit="10" stroke-linecap="round" stroke-linejoin="round"/>
<path d="M531.654 105.822C529.547 121.24 522.849 134.03 513.898 140.468" stroke="#A3876E" stroke-width="2" stroke-miterlimit="10" stroke-linecap="round" stroke-linejoin="round"/>
<path d="M519.299 56.1055C523.312 59.9742 525.564 64.3338 527.874 70.3679C528.74 72.7065 530.385 73.6304 533.504 73.6592C539.336 73.6881 542.944 73.7459 546.582 73.6592C551.028 73.5438 550.884 71.234 549.412 68.4913" stroke="#A3876E" stroke-width="2" stroke-miterlimit="10" stroke-linecap="round" stroke-linejoin="round"/>
<path d="M506.017 66.8451C503.015 63.4094 504.747 59.3097 506.624 57C512.08 50.1286 519.01 46 526.545 46C533.474 46 539.624 49.0315 544.387 53.7953C549.498 59.6273 551.519 63.4094 553.944 67.8556C558.275 77.3543 552.933 80.3569 553.655 87.8057C554.03 91.7033 554.002 95.7453 554.002 95.7453C554.002 103.685 548.343 110.037 541.183 110.037C534.023 110.037 528.508 103.598 528.508 95.6876" stroke="#A3876E" stroke-width="2" stroke-miterlimit="10" stroke-linecap="round" stroke-linejoin="round"/>
<path d="M523.196 61.043C522.792 68.4629 522.07 72.6781 523.6 75.8251C525.679 80.1269 527.18 81.5994 527.96 84.2266C528.739 86.8251 528.479 88.9615 528.479 95.5153" stroke="#A3876E" stroke-width="2" stroke-miterlimit="10" stroke-linecap="round" stroke-linejoin="round"/>
<path d="M471.719 64.4777C474.346 62.1391 476.367 59.2519 478.099 57.0577C483.556 50.1575 490.514 46 498.078 46" stroke="#A3876E" stroke-width="2" stroke-miterlimit="10" stroke-linecap="round" stroke-linejoin="round"/>
<path d="M498.107 145.001C491.033 145.001 484.48 141.363 479.196 135.242C477.262 132.99 475.703 130.305 471.834 126.494" stroke="#A3876E" stroke-width="2" stroke-miterlimit="10" stroke-linecap="round" stroke-linejoin="round"/>
<path d="M498.107 145H526.575" stroke="#A3876E" stroke-width="2" stroke-miterlimit="10" stroke-linecap="round" stroke-linejoin="round"/>
<path d="M498.107 46H526.575" stroke="#A3876E" stroke-width="2" stroke-miterlimit="10" stroke-linecap="round" stroke-linejoin="round"/>
<path d="M547.737 95.8325C547.737 99.7879 544.879 103.021 541.327 103.021C537.776 103.021 534.918 99.8168 534.918 95.8325C534.918 91.8771 537.776 88.6436 541.327 88.6436C544.879 88.6436 547.737 91.8771 547.737 95.8325Z" stroke="#A3876E" stroke-width="2" stroke-miterlimit="10" stroke-linecap="round" stroke-linejoin="round"/>
<path d="M549.411 68.4917C544.791 59.888 537.256 50.3027 526.285 50.3027C518.951 50.3027 516.526 53.6229 519.298 56.1059" stroke="#A3876E" stroke-width="2" stroke-miterlimit="10" stroke-linecap="round" stroke-linejoin="round"/>
<path d="M540.346 116.706C540.808 116.1 541.588 115.927 542.078 116.331C542.569 116.706 542.598 117.515 542.107 118.121C541.645 118.727 540.866 118.901 540.375 118.496C539.884 118.092 539.855 117.313 540.346 116.706Z" fill="#A3876E"/>
<path d="M537.229 124.501C537.691 123.895 538.47 123.722 538.961 124.126C539.452 124.501 539.481 125.31 538.99 125.916C538.528 126.522 537.749 126.696 537.258 126.291C536.796 125.916 536.767 125.108 537.229 124.501Z" fill="#A3876E"/>
<path d="M662.121 98.5615L730.34 108.596" stroke="#A3876E" stroke-width="2" stroke-miterlimit="10" stroke-linecap="round" stroke-linejoin="round"/>
<path d="M676.679 92.7285C673.924 92.3382 671.697 92.0167 670.342 91.8101C666.278 91.1901 663.063 93.9914 661.961 98.6296" stroke="#A3876E" stroke-width="2" stroke-miterlimit="10" stroke-linecap="round" stroke-linejoin="round"/>
<path d="M710.364 97.4361C703.82 96.5406 691.604 94.8415 682.121 93.5098" stroke="#A3876E" stroke-width="2" stroke-miterlimit="10" stroke-linecap="round" stroke-linejoin="round"/>
<path d="M732.404 144.76C735.091 143.888 736.078 140.329 735.504 136.425C734.93 132.522 732.634 115.875 730.223 107.838C728.041 100.559 722.003 99.0669 715.344 98.1025" stroke="#A3876E" stroke-width="2" stroke-miterlimit="10" stroke-linecap="round" stroke-linejoin="round"/>
<path d="M743.819 98.8828L730.455 108.182" stroke="#A3876E" stroke-width="2" stroke-miterlimit="10" stroke-linecap="round" stroke-linejoin="round"/>
<path d="M752.084 125.978L735.805 137.229" stroke="#A3876E" stroke-width="2" stroke-miterlimit="10" stroke-linecap="round" stroke-linejoin="round"/>
<path d="M736.586 90.9609L723.682 99.9159" stroke="#A3876E" stroke-width="2" stroke-miterlimit="10" stroke-linecap="round" stroke-linejoin="round"/>
<path d="M715.461 87.0576C720.375 87.7465 724.6 88.3205 726.919 88.619C734.381 89.6293 741.109 90.7314 743.887 98.6302C746.643 106.437 750.707 120.283 751.809 124.347C752.842 128.159 753.003 131.649 750.386 133.532C748.411 134.955 741.775 139.456 738.17 141.913C734.29 144.553 732.43 145.242 728.641 144.898L657.92 134.335C654.246 133.302 654.59 129.169 655.968 122.625C657.346 116.081 660.905 102.419 661.938 98.4695" stroke="#A3876E" stroke-width="2" stroke-miterlimit="10" stroke-linecap="round" stroke-linejoin="round"/>
<path d="M684.418 82.7871C684.785 82.833 685.199 82.879 685.612 82.9249C689.699 83.4989 700.858 85.0373 710.824 86.415" stroke="#A3876E" stroke-width="2" stroke-miterlimit="10" stroke-linecap="round" stroke-linejoin="round"/>
<path d="M666.461 92.1779L678.148 84.1184C678.401 83.9347 678.653 83.774 678.906 83.6133" stroke="#A3876E" stroke-width="2" stroke-miterlimit="10" stroke-linecap="round" stroke-linejoin="round"/>
<path d="M692.291 54.9112C694.449 54.8653 697.48 54.4979 701.82 55.2097C706.228 55.9445 710.201 57.2763 712.267 58.3095C712.428 54.7964 712.727 53.6713 713.806 52.2247C714.265 51.467 714.954 50.0205 711.464 49.5383C708.019 49.0561 697.962 47.5865 694.863 47.0813C691.9 46.5991 690.27 48.3443 689.581 50.1123C688.961 51.7426 689.191 54.9801 692.291 54.9112Z" stroke="#A3876E" stroke-width="2" stroke-miterlimit="10" stroke-linecap="round" stroke-linejoin="round"/>
<path d="M712.889 49.8594C717.619 50.5941 717.366 55.0946 715.414 56.4034" stroke="#A3876E" stroke-width="2" stroke-miterlimit="10" stroke-linecap="round" stroke-linejoin="round"/>
<path d="M710.133 105.61L712.314 57.6436" stroke="#A3876E" stroke-width="2" stroke-miterlimit="10" stroke-linecap="round" stroke-linejoin="round"/>
<path d="M680.283 101.11L689.537 57.4144C689.996 55.7382 690.455 55.1872 691.672 54.8887" stroke="#A3876E" stroke-width="2" stroke-miterlimit="10" stroke-linecap="round" stroke-linejoin="round"/>
<path d="M674.936 100.031L686.118 56.5649C686.875 53.8095 687.886 53.1896 689.424 52.96" stroke="#A3876E" stroke-width="2" stroke-miterlimit="10" stroke-linecap="round" stroke-linejoin="round"/>
<path d="M715.027 106.07L715.647 59.986C715.647 57.6209 714.797 55.6233 712.822 55.1641" stroke="#A3876E" stroke-width="2" stroke-miterlimit="10" stroke-linecap="round" stroke-linejoin="round"/>
<path d="M721.799 87.7004L717.023 68.1143" stroke="#A3876E" stroke-width="2" stroke-miterlimit="10" stroke-linecap="round" stroke-linejoin="round"/>
<path d="M726.597 88.3894L718.744 61.823C717.78 58.838 717.298 57.2536 713.279 55.1182" stroke="#A3876E" stroke-width="2" stroke-miterlimit="10" stroke-linecap="round" stroke-linejoin="round"/>
<path d="M693.762 83.8885L692.568 54.9111" stroke="#A3876E" stroke-width="2" stroke-miterlimit="10" stroke-linecap="round" stroke-linejoin="round"/>
<path d="M689.01 83.2677V67.5391" stroke="#A3876E" stroke-width="2" stroke-miterlimit="10" stroke-linecap="round" stroke-linejoin="round"/>
<path d="M705.244 123.061C704.992 126.46 700.583 128.664 695.463 127.906L692.363 127.447C687.242 126.712 683.247 123.314 683.5 119.893C683.752 116.494 688.161 114.29 693.281 115.048L696.381 115.507C701.501 116.265 705.497 119.663 705.244 123.061Z" stroke="#A3876E" stroke-width="2" stroke-miterlimit="10" stroke-linecap="round" stroke-linejoin="round"/>
<path d="M140.029 66.1864C146.898 68.3327 153.614 67.0702 154.877 66.8177C156.139 66.5652 158.159 65.8077 159.498 65.9339C160.836 66.0602 167.199 68.2065 173.31 69.3428C187.046 76.0847 190.985 70.7568 191.995 68.9387C192.348 66.5652 174.092 60.5556 167.78 58.2325C161.442 55.9095 159.977 56.3135 156.215 56.1115C153.185 55.96 138.136 55.6317 138.136 55.6317C138.136 55.6317 135.307 55.354 132.555 54.5964C128.692 53.5359 125.233 54.0157 120.435 55.051C115.637 56.0862 97.3307 60.2273 94.0481 60.3283C90.7656 60.4293 79.1251 61.0606 70.8176 60.3283C67.7118 60.0506 67.2573 60.2526 64 61.8939" stroke="#A3876E" stroke-width="2" stroke-miterlimit="10" stroke-linecap="round" stroke-linejoin="round"/>
<path d="M167.703 68.0791C169.976 69.8719 172.299 73.6342 173.309 75.1493C174.319 76.6643 175.203 77.4218 175.203 81.2094C175.203 84.997 175.203 91.8146 175.203 91.8146C175.203 91.8146 172.172 92.7994 169.42 89.3401" stroke="#A3876E" stroke-width="2" stroke-miterlimit="10" stroke-linecap="round" stroke-linejoin="round"/>
<path d="M172.78 91.9414C172.477 94.1887 172.224 97.7995 171.568 101.562C168.992 101.436 168.26 99.5418 168.26 99.5418" stroke="#A3876E" stroke-width="2" stroke-miterlimit="10" stroke-linecap="round" stroke-linejoin="round"/>
<path d="M158.287 73.458C158.59 73.6853 160.257 75.9578 164.802 78.6596" stroke="#A3876E" stroke-width="2" stroke-miterlimit="10" stroke-linecap="round" stroke-linejoin="round"/>
<path d="M142.934 73.2051C145.231 74.3414 153.261 75.2756 158.286 73.4828" stroke="#A3876E" stroke-width="2" stroke-miterlimit="10" stroke-linecap="round" stroke-linejoin="round"/>
<path d="M125.939 70.4287C122.909 72.6003 118.313 77.2716 116.874 79.0644C114.93 81.5137 115.763 83.2055 117.606 85.9325C118.894 87.8516 120.889 90.1494 122.555 91.8664C124.197 93.5835 127.025 97.2195 127.858 99.4921C128.717 101.866 129.323 105.199 127.227 107.597C125.586 109.517 122.353 110.097 119.677 108.254C117.026 106.411 114.93 103.355 112.127 100.78C110.663 99.4416 109.248 98.0528 107.531 96.7398C105.789 95.3762 105.638 95.048 101.269 95.2247C94.1487 95.4772 85.3867 91.2857 73.7715 79.8724" stroke="#A3876E" stroke-width="2" stroke-miterlimit="10" stroke-linecap="round" stroke-linejoin="round"/>
<path d="M67.7637 91.3101C70.415 91.2848 72.5613 91.3101 73.9501 91.3101C74.7076 91.3101 76.0711 92.4211 84.025 95.3249C91.9789 98.2034 100.009 97.3954 103.847 95.3249" stroke="#A3876E" stroke-width="2" stroke-miterlimit="10" stroke-linecap="round" stroke-linejoin="round"/>
<path d="M119.148 98.4556C119.88 97.9759 120.714 97.6476 122.456 99.4657C124.905 101.991 125.158 103.733 123.542 105.93C120.916 109.515 117.785 106.359 117.027 105.778C116.27 105.172 115.537 104.642 115.638 103.733C115.739 102.622 118.365 98.9859 119.148 98.4556Z" stroke="#A3876E" stroke-width="2" stroke-miterlimit="10" stroke-linecap="round" stroke-linejoin="round"/>
<path d="M146.895 92.1443C134.851 92.1443 125.584 90.1243 123.841 87.9275C123.235 87.1447 122.453 85.2257 123.841 83.1299" stroke="#A3876E" stroke-width="2" stroke-miterlimit="10" stroke-linecap="round" stroke-linejoin="round"/>
<path d="M146.896 92.1443C158.941 92.1443 168.284 90.1243 170.026 87.9275C170.632 87.1447 171.415 85.2257 170.026 83.1299" stroke="#A3876E" stroke-width="2" stroke-miterlimit="10" stroke-linecap="round" stroke-linejoin="round"/>
<path d="M125.182 94.8715L124.197 88.2559" stroke="#A3876E" stroke-width="2" stroke-miterlimit="10" stroke-linecap="round" stroke-linejoin="round"/>
<path d="M129.955 126.813L127.203 108.507" stroke="#A3876E" stroke-width="2" stroke-miterlimit="10" stroke-linecap="round" stroke-linejoin="round"/>
<path d="M146.948 130.524C137.504 130.524 129.854 128.706 129.854 126.484" stroke="#A3876E" stroke-width="2" stroke-miterlimit="10" stroke-linecap="round" stroke-linejoin="round"/>
<path d="M147.149 136.206C138.892 136.206 132.176 134.615 132.176 132.671" stroke="#A3876E" stroke-width="2" stroke-miterlimit="10" stroke-linecap="round" stroke-linejoin="round"/>
<path d="M146.998 130.524C156.442 130.524 164.093 128.706 164.093 126.484" stroke="#A3876E" stroke-width="2" stroke-miterlimit="10" stroke-linecap="round" stroke-linejoin="round"/>
<path d="M146.797 136.206C155.054 136.206 161.77 134.615 161.77 132.671" stroke="#A3876E" stroke-width="2" stroke-miterlimit="10" stroke-linecap="round" stroke-linejoin="round"/>
<path d="M131.443 128.505L132.277 133.075" stroke="#A3876E" stroke-width="2" stroke-miterlimit="10" stroke-linecap="round" stroke-linejoin="round"/>
<path d="M162.503 128.505L161.67 133.075" stroke="#A3876E" stroke-width="2" stroke-miterlimit="10" stroke-linecap="round" stroke-linejoin="round"/>
<path d="M139.094 115.703C139.094 119.818 142.427 123.177 146.568 123.177C150.684 123.177 154.042 119.844 154.042 115.703C154.042 111.587 146.568 98.709 146.568 98.709C146.568 98.709 139.094 111.587 139.094 115.703Z" stroke="#A3876E" stroke-width="2" stroke-miterlimit="10"/>
<path d="M164.094 126.485L169.447 89.7451" stroke="#A3876E" stroke-width="2" stroke-miterlimit="10" stroke-linecap="round" stroke-linejoin="round"/>
<path d="M123.641 83.6596C123.641 86.3362 134.044 88.5077 146.896 88.5077C159.749 88.5077 170.152 86.3362 170.152 83.6596C170.152 80.9831 159.749 78.8115 146.896 78.8115C134.044 78.8115 123.641 81.0083 123.641 83.6596Z" stroke="#A3876E" stroke-width="2" stroke-miterlimit="10" stroke-linecap="round" stroke-linejoin="round"/>
<path d="M312.927 50.4629L307.533 70.6723" stroke="#A3876E" stroke-width="2" stroke-miterlimit="10" stroke-linecap="round" stroke-linejoin="round"/>
<path d="M315.114 69.1053C314.269 71.1436 315.238 73.4803 317.277 74.3006C319.315 75.1458 321.652 74.1763 322.472 72.1379C323.317 70.0996 322.248 62.2197 322.248 62.2197C322.248 62.2197 315.959 67.067 315.114 69.1053Z" stroke="#A3876E" stroke-width="2" stroke-miterlimit="10"/>
<path d="M324.262 82.1076C323.143 83.6984 318.818 83.5493 314.269 81.685C309.621 79.7709 306.389 76.7631 306.886 74.8242" stroke="#A3876E" stroke-width="2" stroke-miterlimit="10" stroke-linecap="round" stroke-linejoin="round"/>
<path d="M326.747 78.6278C326.722 78.6775 326.697 78.7024 326.648 78.7521C325.231 80.343 320.607 80.1192 315.71 78.1058C310.863 76.1171 307.432 73.0597 307.507 70.9219C307.507 70.8225 307.507 70.7479 307.532 70.6484" stroke="#A3876E" stroke-width="2" stroke-miterlimit="10" stroke-linecap="round" stroke-linejoin="round"/>
<path d="M337.663 60.3818L326.75 78.6274" stroke="#A3876E" stroke-width="2" stroke-miterlimit="10" stroke-linecap="round" stroke-linejoin="round"/>
<path d="M325.705 79.3721L324.264 82.0815" stroke="#A3876E" stroke-width="2" stroke-miterlimit="10" stroke-linecap="round" stroke-linejoin="round"/>
<path d="M307.731 72.0146L306.861 74.923" stroke="#A3876E" stroke-width="2" stroke-miterlimit="10" stroke-linecap="round" stroke-linejoin="round"/>
<path d="M339.4 58.516C338.207 61.4243 331.247 61.3498 323.864 58.3171C316.481 55.2845 311.485 50.4621 312.678 47.5537" stroke="#A3876E" stroke-width="2" stroke-miterlimit="10" stroke-linecap="round" stroke-linejoin="round"/>
<path d="M340.99 55.3844C339.772 58.3674 332.663 58.2679 325.156 55.1607C317.624 52.0783 312.528 47.1565 313.746 44.1736C314.964 41.1906 322.074 41.2901 329.581 44.3973C337.113 47.5045 342.208 52.4015 340.99 55.3844Z" stroke="#A3876E" stroke-width="2" stroke-miterlimit="10" stroke-linecap="round" stroke-linejoin="round"/>
<path d="M339.398 58.5168L340.989 55.3848" stroke="#A3876E" stroke-width="2" stroke-miterlimit="10" stroke-linecap="round" stroke-linejoin="round"/>
<path d="M312.678 47.5296L313.747 44.1738" stroke="#A3876E" stroke-width="2" stroke-miterlimit="10" stroke-linecap="round" stroke-linejoin="round"/>
<path d="M357.82 128.815V149" stroke="#A3876E" stroke-width="2" stroke-miterlimit="10" stroke-linecap="round" stroke-linejoin="round"/>
<path d="M279.717 128.815V149" stroke="#A3876E" stroke-width="2" stroke-miterlimit="10" stroke-linecap="round" stroke-linejoin="round"/>
<path d="M332.467 69.5049C343.628 72.0404 351.359 77.5588 351.359 83.9721C351.359 92.7717 336.767 99.9308 318.77 99.9308C300.773 99.9308 286.182 92.7966 286.182 83.9721C286.182 77.0368 295.205 71.1455 307.808 68.958" stroke="#A3876E" stroke-width="2" stroke-miterlimit="10" stroke-linecap="round" stroke-linejoin="round"/>
<path d="M324.461 82.0576C335.498 83.3254 343.726 88.1726 343.726 93.9396" stroke="#A3876E" stroke-width="2" stroke-miterlimit="10" stroke-linecap="round" stroke-linejoin="round"/>
<path d="M293.812 93.9403C293.812 87.9248 302.736 82.9035 314.469 81.9092" stroke="#A3876E" stroke-width="2" stroke-miterlimit="10" stroke-linecap="round" stroke-linejoin="round"/>
<path d="M363.538 118.127C363.538 130.233 343.502 140.027 318.769 140.027C294.06 140.027 274 130.208 274 118.127" stroke="#A3876E" stroke-width="2" stroke-miterlimit="10" stroke-linecap="round" stroke-linejoin="round"/>
<path d="M360.184 88.4717L363.539 118.127" stroke="#A3876E" stroke-width="2" stroke-miterlimit="10" stroke-linecap="round" stroke-linejoin="round"/>
<path d="M277.356 88.4717L274 118.127" stroke="#A3876E" stroke-width="2" stroke-miterlimit="10" stroke-linecap="round" stroke-linejoin="round"/>
<path d="M332.542 69.3557C348.649 72.1397 360.183 79.6468 360.183 88.4713C360.183 99.6573 341.64 108.73 318.77 108.73C295.901 108.73 277.357 99.6573 277.357 88.4713C277.357 79.1248 290.308 71.2448 307.908 68.9082" stroke="#A3876E" stroke-width="2" stroke-miterlimit="10" stroke-linecap="round" stroke-linejoin="round"/>
</svg>
