<svg width="832" height="560" viewBox="0 0 832 560" fill="none" xmlns="http://www.w3.org/2000/svg">
<rect width="832" height="560" rx="4" fill="#09151E"/>
<path d="M178.476 159.019C176.648 155.523 175.734 151.25 167.348 149.879C158.962 148.508 152.106 147.297 148.153 146.223C144.2 145.149 135.059 141.949 135.059 141.949C134.625 139.116 134.099 135.962 133.391 132.512C132.706 129.29 132.934 125.817 138.121 125.2C143.308 124.583 147.559 123.988 149.547 123.828C151.535 123.669 153.5 122.435 152.906 119.715C152.517 118.001 152.289 117.544 152.175 117.156C152.06 116.767 152.289 116.059 152.86 115.671C153.432 115.282 154.574 114.185 154.574 113.34C154.574 112.494 153.02 110.826 153.02 110.826C153.432 110.415 155.191 109.181 154.163 107.581C153.134 105.982 152.517 104.382 152.517 104.382C153.432 103.971 156.174 102.554 156.288 100.315C156.402 98.0753 155.191 97.6868 153.774 96.3157C152.358 94.9447 149.433 91.4713 149.09 90.7172C148.747 89.9631 148.519 89.3919 148.679 87.1753C148.838 84.9587 149.09 83.7019 147.764 80.0914C146.439 76.481 144.131 70.5397 140.086 67.8661C136.042 65.1925 129.506 61.9248 118.218 61.9248C106.93 61.9248 95.8924 69.0772 93.4702 78.6747C91.048 88.2722 94.3157 100.155 98.0404 104.565C101.422 108.564 106.884 113.705 106.495 120.949C106.107 128.193 105.878 138.019 96.4409 143.869C87.0033 149.719 78 150.336 78 150.336" stroke="#A3876E" stroke-width="2" stroke-miterlimit="10" stroke-linecap="round" stroke-linejoin="round"/>
<path d="M147.238 78.6973C143.582 77.8975 139.126 79.8398 133.413 90.8083C127.7 101.777 124.958 109.318 121.073 113.317C117.531 116.973 112.961 120.949 106.494 120.926" stroke="#A3876E" stroke-width="2" stroke-miterlimit="10" stroke-linecap="round" stroke-linejoin="round"/>
<path d="M122.926 111.055C123.246 113.865 123.566 116.836 130.261 118.961C136.956 121.086 141.641 122.069 150.896 123.531" stroke="#A3876E" stroke-width="2" stroke-miterlimit="10" stroke-linecap="round" stroke-linejoin="round"/>
<path d="M150.621 110.804H152.998" stroke="#A3876E" stroke-width="2" stroke-miterlimit="10" stroke-linecap="round" stroke-linejoin="round"/>
<path d="M150.392 103.194C149.524 104.04 147.559 103.697 147.102 102.691" stroke="#A3876E" stroke-width="2" stroke-miterlimit="10" stroke-linecap="round" stroke-linejoin="round"/>
<path d="M139.973 85.1421C141.389 84.3881 143.469 83.017 146.371 84.3424" stroke="#A3876E" stroke-width="2" stroke-miterlimit="10" stroke-linecap="round" stroke-linejoin="round"/>
<path d="M146.165 89.1865C145.32 89.415 142.235 89.9406 140.955 89.9863" stroke="#A3876E" stroke-width="2" stroke-miterlimit="10" stroke-linecap="round" stroke-linejoin="round"/>
<path d="M144.634 91.7915C143.766 91.3117 141.915 90.2377 140.955 89.9863" stroke="#A3876E" stroke-width="2" stroke-miterlimit="10" stroke-linecap="round" stroke-linejoin="round"/>
<path d="M133.253 128.582C132.385 132.398 131.128 137.083 129.871 140.282" stroke="#A3876E" stroke-width="2" stroke-miterlimit="10" stroke-linecap="round" stroke-linejoin="round"/>
<path d="M120.389 125.085C121.188 129.427 123.405 141.195 126.856 151.364" stroke="#A3876E" stroke-width="2" stroke-miterlimit="10" stroke-linecap="round" stroke-linejoin="round"/>
<path d="M88.123 147.913C88.7172 147.685 90.4539 154.106 91.5964 160.504" stroke="#A3876E" stroke-width="2" stroke-miterlimit="10" stroke-linecap="round" stroke-linejoin="round"/>
<path d="M92.6699 145.972C94.4066 145.081 98.794 146.246 102.222 160.528" stroke="#A3876E" stroke-width="2" stroke-miterlimit="10" stroke-linecap="round" stroke-linejoin="round"/>
<path d="M140.955 143.983C142.943 144.646 149.981 148.988 155.351 160.528" stroke="#A3876E" stroke-width="2" stroke-miterlimit="10" stroke-linecap="round" stroke-linejoin="round"/>
<path d="M150.896 146.885C152.907 147.319 159.237 152.049 165.064 160.504" stroke="#A3876E" stroke-width="2" stroke-miterlimit="10" stroke-linecap="round" stroke-linejoin="round"/>
<path d="M135.059 141.973L136.041 147.914" stroke="#A3876E" stroke-width="2" stroke-miterlimit="10" stroke-linecap="round" stroke-linejoin="round"/>
<path d="M99.207 151.364C104.828 151.707 113.512 152.301 120.824 152.233" stroke="#A3876E" stroke-width="2" stroke-miterlimit="10" stroke-linecap="round" stroke-linejoin="round"/>
<path d="M133.824 151.364C137.252 151.364 142.53 150.747 148.152 149.719" stroke="#A3876E" stroke-width="2" stroke-miterlimit="10" stroke-linecap="round" stroke-linejoin="round"/>
<path d="M284.875 112.212C280.908 110.846 278.596 109.191 278.596 107.43C278.596 102.57 296.33 98.6025 318.189 98.6025C340.048 98.6025 357.783 102.543 357.783 107.43C357.783 108.691 356.6 109.9 354.446 110.977" stroke="#A3876E" stroke-width="2.37" stroke-miterlimit="10"/>
<path d="M290.316 113.709C289.291 113.473 288.293 113.236 287.373 112.974" stroke="#A3876E" stroke-width="2.37" stroke-miterlimit="10"/>
<path d="M295.306 114.63C294.623 114.525 293.94 114.393 293.283 114.288" stroke="#A3876E" stroke-width="2.37" stroke-miterlimit="10"/>
<path d="M302.531 115.549C300.929 115.391 299.378 115.207 297.881 115.023" stroke="#A3876E" stroke-width="2.37" stroke-miterlimit="10"/>
<path d="M310.545 116.1C308.653 116.022 306.814 115.916 305.027 115.759" stroke="#A3876E" stroke-width="2.37" stroke-miterlimit="10"/>
<path d="M318.19 116.259C316.377 116.259 314.59 116.232 312.83 116.18" stroke="#A3876E" stroke-width="2.37" stroke-miterlimit="10"/>
<path d="M326.492 116.048C324.653 116.127 322.762 116.205 320.844 116.232" stroke="#A3876E" stroke-width="2.37" stroke-miterlimit="10"/>
<path d="M334.166 115.497C332.642 115.655 331.039 115.786 329.41 115.891" stroke="#A3876E" stroke-width="2.37" stroke-miterlimit="10"/>
<path d="M341.337 114.577C339.971 114.787 338.552 114.998 337.055 115.181" stroke="#A3876E" stroke-width="2.37" stroke-miterlimit="10"/>
<path d="M346.749 113.553C345.909 113.737 345.042 113.921 344.148 114.104" stroke="#A3876E" stroke-width="2.37" stroke-miterlimit="10"/>
<path d="M352.03 112.002C351.057 112.344 350.007 112.685 348.824 113" stroke="#A3876E" stroke-width="2.37" stroke-miterlimit="10"/>
<path d="M278.596 101.914C278.596 97.0532 296.33 93.0859 318.189 93.0859C340.048 93.0859 357.783 97.0269 357.783 101.914" stroke="#A3876E" stroke-width="2.37" stroke-miterlimit="10" stroke-linecap="round" stroke-linejoin="round"/>
<path d="M312.148 79.0029C312.148 78.241 314.855 77.6367 318.165 77.6367C321.502 77.6367 324.181 78.241 324.181 79.0029" stroke="#A3876E" stroke-width="2.37" stroke-miterlimit="10" stroke-linecap="round" stroke-linejoin="round"/>
<path d="M357.758 101.913V107.43" stroke="#A3876E" stroke-width="2.37" stroke-miterlimit="10" stroke-linecap="round" stroke-linejoin="round"/>
<path d="M278.596 101.913V107.43" stroke="#A3876E" stroke-width="2.37" stroke-miterlimit="10" stroke-linecap="round" stroke-linejoin="round"/>
<path d="M312.805 67.3117C312.805 64.3429 315.222 61.9258 318.191 61.9258C318.637 61.9258 319.058 61.9783 319.478 62.0834" stroke="#A3876E" stroke-width="2.37" stroke-miterlimit="10" stroke-linecap="round" stroke-linejoin="round"/>
<path d="M299.773 94.111C308.155 91.8515 312.779 83.6543 312.779 71.7526C312.779 68.5211 312.779 67.3125 312.779 67.3125" stroke="#A3876E" stroke-width="2.37" stroke-miterlimit="10" stroke-linecap="round" stroke-linejoin="round"/>
<path d="M336.581 94.111C328.2 91.8515 323.576 83.6543 323.576 71.7526C323.576 68.5211 323.576 67.3125 323.576 67.3125" stroke="#A3876E" stroke-width="2.37" stroke-miterlimit="10" stroke-linecap="round" stroke-linejoin="round"/>
<path d="M319.479 62.084L345.935 69.4404" stroke="#A3876E" stroke-width="2.37" stroke-miterlimit="10" stroke-linecap="round" stroke-linejoin="round"/>
<path d="M323.576 71.3574L345.935 77.5841" stroke="#A3876E" stroke-width="2.37" stroke-miterlimit="10" stroke-linecap="round" stroke-linejoin="round"/>
<path d="M307.364 153.092L306.812 160.527" stroke="#A3876E" stroke-width="2.37" stroke-miterlimit="10" stroke-linecap="round" stroke-linejoin="round"/>
<path d="M308.415 139.062L307.969 145.262" stroke="#A3876E" stroke-width="2.37" stroke-miterlimit="10" stroke-linecap="round" stroke-linejoin="round"/>
<path d="M309.204 127.765L308.836 132.862" stroke="#A3876E" stroke-width="2.37" stroke-miterlimit="10" stroke-linecap="round" stroke-linejoin="round"/>
<path d="M310.832 104.355L309.545 123.219" stroke="#A3876E" stroke-width="2.37" stroke-miterlimit="10" stroke-linecap="round" stroke-linejoin="round"/>
<path d="M289.421 152.121L288.291 159.504" stroke="#A3876E" stroke-width="2.37" stroke-miterlimit="10" stroke-linecap="round" stroke-linejoin="round"/>
<path d="M291.575 138.249L290.629 144.397" stroke="#A3876E" stroke-width="2.37" stroke-miterlimit="10" stroke-linecap="round" stroke-linejoin="round"/>
<path d="M293.282 127.058L292.494 132.076" stroke="#A3876E" stroke-width="2.37" stroke-miterlimit="10" stroke-linecap="round" stroke-linejoin="round"/>
<path d="M296.647 105.146L293.967 122.538" stroke="#A3876E" stroke-width="2.37" stroke-miterlimit="10" stroke-linecap="round" stroke-linejoin="round"/>
<path d="M274.894 149.942L273.002 157.167" stroke="#A3876E" stroke-width="2.37" stroke-miterlimit="10" stroke-linecap="round" stroke-linejoin="round"/>
<path d="M278.467 136.358L276.891 142.375" stroke="#A3876E" stroke-width="2.37" stroke-miterlimit="10" stroke-linecap="round" stroke-linejoin="round"/>
<path d="M281.305 125.402L280.018 130.315" stroke="#A3876E" stroke-width="2.37" stroke-miterlimit="10" stroke-linecap="round" stroke-linejoin="round"/>
<path d="M285.874 107.773L282.459 120.962" stroke="#A3876E" stroke-width="2.37" stroke-miterlimit="10" stroke-linecap="round" stroke-linejoin="round"/>
<path d="M299.037 145.265L298.039 154.303" stroke="#A3876E" stroke-width="2.37" stroke-miterlimit="10" stroke-linecap="round" stroke-linejoin="round"/>
<path d="M300.509 132.075L299.826 138.249" stroke="#A3876E" stroke-width="2.37" stroke-miterlimit="10" stroke-linecap="round" stroke-linejoin="round"/>
<path d="M302.793 111.477L301.033 127.451" stroke="#A3876E" stroke-width="2.37" stroke-miterlimit="10" stroke-linecap="round" stroke-linejoin="round"/>
<path d="M284.274 143.529L282.408 152.436" stroke="#A3876E" stroke-width="2.37" stroke-miterlimit="10" stroke-linecap="round" stroke-linejoin="round"/>
<path d="M286.98 130.55L285.719 136.619" stroke="#A3876E" stroke-width="2.37" stroke-miterlimit="10" stroke-linecap="round" stroke-linejoin="round"/>
<path d="M291.235 110.268L287.951 125.979" stroke="#A3876E" stroke-width="2.37" stroke-miterlimit="10" stroke-linecap="round" stroke-linejoin="round"/>
<path d="M329.277 153.092L329.829 160.527" stroke="#A3876E" stroke-width="2.37" stroke-miterlimit="10" stroke-linecap="round" stroke-linejoin="round"/>
<path d="M328.227 139.062L328.673 145.262" stroke="#A3876E" stroke-width="2.37" stroke-miterlimit="10" stroke-linecap="round" stroke-linejoin="round"/>
<path d="M327.439 127.765L327.807 132.862" stroke="#A3876E" stroke-width="2.37" stroke-miterlimit="10" stroke-linecap="round" stroke-linejoin="round"/>
<path d="M325.811 104.355L327.098 123.219" stroke="#A3876E" stroke-width="2.37" stroke-miterlimit="10" stroke-linecap="round" stroke-linejoin="round"/>
<path d="M347.223 152.121L348.352 159.504" stroke="#A3876E" stroke-width="2.37" stroke-miterlimit="10" stroke-linecap="round" stroke-linejoin="round"/>
<path d="M345.068 138.25L346.014 144.398" stroke="#A3876E" stroke-width="2.37" stroke-miterlimit="10" stroke-linecap="round" stroke-linejoin="round"/>
<path d="M343.361 127.058L344.15 132.076" stroke="#A3876E" stroke-width="2.37" stroke-miterlimit="10" stroke-linecap="round" stroke-linejoin="round"/>
<path d="M339.998 105.146L342.678 122.538" stroke="#A3876E" stroke-width="2.37" stroke-miterlimit="10" stroke-linecap="round" stroke-linejoin="round"/>
<path d="M361.752 149.942L363.644 157.167" stroke="#A3876E" stroke-width="2.37" stroke-miterlimit="10" stroke-linecap="round" stroke-linejoin="round"/>
<path d="M358.178 136.358L359.754 142.375" stroke="#A3876E" stroke-width="2.37" stroke-miterlimit="10" stroke-linecap="round" stroke-linejoin="round"/>
<path d="M355.342 125.402L356.629 130.315" stroke="#A3876E" stroke-width="2.37" stroke-miterlimit="10" stroke-linecap="round" stroke-linejoin="round"/>
<path d="M350.77 107.773L354.185 120.962" stroke="#A3876E" stroke-width="2.37" stroke-miterlimit="10" stroke-linecap="round" stroke-linejoin="round"/>
<path d="M337.605 145.265L338.604 154.303" stroke="#A3876E" stroke-width="2.37" stroke-miterlimit="10" stroke-linecap="round" stroke-linejoin="round"/>
<path d="M336.135 132.075L336.818 138.249" stroke="#A3876E" stroke-width="2.37" stroke-miterlimit="10" stroke-linecap="round" stroke-linejoin="round"/>
<path d="M333.85 111.477L335.61 127.451" stroke="#A3876E" stroke-width="2.37" stroke-miterlimit="10" stroke-linecap="round" stroke-linejoin="round"/>
<path d="M317.718 146.262L317.639 155.352" stroke="#A3876E" stroke-width="2.37" stroke-miterlimit="10" stroke-linecap="round" stroke-linejoin="round"/>
<path d="M317.876 132.994L317.797 139.195" stroke="#A3876E" stroke-width="2.37" stroke-miterlimit="10" stroke-linecap="round" stroke-linejoin="round"/>
<path d="M318.086 112.265L317.902 128.344" stroke="#A3876E" stroke-width="2.37" stroke-miterlimit="10" stroke-linecap="round" stroke-linejoin="round"/>
<path d="M352.371 143.529L354.236 152.436" stroke="#A3876E" stroke-width="2.37" stroke-miterlimit="10" stroke-linecap="round" stroke-linejoin="round"/>
<path d="M349.664 130.55L350.925 136.619" stroke="#A3876E" stroke-width="2.37" stroke-miterlimit="10" stroke-linecap="round" stroke-linejoin="round"/>
<path d="M345.408 110.268L348.692 125.979" stroke="#A3876E" stroke-width="2.37" stroke-miterlimit="10" stroke-linecap="round" stroke-linejoin="round"/>
<path d="M511.333 73.285C509.328 72.66 507.739 72.3215 506.359 72.0871C505.24 71.8788 503.365 70.9674 505.734 68.8322C508.104 66.6969 509.875 66.2022 513.13 66.697C516.385 67.1917 520.525 68.9624 522.27 70.2123C524.014 71.4622 526.774 72.8423 533.284 76.4618C539.794 80.0813 544.794 84.0914 545.939 85.3413C547.059 86.5912 557.449 100.861 559.584 103.986C561.719 107.11 562.969 110.391 563.464 113.256C563.959 116.172 565.053 118.932 565.886 121.276C566.641 123.437 566.719 125.546 567.058 128.775C567.318 131.119 567.761 133.54 567.969 137.03C568.281 142.055 567.969 145.024 567.448 150.883" stroke="#A3876E" stroke-width="2" stroke-miterlimit="10" stroke-linecap="round" stroke-linejoin="round"/>
<path d="M511.281 73.624C509.927 73.8063 508.964 74.4573 508.781 75.7853C509.536 75.9936 513.078 76.5405 514.406 76.6186C515.447 76.6707 518.442 76.1759 519.718 76.0457C520.213 76.0197 520.733 76.0978 521.384 76.4363C524.249 77.9726 531.878 83.2847 533.415 84.4565C535.159 85.7845 537.633 87.6073 539.013 88.5968C540.055 89.3259 541.227 90.5497 541.93 91.9819C542.815 93.7266 544.091 96.018 545.601 98.3356C547.033 100.523 549.195 104.585 549.767 106.017C550.34 107.423 550.523 112.189 551.434 113.855" stroke="#A3876E" stroke-width="2" stroke-miterlimit="10" stroke-linecap="round" stroke-linejoin="round"/>
<path d="M551.199 113.568C551.876 115.834 556.381 118.724 559.219 120.313C561.954 121.823 564.401 122.812 566.146 122.578" stroke="#A3876E" stroke-width="2" stroke-miterlimit="10" stroke-linecap="round" stroke-linejoin="round"/>
<path d="M551.228 113.854C554.457 121.093 554.327 127.291 549.119 129.53C545.343 131.171 539.849 130.155 536.75 123.177L535.422 124.01C535.995 126.77 537.505 134.191 536.932 136.196C539.51 138.045 541.854 140.024 542.348 142.368C542.843 144.711 542.27 147.784 542.27 147.784" stroke="#A3876E" stroke-width="2" stroke-miterlimit="10" stroke-linecap="round" stroke-linejoin="round"/>
<path d="M545.236 152.887C545.626 151.846 545.835 150.622 545.809 149.32C544.819 148.252 543.361 147.992 542.814 147.914C541.929 147.784 540.002 147.705 539.429 147.758C538.934 147.81 537.476 150.778 536.877 152.705" stroke="#A3876E" stroke-width="2" stroke-miterlimit="10" stroke-linecap="round" stroke-linejoin="round"/>
<path d="M536.801 116.276C537.295 116.589 538.155 117.162 538.936 117.969C539.665 118.75 540.498 120.104 538.571 121.667C536.618 123.229 533.546 125.234 532.113 126.302C530.551 127.447 527.973 129.609 526.984 131.197C525.994 132.759 524.666 135.832 523.911 136.952C523.156 138.071 519.432 144.217 518.286 146.04C517.167 147.862 515.943 150.336 519.328 151.951" stroke="#A3876E" stroke-width="2" stroke-miterlimit="10" stroke-linecap="round" stroke-linejoin="round"/>
<path d="M537.008 152.003C535.055 151.742 531.956 150.883 529.795 149.868C527.79 148.93 526.019 147.863 526.019 147.863C525.42 147.446 524.301 146.873 524.301 146.873" stroke="#A3876E" stroke-width="2" stroke-miterlimit="10" stroke-linecap="round" stroke-linejoin="round"/>
<path d="M526.15 147.758C527.088 146.326 530.838 141.197 532.087 139.426C533.337 137.681 534.301 136.275 536.879 136.093" stroke="#A3876E" stroke-width="2" stroke-miterlimit="10" stroke-linecap="round" stroke-linejoin="round"/>
<path d="M533.651 114.401C534.406 114.974 537.843 117.395 540.031 116.588C542.218 115.781 543.781 115.234 544.874 113.984C545.994 112.734 546.02 110.078 545.786 108.933C545.525 107.813 544.145 105.313 542.973 103.855C541.775 102.423 539.77 100.418 537.219 98.1002C534.641 95.7827 529.771 94.663 525.813 99.298C521.881 103.933 522.688 108.881 527.87 112.318C528.834 113.333 531.646 114.635 533.651 114.401Z" stroke="#A3876E" stroke-width="2" stroke-miterlimit="10" stroke-linecap="round" stroke-linejoin="round"/>
<path d="M545.967 111.693C547.711 113.152 549.248 113.959 551.071 113.646" stroke="#A3876E" stroke-width="2" stroke-miterlimit="10" stroke-linecap="round" stroke-linejoin="round"/>
<path d="M538.594 99.4028C537.396 99.0643 535.677 99.9757 533.334 102.502C530.99 105.001 530.574 107.241 530.574 108.647C530.574 110.157 531.667 111.85 530.521 113.751" stroke="#A3876E" stroke-width="2" stroke-miterlimit="10" stroke-linecap="round" stroke-linejoin="round"/>
<path d="M567.475 150.829C566.98 153.329 563.022 153.511 558.466 153.641C554.091 153.772 546.826 153.199 545.185 152.834C543.753 153.459 540.941 153.381 536.879 152.964C536.306 152.912 532.843 152.912 531.15 152.834C529.457 152.782 520.474 152.808 519.094 151.845" stroke="#A3876E" stroke-width="2" stroke-miterlimit="10" stroke-linecap="round" stroke-linejoin="round"/>
<path d="M567.972 157.105C567.347 157.158 566.722 157.262 565.967 157.262" stroke="#A3876E" stroke-width="2" stroke-miterlimit="10" stroke-linecap="round" stroke-linejoin="round"/>
<path d="M554.248 158.278C552.452 158.33 552.191 158.33 550.551 158.252" stroke="#A3876E" stroke-width="2" stroke-miterlimit="10" stroke-linecap="round" stroke-linejoin="round"/>
<path d="M525.553 157.469C524.251 157.417 523.73 157.365 523.6 157.365" stroke="#A3876E" stroke-width="2" stroke-miterlimit="10" stroke-linecap="round" stroke-linejoin="round"/>
<path d="M540.317 159.032C538.807 158.979 537.739 158.979 537.01 158.901" stroke="#A3876E" stroke-width="2" stroke-miterlimit="10" stroke-linecap="round" stroke-linejoin="round"/>
<path d="M545.554 165.178C544.955 165.178 544.538 165.178 544.252 165.178" stroke="#A3876E" stroke-width="2" stroke-miterlimit="10" stroke-linecap="round" stroke-linejoin="round"/>
<path d="M483.081 153.226C482.482 153.2 482.066 153.174 481.779 153.147" stroke="#A3876E" stroke-width="2" stroke-miterlimit="10" stroke-linecap="round" stroke-linejoin="round"/>
<path d="M458.345 144.451C457.746 144.425 457.329 144.399 457.043 144.373" stroke="#A3876E" stroke-width="2" stroke-miterlimit="10" stroke-linecap="round" stroke-linejoin="round"/>
<path d="M469.726 147.757C469.127 147.731 468.71 147.705 468.424 147.679" stroke="#A3876E" stroke-width="2" stroke-miterlimit="10" stroke-linecap="round" stroke-linejoin="round"/>
<path d="M561.956 166.401C561.357 166.427 560.941 166.453 560.654 166.453" stroke="#A3876E" stroke-width="2" stroke-miterlimit="10" stroke-linecap="round" stroke-linejoin="round"/>
<path d="M501.023 156.376C500.424 156.35 500.007 156.35 499.721 156.324" stroke="#A3876E" stroke-width="2" stroke-miterlimit="10" stroke-linecap="round" stroke-linejoin="round"/>
<path d="M530.368 163.146C529.717 163.12 529.353 163.068 528.988 163.016" stroke="#A3876E" stroke-width="2" stroke-miterlimit="10" stroke-linecap="round" stroke-linejoin="round"/>
<path d="M460.741 62.7644C458.736 62.1395 457.148 61.801 455.768 61.5666C454.648 61.3583 452.773 60.4469 455.143 58.3117C457.512 56.1764 459.283 55.6817 462.538 56.1764C465.793 56.6712 469.933 58.4419 471.678 59.6918C473.422 60.9417 476.183 62.3218 482.692 65.9413C489.202 69.5608 494.202 73.5709 495.348 74.8207C496.467 76.0706 506.857 90.3403 508.992 93.4651C511.128 96.5898 512.378 99.8708 512.872 102.735C513.367 105.652 514.461 108.412 515.294 110.755C516.049 112.917 516.127 115.026 516.466 118.281C516.726 120.624 517.169 123.046 517.377 126.535C517.69 131.561 517.377 134.529 516.856 140.388" stroke="#A3876E" stroke-width="2" stroke-miterlimit="10" stroke-linecap="round" stroke-linejoin="round"/>
<path d="M460.689 63.1035C459.335 63.2858 458.372 63.9368 458.189 65.2648C458.945 65.4731 462.486 66.0199 463.814 66.0981C464.856 66.1501 467.85 65.6554 469.126 65.5252C469.621 65.4992 470.142 65.5773 470.793 65.9158C473.657 67.4521 481.287 72.7642 482.823 73.936C484.568 75.264 487.041 77.0868 488.421 78.0763C489.463 78.8054 490.635 80.0292 491.338 81.4614C492.223 83.206 493.499 85.4975 495.009 87.8151C496.442 90.0024 498.603 94.0645 499.176 95.4967C499.749 96.9289 499.931 101.668 500.842 103.335" stroke="#A3876E" stroke-width="2" stroke-miterlimit="10" stroke-linecap="round" stroke-linejoin="round"/>
<path d="M500.607 103.048C501.284 105.313 505.789 108.204 508.628 109.792C511.362 111.302 513.809 112.292 515.554 112.058" stroke="#A3876E" stroke-width="2" stroke-miterlimit="10" stroke-linecap="round" stroke-linejoin="round"/>
<path d="M500.636 103.334C503.865 110.573 503.735 116.77 498.527 119.01C494.751 120.65 489.257 119.635 486.158 112.656L484.83 113.489C485.403 116.25 486.913 123.671 486.34 125.676C488.918 127.525 491.262 129.504 491.757 131.847C492.251 134.191 491.678 137.264 491.678 137.264" stroke="#A3876E" stroke-width="2" stroke-miterlimit="10" stroke-linecap="round" stroke-linejoin="round"/>
<path d="M494.669 142.367C495.06 141.325 495.268 140.075 495.242 138.799C494.253 137.732 492.794 137.471 492.248 137.393C491.362 137.263 489.435 137.185 488.862 137.237C488.368 137.289 486.909 140.258 486.311 142.185" stroke="#A3876E" stroke-width="2" stroke-miterlimit="10" stroke-linecap="round" stroke-linejoin="round"/>
<path d="M486.207 105.756C486.701 106.068 487.561 106.641 488.342 107.448C489.071 108.23 489.904 109.584 487.977 111.146C486.024 112.708 482.952 114.713 481.519 115.781C479.957 116.927 477.379 119.088 476.39 120.677C475.4 122.239 474.072 125.312 473.317 126.431C472.562 127.551 468.838 133.696 467.692 135.519C466.547 137.342 465.349 139.816 468.734 141.43" stroke="#A3876E" stroke-width="2" stroke-miterlimit="10" stroke-linecap="round" stroke-linejoin="round"/>
<path d="M475.559 137.238C476.496 135.806 480.246 130.676 481.496 128.905C482.746 127.161 483.709 125.755 486.287 125.572" stroke="#A3876E" stroke-width="2" stroke-miterlimit="10" stroke-linecap="round" stroke-linejoin="round"/>
<path d="M483.083 103.88C483.838 104.453 487.275 106.875 489.462 106.068C491.65 105.261 493.212 104.714 494.306 103.464C495.425 102.214 495.451 99.5579 495.217 98.4121C494.957 97.2924 493.577 94.7926 492.405 93.3344C491.207 91.9022 489.202 89.8972 486.65 87.5797C484.098 85.2621 479.203 84.1425 475.245 88.7775C471.313 93.4125 472.12 98.36 477.302 101.797C478.265 102.813 481.078 104.115 483.083 103.88Z" stroke="#A3876E" stroke-width="2" stroke-miterlimit="10" stroke-linecap="round" stroke-linejoin="round"/>
<path d="M495.375 101.173C497.12 102.631 498.656 103.438 500.479 103.126" stroke="#A3876E" stroke-width="2" stroke-miterlimit="10" stroke-linecap="round" stroke-linejoin="round"/>
<path d="M488.002 88.8823C486.804 88.5438 485.086 89.4552 482.742 91.981C480.398 94.5069 479.982 96.7202 479.982 98.1264C479.982 99.6367 481.075 101.329 479.93 103.23" stroke="#A3876E" stroke-width="2" stroke-miterlimit="10" stroke-linecap="round" stroke-linejoin="round"/>
<path d="M516.881 140.31C516.387 142.809 512.949 143.2 508.106 143.304C503.731 143.408 496.206 142.679 494.592 142.315C493.185 142.94 490.347 142.861 486.285 142.445C485.712 142.393 482.249 142.393 480.556 142.315C478.864 142.263 469.88 142.289 468.5 141.325" stroke="#A3876E" stroke-width="2" stroke-miterlimit="10" stroke-linecap="round" stroke-linejoin="round"/>
<path d="M481.573 147.001C480.193 147.001 478.448 146.949 477.875 146.871" stroke="#A3876E" stroke-width="2" stroke-miterlimit="10" stroke-linecap="round" stroke-linejoin="round"/>
<path d="M496.936 148.512C495.687 148.512 492.406 148.46 491.65 148.382" stroke="#A3876E" stroke-width="2" stroke-miterlimit="10" stroke-linecap="round" stroke-linejoin="round"/>
<path d="M486.467 141.82C484.514 141.56 481.415 140.701 479.254 139.685C477.249 138.748 475.478 137.68 475.478 137.68C474.801 137.237 473.76 136.69 473.76 136.69" stroke="#A3876E" stroke-width="2" stroke-miterlimit="10" stroke-linecap="round" stroke-linejoin="round"/>
<path d="M510.215 148.591C509.434 148.669 508.21 148.669 506.752 148.643" stroke="#A3876E" stroke-width="2" stroke-miterlimit="10" stroke-linecap="round" stroke-linejoin="round"/>
<path d="M689.647 158.08H748.52" stroke="#A3876E" stroke-width="2" stroke-miterlimit="10" stroke-linecap="round" stroke-linejoin="round"/>
<path d="M667.752 158.08H658.337" stroke="#A3876E" stroke-width="2" stroke-miterlimit="10" stroke-linecap="round" stroke-linejoin="round"/>
<path d="M714.705 87.6762C709.84 86.4598 698.479 82.3241 696.873 81.9105C695.267 81.4969 694.61 81.351 691.837 81.351C689.064 81.351 677.241 81.5942 674.492 81.6672C671.743 81.7402 670.186 81.1807 667.753 78.9912C665.32 76.8017 660.455 72.3498 659.725 71.4497C658.995 70.5495 659.068 69.8197 661.428 69.99C663.787 70.1603 666.293 70.1603 670.988 74.5393C672.448 75.9989 674.151 76.1692 676.584 75.8286C679.017 75.488 690.134 74.442 691.983 74.1987C693.832 73.9554 696.654 73.9554 699.525 75.0015C701.641 75.78 702.395 76.0962 707.869 76.9477C713.197 77.7748 717.113 78.3344 720.276 79.0642C723.439 79.794 726.358 80.6942 727.647 79.867C728.937 79.0399 729.764 77.9208 730.153 77.191C730.542 76.4612 730.591 74.7826 729.423 73.2986C727.453 70.8172 726.917 67.7519 729.253 64.7839C731.613 61.7916 738.497 60.5753 742.39 63.9811C744.482 65.9516 744.969 69.0169 745.139 69.5035C745.577 70.6468 745.431 71.9849 745.431 72.885C745.431 73.7851 746.452 75.853 745.869 78.1154C745.285 80.3779 744.36 82.2998 743.971 82.9809C743.582 83.6621 742.56 84.4892 740.857 83.8324C739.154 83.1755 738.132 83.2972 736.673 84.6109C735.213 85.9246 732.099 88.2114 731.199 88.8682" stroke="#A3876E" stroke-width="2" stroke-miterlimit="10" stroke-linecap="round" stroke-linejoin="round"/>
<path d="M737.695 84.2705C738.376 86.4357 738.887 89.9388 734.484 92.2986C732.538 97.2371 730.032 104.706 723.536 101.3C717.528 104.292 715.435 99.9131 711.786 97.8209" stroke="#A3876E" stroke-width="2" stroke-miterlimit="10" stroke-linecap="round" stroke-linejoin="round"/>
<path d="M714.779 100.181C712.955 99.7431 706.386 98.5267 704.124 99.5485C702.713 101.057 700.913 103.003 700.134 103.49" stroke="#A3876E" stroke-width="2" stroke-miterlimit="10" stroke-linecap="round" stroke-linejoin="round"/>
<path d="M679.455 105.265C679.212 103.854 680.915 101.251 684.515 99.67C688.116 98.0887 693.565 98.6969 694.684 98.8186C695.803 98.9402 698.284 100.473 701.544 106.311C704.804 112.15 708.891 121.03 709.451 122.733C710.01 124.435 711.932 129.666 707.626 132.415C703.32 135.164 696.679 138.01 692.908 139.519C689.137 141.027 682.642 144.871 680.623 146.452C678.603 148.033 678.141 149.493 678.239 152.291C678.336 155.088 678.774 157.205 678.774 157.205C678.774 157.205 681.888 157.643 681.936 159.346C681.985 160.416 680.72 160.489 679.796 160.513C677.168 160.538 674.784 160.538 673.324 160.465C671.865 160.392 670.332 158.932 670.721 156.256C671.111 153.58 670.794 151.074 670.162 149.274C669.529 147.474 669.116 145.454 671.792 143.995C674.468 142.535 676.244 142.049 680.72 138.083C685.196 134.118 690.646 129.763 693.37 128.766C696.095 127.768 697.701 127.549 697.701 127.549C696.022 124.046 695.146 122.757 690.865 119.01C686.583 115.264 683.007 111.153 682.18 109.279C680.793 107.26 678.847 105.63 678.701 102.297C678.555 98.9645 679.674 94.3423 684.783 90.2066C689.891 86.071 694.197 84.0517 699.209 83.2246" stroke="#A3876E" stroke-width="2" stroke-miterlimit="10" stroke-linecap="round" stroke-linejoin="round"/>
<path d="M703.515 100.399C704.707 101.518 706.215 103.586 707.894 107.187C710.716 113.269 713.562 122.075 714.049 123.803C714.73 126.187 715.314 131.806 710.935 134.458C706.02 137.426 701.933 139.372 697.725 141.221C694.003 142.851 687.313 146.281 685.318 147.838C683.323 149.395 682.836 150.879 682.934 153.677C683.031 156.474 683.396 156.766 683.396 156.766C683.396 156.766 686.583 157.326 686.656 159.029C686.704 160.099 685.561 160.197 684.345 160.221" stroke="#A3876E" stroke-width="2" stroke-miterlimit="10" stroke-linecap="round" stroke-linejoin="round"/>
<path d="M732.416 88.042C731.735 90.3774 730.348 96.0701 727.551 95.1456C724.753 94.2212 724.461 80.4031 726.383 80.3545" stroke="#A3876E" stroke-width="2" stroke-miterlimit="10" stroke-linecap="round" stroke-linejoin="round"/>
<path d="M716.286 78.3105C722.49 79.2836 725.823 92.9071 714.827 92.9071C708.867 92.6638 709.377 86.144 709.377 86.144" stroke="#A3876E" stroke-width="2" stroke-miterlimit="10" stroke-linecap="round" stroke-linejoin="round"/>
<path d="M740.031 83.5413C738.693 83.0791 736.577 82.106 735.75 81.6925C734.704 81.1816 734.558 80.4517 734.266 79.2354" stroke="#A3876E" stroke-width="2" stroke-miterlimit="10" stroke-linecap="round" stroke-linejoin="round"/>
<path d="M745.09 69.4064C742.852 69.1144 738.619 69.2604 736.77 72.058C734.921 74.8557 732.78 77.5561 730.42 76.8019" stroke="#A3876E" stroke-width="2" stroke-miterlimit="10" stroke-linecap="round" stroke-linejoin="round"/>
<path d="M742.56 74.0293L743.436 77.6784" stroke="#A3876E" stroke-width="2" stroke-miterlimit="10" stroke-linecap="round" stroke-linejoin="round"/>
<path d="M729.375 78.3103C727.186 77.7021 720.058 75.5126 716.189 74.6611C712.589 73.8827 710.716 73.4934 708.77 72.7636C707.772 72.3987 705.729 72.2527 704.488 72.6663C703.661 72.9582 702.274 73.3718 702.274 73.3718" stroke="#A3876E" stroke-width="2" stroke-miterlimit="10" stroke-linecap="round" stroke-linejoin="round"/>
<path d="M686.438 74.6365C684.905 73.1039 681.426 69.5764 679.893 68.5303C678.361 67.4842 675.636 67.2409 676.95 69.5034C678.288 71.7902 680.769 75.3907 680.769 75.3907" stroke="#A3876E" stroke-width="2" stroke-miterlimit="10" stroke-linecap="round" stroke-linejoin="round"/>
<path d="M725.652 98.3076C725.117 99.7186 724.46 100.935 722.879 101.543" stroke="#A3876E" stroke-width="2" stroke-miterlimit="10" stroke-linecap="round" stroke-linejoin="round"/>
<path d="M725.483 122.806L752 152.145" stroke="#A3876E" stroke-width="2" stroke-miterlimit="10" stroke-linecap="round" stroke-linejoin="round"/>
<path d="M717.455 137.158L731.078 152.144" stroke="#A3876E" stroke-width="2" stroke-miterlimit="10" stroke-linecap="round" stroke-linejoin="round"/>
<path d="M705.049 144.457L712.104 152.145" stroke="#A3876E" stroke-width="2" stroke-miterlimit="10" stroke-linecap="round" stroke-linejoin="round"/>
<path d="M169.568 271.468C171.912 269.124 176.121 269.459 179.517 272.042L169.568 271.468Z" fill="#09151E"/>
<path d="M169.568 271.468C171.912 269.124 176.121 269.459 179.517 272.042" stroke="#A3876E" stroke-width="2" stroke-miterlimit="10" stroke-linecap="round" stroke-linejoin="round"/>
<path d="M169.57 271.468L166.844 273.955" stroke="#A3876E" stroke-width="2" stroke-miterlimit="10" stroke-linecap="round" stroke-linejoin="round"/>
<path d="M162.396 278.331C165.003 275.7 170.001 276.418 173.54 279.957C176.147 282.563 177.247 285.959 176.577 288.614" fill="#09151E"/>
<path d="M162.396 278.331C165.003 275.7 170.001 276.418 173.54 279.957C176.147 282.563 177.247 285.959 176.577 288.614" stroke="#A3876E" stroke-width="2" stroke-miterlimit="10" stroke-linecap="round" stroke-linejoin="round"/>
<path d="M162.398 278.331L159.672 280.842" stroke="#A3876E" stroke-width="2" stroke-miterlimit="10" stroke-linecap="round" stroke-linejoin="round"/>
<path d="M173.996 290.982L176.603 288.614" stroke="#A3876E" stroke-width="2" stroke-miterlimit="10" stroke-linecap="round" stroke-linejoin="round"/>
<path d="M173.995 290.981L158.045 284.142" stroke="#A3876E" stroke-width="2" stroke-miterlimit="10" stroke-linecap="round" stroke-linejoin="round"/>
<path d="M155.246 284.979C157.853 282.349 162.851 283.066 166.39 286.605C168.996 289.212 170.097 292.608 169.427 295.262" fill="#09151E"/>
<path d="M155.246 284.979C157.853 282.349 162.851 283.066 166.39 286.605C168.996 289.212 170.097 292.608 169.427 295.262" stroke="#A3876E" stroke-width="2" stroke-miterlimit="10" stroke-linecap="round" stroke-linejoin="round"/>
<path d="M155.248 284.979L152.521 287.49" stroke="#A3876E" stroke-width="2" stroke-miterlimit="10" stroke-linecap="round" stroke-linejoin="round"/>
<path d="M166.846 297.63L169.452 295.286" stroke="#A3876E" stroke-width="2" stroke-miterlimit="10" stroke-linecap="round" stroke-linejoin="round"/>
<path d="M166.845 297.629L150.895 290.79" stroke="#A3876E" stroke-width="2" stroke-miterlimit="10" stroke-linecap="round" stroke-linejoin="round"/>
<path d="M148.096 291.795C150.702 289.164 155.7 289.881 159.24 293.421C161.846 296.027 162.946 299.423 162.277 302.077" fill="#09151E"/>
<path d="M148.096 291.795C150.702 289.164 155.7 289.881 159.24 293.421C161.846 296.027 162.946 299.423 162.277 302.077" stroke="#A3876E" stroke-width="2" stroke-miterlimit="10" stroke-linecap="round" stroke-linejoin="round"/>
<path d="M148.097 291.795L145.371 294.306" stroke="#A3876E" stroke-width="2" stroke-miterlimit="10" stroke-linecap="round" stroke-linejoin="round"/>
<path d="M159.719 304.445L162.301 302.102" stroke="#A3876E" stroke-width="2" stroke-miterlimit="10" stroke-linecap="round" stroke-linejoin="round"/>
<path d="M159.719 304.445L143.744 297.605" stroke="#A3876E" stroke-width="2" stroke-miterlimit="10" stroke-linecap="round" stroke-linejoin="round"/>
<path d="M141.016 298.252C143.622 295.621 148.62 296.338 152.159 299.878C154.766 302.484 155.866 305.88 155.196 308.534" fill="#09151E"/>
<path d="M141.016 298.252C143.622 295.621 148.62 296.338 152.159 299.878C154.766 302.484 155.866 305.88 155.196 308.534" stroke="#A3876E" stroke-width="2" stroke-miterlimit="10" stroke-linecap="round" stroke-linejoin="round"/>
<path d="M141.017 298.252L138.291 300.739" stroke="#A3876E" stroke-width="2" stroke-miterlimit="10" stroke-linecap="round" stroke-linejoin="round"/>
<path d="M152.615 310.879L155.198 308.535" stroke="#A3876E" stroke-width="2" stroke-miterlimit="10" stroke-linecap="round" stroke-linejoin="round"/>
<path d="M152.615 310.877L136.664 304.038" stroke="#A3876E" stroke-width="2" stroke-miterlimit="10" stroke-linecap="round" stroke-linejoin="round"/>
<path d="M133.965 304.899C136.571 302.269 141.569 302.986 145.109 306.525C147.715 309.132 148.815 312.528 148.146 315.182" fill="#09151E"/>
<path d="M133.965 304.899C136.571 302.269 141.569 302.986 145.109 306.525C147.715 309.132 148.815 312.528 148.146 315.182" stroke="#A3876E" stroke-width="2" stroke-miterlimit="10" stroke-linecap="round" stroke-linejoin="round"/>
<path d="M133.966 304.898L131.24 307.409" stroke="#A3876E" stroke-width="2" stroke-miterlimit="10" stroke-linecap="round" stroke-linejoin="round"/>
<path d="M145.588 317.549L148.171 315.182" stroke="#A3876E" stroke-width="2" stroke-miterlimit="10" stroke-linecap="round" stroke-linejoin="round"/>
<path d="M145.588 317.548L129.613 310.709" stroke="#A3876E" stroke-width="2" stroke-miterlimit="10" stroke-linecap="round" stroke-linejoin="round"/>
<path d="M126.432 311.547C129.038 308.917 134.036 309.634 137.575 313.174C140.182 315.78 141.282 319.176 140.613 321.83" fill="#09151E"/>
<path d="M126.432 311.547C129.038 308.917 134.036 309.634 137.575 313.174C140.182 315.78 141.282 319.176 140.613 321.83" stroke="#A3876E" stroke-width="2" stroke-miterlimit="10" stroke-linecap="round" stroke-linejoin="round"/>
<path d="M126.429 311.548L123.703 314.059" stroke="#A3876E" stroke-width="2" stroke-miterlimit="10" stroke-linecap="round" stroke-linejoin="round"/>
<path d="M138.053 324.199L140.635 321.831" stroke="#A3876E" stroke-width="2" stroke-miterlimit="10" stroke-linecap="round" stroke-linejoin="round"/>
<path d="M138.052 324.198L122.102 317.358" stroke="#A3876E" stroke-width="2" stroke-miterlimit="10" stroke-linecap="round" stroke-linejoin="round"/>
<path d="M118.562 318.673C121.169 316.043 126.167 316.76 129.706 320.3C132.313 322.906 133.413 326.302 132.743 328.956" fill="#09151E"/>
<path d="M118.562 318.673C121.169 316.043 126.167 316.76 129.706 320.3C132.313 322.906 133.413 326.302 132.743 328.956" stroke="#A3876E" stroke-width="2" stroke-miterlimit="10" stroke-linecap="round" stroke-linejoin="round"/>
<path d="M118.56 318.674L115.834 321.185" stroke="#A3876E" stroke-width="2" stroke-miterlimit="10" stroke-linecap="round" stroke-linejoin="round"/>
<path d="M130.184 331.324L132.766 328.957" stroke="#A3876E" stroke-width="2" stroke-miterlimit="10" stroke-linecap="round" stroke-linejoin="round"/>
<path d="M130.183 331.323L114.232 324.46" stroke="#A3876E" stroke-width="2" stroke-miterlimit="10" stroke-linecap="round" stroke-linejoin="round"/>
<path d="M110.359 325.776C112.966 323.145 117.964 323.863 121.503 327.402C122.938 328.837 123.918 330.487 124.397 332.137" fill="#09151E"/>
<path d="M110.359 325.776C112.966 323.145 117.964 323.863 121.503 327.402C122.938 328.837 123.918 330.487 124.397 332.137" stroke="#A3876E" stroke-width="2" stroke-miterlimit="10" stroke-linecap="round" stroke-linejoin="round"/>
<path d="M110.361 325.776L107.635 328.287" stroke="#A3876E" stroke-width="2" stroke-miterlimit="10" stroke-linecap="round" stroke-linejoin="round"/>
<path d="M179.446 284.262L175.764 282.684" stroke="#A3876E" stroke-width="2" stroke-miterlimit="10" stroke-linecap="round" stroke-linejoin="round"/>
<path d="M147.188 326.899C145.777 328.286 144.63 329.243 143.027 330.821L147.188 326.899Z" fill="#09151E"/>
<path d="M147.188 326.899C145.777 328.286 144.63 329.243 143.027 330.821" stroke="#A3876E" stroke-width="2" stroke-miterlimit="10" stroke-linecap="round" stroke-linejoin="round"/>
<path d="M153.428 273.811C154.241 272.903 155.604 271.731 156.728 270.727L153.428 273.811Z" fill="#09151E"/>
<path d="M153.428 273.811C154.241 272.903 155.604 271.731 156.728 270.727" stroke="#A3876E" stroke-width="2" stroke-miterlimit="10" stroke-linecap="round" stroke-linejoin="round"/>
<path d="M166.844 311.547C165.385 313.03 163.328 314.799 161.654 316.377L166.844 311.547Z" fill="#09151E"/>
<path d="M166.844 311.547C165.385 313.03 163.328 314.799 161.654 316.377" stroke="#A3876E" stroke-width="2" stroke-miterlimit="10" stroke-linecap="round" stroke-linejoin="round"/>
<path d="M140.014 262.763C139.559 267.522 138.674 271.085 134.059 272.424C129.444 273.763 127.22 276.728 125.426 280.889C123.633 285.05 118.18 285.792 113.398 286.987C106.845 288.613 95.8209 293.755 89.5794 301.12C83.3379 308.486 79.5357 308.031 77.6465 306.692" stroke="#A3876E" stroke-width="2" stroke-miterlimit="10" stroke-linecap="round" stroke-linejoin="round"/>
<path d="M91.9461 272.927C92.4961 275.725 92.6635 277.112 88.7656 281.464C84.8676 285.816 79.6783 289.666 77 309.73" stroke="#A3876E" stroke-width="2" stroke-miterlimit="10" stroke-linecap="round" stroke-linejoin="round"/>
<path d="M94.505 279.264C93.1658 276.705 86.5895 261.543 89.2679 246.047C91.731 233.23 95.055 233.636 98.7377 233.564C103.52 233.445 116.243 233.684 123.943 234.234C131.643 234.784 134.082 234.114 135.876 234.234C137.669 234.353 138.435 235.453 143.672 236.123C148.909 236.793 153.811 237.797 158.044 239.806C162.277 241.815 166.748 244.828 168.183 246.167C169.642 247.506 169.188 249.969 166.175 249.395C163.161 248.845 155.796 246.932 154.792 246.597C153.787 246.263 152.424 246.98 151.324 247.841C150.391 248.582 150.846 249.873 152.4 250.424C153.955 250.974 155.102 251.787 155.652 252.576C156.202 253.365 156.872 256.832 152.759 254.489C148.646 252.145 146.183 251.356 144.843 250.926C143.504 250.471 140.802 248.702 139.965 246.908C139.152 245.115 138.363 244.11 136.928 244.23C135.469 244.349 125.999 245.689 118.969 246.573C111.938 247.458 106.151 248.463 100.125 247.363" stroke="#A3876E" stroke-width="2" stroke-miterlimit="10" stroke-linecap="round" stroke-linejoin="round"/>
<path d="M81.1604 292.344C80.1082 295.166 81.9496 301.024 96.7761 294.759" stroke="#A3876E" stroke-width="2" stroke-miterlimit="10" stroke-linecap="round" stroke-linejoin="round"/>
<path d="M107.204 275.03C108.328 268.789 111.317 256.282 106.08 247.864" stroke="#A3876E" stroke-width="2" stroke-miterlimit="10" stroke-linecap="round" stroke-linejoin="round"/>
<path d="M108.996 263.146C111.268 266.78 115.285 274.074 111.866 284.62" stroke="#A3876E" stroke-width="2" stroke-miterlimit="10" stroke-linecap="round" stroke-linejoin="round"/>
<path d="M112.465 282.492C113.35 282.253 118.252 281.87 118.252 281.87" stroke="#A3876E" stroke-width="2" stroke-miterlimit="10" stroke-linecap="round" stroke-linejoin="round"/>
<path d="M118.536 285.745C118.465 283.879 118.536 277.423 123.08 269.914C127.624 262.405 133.698 257.646 140.035 262.787" stroke="#A3876E" stroke-width="2" stroke-miterlimit="10" stroke-linecap="round" stroke-linejoin="round"/>
<path d="M131.761 272.782C131.091 273.906 128.843 273.787 126.763 272.543C124.658 271.3 123.51 269.363 124.156 268.263C124.826 267.139 127.074 267.258 129.154 268.502C131.258 269.745 132.43 271.658 131.761 272.782Z" stroke="#A3876E" stroke-width="2" stroke-miterlimit="10" stroke-linecap="round" stroke-linejoin="round"/>
<path d="M126.334 265.346C127.41 264.198 133.891 262.763 139.104 267.689" stroke="#A3876E" stroke-width="2" stroke-miterlimit="10" stroke-linecap="round" stroke-linejoin="round"/>
<path d="M143.552 261.663C144.484 268.55 144.58 272.616 140.036 275.27C135.493 277.948 134.56 281.368 133.914 284.333C133.269 287.299 133.221 289.403 126.047 293.038C119.59 296.314 112.009 298.849 104.285 306.764" stroke="#A3876E" stroke-width="2" stroke-miterlimit="10" stroke-linecap="round" stroke-linejoin="round"/>
<path d="M89.6758 321.663C91.6128 319.439 93.5259 317.287 95.5347 315.589L89.6758 321.663Z" fill="#09151E"/>
<path d="M89.6758 321.663C91.6128 319.439 93.5259 317.287 95.5347 315.589" stroke="#A3876E" stroke-width="2" stroke-miterlimit="10" stroke-linecap="round" stroke-linejoin="round"/>
<path d="M262.271 233.534H374.18" stroke="#A3876E" stroke-width="2" stroke-miterlimit="10" stroke-linecap="round" stroke-linejoin="round"/>
<path d="M276.817 242.405H260" stroke="#A3876E" stroke-width="2" stroke-miterlimit="10" stroke-linecap="round" stroke-linejoin="round"/>
<path d="M317.287 242.405H281.172" stroke="#A3876E" stroke-width="2" stroke-miterlimit="10" stroke-linecap="round" stroke-linejoin="round"/>
<path d="M358.471 242.405H321.775" stroke="#A3876E" stroke-width="2" stroke-miterlimit="10" stroke-linecap="round" stroke-linejoin="round"/>
<path d="M376.424 242.405H363.197" stroke="#A3876E" stroke-width="2" stroke-miterlimit="10" stroke-linecap="round" stroke-linejoin="round"/>
<path d="M335.027 329.787L348.042 315.056L362.958 329.787" stroke="#A3876E" stroke-width="2" stroke-miterlimit="10" stroke-linecap="round" stroke-linejoin="round"/>
<path d="M334.473 315.056L346.854 300.906L361.057 315.056" stroke="#A3876E" stroke-width="2" stroke-miterlimit="10" stroke-linecap="round" stroke-linejoin="round"/>
<path d="M333.973 300.88L345.826 287.179L359.369 300.88" stroke="#A3876E" stroke-width="2" stroke-miterlimit="10" stroke-linecap="round" stroke-linejoin="round"/>
<path d="M333.311 287.521L344.689 274.269L357.704 287.521" stroke="#A3876E" stroke-width="2" stroke-miterlimit="10" stroke-linecap="round" stroke-linejoin="round"/>
<path d="M332.783 274.771L343.792 261.993L356.358 274.771" stroke="#A3876E" stroke-width="2" stroke-miterlimit="10" stroke-linecap="round" stroke-linejoin="round"/>
<path d="M332.309 262.838L342.948 250.457L355.091 262.838" stroke="#A3876E" stroke-width="2" stroke-miterlimit="10" stroke-linecap="round" stroke-linejoin="round"/>
<path d="M275.021 318.013L287.641 329.84L302.134 318.013" stroke="#A3876E" stroke-width="2" stroke-miterlimit="10" stroke-linecap="round" stroke-linejoin="round"/>
<path d="M278.373 293.304L290.121 304.312L303.637 293.304" stroke="#A3876E" stroke-width="2" stroke-miterlimit="10" stroke-linecap="round" stroke-linejoin="round"/>
<path d="M280.723 270.704L291.811 281.079L304.561 270.704" stroke="#A3876E" stroke-width="2" stroke-miterlimit="10" stroke-linecap="round" stroke-linejoin="round"/>
<path d="M282.861 250.457L293.316 260.251L305.354 250.457" stroke="#A3876E" stroke-width="2" stroke-miterlimit="10" stroke-linecap="round" stroke-linejoin="round"/>
<path d="M320.217 252.939C320.217 251.513 319.056 250.352 317.63 250.352C316.205 250.352 315.043 251.513 315.043 252.939" stroke="#A3876E" stroke-width="2" stroke-miterlimit="10" stroke-linecap="round" stroke-linejoin="round"/>
<path d="M320.217 258.219C320.217 256.793 319.056 255.632 317.63 255.632C316.205 255.632 315.043 256.793 315.043 258.219" stroke="#A3876E" stroke-width="2" stroke-miterlimit="10" stroke-linecap="round" stroke-linejoin="round"/>
<path d="M320.217 263.499C320.217 262.074 319.056 260.912 317.63 260.912C316.205 260.912 315.043 262.074 315.043 263.499" stroke="#A3876E" stroke-width="2" stroke-miterlimit="10" stroke-linecap="round" stroke-linejoin="round"/>
<path d="M320.217 268.779C320.217 267.353 319.056 266.191 317.63 266.191C316.205 266.191 315.043 267.353 315.043 268.779" stroke="#A3876E" stroke-width="2" stroke-miterlimit="10" stroke-linecap="round" stroke-linejoin="round"/>
<path d="M320.217 274.059C320.217 272.633 319.056 271.472 317.63 271.472C316.205 271.472 315.043 272.633 315.043 274.059" stroke="#A3876E" stroke-width="2" stroke-miterlimit="10" stroke-linecap="round" stroke-linejoin="round"/>
<path d="M320.217 279.338C320.217 277.913 319.056 276.751 317.63 276.751C316.205 276.751 315.043 277.913 315.043 279.338" stroke="#A3876E" stroke-width="2" stroke-miterlimit="10" stroke-linecap="round" stroke-linejoin="round"/>
<path d="M320.217 284.617C320.217 283.192 319.056 282.03 317.63 282.03C316.205 282.03 315.043 283.192 315.043 284.617" stroke="#A3876E" stroke-width="2" stroke-miterlimit="10" stroke-linecap="round" stroke-linejoin="round"/>
<path d="M320.217 289.898C320.217 288.472 319.056 287.311 317.63 287.311C316.205 287.311 315.043 288.472 315.043 289.898" stroke="#A3876E" stroke-width="2" stroke-miterlimit="10" stroke-linecap="round" stroke-linejoin="round"/>
<path d="M320.217 295.178C320.217 293.752 319.056 292.591 317.63 292.591C316.205 292.591 315.043 293.752 315.043 295.178" stroke="#A3876E" stroke-width="2" stroke-miterlimit="10" stroke-linecap="round" stroke-linejoin="round"/>
<path d="M320.217 300.458C320.217 299.033 319.056 297.871 317.63 297.871C316.205 297.871 315.043 299.033 315.043 300.458" stroke="#A3876E" stroke-width="2" stroke-miterlimit="10" stroke-linecap="round" stroke-linejoin="round"/>
<path d="M320.217 305.739C320.217 304.313 319.056 303.151 317.63 303.151C316.205 303.151 315.043 304.313 315.043 305.739" stroke="#A3876E" stroke-width="2" stroke-miterlimit="10" stroke-linecap="round" stroke-linejoin="round"/>
<path d="M320.217 311.019C320.217 309.593 319.056 308.432 317.63 308.432C316.205 308.432 315.043 309.593 315.043 311.019" stroke="#A3876E" stroke-width="2" stroke-miterlimit="10" stroke-linecap="round" stroke-linejoin="round"/>
<path d="M320.217 316.297C320.217 314.872 319.056 313.71 317.63 313.71C316.205 313.71 315.043 314.872 315.043 316.297" stroke="#A3876E" stroke-width="2" stroke-miterlimit="10" stroke-linecap="round" stroke-linejoin="round"/>
<path d="M320.217 321.577C320.217 320.152 319.056 318.99 317.63 318.99C316.205 318.99 315.043 320.152 315.043 321.577" stroke="#A3876E" stroke-width="2" stroke-miterlimit="10" stroke-linecap="round" stroke-linejoin="round"/>
<path d="M320.217 326.858C320.217 325.432 319.056 324.271 317.63 324.271C316.205 324.271 315.043 325.432 315.043 326.858" stroke="#A3876E" stroke-width="2" stroke-miterlimit="10" stroke-linecap="round" stroke-linejoin="round"/>
<path d="M320.217 332.137C320.217 330.711 319.056 329.55 317.63 329.55C316.205 329.55 315.043 330.711 315.043 332.137" stroke="#A3876E" stroke-width="2" stroke-miterlimit="10" stroke-linecap="round" stroke-linejoin="round"/>
<path d="M278.19 252.939C278.19 251.513 277.028 250.352 275.603 250.352C274.177 250.352 273.016 251.513 273.016 252.939" stroke="#A3876E" stroke-width="2" stroke-miterlimit="10" stroke-linecap="round" stroke-linejoin="round"/>
<path d="M277.424 258.218C277.424 256.792 276.263 255.631 274.837 255.631C273.412 255.631 272.25 256.792 272.25 258.218" stroke="#A3876E" stroke-width="2" stroke-miterlimit="10" stroke-linecap="round" stroke-linejoin="round"/>
<path d="M276.684 263.498C276.684 262.073 275.523 260.911 274.097 260.911C272.671 260.911 271.51 262.073 271.51 263.498" stroke="#A3876E" stroke-width="2" stroke-miterlimit="10" stroke-linecap="round" stroke-linejoin="round"/>
<path d="M275.92 268.778C275.92 267.352 274.759 266.19 273.333 266.19C271.908 266.19 270.746 267.352 270.746 268.778" stroke="#A3876E" stroke-width="2" stroke-miterlimit="10" stroke-linecap="round" stroke-linejoin="round"/>
<path d="M275.18 274.059C275.18 272.633 274.019 271.472 272.593 271.472C271.167 271.472 270.006 272.633 270.006 274.059" stroke="#A3876E" stroke-width="2" stroke-miterlimit="10" stroke-linecap="round" stroke-linejoin="round"/>
<path d="M274.415 279.338C274.415 277.913 273.253 276.751 271.827 276.751C270.402 276.751 269.24 277.913 269.24 279.338" stroke="#A3876E" stroke-width="2" stroke-miterlimit="10" stroke-linecap="round" stroke-linejoin="round"/>
<path d="M273.674 284.617C273.674 283.192 272.513 282.03 271.087 282.03C269.662 282.03 268.5 283.192 268.5 284.617" stroke="#A3876E" stroke-width="2" stroke-miterlimit="10" stroke-linecap="round" stroke-linejoin="round"/>
<path d="M272.911 289.898C272.911 288.472 271.749 287.311 270.324 287.311C268.898 287.311 267.736 288.472 267.736 289.898" stroke="#A3876E" stroke-width="2" stroke-miterlimit="10" stroke-linecap="round" stroke-linejoin="round"/>
<path d="M272.17 295.178C272.17 293.752 271.009 292.591 269.583 292.591C268.158 292.591 266.996 293.752 266.996 295.178" stroke="#A3876E" stroke-width="2" stroke-miterlimit="10" stroke-linecap="round" stroke-linejoin="round"/>
<path d="M271.405 300.458C271.405 299.033 270.243 297.871 268.818 297.871C267.392 297.871 266.23 299.033 266.23 300.458" stroke="#A3876E" stroke-width="2" stroke-miterlimit="10" stroke-linecap="round" stroke-linejoin="round"/>
<path d="M270.667 305.738C270.667 304.312 269.505 303.15 268.079 303.15C266.654 303.15 265.492 304.312 265.492 305.738" stroke="#A3876E" stroke-width="2" stroke-miterlimit="10" stroke-linecap="round" stroke-linejoin="round"/>
<path d="M269.901 311.018C269.901 309.592 268.739 308.431 267.314 308.431C265.888 308.431 264.727 309.592 264.727 311.018" stroke="#A3876E" stroke-width="2" stroke-miterlimit="10" stroke-linecap="round" stroke-linejoin="round"/>
<path d="M269.161 316.297C269.161 314.872 267.999 313.71 266.574 313.71C265.148 313.71 263.986 314.872 263.986 316.297" stroke="#A3876E" stroke-width="2" stroke-miterlimit="10" stroke-linecap="round" stroke-linejoin="round"/>
<path d="M268.395 321.577C268.395 320.152 267.233 318.99 265.808 318.99C264.382 318.99 263.221 320.152 263.221 321.577" stroke="#A3876E" stroke-width="2" stroke-miterlimit="10" stroke-linecap="round" stroke-linejoin="round"/>
<path d="M267.657 326.857C267.657 325.431 266.495 324.27 265.07 324.27C263.644 324.27 262.482 325.431 262.482 326.857" stroke="#A3876E" stroke-width="2" stroke-miterlimit="10" stroke-linecap="round" stroke-linejoin="round"/>
<path d="M266.891 332.137C266.891 330.711 265.729 329.55 264.304 329.55C262.878 329.55 261.717 330.711 261.717 332.137" stroke="#A3876E" stroke-width="2" stroke-miterlimit="10" stroke-linecap="round" stroke-linejoin="round"/>
<path d="M358.102 252.939C358.102 251.513 359.263 250.352 360.689 250.352C362.114 250.352 363.276 251.513 363.276 252.939" stroke="#A3876E" stroke-width="2" stroke-miterlimit="10" stroke-linecap="round" stroke-linejoin="round"/>
<path d="M358.84 258.219C358.84 256.793 360.001 255.632 361.427 255.632C362.853 255.632 364.014 256.793 364.014 258.219" stroke="#A3876E" stroke-width="2" stroke-miterlimit="10" stroke-linecap="round" stroke-linejoin="round"/>
<path d="M359.604 263.499C359.604 262.074 360.765 260.912 362.191 260.912C363.616 260.912 364.778 262.074 364.778 263.499" stroke="#A3876E" stroke-width="2" stroke-miterlimit="10" stroke-linecap="round" stroke-linejoin="round"/>
<path d="M360.346 268.779C360.346 267.353 361.507 266.191 362.933 266.191C364.358 266.191 365.52 267.353 365.52 268.779" stroke="#A3876E" stroke-width="2" stroke-miterlimit="10" stroke-linecap="round" stroke-linejoin="round"/>
<path d="M361.109 274.059C361.109 272.633 362.271 271.472 363.696 271.472C365.122 271.472 366.284 272.633 366.284 274.059" stroke="#A3876E" stroke-width="2" stroke-miterlimit="10" stroke-linecap="round" stroke-linejoin="round"/>
<path d="M361.85 279.338C361.85 277.913 363.011 276.751 364.437 276.751C365.862 276.751 367.024 277.913 367.024 279.338" stroke="#A3876E" stroke-width="2" stroke-miterlimit="10" stroke-linecap="round" stroke-linejoin="round"/>
<path d="M362.615 284.617C362.615 283.192 363.777 282.03 365.202 282.03C366.628 282.03 367.79 283.192 367.79 284.617" stroke="#A3876E" stroke-width="2" stroke-miterlimit="10" stroke-linecap="round" stroke-linejoin="round"/>
<path d="M363.354 289.898C363.354 288.472 364.515 287.311 365.941 287.311C367.366 287.311 368.528 288.472 368.528 289.898" stroke="#A3876E" stroke-width="2" stroke-miterlimit="10" stroke-linecap="round" stroke-linejoin="round"/>
<path d="M364.121 295.178C364.121 293.752 365.283 292.591 366.708 292.591C368.134 292.591 369.295 293.752 369.295 295.178" stroke="#A3876E" stroke-width="2" stroke-miterlimit="10" stroke-linecap="round" stroke-linejoin="round"/>
<path d="M364.859 300.458C364.859 299.033 366.021 297.871 367.447 297.871C368.872 297.871 370.034 299.033 370.034 300.458" stroke="#A3876E" stroke-width="2" stroke-miterlimit="10" stroke-linecap="round" stroke-linejoin="round"/>
<path d="M365.625 305.739C365.625 304.313 366.787 303.151 368.212 303.151C369.638 303.151 370.799 304.313 370.799 305.739" stroke="#A3876E" stroke-width="2" stroke-miterlimit="10" stroke-linecap="round" stroke-linejoin="round"/>
<path d="M366.365 311.019C366.365 309.593 367.527 308.432 368.952 308.432C370.378 308.432 371.54 309.593 371.54 311.019" stroke="#A3876E" stroke-width="2" stroke-miterlimit="10" stroke-linecap="round" stroke-linejoin="round"/>
<path d="M367.131 316.297C367.131 314.872 368.292 313.71 369.718 313.71C371.144 313.71 372.305 314.872 372.305 316.297" stroke="#A3876E" stroke-width="2" stroke-miterlimit="10" stroke-linecap="round" stroke-linejoin="round"/>
<path d="M367.871 321.577C367.871 320.152 369.033 318.99 370.458 318.99C371.884 318.99 373.045 320.152 373.045 321.577" stroke="#A3876E" stroke-width="2" stroke-miterlimit="10" stroke-linecap="round" stroke-linejoin="round"/>
<path d="M368.635 326.858C368.635 325.432 369.796 324.271 371.222 324.271C372.647 324.271 373.809 325.432 373.809 326.858" stroke="#A3876E" stroke-width="2" stroke-miterlimit="10" stroke-linecap="round" stroke-linejoin="round"/>
<path d="M369.371 332.137C369.371 330.711 370.533 329.55 371.958 329.55C373.384 329.55 374.545 330.711 374.545 332.137" stroke="#A3876E" stroke-width="2" stroke-miterlimit="10" stroke-linecap="round" stroke-linejoin="round"/>
<path d="M317.631 249.981V239.21" stroke="#A3876E" stroke-width="2" stroke-miterlimit="10" stroke-linecap="round" stroke-linejoin="round"/>
<path d="M360.002 250.351L358.471 239.263" stroke="#A3876E" stroke-width="2" stroke-miterlimit="10" stroke-linecap="round" stroke-linejoin="round"/>
<path d="M276.051 250.352L277.556 239.237" stroke="#A3876E" stroke-width="2" stroke-miterlimit="10" stroke-linecap="round" stroke-linejoin="round"/>
<path d="M463.372 253.94C471.513 257.386 489.504 256.68 500.277 260.995C510.996 265.31 519.706 275.323 529.448 278.959C540.33 283.03 551.456 281.863 559.135 274.075C565.811 267.318 561.768 259.584 553.627 256.626C541.28 252.149 524.781 254.265 511.674 249.788C499.029 245.473 493.276 237.305 485.678 234.537C479.816 232.421 472.517 237.034 466.872 241.756C461.228 246.477 456.778 251.145 463.372 253.94Z" stroke="#A3876E" stroke-width="2" stroke-miterlimit="10" stroke-linecap="round" stroke-linejoin="round"/>
<path d="M460.442 248.812C459.574 250.765 458.516 253.153 458.217 254.103C457.566 256.247 458.326 258.336 461.419 259.639C469.859 263.194 488.366 262.597 499.518 267.047C509.857 271.172 519.436 281.294 529.965 285.093C540.304 288.81 552.787 287.508 560.765 279.503C563.343 276.925 564.374 274.211 564.238 271.66C564.157 270.059 562.936 266.152 562.04 264.089" stroke="#A3876E" stroke-width="2" stroke-miterlimit="10" stroke-linecap="round" stroke-linejoin="round"/>
<path d="M458 255.731V294.536V300.072C458 301.727 458.977 303.247 461.419 304.251C469.858 307.806 488.365 307.209 499.518 311.659C509.857 315.784 519.436 325.906 529.965 329.678C540.304 333.395 552.787 332.093 560.765 324.087C563.343 321.509 564.238 318.877 564.238 316.245V314.318V272.04" stroke="#A3876E" stroke-width="2" stroke-miterlimit="10" stroke-linecap="round" stroke-linejoin="round"/>
<path d="M458 267.969C458 269.597 459.004 271.089 461.419 272.121C469.858 275.675 488.365 275.078 499.518 279.529C509.857 283.653 519.436 293.775 529.965 297.574C540.304 301.292 552.787 299.989 560.765 291.984C563.343 289.406 564.374 286.693 564.238 284.142" stroke="#A3876E" stroke-width="2" stroke-miterlimit="10" stroke-linecap="round" stroke-linejoin="round"/>
<path d="M458 287.372C458 289 459.004 290.493 461.419 291.524C469.858 295.079 488.365 294.482 499.518 298.932C509.857 303.057 519.436 313.179 529.965 316.978C540.304 320.695 552.787 319.393 560.765 311.388C563.343 308.81 564.374 306.096 564.238 303.545" stroke="#A3876E" stroke-width="2" stroke-miterlimit="10" stroke-linecap="round" stroke-linejoin="round"/>
<path d="M548.119 267.291C548.119 269.842 545.324 271.904 541.878 271.904C538.432 271.904 535.637 269.842 535.637 267.291C535.637 264.74 538.432 262.678 541.878 262.678C545.324 262.678 548.119 264.74 548.119 267.291Z" stroke="#A3876E" stroke-width="2" stroke-miterlimit="10" stroke-linecap="round" stroke-linejoin="round"/>
<path d="M690.926 270.029C683.479 270.641 680.554 271.944 677.229 273.7C673.878 275.482 671.723 275.588 668.665 276.705C665.154 277.982 663 281.439 661.696 285.429C660.632 288.674 661.005 292.823 661.696 294.738C662.228 296.227 661.936 297.265 661.271 297.983C660.154 299.206 659.436 300.589 659.436 300.589" stroke="#A3876E" stroke-width="2" stroke-miterlimit="10" stroke-linecap="round" stroke-linejoin="round"/>
<path d="M746.198 307.93H661.486" stroke="#A3876E" stroke-width="2" stroke-miterlimit="10" stroke-linecap="round" stroke-linejoin="round"/>
<path d="M689.943 261.785C690.103 264.365 690.263 265.987 690.502 267.769C690.794 269.791 691.938 272.371 693.321 273.966C694.704 275.562 697.231 278.302 698.587 280.004C699.944 281.68 702.231 282.93 704.705 282.85" stroke="#A3876E" stroke-width="2" stroke-miterlimit="10" stroke-linecap="round" stroke-linejoin="round"/>
<path d="M719.599 261.785C719.2 264.977 719.2 265.828 718.908 267.769C718.615 269.791 717.471 272.371 716.088 273.966C714.732 275.562 712.178 278.302 710.822 280.004C709.466 281.68 707.099 282.93 704.625 282.85" stroke="#A3876E" stroke-width="2" stroke-miterlimit="10" stroke-linecap="round" stroke-linejoin="round"/>
<path d="M694.012 261.625C696.512 261.385 699.757 261.917 702.204 263.087" stroke="#A3876E" stroke-width="2" stroke-miterlimit="10" stroke-linecap="round" stroke-linejoin="round"/>
<path d="M695.848 264.763C696.646 265.401 698.428 265.88 699.997 265.428" stroke="#A3876E" stroke-width="2" stroke-miterlimit="10" stroke-linecap="round" stroke-linejoin="round"/>
<path d="M715.477 261.625C712.977 261.385 709.732 261.917 707.285 263.087" stroke="#A3876E" stroke-width="2" stroke-miterlimit="10" stroke-linecap="round" stroke-linejoin="round"/>
<path d="M713.639 264.763C712.841 265.401 711.059 265.88 709.49 265.428" stroke="#A3876E" stroke-width="2" stroke-miterlimit="10" stroke-linecap="round" stroke-linejoin="round"/>
<path d="M708.189 271.386C708.189 272.21 708.189 272.742 707.338 273.513C706.434 274.311 705.582 274.684 704.572 274.684H704.625C703.614 274.684 702.763 274.311 701.859 273.513C701.008 272.742 701.034 272.184 701.008 271.386" stroke="#A3876E" stroke-width="2" stroke-miterlimit="10" stroke-linecap="round" stroke-linejoin="round"/>
<path d="M704.944 256.864C722.525 256.864 718.349 262.582 720.743 262.582C722.073 258.938 723.35 250.321 721.222 243.033C719.227 236.224 714.174 230.639 704.705 230.479" stroke="#A3876E" stroke-width="2" stroke-miterlimit="10" stroke-linecap="round" stroke-linejoin="round"/>
<path d="M704.519 256.864C687.338 257.05 691.194 262.582 688.8 262.582C687.444 258.912 685.875 250.215 688.136 242.847C690.183 236.145 695.556 230.533 704.785 230.453" stroke="#A3876E" stroke-width="2" stroke-miterlimit="10" stroke-linecap="round" stroke-linejoin="round"/>
<path d="M671.381 298.249C672.711 298.861 673.588 301.361 674.041 303.223C674.493 305.084 675.37 307.558 675.37 307.558" stroke="#A3876E" stroke-width="2" stroke-miterlimit="10" stroke-linecap="round" stroke-linejoin="round"/>
<path d="M737.339 298.249C736.009 298.861 735.132 301.361 734.679 303.223C734.227 305.084 733.35 307.558 733.35 307.558" stroke="#A3876E" stroke-width="2" stroke-miterlimit="10" stroke-linecap="round" stroke-linejoin="round"/>
<path d="M692.123 272.37C691.857 273.78 691.405 275.429 690.873 276.546" stroke="#A3876E" stroke-width="2" stroke-miterlimit="10" stroke-linecap="round" stroke-linejoin="round"/>
<path d="M718.615 270.029C726.062 270.641 728.988 271.944 732.313 273.7C735.664 275.482 737.818 275.588 740.877 276.705C744.388 277.982 746.542 281.439 747.845 285.429C748.909 288.674 748.537 292.823 747.845 294.738C747.313 296.227 747.606 297.265 748.271 297.983C749.388 299.206 750.106 300.589 750.106 300.589" stroke="#A3876E" stroke-width="2" stroke-miterlimit="10" stroke-linecap="round" stroke-linejoin="round"/>
<path d="M717.418 272.37C717.684 273.78 718.136 275.429 718.668 276.546" stroke="#A3876E" stroke-width="2" stroke-miterlimit="10" stroke-linecap="round" stroke-linejoin="round"/>
<path d="M760.664 320.59H646.988" stroke="#A3876E" stroke-width="2" stroke-miterlimit="10" stroke-linecap="round" stroke-linejoin="round"/>
<path d="M765.984 335.219H643" stroke="#A3876E" stroke-width="2" stroke-miterlimit="10" stroke-linecap="round" stroke-linejoin="round"/>
<path d="M649.116 324.74L644.408 335.193" stroke="#A3876E" stroke-width="2" stroke-miterlimit="10" stroke-linecap="round" stroke-linejoin="round"/>
<path d="M654.169 324.74L650.18 335.193" stroke="#A3876E" stroke-width="2" stroke-miterlimit="10" stroke-linecap="round" stroke-linejoin="round"/>
<path d="M659.224 324.74L655.926 334.661" stroke="#A3876E" stroke-width="2" stroke-miterlimit="10" stroke-linecap="round" stroke-linejoin="round"/>
<path d="M664.277 324.74L661.404 334.794" stroke="#A3876E" stroke-width="2" stroke-miterlimit="10" stroke-linecap="round" stroke-linejoin="round"/>
<path d="M669.33 324.74L666.75 334.874" stroke="#A3876E" stroke-width="2" stroke-miterlimit="10" stroke-linecap="round" stroke-linejoin="round"/>
<path d="M674.384 324.74L672.256 334.98" stroke="#A3876E" stroke-width="2" stroke-miterlimit="10" stroke-linecap="round" stroke-linejoin="round"/>
<path d="M679.437 324.74L677.682 335.033" stroke="#A3876E" stroke-width="2" stroke-miterlimit="10" stroke-linecap="round" stroke-linejoin="round"/>
<path d="M684.491 324.74L683.135 335.086" stroke="#A3876E" stroke-width="2" stroke-miterlimit="10" stroke-linecap="round" stroke-linejoin="round"/>
<path d="M689.543 324.74L688.586 335.14" stroke="#A3876E" stroke-width="2" stroke-miterlimit="10" stroke-linecap="round" stroke-linejoin="round"/>
<path d="M694.598 324.74L694.119 335.166" stroke="#A3876E" stroke-width="2" stroke-miterlimit="10" stroke-linecap="round" stroke-linejoin="round"/>
<path d="M699.65 324.74L699.438 335.193" stroke="#A3876E" stroke-width="2" stroke-miterlimit="10" stroke-linecap="round" stroke-linejoin="round"/>
<path d="M760.371 324.74L765.079 335.193" stroke="#A3876E" stroke-width="2" stroke-miterlimit="10" stroke-linecap="round" stroke-linejoin="round"/>
<path d="M755.318 324.74L759.308 335.193" stroke="#A3876E" stroke-width="2" stroke-miterlimit="10" stroke-linecap="round" stroke-linejoin="round"/>
<path d="M750.266 324.74L753.564 334.661" stroke="#A3876E" stroke-width="2" stroke-miterlimit="10" stroke-linecap="round" stroke-linejoin="round"/>
<path d="M745.213 324.74L748.112 334.794" stroke="#A3876E" stroke-width="2" stroke-miterlimit="10" stroke-linecap="round" stroke-linejoin="round"/>
<path d="M740.158 324.74L742.738 334.874" stroke="#A3876E" stroke-width="2" stroke-miterlimit="10" stroke-linecap="round" stroke-linejoin="round"/>
<path d="M735.105 324.74L737.233 334.98" stroke="#A3876E" stroke-width="2" stroke-miterlimit="10" stroke-linecap="round" stroke-linejoin="round"/>
<path d="M730.055 324.74L731.837 335.033" stroke="#A3876E" stroke-width="2" stroke-miterlimit="10" stroke-linecap="round" stroke-linejoin="round"/>
<path d="M724.998 324.74L726.381 335.086" stroke="#A3876E" stroke-width="2" stroke-miterlimit="10" stroke-linecap="round" stroke-linejoin="round"/>
<path d="M719.947 324.74L720.905 335.14" stroke="#A3876E" stroke-width="2" stroke-miterlimit="10" stroke-linecap="round" stroke-linejoin="round"/>
<path d="M714.893 324.74L715.371 335.166" stroke="#A3876E" stroke-width="2" stroke-miterlimit="10" stroke-linecap="round" stroke-linejoin="round"/>
<path d="M709.836 324.74L710.049 335.193" stroke="#A3876E" stroke-width="2" stroke-miterlimit="10" stroke-linecap="round" stroke-linejoin="round"/>
<path d="M704.705 324.74V335.193" stroke="#A3876E" stroke-width="2" stroke-miterlimit="10" stroke-linecap="round" stroke-linejoin="round"/>
<path d="M706.833 298.914C706.833 300.483 705.849 301.76 704.626 301.76C703.402 301.76 702.418 300.483 702.418 298.914C702.418 297.345 704.626 288.887 704.626 288.887C704.626 288.887 706.833 297.345 706.833 298.914Z" stroke="#A3876E" stroke-width="2" stroke-miterlimit="10" stroke-linecap="round" stroke-linejoin="round"/>
<path d="M667.069 307.532C667.069 307.532 666.723 306.867 666.138 305.085C665.553 303.303 664.729 302.292 663.133 302.026C661.537 301.76 659.622 301.547 657.681 300.829C654.888 299.819 651.749 299.367 648.451 301.627C645.685 303.542 644.382 307.08 644.409 308.276C644.462 310.032 646.004 313.144 646.935 315.644C647.866 318.117 649.462 317.506 650.845 316.787C652.042 320.697 654.462 319.846 655.154 319.66C655.473 321.203 659.622 320.724 659.25 318.915C662.308 318.702 661.936 314.979 661.697 311.814C661.564 309.952 661.324 307.931 661.324 307.931C661.191 306.654 661.537 305.723 662.255 305.457" stroke="#A3876E" stroke-width="2" stroke-miterlimit="10" stroke-linecap="round" stroke-linejoin="round"/>
<path d="M650.844 316.788L649.754 312.187" stroke="#A3876E" stroke-width="2" stroke-miterlimit="10" stroke-linecap="round" stroke-linejoin="round"/>
<path d="M740.982 307.532C740.982 307.532 741.328 306.867 741.913 305.085C742.498 303.303 743.323 302.292 744.919 302.026C746.515 301.76 748.43 301.547 750.371 300.829C753.164 299.819 756.302 299.367 759.6 301.627C762.366 303.542 763.67 307.08 763.643 308.276C763.59 310.032 762.047 313.144 761.116 315.644C760.185 318.117 758.59 317.506 757.207 316.787C756.01 320.697 753.589 319.846 752.898 319.66C752.579 321.203 748.43 320.724 748.802 318.915C745.743 318.702 746.116 314.979 746.355 311.814C746.488 309.952 746.727 307.931 746.727 307.931C746.86 306.521 746.701 306.229 746.142 305.617" stroke="#A3876E" stroke-width="2" stroke-miterlimit="10" stroke-linecap="round" stroke-linejoin="round"/>
<path d="M757.205 316.788L758.296 312.187" stroke="#A3876E" stroke-width="2" stroke-miterlimit="10" stroke-linecap="round" stroke-linejoin="round"/>
<path d="M702.789 277.663C703.853 277.982 705.05 278.062 706.566 277.663" stroke="#A3876E" stroke-width="2" stroke-miterlimit="10" stroke-linecap="round" stroke-linejoin="round"/>
<path d="M165.928 480.02C166.105 475.327 180.01 475.453 179.808 480.576C179.631 485.169 179.354 491.932 179.152 497.105C178.95 502.278 165.095 501.446 165.297 496.373C165.499 491.301 165.802 483.553 165.928 480.02Z" stroke="#A3876E" stroke-width="2" stroke-miterlimit="10" stroke-linecap="round" stroke-linejoin="round"/>
<path d="M167.973 495.591C170.37 494.455 174.332 494.379 176.78 495.944" stroke="#A3876E" stroke-width="2" stroke-miterlimit="10" stroke-linecap="round" stroke-linejoin="round"/>
<path d="M152.829 495.691C151.693 497.685 148.236 498.442 144.123 497.18C141.069 496.246 138.319 493.369 139.227 491.35C140.135 489.332 147.757 476.916 148.362 475.931C149.17 474.644 151.895 474.241 154.646 475.124C157.372 476.007 161.864 478.556 160.476 481.155C159.088 483.754 153.99 493.697 152.829 495.691Z" stroke="#A3876E" stroke-width="2" stroke-miterlimit="10" stroke-linecap="round" stroke-linejoin="round"/>
<path d="M141.928 491.654C143.19 491.427 147.303 491.78 149.953 494.001" stroke="#A3876E" stroke-width="2" stroke-miterlimit="10" stroke-linecap="round" stroke-linejoin="round"/>
<path d="M173.524 436.64L153.588 422.508L91.5332 473.408L111.47 487.541L173.524 436.64Z" stroke="#A3876E" stroke-width="2" stroke-miterlimit="10" stroke-linecap="round" stroke-linejoin="round"/>
<path d="M111.014 499.325L91.0781 485.193L91.5324 473.408L111.469 487.54L111.014 499.325Z" stroke="#A3876E" stroke-width="2" stroke-miterlimit="10" stroke-linecap="round" stroke-linejoin="round"/>
<path d="M173.523 436.641L173.069 448.426L111.014 499.326" stroke="#A3876E" stroke-width="2" stroke-miterlimit="10" stroke-linecap="round" stroke-linejoin="round"/>
<path d="M91.5332 473.408L97.7916 485.168C98.9777 487.566 101.148 489.66 103.747 489.155L111.444 487.515" stroke="#A3876E" stroke-width="2" stroke-miterlimit="10" stroke-linecap="round" stroke-linejoin="round"/>
<path d="M105.791 488.752L111.04 498.872" stroke="#A3876E" stroke-width="2" stroke-miterlimit="10" stroke-linecap="round" stroke-linejoin="round"/>
<path d="M96.4028 482.947L91.0781 485.193" stroke="#A3876E" stroke-width="2" stroke-miterlimit="10" stroke-linecap="round" stroke-linejoin="round"/>
<path d="M155.884 435.353C159.72 437.548 155.329 446.204 139.43 459.655C126.56 470.532 112.958 477.522 108.592 474.367C105.008 471.793 112.705 460.715 125.778 450.091C137.134 440.804 151.367 432.754 155.884 435.353Z" stroke="#A3876E" stroke-width="2" stroke-miterlimit="10" stroke-linecap="round" stroke-linejoin="round"/>
<path d="M138.826 449.61L143.142 446.077" stroke="#A3876E" stroke-width="2" stroke-miterlimit="10" stroke-linecap="round" stroke-linejoin="round"/>
<path d="M122.473 463.036L125.779 460.311" stroke="#A3876E" stroke-width="2" stroke-miterlimit="10" stroke-linecap="round" stroke-linejoin="round"/>
<path d="M125.777 450.242C128.73 452.336 128.175 458.368 125.803 460.336C128.301 458.292 137.083 458.241 139.127 459.68C137.133 458.267 137.007 451.15 139.178 449.358C136.881 451.226 128.957 452.488 125.777 450.242Z" stroke="#A3876E" stroke-width="2" stroke-miterlimit="10" stroke-linecap="round" stroke-linejoin="round"/>
<path d="M123.304 416.122C127.09 409.889 124.364 404.009 119.014 402.495C113.033 400.804 106.901 403.504 102.737 409.687C95.9234 419.832 83.4064 440.172 78.5359 448.121C75.5581 452.992 76.9713 458.973 82.2456 460.714C89.2359 463.036 94.9139 461.244 99.0778 454.834C105.967 444.235 119.166 422.911 123.304 416.122Z" stroke="#A3876E" stroke-width="2" stroke-miterlimit="10" stroke-linecap="round" stroke-linejoin="round"/>
<path d="M100.517 443.302L114.548 420.589L103.545 417.485L88.9082 440.273L100.517 443.302Z" stroke="#A3876E" stroke-width="2" stroke-miterlimit="10" stroke-linecap="round" stroke-linejoin="round"/>
<path d="M364.009 499.524C364.009 501.864 357.5 503.765 349.481 503.765C341.461 503.765 334.953 501.864 334.953 499.524C334.953 497.183 341.461 495.258 349.481 495.258C357.5 495.258 364.009 497.159 364.009 499.524Z" stroke="#A3876E" stroke-width="2" stroke-miterlimit="10" stroke-linecap="round" stroke-linejoin="round"/>
<path d="M356.719 417.769C356.719 418.939 353.477 419.89 349.48 419.89C345.482 419.89 342.24 418.939 342.24 417.769C342.24 416.599 345.482 415.648 349.48 415.648C353.477 415.648 356.719 416.575 356.719 417.769Z" stroke="#A3876E" stroke-width="2" stroke-miterlimit="10" stroke-linecap="round" stroke-linejoin="round"/>
<path d="M358.181 401.559C358.181 402.973 354.281 404.119 349.479 404.119C344.677 404.119 340.777 402.973 340.777 401.559C340.777 400.146 344.677 399 349.479 399C354.281 399 358.181 400.146 358.181 401.559Z" stroke="#A3876E" stroke-width="2" stroke-miterlimit="10" stroke-linecap="round" stroke-linejoin="round"/>
<path d="M357.037 436.538C355.184 437.147 352.478 437.537 349.48 437.537C346.506 437.537 343.825 437.172 341.973 436.562" stroke="#A3876E" stroke-width="2" stroke-miterlimit="10" stroke-linecap="round" stroke-linejoin="round"/>
<path d="M358.158 409.578C358.158 410.992 354.282 412.113 349.48 412.113C344.678 412.113 340.803 410.968 340.803 409.578" stroke="#A3876E" stroke-width="2" stroke-miterlimit="10" stroke-linecap="round" stroke-linejoin="round"/>
<path d="M341.704 410.676C341.704 410.676 339.851 430.03 339.583 432.467C339.315 434.905 338.681 436.709 337.389 438.122C336.097 439.536 333.416 442.022 333.416 449.189C333.416 457.16 333.416 496.233 333.416 496.233C333.416 499.402 334.732 500.401 336.073 501.206" stroke="#A3876E" stroke-width="2" stroke-miterlimit="10" stroke-linecap="round" stroke-linejoin="round"/>
<path d="M357.133 411.09C357.133 411.09 358.912 430.029 359.18 432.467C359.448 434.905 360.082 436.708 361.374 438.122C362.666 439.536 365.347 442.022 365.347 449.189C365.347 457.159 365.347 496.233 365.347 496.233C365.347 499.402 364.031 500.401 362.69 501.206" stroke="#A3876E" stroke-width="2" stroke-miterlimit="10" stroke-linecap="round" stroke-linejoin="round"/>
<path d="M340.803 409.31L340.998 407.409" stroke="#A3876E" stroke-width="2" stroke-miterlimit="10" stroke-linecap="round" stroke-linejoin="round"/>
<path d="M358.156 409.359L357.961 407.458" stroke="#A3876E" stroke-width="2" stroke-miterlimit="10" stroke-linecap="round" stroke-linejoin="round"/>
<path d="M340.778 401.193C340.558 401.925 339.73 404.923 339.486 405.727C339.047 407.238 340.851 407.507 341.631 407.141C342.557 406.702 343.069 407.75 343.922 407.897C344.946 408.067 345.702 407.165 346.335 407.165C346.969 407.165 348.017 408.262 349.382 408.287" stroke="#A3876E" stroke-width="2" stroke-miterlimit="10" stroke-linecap="round" stroke-linejoin="round"/>
<path d="M358.108 401.169C358.328 401.9 359.157 404.898 359.4 405.703C359.839 407.214 358.035 407.482 357.255 407.117C356.329 406.678 355.817 407.726 354.964 407.872C353.94 408.043 353.185 407.141 352.551 407.141C351.917 407.141 350.771 408.287 349.504 408.262" stroke="#A3876E" stroke-width="2" stroke-miterlimit="10" stroke-linecap="round" stroke-linejoin="round"/>
<path d="M365.128 481.071C363.032 486.775 359.229 490.577 354.866 490.577C348.26 490.577 342.922 481.802 342.922 470.98C342.922 460.157 348.284 451.382 354.866 451.382C359.302 451.382 363.178 455.331 365.225 461.229" stroke="#A3876E" stroke-width="2" stroke-miterlimit="10" stroke-linecap="round" stroke-linejoin="round"/>
<path d="M333.391 487.142C333.391 491.31 320.984 494.698 305.628 494.698C290.247 494.698 277.791 491.31 277.791 487.142" stroke="#A3876E" stroke-width="2" stroke-miterlimit="10" stroke-linecap="round" stroke-linejoin="round"/>
<path d="M333.392 460.84C333.392 465.008 320.668 468.469 305.628 468.469C290.564 468.469 278.669 465.106 278.279 460.84" stroke="#A3876E" stroke-width="2" stroke-miterlimit="10" stroke-linecap="round" stroke-linejoin="round"/>
<path d="M333.393 451.675C333.393 455.136 321.01 457.915 305.63 457.915C290.224 457.915 277.769 455.112 277.744 451.65C277.72 447.312 284.301 436.27 305.654 436.27C327.007 436.27 333.369 448.701 333.369 448.701" stroke="#A3876E" stroke-width="2" stroke-miterlimit="10" stroke-linecap="round" stroke-linejoin="round"/>
<path d="M276.353 475.101C272.77 476.88 270.284 478.83 271.186 480.171C272.088 481.511 274.623 481.316 274.623 481.316C274.623 481.316 273.258 485.021 274.988 485.631C277.109 486.386 280.18 482.901 281.35 483.242C282.618 483.632 282.594 487.483 285.348 487.946C288.785 488.556 290.662 484.899 292.368 485.07C294.074 485.241 294.537 489.116 298.194 489.409C302.411 489.726 304.751 485.509 306.506 485.558C308.261 485.606 310.333 489.823 314.062 489.36C317.792 488.897 320.375 484.753 321.96 484.583C323.764 484.388 326.469 487.313 328.907 486.728C331.076 486.216 333.392 482.511 333.392 482.511" stroke="#A3876E" stroke-width="2" stroke-miterlimit="10" stroke-linecap="round" stroke-linejoin="round"/>
<path d="M277.938 452.382C273.843 453.771 271.089 454.649 271.454 456.111C271.796 457.379 275.793 456.989 275.793 456.989C275.793 456.989 272.844 459.475 274.477 460.596C276.305 461.839 280.351 458.086 281.546 458.354C282.813 458.622 282.618 461.498 285.275 462.156C288.639 462.985 290.638 460.548 292.344 460.669C294.05 460.791 294.513 463.57 298.17 463.765C302.387 463.984 304.629 461.352 306.409 461.376C308.164 461.401 310.333 464.058 314.063 463.716C317.792 463.375 320.376 460.426 321.96 460.304C323.764 460.158 326.981 461.644 329.321 460.84C332.003 459.938 333.392 456.891 333.392 456.891" stroke="#A3876E" stroke-width="2" stroke-miterlimit="10" stroke-linecap="round" stroke-linejoin="round"/>
<path d="M278.791 462.229C276.622 463.619 275.793 466.056 275.598 468.835C275.403 471.663 276.037 474.295 276.037 474.295C276.475 477.927 289.37 481.584 305.604 481.584C318.23 481.584 329.004 479.536 333.148 476.66" stroke="#A3876E" stroke-width="2" stroke-miterlimit="10" stroke-linecap="round" stroke-linejoin="round"/>
<path d="M330.76 464.058C329.906 467.203 326.591 473.613 325.958 474.71C325.324 475.807 324.105 476.636 321.96 475.368C319.571 473.979 309.358 468.519 306.214 468.495C303.069 468.47 287.713 473.516 286.543 473.955C285.397 474.393 284.227 474.345 283.13 472.809C281.814 470.956 279.523 467.178 278.377 462.571" stroke="#A3876E" stroke-width="2" stroke-miterlimit="10" stroke-linecap="round" stroke-linejoin="round"/>
<path d="M544.265 458.325C554.179 467.92 552.101 486.175 539.622 499.099C527.145 512.022 508.993 514.72 499.079 505.124C489.165 495.529 491.243 477.274 503.721 464.351C516.199 451.427 534.351 448.729 544.265 458.325Z" stroke="#A3876E" stroke-width="2" stroke-miterlimit="10" stroke-linecap="round" stroke-linejoin="round"/>
<path d="M472.322 459.727C472.075 459.526 471.835 459.313 471.603 459.088C465.901 453.57 467.096 443.071 474.272 435.639C481.449 428.206 491.888 426.655 497.59 432.173C497.852 432.427 498.099 432.691 498.332 432.964" stroke="#A3876E" stroke-width="2" stroke-miterlimit="10" stroke-linecap="round" stroke-linejoin="round"/>
<path d="M545.268 453.231C556.327 463.934 553.831 484.481 539.694 499.122C525.557 513.765 505.131 516.957 494.073 506.253C483.014 495.55 485.51 475.004 499.646 460.362C513.784 445.72 534.209 442.528 545.268 453.231Z" stroke="#A3876E" stroke-width="2" stroke-miterlimit="10" stroke-linecap="round" stroke-linejoin="round"/>
<path d="M545.709 448.01C558.081 459.984 555.388 482.869 539.693 499.123C523.999 515.379 501.246 518.848 488.874 506.874C476.503 494.9 479.197 472.015 494.891 455.761C510.586 439.506 533.338 436.036 545.709 448.01Z" stroke="#A3876E" stroke-width="2" stroke-miterlimit="10" stroke-linecap="round" stroke-linejoin="round"/>
<path d="M476.816 495.442C464.444 483.468 467.138 460.583 482.832 444.329C498.527 428.074 521.279 424.604 533.651 436.578" stroke="#A3876E" stroke-width="2" stroke-miterlimit="10" stroke-linecap="round" stroke-linejoin="round"/>
<path d="M533.65 436.578L546.061 448.278" stroke="#A3876E" stroke-width="2" stroke-miterlimit="10" stroke-linecap="round" stroke-linejoin="round"/>
<path d="M476.754 495.406L489.165 507.106" stroke="#A3876E" stroke-width="2" stroke-miterlimit="10" stroke-linecap="round" stroke-linejoin="round"/>
<path d="M518.062 408.588C518.062 412.915 514.558 416.423 510.236 416.423C505.914 416.423 502.41 412.915 502.41 408.588C502.41 404.261 510.236 389 510.236 389C510.236 389 518.062 404.261 518.062 408.588Z" stroke="#A3876E" stroke-width="2" stroke-miterlimit="10" stroke-linecap="round" stroke-linejoin="round"/>
<path d="M543.134 412.258C543.134 415.978 540.123 418.993 536.408 418.993C532.693 418.993 529.682 415.978 529.682 412.258C529.682 408.539 536.408 395.423 536.408 395.423C536.408 395.423 543.134 408.539 543.134 412.258Z" stroke="#A3876E" stroke-width="2" stroke-miterlimit="10" stroke-linecap="round" stroke-linejoin="round"/>
<path d="M490.984 412.258C490.984 415.978 487.972 418.993 484.258 418.993C480.543 418.993 477.531 415.978 477.531 412.258C477.531 408.539 484.258 395.423 484.258 395.423C484.258 395.423 490.984 408.539 490.984 412.258Z" stroke="#A3876E" stroke-width="2" stroke-miterlimit="10" stroke-linecap="round" stroke-linejoin="round"/>
<path d="M486.07 468.026L492.052 470.371" stroke="#A3876E" stroke-width="2" stroke-miterlimit="10" stroke-linecap="round" stroke-linejoin="round"/>
<path d="M488.972 477.532L482.605 476.745" stroke="#A3876E" stroke-width="2" stroke-miterlimit="10" stroke-linecap="round" stroke-linejoin="round"/>
<path d="M535.061 441.984L533.217 447.267" stroke="#A3876E" stroke-width="2" stroke-miterlimit="10" stroke-linecap="round" stroke-linejoin="round"/>
<path d="M526.978 441.021L526.016 446.833" stroke="#A3876E" stroke-width="2" stroke-miterlimit="10" stroke-linecap="round" stroke-linejoin="round"/>
<path d="M742.358 498.848C740.943 501.456 732.941 503.454 723.282 503.454C713.49 503.454 705.401 501.401 704.15 498.74" stroke="#A3876E" stroke-width="2" stroke-miterlimit="10" stroke-linecap="round" stroke-linejoin="round"/>
<path d="M707.1 495.06C710.542 493.572 716.504 492.588 723.282 492.588C730.269 492.588 736.389 493.633 739.776 495.198" stroke="#A3876E" stroke-width="2" stroke-miterlimit="10" stroke-linecap="round" stroke-linejoin="round"/>
<path d="M702.471 441.853C704.855 439.244 713.269 437.315 723.282 437.315C733.102 437.315 741.383 439.17 743.948 441.703" stroke="#A3876E" stroke-width="2" stroke-miterlimit="10" stroke-linecap="round" stroke-linejoin="round"/>
<path d="M700.837 489.077C697.141 490.33 692.023 491.105 686.368 491.105C675.096 491.105 665.959 488.024 665.959 484.224" stroke="#A3876E" stroke-width="2" stroke-miterlimit="10" stroke-linecap="round" stroke-linejoin="round"/>
<path d="M718.045 416.06C718.498 416.787 718.737 417.542 718.737 418.315C718.737 424.343 704.245 429.23 686.368 429.23C668.492 429.23 654 424.343 654 418.315C654 417.596 654.206 416.893 654.601 416.212" stroke="#A3876E" stroke-width="2" stroke-miterlimit="10" stroke-linecap="round" stroke-linejoin="round"/>
<path d="M713.195 407.396C716.694 409.14 718.737 411.242 718.737 413.506C718.737 419.534 704.245 424.42 686.368 424.42C668.492 424.42 654 419.534 654 413.506C654 411.245 656.038 409.145 659.528 407.403" stroke="#A3876E" stroke-width="2" stroke-miterlimit="10" stroke-linecap="round" stroke-linejoin="round"/>
<path d="M713.045 413.506C713.045 417.654 701.102 421.016 686.368 421.016C671.635 421.016 659.691 417.654 659.691 413.506" stroke="#A3876E" stroke-width="2" stroke-miterlimit="10" stroke-linecap="round" stroke-linejoin="round"/>
<path d="M713.045 406.51C713.045 410.657 701.102 414.02 686.368 414.02C671.635 414.02 659.691 410.657 659.691 406.51C659.691 402.362 671.635 399 686.368 399C701.102 399 713.045 402.362 713.045 406.51Z" stroke="#A3876E" stroke-width="2" stroke-miterlimit="10" stroke-linecap="round" stroke-linejoin="round"/>
<path d="M705.391 406.51C705.391 408.834 696.874 410.717 686.367 410.717C675.861 410.717 667.344 408.834 667.344 406.51C667.344 404.186 675.861 402.303 686.367 402.303C696.874 402.303 705.391 404.186 705.391 406.51Z" stroke="#A3876E" stroke-width="2" stroke-miterlimit="10" stroke-linecap="round" stroke-linejoin="round"/>
<path d="M659.691 406.51V413.506" stroke="#A3876E" stroke-width="2" stroke-miterlimit="10" stroke-linecap="round" stroke-linejoin="round"/>
<path d="M713.045 406.51V413.707" stroke="#A3876E" stroke-width="2" stroke-miterlimit="10" stroke-linecap="round" stroke-linejoin="round"/>
<path d="M657.385 423.179L665.959 484.223" stroke="#A3876E" stroke-width="2" stroke-miterlimit="10" stroke-linecap="round" stroke-linejoin="round"/>
<path d="M715.378 423.179L713.295 438.007" stroke="#A3876E" stroke-width="2" stroke-miterlimit="10" stroke-linecap="round" stroke-linejoin="round"/>
<path d="M671.299 408.982C671.299 408.982 674.207 407.736 674.957 407.397C675.708 407.058 676.85 406.833 677.865 406.969C678.519 407.057 681.712 407.485 683.899 407.778C685.104 407.939 685.565 408.26 684.544 408.724C683.523 409.189 680.601 410.52 680.601 410.52" stroke="#A3876E" stroke-width="2" stroke-miterlimit="10" stroke-linecap="round" stroke-linejoin="round"/>
<path d="M704.123 498.677C698.554 481.22 696.537 474.754 696.537 469.726C696.537 463.495 701.348 459.778 701.348 459.778" stroke="#A3876E" stroke-width="2" stroke-miterlimit="10" stroke-linecap="round" stroke-linejoin="round"/>
<path d="M742.455 498.677C748.025 481.22 750.041 474.754 750.041 469.726C750.041 463.495 745.231 459.778 745.231 459.778" stroke="#A3876E" stroke-width="2" stroke-miterlimit="10" stroke-linecap="round" stroke-linejoin="round"/>
<path d="M702.69 441.627C700.329 444.562 700.279 451.583 702.69 453.842" stroke="#A3876E" stroke-width="2" stroke-miterlimit="10" stroke-linecap="round" stroke-linejoin="round"/>
<path d="M743.977 441.703C746.337 444.62 746.387 451.597 743.977 453.842" stroke="#A3876E" stroke-width="2" stroke-miterlimit="10" stroke-linecap="round" stroke-linejoin="round"/>
<path d="M744.362 453.385C742.278 456.113 733.648 458.158 723.318 458.158C712.95 458.158 704.293 456.098 702.25 453.354" stroke="#A3876E" stroke-width="2" stroke-miterlimit="10" stroke-linecap="round" stroke-linejoin="round"/>
<path d="M737.861 468.755C741.353 467.198 744.089 464.069 745.232 459.778" stroke="#A3876E" stroke-width="2" stroke-miterlimit="10" stroke-linecap="round" stroke-linejoin="round"/>
<path d="M734.172 469.768C734.618 469.715 735.058 469.639 735.491 469.541" stroke="#A3876E" stroke-width="2" stroke-miterlimit="10" stroke-linecap="round" stroke-linejoin="round"/>
<path d="M701.304 451.251C693.877 456.717 690.378 462.328 691.544 463.421C692.71 464.514 701.348 459.777 701.348 459.777C702.244 466.118 708.09 473.624 720.699 464.587C724.211 467.952 728.071 469.604 731.688 469.834" stroke="#A3876E" stroke-width="2" stroke-miterlimit="10" stroke-linecap="round" stroke-linejoin="round"/>
<path d="M745.443 451.376C752.87 456.842 756.2 462.329 755.034 463.422C753.868 464.515 745.23 459.778 745.23 459.778" stroke="#A3876E" stroke-width="2" stroke-miterlimit="10" stroke-linecap="round" stroke-linejoin="round"/>
<path d="M732.605 459.761C733.865 459.761 734.886 458.74 734.886 457.481C734.886 456.221 733.865 455.2 732.605 455.2C731.345 455.2 730.324 456.221 730.324 457.481C730.324 458.74 731.345 459.761 732.605 459.761Z" fill="#09151E" stroke="#A3876E" stroke-width="2" stroke-miterlimit="10" stroke-linecap="round" stroke-linejoin="round"/>
<path d="M733.99 459.29C735.932 463.521 739.048 467.065 738.994 482.879" stroke="#A3876E" stroke-width="2" stroke-miterlimit="10" stroke-linecap="round" stroke-linejoin="round"/>
<path d="M732.807 459.778C734.138 464.661 734.109 467.572 734.172 477.633" stroke="#A3876E" stroke-width="2" stroke-miterlimit="10" stroke-linecap="round" stroke-linejoin="round"/>
<path d="M742.455 446.097C738.91 448.064 731.655 449.413 723.281 449.413C715.128 449.413 708.036 448.135 704.395 446.251" stroke="#A3876E" stroke-width="2" stroke-miterlimit="10" stroke-linecap="round" stroke-linejoin="round"/>
</svg>
