<svg width="832" height="190" viewBox="0 0 832 190" fill="none" xmlns="http://www.w3.org/2000/svg">
<rect width="832" height="190" rx="4" fill="#09151E"/>
<path d="M176.321 106.999C171.521 123.15 160.122 133.974 149.514 131.79C137.899 129.39 131.611 112.351 135.451 93.7043C139.291 75.0575 151.818 61.8823 163.433 64.2821C174.425 66.538 180.664 81.945 178.025 99.4159" stroke="#A3876E" stroke-width="2" stroke-miterlimit="10" stroke-linecap="round" stroke-linejoin="round"/>
<path d="M180.045 103.45C180.435 101.487 179.76 99.6987 178.538 99.4561C177.316 99.2135 176.009 100.608 175.62 102.571C175.23 104.535 175.905 106.323 177.127 106.565C178.349 106.808 179.655 105.413 180.045 103.45Z" stroke="#A3876E" stroke-width="2" stroke-miterlimit="10" stroke-linecap="round" stroke-linejoin="round"/>
<path d="M161.371 102.943C160.171 102.703 159.5 100.927 159.884 99.0073C160.267 97.0635 161.563 95.6955 162.763 95.9355" stroke="#A3876E" stroke-width="2" stroke-miterlimit="10" stroke-linecap="round" stroke-linejoin="round"/>
<path d="M141.547 130.158C129.932 127.854 123.5 110.839 127.196 92.1681C130.892 73.4973 143.323 60.2262 154.962 62.554" stroke="#A3876E" stroke-width="2" stroke-miterlimit="10" stroke-linecap="round" stroke-linejoin="round"/>
<path d="M141.547 130.158L149.322 131.742" stroke="#A3876E" stroke-width="2" stroke-miterlimit="10" stroke-linecap="round" stroke-linejoin="round"/>
<path d="M154.961 62.5547L163.168 64.2346" stroke="#A3876E" stroke-width="2" stroke-miterlimit="10" stroke-linecap="round" stroke-linejoin="round"/>
<path d="M129.742 120.392V136.639" stroke="#A3876E" stroke-width="2" stroke-miterlimit="10" stroke-linecap="round" stroke-linejoin="round"/>
<path d="M114.742 121.135V146.909" stroke="#A3876E" stroke-width="2" stroke-miterlimit="10" stroke-linecap="round" stroke-linejoin="round"/>
<path d="M129.742 42.6602V82.8096" stroke="#A3876E" stroke-width="2" stroke-miterlimit="10" stroke-linecap="round" stroke-linejoin="round"/>
<path d="M126.453 95.2401L75 83.6729" stroke="#A3876E" stroke-width="2" stroke-miterlimit="10" stroke-linecap="round" stroke-linejoin="round"/>
<path d="M114.692 121.134L100.797 117.942" stroke="#A3876E" stroke-width="2" stroke-miterlimit="10" stroke-linecap="round" stroke-linejoin="round"/>
<path d="M127.797 88.2335L76.0078 76.6182" stroke="#A3876E" stroke-width="2" stroke-miterlimit="10" stroke-linecap="round" stroke-linejoin="round"/>
<path d="M177.208 106.593L161.201 102.873" stroke="#A3876E" stroke-width="2" stroke-miterlimit="10" stroke-linecap="round" stroke-linejoin="round"/>
<path d="M178.48 99.4405L162.689 95.8887" stroke="#A3876E" stroke-width="2" stroke-miterlimit="10" stroke-linecap="round" stroke-linejoin="round"/>
<path d="M111.885 57.083V84.2253" stroke="#A3876E" stroke-width="2" stroke-miterlimit="10" stroke-linecap="round" stroke-linejoin="round"/>
<path d="M120.355 59.0498V86.1921" stroke="#A3876E" stroke-width="2" stroke-miterlimit="10" stroke-linecap="round" stroke-linejoin="round"/>
<path d="M111.885 57.1309L120.38 59.0748" stroke="#A3876E" stroke-width="2" stroke-miterlimit="10" stroke-linecap="round" stroke-linejoin="round"/>
<path d="M116.59 53.9395L125.133 55.8834" stroke="#A3876E" stroke-width="2" stroke-miterlimit="10" stroke-linecap="round" stroke-linejoin="round"/>
<path d="M120.477 94.498V112.305" stroke="#A3876E" stroke-width="2" stroke-miterlimit="10" stroke-linecap="round" stroke-linejoin="round"/>
<path d="M113.902 117.102L120.478 112.639" stroke="#A3876E" stroke-width="2" stroke-miterlimit="10" stroke-linecap="round" stroke-linejoin="round"/>
<path d="M108.311 115.855L113.83 117.103" stroke="#A3876E" stroke-width="2" stroke-miterlimit="10" stroke-linecap="round" stroke-linejoin="round"/>
<path d="M108.311 115.855V104.96" stroke="#A3876E" stroke-width="2" stroke-miterlimit="10" stroke-linecap="round" stroke-linejoin="round"/>
<path d="M105.645 104L113.924 106.232" stroke="#A3876E" stroke-width="2" stroke-miterlimit="10" stroke-linecap="round" stroke-linejoin="round"/>
<path d="M113.975 106.256V117.007" stroke="#A3876E" stroke-width="2" stroke-miterlimit="10" stroke-linecap="round" stroke-linejoin="round"/>
<path d="M105.6 104L86.7852 117.031" stroke="#A3876E" stroke-width="2" stroke-miterlimit="10" stroke-linecap="round" stroke-linejoin="round"/>
<path d="M106.679 90.8486L86.7363 104.792" stroke="#A3876E" stroke-width="2" stroke-miterlimit="10" stroke-linecap="round" stroke-linejoin="round"/>
<path d="M86.7351 102.584L78.4316 100.784V115.303L86.7351 117.103V102.584Z" stroke="#A3876E" stroke-width="2" stroke-miterlimit="10" stroke-linecap="round" stroke-linejoin="round"/>
<path d="M86.7363 110.288L112.967 92.5293" stroke="#A3876E" stroke-width="2" stroke-miterlimit="10" stroke-linecap="round" stroke-linejoin="round"/>
<path d="M114.691 121.135L122.611 115.688" stroke="#A3876E" stroke-width="2" stroke-miterlimit="10" stroke-linecap="round" stroke-linejoin="round"/>
<path d="M120.379 59.123L129.738 52.8594" stroke="#A3876E" stroke-width="2" stroke-miterlimit="10" stroke-linecap="round" stroke-linejoin="round"/>
<path d="M111.957 57.0353L116.589 53.9395" stroke="#A3876E" stroke-width="2" stroke-miterlimit="10" stroke-linecap="round" stroke-linejoin="round"/>
<path d="M100.199 117.464L107.351 112.688" stroke="#A3876E" stroke-width="2" stroke-miterlimit="10" stroke-linecap="round" stroke-linejoin="round"/>
<path d="M100.199 117.536V143.671" stroke="#A3876E" stroke-width="2" stroke-miterlimit="10" stroke-linecap="round" stroke-linejoin="round"/>
<path d="M116.59 53.9381V43.8828" stroke="#A3876E" stroke-width="2" stroke-miterlimit="10" stroke-linecap="round" stroke-linejoin="round"/>
<path d="M125.158 55.859V45.8037" stroke="#A3876E" stroke-width="2" stroke-miterlimit="10" stroke-linecap="round" stroke-linejoin="round"/>
<path d="M152.851 117.224C146.251 115.928 142.627 106.28 144.715 95.6968C146.803 85.1135 153.859 77.602 160.458 78.9219" stroke="#A3876E" stroke-width="2" stroke-miterlimit="10" stroke-linecap="round" stroke-linejoin="round"/>
<path d="M173.226 105.753C170.37 114.224 164.274 119.816 158.515 118.664C151.915 117.368 148.292 107.721 150.379 97.1373C152.491 86.5539 159.523 79.0424 166.122 80.3624C171.978 81.5383 175.53 89.2898 174.738 98.4572" stroke="#A3876E" stroke-width="2" stroke-miterlimit="10" stroke-linecap="round" stroke-linejoin="round"/>
<path d="M160.193 78.874L165.689 80.1699" stroke="#A3876E" stroke-width="2" stroke-miterlimit="10" stroke-linecap="round" stroke-linejoin="round"/>
<path d="M152.586 117.176L157.386 118.304" stroke="#A3876E" stroke-width="2" stroke-miterlimit="10" stroke-linecap="round" stroke-linejoin="round"/>
<path d="M338.496 86.8486L292.936 130.018" stroke="#A3876E" stroke-width="2" stroke-miterlimit="10" stroke-linecap="round" stroke-linejoin="round"/>
<path d="M292.959 142.36L313.211 123.873C319.945 118.344 325.421 120.862 331.243 124.169C332.279 124.762 333.981 125.552 334.4 125.724" stroke="#A3876E" stroke-width="2" stroke-miterlimit="10" stroke-linecap="round" stroke-linejoin="round"/>
<path d="M264 127.624L292.959 142.36L292.935 130.019L264 115.283V127.624Z" stroke="#A3876E" stroke-width="2" stroke-miterlimit="10" stroke-linecap="round" stroke-linejoin="round"/>
<path d="M300.902 86.726L321.253 97.142L332.551 86.6026L312.2 76.1865L300.902 86.726Z" stroke="#A3876E" stroke-width="2" stroke-miterlimit="10" stroke-linecap="round" stroke-linejoin="round"/>
<path d="M288.445 140.114L288.42 134.709L268.514 124.589V129.97" stroke="#A3876E" stroke-width="2" stroke-miterlimit="10" stroke-linecap="round" stroke-linejoin="round"/>
<path d="M356.403 83.2943L327.369 68.3613" stroke="#A3876E" stroke-width="2" stroke-miterlimit="10" stroke-linecap="round" stroke-linejoin="round"/>
<path d="M336.449 88.7993C342.369 82.6533 349.843 80.0617 355.566 82.9248C363.435 86.874 365.039 99.6349 359.118 111.408C353.223 123.207 342.049 129.55 334.18 125.601" stroke="#A3876E" stroke-width="2" stroke-miterlimit="10" stroke-linecap="round" stroke-linejoin="round"/>
<path d="M310.006 72.1133L264.445 115.283" stroke="#A3876E" stroke-width="2" stroke-miterlimit="10" stroke-linecap="round" stroke-linejoin="round"/>
<path d="M307.934 74.063C313.854 67.917 321.328 65.3253 327.051 68.1885" stroke="#A3876E" stroke-width="2" stroke-miterlimit="10" stroke-linecap="round" stroke-linejoin="round"/>
<path d="M308.129 79.9385L328.479 90.3545" stroke="#A3876E" stroke-width="2" stroke-miterlimit="10" stroke-linecap="round" stroke-linejoin="round"/>
<path d="M337.484 73.57C340.025 71.3486 350.459 61.8458 354.751 64.7337C359.044 67.6215 348.141 79.0495 348.141 79.0495" stroke="#A3876E" stroke-width="2" stroke-miterlimit="10" stroke-linecap="round" stroke-linejoin="round"/>
<path d="M346.489 66.4367C345.354 65.0792 344.713 63.4995 344.713 61.8211C344.713 59.9452 345.527 58.1927 346.908 56.7611C349.227 54.3422 351.743 52.2195 357.047 47.209" stroke="#A3876E" stroke-width="2" stroke-miterlimit="10" stroke-linecap="round" stroke-linejoin="round"/>
<path d="M373.177 62.2891C370.168 65.2757 369.921 65.325 368.268 66.8306C365.777 69.1014 362.028 70.9033 357.563 70.9033C355.343 70.9033 353.246 70.5084 351.445 69.8172" stroke="#A3876E" stroke-width="2" stroke-miterlimit="10" stroke-linecap="round" stroke-linejoin="round"/>
<path d="M547.802 85.3823C553.201 76.1791 552.63 68.7118 548.183 67.4515C543.593 66.1435 537.6 70.9473 532.464 75.5608C517.696 88.9019 506.947 103.979 488.802 108.521C468.35 113.634 461.715 91.4464 468.659 75.8699C479.266 52.0889 502.167 47.1425 522.832 47.6181C538.409 47.9748 552.63 52.6597 556.554 64.4313C559.146 72.2076 556.958 81.7438 552.796 87.8555" stroke="#A3876E" stroke-width="2" stroke-miterlimit="10" stroke-linecap="round" stroke-linejoin="round"/>
<path d="M556.672 102.219L526.541 141.981L500.025 128.901L530.156 89.1396L556.672 102.219Z" stroke="#A3876E" stroke-width="2" stroke-miterlimit="10" stroke-linecap="round" stroke-linejoin="round"/>
<path d="M548.303 107.238L525.449 137.249L505.568 127.428L528.422 97.416L548.303 107.238Z" stroke="#A3876E" stroke-width="2" stroke-miterlimit="10" stroke-linecap="round" stroke-linejoin="round"/>
<path d="M554.319 88.5937C552.416 91.0194 549.896 92.3749 547.446 91.2096C544.997 90.0444 544.688 87.2382 546.519 84.7412L554.319 88.5937Z" fill="#09151E" stroke="#A3876E" stroke-width="2" stroke-miterlimit="10" stroke-linecap="round" stroke-linejoin="round"/>
<path d="M545.828 89.6876L539.717 96.6792L539.669 96.7505C539.312 97.2499 539.17 97.8682 539.312 98.439C539.622 99.6518 541.048 100.341 542.499 99.9847C543.117 99.8183 543.641 99.5091 544.021 99.0811L544.116 98.9622L549.11 91.4474L548.991 91.6376C549.277 91.2333 549.396 90.7815 549.277 90.3059C549.039 89.3784 547.945 88.8315 546.827 89.1168C546.28 89.2595 545.828 89.5449 545.543 89.9254L545.828 89.6876Z" fill="#09151E" stroke="#A3876E" stroke-width="2" stroke-miterlimit="10" stroke-linecap="round" stroke-linejoin="round"/>
<path d="M551.369 76.5362C554.318 62.3628 544.283 52.4937 513.795 54.5388C479.67 56.8218 460.764 89.0926 469.563 101.958L469.111 101.197C477.744 118.224 506.186 90.8999 522.832 74.61C537.933 59.8182 547.731 64.6933 551.013 70.0202" stroke="#A3876E" stroke-width="2" stroke-miterlimit="10" stroke-linecap="round" stroke-linejoin="round"/>
<path d="M746.214 105.993C751.594 110.297 750.775 120.262 744.37 128.23C737.965 136.197 728.435 139.194 723.055 134.89C717.675 130.587 718.495 120.621 724.9 112.654C731.304 104.661 740.834 101.689 746.214 105.993Z" stroke="#A3876E" stroke-width="2" stroke-miterlimit="10" stroke-linecap="round" stroke-linejoin="round"/>
<path d="M658.241 74.3786C656.653 69.4086 658.343 62.466 663.057 56.5993C668.796 49.4261 677.096 46.2751 682.63 48.8625" stroke="#A3876E" stroke-width="2" stroke-miterlimit="10" stroke-linecap="round" stroke-linejoin="round"/>
<path d="M695.697 95.4113C686.346 103.609 674.946 105.992 668.054 100.484C659.831 93.8998 661.214 78.5287 671.154 66.1549C681.069 53.7555 695.774 49.0674 703.972 55.6257C711.145 61.3643 710.991 73.8405 704.228 85.1639" stroke="#A3876E" stroke-width="2" stroke-miterlimit="10" stroke-linecap="round" stroke-linejoin="round"/>
<path d="M686.885 88.0844C683.631 89.7496 680.275 89.8521 678.021 88.0588C674.408 85.1639 675.023 78.4006 679.378 72.9439C683.759 67.4871 690.215 65.412 693.827 68.3069C696.261 70.2539 696.799 73.9942 695.518 77.8883" stroke="#A3876E" stroke-width="2" stroke-miterlimit="10" stroke-linecap="round" stroke-linejoin="round"/>
<path d="M703.947 133.25C695.723 126.666 697.107 111.295 707.047 98.9215C716.961 86.5221 731.666 81.834 739.864 88.3923" stroke="#A3876E" stroke-width="2" stroke-miterlimit="10" stroke-linecap="round" stroke-linejoin="round"/>
<path d="M717.088 129.844C711.709 125.54 712.528 115.574 718.933 107.607C725.312 99.6137 734.868 96.642 740.248 100.946" stroke="#A3876E" stroke-width="2" stroke-miterlimit="10" stroke-linecap="round" stroke-linejoin="round"/>
<path d="M739.836 88.3916L746.241 93.669" stroke="#A3876E" stroke-width="2" stroke-miterlimit="10" stroke-linecap="round" stroke-linejoin="round"/>
<path d="M703.945 133.249L709.325 137.681" stroke="#A3876E" stroke-width="2" stroke-miterlimit="10" stroke-linecap="round" stroke-linejoin="round"/>
<path d="M662.365 95.7953C654.141 89.2113 655.525 73.8402 665.465 61.4664C675.379 49.0671 690.084 44.3789 698.282 50.9372" stroke="#A3876E" stroke-width="2" stroke-miterlimit="10" stroke-linecap="round" stroke-linejoin="round"/>
<path d="M698.281 50.9385L704.66 56.2159" stroke="#A3876E" stroke-width="2" stroke-miterlimit="10" stroke-linecap="round" stroke-linejoin="round"/>
<path d="M662.365 95.7959L667.771 100.228" stroke="#A3876E" stroke-width="2" stroke-miterlimit="10" stroke-linecap="round" stroke-linejoin="round"/>
<path d="M740.248 100.92L746.217 105.992" stroke="#A3876E" stroke-width="2" stroke-miterlimit="10" stroke-linecap="round" stroke-linejoin="round"/>
<path d="M717.088 129.843L722.647 134.505" stroke="#A3876E" stroke-width="2" stroke-miterlimit="10" stroke-linecap="round" stroke-linejoin="round"/>
<path d="M742.682 118.391C744.578 119.902 744.27 123.387 742.042 126.179C739.813 128.971 736.457 130.022 734.587 128.51C732.691 126.999 732.998 123.515 735.227 120.722C737.456 117.904 740.786 116.879 742.682 118.391Z" stroke="#A3876E" stroke-width="2" stroke-miterlimit="10" stroke-linecap="round" stroke-linejoin="round"/>
<path d="M731.409 125.872C729.513 124.361 729.821 120.877 732.049 118.084C734.278 115.292 737.634 114.242 739.504 115.753" stroke="#A3876E" stroke-width="2" stroke-miterlimit="10" stroke-linecap="round" stroke-linejoin="round"/>
<path d="M682.731 84.1136C680.835 82.6021 681.143 79.118 683.372 76.3255C685.601 73.5331 688.957 72.4828 690.827 73.9943" stroke="#A3876E" stroke-width="2" stroke-miterlimit="10" stroke-linecap="round" stroke-linejoin="round"/>
<path d="M739.529 115.752L742.68 118.391" stroke="#A3876E" stroke-width="2" stroke-miterlimit="10" stroke-linecap="round" stroke-linejoin="round"/>
<path d="M731.406 125.872L734.404 128.383" stroke="#A3876E" stroke-width="2" stroke-miterlimit="10" stroke-linecap="round" stroke-linejoin="round"/>
<path d="M690.828 73.9951L712.911 92.876" stroke="#A3876E" stroke-width="2" stroke-miterlimit="10" stroke-linecap="round" stroke-linejoin="round"/>
<path d="M682.732 84.1133L704.354 102.635" stroke="#A3876E" stroke-width="2" stroke-miterlimit="10" stroke-linecap="round" stroke-linejoin="round"/>
<path d="M732.766 136.631C724.542 141.832 715.627 142.754 709.888 138.143C701.665 131.559 703.048 116.188 712.988 103.814C722.903 91.4147 737.608 86.7265 745.806 93.2849C750.98 97.4351 752.364 105.095 750.161 113.293" stroke="#A3876E" stroke-width="2" stroke-miterlimit="10" stroke-linecap="round" stroke-linejoin="round"/>
<path d="M688.188 118.366L680.221 111.116" stroke="#A3876E" stroke-width="2" stroke-miterlimit="10" stroke-linecap="round" stroke-linejoin="round"/>
<path d="M668.054 122.798L664.852 119.826" stroke="#A3876E" stroke-width="2" stroke-miterlimit="10" stroke-linecap="round" stroke-linejoin="round"/>
<path d="M664.622 119.673C662.239 125.744 661.753 133.942 661.676 141.602C669.515 137.657 676.637 134.122 679.506 133.02L676.278 129.946" stroke="#A3876E" stroke-width="2" stroke-miterlimit="10" stroke-linecap="round" stroke-linejoin="round"/>
<path d="M668.055 122.798C670.155 119.263 675.638 113.883 680.223 111.116" stroke="#A3876E" stroke-width="2" stroke-miterlimit="10" stroke-linecap="round" stroke-linejoin="round"/>
<path d="M676.303 129.715C677.891 126.923 683.604 121.031 688.215 118.366" stroke="#A3876E" stroke-width="2" stroke-miterlimit="10" stroke-linecap="round" stroke-linejoin="round"/>
</svg>
