<svg width="832" height="190" viewBox="0 0 832 190" fill="none" xmlns="http://www.w3.org/2000/svg">
<rect width="832" height="190" rx="4" fill="#09151E"/>
<path d="M152.509 83.6807C151.115 90.2178 146.453 100.555 145.947 104.457C145.415 108.385 144.553 113.782 144.908 115.099C145.262 116.417 146.656 121.991 148.202 127.033C149.773 132.075 151.42 137.371 152.028 143.933C152.154 145.327 139.131 149.533 117.746 148.823C96.361 148.114 97.0198 144.339 97.0198 143.097C97.0198 141.856 99.7055 124.094 100.491 120.597C101.276 117.101 101.504 117.076 101.15 112.616C100.744 107.675 99.0721 94.1704 98.1093 86.8732" stroke="#A3876E" stroke-width="2" stroke-miterlimit="10" stroke-linecap="round" stroke-linejoin="round"/>
<path d="M99.0972 96.2217C98.3117 99.0088 96.7408 102.379 96.4875 103.646C96.2341 104.912 97.1462 108.814 96.3608 113.73C95.5753 118.62 90.4824 147.733 90.4824 147.733" stroke="#A3876E" stroke-width="2" stroke-miterlimit="10" stroke-linecap="round" stroke-linejoin="round"/>
<path d="M82.1723 146.745C81.9189 141.298 81.1334 123.384 81.0067 116.366C80.88 109.373 82.5777 104.457 83.0845 101.391C83.6165 98.3 84.25 89.9133 84.25 89.9133C84.5034 84.187 85.2887 77.878 85.5421 74.7868C85.7955 71.6956 84.7568 61.7633 89.5709 57.4306C94.385 53.0979 98.4897 53.3766 102.341 51.755C107.155 49.7533 109.283 48.2331 113.185 46.6875" stroke="#A3876E" stroke-width="2" stroke-miterlimit="10" stroke-linecap="round" stroke-linejoin="round"/>
<path d="M84.4531 88.7227C85.1119 91.7378 97.6287 93.5621 98.6675 91.8645" stroke="#A3876E" stroke-width="2" stroke-miterlimit="10" stroke-linecap="round" stroke-linejoin="round"/>
<path d="M164.544 148.418C166.368 142.54 170.929 125.741 172.247 120.978C173.539 116.214 174.223 110.64 174.451 108.943C174.705 107.169 173.412 103.495 173.539 99.6943C173.666 95.9191 173.539 91.865 172.373 83.453C171.208 75.0662 170.017 61.0546 165.735 57.0006C160.313 51.8824 155.144 52.4905 149.823 50.9702C142.602 48.9179 139.004 46.4348 137.104 46.0801" stroke="#A3876E" stroke-width="2" stroke-miterlimit="10" stroke-linecap="round" stroke-linejoin="round"/>
<path d="M155.676 147.48C155.93 142.996 157.247 120.699 157.425 116.417C157.602 112.135 158.286 106.712 158.894 104.66C159.502 102.608 158.59 101.67 157.323 99.5165C156.183 97.5908 154.561 90.775 154.055 88.7227" stroke="#A3876E" stroke-width="2" stroke-miterlimit="10" stroke-linecap="round" stroke-linejoin="round"/>
<path d="M172.728 86.1632C172.88 87.3287 170.346 89.2798 163.632 90.1919C156.918 91.1041 154.434 90.2173 154.054 88.7223C153.674 87.1767 151.901 81.8558 150.152 75.9775" stroke="#A3876E" stroke-width="2" stroke-miterlimit="10" stroke-linecap="round" stroke-linejoin="round"/>
<path d="M136.371 42C136.447 43.951 136.801 46.2313 136.979 47.7262C137.156 49.2212 132.798 53.3258 122.638 53.2245C112.477 53.1231 112.933 48.4104 113.111 46.9408" stroke="#A3876E" stroke-width="2" stroke-miterlimit="10" stroke-linecap="round" stroke-linejoin="round"/>
<path d="M113.819 42.3047C113.591 44.1797 113.338 45.6239 113.211 46.7134" stroke="#A3876E" stroke-width="2" stroke-miterlimit="10" stroke-linecap="round" stroke-linejoin="round"/>
<path d="M100.086 87.6583C97.9066 86.6448 95.8289 85.6313 95.1194 81.0705C94.4353 76.6871 94.4606 74.2547 94.2832 71.3662" stroke="#A3876E" stroke-width="2" stroke-miterlimit="10" stroke-linecap="round" stroke-linejoin="round"/>
<path d="M460.129 129.598C455.585 118.597 459.547 109.924 460.822 105.795C461.764 102.747 465.173 102.747 465.976 105.795C467.556 111.503 469.606 113.027 475.259 112.944C481.217 112.944 485.956 108.566 492.773 103.605C495.35 101.749 497.927 102.054 502.749 104.88C513.279 111.087 517.463 113.581 525.693 118.403C528.159 119.844 533.951 118.154 533.951 118.154C542.098 119.872 560.526 123.419 561.8 123.724C563.186 124.084 563.962 124.777 564.405 125.636C565.929 130.125 566.428 134.891 563.213 136.304C559.999 137.69 547.695 141.929 531.041 141.902C517.823 141.874 461.931 141.93 459.437 141.93C455.779 141.957 457.331 134.06 460.129 129.598Z" stroke="#A3876E" stroke-width="2" stroke-miterlimit="10" stroke-linecap="round" stroke-linejoin="round"/>
<path d="M460.129 129.599C460.129 129.599 524.529 132.453 530.237 132.453C546.614 132.453 562.742 126.246 564.405 125.691" stroke="#A3876E" stroke-width="2" stroke-miterlimit="10" stroke-linecap="round" stroke-linejoin="round"/>
<path d="M491.553 103.966C491.553 103.966 491.526 100.891 491.553 99.034C491.581 97.1496 493.576 94.4617 497.151 96.346C498.786 97.3159 533.84 118.154 533.84 118.154" stroke="#A3876E" stroke-width="2" stroke-miterlimit="10" stroke-linecap="round" stroke-linejoin="round"/>
<path d="M500.226 107.681L487.812 127.161C487.784 127.217 487.756 127.272 487.729 127.328L489.945 127.411L501.916 108.623L500.226 107.681ZM513.998 115.495L506.045 128.076L508.29 128.159L515.689 116.437L513.998 115.495ZM507.209 111.643L497.039 127.716L499.284 127.799L508.9 112.586L507.209 111.643Z" fill="#A3876E"/>
<path d="M562.466 60.6253C567.011 71.6265 563.048 80.2999 561.774 84.4288C560.831 87.477 557.423 87.477 556.619 84.4288C555.04 78.7204 552.989 77.1963 547.336 77.2794C541.379 77.2794 536.64 81.6577 529.823 86.618C527.246 88.4746 524.669 88.1698 519.847 85.3433C509.317 79.1361 505.133 76.6421 496.903 71.8204C494.437 70.3795 488.645 72.0698 488.645 72.0698C480.498 70.3517 462.07 66.8048 460.796 66.5C459.41 66.1397 458.634 65.4469 458.191 64.5879C456.667 60.0988 456.168 55.3325 459.382 53.9193C462.597 52.5337 474.9 48.294 491.555 48.3217C504.773 48.3494 560.665 48.294 563.159 48.294C566.817 48.2663 565.265 56.1639 562.466 60.6253Z" stroke="#A3876E" stroke-width="2" stroke-miterlimit="10" stroke-linecap="round" stroke-linejoin="round"/>
<path d="M562.467 60.6257C562.467 60.6257 498.067 57.7715 492.359 57.7715C475.982 57.7715 459.854 63.9787 458.191 64.5329" stroke="#A3876E" stroke-width="2" stroke-miterlimit="10" stroke-linecap="round" stroke-linejoin="round"/>
<path d="M531.068 86.2289C531.068 86.2289 531.096 89.3048 531.068 91.1615C531.04 93.0458 529.045 95.7337 525.47 93.8494C523.835 92.8795 488.781 72.041 488.781 72.041" stroke="#A3876E" stroke-width="2" stroke-miterlimit="10" stroke-linecap="round" stroke-linejoin="round"/>
<path d="M522.371 82.5446L534.785 63.064C534.813 63.0085 534.841 62.9532 534.868 62.8977L532.652 62.8146L520.68 81.6025L522.371 82.5446ZM508.599 74.7302L516.552 62.1496L514.307 62.0664L506.908 73.7881L508.599 74.7302ZM515.415 78.582L525.585 62.5097L523.341 62.4267L513.725 77.6398L515.415 78.582Z" fill="#A3876E"/>
<path d="M291.44 86.0791C292.068 88.036 294.275 94.1574 295.128 99.8524C295.956 105.547 293.121 111.895 289.283 121.252C285.444 130.61 284.943 141.147 285.771 147.344" stroke="#A3876E" stroke-width="2" stroke-miterlimit="10" stroke-linecap="round" stroke-linejoin="round"/>
<path d="M305.992 89.7421C287.001 93.6809 289.534 77.4239 289.936 72.8579C290.689 64.328 289.936 52.913 287.051 54.1674" stroke="#A3876E" stroke-width="2" stroke-miterlimit="10" stroke-linecap="round" stroke-linejoin="round"/>
<path d="M289.283 79.3805C286.272 79.3805 278.068 76.6961 275.484 73.3594" stroke="#A3876E" stroke-width="2" stroke-miterlimit="10" stroke-linecap="round" stroke-linejoin="round"/>
<path d="M290.563 84.7744C290.438 88.4122 289.685 97.193 289.434 100.831C289.133 105.597 289.585 107.73 289.811 110.364C290.112 113.927 289.861 119.697 289.861 119.697" stroke="#A3876E" stroke-width="2" stroke-miterlimit="10" stroke-linecap="round" stroke-linejoin="round"/>
<path d="M274.883 147.369C274.005 138.965 273.754 126.045 274.256 122.031C274.757 118.016 278.144 108.985 277.392 103.34C276.639 97.6952 275.886 86.1548 275.51 78.6284C275.134 71.102 275.636 63.4502 280.026 58.8089C284.416 54.1677 289.334 53.6157 293.197 52.2861C300.724 49.7271 305.616 49.5264 305.741 42" stroke="#A3876E" stroke-width="2" stroke-miterlimit="10" stroke-linecap="round" stroke-linejoin="round"/>
<path d="M343.872 147.996C343.496 139.968 340.485 122.783 338.98 117.013C337.475 111.242 336.27 103.089 336.471 98.4475C336.647 94.308 337.726 90.4193 340.234 86.4053" stroke="#A3876E" stroke-width="2" stroke-miterlimit="10" stroke-linecap="round" stroke-linejoin="round"/>
<path d="M324.633 89.1644C328.346 90.4188 337.754 91.9743 340.789 85.5267C342.822 81.1865 342.37 76.5201 342.069 74.1117C341.366 68.4669 340.99 53.665 344.126 54.1667" stroke="#A3876E" stroke-width="2" stroke-miterlimit="10" stroke-linecap="round" stroke-linejoin="round"/>
<path d="M285.922 134.825C287.051 136.958 301.1 139.717 315.902 140.219C330.704 140.721 342.295 139.592 342.796 138.413" stroke="#A3876E" stroke-width="2" stroke-miterlimit="10" stroke-linecap="round" stroke-linejoin="round"/>
<path d="M339.861 87.0322C340.739 90.2937 342.496 98.8236 342.746 102.587C342.997 106.35 342.119 110.866 343.875 120.776C345.632 130.685 349.52 148.999 349.52 148.999" stroke="#A3876E" stroke-width="2" stroke-miterlimit="10" stroke-linecap="round" stroke-linejoin="round"/>
<path d="M358.174 148.749C358.676 142.477 358.676 125.919 358.802 120.902C358.927 115.884 356.042 107.229 355.164 102.086C354.286 96.9426 354.537 82.517 354.913 73.8617C355.289 65.2064 354.712 56.9524 344.125 54.1677C337.276 52.3613 330.001 49.7773 328.646 48.849C326.212 47.419 325.058 46.5911 324.883 42" stroke="#A3876E" stroke-width="2" stroke-miterlimit="10" stroke-linecap="round" stroke-linejoin="round"/>
<path d="M327.942 48.5233C328.519 49.0752 328.82 49.6773 328.82 50.2794C328.82 53.014 322.874 55.2218 315.523 55.2218C308.172 55.2218 302.227 53.014 302.227 50.2794C302.227 49.6021 302.603 48.9498 303.28 48.3477" stroke="#A3876E" stroke-width="2" stroke-miterlimit="10" stroke-linecap="round" stroke-linejoin="round"/>
<path d="M342.621 77.8006C344.327 76.6717 353.61 72.8081 354.914 73.8618" stroke="#A3876E" stroke-width="2" stroke-miterlimit="10" stroke-linecap="round" stroke-linejoin="round"/>
<path d="M290.814 117.514C298.592 116.636 302.355 133.319 316.906 133.57C331.457 133.821 333.213 118.517 339.234 118.392" stroke="#A3876E" stroke-width="2" stroke-miterlimit="10" stroke-linecap="round" stroke-linejoin="round"/>
<path d="M697.788 103.1C703.554 108.525 704.519 116.875 699.918 121.76C695.346 126.645 686.939 126.191 681.174 120.766C675.408 115.341 674.442 106.991 679.044 102.106C683.616 97.2497 692.023 97.6757 697.788 103.1Z" stroke="#A3876E" stroke-width="2" stroke-miterlimit="10" stroke-linecap="round" stroke-linejoin="round"/>
<path d="M707.076 93.2162C719.658 105.06 721.589 123.407 711.393 134.256C701.197 145.077 682.736 144.282 670.183 132.438C657.601 120.623 655.67 102.248 665.866 91.3985C676.062 80.5776 694.494 81.4012 707.076 93.2162Z" stroke="#A3876E" stroke-width="2" stroke-miterlimit="10" stroke-linecap="round" stroke-linejoin="round"/>
<path d="M675.35 83.5318C685.205 73.0517 703.041 73.847 715.197 85.2643C727.353 96.71 729.227 114.461 719.372 124.913" stroke="#A3876E" stroke-width="2" stroke-miterlimit="10" stroke-linecap="round" stroke-linejoin="round"/>
<path d="M667.428 89.837C669.331 88.1329 683.503 76.8291 684.696 75.9771C694.608 68.962 709.632 70.6092 720.197 80.5781C732.041 91.7114 733.858 109.036 724.259 119.232L712.472 133.177" stroke="#A3876E" stroke-width="2" stroke-miterlimit="10" stroke-linecap="round" stroke-linejoin="round"/>
<path d="M703.041 97.5048C712.868 106.764 714.175 121.334 705.967 130.053C697.759 138.772 683.132 138.374 673.305 129.115C663.478 119.857 662.172 105.287 670.38 96.5676C678.588 87.8484 693.214 88.246 703.041 97.5048Z" stroke="#A3876E" stroke-width="2" stroke-miterlimit="10" stroke-linecap="round" stroke-linejoin="round"/>
<path d="M693.385 57.0047C693.385 58.652 689.637 60.0152 685.036 60.0152C680.434 60.0152 676.686 58.6804 676.686 57.0047C676.686 55.3574 680.434 53.9941 685.036 53.9941C689.665 54.0225 693.385 55.3574 693.385 57.0047Z" stroke="#A3876E" stroke-width="2" stroke-miterlimit="10" stroke-linecap="round" stroke-linejoin="round"/>
<path d="M693.385 61.3213C693.385 62.9686 689.637 64.3318 685.036 64.3318C680.434 64.3318 676.686 62.997 676.686 61.3213" stroke="#A3876E" stroke-width="2" stroke-miterlimit="10" stroke-linecap="round" stroke-linejoin="round"/>
<path d="M668.646 55.6981C668.646 57.175 665.295 58.3963 661.148 58.3963C657.002 58.3963 653.65 57.2034 653.65 55.6981C653.65 54.1929 657.002 53 661.148 53C665.267 53 668.646 54.2213 668.646 55.6981Z" stroke="#A3876E" stroke-width="2" stroke-miterlimit="10" stroke-linecap="round" stroke-linejoin="round"/>
<path d="M717.017 127.781C724.061 129.144 739.397 131.984 741.783 132.296C744.197 132.609 750.332 132.296 752.746 130.053C755.245 127.695 755.756 127.042 756.353 126.304C756.949 125.565 757.404 124.259 757.404 120.311C757.404 115.369 758 75.1245 758 71.0631C758 67.0017 757.546 64.758 751.837 63.8492C746.128 62.9403 723.322 59.6458 723.322 59.6458L718.778 63.6504L699.834 60.8954L704.691 56.9477L696.937 55.7832L693.586 58.0837" stroke="#A3876E" stroke-width="2" stroke-miterlimit="10" stroke-linecap="round" stroke-linejoin="round"/>
<path d="M668.648 55.6982L676.686 56.6071" stroke="#A3876E" stroke-width="2" stroke-miterlimit="10" stroke-linecap="round" stroke-linejoin="round"/>
<path d="M651.777 58.7656C650.045 59.5893 648 60.1289 648 64.5311C648 68.9333 648.312 110.57 648.312 113.069C648.312 115.568 649.108 118.068 653.425 119.97C657.742 121.873 661.831 120.567 661.831 120.567" stroke="#A3876E" stroke-width="2" stroke-miterlimit="10" stroke-linecap="round" stroke-linejoin="round"/>
<path d="M648.057 71.4902C648.142 73.3647 652.004 75.722 656.776 75.8357C661.405 75.9493 664.274 74.8984 670.238 75.722C676.401 76.5741 683.161 77.5681 683.161 77.5681" stroke="#A3876E" stroke-width="2" stroke-miterlimit="10" stroke-linecap="round" stroke-linejoin="round"/>
<path d="M723.178 83.5308C729.398 84.4396 738.287 85.5189 741.809 86.1437C745.302 86.7402 751.608 86.7401 753.624 84.8373C755.612 82.9344 757.827 80.9463 757.827 80.9463" stroke="#A3876E" stroke-width="2" stroke-miterlimit="10" stroke-linecap="round" stroke-linejoin="round"/>
<path d="M734.482 85.4346V130.791" stroke="#A3876E" stroke-width="2" stroke-miterlimit="10" stroke-linecap="round" stroke-linejoin="round"/>
<path d="M648.88 60.8105C647.375 63.1395 650.3 66.008 656.009 66.6044C661.718 67.2009 663.621 64.9287 668.477 65.6104C674.157 66.4056 674.839 66.5476 677.764 66.9168C680.605 67.286 682.508 67.1156 684.524 65.6672C686.541 64.2471 686.853 63.7927 690.687 64.3039C694.521 64.8151 733.63 70.8362 739.623 71.6599C745.615 72.4835 751.636 72.1711 753.426 70.8362C755.215 69.473 757.487 67.2292 757.487 67.2292" stroke="#A3876E" stroke-width="2" stroke-miterlimit="10" stroke-linecap="round" stroke-linejoin="round"/>
<path d="M703.297 57.7148L722.439 60.4698" stroke="#A3876E" stroke-width="2" stroke-miterlimit="10" stroke-linecap="round" stroke-linejoin="round"/>
<path d="M757.77 86.6553L754.703 89.7794C754.049 90.4611 753.51 91.7675 753.51 92.7048V101.055C753.51 101.992 754.049 102.219 754.703 101.538L757.656 98.4986" stroke="#A3876E" stroke-width="2" stroke-miterlimit="10" stroke-linecap="round" stroke-linejoin="round"/>
<path d="M676.686 61.322V56.6074" stroke="#A3876E" stroke-width="2" stroke-miterlimit="10" stroke-linecap="round" stroke-linejoin="round"/>
<path d="M693.414 61.5489V57.4023" stroke="#A3876E" stroke-width="2" stroke-miterlimit="10" stroke-linecap="round" stroke-linejoin="round"/>
<path d="M657.572 66.8877V93.5565" stroke="#A3876E" stroke-width="2" stroke-miterlimit="10" stroke-linecap="round" stroke-linejoin="round"/>
</svg>
