<svg width="832" height="190" viewBox="0 0 832 190" fill="none" xmlns="http://www.w3.org/2000/svg">
<rect width="832" height="190" rx="4" fill="#09151E"/>
<path d="M145.42 69.5261C144.208 68.1596 143.357 66.5095 142.945 64.7047C141.346 57.6919 147.044 50.4212 155.63 48.4875C164.215 46.5281 172.491 50.6533 174.064 57.6661C175.663 64.679 169.965 71.9496 161.379 73.8833C159.11 74.399 156.867 74.5021 154.779 74.2185" stroke="#A3876E" stroke-width="2" stroke-miterlimit="10" stroke-linecap="round" stroke-linejoin="round"/>
<path d="M149.262 66.2006C148.694 65.4013 148.282 64.5247 148.05 63.545C146.993 58.8268 150.783 53.9539 156.558 52.6647C162.333 51.3498 167.877 54.1086 168.934 58.8268C169.991 63.545 166.201 68.4179 160.425 69.707C158.75 70.0937 157.125 69.9648 155.578 69.8617C152.201 69.6554 151.995 73.858 154.573 74.1932" stroke="#A3876E" stroke-width="2" stroke-miterlimit="10" stroke-linecap="round" stroke-linejoin="round"/>
<path d="M152.382 62.9004L146.297 70.1453" stroke="#A3876E" stroke-width="2" stroke-miterlimit="10" stroke-linecap="round" stroke-linejoin="round"/>
<path d="M159.394 66.6123L156.455 69.964" stroke="#A3876E" stroke-width="2" stroke-miterlimit="10" stroke-linecap="round" stroke-linejoin="round"/>
<path d="M159.91 67.1799C161.018 65.9681 163.107 63.8024 164.525 62.0492C165.556 60.7859 163.88 58.0529 162.153 56.8411C160.425 55.6293 158.208 55.0879 157.125 56.1966C155.836 57.5373 153.181 60.4507 152.227 61.6109" stroke="#A3876E" stroke-width="2" stroke-miterlimit="10" stroke-linecap="round" stroke-linejoin="round"/>
<path d="M158.491 67.6173C159.523 66.354 158.414 64.0593 156.687 62.8475C154.959 61.6358 153.438 61.7647 152.381 62.8991" stroke="#A3876E" stroke-width="2" stroke-miterlimit="10" stroke-linecap="round" stroke-linejoin="round"/>
<path d="M76.0136 116.553C75.4464 115.032 74.9823 113.485 74.6471 111.861C70.4446 91.5701 87.1517 70.9699 111.954 65.8134C136.783 60.6569 160.297 72.9293 164.525 93.2202" stroke="#A3876E" stroke-width="2" stroke-miterlimit="10" stroke-linecap="round" stroke-linejoin="round"/>
<path d="M165.351 96.9072C169.554 117.147 152.898 137.695 128.121 142.852C103.37 147.982 81.7382 135.401 75.7051 115.522" stroke="#A3876E" stroke-width="2" stroke-miterlimit="10" stroke-linecap="round" stroke-linejoin="round"/>
<path d="M156.738 93.7867C160.245 110.7 146.322 127.897 125.619 132.177C104.915 136.483 85.3207 126.247 81.7885 109.334C78.2821 92.4202 92.2046 75.249 112.908 70.9433C133.611 66.6376 153.232 76.8733 156.738 93.7867Z" stroke="#A3876E" stroke-width="2" stroke-miterlimit="10" stroke-linecap="round" stroke-linejoin="round"/>
<path d="M150.887 94.999C153.852 109.257 142.095 123.772 124.641 127.382C107.186 131.017 90.6335 122.38 87.6685 108.122C84.7035 93.8645 96.4603 79.349 113.915 75.7136C131.37 72.1041 147.922 80.7154 150.887 94.999Z" stroke="#A3876E" stroke-width="2" stroke-miterlimit="10" stroke-linecap="round" stroke-linejoin="round"/>
<path d="M164.525 93.1953L165.35 96.908" stroke="#A3876E" stroke-width="2" stroke-miterlimit="10" stroke-linecap="round" stroke-linejoin="round"/>
<path d="M101.538 117.662L97 122.174" stroke="#A3876E" stroke-width="2" stroke-miterlimit="10" stroke-linecap="round" stroke-linejoin="round"/>
<path d="M139.723 79.7109L135.186 84.2229" stroke="#A3876E" stroke-width="2" stroke-miterlimit="10" stroke-linecap="round" stroke-linejoin="round"/>
<path d="M100.172 89.1203L95.041 85.7686" stroke="#A3876E" stroke-width="2" stroke-miterlimit="10" stroke-linecap="round" stroke-linejoin="round"/>
<path d="M143.331 117.172L138.381 113.975" stroke="#A3876E" stroke-width="2" stroke-miterlimit="10" stroke-linecap="round" stroke-linejoin="round"/>
<path d="M95.0413 98.1188L88.4668 97.3711" stroke="#A3876E" stroke-width="2" stroke-miterlimit="10" stroke-linecap="round" stroke-linejoin="round"/>
<path d="M150.473 105.338L143.898 104.59" stroke="#A3876E" stroke-width="2" stroke-miterlimit="10" stroke-linecap="round" stroke-linejoin="round"/>
<path d="M111.181 82.2628L109.041 77.0547" stroke="#A3876E" stroke-width="2" stroke-miterlimit="10" stroke-linecap="round" stroke-linejoin="round"/>
<path d="M129.28 126.119L127.191 121.04" stroke="#A3876E" stroke-width="2" stroke-miterlimit="10" stroke-linecap="round" stroke-linejoin="round"/>
<path d="M123.635 80.6382L124.821 75.0176" stroke="#A3876E" stroke-width="2" stroke-miterlimit="10" stroke-linecap="round" stroke-linejoin="round"/>
<path d="M112.523 127.691L113.787 122.199" stroke="#A3876E" stroke-width="2" stroke-miterlimit="10" stroke-linecap="round" stroke-linejoin="round"/>
<path d="M95.0671 108.818L89.2402 110.623" stroke="#A3876E" stroke-width="2" stroke-miterlimit="10" stroke-linecap="round" stroke-linejoin="round"/>
<path d="M149.133 91.75L143.357 93.6063" stroke="#A3876E" stroke-width="2" stroke-miterlimit="10" stroke-linecap="round" stroke-linejoin="round"/>
<path d="M138.28 88.3734C139.028 92.0345 136.011 95.773 131.551 96.7012C127.065 97.6293 122.811 95.412 122.063 91.7509C121.315 88.0898 124.332 84.3513 128.792 83.4232C133.253 82.495 137.507 84.7123 138.28 88.3734Z" stroke="#A3876E" stroke-width="2" stroke-miterlimit="10" stroke-linecap="round" stroke-linejoin="round"/>
<path d="M116.054 102.606L111.749 101.472C110.099 101.085 109.351 99.7183 110.124 98.455C110.872 97.1917 112.806 96.676 114.378 97.2948L118.272 98.9449" stroke="#A3876E" stroke-width="2" stroke-miterlimit="10" stroke-linecap="round" stroke-linejoin="round"/>
<path d="M122.525 100.774L143.898 109.953L120.9 103.894" stroke="#A3876E" stroke-width="2" stroke-miterlimit="10" stroke-linecap="round" stroke-linejoin="round"/>
<path d="M122.474 100.904C122.783 102.347 121.571 103.817 119.818 104.178C118.039 104.539 116.363 103.662 116.08 102.218C115.77 100.775 116.982 99.305 118.735 98.944C120.488 98.5831 122.164 99.4339 122.474 100.904Z" stroke="#A3876E" stroke-width="2" stroke-miterlimit="10" stroke-linecap="round" stroke-linejoin="round"/>
<path d="M135.186 84.2227L129.643 90.0495" stroke="#A3876E" stroke-width="2" stroke-miterlimit="10" stroke-linecap="round" stroke-linejoin="round"/>
<path d="M168.135 86.1296C168.135 84.8404 168.496 83.8865 169.192 83.6802C170.3 83.345 171.847 85.1756 172.621 87.7539C173.394 90.3579 173.137 92.7299 172.028 93.0651C171.512 93.2198 170.894 92.9104 170.301 92.24" stroke="#A3876E" stroke-width="2" stroke-miterlimit="10" stroke-linecap="round" stroke-linejoin="round"/>
<path d="M177.725 81.0249C178.833 80.6898 180.38 82.5203 181.154 85.0986C181.927 87.7026 181.669 90.0746 180.561 90.4098" stroke="#A3876E" stroke-width="2" stroke-miterlimit="10" stroke-linecap="round" stroke-linejoin="round"/>
<path d="M169.191 83.68L177.725 81.0244" stroke="#A3876E" stroke-width="2" stroke-miterlimit="10" stroke-linecap="round" stroke-linejoin="round"/>
<path d="M172.027 93.0648L180.561 90.4092" stroke="#A3876E" stroke-width="2" stroke-miterlimit="10" stroke-linecap="round" stroke-linejoin="round"/>
<path d="M162.9 87.8835L168.134 86.2334" stroke="#A3876E" stroke-width="2" stroke-miterlimit="10" stroke-linecap="round" stroke-linejoin="round"/>
<path d="M164.859 93.7614L170.171 92.1113" stroke="#A3876E" stroke-width="2" stroke-miterlimit="10" stroke-linecap="round" stroke-linejoin="round"/>
<path d="M281 68.1312V112.063C281 116.123 281.858 117.584 284.549 119.3L331.288 144.537C333.283 145.627 334.929 144.63 334.929 142.357V90.1436C334.929 87.8705 333.19 85.319 331.056 84.5071L285.361 66.8554C282.948 65.858 281.533 64.791 282.392 63.3297C282.995 62.3091 284.34 61.5205 289.536 62.1468" stroke="#A3876E" stroke-width="2" stroke-miterlimit="10" stroke-linecap="round" stroke-linejoin="round"/>
<path d="M343.767 47C343.767 47 294.824 60.8941 291.647 61.8451C288.446 62.7961 286.544 64.2574 286.729 67.2032" stroke="#A3876E" stroke-width="2" stroke-miterlimit="10" stroke-linecap="round" stroke-linejoin="round"/>
<path d="M349.635 53.541C349.635 53.541 295.056 63.7238 292.041 64.2341C288.307 64.8836 286.706 65.2083 286.776 66.7624" stroke="#A3876E" stroke-width="2" stroke-miterlimit="10" stroke-linecap="round" stroke-linejoin="round"/>
<path d="M343.766 47L345.134 54.3762" stroke="#A3876E" stroke-width="2" stroke-miterlimit="10" stroke-linecap="round" stroke-linejoin="round"/>
<path d="M349.637 53.541L352.629 76.0638" stroke="#A3876E" stroke-width="2" stroke-miterlimit="10" stroke-linecap="round" stroke-linejoin="round"/>
<path d="M355.478 76.4341L288.281 67.9678" stroke="#A3876E" stroke-width="2" stroke-miterlimit="10" stroke-linecap="round" stroke-linejoin="round"/>
<path d="M355.479 92.7647L334.951 90.1436" stroke="#A3876E" stroke-width="2" stroke-miterlimit="10" stroke-linecap="round" stroke-linejoin="round"/>
<path d="M315.328 78.4062L348.822 82.7902C350.098 82.9526 351.119 84.1355 351.119 85.4113V91.9524" stroke="#A3876E" stroke-width="2" stroke-miterlimit="10" stroke-linecap="round" stroke-linejoin="round"/>
<path d="M351.791 69.7549C354.552 69.9404 358.704 69.7781 358.704 74.6027V119.486C358.704 122.293 358.077 124.937 353.415 124.287C350.284 123.823 334.975 121.342 334.975 121.342" stroke="#A3876E" stroke-width="2" stroke-miterlimit="10" stroke-linecap="round" stroke-linejoin="round"/>
<path d="M327.83 132.104L314.377 124.937V129.854L327.83 137.021V132.104Z" stroke="#A3876E" stroke-width="2" stroke-miterlimit="10" stroke-linecap="round" stroke-linejoin="round"/>
<path d="M343.675 65.4409C342.654 66.9022 340.868 67.4125 339.685 66.6007C338.502 65.7889 338.386 63.9332 339.43 62.4719C340.451 61.0106 342.237 60.5003 343.42 61.3121C344.579 62.124 344.695 63.9796 343.675 65.4409Z" stroke="#A3876E" stroke-width="2" stroke-miterlimit="10" stroke-linecap="round" stroke-linejoin="round"/>
<path d="M338.038 66.4145C337.018 67.8758 335.231 68.3861 334.048 67.5743C332.866 66.7625 332.75 64.9069 333.793 63.4455C334.814 61.9842 336.6 61.4739 337.783 62.2858C338.943 63.0976 339.059 64.9532 338.038 66.4145Z" stroke="#A3876E" stroke-width="2" stroke-miterlimit="10" stroke-linecap="round" stroke-linejoin="round"/>
<path d="M332.38 67.4819C331.359 68.9433 329.573 69.4536 328.39 68.6417C327.207 67.8299 327.091 65.9742 328.135 64.5129C329.156 63.0516 330.942 62.5413 332.125 63.3531C333.308 64.165 333.424 66.0206 332.38 67.4819Z" stroke="#A3876E" stroke-width="2" stroke-miterlimit="10" stroke-linecap="round" stroke-linejoin="round"/>
<path d="M323.657 69.94L325.002 63.7236L322.775 64.9994" stroke="#A3876E" stroke-width="2" stroke-miterlimit="10" stroke-linecap="round" stroke-linejoin="round"/>
<path d="M754.233 124.82V128.941L718.268 142.394" stroke="#A3876E" stroke-width="2" stroke-miterlimit="10" stroke-linecap="round" stroke-linejoin="round"/>
<path d="M754.234 124.821L748.699 120.726L738.82 124.424" stroke="#A3876E" stroke-width="2" stroke-miterlimit="10" stroke-linecap="round" stroke-linejoin="round"/>
<path d="M726.161 129.113L712.758 134.177" stroke="#A3876E" stroke-width="2" stroke-miterlimit="10" stroke-linecap="round" stroke-linejoin="round"/>
<path d="M718.268 142.393L712.758 138.298V134.178" stroke="#A3876E" stroke-width="2" stroke-miterlimit="10" stroke-linecap="round" stroke-linejoin="round"/>
<path d="M676.149 95.8789L660.834 101.662" stroke="#A3876E" stroke-width="2" stroke-miterlimit="10" stroke-linecap="round" stroke-linejoin="round"/>
<path d="M668.326 88.582L655.32 93.4469" stroke="#A3876E" stroke-width="2" stroke-miterlimit="10" stroke-linecap="round" stroke-linejoin="round"/>
<path d="M660.83 101.663L655.32 97.5675V93.4473" stroke="#A3876E" stroke-width="2" stroke-miterlimit="10" stroke-linecap="round" stroke-linejoin="round"/>
<path d="M731.398 107.669V132.49" stroke="#A3876E" stroke-width="2" stroke-miterlimit="10" stroke-linecap="round" stroke-linejoin="round"/>
<path d="M726.16 109.803V129.113" stroke="#A3876E" stroke-width="2" stroke-miterlimit="10" stroke-linecap="round" stroke-linejoin="round"/>
<path d="M668.328 78.0322V88.4073" stroke="#A3876E" stroke-width="2" stroke-miterlimit="10" stroke-linecap="round" stroke-linejoin="round"/>
<path d="M738.596 105.037V130.057" stroke="#A3876E" stroke-width="2" stroke-miterlimit="10" stroke-linecap="round" stroke-linejoin="round"/>
<path d="M704.543 97.8151L713.776 104.318C716.01 105.882 719.932 106.403 722.489 105.435L751.628 94.4891C754.185 93.5211 754.458 91.461 752.224 89.8724L737.406 79.4229" stroke="#A3876E" stroke-width="2" stroke-miterlimit="10" stroke-linecap="round" stroke-linejoin="round"/>
<path d="M711.641 61.3776L695.16 49.6126C692.926 48.0488 689.004 47.5276 686.448 48.4708L657.134 59.3175C654.578 60.2607 654.305 62.3208 656.539 63.9094L680.019 80.4897" stroke="#A3876E" stroke-width="2" stroke-miterlimit="10" stroke-linecap="round" stroke-linejoin="round"/>
<path d="M703.326 102.406L713.776 109.778C716.01 111.342 719.931 111.863 722.488 110.895L751.628 99.949C752.968 99.4525 753.737 98.6334 753.737 97.7399C753.737 96.7967 753.713 93.5452 753.737 92.2793" stroke="#A3876E" stroke-width="2" stroke-miterlimit="10" stroke-linecap="round" stroke-linejoin="round"/>
<path d="M655 61.4521C655 61.4521 655 66.1929 655 67.161C655 67.9056 655.521 68.675 656.514 69.37L677.885 84.4611" stroke="#A3876E" stroke-width="2" stroke-miterlimit="10" stroke-linecap="round" stroke-linejoin="round"/>
<path d="M719.037 131.845L724.845 136.188V139.912" stroke="#A3876E" stroke-width="2" stroke-miterlimit="10" stroke-linecap="round" stroke-linejoin="round"/>
<path d="M661.504 91.3125L667.113 95.5072V99.2303" stroke="#A3876E" stroke-width="2" stroke-miterlimit="10" stroke-linecap="round" stroke-linejoin="round"/>
<path d="M742.666 123.107L748.474 127.451V130.926" stroke="#A3876E" stroke-width="2" stroke-miterlimit="10" stroke-linecap="round" stroke-linejoin="round"/>
<path d="M673.02 81.3828V91.3112" stroke="#A3876E" stroke-width="2" stroke-miterlimit="10" stroke-linecap="round" stroke-linejoin="round"/>
<path d="M685.034 109.233C682.055 104.765 675.527 101.712 675.527 101.712C675.527 101.712 676.669 91.7835 677.339 87.6384C678.084 83.0962 679.623 80.3659 683.123 78.0328C687.59 75.0543 711.617 61.3779 711.617 61.3779L724.971 70.7602L737.48 75.6003L734.551 77.4619C734.551 77.4619 712.535 91.436 708.986 93.5954C705.387 95.7797 703.625 96.7725 703.103 101.786C702.657 106.13 702.359 115.115 702.011 121.792C701.862 124.622 699.926 126.21 696.451 125.242C692.976 124.274 687.888 122.884 687.888 122.884C687.888 122.884 687.143 93.5954 687.392 88.8795C687.64 84.1635 689.129 83.1707 691.115 80.9368C693.1 78.7029 696.377 75.228 696.377 75.228" stroke="#A3876E" stroke-width="2" stroke-miterlimit="10" stroke-linecap="round" stroke-linejoin="round"/>
<path d="M724.995 70.7598L717.722 79.9435L704.865 74.5325C701.092 72.8447 698.511 73.0185 696.426 75.2275" stroke="#A3876E" stroke-width="2" stroke-miterlimit="10" stroke-linecap="round" stroke-linejoin="round"/>
<path d="M699.553 73.4901L724.994 70.7598" stroke="#A3876E" stroke-width="2" stroke-miterlimit="10" stroke-linecap="round" stroke-linejoin="round"/>
<path d="M736.959 76.0223C738.25 75.0791 739.64 77.6356 740.484 81.607" stroke="#A3876E" stroke-width="2" stroke-miterlimit="10" stroke-linecap="round" stroke-linejoin="round"/>
<path d="M550.256 109.629C550.382 109.674 550.506 109.724 550.627 109.774C551.239 110.028 551.827 110.337 552.382 110.699C557.137 113.79 558.996 120.371 556.524 126.336C553.766 132.993 546.654 136.364 540.642 133.87C534.629 131.376 531.987 123.963 534.745 117.311C535.876 114.532 537.878 112.196 540.451 110.654" stroke="#A3876E" stroke-width="2" stroke-linecap="round" stroke-linejoin="round"/>
<path d="M550.257 109.487V102.39L548.816 101.972V77.3145" stroke="#A3876E" stroke-width="2" stroke-linecap="round" stroke-linejoin="round"/>
<path d="M540.445 110.597V103.799L541.974 103.062V97.7412L542.899 95.977L541.974 94.3841L543.522 90.8962L541.974 88.5092V85.4089L542.899 83.3214L541.974 81.2672V78.1455" stroke="#A3876E" stroke-width="2" stroke-linecap="round" stroke-linejoin="round"/>
<path d="M537.505 132.128C531.492 129.636 528.851 122.221 531.609 115.568C532.739 112.789 534.741 110.453 537.315 108.911" stroke="#A3876E" stroke-width="2" stroke-linecap="round" stroke-linejoin="round"/>
<path d="M537.309 108.854V102.057" stroke="#A3876E" stroke-width="2" stroke-linecap="round" stroke-linejoin="round"/>
<path d="M548.819 77.1772L546.377 73.0498" stroke="#A3876E" stroke-width="2" stroke-linecap="round" stroke-linejoin="round"/>
<path d="M546.373 73.0498L541.973 78.1449" stroke="#A3876E" stroke-width="2" stroke-linecap="round" stroke-linejoin="round"/>
<path d="M537.309 108.847V102.049L538.837 101.312V95.9912L539.762 94.2247L538.837 92.6341L540.388 89.1462L538.837 86.7568V83.6589L539.762 81.5714L538.837 79.5148V76.3955" stroke="#A3876E" stroke-width="2" stroke-linecap="round" stroke-linejoin="round"/>
<path d="M543.239 71.2988L538.838 76.3963" stroke="#A3876E" stroke-width="2" stroke-linecap="round" stroke-linejoin="round"/>
<path d="M548.075 129.177C547.509 130.63 545.957 131.386 544.608 130.861C543.26 130.335 542.626 128.721 543.182 127.275C543.738 125.83 545.3 125.067 546.648 125.592C547.996 126.117 548.641 127.718 548.075 129.177Z" stroke="#A3876E" stroke-width="2" stroke-linecap="round" stroke-linejoin="round"/>
<path d="M543.24 71.2988L546.376 73.0511" stroke="#A3876E" stroke-width="2" stroke-linecap="round" stroke-linejoin="round"/>
<path d="M469 90V141.236" stroke="#A3876E" stroke-width="2" stroke-linecap="round" stroke-linejoin="round"/>
<path d="M524.105 86.3789V137.893" stroke="#A3876E" stroke-width="2" stroke-linecap="round" stroke-linejoin="round"/>
<path d="M518.326 83.5088L524.104 86.3785" stroke="#A3876E" stroke-width="2" stroke-linecap="round" stroke-linejoin="round"/>
<path d="M469 141.236L476.285 144.857" stroke="#A3876E" stroke-width="2" stroke-linecap="round" stroke-linejoin="round"/>
<path d="M518.243 64.5845V85.3975C518.203 87.2544 509.741 87.1307 509.741 84.9862V66.4842C509.741 61.6744 507.82 54.9864 499.772 55.0506C491.724 55.1148 484.604 62.6041 484.644 71.2726V89.4393C484.644 91.0513 476.016 91.0513 476.059 89.3585V69.8674C476.059 57.3402 487.946 46.9385 499.896 47.0003C511.225 47.0597 518.203 55.4833 518.243 64.5845Z" stroke="#A3876E" stroke-width="2" stroke-linecap="round" stroke-linejoin="round"/>
<path d="M476.305 96.6982V144.746" stroke="#A3876E" stroke-width="2" stroke-linecap="round" stroke-linejoin="round"/>
<path d="M476.471 93.3948C488.03 93.8085 513.042 92.4866 524.021 86.626" stroke="#A3876E" stroke-width="2" stroke-linecap="round" stroke-linejoin="round"/>
<path d="M476.471 144.909C488.03 145.323 513.042 144.001 524.021 138.141" stroke="#A3876E" stroke-width="2" stroke-linecap="round" stroke-linejoin="round"/>
<path d="M476.028 87.2188C473.611 87.9464 471.26 88.8769 469 90.0005L476.014 93.3552" stroke="#A3876E" stroke-width="2" stroke-linecap="round" stroke-linejoin="round"/>
<path d="M509.742 82.7823C504.416 82.7442 494.331 83.2411 484.666 85.098" stroke="#A3876E" stroke-width="2" stroke-linecap="round" stroke-linejoin="round"/>
<path d="M493.518 93.3125V144.456" stroke="#A3876E" stroke-width="2" stroke-linecap="round" stroke-linejoin="round"/>
<path d="M499.461 92.8184V143.591" stroke="#A3876E" stroke-width="2" stroke-linecap="round" stroke-linejoin="round"/>
<path d="M484.455 57.9197C485.099 56.7808 487.719 53.942 490.53 52.8389" stroke="#A3876E" stroke-width="2" stroke-linecap="round" stroke-linejoin="round"/>
</svg>
