<svg width="832" height="508" viewBox="0 0 832 508" fill="none" xmlns="http://www.w3.org/2000/svg">
<g clip-path="url(#clip0_4265_14437)">
<rect width="832" height="508" rx="4" fill="#09151E"/>
<line y1="-0.5" x2="499.08" y2="-0.5" transform="matrix(0.707107 -0.707107 -0.707107 -0.707107 479.183 713.374)" stroke="#A3876E"/>
<line y1="-0.5" x2="499.08" y2="-0.5" transform="matrix(0.707107 -0.707107 -0.707107 -0.707107 452.473 713.374)" stroke="#A3876E"/>
<line y1="-0.5" x2="499.08" y2="-0.5" transform="matrix(0.707107 -0.707107 -0.707107 -0.707107 425.77 713.374)" stroke="#A3876E"/>
<line y1="-0.5" x2="499.08" y2="-0.5" transform="matrix(0.707107 -0.707107 -0.707107 -0.707107 399.062 713.374)" stroke="#A3876E"/>
<line y1="-0.5" x2="499.08" y2="-0.5" transform="matrix(0.707107 -0.707107 -0.707107 -0.707107 372.356 713.374)" stroke="#A3876E"/>
<line y1="-0.5" x2="499.08" y2="-0.5" transform="matrix(0.707107 -0.707107 -0.707107 -0.707107 345.65 713.374)" stroke="#A3876E"/>
<line y1="-0.5" x2="499.08" y2="-0.5" transform="matrix(0.707107 -0.707107 -0.707107 -0.707107 318.944 713.374)" stroke="#A3876E"/>
<line y1="-0.5" x2="499.08" y2="-0.5" transform="matrix(0.707107 -0.707107 -0.707107 -0.707107 292.238 713.374)" stroke="#A3876E"/>
<line y1="-0.5" x2="499.08" y2="-0.5" transform="matrix(0.707107 -0.707107 -0.707107 -0.707107 265.532 713.374)" stroke="#A3876E"/>
<line y1="-0.5" x2="499.08" y2="-0.5" transform="matrix(0.707107 -0.707107 -0.707107 -0.707107 238.826 713.374)" stroke="#A3876E"/>
<line y1="-0.5" x2="499.08" y2="-0.5" transform="matrix(0.707107 -0.707107 -0.707107 -0.707107 212.116 713.374)" stroke="#A3876E"/>
<line y1="-0.5" x2="499.08" y2="-0.5" transform="matrix(0.707107 -0.707107 -0.707107 -0.707107 185.413 713.374)" stroke="#A3876E"/>
<line y1="-0.5" x2="499.08" y2="-0.5" transform="matrix(0.707107 -0.707107 -0.707107 -0.707107 158.707 713.374)" stroke="#A3876E"/>
<line y1="-0.5" x2="499.08" y2="-0.5" transform="matrix(0.707107 -0.707107 -0.707107 -0.707107 132 713.374)" stroke="#A3876E"/>
<line x1="147.549" y1="148.256" x2="-205.354" y2="-204.647" stroke="#A3876E"/>
<line x1="174.259" y1="148.256" x2="-178.644" y2="-204.647" stroke="#A3876E"/>
<line x1="200.962" y1="148.256" x2="-151.941" y2="-204.647" stroke="#A3876E"/>
<line x1="227.668" y1="148.256" x2="-125.235" y2="-204.647" stroke="#A3876E"/>
<line x1="254.374" y1="148.256" x2="-98.5288" y2="-204.647" stroke="#A3876E"/>
<line x1="281.08" y1="148.256" x2="-71.8227" y2="-204.647" stroke="#A3876E"/>
<line x1="307.786" y1="148.256" x2="-45.1167" y2="-204.647" stroke="#A3876E"/>
<line x1="334.493" y1="148.256" x2="-18.4096" y2="-204.647" stroke="#A3876E"/>
<line x1="361.199" y1="148.256" x2="8.29643" y2="-204.647" stroke="#A3876E"/>
<line x1="387.905" y1="148.256" x2="35.0025" y2="-204.647" stroke="#A3876E"/>
<line x1="414.614" y1="148.256" x2="61.7115" y2="-204.647" stroke="#A3876E"/>
<line x1="441.318" y1="148.256" x2="88.4156" y2="-204.647" stroke="#A3876E"/>
<line x1="468.023" y1="148.256" x2="115.121" y2="-204.647" stroke="#A3876E"/>
<line x1="494.729" y1="148.256" x2="141.827" y2="-204.647" stroke="#A3876E"/>
</g>
<defs>
<clipPath id="clip0_4265_14437">
<rect width="832" height="508" rx="4" fill="white"/>
</clipPath>
</defs>
</svg>
