<svg width="152" height="152" viewBox="0 0 152 152" fill="none" xmlns="http://www.w3.org/2000/svg">
<g clip-path="url(#clip0_4898_20966)">
<rect x="0.000976562" y="-0.00195312" width="152" height="152" fill="#09151E"/>
<g clip-path="url(#clip1_4898_20966)">
<path d="M76 43.799C93.7551 43.799 108.2 58.2439 108.2 75.999C108.2 93.7542 93.7551 108.199 76 108.199C58.2449 108.199 43.8 93.7542 43.8 75.999C43.8 58.2439 58.2449 43.799 76 43.799ZM76 40.999C56.67 40.999 41 56.669 41 75.999C41 95.329 56.67 110.999 76 110.999C95.33 110.999 111 95.329 111 75.999C111 56.669 95.33 40.999 76 40.999Z" fill="#A3876E"/>
<path fill-rule="evenodd" clip-rule="evenodd" d="M95.546 55.751L93.7396 54.0684C93.4157 53.7668 92.9895 53.599 92.5468 53.599H77.9076C77.4092 53.599 76.9271 53.7762 76.5474 54.099L74.6847 55.6825C73.5448 54.1855 71.7159 53.249 69.501 53.249C65.2484 53.249 61.1931 56.6964 60.4433 60.949C59.9673 63.6485 60.9433 66.0167 62.8036 67.3908L59.7689 84.6015C57.4191 85.9747 55.6036 88.3458 55.1269 91.049C54.3771 95.3016 57.2166 98.749 61.4692 98.749C63.726 98.749 65.9272 97.778 67.6083 96.2311L69.4319 97.9296C69.7558 98.2313 70.182 98.399 70.6246 98.399H85.2639C85.7623 98.399 86.2444 98.2218 86.6241 97.899L88.7531 96.0891C89.1257 95.7724 89.3761 95.3355 89.4611 94.8538L90.6457 88.1354C90.7487 87.5515 90.5489 86.9551 90.115 86.551L88.3086 84.8684C87.9846 84.5668 87.5585 84.399 87.1158 84.399H82.9046L82.4108 87.199H88.0108L86.5296 95.599H69.7296L71.2108 87.199H76.8108L77.3046 84.399H72.4765C71.9782 84.399 71.4961 84.5762 71.1164 84.899L69.633 86.1601C69.243 85.558 68.7473 85.0364 68.1677 84.608L71.2029 67.3953C71.986 66.9371 72.7079 66.369 73.3418 65.7129L74.8629 67.1296C75.1868 67.4313 75.613 67.599 76.0557 67.599H80.2669L80.7607 64.799H75.1607L76.6418 56.399H93.4418L91.9607 64.799H86.3607L85.8669 67.599H90.695C91.1933 67.599 91.6754 67.4218 92.0551 67.099L94.1841 65.2891C94.5567 64.9724 94.8071 64.5355 94.8921 64.0538L96.0767 57.3354C96.1797 56.7515 95.9799 56.1551 95.546 55.751ZM65.0595 86.3559C66.9739 86.9602 68.1179 88.8315 67.7269 91.049C67.2497 93.7552 64.6691 95.949 61.9629 95.949C59.2567 95.949 57.4497 93.7552 57.9269 91.049C58.3186 88.8279 60.1279 86.9544 62.26 86.3533L65.9119 65.6425C63.9968 65.0386 62.8522 63.167 63.2433 60.949C63.7205 58.2428 66.3011 56.049 69.0073 56.049C71.7135 56.049 73.5205 58.2428 73.0433 60.949C72.6517 63.1697 70.8431 65.0429 68.7116 65.6444L65.0595 86.3559Z" fill="#A3876E"/>
<path d="M73.3721 80.8999H74.0721L74.3313 79.4299H75.5563L75.6673 78.8001L74.4424 78.7999L74.5781 78.0299H76.3281L76.4392 77.3999H73.9892L73.3721 80.8999Z" fill="#A3876E"/>
<path d="M76.5225 80.8999H77.2225L77.8396 77.3999H77.1396L76.5225 80.8999Z" fill="#A3876E"/>
<path d="M78.4336 78.0299H79.4838L78.9722 80.8999H79.6722L80.1783 78.0299H81.2283L81.3393 77.3999H78.5393L78.4336 78.0299Z" fill="#A3876E"/>
<path d="M83.8975 79.7624L82.739 77.3999H82.039L81.4219 80.8999H82.1219L82.5385 78.5373L83.6969 80.8999H84.3969L85.014 77.3999H84.314L83.8975 79.7624Z" fill="#A3876E"/>
<path d="M85.4473 80.8999H87.8973L88.0083 80.2699H86.2583L86.4065 79.4299H87.6315L87.7426 78.7996L86.5176 78.7999L86.6533 78.0299H88.4034L88.5144 77.3999H86.0644L85.4473 80.8999Z" fill="#A3876E"/>
<path d="M89.2972 77.9205L89.1252 78.8961C89.076 79.1746 89.2902 79.43 89.5731 79.4301L90.9588 79.4306L90.8107 80.2699H88.8835L88.7725 80.8999H90.8682C91.1739 80.8999 91.4355 80.6804 91.4886 80.3793L91.673 79.3334C91.7222 79.0548 91.5078 78.7993 91.2248 78.7994L89.8408 78.7999L89.9785 78.0299H91.7278L91.839 77.3999H89.9176C89.6119 77.3999 89.3503 77.6194 89.2972 77.9205Z" fill="#A3876E"/>
<path d="M79.0327 74.5996H79.7327L79.9795 73.1996L81.5748 71.0996H80.789L79.7626 72.4996L79.2106 71.0996H78.4248L79.281 73.1991L79.0327 74.5996Z" fill="#A3876E"/>
<path d="M82.1834 74.5996L82.591 72.2856L83.2819 73.8996H83.4304L84.691 72.2856L84.2834 74.5996H84.9834L85.6006 71.0996H84.9006L83.5443 72.8365L82.8006 71.0996H82.1006L81.4834 74.5996H82.1834Z" fill="#A3876E"/>
<path d="M95.2269 78.0299L95.338 77.3999H93.4167C93.1109 77.3999 92.8493 77.6194 92.7962 77.9205L92.6242 78.8961C92.5751 79.1746 92.7893 79.43 93.0721 79.4301L94.4578 79.4306L94.3097 80.2699H92.3826L92.2715 80.8999H94.3672C94.673 80.8999 94.9346 80.6804 94.9877 80.3793L95.1721 79.3334C95.2212 79.0548 95.0068 78.7993 94.7238 78.7994L93.3398 78.7999L93.4776 78.0299H95.2269Z" fill="#A3876E"/>
<path d="M75.0253 74.5998L76.7556 74.6004C77.061 74.5999 77.322 74.3805 77.375 74.0798L77.6537 72.4996H76.2537L76.1426 73.1296H76.8426L76.6945 73.9696H75.2945L75.6895 71.7296H77.6145L77.7256 71.0996H75.6291C75.3234 71.0996 75.0619 71.3191 75.0087 71.6202L74.5774 74.0658C74.5282 74.3443 74.7424 74.5997 75.0253 74.5998Z" fill="#A3876E"/>
<path d="M87.4502 74.5996H88.2514C88.4009 74.5996 88.5455 74.5464 88.6594 74.4496L89.0372 74.1285L89.358 74.5996H90.233L89.5858 73.6621L90.233 73.1119L89.8724 72.6746L89.2621 73.1933L88.4208 71.9746L88.4641 71.7296H89.1641L89.09 72.1496H89.79L89.881 71.6336C89.9301 71.355 89.7158 71.0996 89.4329 71.0996H88.4038C88.098 71.0996 87.8364 71.3191 87.7834 71.6202L87.7221 71.9674C87.7015 72.0842 87.7273 72.2045 87.7941 72.3025L87.9466 72.5265L87.3278 73.0526C87.216 73.1476 87.1409 73.2787 87.1154 73.4232L87.0022 74.0656C86.953 74.3442 87.1674 74.5996 87.4502 74.5996ZM87.824 73.3746L88.2674 72.9977L88.7164 73.6571L88.3487 73.9696H87.7191L87.824 73.3746Z" fill="#A3876E"/>
</g>
</g>
<defs>
<clipPath id="clip0_4898_20966">
<rect y="-0.000976562" width="152" height="152" rx="4" fill="white"/>
</clipPath>
<clipPath id="clip1_4898_20966">
<rect width="70" height="70" fill="white" transform="translate(41 40.999)"/>
</clipPath>
</defs>
</svg>
