<svg width="152" height="152" viewBox="0 0 152 152" fill="none" xmlns="http://www.w3.org/2000/svg">
<g clip-path="url(#clip0_4898_21021)">
<rect y="-0.000976562" width="152" height="152" fill="#09151E"/>
<g clip-path="url(#clip1_4898_21021)">
<path d="M76 43.8C93.7551 43.8 108.2 58.2449 108.2 76C108.2 93.7552 93.7551 108.2 76 108.2C58.2449 108.2 43.8 93.7552 43.8 76C43.8 58.2448 58.2449 43.8 76 43.8ZM76 41C56.67 41 41 56.67 41 76C41 95.3299 56.67 111 76 111C95.33 111 111 95.3299 111 76C111 56.67 95.33 41 76 41Z" fill="white"/>
<path fill-rule="evenodd" clip-rule="evenodd" d="M95.546 55.7524L93.7396 54.0699C93.4157 53.7682 92.9895 53.6005 92.5468 53.6005H77.9076C77.4092 53.6005 76.9271 53.7777 76.5474 54.1005L74.6847 55.684C73.5448 54.187 71.7159 53.2505 69.501 53.2505C65.2484 53.2505 61.1931 56.6979 60.4433 60.9505C59.9673 63.65 60.9433 66.0182 62.8036 67.3923L59.7689 84.603C57.4191 85.9762 55.6036 88.3472 55.1269 91.0505C54.3771 95.3031 57.2166 98.7505 61.4692 98.7505C63.726 98.7505 65.9272 97.7795 67.6083 96.2326L69.4319 97.9311C69.7558 98.2327 70.182 98.4005 70.6246 98.4005H85.2639C85.7623 98.4005 86.2444 98.2232 86.6241 97.9005L88.7531 96.0906C89.1257 95.7738 89.3761 95.3369 89.4611 94.8553L90.6457 88.1369C90.7487 87.5529 90.5489 86.9566 90.115 86.5524L88.3086 84.8699C87.9846 84.5682 87.5585 84.4005 87.1158 84.4005H82.9046L82.4108 87.2005H88.0108L86.5296 95.6005H69.7296L71.2108 87.2005H76.8108L77.3046 84.4005H72.4765C71.9782 84.4005 71.4961 84.5777 71.1164 84.9005L69.633 86.1615C69.243 85.5595 68.7473 85.0378 68.1677 84.6095L71.2029 67.3967C71.986 66.9386 72.7079 66.3705 73.3418 65.7143L74.8629 67.1311C75.1868 67.4328 75.613 67.6005 76.0557 67.6005H80.2669L80.7607 64.8005H75.1607L76.6418 56.4005H93.4418L91.9607 64.8005H86.3607L85.8669 67.6005H90.695C91.1933 67.6005 91.6754 67.4232 92.0551 67.1005L94.1841 65.2906C94.5567 64.9738 94.8071 64.5369 94.8921 64.0553L96.0767 57.3369C96.1797 56.7529 95.9799 56.1566 95.546 55.7524ZM65.0595 86.3574C66.9739 86.9617 68.1179 88.833 67.7269 91.0505C67.2497 93.7567 64.6691 95.9505 61.9629 95.9505C59.2567 95.9505 57.4497 93.7567 57.9269 91.0505C58.3186 88.8293 60.1279 86.9559 62.26 86.3548L65.9119 65.6439C63.9968 65.04 62.8522 63.1685 63.2433 60.9505C63.7205 58.2443 66.3011 56.0505 69.0073 56.0505C71.7135 56.0505 73.5205 58.2443 73.0433 60.9505C72.6517 63.1712 70.8431 65.0443 68.7116 65.6459L65.0595 86.3574Z" fill="white"/>
<path d="M73.3721 80.8999H74.0721L74.3313 79.4299H75.5563L75.6673 78.8001L74.4424 78.7999L74.5781 78.0299H76.3281L76.4392 77.3999H73.9892L73.3721 80.8999Z" fill="white"/>
<path d="M76.5225 80.8999H77.2225L77.8396 77.3999H77.1396L76.5225 80.8999Z" fill="white"/>
<path d="M78.4336 78.0299H79.4838L78.9722 80.8999H79.6722L80.1783 78.0299H81.2283L81.3393 77.3999H78.5393L78.4336 78.0299Z" fill="white"/>
<path d="M83.8975 79.7624L82.739 77.3999H82.039L81.4219 80.8999H82.1219L82.5385 78.5373L83.6969 80.8999H84.3969L85.014 77.3999H84.314L83.8975 79.7624Z" fill="white"/>
<path d="M85.4473 80.8999H87.8973L88.0083 80.2699H86.2583L86.4065 79.4299H87.6315L87.7426 78.7996L86.5176 78.7999L86.6533 78.0299H88.4034L88.5144 77.3999H86.0644L85.4473 80.8999Z" fill="white"/>
<path d="M89.2972 77.9205L89.1252 78.8961C89.076 79.1746 89.2902 79.43 89.5731 79.4301L90.9588 79.4306L90.8107 80.2699H88.8835L88.7725 80.8999H90.8682C91.1739 80.8999 91.4355 80.6804 91.4886 80.3793L91.673 79.3334C91.7222 79.0548 91.5078 78.7993 91.2248 78.7994L89.8408 78.7999L89.9785 78.0299H91.7278L91.839 77.3999H89.9176C89.6119 77.3999 89.3503 77.6194 89.2972 77.9205Z" fill="white"/>
<path d="M79.0327 74.6001H79.7327L79.9795 73.2001L81.5748 71.1001H80.789L79.7626 72.5001L79.2106 71.1001H78.4248L79.281 73.1996L79.0327 74.6001Z" fill="white"/>
<path d="M82.1834 74.6001L82.591 72.2861L83.2819 73.9001H83.4304L84.691 72.2861L84.2834 74.6001H84.9834L85.6006 71.1001H84.9006L83.5443 72.837L82.8006 71.1001H82.1006L81.4834 74.6001H82.1834Z" fill="white"/>
<path d="M95.2269 78.0299L95.338 77.3999H93.4167C93.1109 77.3999 92.8493 77.6194 92.7962 77.9205L92.6242 78.8961C92.5751 79.1746 92.7893 79.43 93.0721 79.4301L94.4578 79.4306L94.3097 80.2699H92.3826L92.2715 80.8999H94.3672C94.673 80.8999 94.9346 80.6804 94.9877 80.3793L95.1721 79.3334C95.2212 79.0548 95.0068 78.7993 94.7238 78.7994L93.3398 78.7999L93.4776 78.0299H95.2269Z" fill="white"/>
<path d="M75.0253 74.6003L76.7556 74.6009C77.061 74.6004 77.322 74.381 77.375 74.0803L77.6537 72.5001H76.2537L76.1426 73.1301H76.8426L76.6945 73.9701H75.2945L75.6895 71.7301H77.6145L77.7256 71.1001H75.6291C75.3234 71.1001 75.0619 71.3196 75.0087 71.6207L74.5774 74.0663C74.5282 74.3448 74.7424 74.6002 75.0253 74.6003Z" fill="white"/>
<path d="M87.4502 74.6001H88.2514C88.4009 74.6001 88.5455 74.5469 88.6594 74.4501L89.0372 74.129L89.358 74.6001H90.233L89.5858 73.6626L90.233 73.1124L89.8724 72.6751L89.2621 73.1938L88.4208 71.9751L88.4641 71.7301H89.1641L89.09 72.1501H89.79L89.881 71.6341C89.9301 71.3555 89.7158 71.1001 89.4329 71.1001H88.4038C88.098 71.1001 87.8364 71.3196 87.7834 71.6207L87.7221 71.9679C87.7015 72.0847 87.7273 72.205 87.7941 72.303L87.9466 72.527L87.3278 73.0531C87.216 73.1481 87.1409 73.2792 87.1154 73.4237L87.0022 74.0661C86.953 74.3447 87.1674 74.6001 87.4502 74.6001ZM87.824 73.3751L88.2674 72.9982L88.7164 73.6576L88.3487 73.9701H87.7191L87.824 73.3751Z" fill="white"/>
</g>
</g>
<defs>
<clipPath id="clip0_4898_21021">
<rect y="-0.000976562" width="152" height="152" rx="4" fill="white"/>
</clipPath>
<clipPath id="clip1_4898_21021">
<rect width="70" height="70" fill="white" transform="translate(41 41)"/>
</clipPath>
</defs>
</svg>
