<svg width="152" height="152" viewBox="0 0 152 152" fill="none" xmlns="http://www.w3.org/2000/svg">
<g clip-path="url(#clip0_4898_21003)">
<rect x="0.000976562" y="-0.000976562" width="152" height="152" fill="white"/>
<g clip-path="url(#clip1_4898_21003)">
<path d="M76.001 43.7995C93.7561 43.7995 108.201 58.2444 108.201 75.9995C108.201 93.7547 93.7561 108.2 76.001 108.2C58.2458 108.2 43.801 93.7547 43.801 75.9995C43.801 58.2444 58.2458 43.7995 76.001 43.7995ZM76.001 40.9995C56.671 40.9995 41.001 56.6695 41.001 75.9995C41.001 95.3295 56.671 111 76.001 111C95.3309 111 111.001 95.3295 111.001 75.9995C111.001 56.6695 95.3309 40.9995 76.001 40.9995Z" fill="#09151E"/>
<path fill-rule="evenodd" clip-rule="evenodd" d="M95.547 55.7514L93.7406 54.0689C93.4166 53.7672 92.9905 53.5995 92.5478 53.5995H77.9085C77.4102 53.5995 76.9281 53.7767 76.5484 54.0995L74.6857 55.683C73.5458 54.186 71.7169 53.2495 69.502 53.2495C65.2494 53.2495 61.1941 56.6969 60.4443 60.9495C59.9683 63.649 60.9443 66.0172 62.8046 67.3913L59.7698 84.602C57.4201 85.9752 55.6046 88.3463 55.1279 91.0495C54.378 95.3021 57.2176 98.7495 61.4702 98.7495C63.727 98.7495 65.9281 97.7785 67.6093 96.2316L69.4329 97.9301C69.7568 98.2318 70.183 98.3995 70.6256 98.3995H85.2649C85.7632 98.3995 86.2454 98.2223 86.625 97.8995L88.7541 96.0896C89.1267 95.7728 89.3771 95.3359 89.462 94.8543L90.6467 88.1359C90.7497 87.552 90.5499 86.9556 90.116 86.5514L88.3095 84.8689C87.9856 84.5673 87.5594 84.3995 87.1168 84.3995H82.9055L82.4118 87.1995H88.0118L86.5306 95.5995H69.7306L71.2118 87.1995H76.8118L77.3055 84.3995H72.4775C71.9792 84.3995 71.4971 84.5767 71.1174 84.8995L69.634 86.1606C69.244 85.5585 68.7483 85.0369 68.1687 84.6085L71.2038 67.3958C71.9869 66.9376 72.7089 66.3695 73.3428 65.7133L74.8639 67.1301C75.1878 67.4318 75.614 67.5995 76.0566 67.5995H80.2679L80.7616 64.7995H75.1616L76.6428 56.3995H93.4428L91.9616 64.7995H86.3616L85.8679 67.5995H90.6959C91.1943 67.5995 91.6764 67.4223 92.0561 67.0995L94.1851 65.2896C94.5577 64.9728 94.8081 64.5359 94.893 64.0543L96.0777 57.3359C96.1807 56.752 95.9809 56.1556 95.547 55.7514ZM65.0605 86.3564C66.9749 86.9607 68.1189 88.832 67.7279 91.0495C67.2507 93.7557 64.6701 95.9495 61.9639 95.9495C59.2577 95.9495 57.4507 93.7557 57.9279 91.0495C58.3196 88.8283 60.1289 86.9549 62.2609 86.3538L65.9129 65.6429C63.9978 65.039 62.8532 63.1675 63.2443 60.9495C63.7215 58.2433 66.3021 56.0495 69.0083 56.0495C71.7145 56.0495 73.5215 58.2433 73.0443 60.9495C72.6527 63.1702 70.8441 65.0434 68.7126 65.6449L65.0605 86.3564Z" fill="#09151E"/>
<path d="M73.373 80.8994H74.073L74.3323 79.4294H75.5573L75.6683 78.7996L74.4433 78.7994L74.5791 78.0294H76.3291L76.4402 77.3994H73.9902L73.373 80.8994Z" fill="#09151E"/>
<path d="M76.5234 80.8994H77.2235L77.8406 77.3994H77.1406L76.5234 80.8994Z" fill="#09151E"/>
<path d="M78.4346 78.0294H79.4848L78.9732 80.8994H79.6732L80.1792 78.0294H81.2292L81.3403 77.3994H78.5403L78.4346 78.0294Z" fill="#09151E"/>
<path d="M83.8984 79.7619L82.74 77.3994H82.04L81.4229 80.8994H82.1229L82.5395 78.5368L83.6979 80.8994H84.3979L85.015 77.3994H84.315L83.8984 79.7619Z" fill="#09151E"/>
<path d="M85.4482 80.8994H87.8982L88.0093 80.2694H86.2593L86.4075 79.4294H87.6325L87.7436 78.7992L86.5185 78.7994L86.6543 78.0294H88.4044L88.5154 77.3994H86.0654L85.4482 80.8994Z" fill="#09151E"/>
<path d="M89.2982 77.92L89.1261 78.8956C89.077 79.1741 89.2912 79.4295 89.5741 79.4296L90.9598 79.4301L90.8117 80.2694H88.8845L88.7734 80.8994H90.8692C91.1749 80.8994 91.4365 80.6799 91.4896 80.3788L91.674 79.333C91.7231 79.0543 91.5087 78.7989 91.2258 78.7989L89.8417 78.7994L89.9795 78.0294H91.7288L91.84 77.3994H89.9186C89.6129 77.3994 89.3513 77.6189 89.2982 77.92Z" fill="#09151E"/>
<path d="M79.0346 74.5996H79.7346L79.9815 73.1996L81.5768 71.0996H80.7909L79.7645 72.4996L79.2126 71.0996H78.4268L79.283 73.1991L79.0346 74.5996Z" fill="#09151E"/>
<path d="M82.1844 74.5996L82.592 72.2856L83.2829 73.8996H83.4314L84.692 72.2856L84.2844 74.5996H84.9844L85.6015 71.0996H84.9015L83.5453 72.8365L82.8015 71.0996H82.1015L81.4844 74.5996H82.1844Z" fill="#09151E"/>
<path d="M95.2278 78.0294L95.339 77.3994H93.4176C93.1119 77.3994 92.8503 77.6189 92.7972 77.92L92.6252 78.8956C92.5761 79.1741 92.7903 79.4295 93.0731 79.4296L94.4588 79.4301L94.3107 80.2694H92.3835L92.2725 80.8994H94.3682C94.6739 80.8994 94.9355 80.6799 94.9886 80.3788L95.1731 79.333C95.2222 79.0543 95.0078 78.7989 94.7248 78.7989L93.3408 78.7994L93.4785 78.0294H95.2278Z" fill="#09151E"/>
<path d="M75.0263 74.5998L76.7566 74.6004C77.0619 74.5999 77.323 74.3805 77.376 74.0798L77.6547 72.4996H76.2547L76.1436 73.1296H76.8436L76.6955 73.9696H75.2955L75.6905 71.7296H77.6155L77.7265 71.0996H75.6301C75.3244 71.0996 75.0628 71.3191 75.0097 71.6202L74.5783 74.0658C74.5292 74.3443 74.7434 74.5997 75.0263 74.5998Z" fill="#09151E"/>
<path d="M87.4512 74.5996H88.2524C88.4019 74.5996 88.5465 74.5464 88.6604 74.4496L89.0382 74.1285L89.359 74.5996H90.234L89.5868 73.6621L90.234 73.1119L89.8734 72.6746L89.2631 73.1933L88.4218 71.9746L88.465 71.7296H89.165L89.091 72.1496H89.791L89.882 71.6336C89.9311 71.355 89.7168 71.0996 89.4339 71.0996H88.4048C88.099 71.0996 87.8374 71.3191 87.7843 71.6202L87.7231 71.9674C87.7025 72.0842 87.7283 72.2045 87.7951 72.3025L87.9476 72.5265L87.3288 73.0526C87.217 73.1476 87.1419 73.2787 87.1164 73.4232L87.0031 74.0656C86.954 74.3442 87.1683 74.5996 87.4512 74.5996ZM87.825 73.3746L88.2684 72.9977L88.7173 73.6571L88.3497 73.9696H87.7201L87.825 73.3746Z" fill="#09151E"/>
</g>
</g>
<defs>
<clipPath id="clip0_4898_21003">
<rect y="-0.000976562" width="152" height="152" rx="4" fill="white"/>
</clipPath>
<clipPath id="clip1_4898_21003">
<rect width="70" height="70" fill="white" transform="translate(41 40.999)"/>
</clipPath>
</defs>
</svg>
