<svg width="152" height="153" viewBox="0 0 152 153" fill="none" xmlns="http://www.w3.org/2000/svg">
<g clip-path="url(#clip0_4898_20899)">
<rect y="0.600586" width="152" height="152" rx="4" fill="#09151E"/>
<rect x="-0.000976562" y="0.599609" width="152" height="152" fill="#181F26"/>
<g clip-path="url(#clip1_4898_20899)">
<path d="M76 111.6C95.33 111.6 111 95.9301 111 76.6001C111 57.2701 95.33 41.6001 76 41.6001C56.67 41.6001 41 57.2701 41 76.6001C41 95.9301 56.67 111.6 76 111.6Z" fill="white"/>
<path fill-rule="evenodd" clip-rule="evenodd" d="M95.546 56.3515L93.7396 54.669C93.4157 54.3673 92.9895 54.1996 92.5468 54.1996H77.9076C77.4092 54.1996 76.9271 54.3768 76.5474 54.6996L74.6847 56.2831C73.5448 54.7861 71.7159 53.8496 69.501 53.8496C65.2484 53.8496 61.1931 57.297 60.4433 61.5496C59.9673 64.2491 60.9433 66.6173 62.8036 67.9914L59.7689 85.2021C57.4191 86.5753 55.6036 88.9464 55.1269 91.6496C54.3771 95.9022 57.2166 99.3496 61.4692 99.3496C63.726 99.3496 65.9272 98.3786 67.6083 96.8317L69.4319 98.5302C69.7558 98.8319 70.182 98.9996 70.6246 98.9996H85.2639C85.7623 98.9996 86.2444 98.8224 86.6241 98.4996L88.7531 96.6897C89.1257 96.3729 89.3761 95.936 89.461 95.4544L90.6457 88.736C90.7487 88.1521 90.5489 87.5557 90.115 87.1515L88.3086 85.469C87.9846 85.1673 87.5585 84.9996 87.1158 84.9996H82.9046L82.4108 87.7996H88.0108L86.5296 96.1996H69.7296L71.2108 87.7996H76.8108L77.3046 84.9996H72.4765C71.9782 84.9996 71.4961 85.1768 71.1164 85.4996L69.633 86.7607C69.243 86.1586 68.7473 85.637 68.1677 85.2086L71.2029 67.9959C71.986 67.5377 72.7079 66.9696 73.3418 66.3134L74.8629 67.7302C75.1868 68.0319 75.613 68.1996 76.0557 68.1996H80.2669L80.7607 65.3996H75.1607L76.6418 56.9996H93.4418L91.9607 65.3996H86.3607L85.8669 68.1996H90.695C91.1933 68.1996 91.6754 68.0224 92.0551 67.6996L94.1841 65.8897C94.5567 65.5729 94.8071 65.136 94.8921 64.6544L96.0767 57.936C96.1797 57.3521 95.9799 56.7557 95.546 56.3515ZM65.0595 86.9565C66.9739 87.5608 68.1179 89.4321 67.7269 91.6496C67.2497 94.3558 64.6691 96.5496 61.9629 96.5496C59.2567 96.5496 57.4497 94.3558 57.9269 91.6496C58.3186 89.4284 60.1279 87.555 62.26 86.9539L65.9119 66.243C63.9968 65.6391 62.8522 63.7676 63.2433 61.5496C63.7205 58.8434 66.3011 56.6496 69.0073 56.6496C71.7135 56.6496 73.5205 58.8434 73.0433 61.5496C72.6517 63.7703 70.8431 65.6435 68.7116 66.245L65.0595 86.9565Z" fill="#A3876E"/>
<path d="M73.3721 81.501H74.0721L74.3313 80.031H75.5563L75.6673 79.4012L74.4424 79.401L74.5781 78.631H76.3281L76.4392 78.001H73.9892L73.3721 81.501Z" fill="#181F26"/>
<path d="M76.5225 81.501H77.2225L77.8396 78.001H77.1396L76.5225 81.501Z" fill="#181F26"/>
<path d="M78.4336 78.631H79.4838L78.9722 81.501H79.6722L80.1783 78.631H81.2283L81.3393 78.001H78.5393L78.4336 78.631Z" fill="#181F26"/>
<path d="M83.8975 80.3635L82.739 78.001H82.039L81.4219 81.501H82.1219L82.5385 79.1383L83.6969 81.501H84.3969L85.014 78.001H84.314L83.8975 80.3635Z" fill="#181F26"/>
<path d="M85.4463 81.501H87.8963L88.0074 80.871H86.2574L86.4055 80.031H87.6305L87.7416 79.4007L86.5166 79.401L86.6524 78.631H88.4024L88.5134 78.001H86.0634L85.4463 81.501Z" fill="#181F26"/>
<path d="M89.2972 78.5216L89.1252 79.4972C89.076 79.7757 89.2902 80.0311 89.5731 80.0312L90.9588 80.0317L90.8107 80.871H88.8835L88.7725 81.501H90.8682C91.1739 81.501 91.4355 81.2815 91.4886 80.9804L91.673 79.9345C91.7222 79.6559 91.5078 79.4004 91.2248 79.4005L89.8408 79.401L89.9785 78.631H91.7278L91.839 78.001H89.9176C89.6119 78.001 89.3503 78.2205 89.2972 78.5216Z" fill="#181F26"/>
<path d="M79.0336 75.2007H79.7336L79.9805 73.8007L81.5758 71.7007H80.7899L79.7635 73.1007L79.2116 71.7007H78.4258L79.282 73.8002L79.0336 75.2007Z" fill="#181F26"/>
<path d="M82.1834 75.2007L82.591 72.8867L83.2819 74.5007H83.4304L84.691 72.8867L84.2834 75.2007H84.9834L85.6006 71.7007H84.9006L83.5443 73.4376L82.8006 71.7007H82.1006L81.4834 75.2007H82.1834Z" fill="#181F26"/>
<path d="M95.2269 78.631L95.338 78.001H93.4167C93.1109 78.001 92.8493 78.2205 92.7962 78.5216L92.6242 79.4972C92.5751 79.7757 92.7893 80.0311 93.0721 80.0312L94.4578 80.0317L94.3097 80.871H92.3826L92.2715 81.501H94.3672C94.673 81.501 94.9346 81.2815 94.9877 80.9804L95.1721 79.9345C95.2212 79.6559 95.0068 79.4004 94.7238 79.4005L93.3398 79.401L93.4776 78.631H95.2269Z" fill="#181F26"/>
<path d="M75.0253 75.2009L76.7556 75.2015C77.061 75.201 77.322 74.9816 77.375 74.6809L77.6537 73.1007H76.2537L76.1426 73.7307H76.8426L76.6945 74.5707H75.2945L75.6895 72.3307H77.6145L77.7256 71.7007H75.6291C75.3234 71.7007 75.0619 71.9202 75.0087 72.2212L74.5774 74.6668C74.5282 74.9454 74.7424 75.2008 75.0253 75.2009Z" fill="#181F26"/>
<path d="M87.4502 75.2007H88.2514C88.4009 75.2007 88.5455 75.1475 88.6594 75.0507L89.0372 74.7295L89.358 75.2007H90.233L89.5858 74.2632L90.233 73.713L89.8724 73.2757L89.2621 73.7944L88.4209 72.5757L88.4641 72.3307H89.1641L89.09 72.7507H89.79L89.881 72.2347C89.9301 71.9561 89.7158 71.7007 89.4329 71.7007H88.4038C88.098 71.7007 87.8364 71.9202 87.7834 72.2213L87.7221 72.5685C87.7015 72.6853 87.7273 72.8055 87.7941 72.9036L87.9466 73.1276L87.3278 73.6536C87.216 73.7487 87.1409 73.8797 87.1154 74.0242L87.0022 74.6667C86.953 74.9453 87.1674 75.2007 87.4502 75.2007ZM87.824 73.9757L88.2674 73.5987L88.7164 74.2582L88.3487 74.5707H87.7191L87.824 73.9757Z" fill="#181F26"/>
</g>
</g>
<defs>
<clipPath id="clip0_4898_20899">
<rect y="0.600586" width="152" height="152" rx="4" fill="white"/>
</clipPath>
<clipPath id="clip1_4898_20899">
<rect width="70" height="70" fill="white" transform="translate(41 41.6006)"/>
</clipPath>
</defs>
</svg>
