<svg width="152" height="152" viewBox="0 0 152 152" fill="none" xmlns="http://www.w3.org/2000/svg">
<rect y="-0.000976562" width="152" height="152" rx="4" fill="#A3876E"/>
<g clip-path="url(#clip0_4898_20984)">
<path d="M76 43.799C93.7551 43.799 108.2 58.2439 108.2 75.999C108.2 93.7542 93.7551 108.199 76 108.199C58.2449 108.199 43.8 93.7542 43.8 75.999C43.8 58.2439 58.2449 43.799 76 43.799ZM76 40.999C56.67 40.999 41 56.669 41 75.999C41 95.329 56.67 110.999 76 110.999C95.33 110.999 111 95.329 111 75.999C111 56.669 95.33 40.999 76 40.999Z" fill="white"/>
<path fill-rule="evenodd" clip-rule="evenodd" d="M95.546 55.751L93.7396 54.0684C93.4157 53.7668 92.9895 53.599 92.5468 53.599H77.9076C77.4092 53.599 76.9271 53.7762 76.5474 54.099L74.6847 55.6825C73.5448 54.1855 71.7159 53.249 69.501 53.249C65.2484 53.249 61.1931 56.6964 60.4433 60.949C59.9673 63.6485 60.9433 66.0167 62.8036 67.3908L59.7689 84.6015C57.4191 85.9747 55.6036 88.3458 55.1269 91.049C54.3771 95.3016 57.2166 98.749 61.4692 98.749C63.726 98.749 65.9272 97.778 67.6083 96.2311L69.4319 97.9296C69.7558 98.2313 70.182 98.399 70.6246 98.399H85.2639C85.7623 98.399 86.2444 98.2218 86.6241 97.899L88.7531 96.0891C89.1257 95.7724 89.3761 95.3355 89.4611 94.8538L90.6457 88.1354C90.7487 87.5515 90.5489 86.9551 90.115 86.551L88.3086 84.8684C87.9846 84.5668 87.5585 84.399 87.1158 84.399H82.9046L82.4108 87.199H88.0108L86.5296 95.599H69.7296L71.2108 87.199H76.8108L77.3046 84.399H72.4765C71.9782 84.399 71.4961 84.5762 71.1164 84.899L69.633 86.1601C69.243 85.558 68.7473 85.0364 68.1677 84.608L71.2029 67.3953C71.986 66.9371 72.7079 66.369 73.3418 65.7129L74.8629 67.1296C75.1868 67.4313 75.613 67.599 76.0557 67.599H80.2669L80.7607 64.799H75.1607L76.6418 56.399H93.4418L91.9607 64.799H86.3607L85.8669 67.599H90.695C91.1933 67.599 91.6754 67.4218 92.0551 67.099L94.1841 65.2891C94.5567 64.9724 94.8071 64.5355 94.8921 64.0538L96.0767 57.3354C96.1797 56.7515 95.9799 56.1551 95.546 55.751ZM65.0595 86.3559C66.9739 86.9602 68.1179 88.8315 67.7269 91.049C67.2497 93.7552 64.6691 95.949 61.9629 95.949C59.2567 95.949 57.4497 93.7552 57.9269 91.049C58.3186 88.8279 60.1279 86.9544 62.26 86.3533L65.9119 65.6425C63.9968 65.0386 62.8522 63.167 63.2433 60.949C63.7205 58.2428 66.3011 56.049 69.0073 56.049C71.7135 56.049 73.5205 58.2428 73.0433 60.949C72.6517 63.1697 70.8431 65.0429 68.7116 65.6444L65.0595 86.3559Z" fill="white"/>
<path d="M73.3711 80.8999H74.0711L74.3303 79.4299H75.5553L75.6664 78.8001L74.4414 78.7999L74.5772 78.0299H76.3272L76.4383 77.3999H73.9883L73.3711 80.8999Z" fill="white"/>
<path d="M76.5215 80.8999H77.2215L77.8386 77.3999H77.1386L76.5215 80.8999Z" fill="white"/>
<path d="M78.4326 78.0299H79.4829L78.9712 80.8999H79.6712L80.1773 78.0299H81.2273L81.3384 77.3999H78.5384L78.4326 78.0299Z" fill="white"/>
<path d="M83.8965 79.7624L82.7381 77.3999H82.0381L81.4209 80.8999H82.1209L82.5375 78.5373L83.6959 80.8999H84.3959L85.013 77.3999H84.3131L83.8965 79.7624Z" fill="white"/>
<path d="M85.4463 80.8999H87.8963L88.0074 80.2699H86.2574L86.4055 79.4299H87.6305L87.7416 78.7996L86.5166 78.7999L86.6524 78.0299H88.4024L88.5134 77.3999H86.0634L85.4463 80.8999Z" fill="white"/>
<path d="M89.2962 77.9205L89.1242 78.8961C89.0751 79.1746 89.2893 79.43 89.5721 79.4301L90.9578 79.4306L90.8097 80.2699H88.8826L88.7715 80.8999H90.8672C91.1729 80.8999 91.4346 80.6804 91.4876 80.3793L91.6721 79.3334C91.7212 79.0548 91.5068 78.7993 91.2238 78.7994L89.8398 78.7999L89.9776 78.0299H91.7269L91.838 77.3999H89.9166C89.6109 77.3999 89.3493 77.6194 89.2962 77.9205Z" fill="white"/>
<path d="M79.0317 74.5996H79.7317L79.9785 73.1996L81.5738 71.0996H80.788L79.7616 72.4996L79.2097 71.0996H78.4238L79.2801 73.1991L79.0317 74.5996Z" fill="white"/>
<path d="M82.1824 74.5996L82.59 72.2856L83.2809 73.8996H83.4294L84.69 72.2856L84.2824 74.5996H84.9824L85.5996 71.0996H84.8996L83.5434 72.8365L82.7996 71.0996H82.0996L81.4824 74.5996H82.1824Z" fill="white"/>
<path d="M95.2259 78.0299L95.337 77.3999H93.4157C93.1099 77.3999 92.8483 77.6194 92.7953 77.9205L92.6232 78.8961C92.5741 79.1746 92.7883 79.43 93.0711 79.4301L94.4569 79.4306L94.3087 80.2699H92.3816L92.2705 80.8999H94.3663C94.672 80.8999 94.9336 80.6804 94.9867 80.3793L95.1711 79.3334C95.2202 79.0548 95.0058 78.7993 94.7229 78.7994L93.3388 78.7999L93.4766 78.0299H95.2259Z" fill="white"/>
<path d="M75.0243 74.5998L76.7546 74.6004C77.06 74.5999 77.321 74.3805 77.3741 74.0798L77.6527 72.4996H76.2527L76.1416 73.1296H76.8416L76.6935 73.9696H75.2935L75.6885 71.7296H77.6135L77.7246 71.0996H75.6282C75.3225 71.0996 75.0609 71.3191 75.0078 71.6202L74.5764 74.0658C74.5272 74.3443 74.7415 74.5997 75.0243 74.5998Z" fill="white"/>
<path d="M87.4493 74.5996H88.2504C88.3999 74.5996 88.5445 74.5464 88.6585 74.4496L89.0362 74.1285L89.357 74.5996H90.232L89.5848 73.6621L90.232 73.1119L89.8714 72.6746L89.2612 73.1933L88.4199 71.9746L88.4631 71.7296H89.1631L89.089 72.1496H89.789L89.88 71.6336C89.9291 71.355 89.7148 71.0996 89.4319 71.0996H88.4028C88.0971 71.0996 87.8355 71.3191 87.7824 71.6202L87.7211 71.9674C87.7005 72.0842 87.7264 72.2045 87.7931 72.3025L87.9457 72.5265L87.3268 73.0526C87.215 73.1476 87.1399 73.2787 87.1144 73.4232L87.0012 74.0656C86.952 74.3442 87.1664 74.5996 87.4493 74.5996ZM87.823 73.3746L88.2664 72.9977L88.7154 73.6571L88.3477 73.9696H87.7181L87.823 73.3746Z" fill="white"/>
</g>
<defs>
<clipPath id="clip0_4898_20984">
<rect width="70" height="70" fill="white" transform="translate(41 40.999)"/>
</clipPath>
</defs>
</svg>
