<svg width="152" height="153" viewBox="0 0 152 153" fill="none" xmlns="http://www.w3.org/2000/svg">
<g clip-path="url(#clip0_4898_20936)">
<rect y="0.600586" width="152" height="152" fill="#09151E"/>
<g clip-path="url(#clip1_4898_20936)">
<path d="M76 111.6C95.33 111.6 111 95.9301 111 76.6001C111 57.2701 95.33 41.6001 76 41.6001C56.67 41.6001 41 57.2701 41 76.6001C41 95.9301 56.67 111.6 76 111.6Z" fill="white"/>
<path fill-rule="evenodd" clip-rule="evenodd" d="M95.5451 56.3515L93.7386 54.669C93.4147 54.3673 92.9885 54.1996 92.5459 54.1996H77.9066C77.4082 54.1996 76.9261 54.3768 76.5464 54.6996L74.6837 56.2831C73.5439 54.7861 71.7149 53.8496 69.5001 53.8496C65.2475 53.8496 61.1922 57.297 60.4423 61.5496C59.9663 64.2491 60.9423 66.6173 62.8027 67.9914L59.7679 85.2021C57.4181 86.5753 55.6026 88.9464 55.126 91.6496C54.3761 95.9022 57.2156 99.3496 61.4682 99.3496C63.725 99.3496 65.9262 98.3786 67.6073 96.8317L69.4309 98.5302C69.7548 98.8319 70.181 98.9996 70.6237 98.9996H85.263C85.7613 98.9996 86.2434 98.8224 86.6231 98.4996L88.7521 96.6897C89.1247 96.3729 89.3751 95.936 89.4601 95.4544L90.6447 88.736C90.7477 88.1521 90.5479 87.5557 90.114 87.1515L88.3076 85.469C87.9837 85.1673 87.5575 84.9996 87.1148 84.9996H82.9036L82.4098 87.7996H88.0098L86.5287 96.1996H69.7287L71.2098 87.7996H76.8098L77.3036 84.9996H72.4756C71.9772 84.9996 71.4951 85.1768 71.1154 85.4996L69.632 86.7607C69.242 86.1586 68.7464 85.637 68.1667 85.2086L71.2019 67.9959C71.985 67.5377 72.707 66.9696 73.3408 66.3134L74.862 67.7302C75.1859 68.0319 75.612 68.1996 76.0547 68.1996H80.2659L80.7597 65.3996H75.1597L76.6409 56.9996H93.4409L91.9597 65.3996H86.3597L85.8659 68.1996H90.694C91.1923 68.1996 91.6744 68.0224 92.0541 67.6996L94.1831 65.8897C94.5558 65.5729 94.8062 65.136 94.8911 64.6544L96.0757 57.936C96.1787 57.3521 95.979 56.7557 95.5451 56.3515ZM65.0585 86.9565C66.973 87.5608 68.117 89.4321 67.726 91.6496C67.2488 94.3558 64.6681 96.5496 61.9619 96.5496C59.2557 96.5496 57.4488 94.3558 57.926 91.6496C58.3176 89.4284 60.1269 87.555 62.259 86.9539L65.9109 66.243C63.9958 65.6391 62.8512 63.7676 63.2423 61.5496C63.7195 58.8434 66.3001 56.6496 69.0063 56.6496C71.7125 56.6496 73.5195 58.8434 73.0423 61.5496C72.6508 63.7703 70.8421 65.6435 68.7106 66.245L65.0585 86.9565Z" fill="#09151E"/>
<path d="M73.373 81.501H74.073L74.3323 80.031H75.5573L75.6683 79.4012L74.4433 79.401L74.5791 78.631H76.3291L76.4402 78.001H73.9902L73.373 81.501Z" fill="#09151E"/>
<path d="M76.5225 81.501H77.2225L77.8396 78.001H77.1396L76.5225 81.501Z" fill="#09151E"/>
<path d="M78.4346 78.631H79.4848L78.9732 81.501H79.6732L80.1792 78.631H81.2292L81.3403 78.001H78.5403L78.4346 78.631Z" fill="#09151E"/>
<path d="M83.8984 80.3635L82.74 78.001H82.04L81.4229 81.501H82.1229L82.5395 79.1383L83.6979 81.501H84.3979L85.015 78.001H84.315L83.8984 80.3635Z" fill="#09151E"/>
<path d="M85.4482 81.501H87.8982L88.0093 80.871H86.2593L86.4075 80.031H87.6325L87.7436 79.4007L86.5185 79.401L86.6543 78.631H88.4044L88.5154 78.001H86.0654L85.4482 81.501Z" fill="#09151E"/>
<path d="M89.2982 78.5216L89.1261 79.4972C89.077 79.7757 89.2912 80.0311 89.5741 80.0312L90.9598 80.0317L90.8117 80.871H88.8845L88.7734 81.501H90.8692C91.1749 81.501 91.4365 81.2815 91.4896 80.9804L91.674 79.9345C91.7231 79.6559 91.5087 79.4004 91.2258 79.4005L89.8417 79.401L89.9795 78.631H91.7288L91.84 78.001H89.9186C89.6129 78.001 89.3513 78.2205 89.2982 78.5216Z" fill="#09151E"/>
<path d="M79.0326 75.2007H79.7326L79.9795 73.8007L81.5748 71.7007H80.789L79.7626 73.1007L79.2106 71.7007H78.4248L79.281 73.8002L79.0326 75.2007Z" fill="#09151E"/>
<path d="M82.1844 75.2007L82.592 72.8867L83.2829 74.5007H83.4314L84.692 72.8867L84.2844 75.2007H84.9844L85.6015 71.7007H84.9015L83.5453 73.4376L82.8015 71.7007H82.1015L81.4844 75.2007H82.1844Z" fill="#09151E"/>
<path d="M95.2279 78.631L95.339 78.001H93.4176C93.1119 78.001 92.8503 78.2205 92.7972 78.5216L92.6252 79.4972C92.5761 79.7757 92.7903 80.0311 93.0731 80.0312L94.4588 80.0317L94.3107 80.871H92.3835L92.2725 81.501H94.3682C94.6739 81.501 94.9356 81.2815 94.9886 80.9804L95.1731 79.9345C95.2222 79.6559 95.0078 79.4004 94.7248 79.4005L93.3408 79.401L93.4785 78.631H95.2279Z" fill="#09151E"/>
<path d="M75.0263 75.2009L76.7566 75.2015C77.0619 75.201 77.323 74.9816 77.376 74.6809L77.6547 73.1007H76.2547L76.1436 73.7307H76.8436L76.6955 74.5707H75.2955L75.6905 72.3307H77.6155L77.7265 71.7007H75.6301C75.3244 71.7007 75.0628 71.9202 75.0097 72.2212L74.5783 74.6668C74.5292 74.9454 74.7434 75.2008 75.0263 75.2009Z" fill="#09151E"/>
<path d="M87.4512 75.2007H88.2524C88.4019 75.2007 88.5465 75.1475 88.6604 75.0507L89.0382 74.7295L89.359 75.2007H90.234L89.5868 74.2632L90.234 73.713L89.8734 73.2757L89.2631 73.7944L88.4218 72.5757L88.465 72.3307H89.165L89.091 72.7507H89.791L89.882 72.2347C89.9311 71.9561 89.7168 71.7007 89.4339 71.7007H88.4048C88.099 71.7007 87.8374 71.9202 87.7843 72.2213L87.7231 72.5685C87.7025 72.6853 87.7283 72.8055 87.7951 72.9036L87.9476 73.1276L87.3288 73.6536C87.217 73.7487 87.1419 73.8797 87.1164 74.0242L87.0031 74.6667C86.954 74.9453 87.1683 75.2007 87.4512 75.2007ZM87.825 73.9757L88.2684 73.5987L88.7173 74.2582L88.3497 74.5707H87.7201L87.825 73.9757Z" fill="#09151E"/>
</g>
</g>
<defs>
<clipPath id="clip0_4898_20936">
<rect y="0.600586" width="152" height="152" rx="4" fill="white"/>
</clipPath>
<clipPath id="clip1_4898_20936">
<rect width="70" height="70" fill="white" transform="translate(41 41.6006)"/>
</clipPath>
</defs>
</svg>
