<svg width="152" height="153" viewBox="0 0 152 153" fill="none" xmlns="http://www.w3.org/2000/svg">
<g clip-path="url(#clip0_4898_20918)">
<rect x="0.000976562" y="0.600586" width="152" height="152" fill="white"/>
<g clip-path="url(#clip1_4898_20918)">
<path d="M75.999 111.6C95.329 111.6 110.999 95.9296 110.999 76.5996C110.999 57.2696 95.329 41.5996 75.999 41.5996C56.6691 41.5996 40.999 57.2696 40.999 76.5996C40.999 95.9296 56.6691 111.6 75.999 111.6Z" fill="#09151E"/>
<path fill-rule="evenodd" clip-rule="evenodd" d="M95.5441 56.3511L93.7376 54.6685C93.4137 54.3669 92.9875 54.1991 92.5449 54.1991H77.9056C77.4073 54.1991 76.9251 54.3763 76.5455 54.6991L74.6827 56.2826C73.5429 54.7856 71.7139 53.8491 69.4991 53.8491C65.2465 53.8491 61.1912 57.2965 60.4414 61.5491C59.9654 64.2486 60.9413 66.6168 62.8017 67.9909L59.7669 85.2016C57.4172 86.5748 55.6016 88.9459 55.125 91.6491C54.3751 95.9017 57.2147 99.3491 61.4673 99.3491C63.7241 99.3491 65.9252 98.3781 67.6063 96.8312L69.43 98.5297C69.7539 98.8314 70.18 98.9991 70.6227 98.9991H85.262C85.7603 98.9991 86.2424 98.8219 86.6221 98.4991L88.7511 96.6892C89.1238 96.3725 89.3742 95.9356 89.4591 95.4539L90.6437 88.7355C90.7467 88.1516 90.547 87.5552 90.1131 87.1511L88.3066 85.4685C87.9827 85.1669 87.5565 84.9991 87.1139 84.9991H82.9026L82.4089 87.7991H88.0089L86.5277 96.1991H69.7277L71.2089 87.7991H76.8089L77.3026 84.9991H72.4746C71.9762 84.9991 71.4941 85.1763 71.1144 85.4991L69.631 86.7602C69.241 86.1581 68.7454 85.6365 68.1657 85.2081L71.2009 67.9954C71.984 67.5372 72.706 66.9691 73.3399 66.313L74.861 67.7297C75.1849 68.0314 75.6111 68.1991 76.0537 68.1991H80.265L80.7587 65.3991H75.1587L76.6399 56.9991H93.4399L91.9587 65.3991H86.3587L85.865 68.1991H90.693C91.1913 68.1991 91.6734 68.0219 92.0531 67.6991L94.1822 65.8892C94.5548 65.5725 94.8052 65.1356 94.8901 64.6539L96.0748 57.9355C96.1778 57.3516 95.978 56.7552 95.5441 56.3511ZM65.0575 86.956C66.972 87.5603 68.116 89.4316 67.725 91.6491C67.2478 94.3553 64.6672 96.5491 61.961 96.5491C59.2548 96.5491 57.4478 94.3553 57.925 91.6491C58.3166 89.428 60.1259 87.5545 62.258 86.9534L65.91 66.2425C63.9948 65.6387 62.8503 63.7671 63.2414 61.5491C63.7185 58.8429 66.2992 56.6491 69.0054 56.6491C71.7115 56.6491 73.5185 58.8429 73.0414 61.5491C72.6498 63.7698 70.8411 65.643 68.7096 66.2445L65.0575 86.956Z" fill="white"/>
<path d="M73.3711 81.5005H74.0711L74.3303 80.0305H75.5553L75.6664 79.4007L74.4414 79.4005L74.5772 78.6305H76.3272L76.4382 78.0005H73.9883L73.3711 81.5005Z" fill="white"/>
<path d="M76.5205 81.5005H77.2205L77.8377 78.0005H77.1377L76.5205 81.5005Z" fill="white"/>
<path d="M78.4326 78.6305H79.4829L78.9712 81.5005H79.6712L80.1773 78.6305H81.2273L81.3384 78.0005H78.5384L78.4326 78.6305Z" fill="white"/>
<path d="M83.8965 80.363L82.7381 78.0005H82.0381L81.4209 81.5005H82.1209L82.5375 79.1379L83.6959 81.5005H84.3959L85.013 78.0005H84.3131L83.8965 80.363Z" fill="white"/>
<path d="M85.4463 81.5005H87.8963L88.0074 80.8705H86.2574L86.4055 80.0305H87.6305L87.7416 79.4002L86.5166 79.4005L86.6524 78.6305H88.4024L88.5134 78.0005H86.0634L85.4463 81.5005Z" fill="white"/>
<path d="M89.2962 78.5211L89.1242 79.4967C89.0751 79.7752 89.2893 80.0306 89.5721 80.0307L90.9578 80.0312L90.8097 80.8705H88.8826L88.7715 81.5005H90.8672C91.173 81.5005 91.4346 81.281 91.4876 80.9799L91.6721 79.934C91.7212 79.6554 91.5068 79.3999 91.2238 79.4L89.8398 79.4005L89.9776 78.6305H91.7269L91.838 78.0005H89.9166C89.6109 78.0005 89.3493 78.22 89.2962 78.5211Z" fill="white"/>
<path d="M79.0307 75.2002H79.7307L79.9776 73.8002L81.5729 71.7002H80.787L79.7606 73.1002L79.2087 71.7002H78.4229L79.2791 73.7997L79.0307 75.2002Z" fill="white"/>
<path d="M82.1824 75.2002L82.59 72.8862L83.2809 74.5002H83.4294L84.69 72.8862L84.2824 75.2002H84.9824L85.5996 71.7002H84.8996L83.5433 73.4371L82.7996 71.7002H82.0996L81.4824 75.2002H82.1824Z" fill="white"/>
<path d="M95.2259 78.6305L95.337 78.0005H93.4157C93.1099 78.0005 92.8483 78.22 92.7953 78.5211L92.6232 79.4967C92.5741 79.7752 92.7883 80.0306 93.0711 80.0307L94.4569 80.0312L94.3087 80.8705H92.3816L92.2705 81.5005H94.3663C94.672 81.5005 94.9336 81.281 94.9867 80.9799L95.1711 79.934C95.2202 79.6554 95.0058 79.3999 94.7229 79.4L93.3388 79.4005L93.4766 78.6305H95.2259Z" fill="white"/>
<path d="M75.0243 75.2004L76.7546 75.201C77.06 75.2005 77.321 74.9811 77.3741 74.6804L77.6527 73.1002H76.2527L76.1416 73.7302H76.8416L76.6935 74.5702H75.2935L75.6885 72.3302H77.6135L77.7246 71.7002H75.6282C75.3225 71.7002 75.0609 71.9197 75.0078 72.2208L74.5764 74.6663C74.5272 74.9449 74.7415 75.2003 75.0243 75.2004Z" fill="white"/>
<path d="M87.4493 75.2002H88.2504C88.3999 75.2002 88.5445 75.147 88.6585 75.0502L89.0362 74.729L89.357 75.2002H90.232L89.5848 74.2627L90.232 73.7125L89.8714 73.2752L89.2612 73.7939L88.4199 72.5752L88.4631 72.3302H89.1631L89.089 72.7502H89.789L89.88 72.2342C89.9291 71.9556 89.7148 71.7002 89.4319 71.7002H88.4028C88.0971 71.7002 87.8355 71.9197 87.7824 72.2208L87.7211 72.568C87.7005 72.6848 87.7264 72.8051 87.7931 72.9031L87.9457 73.1271L87.3268 73.6532C87.215 73.7482 87.1399 73.8793 87.1144 74.0238L87.0012 74.6662C86.952 74.9448 87.1664 75.2002 87.4493 75.2002ZM87.823 73.9752L88.2664 73.5983L88.7154 74.2577L88.3477 74.5702H87.7181L87.823 73.9752Z" fill="white"/>
</g>
</g>
<defs>
<clipPath id="clip0_4898_20918">
<rect y="0.600586" width="152" height="152" rx="4" fill="white"/>
</clipPath>
<clipPath id="clip1_4898_20918">
<rect width="70" height="70" fill="white" transform="translate(41 41.6006)"/>
</clipPath>
</defs>
</svg>
