<svg width="152" height="153" viewBox="0 0 152 153" fill="none" xmlns="http://www.w3.org/2000/svg">
<g clip-path="url(#clip0_4898_20881)">
<rect x="0.000976562" y="0.599609" width="152" height="152" fill="white"/>
<g clip-path="url(#clip1_4898_20881)">
<path d="M75.999 111.6C95.329 111.6 110.999 95.9301 110.999 76.6001C110.999 57.2701 95.329 41.6001 75.999 41.6001C56.6691 41.6001 40.999 57.2701 40.999 76.6001C40.999 95.9301 56.6691 111.6 75.999 111.6Z" fill="#09151E"/>
<path fill-rule="evenodd" clip-rule="evenodd" d="M95.5451 56.352L93.7386 54.6695C93.4147 54.3678 92.9885 54.2001 92.5459 54.2001H77.9066C77.4082 54.2001 76.9261 54.3773 76.5464 54.7001L74.6837 56.2836C73.5438 54.7866 71.7149 53.8501 69.5001 53.8501C65.2475 53.8501 61.1922 57.2975 60.4423 61.5501C59.9663 64.2496 60.9423 66.6178 62.8027 67.9919L59.7679 85.2026C57.4181 86.5758 55.6026 88.9468 55.126 91.6501C54.3761 95.9027 57.2156 99.3501 61.4682 99.3501C63.725 99.3501 65.9262 98.3791 67.6073 96.8322L69.4309 98.5307C69.7548 98.8324 70.181 99.0001 70.6237 99.0001H85.263C85.7613 99.0001 86.2434 98.8229 86.6231 98.5001L88.7521 96.6902C89.1247 96.3734 89.3751 95.9365 89.4601 95.4549L90.6447 88.7365C90.7477 88.1526 90.5479 87.5562 90.114 87.152L88.3076 85.4695C87.9837 85.1678 87.5575 85.0001 87.1148 85.0001H82.9036L82.4098 87.8001H88.0098L86.5287 96.2001H69.7287L71.2098 87.8001H76.8098L77.3036 85.0001H72.4756C71.9772 85.0001 71.4951 85.1773 71.1154 85.5001L69.632 86.7611C69.242 86.1591 68.7464 85.6374 68.1667 85.2091L71.2019 67.9963C71.985 67.5382 72.707 66.9701 73.3408 66.3139L74.862 67.7307C75.1859 68.0324 75.612 68.2001 76.0547 68.2001H80.2659L80.7597 65.4001H75.1597L76.6409 57.0001H93.4409L91.9597 65.4001H86.3597L85.8659 68.2001H90.694C91.1923 68.2001 91.6744 68.0229 92.0541 67.7001L94.1831 65.8902C94.5558 65.5734 94.8062 65.1365 94.8911 64.6549L96.0757 57.9365C96.1787 57.3526 95.979 56.7562 95.5451 56.352ZM65.0585 86.957C66.973 87.5613 68.117 89.4326 67.726 91.6501C67.2488 94.3563 64.6681 96.5501 61.9619 96.5501C59.2557 96.5501 57.4488 94.3563 57.926 91.6501C58.3176 89.4289 60.1269 87.5555 62.259 86.9544L65.9109 66.2435C63.9958 65.6396 62.8512 63.7681 63.2423 61.5501C63.7195 58.8439 66.3001 56.6501 69.0063 56.6501C71.7125 56.6501 73.5195 58.8439 73.0423 61.5501C72.6508 63.7708 70.8421 65.6439 68.7106 66.2455L65.0585 86.957Z" fill="#A3876E"/>
<path d="M73.3711 81.501H74.0711L74.3303 80.031H75.5553L75.6664 79.4012L74.4414 79.401L74.5772 78.631H76.3272L76.4382 78.001H73.9883L73.3711 81.501Z" fill="white"/>
<path d="M76.5205 81.501H77.2205L77.8377 78.001H77.1377L76.5205 81.501Z" fill="white"/>
<path d="M78.4326 78.631H79.4829L78.9712 81.501H79.6712L80.1773 78.631H81.2273L81.3384 78.001H78.5384L78.4326 78.631Z" fill="white"/>
<path d="M83.8965 80.3635L82.7381 78.001H82.0381L81.4209 81.501H82.1209L82.5375 79.1383L83.6959 81.501H84.3959L85.013 78.001H84.3131L83.8965 80.3635Z" fill="white"/>
<path d="M85.4453 81.501H87.8953L88.0064 80.871H86.2564L86.4045 80.031H87.6295L87.7406 79.4007L86.5156 79.401L86.6514 78.631H88.4014L88.5125 78.001H86.0625L85.4453 81.501Z" fill="white"/>
<path d="M89.2962 78.5216L89.1242 79.4972C89.0751 79.7757 89.2893 80.0311 89.5721 80.0312L90.9578 80.0317L90.8097 80.871H88.8826L88.7715 81.501H90.8672C91.173 81.501 91.4346 81.2815 91.4876 80.9804L91.6721 79.9345C91.7212 79.6559 91.5068 79.4004 91.2238 79.4005L89.8398 79.401L89.9776 78.631H91.7269L91.838 78.001H89.9166C89.6109 78.001 89.3493 78.2205 89.2962 78.5216Z" fill="white"/>
<path d="M79.0326 75.2007H79.7326L79.9795 73.8007L81.5748 71.7007H80.789L79.7626 73.1007L79.2106 71.7007H78.4248L79.281 73.8002L79.0326 75.2007Z" fill="white"/>
<path d="M82.1824 75.2007L82.59 72.8867L83.2809 74.5007H83.4294L84.69 72.8867L84.2824 75.2007H84.9824L85.5996 71.7007H84.8996L83.5433 73.4376L82.7996 71.7007H82.0996L81.4824 75.2007H82.1824Z" fill="white"/>
<path d="M95.2259 78.631L95.337 78.001H93.4157C93.1099 78.001 92.8483 78.2205 92.7953 78.5216L92.6232 79.4972C92.5741 79.7757 92.7883 80.0311 93.0711 80.0312L94.4569 80.0317L94.3087 80.871H92.3816L92.2705 81.501H94.3663C94.672 81.501 94.9336 81.2815 94.9867 80.9804L95.1711 79.9345C95.2202 79.6559 95.0058 79.4004 94.7229 79.4005L93.3388 79.401L93.4766 78.631H95.2259Z" fill="white"/>
<path d="M75.0243 75.2009L76.7546 75.2015C77.06 75.201 77.321 74.9816 77.3741 74.6809L77.6527 73.1007H76.2527L76.1416 73.7307H76.8416L76.6935 74.5707H75.2935L75.6885 72.3307H77.6135L77.7246 71.7007H75.6282C75.3225 71.7007 75.0609 71.9202 75.0078 72.2212L74.5764 74.6668C74.5272 74.9454 74.7415 75.2008 75.0243 75.2009Z" fill="white"/>
<path d="M87.4493 75.2007H88.2504C88.3999 75.2007 88.5445 75.1475 88.6585 75.0507L89.0362 74.7295L89.357 75.2007H90.232L89.5848 74.2632L90.232 73.713L89.8714 73.2757L89.2612 73.7944L88.4199 72.5757L88.4631 72.3307H89.1631L89.089 72.7507H89.789L89.88 72.2347C89.9291 71.9561 89.7148 71.7007 89.4319 71.7007H88.4028C88.0971 71.7007 87.8355 71.9202 87.7824 72.2213L87.7211 72.5685C87.7005 72.6853 87.7264 72.8055 87.7931 72.9036L87.9457 73.1276L87.3268 73.6536C87.215 73.7487 87.1399 73.8797 87.1144 74.0242L87.0012 74.6667C86.952 74.9453 87.1664 75.2007 87.4493 75.2007ZM87.823 73.9757L88.2664 73.5987L88.7154 74.2582L88.3477 74.5707H87.7181L87.823 73.9757Z" fill="white"/>
</g>
</g>
<defs>
<clipPath id="clip0_4898_20881">
<rect y="0.600586" width="152" height="152" rx="4" fill="white"/>
</clipPath>
<clipPath id="clip1_4898_20881">
<rect width="70" height="70" fill="white" transform="translate(41 41.6006)"/>
</clipPath>
</defs>
</svg>
