<svg width="832" height="508" viewBox="0 0 832 508" fill="none" xmlns="http://www.w3.org/2000/svg">
<rect width="832" height="508" rx="4" fill="#09151E"/>
<path d="M739.353 249.305V149.632C739.353 147.658 737.749 146.054 735.774 146.054H635.279C633.304 146.054 631.7 144.449 631.7 142.475V41.9792C631.7 40.0047 630.095 38.4004 628.121 38.4004H526.844C524.869 38.4004 523.265 40.0047 523.265 41.9792V251.28C523.265 252.966 522.607 254.612 521.414 255.805L418.574 358.645C417.175 360.043 414.913 360.043 413.514 358.645L310.345 255.599C309.152 254.406 307.506 253.748 305.82 253.748H204.625C202.65 253.748 201.046 252.143 201.046 250.169V150.455C201.046 148.481 202.65 146.876 204.625 146.876H305.12C307.095 146.876 308.699 145.272 308.699 143.297V41.9792C308.699 40.0047 307.095 38.4004 305.12 38.4004H96.1902C94.2156 38.4004 92.6113 40.0047 92.6113 41.9792V141.652C92.6113 143.791 95.2029 144.861 96.6838 143.339L196.151 43.8304C197.673 42.3083 200.223 43.3779 200.223 45.5169V143.626C200.223 145.313 199.565 146.959 198.372 148.151L94.4625 252.102C93.2695 253.295 92.6113 254.941 92.6113 256.627V464.653C92.6113 466.792 95.2029 467.861 96.6838 466.339L196.151 366.831C197.673 365.309 200.223 366.378 200.223 368.517V466.257C200.223 468.231 201.828 469.836 203.802 469.836H308.452L414.254 364.034C415.447 362.841 417.093 362.183 418.779 362.183H516.889C519.028 362.183 520.098 364.774 518.576 366.255L419.067 465.763C417.545 467.285 418.615 469.836 420.754 469.836H520.427C522.401 469.836 524.005 468.231 524.005 466.257V258.108C524.005 256.134 525.61 254.529 527.584 254.529H626.434C628.573 254.529 629.643 251.938 628.121 250.457L528.654 150.949C527.132 149.427 528.201 146.876 530.34 146.876H628.45C630.137 146.876 631.782 147.534 632.975 148.727L735.239 250.992C736.761 252.514 739.353 251.444 739.353 249.305ZM198.167 361.36H99.7279C97.5888 361.36 96.5193 358.768 98.0413 357.287L198.125 257.203C199.524 255.805 201.787 255.805 203.185 257.203L306.025 360.043C307.218 361.236 307.876 362.882 307.876 364.568V462.678C307.876 464.817 305.285 465.887 303.804 464.365L202.692 363.252C201.499 362.059 199.853 361.36 198.167 361.36Z" stroke="#A3876E" stroke-miterlimit="10"/>
</svg>
