<svg width="832" height="508" viewBox="0 0 832 508" fill="none" xmlns="http://www.w3.org/2000/svg">
<rect width="832" height="508" rx="4" fill="#09151E"/>
<path d="M321.016 445.591L412.649 353.958C413.779 352.828 415.699 353.619 415.699 355.2V444.122C415.699 445.515 416.828 446.607 418.184 446.607H511.435H513.167H606.419C607.812 446.607 608.904 445.478 608.904 444.122V351.36C608.904 350.419 608.527 349.515 607.849 348.838L513.694 254.72C513.016 254.042 512.64 253.139 512.64 252.198V162.748C512.64 161.167 514.56 160.377 515.689 161.506L605.854 251.671C606.984 252.8 608.904 252.009 608.904 250.428V158.984C608.904 158.042 608.527 157.139 607.849 156.461L513.506 62.0424C512.828 61.3648 511.925 60.9883 510.984 60.9883H418.221C416.828 60.9883 415.736 62.1177 415.736 63.473V152.395C415.736 153.977 413.816 154.767 412.687 153.638L321.016 62.0424C320.339 61.3648 319.435 60.9883 318.494 60.9883H227.049C225.468 60.9883 224.678 62.9083 225.807 64.0377L318.419 156.687C319.096 157.365 319.473 158.268 319.473 159.209V248.659C319.473 250.24 317.553 251.031 316.424 249.901L226.296 159.774C225.167 158.645 223.247 159.435 223.247 161.017V347.897C223.247 349.289 224.376 350.381 225.732 350.381H314.654C316.235 350.381 317.026 352.301 315.896 353.431L225.769 443.595C224.64 444.725 225.431 446.645 227.012 446.645H318.456C319.435 446.645 320.339 446.268 321.016 445.591ZM510.532 444.009L417.468 350.946C416.791 350.268 416.414 349.365 416.414 348.424V258.974C416.414 257.393 418.334 256.602 419.464 257.732L511.096 349.365C511.774 350.042 512.678 350.419 513.619 350.419H603.369C604.951 350.419 605.741 352.339 604.612 353.468L514.033 444.047C513.092 444.988 511.511 444.988 510.532 444.009ZM417.242 156.913L508.913 65.2424C510.042 64.113 511.962 64.9036 511.962 66.4848V155.671C511.962 156.8 511.511 157.854 510.72 158.645L417.845 251.558C416.866 252.537 415.285 252.537 414.306 251.558L323.727 160.979C322.598 159.849 323.388 157.929 324.969 157.929H414.72C415.699 157.929 416.602 157.553 417.242 156.913ZM320.828 255.322L412.16 346.654C413.289 347.784 412.499 349.704 410.918 349.704H321.468C320.527 349.704 319.624 349.327 318.946 348.649L227.501 257.205C226.372 256.075 227.162 254.155 228.744 254.155H318.042C319.096 254.155 320.113 254.569 320.828 255.322Z" fill="#B59985"/>
</svg>
