<svg width="832" height="508" viewBox="0 0 832 508" fill="none" xmlns="http://www.w3.org/2000/svg">
<rect width="832" height="508" rx="4" fill="#09151E"/>
<path d="M687.601 242.458L686.352 249.491C685.235 255.933 690.165 261.849 696.738 261.849H709.951C711.989 261.849 714.026 261.258 715.735 260.074L723.755 254.75C724.215 254.421 724.872 254.816 724.741 255.407L722.769 266.385C722.44 268.291 720.797 269.672 718.891 269.672H687.996L686.155 280.189H717.182C719.351 280.189 721.52 279.532 723.295 278.217L731.709 272.169C733.944 270.592 735.456 268.16 735.916 265.465L739.86 243.247C740.451 240.091 739.137 236.87 736.573 234.898L729.145 229.245C727.633 228.128 725.858 227.536 724.018 227.536H706.533C704.364 227.536 702.26 228.193 700.485 229.442L691.743 235.556C689.639 237.265 688.127 239.697 687.601 242.458ZM722.177 251.332H702.326C700.682 251.332 699.433 249.886 699.762 248.242L700.945 241.472C701.274 239.565 702.917 238.185 704.824 238.185H724.675C726.319 238.185 727.568 239.631 727.239 241.275L726.056 248.045C725.727 249.951 724.084 251.332 722.177 251.332Z" stroke="#B59985" stroke-miterlimit="10"/>
<path d="M671.036 235.03L663.542 229.377C662.031 228.26 660.256 227.668 658.415 227.668H640.93C638.761 227.668 636.657 228.325 634.882 229.574L626.14 235.688C623.839 237.265 622.327 239.697 621.801 242.458L621.604 243.51C621.078 246.665 622.327 249.886 624.891 251.792L626.863 253.304C627.257 253.567 627.192 254.159 626.797 254.422L623.05 256.657C620.421 258.234 618.58 260.864 618.055 263.887L617.923 264.545C617.397 267.7 618.646 270.921 621.21 272.827L628.703 278.48C630.215 279.598 631.99 280.189 633.831 280.189H651.316C653.485 280.189 655.589 279.532 657.363 278.283L666.106 272.17C668.407 270.592 669.919 268.16 670.444 265.399L670.642 264.347C671.168 261.192 669.919 257.971 667.355 256.065L665.317 254.553C664.923 254.29 664.989 253.699 665.383 253.436L669.195 251.135C671.825 249.557 673.665 246.928 674.191 243.904L674.323 243.247C674.914 240.157 673.6 236.936 671.036 235.03ZM661.57 241.275L660.847 245.416C660.519 247.322 658.875 248.703 656.969 248.703H637.117C635.474 248.703 634.225 247.257 634.554 245.613L635.277 241.472C635.606 239.566 637.249 238.185 639.155 238.185H659.007C660.584 238.185 661.833 239.632 661.57 241.275ZM630.741 266.648L631.464 262.507C631.793 260.601 633.436 259.22 635.343 259.22H655.194C656.838 259.22 658.086 260.666 657.758 262.31L657.035 266.451C656.706 268.357 655.063 269.738 653.156 269.738H633.305C631.727 269.738 630.478 268.291 630.741 266.648Z" stroke="#B59985" stroke-miterlimit="10"/>
<path d="M583.676 280.255L605.434 244.824C607.735 241.078 606.815 236.213 603.331 233.518L597.875 229.377C596.363 228.26 594.588 227.668 592.748 227.668H558.829L556.988 238.185H595.245C595.771 238.185 596.1 238.777 595.837 239.171L570.529 280.255H583.676Z" stroke="#B59985" stroke-miterlimit="10"/>
<path d="M538.978 265.465L540.227 258.431C541.344 251.989 536.414 246.073 529.841 246.073H516.628C514.59 246.073 512.553 246.665 510.844 247.848L502.824 253.172C502.364 253.501 501.707 253.107 501.838 252.515L503.81 241.538C504.139 239.631 505.782 238.251 507.688 238.251H538.583L540.424 227.733H509.397C507.228 227.733 505.059 228.391 503.284 229.705L494.87 235.753C492.635 237.331 491.123 239.763 490.663 242.458L486.917 263.427C486.193 267.305 487.771 271.315 490.926 273.681L497.434 278.611C498.946 279.729 500.721 280.32 502.561 280.32H520.046C522.216 280.32 524.319 279.663 526.094 278.414L534.836 272.301C536.94 270.658 538.452 268.225 538.978 265.465ZM504.402 256.591H524.253C525.897 256.591 527.146 258.037 526.817 259.68L525.634 266.451C525.305 268.357 523.662 269.737 521.755 269.737H501.904C500.26 269.737 499.011 268.291 499.34 266.648L500.523 259.877C500.852 257.971 502.495 256.591 504.402 256.591Z" stroke="#B59985" stroke-miterlimit="10"/>
<path d="M435.577 255.539L438.075 241.407C438.404 239.5 440.047 238.12 441.954 238.12H472.848L474.689 227.603H436.169C431.042 227.603 426.703 231.284 425.783 236.279L423.548 249.097C422.628 254.356 426.638 259.155 431.962 259.155H458.058C459.702 259.155 460.951 260.601 460.622 262.244L459.899 266.386C459.57 268.292 457.927 269.672 456.021 269.672H419.867L418.026 280.19H454.18C456.349 280.19 458.453 279.532 460.227 278.283L468.97 272.17C471.271 270.592 472.783 268.16 473.309 265.399L474.097 260.995C475.215 254.553 470.285 248.637 463.711 248.637H450.039C448.264 248.637 446.555 249.163 445.109 250.215L436.629 256.197C436.169 256.525 435.512 256.131 435.577 255.539Z" stroke="#B59985" stroke-miterlimit="10"/>
<path d="M401.002 227.668L396.926 250.675C396.598 252.581 394.954 253.962 393.048 253.962H373.196C371.553 253.962 370.304 252.515 370.633 250.872L374.708 227.668H361.561L357.815 248.834C357.289 251.989 358.538 255.21 361.101 257.117L368.529 262.77C370.041 263.887 371.816 264.479 373.657 264.479H380.756C382.794 264.479 384.831 263.887 386.54 262.704L394.56 257.38C395.02 257.051 395.677 257.445 395.546 258.037L391.733 280.255H404.88L414.149 227.668H401.002Z" stroke="#B59985" stroke-miterlimit="10"/>
<path d="M342.367 235.03L334.873 229.377C333.361 228.26 331.587 227.668 329.746 227.668H295.827L293.987 238.185H330.272C331.915 238.185 333.164 239.632 332.836 241.275L332.112 245.416C331.784 247.322 330.14 248.703 328.234 248.703H305.227L303.387 259.22H326.525C328.168 259.22 329.417 260.666 329.089 262.31L328.366 266.451C328.037 268.357 326.394 269.738 324.487 269.738H288.334L286.493 280.255H322.581C324.75 280.255 326.854 279.598 328.629 278.349L337.371 272.235C339.672 270.658 341.184 268.226 341.71 265.465L341.907 264.413C342.433 261.258 341.184 258.037 338.62 256.131L336.582 254.619C336.188 254.356 336.254 253.764 336.648 253.501L340.461 251.201C343.09 249.623 344.931 246.994 345.456 243.97L345.588 243.313C346.245 240.157 344.931 236.936 342.367 235.03Z" stroke="#B59985" stroke-miterlimit="10"/>
<path d="M266.379 245.416L267.102 241.275C267.365 239.697 266.116 238.185 264.539 238.185H230.883L232.723 227.668H264.013C265.853 227.668 267.694 228.26 269.14 229.377L276.634 235.03C279.197 236.936 280.446 240.157 279.92 243.313L278.869 249.426C277.883 255.079 272.953 259.22 267.234 259.22H241.006C239.1 259.22 237.456 260.601 237.128 262.507L236.405 266.648C236.142 268.226 237.391 269.738 238.968 269.738H275.253L273.413 280.255H233.381C226.873 280.255 221.877 274.339 222.995 267.897L223.784 263.493C224.244 260.732 225.821 258.3 228.122 256.722L236.865 250.609C238.639 249.36 240.743 248.703 242.912 248.703H262.567C264.407 248.703 266.05 247.322 266.379 245.416Z" stroke="#B59985" stroke-miterlimit="10"/>
<path d="M155.157 280.255H207.744L209.585 269.738H191.179L195.846 243.313C196.372 240.157 195.123 236.936 192.56 235.03L185.066 229.377C183.554 228.26 181.779 227.668 179.939 227.668H164.426L162.585 238.185H180.465C182.108 238.185 183.357 239.632 183.028 241.275L178.033 269.738H156.998L155.157 280.255Z" stroke="#B59985" stroke-miterlimit="10"/>
<path d="M109.078 229.574L100.335 235.688C98.0344 237.265 96.5226 239.697 95.9967 242.458L92.1184 264.545C91.5925 267.7 92.8415 270.921 95.4051 272.827L102.899 278.48C104.411 279.598 106.185 280.189 108.026 280.189H125.511C127.68 280.189 129.784 279.532 131.559 278.283L140.301 272.17C142.602 270.592 144.114 268.16 144.64 265.399L148.518 243.313C149.044 240.157 147.795 236.936 145.231 235.03L137.738 229.377C136.226 228.26 134.451 227.668 132.61 227.668H115.125C112.956 227.668 110.853 228.325 109.078 229.574ZM127.352 269.738H107.5C105.857 269.738 104.608 268.291 104.936 266.648L109.406 241.472C109.735 239.566 111.378 238.185 113.285 238.185H133.136C134.78 238.185 136.029 239.632 135.7 241.275L131.23 266.451C130.901 268.357 129.258 269.738 127.352 269.738Z" stroke="#B59985" stroke-miterlimit="10"/>
</svg>
