<svg width="832" height="508" viewBox="0 0 832 508" fill="none" xmlns="http://www.w3.org/2000/svg">
<rect width="832" height="508" rx="4" fill="#09151E"/>
<path d="M150.603 189.704H111.134C109.426 189.704 107.953 190.942 107.658 192.65L103.653 215.212C103.417 216.626 104.536 217.981 105.95 217.981H145.537L143.829 227.406H106.127C104.418 227.406 102.769 226.817 101.473 225.816L94.9929 220.809C92.7543 219.041 91.635 216.214 92.1063 213.445L95.582 193.592C95.9943 191.118 97.4082 188.939 99.47 187.525L107.305 182.046C108.895 180.927 110.781 180.338 112.725 180.338H152.135L150.603 189.704Z" stroke="#B59985" stroke-miterlimit="10"/>
<path d="M165.155 227.407H153.373L159.323 193.534C159.735 191.06 161.149 188.88 163.211 187.466L171.046 181.988C172.636 180.868 174.522 180.279 176.466 180.279H208.571C210.221 180.279 211.87 180.809 213.166 181.811L219.882 186.877C222.179 188.586 223.298 191.472 222.827 194.3L216.995 227.407H205.213L211.399 192.474C211.634 191.06 210.515 189.705 209.101 189.705H174.816C173.108 189.705 171.635 190.942 171.34 192.65L165.155 227.407Z" stroke="#B59985" stroke-miterlimit="10"/>
<path d="M246.45 181.988L238.615 187.466C236.553 188.88 235.199 191.06 234.727 193.534L231.252 213.327C230.78 216.155 231.9 219.042 234.197 220.75L240.913 225.816C242.268 226.818 243.858 227.348 245.508 227.348H282.385C284.329 227.348 286.214 226.759 287.805 225.639L295.639 220.161C297.701 218.747 299.056 216.567 299.528 214.093L303.003 194.3C303.474 191.472 302.355 188.586 300.058 186.877L293.342 181.811C291.987 180.809 290.397 180.279 288.747 180.279H251.87C249.926 180.279 248.041 180.868 246.45 181.988ZM284.034 217.981H245.036C243.564 217.981 242.444 216.685 242.739 215.213L246.745 192.65C247.039 190.942 248.512 189.705 250.22 189.705H289.218C290.691 189.705 291.81 191.001 291.516 192.474L287.51 215.036C287.215 216.744 285.743 217.981 284.034 217.981Z" stroke="#B59985" stroke-miterlimit="10"/>
<path d="M369.568 180.279H331.925C329.981 180.279 328.096 180.868 326.506 181.988L318.671 187.466C316.609 188.88 315.254 191.06 314.783 193.534L308.892 227.407H320.673L323.089 213.858C323.383 212.149 324.856 210.912 326.564 210.912H366.564C371.689 210.912 376.107 207.201 376.991 202.135L378.876 191.354C379.877 185.581 375.459 180.279 369.568 180.279ZM362.322 201.487H337.639C335.695 201.487 333.81 202.076 332.22 203.195L325.092 208.202C324.679 208.497 324.09 208.143 324.149 207.613L326.8 192.591C327.095 190.883 328.567 189.646 330.276 189.646H364.561C366.034 189.646 367.153 190.942 366.858 192.415L365.798 198.482C365.503 200.25 364.031 201.487 362.322 201.487Z" stroke="#B59985" stroke-miterlimit="10"/>
<path d="M452.691 180.279H389.127L387.419 189.705H420.29C420.879 189.705 421.115 190.471 420.644 190.765L415.283 194.535C413.221 195.949 411.866 198.129 411.395 200.603L406.682 227.407H418.464L424.591 192.65C424.885 190.942 426.358 189.705 428.066 189.705H450.982L452.691 180.279Z" stroke="#B59985" stroke-miterlimit="10"/>
<path d="M502.116 227.407L490.747 185.935C489.863 182.577 486.8 180.279 483.383 180.279H482.146H475.607C472.367 180.279 469.363 181.929 467.595 184.697L440.851 227.407H452.632L477.433 187.82C477.963 186.936 479.318 187.172 479.554 188.114L490.334 227.407H502.116Z" stroke="#B59985" stroke-miterlimit="10"/>
<path d="M581.526 191.354C582.527 185.581 578.109 180.279 572.218 180.279H534.575C532.631 180.279 530.746 180.868 529.155 181.988L521.32 187.466C519.258 188.88 517.904 191.06 517.432 193.534L511.482 227.407H523.264L525.267 216.214C525.562 214.506 527.035 213.269 528.743 213.269H565.856L563.382 227.407H575.163L581.526 191.354ZM567.564 203.843H539.936C537.992 203.843 536.107 204.432 534.516 205.551L527.388 210.559C526.976 210.853 526.386 210.5 526.445 209.97L529.509 192.591C529.803 190.883 531.276 189.646 532.984 189.646H567.27C568.742 189.646 569.862 190.942 569.567 192.415L567.564 203.843Z" stroke="#B59985" stroke-miterlimit="10"/>
<path d="M647.091 180.279H658.873L652.098 218.629C651.215 223.695 646.796 227.407 641.671 227.407H603.675C602.025 227.407 600.376 226.877 599.08 225.875L592.364 220.809C590.067 219.101 588.947 216.214 589.419 213.386L595.251 180.279H607.033L600.847 215.213C600.611 216.626 601.731 217.981 603.145 217.981H637.43C639.138 217.981 640.611 216.744 640.905 215.036L647.091 180.279Z" stroke="#B59985" stroke-miterlimit="10"/>
<path d="M642.084 166.141H624.294C622.35 166.141 620.465 166.73 618.874 167.849L610.921 173.445C609.979 174.093 610.45 175.566 611.569 175.566H640.199C641.908 175.566 643.38 174.329 643.675 172.68L644.323 168.909C644.676 167.496 643.557 166.141 642.084 166.141Z" stroke="#B59985" stroke-miterlimit="10"/>
<path d="M739.638 196.656C740.109 193.828 738.99 190.942 736.693 189.234L729.977 184.167C728.622 183.166 727.031 182.636 725.382 182.636H711.479L711.892 180.279H700.11L699.697 182.636H683.851C681.907 182.636 680.022 183.225 678.431 184.344L670.596 189.823C668.534 191.236 667.179 193.416 666.708 195.89L664.057 210.971C663.586 213.799 664.705 216.685 667.003 218.394L673.718 223.46C675.073 224.461 676.664 224.991 678.313 224.991H692.216L691.804 227.348H703.585L703.998 224.991H719.844C721.788 224.991 723.674 224.402 725.264 223.283L733.099 217.805C735.161 216.391 736.516 214.211 736.987 211.737L739.638 196.656ZM693.865 215.625H677.842C676.369 215.625 675.25 214.329 675.545 212.856L678.726 195.007C679.02 193.298 680.493 192.061 682.201 192.061H698.107L693.865 215.625ZM725.853 192.061C727.326 192.061 728.445 193.357 728.151 194.83L724.97 212.679C724.675 214.388 723.202 215.625 721.494 215.625H705.588L709.771 192.061H725.853Z" stroke="#B59985" stroke-miterlimit="10"/>
<path d="M109.017 318.591L111.436 304.865C111.794 302.993 113.406 301.656 115.197 301.656H158.278L160.069 291.406H116.809C114.66 291.406 112.6 292.119 110.809 293.367L102.569 299.25C100.419 300.765 98.8965 303.172 98.4486 305.756L97.1052 313.065C96.2095 317.789 99.8817 322.067 104.718 322.067H143.947C145.56 322.067 146.724 323.493 146.455 325.098L145.739 329.198C145.381 331.069 143.768 332.406 141.977 332.406H93.7913L92 342.657H146.545C152.187 342.657 156.934 338.646 157.92 333.12L159.532 323.939C160.606 317.7 155.77 311.906 149.411 311.906H123.795C121.646 311.906 119.586 312.53 117.884 313.778L110.092 319.215C109.555 319.572 108.928 319.215 109.017 318.591Z" stroke="#B59985" stroke-miterlimit="10"/>
<path d="M174.31 305.935L167.771 342.746H180.669L183.266 328.04C183.624 326.168 185.237 324.831 187.028 324.831H230.646C236.288 324.831 241.035 320.82 242.021 315.294L244.081 303.529C245.155 297.29 240.319 291.496 233.96 291.496H192.85C190.7 291.496 188.64 292.12 186.938 293.368L178.43 299.34C176.28 300.855 174.758 303.261 174.31 305.935ZM226.078 314.492H199.119C196.97 314.492 194.91 315.116 193.208 316.364L185.416 321.801C184.968 322.157 184.341 321.711 184.431 321.177L187.297 304.866C187.655 302.994 189.267 301.657 191.058 301.657H228.496C230.108 301.657 231.273 303.083 231.004 304.687L229.84 311.283C229.571 313.155 227.959 314.492 226.078 314.492Z" stroke="#B59985" stroke-miterlimit="10"/>
<path d="M268.084 293.368L259.575 299.34C257.336 300.855 255.813 303.261 255.366 305.935L251.514 327.505C250.977 330.625 252.231 333.744 254.739 335.616L261.993 341.142C263.426 342.212 265.218 342.836 267.009 342.836H307.224C309.373 342.836 311.433 342.212 313.135 340.964L321.643 334.992C323.883 333.477 325.405 331.07 325.853 328.396L329.704 306.827C330.242 303.707 328.988 300.587 326.48 298.716L319.225 293.19C317.792 292.12 316.001 291.496 314.21 291.496H273.995C271.846 291.496 269.786 292.12 268.084 293.368ZM309.104 332.407H266.561C264.949 332.407 263.785 330.981 264.053 329.377L268.442 304.866C268.8 302.994 270.413 301.657 272.204 301.657H314.747C316.359 301.657 317.524 303.083 317.255 304.687L312.866 329.198C312.597 331.07 310.985 332.407 309.104 332.407Z" stroke="#B59985" stroke-miterlimit="10"/>
<path d="M402.521 291.496H361.411C359.261 291.496 357.201 292.12 355.5 293.368L346.991 299.34C344.752 300.855 343.229 303.261 342.781 305.935L336.243 342.746H349.051L351.648 328.04C352.007 326.168 353.619 324.831 355.41 324.831H383.085C383.981 324.831 384.698 325.277 385.235 325.99L396.699 342.746H410.85L398.938 325.277C398.759 325.098 398.938 324.831 399.207 324.831C404.85 324.831 409.597 320.82 410.582 315.294L412.642 303.529C413.717 297.2 408.88 291.496 402.521 291.496ZM394.55 314.492H367.591C365.531 314.492 363.471 315.116 361.769 316.274L353.977 321.622C353.529 321.979 352.902 321.533 352.992 320.998L355.858 304.777C356.216 302.905 357.828 301.568 359.62 301.568H397.058C398.67 301.568 399.834 302.994 399.565 304.598L398.401 311.194C398.043 313.155 396.431 314.492 394.55 314.492Z" stroke="#B59985" stroke-miterlimit="10"/>
<path d="M516.357 291.496H503.46L496.295 332.14C495.31 337.666 499.519 342.657 505.162 342.657H553.616L555.408 332.407H512.148C510.536 332.407 509.371 330.981 509.64 329.377L516.357 291.496Z" stroke="#B59985" stroke-miterlimit="10"/>
<path d="M563.826 342.657H576.723L585.77 291.496H572.872L563.826 342.657Z" stroke="#B59985" stroke-miterlimit="10"/>
<path d="M663.691 301.746L665.482 291.496H614.699C612.549 291.496 610.489 292.12 608.788 293.368L600.279 299.34C598.04 300.855 596.517 303.261 596.069 305.935L589.531 342.746H602.429L605.026 328.04C605.384 326.168 606.996 324.831 608.788 324.831H654.466L656.257 314.581H620.968C618.819 314.581 616.759 315.205 615.057 316.453L607.265 321.89C606.817 322.246 606.19 321.801 606.28 321.266L609.146 304.955C609.504 303.083 611.116 301.746 612.908 301.746H663.691Z" stroke="#B59985" stroke-miterlimit="10"/>
<path d="M738.209 301.746L740 291.496H689.217C687.067 291.496 685.007 292.12 683.306 293.368L674.797 299.34C672.558 300.855 671.035 303.261 670.588 305.935L666.199 330.714C665.124 336.953 669.961 342.746 676.32 342.746H730.954L732.745 332.496H681.783C680.171 332.496 679.007 331.07 679.275 329.466L679.992 325.366C680.35 323.494 681.962 322.157 683.754 322.157H729.342L731.133 311.907H695.845C693.695 311.907 691.635 312.531 689.933 313.779L682.141 319.216C681.694 319.572 681.067 319.127 681.156 318.592L683.574 304.866C683.933 302.994 685.545 301.657 687.336 301.657H738.209V301.746Z" stroke="#B59985" stroke-miterlimit="10"/>
<path d="M421.956 301.745H457.871C458.498 301.745 458.767 302.548 458.23 302.904L452.408 307.004C450.169 308.519 448.646 310.926 448.198 313.6L443.004 342.657H455.901L462.618 304.865C462.977 302.993 464.589 301.656 466.38 301.656H491.458L493.339 291.406H423.837L421.956 301.745Z" stroke="#B59985" stroke-miterlimit="10"/>
</svg>
