<svg width="342" height="1127" viewBox="0 0 342 1127" fill="none" xmlns="http://www.w3.org/2000/svg">
<path d="M37.9115 32.0194C37.7461 32.0194 36.1374 32.0194 35.957 32.0194C36.0773 32.2449 36.1675 32.4253 36.4081 32.8914C37.0846 34.2144 37.7912 35.7479 38.2272 37.0709C38.3926 37.5369 38.4226 37.6271 38.5128 37.8827C38.8887 37.8827 40.1666 37.8827 40.4973 37.8827C40.4973 37.8827 40.4071 37.5971 40.1816 36.9356C39.7456 35.6126 38.9488 33.8836 38.3625 32.8012C38.0468 32.26 38.0167 32.1848 37.9115 32.0194Z" fill="#A3876E"/>
<path d="M36.0893 22.3976L34.9467 20.7439L33.8793 22.2623C33.8342 22.3074 33.8042 22.3676 33.7591 22.4277L35.3376 24.6979C35.3677 24.7279 35.3827 24.758 35.4128 24.7881C37.8032 28.1707 42.7494 35.6878 42.7494 39.8372C42.7494 44.1519 39.2465 47.6549 34.9317 47.6549C30.6169 47.6549 27.114 44.1519 27.114 39.8372C27.114 36.0786 31.2033 29.5388 33.729 25.8254L32.5263 24.1115C29.9254 27.8249 25.1445 35.2969 25.1445 39.8372C25.1445 45.2194 29.5345 49.6093 34.9167 49.6093C40.2989 49.6093 44.6888 45.2194 44.6888 39.8372C44.7039 34.3948 37.8183 24.743 36.0893 22.3976Z" fill="#A3876E"/>
<path d="M131.061 45.5922C128.536 47.261 125.318 47.8624 122.191 46.9754C119.049 46.0883 116.614 43.8783 115.351 41.1121L115.261 41.1271C114.945 41.8788 114.659 42.6606 114.389 43.4423C116.012 45.9831 118.523 47.9676 121.65 48.8546C125.484 49.9371 129.408 49.1403 132.445 47.0205L131.061 45.5922Z" fill="#A3876E"/>
<path d="M126.147 25.8666L126.177 25.7764C125.681 25.1901 125.305 24.5286 124.914 23.8671C119.442 23.9573 114.451 27.5955 112.887 33.1281C112.436 34.6916 112.316 36.2852 112.466 37.8187L114.391 37.3376C114.315 36.1349 114.421 34.9021 114.766 33.6693C116.195 28.5878 121.066 25.3855 126.147 25.8666Z" fill="#A3876E"/>
<path d="M133.894 42.8998L133.984 43.005C134.706 42.9449 135.472 42.8547 136.194 42.9299C136.69 42.0579 137.096 41.0957 137.397 40.0884C139.126 33.9545 136.074 27.6101 130.451 25.0393L129.91 26.9486C134.48 29.2037 136.961 34.4807 135.517 39.5622C135.157 40.78 134.6 41.9075 133.894 42.8998Z" fill="#A3876E"/>
<path d="M128.044 25.2814C127.052 24.2591 124.301 21.3726 124.301 21.3726L123.354 24.7101C123.354 24.7101 123.985 25.7775 125.338 25.7926C126.18 25.8677 126.841 25.9429 127.608 26.1233C128.044 26.2135 128.51 25.7775 128.044 25.2814Z" fill="#A3876E"/>
<path d="M113.881 39.7746C113.49 41.1427 112.407 44.9915 112.407 44.9915L115.76 44.1195C115.76 44.1195 116.361 43.037 115.685 41.8493C115.324 41.0976 115.053 40.4812 114.813 39.7295C114.677 39.2936 114.061 39.1131 113.881 39.7746Z" fill="#A3876E"/>
<path d="M133.504 44.7811C134.887 44.4353 138.766 43.4882 138.766 43.4882L136.345 41.0076C136.345 41.0076 135.098 41.0226 134.421 42.1953C133.94 42.8868 133.549 43.4281 133.008 43.9994C132.692 44.3151 132.842 44.9315 133.504 44.7811Z" fill="#A3876E"/>
<path d="M125.038 34.587C126.12 34.587 126.992 35.459 126.992 36.5414C126.992 37.6239 126.12 38.4959 125.038 38.4959C123.955 38.4959 123.083 37.6239 123.083 36.5414C123.083 35.474 123.955 34.587 125.038 34.587ZM125.038 32.6326C122.873 32.6326 121.129 34.3765 121.129 36.5414C121.129 38.7063 122.873 40.4503 125.038 40.4503C127.203 40.4503 128.947 38.7063 128.947 36.5414C128.947 34.3765 127.188 32.6326 125.038 32.6326Z" fill="#A3876E"/>
<path d="M219.04 28.5165L223.881 20.7439H214.184L213.433 22.6983H220.363L215.507 30.4709H223.19L210.862 44.182L213.733 34.3648H206.938L211.463 22.6983H211.478L212.245 20.7439H210.14L204.066 36.3493C204.066 36.3493 204.758 36.3342 205.931 36.3342H211.132L207.404 49.038H209.133L227.595 28.5315L219.04 28.5165Z" fill="#A3876E"/>
<path d="M314.083 29.8433H312.129V33.7522H308.22V35.7066H312.129V39.6155H314.083V35.7066H317.992V33.7522H314.083V29.8433ZM312.414 23.2584C310.25 23.2584 308.265 24.1755 306.897 25.6939C306.867 25.724 306.22 26.3404 306.22 26.3404C306.22 26.3404 305.574 25.709 305.529 25.6789C304.161 24.1755 302.191 23.2584 300.026 23.2584C295.922 23.2584 292.584 26.596 292.584 30.7003C292.584 32.5344 293.261 34.2934 294.479 35.6615L294.509 35.7066C297.29 38.9841 301.515 43.7649 303.83 46.3808L304.837 47.5084H307.664C307.934 47.2077 308.28 46.8168 308.671 46.3658C309.768 45.118 311.302 43.4041 312.896 41.585H310.295C308.596 43.5093 307.092 45.2082 306.25 46.1553C304.356 44.0355 299.214 38.2474 295.997 34.4588L295.952 34.3987C295.035 33.3914 294.539 32.0834 294.539 30.7153C294.539 27.6784 297.004 25.2279 300.026 25.2279C301.5 25.2279 302.853 25.7992 303.845 26.7614L306.22 29.0766C306.22 29.0766 307.573 27.7536 308.43 26.9267C309.438 25.8593 310.866 25.2279 312.414 25.2279C315.451 25.2279 317.902 27.6935 317.902 30.7153C317.902 31.0912 317.872 31.452 317.797 31.8128H319.781C319.841 31.452 319.856 31.0912 319.856 30.7153C319.871 26.596 316.519 23.2584 312.414 23.2584Z" fill="#A3876E"/>
<path d="M33.1755 115.672C31.7773 115.672 30.3641 115.146 28.9659 114.093C28.56 113.793 28.4548 113.236 28.7104 112.8C30.0484 110.59 31.9427 109.373 34.0174 109.373C35.4306 109.373 36.8588 109.944 38.1517 111.041C38.5126 111.342 38.6028 111.868 38.3622 112.289C37.0843 114.469 35.2351 115.672 33.1755 115.672ZM30.9204 113.056C31.7021 113.507 32.4538 113.732 33.1755 113.732C34.5285 113.732 35.5208 112.921 36.2124 112.034C35.4907 111.583 34.739 111.342 34.0324 111.342C32.8898 111.327 31.8074 111.928 30.9204 113.056Z" fill="#A3876E"/>
<path d="M31.5899 137.547C30.6126 137.547 29.6204 137.261 28.6582 136.69C26.2828 135.291 24.4637 132.315 23.6519 128.526C22.8851 124.903 23.2459 121.595 24.6591 119.445C25.5311 118.138 26.7789 117.281 28.2974 116.98C30.8081 116.484 32.4167 117.19 33.5894 117.717C34.1607 117.972 34.6117 118.168 35.0176 118.168C35.5589 118.168 35.9948 118.604 35.9948 119.145C35.9948 119.686 35.5589 120.122 35.0176 120.122C34.2208 120.122 33.5292 119.821 32.8076 119.506C31.7101 119.025 30.5826 118.528 28.6883 118.904C27.681 119.1 26.8692 119.656 26.2979 120.528C25.1853 122.212 24.9147 125.053 25.5762 128.12C26.2678 131.368 27.7562 133.878 29.6655 135.006C30.6126 135.562 31.5899 135.727 32.4919 135.457C33.1384 135.261 33.5593 134.961 33.9051 134.69C34.1457 134.51 34.3712 134.344 34.6418 134.224C35.1379 134.014 35.7092 134.239 35.9197 134.735C36.1302 135.231 35.9046 135.803 35.4085 136.013C35.3484 136.043 35.183 136.163 35.0477 136.254C34.6267 136.554 34.0103 137.02 33.0331 137.321C32.5671 137.471 32.0709 137.547 31.5899 137.547Z" fill="#A3876E"/>
<path d="M38.4739 137.547C37.9777 137.547 37.4966 137.472 37.0155 137.337C36.0383 137.051 35.4069 136.585 35.001 136.269C34.8657 136.179 34.7153 136.059 34.6402 136.029C34.144 135.818 33.9185 135.232 34.129 134.751C34.3395 134.255 34.9108 134.029 35.4069 134.239C35.6775 134.36 35.903 134.525 36.1436 134.706C36.5044 134.976 36.9103 135.277 37.5568 135.472C38.4588 135.743 39.436 135.593 40.3832 135.021C42.2775 133.894 43.7658 131.383 44.4724 128.136C45.1339 125.069 44.8633 122.227 43.7508 120.543C43.1645 119.671 42.3677 119.115 41.3604 118.92C39.4661 118.544 38.3235 119.04 37.241 119.521C36.5194 119.837 35.8429 120.138 35.031 120.138C34.4898 120.138 34.0538 119.702 34.0538 119.16C34.0538 118.619 34.4898 118.183 35.031 118.183C35.4219 118.183 35.873 117.988 36.4593 117.732C37.6319 117.221 39.2406 116.499 41.7513 116.995C43.2697 117.296 44.5326 118.153 45.3895 119.461C46.8027 121.611 47.1635 124.918 46.3968 128.542C45.585 132.33 43.7658 135.307 41.4055 136.705C40.4433 137.261 39.4511 137.547 38.4739 137.547Z" fill="#A3876E"/>
<path d="M35.9925 119.159L34.0381 119.144C34.0682 114.784 35.5565 111.732 38.4731 110.094C38.7588 109.928 39.0595 109.793 39.3752 109.658L40.1419 111.462C39.9014 111.567 39.6608 111.687 39.4353 111.807C37.1351 113.085 36.0075 115.491 35.9925 119.159Z" fill="#A3876E"/>
<path d="M137.206 111.288V116.099C137.206 118.79 136.364 119.03 135.252 119.03V113.167L133.297 111.288V119.03C132.17 119.03 131.313 118.82 131.313 116.099V113.167L129.358 111.288V116.399C129.373 117.813 129.644 120.94 133.237 120.985L131.508 131.223C131.493 131.283 131.493 131.328 131.493 131.388V131.689C131.493 133.313 132.801 134.621 134.425 134.621C136.049 134.621 137.356 133.313 137.356 131.689V131.388C137.356 131.328 137.356 131.253 137.341 131.193L135.327 121C138.89 120.94 139.146 117.828 139.176 116.414V113.182L137.206 111.288ZM135.402 131.479V131.689C135.402 132.23 134.966 132.666 134.425 132.666C133.884 132.666 133.448 132.23 133.448 131.689V131.464L134.35 126.142L135.402 131.479Z" fill="#A3876E"/>
<path d="M122.526 129.39V126.428C123.594 126.097 124.511 125.556 125.232 124.819C126.721 123.316 127.442 121.091 127.412 118.009V111.258H111.777V112.236C111.777 112.236 111.777 113.98 111.777 118.009C111.777 123.346 114.047 125.601 116.663 126.413V129.39C116.663 131.81 115.956 132.547 113.641 132.547V134.501C116.888 134.501 118.482 133.013 118.602 129.81V124.819C115.235 124.488 113.716 122.339 113.716 117.994C113.716 115.663 113.716 114.1 113.716 113.198H125.443V118.009C125.458 120.519 124.917 122.339 123.834 123.436C123.067 124.218 121.97 124.669 120.557 124.819V129.765C120.662 132.998 122.256 134.501 125.518 134.501V132.547C123.233 132.547 122.526 131.795 122.526 129.39Z" fill="#A3876E"/>
<path d="M227.149 120.153C226.066 120.153 225.194 119.281 225.194 118.198C225.194 117.116 226.066 116.244 227.149 116.244C228.231 116.244 229.103 117.116 229.103 118.198C229.103 119.281 228.231 120.153 227.149 120.153Z" fill="#A3876E"/>
<path d="M208.534 132.901L206.865 131.879L209.526 127.384L211.21 128.376L208.534 132.901Z" fill="#A3876E"/>
<path d="M216.685 119.114L215.001 118.107L217.993 113.056L219.557 114.258L216.685 119.114Z" fill="#A3876E"/>
<path d="M217.848 131.56L214.757 136.221L216.386 137.301L219.477 132.64L217.848 131.56Z" fill="#A3876E"/>
<path d="M226.34 117.661L223.249 122.321L224.877 123.402L227.969 118.741L226.34 117.661Z" fill="#A3876E"/>
<path d="M224.974 131.883L223.344 132.962L226.232 137.325L227.862 136.246L224.974 131.883Z" fill="#A3876E"/>
<path d="M219.354 124.166H223.85L226.09 128.06L223.85 131.938H219.354L217.114 128.045L219.354 124.166ZM218.227 122.211L214.844 128.045L218.212 133.893H224.962L228.345 128.06L224.977 122.211H218.227Z" fill="#A3876E"/>
<path d="M210.968 119.236H215.463L217.703 123.129L215.463 127.008H210.968L208.728 123.114L210.968 119.236ZM209.84 117.281L206.458 123.114L209.825 128.963H216.575L219.958 123.129L216.59 117.281H209.84Z" fill="#A3876E"/>
<path d="M222.079 110.831C221.538 109.899 220.545 109.373 219.538 109.373C219.027 109.373 218.516 109.508 218.05 109.779C216.652 110.605 216.185 112.395 216.997 113.793C217.539 114.725 218.531 115.251 219.538 115.251C220.049 115.251 220.56 115.116 221.026 114.845C222.44 114.033 222.906 112.244 222.079 110.831ZM220.53 113.312H218.561V111.342H220.53V113.312Z" fill="#A3876E"/>
<path d="M209.411 132.314C208.87 131.382 207.878 130.856 206.871 130.856C206.359 130.856 205.848 130.991 205.382 131.262C203.984 132.089 203.518 133.878 204.33 135.276C204.871 136.208 205.863 136.734 206.871 136.734C207.382 136.734 207.893 136.599 208.359 136.328C209.757 135.517 210.223 133.713 209.411 132.314ZM207.863 134.78H205.893V132.811H207.863V134.78Z" fill="#A3876E"/>
<path d="M207.858 122.137H203.438V124.091H207.858V122.137Z" fill="#A3876E"/>
<path d="M297.424 117.152C297.845 117.152 298.281 117.062 298.672 116.866L303.633 121.827C303.918 121.211 304.4 120.73 305.016 120.444L300.055 115.483C300.461 114.626 300.461 113.604 299.949 112.717C299.408 111.785 298.416 111.258 297.409 111.258C296.898 111.258 296.386 111.394 295.92 111.664C294.522 112.491 294.056 114.28 294.868 115.678C295.424 116.626 296.416 117.152 297.424 117.152ZM296.431 113.228H298.401V115.197H296.431V113.228ZM298.145 122.038C297.815 121.452 297.168 121.046 296.446 121.046C295.364 121.046 294.492 121.918 294.492 123C294.492 124.082 295.364 124.954 296.446 124.954C297.168 124.954 297.785 124.564 298.13 123.992H303.573C303.452 123.677 303.392 123.346 303.392 123C303.392 122.669 303.452 122.339 303.558 122.038H298.145ZM307.391 120.444C307.993 120.73 308.489 121.226 308.774 121.827L313.751 116.851C314.142 117.047 314.578 117.137 315.014 117.137C315.525 117.137 316.036 117.001 316.502 116.731C317.9 115.904 318.366 114.115 317.554 112.717C317.013 111.785 316.021 111.258 315.014 111.258C314.502 111.258 313.991 111.394 313.525 111.664C312.202 112.446 311.706 114.1 312.368 115.468L307.391 120.444ZM314.021 113.228H315.991V115.197H314.021V113.228ZM314.999 128.863C314.563 128.863 314.127 128.954 313.721 129.164L308.744 124.188C308.459 124.789 307.963 125.285 307.361 125.571L312.338 130.547C311.932 131.389 311.947 132.426 312.458 133.283C312.999 134.215 313.991 134.742 314.999 134.742C315.51 134.742 316.021 134.606 316.487 134.336C317.885 133.509 318.351 131.72 317.539 130.322C316.998 129.39 316.021 128.863 314.999 128.863ZM315.991 132.787H314.021V130.818H315.991V132.787ZM305.226 114.912V120.354C305.527 120.234 305.858 120.174 306.204 120.174C306.549 120.174 306.88 120.234 307.181 120.354V114.912C307.767 114.581 308.158 113.95 308.158 113.228C308.158 112.145 307.286 111.273 306.204 111.273C305.121 111.273 304.249 112.145 304.249 113.228C304.249 113.95 304.64 114.581 305.226 114.912ZM314.292 123.992C314.638 124.564 315.254 124.954 315.976 124.954C317.058 124.954 317.93 124.082 317.93 123C317.93 121.918 317.058 121.046 315.976 121.046C315.239 121.046 314.608 121.452 314.277 122.038H308.85C308.955 122.339 309.015 122.654 309.015 123C309.015 123.346 308.955 123.677 308.835 123.992H314.292ZM307.181 131.224V125.631C306.88 125.751 306.549 125.811 306.204 125.811C305.858 125.811 305.527 125.751 305.226 125.631V131.224C304.64 131.554 304.249 132.186 304.249 132.907C304.249 133.99 305.121 134.862 306.204 134.862C307.286 134.862 308.158 133.99 308.158 132.907C308.158 132.201 307.767 131.569 307.181 131.224ZM305.046 125.571C304.43 125.285 303.948 124.804 303.663 124.188L298.702 129.149C298.311 128.954 297.875 128.863 297.424 128.863C296.913 128.863 296.401 128.999 295.935 129.269C294.537 130.096 294.071 131.885 294.883 133.283C295.424 134.215 296.416 134.742 297.424 134.742C297.935 134.742 298.446 134.606 298.912 134.336C300.235 133.554 300.731 131.9 300.07 130.532L305.046 125.571ZM298.401 132.787H296.431V130.818H298.401V132.787Z" fill="#A3876E"/>
<path d="M306.202 118.22C303.556 118.22 301.421 120.354 301.421 123C301.421 125.646 303.556 127.781 306.202 127.781C308.848 127.781 310.983 125.646 310.983 123C310.983 120.354 308.848 118.22 306.202 118.22ZM306.202 125.827C304.638 125.827 303.375 124.564 303.375 123C303.375 121.437 304.638 120.174 306.202 120.174C307.765 120.174 309.028 121.437 309.028 123C309.028 124.564 307.765 125.827 306.202 125.827Z" fill="#A3876E"/>
<path d="M24.5843 224.039H22.6299V220.732C22.6299 217.153 25.4112 214.237 28.8389 214.222C29.0644 214.222 29.2749 214.222 29.5004 214.222C30.8685 214.237 32.0562 214.252 32.7177 213.605C33.274 213.064 33.5446 211.967 33.5446 210.358C33.5446 208.524 32.8079 207.712 31.8758 206.705C30.8084 205.532 29.5906 204.209 29.5906 201.353V198.646H31.5451V201.353C31.5451 203.442 32.3719 204.344 33.3191 205.382C34.3414 206.494 35.484 207.772 35.484 210.358C35.484 212.538 35.0179 214.056 34.0708 215.004C32.823 216.236 31.1241 216.206 29.4553 216.191C29.2449 216.191 29.0344 216.191 28.8239 216.191C26.4786 216.191 24.5693 218.236 24.5693 220.747V224.039H24.5843Z" fill="#A3876E"/>
<path d="M37.4829 224.037C35.4382 224.037 33.5891 223.15 32.3412 221.482C31.4693 220.324 31.0333 220.129 30.3868 220.129C29.3044 220.129 28.8834 220.309 28.7331 220.474C28.6729 220.535 28.4925 220.715 28.4925 221.497V224.037H26.5381V221.497C26.5381 220.82 26.6283 219.828 27.365 219.091C27.9964 218.46 28.9285 218.174 30.3718 218.174C30.3868 218.174 30.4018 218.174 30.4169 218.174C32.0105 218.174 32.9426 219.001 33.9198 220.324C35.1376 221.948 37.1221 222.504 39.2569 221.797C42.0081 220.895 45.2405 217.663 45.2856 211.514C45.2856 207.605 43.8874 204.313 41.7826 203.305C40.0086 202.464 38.1143 203.501 36.8364 204.538L36.205 205.049L35.5886 204.508C34.2055 203.305 33.544 202.298 33.5139 199.848V199.833V198.63H35.4683V199.818C35.4984 201.246 35.7239 201.862 36.3102 202.479C39.0915 200.539 41.2715 200.87 42.6396 201.516C45.4359 202.854 47.255 206.763 47.255 211.499C47.2099 218.685 43.256 222.519 39.8883 223.632C39.0615 223.917 38.2647 224.037 37.4829 224.037Z" fill="#A3876E"/>
<path d="M36.7761 214.266C36.0846 216.235 34.506 217.934 35.7538 219.242C37.7233 221.301 41.6171 218.986 42.9251 214.266H36.7761Z" fill="#A3876E"/>
<path d="M126.676 222.151H124.722V225.129H126.676V222.151Z" fill="#A3876E"/>
<path d="M137.173 212.817L136.569 214.676L139.401 215.596L140.005 213.737L137.173 212.817Z" fill="#A3876E"/>
<path d="M133.373 197.86L131.623 200.268L133.205 201.417L134.954 199.009L133.373 197.86Z" fill="#A3876E"/>
<path d="M117.715 197.903L116.134 199.052L117.884 201.461L119.465 200.312L117.715 197.903Z" fill="#A3876E"/>
<path d="M113.979 212.902L111.148 213.822L111.752 215.681L114.583 214.761L113.979 212.902Z" fill="#A3876E"/>
<path d="M134.64 221.099L132.716 212.545L138.985 207.027L138.354 205.103L130.04 204.336L126.762 196.744H124.673L121.395 204.336L112.961 205.118L112.36 206.952L118.734 212.545L116.795 221.144L118.133 222.122L125.71 217.626L133.242 222.106L134.64 221.099ZM125.725 215.341L119.245 219.19L120.899 211.838L115.231 206.862L122.733 206.17L125.71 199.24L128.687 206.17L136.189 206.862L130.521 211.838L132.175 219.19L125.725 215.341Z" fill="#A3876E"/>
<path d="M225.102 199.495C222.576 197.165 220.547 196.744 216.067 196.744C211.526 196.744 209.452 197.165 206.926 199.495C204.46 201.78 203.408 203.524 203.438 205.313C203.453 206.697 203.573 209.117 203.679 211.072C203.709 211.613 203.739 212.109 203.754 212.56C203.724 212.831 203.724 213.116 203.739 213.432C203.889 216.559 206.174 217.777 207.828 218.092C207.963 219.671 208.55 221.084 209.617 222.407C210.459 223.46 211.391 224.256 212.023 224.798C212.143 224.903 212.248 224.993 212.323 225.068C212.97 225.64 214.097 226.076 214.969 226.076H215.977H216.969C217.826 226.076 218.968 225.64 219.615 225.068C219.705 224.993 219.81 224.903 219.915 224.798C220.532 224.271 221.464 223.46 222.306 222.407C223.358 221.099 223.945 219.701 224.095 218.138C225.764 217.867 228.139 216.664 228.289 213.462C228.304 213.251 228.304 213.056 228.289 212.861H228.304C228.425 211.297 228.5 208.636 228.545 206.697C228.56 206.17 228.575 205.704 228.575 205.359C228.65 203.554 227.613 201.811 225.102 199.495ZM205.693 213.327C205.663 212.77 205.708 212.034 206.069 211.658C206.4 211.312 207.001 211.282 207.497 211.282C207.557 212.68 207.648 214.559 207.723 216.048C206.896 215.762 205.783 215.086 205.693 213.327ZM226.35 213.342C226.26 215.176 225.057 215.837 224.215 216.078C224.29 214.62 224.366 212.74 224.441 211.282C224.952 211.282 225.628 211.297 225.974 211.658C226.335 212.049 226.38 212.785 226.35 213.342ZM226.606 206.606C226.576 207.493 226.545 208.621 226.515 209.703C225.809 209.373 225.057 209.343 224.531 209.343C224.531 209.177 224.546 209.087 224.546 209.087C224.606 207.388 223.839 205.78 222.622 204.998C221.509 204.291 220.141 204.276 218.758 204.968C218.337 205.178 217.961 205.389 217.585 205.584C215.856 206.516 214.488 207.238 211.316 207.283L211.376 209.237C214.999 209.177 216.623 208.305 218.502 207.298C218.863 207.103 219.239 206.907 219.63 206.712C220.397 206.321 221.058 206.306 221.569 206.636C222.216 207.057 222.637 208.005 222.607 208.997C222.607 209.057 222.306 215.702 222.201 217.671C222.141 218.964 221.689 220.077 220.818 221.159C220.081 222.061 219.224 222.798 218.668 223.294C218.547 223.399 218.427 223.505 218.337 223.58C218.051 223.835 217.375 224.091 216.999 224.091H215.977H214.984C214.608 224.091 213.932 223.835 213.646 223.58C213.556 223.49 213.436 223.399 213.316 223.294C212.744 222.813 211.902 222.076 211.166 221.159C210.294 220.077 209.843 218.964 209.783 217.671C209.677 215.702 209.392 209.297 209.392 209.237L207.798 209.313H207.708C207.197 209.313 206.37 209.313 205.588 209.658C205.513 208.035 205.423 206.336 205.423 205.268C205.408 204.487 205.738 203.284 208.294 200.908C210.249 199.089 211.707 198.683 216.097 198.683C220.442 198.683 221.81 199.074 223.794 200.908C225.809 202.773 226.696 204.111 226.666 205.238C226.636 205.614 226.621 206.08 226.606 206.606Z" fill="#A3876E"/>
<path d="M319.378 209.4C318.566 208.603 317.498 208.423 316.657 208.378C316.491 206.438 315.83 204.649 314.762 203.221H316.1L318.055 201.251H313.996V197.373L312.026 199.327V200.8C310.432 199.883 308.493 199.402 306.298 199.372C306.283 199.372 306.268 199.372 306.253 199.372H306.238H306.223H306.208C306.193 199.372 306.178 199.372 306.163 199.372C302.991 199.417 300.33 200.425 298.495 202.289C296.962 203.852 296.03 205.987 295.804 208.378V208.393C294.947 208.423 293.85 208.603 293.008 209.415C292.316 210.092 291.956 211.084 291.956 212.332C291.956 215.534 294.481 216.827 296.27 217.173C296.571 218.917 297.248 220.706 299.037 222.209C300.961 223.818 303.171 224.539 306.208 224.539C309.275 224.539 311.5 223.818 313.424 222.209C315.183 220.736 315.875 218.977 316.175 217.263C317.949 216.872 320.43 215.534 320.43 212.347C320.43 211.069 320.084 210.092 319.378 209.4ZM293.91 212.332C293.91 211.625 294.06 211.114 294.376 210.813C294.722 210.482 295.278 210.377 295.789 210.347C295.834 211.475 295.925 213.655 296.03 215.083C295.098 214.782 293.91 214.061 293.91 212.332ZM314.462 215.293C314.266 217.669 313.815 219.322 312.176 220.691C310.628 221.983 308.779 222.57 306.208 222.57C303.637 222.57 301.863 222.014 300.299 220.691C298.661 219.322 298.225 217.669 298.014 215.293C297.879 213.685 297.759 210.467 297.729 209.701C297.669 207.491 298.225 206.107 298.796 205.145C298.992 204.8 299.202 204.469 299.458 204.168C299.488 204.123 299.518 204.078 299.548 204.033H299.563C299.668 203.897 299.788 203.777 299.909 203.642C301.412 202.123 303.547 201.327 306.253 201.312C308.658 201.342 310.613 201.958 312.071 203.176C311.996 204.739 311.635 205.732 310.944 206.423C309.936 207.415 307.997 207.942 304.855 208.047L305.757 205.175H304.419C303.351 205.175 302.134 205.236 300.976 205.401C300.585 205.942 300.134 206.589 299.879 207.596C300.75 207.385 301.833 207.235 303.081 207.175L302.194 210.016H303.517C303.592 210.016 303.652 210.016 303.727 210.016C308.207 210.016 310.778 209.355 312.327 207.806C313.078 207.055 313.514 206.153 313.755 205.22C314.432 206.468 314.792 207.942 314.777 209.55C314.747 209.791 314.612 213.519 314.462 215.293ZM316.431 215.128C316.536 213.7 316.642 211.49 316.687 210.332C317.183 210.362 317.694 210.467 318.025 210.783C318.325 211.084 318.491 211.595 318.491 212.302C318.476 214.03 317.348 214.797 316.431 215.128ZM306.253 216.857C305.02 216.857 303.863 216.316 303.066 215.368L301.562 216.616C302.735 218.014 304.434 218.811 306.253 218.811C308.072 218.811 309.771 218.014 310.944 216.616L309.44 215.368C308.658 216.316 307.486 216.857 306.253 216.857Z" fill="#A3876E"/>
<path d="M27.4468 294.67L28.8299 293.287L27.522 291.979C29.3261 290.461 31.5962 289.468 34.0768 289.258V291.122H36.0313V289.258C37.8805 289.408 39.5943 289.98 41.0977 290.897L43.0822 289.859C40.8271 288.221 38.0609 287.258 35.0691 287.258C27.522 287.258 21.373 293.407 21.373 300.954C21.373 304.863 23.0418 308.592 25.9584 311.178L26.0186 311.238C26.0186 311.238 26.0186 311.238 26.0336 311.253L26.1388 311.133L28.8149 308.517L27.4468 307.118L26.0637 308.487C24.5001 306.622 23.553 304.322 23.3726 301.887H25.2819V299.932H23.3876C23.5981 297.436 24.6054 295.166 26.1388 293.362L27.4468 294.67Z" fill="#A3876E"/>
<path d="M45.412 309.915C47.5619 307.434 48.7646 304.262 48.7646 300.94C48.7646 297.933 47.7874 295.152 46.1336 292.881L45.1264 294.896C46.0284 296.384 46.5997 298.083 46.75 299.902H44.8257V301.857H46.75C46.5546 304.307 45.5924 306.638 44.0138 308.502L42.6457 307.104L41.2476 308.472L43.9988 311.283L44.0138 311.268C44.4498 310.892 44.8557 310.486 45.2316 310.065L45.412 309.915Z" fill="#A3876E"/>
<path d="M44.8703 291.123L42.1641 292.506C40.7208 293.243 33.4895 296.956 32.3018 298.144C31.5651 298.881 31.1592 299.858 31.1592 300.895C31.1592 301.933 31.5651 302.91 32.3018 303.646C33.0384 304.383 34.0157 304.789 35.053 304.789C36.0904 304.789 37.0676 304.383 37.8042 303.646C38.9919 302.459 42.7354 295.242 43.4721 293.814L44.8703 291.123ZM36.4361 302.263C36.0753 302.624 35.5792 302.835 35.068 302.835C34.5418 302.835 34.0608 302.639 33.6999 302.263C33.3391 301.902 33.1286 301.406 33.1286 300.895C33.1286 300.384 33.3241 299.888 33.6999 299.527C34.2562 298.971 37.4134 297.212 40.3149 295.678C38.7514 298.565 36.9924 301.707 36.4361 302.263Z" fill="#A3876E"/>
<path d="M128.76 286.067L127.301 287.375C129.797 289.826 133.661 294.231 133.661 298.034C133.661 301.101 131.075 303.927 128.805 305.822C128.354 306.198 127.903 306.543 127.497 306.844C127.151 307.04 126.865 306.844 126.865 306.423C126.865 306.408 126.865 306.393 126.865 306.378V294.035H124.911V306.363C124.911 306.378 124.911 306.393 124.911 306.423C124.911 306.844 124.61 307.04 124.28 306.844C123.588 306.333 122.776 305.702 121.994 304.965C120.01 303.116 118.116 300.665 118.116 298.034C118.116 293.93 122.641 289.104 125.046 286.834C125.076 286.804 127.392 284.744 127.392 284.744H124.445C122.16 286.789 116.176 292.667 116.176 298.049C116.176 302.003 119.379 305.431 122.009 307.581C122.836 308.242 123.603 308.799 124.204 309.189C124.595 309.46 124.911 309.716 124.941 310.302V313.609H126.896V311.625V310.302C126.941 309.731 127.241 309.475 127.632 309.204C128.234 308.799 129 308.257 129.827 307.596C132.473 305.446 135.66 302.033 135.66 298.064C135.6 293.554 131.466 288.743 128.76 286.067Z" fill="#A3876E"/>
<path d="M224.699 286.63H222.744L223.255 288.344C225.255 293.996 226.773 302.852 223.541 307.317C222.399 308.895 220.7 309.812 218.881 309.812C217.497 309.812 216.22 309.256 215.393 308.309C214.536 307.317 214.175 305.949 214.37 304.355C216.024 301.904 217.918 299.153 219.271 297.199H216.896C215.648 299.003 214.13 301.213 212.777 303.227C211.98 303.603 211.153 303.799 210.356 303.799C208.763 303.799 207.364 303.017 206.598 301.724C205.711 300.206 205.831 298.191 206.959 296.191C208.582 293.29 211.529 292.538 214.927 291.666C217.031 291.125 219.317 290.539 221.542 289.366L220.97 287.457C218.881 288.644 216.625 289.216 214.446 289.787C210.777 290.734 207.304 291.621 205.26 295.259C203.801 297.875 203.666 300.596 204.929 302.731C206.041 304.641 208.086 305.768 210.371 305.768C210.627 305.768 210.867 305.753 211.123 305.723C208.567 309.482 207.56 310.068 204.162 310.068V312.022C208.206 312.022 209.755 311.165 212.596 307.031C212.882 308.189 213.423 309.031 213.934 309.617C215.137 311 216.941 311.797 218.896 311.797C221.346 311.797 223.616 310.594 225.135 308.489C229.299 302.701 226.728 291.847 224.699 286.63Z" fill="#A3876E"/>
<path d="M295.816 288.819C293.848 290.786 292.943 293.558 293.202 296.703L295.054 294.85C295.212 292.969 295.916 291.346 297.122 290.14C298.329 288.934 299.937 288.23 301.833 288.072L303.685 286.219C303.341 286.191 302.996 286.176 302.651 286.176C299.923 286.162 297.553 287.081 295.816 288.819ZM319.539 302.045L317.687 303.897C317.529 305.721 316.854 307.373 315.605 308.608C314.398 309.814 312.79 310.518 310.894 310.676L309.042 312.528C309.386 312.557 309.731 312.571 310.076 312.571C312.833 312.571 315.202 311.652 316.94 309.915C318.893 307.976 319.812 305.204 319.539 302.045Z" fill="#A3876E"/>
<path d="M295.456 300.84C295.571 300.883 295.7 300.898 295.829 300.883C296.346 300.84 296.719 300.395 296.691 299.878C296.633 299.059 296.921 298.255 297.495 297.681C298.026 297.149 298.73 296.848 299.477 296.848C300.223 296.848 300.927 297.135 301.458 297.666C301.861 298.068 302.133 298.571 302.234 299.131C302.334 299.634 302.823 299.964 303.325 299.878C303.828 299.777 304.158 299.289 304.072 298.787C303.9 297.853 303.44 297.006 302.765 296.345C301.875 295.469 300.697 294.981 299.448 294.995C298.199 294.995 297.021 295.498 296.145 296.374C295.183 297.336 294.695 298.672 294.809 300.036C294.853 300.409 295.111 300.725 295.456 300.84Z" fill="#A3876E"/>
<path d="M306.159 310.605C306.231 310.634 306.288 310.648 306.36 310.648C307.494 310.763 308.6 310.361 309.39 309.557C310.855 308.078 310.84 305.694 309.376 304.229C308.945 303.798 308.413 303.482 307.839 303.31C307.351 303.152 306.819 303.439 306.676 303.927C306.532 304.416 306.791 304.933 307.279 305.091H307.293C307.58 305.177 307.839 305.335 308.069 305.55C308.816 306.283 308.816 307.489 308.083 308.236C307.681 308.638 307.121 308.839 306.547 308.781C306.03 308.738 305.57 309.112 305.527 309.614C305.484 310.074 305.757 310.476 306.159 310.605Z" fill="#A3876E"/>
<path d="M297.762 313.263C297.776 313.248 298.422 312.616 299.226 311.812C299.686 311.353 300.447 310.778 301.366 310.706C302.802 310.592 304.813 310.577 306.392 310.649L306.479 308.782C304.827 308.71 302.716 308.739 301.223 308.854C299.729 308.969 298.595 309.802 297.905 310.491C297.158 311.238 297.015 311.367 296.44 311.941L297.762 313.263Z" fill="#A3876E"/>
<path d="M293.877 309.37C293.877 309.37 294.006 309.241 295.313 307.92C295.715 307.518 296.936 306.268 296.921 304.516C296.921 303.368 296.85 302.348 296.778 301.386C296.749 300.926 296.706 300.452 296.692 299.979L294.825 300.079C294.853 300.567 294.882 301.056 294.925 301.529C294.997 302.52 295.055 303.439 295.069 304.531C295.069 305.206 294.724 305.866 293.992 306.613C292.685 307.949 292.584 308.064 292.584 308.064L293.877 309.37Z" fill="#A3876E"/>
<path d="M305.163 304.66C305.795 304.875 306.571 305.019 307.49 305.134L307.72 303.281C306.011 303.066 305.178 302.793 304.761 302.319C304.331 301.831 304.129 300.869 304.101 299.016L302.234 299.059C302.306 302.448 302.952 303.928 305.163 304.66Z" fill="#A3876E"/>
<path d="M317.376 297.795C317.261 297.752 317.132 297.738 317.003 297.752C316.486 297.795 316.112 298.24 316.141 298.757C316.199 299.576 315.911 300.38 315.337 300.955C314.806 301.486 314.102 301.787 313.355 301.787C312.608 301.787 311.905 301.5 311.373 300.969C310.971 300.567 310.698 300.064 310.598 299.504C310.497 299.001 310.009 298.671 309.506 298.757C309.004 298.858 308.674 299.346 308.76 299.849C308.932 300.782 309.392 301.629 310.067 302.29C310.957 303.166 312.134 303.654 313.384 303.64C314.633 303.64 315.811 303.137 316.687 302.261C317.649 301.299 318.137 299.964 318.022 298.599C317.979 298.226 317.721 297.91 317.376 297.795Z" fill="#A3876E"/>
<path d="M306.691 288.029C306.619 288 306.562 287.986 306.49 287.986C305.355 287.871 304.249 288.273 303.46 289.078C301.995 290.557 302.009 292.941 303.474 294.405C303.905 294.836 304.436 295.152 305.011 295.324C305.499 295.482 306.03 295.195 306.174 294.707C306.317 294.219 306.059 293.702 305.571 293.544H305.556C305.269 293.458 305.011 293.3 304.781 293.084C304.034 292.352 304.034 291.145 304.766 290.399C305.169 289.997 305.729 289.796 306.303 289.853C306.82 289.896 307.28 289.523 307.323 289.02C307.366 288.561 307.093 288.158 306.691 288.029Z" fill="#A3876E"/>
<path d="M315.061 285.373C315.046 285.387 314.4 286.019 313.596 286.823C313.136 287.283 312.375 287.857 311.456 287.929C310.02 288.044 308.01 288.058 306.43 287.986L306.344 289.853C307.995 289.925 310.106 289.896 311.6 289.781C313.093 289.666 314.228 288.833 314.917 288.144C315.664 287.397 315.807 287.268 316.382 286.694L315.061 285.373Z" fill="#A3876E"/>
<path d="M318.951 289.265C318.951 289.265 318.822 289.394 317.515 290.715C317.113 291.117 315.892 292.367 315.906 294.119C315.906 295.268 315.978 296.287 316.05 297.249C316.079 297.709 316.122 298.183 316.136 298.657L318.003 298.556C317.974 298.068 317.946 297.58 317.903 297.106C317.831 296.115 317.773 295.196 317.759 294.104C317.759 293.429 318.104 292.769 318.836 292.022C320.143 290.687 320.243 290.572 320.243 290.572L318.951 289.265Z" fill="#A3876E"/>
<path d="M307.663 293.976C307.031 293.761 306.256 293.617 305.337 293.502L305.107 295.355C306.816 295.57 307.649 295.843 308.065 296.317C308.496 296.805 308.697 297.767 308.726 299.62L310.593 299.577C310.521 296.188 309.889 294.708 307.663 293.976Z" fill="#A3876E"/>
<path d="M46.6792 390.784C46.5679 390.784 46.4428 390.756 46.3315 390.714C45.8725 390.519 45.65 389.991 45.8447 389.532C46.1507 388.795 46.1229 387.974 45.7751 387.265C45.4553 386.611 44.8989 386.124 44.2035 385.902C43.5219 385.665 42.7848 385.721 42.1311 386.041C41.6304 386.291 41.227 386.667 40.9628 387.153C40.7263 387.585 40.17 387.751 39.7388 387.501C39.3076 387.265 39.1407 386.708 39.3911 386.277C39.8362 385.47 40.5038 384.831 41.3383 384.427C42.4232 383.885 43.6471 383.801 44.7876 384.191C45.9281 384.58 46.86 385.387 47.4024 386.472C47.9866 387.654 48.0283 389.031 47.5276 390.241C47.3746 390.575 47.0269 390.784 46.6792 390.784Z" fill="#A3876E"/>
<path d="M33.8673 396.515C33.7978 396.515 33.7283 396.501 33.6726 396.487C32.6017 396.236 31.6976 395.541 31.2108 394.554C30.3206 392.759 31.0578 390.562 32.852 389.672C33.3805 389.407 33.9647 389.282 34.5489 389.296C35.0496 389.31 35.439 389.713 35.439 390.214C35.4251 390.701 35.0218 391.104 34.5349 391.104H34.521C34.229 391.104 33.9369 391.16 33.6726 391.299C32.7686 391.744 32.393 392.857 32.852 393.761C33.1024 394.261 33.5474 394.609 34.0899 394.734C34.5767 394.846 34.8827 395.332 34.7714 395.819C34.6601 396.236 34.2846 396.515 33.8673 396.515Z" fill="#A3876E"/>
<path d="M41.0905 402.176C41.0905 402.162 40.3533 400.701 39.8665 399.728C39.5745 399.158 39.0598 398.406 38.2253 398.059C36.9457 397.53 35.0959 396.89 33.6216 396.473L34.1084 394.735C35.6383 395.166 37.5716 395.833 38.9208 396.39C40.256 396.946 41.0488 398.073 41.4799 398.907C42.2866 400.493 42.7595 401.425 42.7734 401.452L41.0905 402.176Z" fill="#A3876E"/>
<path d="M46.013 400.047C46.013 400.047 45.4706 398.963 44.6778 397.335C44.4275 396.835 43.6903 395.318 44.2327 393.719C44.5805 392.662 44.956 391.758 45.3176 390.882C45.4845 390.464 45.6653 390.047 45.8322 389.616L47.5152 390.27C47.3344 390.715 47.1675 391.146 46.9867 391.563C46.625 392.453 46.2773 393.288 45.9435 394.289C45.7349 394.901 45.8462 395.624 46.3051 396.542C47.0979 398.17 47.6543 399.338 47.6543 399.338L46.013 400.047Z" fill="#A3876E"/>
<path d="M36.5974 391.354C35.9437 391.354 35.1926 391.257 34.3164 391.09L34.6641 389.31C36.3053 389.63 37.1538 389.644 37.6684 389.324C38.2247 389.004 38.6837 388.183 39.2818 386.486L40.9925 387.085C39.8937 390.186 38.8645 391.354 36.5974 391.354Z" fill="#A3876E"/>
<path d="M23.196 384.151C23.3073 384.151 23.4325 384.179 23.5438 384.22C24.0027 384.415 24.2253 384.944 24.0306 385.403C23.7246 386.14 23.7524 386.96 24.1001 387.67C24.42 388.323 24.9763 388.81 25.6718 389.033C26.3533 389.269 27.0904 389.213 27.7441 388.894C28.2449 388.643 28.6482 388.268 28.9125 387.781C29.1489 387.35 29.7053 387.183 30.1364 387.433C30.5676 387.67 30.7345 388.226 30.4841 388.657C30.0391 389.464 29.3715 390.104 28.5369 390.507C27.4521 391.049 26.2281 391.133 25.0876 390.743C23.9471 390.354 23.0152 389.547 22.4728 388.462C21.8886 387.28 21.8469 385.903 22.3476 384.693C22.5145 384.359 22.8483 384.151 23.196 384.151Z" fill="#A3876E"/>
<path d="M36.0077 378.421C36.0772 378.421 36.1468 378.434 36.2024 378.448C37.2734 378.699 38.1774 379.394 38.6642 380.382C39.5544 382.176 38.8172 384.373 37.023 385.264C36.4945 385.528 35.9103 385.653 35.3262 385.639C34.8255 385.625 34.436 385.222 34.436 384.721C34.4499 384.234 34.8533 383.831 35.3401 383.831H35.354C35.6461 383.831 35.9382 383.775 36.2024 383.636C37.1065 383.191 37.482 382.078 37.023 381.174C36.7727 380.674 36.3276 380.326 35.7852 380.201C35.2984 380.09 34.9924 379.603 35.1036 379.116C35.2149 378.699 35.5904 378.421 36.0077 378.421Z" fill="#A3876E"/>
<path d="M28.7874 372.744C28.7874 372.758 29.5246 374.218 30.0114 375.192C30.3035 375.762 30.8181 376.513 31.6526 376.861C32.9322 377.389 34.782 378.029 36.2564 378.447L35.7696 380.185C34.2396 379.754 32.3063 379.086 30.9572 378.53C29.622 377.974 28.8292 376.847 28.398 376.013C27.5913 374.427 27.1184 373.495 27.1045 373.467L28.7874 372.744Z" fill="#A3876E"/>
<path d="M23.8854 374.887C23.8854 374.887 24.4278 375.972 25.2206 377.599C25.4709 378.1 26.2081 379.616 25.6657 381.215C25.3179 382.272 24.9424 383.176 24.5808 384.053C24.4139 384.47 24.2331 384.887 24.0662 385.318L22.3832 384.665C22.564 384.22 22.7309 383.788 22.9118 383.371C23.2734 382.481 23.6211 381.647 23.9549 380.645C24.1635 380.033 24.0523 379.31 23.5933 378.392C22.8005 376.765 22.2441 375.596 22.2441 375.596L23.8854 374.887Z" fill="#A3876E"/>
<path d="M33.295 383.579C33.9487 383.579 34.6998 383.677 35.576 383.844L35.2283 385.624C33.5871 385.304 32.7387 385.29 32.2241 385.61C31.6677 385.93 31.2087 386.751 30.6107 388.447L28.8999 387.849C29.9848 384.748 31.0279 383.579 33.295 383.579Z" fill="#A3876E"/>
<path d="M43.1218 382.136C41.6197 382.136 40.4097 380.926 40.4097 379.424C40.4097 378.283 41.7727 375.988 42.3569 375.057L43.1218 373.833L43.8868 375.057C44.471 375.988 45.834 378.297 45.834 379.424C45.834 380.926 44.624 382.136 43.1218 382.136ZM43.1218 377.338C42.5933 378.297 42.2178 379.16 42.2178 379.438C42.2178 379.939 42.6211 380.342 43.1218 380.342C43.6226 380.342 44.0259 379.939 44.0259 379.438C44.0259 379.146 43.6504 378.297 43.1218 377.338Z" fill="#A3876E"/>
<path d="M125.592 401.597L125.216 401.447C124.795 401.266 114.919 397.041 114.919 388.516V377.179L115.716 377.029C115.776 377.014 121.338 375.977 125.036 373.195L125.622 372.744L126.208 373.195C129.846 375.977 135.468 377.014 135.528 377.029L136.34 377.179V377.991C136.34 377.991 136.34 381.495 136.34 388.501C136.34 397.041 126.389 401.251 125.968 401.432L125.592 401.597ZM116.859 378.788V388.516C116.859 394.891 123.863 398.65 125.592 399.477C127.321 398.65 134.385 394.891 134.385 388.516C134.385 383.434 134.385 380.187 134.385 378.788C132.702 378.412 128.734 377.33 125.622 375.18C122.465 377.33 118.527 378.397 116.859 378.788Z" fill="#A3876E"/>
<path d="M125.611 378.787C123.927 379.764 121.568 380.696 119.914 381.223C119.914 381.283 119.914 382.441 119.914 382.471V386.711L125.626 386.726L125.611 378.787C125.626 378.802 125.626 378.787 125.611 378.787ZM131.338 386.711L125.626 386.726V396.078C127.61 394.935 131.338 392.304 131.338 388.47C131.338 387.853 131.338 387.267 131.338 386.711Z" fill="#A3876E"/>
<path d="M225.574 376.906L224.16 378.274L222.146 380.243H209.141V392.872L206.886 395.067C205.172 392.977 204.15 390.316 204.15 387.415C204.15 380.754 209.577 375.327 216.238 375.327C218.553 375.327 220.718 375.989 222.552 377.116L223.995 375.718C221.77 374.245 219.094 373.373 216.222 373.373C208.465 373.373 202.181 379.657 202.181 387.415C202.181 391.564 203.97 395.277 206.826 397.848L208.239 396.48L210.329 394.45H223.334V381.822L225.529 379.687C227.273 381.792 228.325 384.483 228.325 387.415C228.325 394.075 222.898 399.502 216.238 399.502C213.892 399.502 211.697 398.825 209.833 397.653L208.39 399.051C210.63 400.569 213.336 401.441 216.238 401.441C223.995 401.441 230.279 395.157 230.279 387.399C230.294 383.22 228.46 379.477 225.574 376.906ZM211.096 382.198H220.131L211.096 390.978V382.198ZM221.379 392.481H212.344L221.379 383.701V392.481Z" fill="#A3876E"/>
<path d="M305.673 400.031L307.597 401.143H307.628V388.65L317.49 394.273L319.429 393.13L308.62 386.966L318.527 381.283V379.103L318.497 379.043L307.628 385.282V373.796L305.793 372.744H305.673V385.282L295.766 379.63L293.856 380.757L293.841 380.787L304.681 386.966L294.819 392.619L294.803 394.829L294.834 394.859L305.673 388.65V400.031Z" fill="#A3876E"/>
<path d="M43.9417 474.507L39.7622 484.82L34.5604 462.63H32.5459L28.2311 478.837L26.6826 474.507H20.7441V476.461H25.2995L27.3591 482.219H29.3436L33.493 466.659L38.4994 488.037H40.559L45.2497 476.461H49.8351V474.507H43.9417Z" fill="#A3876E"/>
<path d="M137.271 467.056L126.086 479.85L116.599 470.845L115.261 472.258L124.808 481.324L123.47 482.842L113.743 473.716L112.405 475.145L123.605 485.654L138.744 468.349L137.271 467.056ZM135.723 465.809L134.249 464.516L124.522 475.626L125.935 476.979L135.723 465.809Z" fill="#A3876E"/>
<path d="M207.438 489.384L205.814 488.286L206.19 487.685C207.738 485.34 208.535 484.302 210.986 484.272H218.818C220.066 484.272 221.419 483.37 222.953 481.506C224.426 479.702 227.508 475.823 228.365 474.605C228.906 473.839 228.47 473.222 228.245 473.057C227.779 472.681 227.042 472.937 226.561 473.388C225.674 474.23 220.713 478.559 220.502 478.74L219.209 477.266C219.254 477.221 224.336 472.786 225.208 471.959C226.486 470.772 228.26 470.591 229.448 471.538C230.515 472.395 231.056 474.169 229.929 475.748C229.057 476.981 225.93 480.935 224.441 482.754C222.517 485.099 220.683 486.227 218.803 486.227H210.986C209.603 486.242 209.332 486.452 207.814 488.752L207.438 489.384Z" fill="#A3876E"/>
<path d="M202.096 484.319L200.923 482.485C200.938 482.47 201.87 481.072 203.358 478.907C205.057 476.456 206.756 475.404 209.056 475.404C209.131 475.404 215.987 475.419 217.926 475.404H217.941C218.979 475.404 219.866 475.9 220.362 476.757C220.903 477.704 220.903 478.982 220.347 479.929C219.836 480.801 218.964 481.297 217.926 481.297H217.911C215.942 481.282 213.025 481.297 212.995 481.297L212.98 479.343C213.01 479.343 215.942 479.328 217.911 479.343C218.257 479.343 218.483 479.207 218.648 478.937C218.859 478.576 218.859 478.065 218.663 477.719C218.513 477.463 218.287 477.343 217.926 477.343C217.926 477.343 217.926 477.343 217.911 477.343C215.972 477.358 209.101 477.343 209.041 477.343C207.688 477.343 206.485 477.794 204.967 480.004C203.479 482.154 202.111 484.304 202.096 484.319Z" fill="#A3876E"/>
<path d="M219.858 472.487C220.938 472.487 221.813 471.612 221.813 470.532C221.813 469.453 220.938 468.578 219.858 468.578C218.779 468.578 217.904 469.453 217.904 470.532C217.904 471.612 218.779 472.487 219.858 472.487Z" fill="#A3876E"/>
<path d="M212.126 464.653C213.205 464.653 214.08 463.778 214.08 462.698C214.08 461.619 213.205 460.744 212.126 460.744C211.046 460.744 210.171 461.619 210.171 462.698C210.171 463.778 211.046 464.653 212.126 464.653Z" fill="#A3876E"/>
<path d="M212.827 472.456H210.196L219.171 460.745L221.802 460.76L212.827 472.456Z" fill="#A3876E"/>
<path d="M308.262 475.512C308.051 476.565 307.014 477.241 305.976 477.016C304.924 476.805 304.248 475.768 304.473 474.73C304.684 473.678 305.721 473.001 306.758 473.227C307.796 473.437 308.472 474.475 308.262 475.512Z" fill="#A3876E"/>
<path d="M321.988 474.146H318.514V476.1H321.988V474.146Z" fill="#A3876E"/>
<path d="M294.172 474.146H290.699V476.1H294.172V474.146Z" fill="#A3876E"/>
<path d="M307.324 459.487H305.369V462.96H307.324V459.487Z" fill="#A3876E"/>
<path d="M307.324 487.3H305.369V490.773H307.324V487.3Z" fill="#A3876E"/>
<path d="M315.563 467.304L307.054 475.813L305.673 474.432L314.167 465.938V462.328H316.12V465.351H319.128V467.304H315.563Z" fill="#A3876E"/>
<path d="M306.363 461.456C308.461 461.456 310.45 461.931 312.227 462.779V464.984C310.502 463.984 308.499 463.411 306.363 463.411C299.899 463.411 294.652 468.673 294.652 475.122C294.652 481.587 299.899 486.834 306.363 486.834C312.828 486.834 318.075 481.587 318.075 475.122C318.075 472.993 317.506 470.996 316.511 469.275L316.513 469.273H318.709C319.552 471.047 320.025 473.03 320.029 475.122C320.029 482.67 313.91 488.788 306.363 488.788C298.816 488.788 292.697 482.67 292.697 475.122C292.697 467.575 298.816 461.456 306.363 461.456Z" fill="#A3876E"/>
<path d="M309.468 467.966C308.516 467.55 307.467 467.32 306.363 467.32C302.049 467.32 298.561 470.808 298.561 475.122C298.561 479.437 302.049 482.925 306.363 482.925C310.678 482.925 314.166 479.437 314.166 475.122C314.162 474.076 313.953 473.077 313.577 472.164L312.033 473.684C312.15 474.144 312.212 474.626 312.212 475.122C312.212 478.34 309.596 480.971 306.363 480.971C303.131 480.971 300.515 478.355 300.515 475.122C300.515 471.905 303.131 469.274 306.363 469.274C306.902 469.274 307.424 469.347 307.92 469.484L309.468 467.966Z" fill="#A3876E"/>
<path d="M43.7403 564.091C43.2592 564.001 42.763 563.956 42.297 563.956C40.3726 563.956 38.6587 564.692 37.2906 566.09C36.4938 565.76 35.6218 565.594 34.7499 565.594C33.3066 565.594 31.9084 566.06 30.7057 566.902C30.6305 566.166 30.5403 565.459 30.4351 564.767C30.1344 562.618 29.8638 560.723 30.6606 558.393C30.9763 558.423 31.262 558.438 31.5175 558.438C33.2916 558.438 34.1485 557.747 35.3512 556.619C36.133 555.882 36.5239 555.131 36.5239 554.319C36.5389 553.131 35.7271 552.169 34.9303 551.387C34.2688 550.726 33.2314 549.854 32.6451 549.373H30.6005C30.2397 549.688 29.6984 550.169 29.3677 550.5C25.8046 553.943 25.4588 554.8 25.3386 555.086C23.8201 558.904 22.0311 565.128 22.016 570.09C22.016 570.886 22.016 571.187 22.001 571.352C22.001 571.608 22.001 571.638 22.001 572.315C22.031 574.93 24.4365 575.923 26.2406 576.449C27.9996 576.96 30.4802 577.05 34.4191 577.05C35.3813 577.05 36.4487 577.05 37.6063 577.035C38.9895 577.035 40.5681 577.02 42.2819 577.02H42.3421C44.9881 577.02 46.3862 575.787 47.0928 574.75C47.8746 573.592 48.2655 572.059 48.2655 570.18C48.2655 567.759 47.0778 564.707 43.7403 564.091ZM45.4692 573.653C44.8227 574.6 43.8004 575.066 42.3421 575.066H42.2819C40.553 575.066 38.9744 575.081 37.5913 575.081C36.4337 575.081 35.3813 575.096 34.4041 575.096C30.6456 575.096 28.3153 575.006 26.7668 574.57C24.2862 573.848 23.9554 573.021 23.9404 572.284C23.9253 571.608 23.9253 571.593 23.9404 571.367C23.9404 571.187 23.9404 570.886 23.9554 570.074C23.9704 565.399 25.6843 559.46 27.1426 555.792C27.2479 555.521 28.1349 554.364 30.7057 551.883C30.9462 551.658 31.3071 551.327 31.6077 551.056C32.179 551.537 33.0059 552.244 33.5321 552.77C34.2237 553.447 34.5544 553.943 34.5544 554.289C34.5544 554.529 34.359 554.83 33.9831 555.191C32.9458 556.168 32.5248 556.484 31.5025 556.484C31.1868 556.484 30.7959 556.454 30.3449 556.393L29.4729 556.213L29.4428 556.273H29.3977L29.0971 556.98C29.0369 557.13 28.9768 557.28 28.9166 557.431V557.446C27.8192 560.377 28.1499 562.663 28.4807 565.083C28.646 566.256 28.8114 567.474 28.8264 568.812L30.5554 569.729C31.6529 568.361 33.1262 567.594 34.7198 567.594C35.5317 567.594 36.3284 567.804 37.035 568.195L37.7567 568.601L38.2678 567.955C39.3353 566.632 40.6733 565.955 42.2669 565.955C42.6277 565.955 42.9885 565.985 43.3644 566.06C46.1457 566.572 46.281 569.608 46.281 570.21C46.3111 571.638 46.0254 572.841 45.4692 573.653Z" fill="#A3876E"/>
<path d="M139.911 554.499C139.625 553.071 138.603 551.973 137.175 551.522C136.318 551.252 135.506 551.312 134.815 551.537C134.98 550.996 135.1 550.665 135.1 550.65L135.506 549.373H126.05H125.899H116.293L116.699 550.65C116.699 550.665 116.804 550.996 116.984 551.537C116.278 551.312 115.466 551.252 114.594 551.522C113.181 551.958 112.158 553.071 111.858 554.499C111.557 555.957 112.098 557.446 113.286 558.468C114.218 559.295 116.699 561.46 118.457 562.903C119.134 563.459 119.194 564.181 118.954 564.662C118.683 565.188 118.082 565.399 117.33 565.203L116.834 567.098C117.18 567.188 117.54 567.233 117.871 567.233C119.089 567.233 120.141 566.632 120.698 565.564C121.058 564.843 121.134 564.046 120.923 563.294C121.494 564.512 122.171 565.489 123.088 566.12C123.043 569.954 121.78 570.631 120.562 571.277C119.525 571.833 118.217 572.51 118.217 574.75V576.704H125.959H126.005H133.747V574.75C133.747 572.525 132.454 571.833 131.402 571.277C130.169 570.616 128.876 569.939 128.876 565.97C129.673 565.354 130.274 564.482 130.785 563.399C130.62 564.121 130.695 564.888 131.041 565.579C131.582 566.647 132.635 567.248 133.867 567.248C134.198 567.248 134.544 567.203 134.905 567.113L134.409 565.218C133.672 565.414 133.056 565.218 132.785 564.677C132.544 564.211 132.605 563.475 133.281 562.918C135.04 561.475 137.521 559.31 138.453 558.483C139.671 557.446 140.212 555.973 139.911 554.499ZM119.705 561.415C117.961 559.987 115.511 557.837 114.579 557.01L114.564 556.995C113.917 556.439 113.617 555.657 113.767 554.89C113.917 554.183 114.428 553.612 115.165 553.387C116.353 553.011 117.465 553.943 117.856 554.304C118.548 556.454 119.36 558.994 119.765 560.227C120.006 560.979 120.262 561.685 120.517 562.332C120.322 562.001 120.036 561.685 119.705 561.415ZM130.515 573.006C131.432 573.487 131.808 573.698 131.808 574.75H126.02H125.975H120.186C120.186 573.698 120.562 573.502 121.479 573.006C123.238 572.074 124.817 570.886 125.027 566.857C125.298 566.902 125.569 566.917 125.869 566.917H125.884H125.899C126.275 566.917 126.621 566.872 126.952 566.812C127.162 570.886 128.756 572.074 130.515 573.006ZM125.899 564.963C123.9 564.933 123.028 563.82 121.645 559.641C121.073 557.882 119.66 553.522 118.969 551.342H125.899H126.05H132.83C132.138 553.522 130.74 557.897 130.154 559.641C128.771 563.82 127.884 564.918 125.899 564.963ZM137.205 556.995L137.19 557.01C136.273 557.822 133.807 559.972 132.063 561.415C131.748 561.67 131.492 561.956 131.297 562.272C131.537 561.64 131.778 560.964 132.018 560.242C132.424 558.994 133.251 556.439 133.943 554.289C134.348 553.913 135.446 553.041 136.604 553.402C137.325 553.627 137.851 554.183 138.002 554.905C138.152 555.657 137.851 556.439 137.205 556.995Z" fill="#A3876E"/>
<path d="M221.594 550.001C219.268 550.001 217.137 550.986 215.667 552.617C215.635 552.649 214.941 553.311 214.941 553.311C214.941 553.311 214.246 552.633 214.198 552.601C212.729 550.986 210.613 550.001 208.288 550.001C203.88 550.001 200.295 553.586 200.295 557.994C200.295 559.964 201.022 561.854 202.33 563.323L202.362 563.371C205.349 566.892 209.887 572.027 212.373 574.836L213.455 576.047H216.491C216.782 575.724 217.153 575.305 217.573 574.82C218.752 573.48 220.399 571.639 222.11 569.685H219.317C217.492 571.752 215.877 573.577 214.973 574.594C212.939 572.317 207.416 566.1 203.96 562.031L203.912 561.967C202.927 560.885 202.394 559.48 202.394 558.01C202.394 554.749 205.042 552.117 208.288 552.117C209.87 552.117 211.324 552.73 212.39 553.764L214.941 556.25C214.941 556.25 216.394 554.829 217.315 553.941C218.396 552.795 219.93 552.117 221.594 552.117C224.855 552.117 227.488 554.765 227.488 558.01C227.488 558.414 227.455 558.802 227.374 559.189H229.506C229.571 558.802 229.587 558.414 229.587 558.01C229.587 553.586 226.002 550.001 221.594 550.001Z" fill="#A3876E"/>
<path d="M227.656 563.452L225.557 568.7L221.988 557.154H219.792L217.547 563.532H214.77V565.632H219.033L220.825 560.497L224.346 571.881H226.542L229.077 565.551H231.725V563.452H227.656Z" fill="#A3876E"/>
<path d="M307.031 577.607C303.337 577.607 299.628 576.201 296.817 573.389C294.095 570.668 292.584 567.034 292.584 563.175C292.584 559.317 294.08 555.698 296.817 552.961C302.455 547.338 311.607 547.338 317.245 552.961C318.875 554.591 320.101 556.595 320.789 558.779L318.935 559.362C318.322 557.448 317.29 555.758 315.869 554.322C310.994 549.447 303.068 549.447 298.192 554.322C295.83 556.685 294.529 559.825 294.529 563.16C294.529 566.495 295.83 569.636 298.192 571.999C303.068 576.874 310.994 576.874 315.869 571.999C317.26 570.608 318.277 568.978 318.89 567.123L320.729 567.736C320.011 569.875 318.845 571.774 317.245 573.374C314.433 576.186 310.725 577.607 307.031 577.607Z" fill="#A3876E"/>
<path d="M307.027 572.387C304.56 572.387 302.242 571.43 300.507 569.68C299.984 569.156 299.52 568.573 299.131 567.93L300.791 566.928C301.09 567.422 301.464 567.885 301.868 568.304C303.244 569.68 305.068 570.443 307.012 570.443C308.957 570.443 310.781 569.68 312.157 568.304C313.533 566.928 314.295 565.104 314.295 563.16C314.295 561.215 313.533 559.391 312.157 558.015C309.316 555.174 304.709 555.174 301.868 558.015C301.404 558.479 301.016 558.987 300.702 559.541L299.012 558.569C299.415 557.866 299.909 557.208 300.492 556.624C304.081 553.035 309.944 553.035 313.533 556.624C315.267 558.359 316.24 560.677 316.24 563.145C316.24 565.612 315.282 567.93 313.533 569.665C311.813 571.43 309.495 572.387 307.027 572.387Z" fill="#A3876E"/>
<path d="M307.03 567.227C305.953 567.227 304.921 566.809 304.158 566.046C303.396 565.283 302.977 564.266 302.977 563.175C302.977 562.098 303.396 561.066 304.158 560.303C304.921 559.541 305.938 559.122 307.03 559.122C308.106 559.122 309.123 559.541 309.901 560.303L308.525 561.679C308.121 561.275 307.598 561.066 307.03 561.066C306.461 561.066 305.938 561.29 305.534 561.679C305.131 562.083 304.921 562.606 304.921 563.175C304.921 563.743 305.145 564.266 305.534 564.67C305.938 565.074 306.461 565.283 307.03 565.283C307.598 565.283 308.121 565.059 308.525 564.67L309.901 566.046C309.123 566.794 308.106 567.227 307.03 567.227Z" fill="#A3876E"/>
<path d="M36.2479 636.744H34.187V642.895H36.2479V636.744Z" fill="#A3876E"/>
<path d="M44.7405 640.21L40.3911 644.559L41.8484 646.016L46.1977 641.667L44.7405 640.21Z" fill="#A3876E"/>
<path d="M25.6804 640.185L24.2231 641.642L28.5725 645.991L30.0297 644.534L25.6804 640.185Z" fill="#A3876E"/>
<path d="M49.7232 650.14H43.5723V652.201H49.7232V650.14Z" fill="#A3876E"/>
<path d="M26.8951 650.14H20.7441V652.201H26.8951V650.14Z" fill="#A3876E"/>
<path d="M47.6616 665.66L35.217 652.66L22.8041 665.612L21.314 664.186L35.217 649.68L49.1518 664.233L47.6616 665.66Z" fill="#A3876E"/>
<path d="M41.6376 657.876L40.2108 656.386C41.6534 655.007 42.4461 653.168 42.4461 651.17C42.4461 647.191 39.2121 643.957 35.233 643.957C31.2539 643.957 28.0199 647.191 28.0199 651.17C28.0199 653.152 28.8125 655.007 30.2393 656.37L28.8125 657.86C26.9736 656.101 25.959 653.723 25.959 651.17C25.959 646.05 30.1125 641.896 35.233 641.896C40.3535 641.896 44.507 646.05 44.507 651.17C44.4911 653.723 43.4765 656.116 41.6376 657.876Z" fill="#A3876E"/>
<path d="M125.429 648.365C123.291 648.365 121.541 646.451 121.541 644.103V642.892C121.541 640.544 123.291 638.63 125.429 638.63C127.568 638.63 129.317 640.544 129.317 642.892V644.103C129.317 646.451 127.583 648.365 125.429 648.365ZM125.429 640.574C124.382 640.574 123.485 641.636 123.485 642.892V644.103C123.485 645.374 124.353 646.421 125.429 646.421C126.476 646.421 127.373 645.359 127.373 644.103V642.892C127.373 641.636 126.491 640.574 125.429 640.574Z" fill="#A3876E"/>
<path d="M115.779 648.291C113.641 648.291 111.891 646.751 111.891 644.866V643.969C111.891 642.085 113.641 640.544 115.779 640.544C117.918 640.544 119.668 642.085 119.668 643.969V644.866C119.668 646.766 117.918 648.291 115.779 648.291ZM115.779 642.489C114.733 642.489 113.835 643.162 113.835 643.969V644.866C113.835 645.674 114.733 646.347 115.779 646.347C116.826 646.347 117.723 645.674 117.723 644.866V643.969C117.723 643.162 116.841 642.489 115.779 642.489Z" fill="#A3876E"/>
<path d="M135.073 648.291C132.935 648.291 131.185 646.751 131.185 644.866V643.969C131.185 642.085 132.935 640.544 135.073 640.544C137.212 640.544 138.962 642.085 138.962 643.969V644.866C138.962 646.766 137.212 648.291 135.073 648.291ZM135.073 642.489C134.026 642.489 133.129 643.162 133.129 643.969V644.866C133.129 645.674 134.026 646.347 135.073 646.347C136.12 646.347 137.017 645.674 137.017 644.866V643.969C137.017 643.162 136.135 642.489 135.073 642.489Z" fill="#A3876E"/>
<path d="M119.519 663.86H117.575V656.113C117.575 653.765 117.949 652.001 118.727 650.744C119.714 649.159 121.314 648.352 123.482 648.352V650.296C121.419 650.296 119.519 650.999 119.519 656.113V663.86Z" fill="#A3876E"/>
<path d="M109.949 659.985L108.005 659.97C108.005 659.941 108.035 657.144 108.035 655.2C108.035 651.656 108.738 648.381 113.808 648.381V650.325C110.847 650.325 109.979 651.416 109.979 655.2C109.979 657.144 109.949 659.956 109.949 659.985Z" fill="#A3876E"/>
<path d="M141.056 659.971C141.056 659.941 141.026 657.13 141.026 655.171C141.026 651.447 140.114 650.311 137.093 650.311V648.366C142.268 648.366 142.97 651.806 142.97 655.171C142.97 657.115 143 659.911 143 659.941L141.056 659.971Z" fill="#A3876E"/>
<path d="M133.278 663.86H131.334V656.113C131.334 650.999 129.434 650.296 127.371 650.296V648.352C129.539 648.352 131.139 649.159 132.126 650.744C132.904 652.001 133.278 653.75 133.278 656.113V663.86Z" fill="#A3876E"/>
<path d="M129.315 654.137H127.371V656.082H129.315V654.137Z" fill="#A3876E"/>
<path d="M207.716 644.814C208.598 646.169 210.125 646.986 211.994 646.986C213.863 646.986 215.39 646.169 216.272 644.814C217.154 646.169 218.681 646.986 220.55 646.986C222.419 646.986 223.946 646.169 224.828 644.814C225.71 646.169 227.237 646.986 229.106 646.986V645.274C227.027 645.274 225.684 643.905 225.684 641.799V641.786H223.973V641.799C223.973 643.918 222.63 645.274 220.55 645.274C218.47 645.274 217.128 643.905 217.128 641.786C217.128 641.786 217.128 641.786 217.128 641.773H215.416C215.416 641.773 215.416 641.773 215.416 641.786C215.416 643.905 214.074 645.274 211.994 645.274C209.914 645.274 208.571 643.905 208.571 641.786H206.86C206.86 643.905 205.517 645.274 203.438 645.274V646.986C205.307 646.972 206.834 646.156 207.716 644.814Z" fill="#A3876E"/>
<path d="M225.684 648.631C225.684 648.631 225.684 648.618 225.684 648.631L223.973 648.618V648.631C223.973 650.75 222.63 652.106 220.55 652.106C218.47 652.106 217.128 650.737 217.128 648.618C217.128 648.618 217.128 648.618 217.128 648.604H215.416C215.416 648.604 215.416 648.604 215.416 648.618C215.416 650.737 214.074 652.106 211.994 652.106C209.914 652.106 208.571 650.737 208.571 648.618H206.86C206.86 650.737 205.517 652.106 203.438 652.106V653.817C205.307 653.817 206.834 653.001 207.716 651.645C208.598 653.001 210.125 653.817 211.994 653.817C213.863 653.817 215.39 653.001 216.272 651.645C217.154 653.001 218.681 653.817 220.55 653.817C222.419 653.817 223.946 653.001 224.828 651.645C225.71 653.001 227.237 653.817 229.106 653.817V652.106C227.04 652.106 225.697 650.75 225.684 648.631Z" fill="#A3876E"/>
<path d="M225.684 655.608C225.684 655.608 225.684 655.595 225.684 655.608L223.973 655.595V655.608C223.973 657.727 222.63 659.083 220.55 659.083C218.47 659.083 217.128 657.714 217.128 655.595C217.128 655.595 217.128 655.595 217.128 655.581H215.416C215.416 655.581 215.416 655.581 215.416 655.595C215.416 657.714 214.074 659.083 211.994 659.083C209.914 659.083 208.571 657.714 208.571 655.595H206.86C206.86 657.714 205.517 659.083 203.438 659.083V660.794C205.307 660.794 206.834 659.978 207.716 658.622C208.598 659.978 210.125 660.794 211.994 660.794C213.863 660.794 215.39 659.978 216.272 658.622C217.154 659.978 218.681 660.794 220.55 660.794C222.419 660.794 223.946 659.978 224.828 658.622C225.71 659.978 227.237 660.794 229.106 660.794V659.083C227.04 659.083 225.697 657.727 225.684 655.608Z" fill="#A3876E"/>
<path d="M320.771 645.044C318.045 645.044 314.619 645.431 312.132 648.41C311.923 644.06 309.629 639.815 307.648 637.373H304.878C302.554 640.232 299.799 645.58 300.484 650.659C300.797 653.012 301.795 655.038 303.478 656.692H300.558C296.12 656.692 292.634 653.31 292.634 648.976V646.995C295.568 647.144 297.475 647.978 298.89 649.721L300.394 648.499C297.907 645.431 294.422 645.029 291.666 645.029H290.698V648.976C290.698 653.236 293.379 656.751 297.207 658.077C295.524 659.239 294.585 661.1 294.556 663.499L294.541 664.482H295.524C301.541 664.482 304.803 664.02 306.263 661.815C307.738 664.005 310.985 664.482 317.003 664.482H317.986L317.971 663.499C317.941 661.086 316.988 659.224 315.29 658.062C319.088 656.736 321.739 653.221 321.739 648.991V645.044H320.771ZM296.581 662.545C297.103 659.343 299.933 658.643 302.346 658.643H305.28C305.042 661.592 303.642 662.471 296.581 662.545ZM306.263 656.513C304.029 654.964 302.733 652.923 302.405 650.421C301.824 646.056 304.252 641.305 306.263 638.758C308.274 641.305 310.702 646.056 310.121 650.421C309.793 652.908 308.497 654.964 306.263 656.513ZM315.96 662.545C308.9 662.471 307.499 661.592 307.261 658.643H310.195C312.594 658.643 315.439 659.343 315.96 662.545ZM319.803 648.991C319.803 653.31 316.317 656.706 311.879 656.706H309.063C310.732 655.053 311.745 653.027 312.057 650.674C312.147 649.989 312.177 649.289 312.147 648.589L313.562 649.736C314.977 647.993 316.868 647.159 319.818 647.01L319.803 648.991Z" fill="#A3876E"/>
<path d="M35.0524 746.654C29.7136 746.654 25.3618 742.302 25.3618 736.963H27.3059C27.3059 741.24 30.7754 744.71 35.0524 744.71C39.3295 744.71 42.799 741.24 42.799 736.963H44.7431C44.7431 742.317 40.3913 746.654 35.0524 746.654Z" fill="#A3876E"/>
<path d="M34.9348 734.959H19.5464V731.13C19.5464 728.124 26.949 725.373 35.0694 725.373V727.317C31.4503 727.317 27.921 727.87 25.1245 728.872C22.2233 729.919 21.5055 730.936 21.4905 731.13V732.999H34.9348V734.959Z" fill="#A3876E"/>
<path d="M50.5915 734.959H34.5601V733.014H48.6474V731.13C48.6324 730.936 47.9296 729.919 45.0134 728.872C42.2169 727.87 38.6875 727.317 35.0685 727.317V725.373C43.1889 725.373 50.5915 728.124 50.5915 731.13V734.959Z" fill="#A3876E"/>
<path d="M50.5933 736.993H46.7051V738.937H50.5933V736.993Z" fill="#A3876E"/>
<path d="M23.3755 736.993H19.4873V738.937H23.3755V736.993Z" fill="#A3876E"/>
<path d="M36.0105 748.627H34.0664V752.516H36.0105V748.627Z" fill="#A3876E"/>
<path d="M28.771 746.869L26.8354 750.241L28.5216 751.209L30.4571 747.837L28.771 746.869Z" fill="#A3876E"/>
<path d="M24.8315 742.663L21.4795 744.633L22.4648 746.309L25.8168 744.339L24.8315 742.663Z" fill="#A3876E"/>
<path d="M41.5011 746.869L39.8149 747.837L41.7505 751.209L43.4366 750.242L41.5011 746.869Z" fill="#A3876E"/>
<path d="M45.4384 742.679L44.4531 744.355L47.8052 746.326L48.7904 744.65L45.4384 742.679Z" fill="#A3876E"/>
<path d="M133.263 752.695H117.71L116.738 751.723V726.345L117.71 725.373H133.263L134.235 726.345V751.723L133.263 752.695ZM118.682 750.751H132.291V727.317H118.682V750.751Z" fill="#A3876E"/>
<path d="M125.547 748.792C122.87 748.792 120.672 746.609 120.672 743.917C120.672 741.24 122.855 739.042 125.547 739.042C128.224 739.042 130.407 741.225 130.407 743.917C130.407 746.609 128.224 748.792 125.547 748.792ZM125.547 741.001C123.932 741.001 122.616 742.317 122.616 743.932C122.616 745.547 123.932 746.863 125.547 746.863C127.162 746.863 128.463 745.547 128.463 743.932C128.463 742.317 127.147 741.001 125.547 741.001Z" fill="#A3876E"/>
<path d="M125.502 737.008C123.364 737.008 121.614 735.274 121.614 733.12C121.614 730.982 123.364 729.232 125.502 729.232C127.641 729.232 129.391 730.967 129.391 733.12C129.391 735.259 127.641 737.008 125.502 737.008ZM125.502 731.176C124.426 731.176 123.558 732.043 123.558 733.12C123.558 734.182 124.426 735.064 125.502 735.064C126.579 735.064 127.447 734.197 127.447 733.12C127.447 732.043 126.579 731.176 125.502 731.176Z" fill="#A3876E"/>
<path d="M113.403 743.274C112.386 741.943 111.863 740.507 111.863 738.997C111.863 737.561 112.341 736.185 113.269 734.899L114.839 736.036C114.151 736.978 113.807 737.98 113.807 738.997C113.807 740.059 114.196 741.105 114.943 742.092L113.403 743.274Z" fill="#A3876E"/>
<path d="M110.382 745.516C108.812 743.452 108.004 741.254 108.004 738.951C108.004 736.752 108.737 734.644 110.173 732.655L111.743 733.791C110.547 735.436 109.949 737.171 109.949 738.936C109.949 740.79 110.607 742.615 111.923 744.32L110.382 745.516Z" fill="#A3876E"/>
<path d="M137.568 743.274L136.028 742.092C136.791 741.105 137.164 740.059 137.164 738.997C137.164 737.98 136.82 736.993 136.118 736.036L137.688 734.899C138.63 736.185 139.094 737.561 139.094 738.997C139.109 740.492 138.585 741.928 137.568 743.274Z" fill="#A3876E"/>
<path d="M140.589 745.516L139.048 744.335C140.364 742.63 141.022 740.821 141.022 738.951C141.022 737.172 140.409 735.452 139.228 733.807L140.798 732.67C142.234 734.644 142.966 736.768 142.966 738.966C142.966 741.239 142.174 743.453 140.589 745.516Z" fill="#A3876E"/>
<path d="M126.52 742.945H124.576V744.889H126.52V742.945Z" fill="#A3876E"/>
<path d="M226.569 744.574H210.119C205.902 744.574 204.317 743.318 203.001 738.951V738.936L200.294 729.215L202.163 728.692L204.87 738.398C205.932 741.912 206.814 742.63 210.134 742.63H226.584C228.663 742.63 229.276 741.209 229.441 740.132C228.349 739.848 226.33 739.325 223.967 738.712C219.152 737.455 213.17 735.885 211.256 735.437L210.673 735.302L210.538 734.719C209.895 732.102 208.1 725.297 208.085 725.237L209.97 724.744C209.985 724.804 211.555 730.756 212.288 733.687C214.65 734.27 220.064 735.676 224.476 736.827C227.556 737.635 230.218 738.323 230.712 738.442L231.46 738.622V739.4C231.43 741.777 230.159 744.574 226.569 744.574Z" fill="#A3876E"/>
<path d="M217.85 744.574V742.63C218.179 742.63 218.328 742.526 218.403 742.451C218.552 742.301 218.717 741.972 218.792 741.269C216.668 740.851 211.972 739.894 211.748 739.834L212.137 737.935C212.197 737.95 218.747 739.28 219.973 739.52L220.751 739.669V740.462C220.766 741.464 220.661 742.9 219.764 743.812C219.285 744.305 218.627 744.574 217.85 744.574Z" fill="#A3876E"/>
<path d="M215.952 750.272C218.599 750.272 220.977 749.091 222.577 747.221L221.187 745.86C219.93 747.371 218.046 748.328 215.952 748.328C213.889 748.328 212.034 747.401 210.778 745.935L209.387 747.296C211.002 749.12 213.35 750.272 215.952 750.272ZM223.968 748.597C222.009 750.81 219.138 752.216 215.952 752.216C212.797 752.216 209.97 750.84 208.011 748.672L206.621 750.033C208.939 752.56 212.259 754.16 215.952 754.16C219.676 754.16 223.041 752.53 225.359 749.958L223.968 748.597Z" fill="#A3876E"/>
<path d="M297.671 732.086H295.727V741.089H297.671V732.086Z" fill="#A3876E"/>
<path d="M301.558 728.348H299.614V737.021H301.558V728.348Z" fill="#A3876E"/>
<path d="M305.474 725.955H303.53V737.021H305.474V725.955Z" fill="#A3876E"/>
<path d="M309.336 726.103H307.392V737.02H309.336V726.103Z" fill="#A3876E"/>
<path d="M307.39 746.742H305.446C305.446 742.704 308.243 740.401 311.279 739.997V728.348H313.223V741.882H312.251C309.828 741.882 307.39 743.392 307.39 746.742Z" fill="#A3876E"/>
<path d="M305.476 728.392H303.532C303.532 727.824 303.083 727.376 302.545 727.376C302.007 727.376 301.558 727.839 301.558 728.392H299.614C299.614 726.762 300.93 725.431 302.545 725.431C304.16 725.431 305.476 726.762 305.476 728.392Z" fill="#A3876E"/>
<path d="M301.589 732.235H299.645C299.645 731.667 299.197 731.218 298.658 731.218C298.12 731.218 297.671 731.682 297.671 732.235H295.727C295.727 730.605 297.043 729.274 298.658 729.274C300.273 729.274 301.589 730.605 301.589 732.235Z" fill="#A3876E"/>
<path d="M313.224 728.392H311.28C311.28 727.824 310.847 727.376 310.308 727.376C309.77 727.376 309.336 727.839 309.336 728.392H307.392C307.392 726.762 308.693 725.431 310.308 725.431C311.923 725.431 313.224 726.762 313.224 728.392Z" fill="#A3876E"/>
<path d="M309.332 726.388H307.388C307.388 725.865 306.954 725.431 306.431 725.431C305.908 725.431 305.474 725.865 305.474 726.388H303.53C303.53 724.788 304.831 723.487 306.431 723.487C308.031 723.487 309.332 724.788 309.332 726.388Z" fill="#A3876E"/>
<path d="M316.95 740.909H315.005V735.242C314.004 735.451 313.226 736.109 313.226 738.083H311.282C311.297 734.957 312.957 733.223 315.978 733.223H316.95V740.909Z" fill="#A3876E"/>
<path d="M307.003 754.414H305.672C300.184 754.414 295.727 750.271 295.727 745.172V736.902H297.671V745.172C297.671 749.195 301.26 752.47 305.672 752.47H307.003C311.415 752.47 315.004 749.195 315.004 745.172V736.902H316.948V745.172C316.948 750.271 312.491 754.414 307.003 754.414Z" fill="#A3876E"/>
<path d="M43.2941 835.28C42.2174 835.28 41.1855 834.922 40.348 834.249C38.2693 832.589 37.9702 829.478 39.705 827.31L40.4826 826.338L41.9931 827.549L41.2154 828.521C40.1536 829.837 40.3181 831.721 41.5594 832.723C42.1575 833.202 42.9053 833.396 43.6979 833.291C44.4905 833.187 45.2233 832.768 45.7317 832.125L49.2012 827.803C50.263 826.487 50.0985 824.603 48.8573 823.601C48.3787 823.212 47.7955 823.003 47.1524 823.003L47.1823 821.059C48.2441 821.073 49.2461 821.432 50.0686 822.09C52.1473 823.75 52.4464 826.861 50.7117 829.029L47.2421 833.351C46.4196 834.383 45.2382 835.056 43.9372 835.221C43.7428 835.265 43.5184 835.28 43.2941 835.28Z" fill="#A3876E"/>
<path d="M47.1795 828.896L31.8809 825.935V821.075H47.3739V823.019H33.825V824.335L47.5534 826.982L47.1795 828.896Z" fill="#A3876E"/>
<path d="M41.6793 832.903C40.8119 832.05 27.2181 822.928 23.6738 820.431L20.6679 815.481L18.8584 815.989V823.736L25.7076 830.57H28.4742L20.8324 822.958L20.8174 819.488L22.2232 821.791L22.3877 821.911C29.9548 827.235 39.5856 833.621 40.3184 834.294C41.4251 835.385 41.4549 837.18 40.3632 838.287C39.8249 838.84 39.107 839.139 38.3444 839.139C37.5966 839.139 36.8938 838.855 36.3703 838.331L28.5939 830.675V833.411L35.0095 839.722C35.9068 840.605 37.0882 841.083 38.3444 841.083C39.6305 841.083 40.8418 840.575 41.754 839.647C43.5935 837.763 43.5486 834.742 41.6793 832.903Z" fill="#A3876E"/>
<path d="M33.7542 821.075H28.5649V823.019H33.7542V821.075Z" fill="#A3876E"/>
<path d="M48.0796 821.149C45.9411 821.149 44.1914 819.399 44.1914 817.261C44.1914 815.122 45.9411 813.373 48.0796 813.373C50.2182 813.373 51.9679 815.122 51.9679 817.261C51.9679 819.399 50.2182 821.149 48.0796 821.149ZM48.0796 815.317C47.0029 815.317 46.1355 816.184 46.1355 817.261C46.1355 818.338 47.0029 819.205 48.0796 819.205C49.1564 819.205 50.0237 818.338 50.0237 817.261C50.0237 816.184 49.1414 815.317 48.0796 815.317Z" fill="#A3876E"/>
<path d="M125.835 836.763C123.134 836.763 120.949 834.563 120.949 831.876C120.949 829.175 123.148 826.99 125.835 826.99C128.537 826.99 130.721 829.19 130.721 831.876C130.721 834.563 128.537 836.763 125.835 836.763ZM125.835 828.894C124.196 828.894 122.868 830.223 122.868 831.862C122.868 833.5 124.196 834.829 125.835 834.829C127.474 834.829 128.802 833.5 128.802 831.862C128.802 830.223 127.474 828.894 125.835 828.894Z" fill="#A3876E"/>
<path d="M119.605 841.398L119.044 841.22C116.062 839.05 114.291 835.566 114.291 831.876C114.291 829.632 114.94 827.462 116.151 825.587V818.132C116.151 815.165 118.572 812.744 121.539 812.744H129.953C132.921 812.744 135.342 815.165 135.342 818.132V825.321C136.67 827.255 137.379 829.514 137.379 831.876C137.379 835.522 135.622 839.006 132.684 841.176L132.123 841.368L119.605 841.398ZM121.539 814.678C119.62 814.678 118.07 816.228 118.07 818.147V825.897L117.907 826.443C116.8 828.052 116.21 829.942 116.21 831.891C116.21 834.858 117.597 837.677 119.93 839.493L131.784 839.464C134.087 837.648 135.46 834.843 135.46 831.891C135.46 829.839 134.825 827.875 133.614 826.222L133.422 825.661V818.162C133.422 816.243 131.872 814.693 129.953 814.693H121.539V814.678ZM121.303 823.388L119.885 822.546V818.472C119.885 817.379 120.786 816.479 121.878 816.479H129.599C130.691 816.479 131.592 817.379 131.592 818.472V822.458L130.19 823.314C128.831 822.62 127.355 822.266 125.82 822.266C124.255 822.251 122.69 822.649 121.303 823.388ZM121.878 818.398C121.834 818.398 121.805 818.427 121.805 818.472V821.055C123.089 820.583 124.447 820.332 125.82 820.332C127.148 820.332 128.433 820.553 129.658 820.981V818.472C129.658 818.427 129.629 818.398 129.584 818.398H121.878Z" fill="#A3876E"/>
<path d="M226.734 829.672H225.358L212.916 817.229V815.854L215.668 813.102H217.044L220.558 816.631L219.182 817.992L216.356 815.166L214.98 816.541L226.046 827.608L227.422 826.232L224.685 823.495L226.061 822.12L229.486 825.544V826.92L226.734 829.672Z" fill="#A3876E"/>
<path d="M227.755 825.186L226.379 823.81L228.428 821.761L220.86 814.179L218.797 816.243L217.421 814.867L220.173 812.115H221.548L230.491 821.073V822.449L227.755 825.186Z" fill="#A3876E"/>
<path d="M227.411 819.353H226.035L223.269 816.587V815.211L225.99 812.489H227.366L230.133 815.256V816.632L227.411 819.353ZM225.332 815.914L226.723 817.305L228.069 815.959L226.678 814.568L225.332 815.914Z" fill="#A3876E"/>
<path d="M214.325 840.784L210.826 837.284L212.202 835.908L215.013 838.72L216.389 837.344L205.353 826.307L203.977 827.683L206.743 830.45L205.368 831.826L201.913 828.371V826.995L204.665 824.244H206.041L218.453 836.656V838.032L215.701 840.784H214.325Z" fill="#A3876E"/>
<path d="M211.228 841.8H209.852L200.924 832.872V831.496L203.675 828.759L205.051 830.12L202.988 832.184L210.54 839.736L212.603 837.672L213.979 839.048L211.228 841.8Z" fill="#A3876E"/>
<path d="M205.368 841.367H203.992L201.24 838.615V837.239L203.962 834.517H205.338L208.089 837.269V838.645L205.368 841.367ZM203.304 837.942L204.68 839.318L206.026 837.972L204.65 836.596L203.304 837.942Z" fill="#A3876E"/>
<path d="M213.59 833.141H212.214L209.462 830.389V829.013L217.762 820.713H219.138L221.89 823.465V824.841L213.59 833.141ZM211.526 829.701L212.902 831.077L219.841 824.153L218.465 822.777L211.526 829.701Z" fill="#A3876E"/>
<path d="M317.153 841.905H312.024V828.296H317.183L319.681 830.884V839.527L317.153 841.905ZM313.968 839.961H316.391L317.752 838.69V831.676L316.361 830.241H313.968V839.961Z" fill="#A3876E"/>
<path d="M300.241 841.905H295.112L292.584 839.527V830.884L295.082 828.296H300.241V841.905ZM295.875 839.961H298.297V830.241H295.904L294.514 831.676V838.69L295.875 839.961Z" fill="#A3876E"/>
<path d="M312.972 832.186H299.438V834.13H312.972V832.186Z" fill="#A3876E"/>
<path d="M312.972 836.074H299.438V838.018H312.972V836.074Z" fill="#A3876E"/>
<path d="M317.153 826.353H312.024V812.744H317.183L319.681 815.331V823.975L317.153 826.353ZM313.968 824.409H316.391L317.752 823.137V816.124L316.361 814.688H313.968V824.409Z" fill="#A3876E"/>
<path d="M300.241 826.353H295.112L292.584 823.975V815.331L295.082 812.744H300.241V826.353ZM295.875 824.409H298.297V814.688H295.904L294.514 816.124V823.137L295.875 824.409Z" fill="#A3876E"/>
<path d="M312.972 816.632H299.438V818.576H312.972V816.632Z" fill="#A3876E"/>
<path d="M312.972 820.521H299.438V822.465H312.972V820.521Z" fill="#A3876E"/>
<path d="M33.2917 927.903C31.6765 927.903 30.3755 926.602 30.3755 924.987V905.546C30.3755 903.931 31.6765 902.63 33.2917 902.63C34.9068 902.63 36.2078 903.931 36.2078 905.546V925.002C36.2078 926.602 34.9068 927.903 33.2917 927.903ZM33.2917 904.574C32.7533 904.574 32.3196 905.008 32.3196 905.546V925.002C32.3196 925.54 32.7533 925.974 33.2917 925.974C33.83 925.974 34.2637 925.54 34.2637 925.002V905.546C34.2637 905.008 33.83 904.574 33.2917 904.574Z" fill="#A3876E"/>
<path d="M37.1774 927.843C35.5623 927.843 34.2612 926.542 34.2612 924.927V905.546C34.2612 903.931 35.5623 902.63 37.1774 902.63C38.7925 902.63 40.0936 903.931 40.0936 905.546V924.927C40.0936 926.527 38.7925 927.843 37.1774 927.843ZM37.1774 904.574C36.639 904.574 36.2053 905.008 36.2053 905.546V924.927C36.2053 925.466 36.639 925.899 37.1774 925.899C37.7158 925.899 38.1495 925.466 38.1495 924.927V905.546C38.1495 905.008 37.7158 904.574 37.1774 904.574Z" fill="#A3876E"/>
<path d="M39.5997 920.097L38.7622 918.348L42.2766 916.658V913.936L38.7622 912.246L39.5997 910.497L44.2207 912.71V917.884L39.5997 920.097Z" fill="#A3876E"/>
<path d="M31.0136 920.097L26.3926 917.884V912.71L31.0136 910.497L31.851 912.246L28.3367 913.936V916.658L31.851 918.348L31.0136 920.097Z" fill="#A3876E"/>
<path d="M51.6806 918.242H43.2461V916.298H50.7085V914.354H43.2461V912.41H51.6806L52.6526 913.382V917.27L51.6806 918.242Z" fill="#A3876E"/>
<path d="M27.4558 918.242H18.5726L17.6006 917.27V913.382L18.5726 912.41H27.4558V914.354H19.5447V916.298H27.4558V918.242Z" fill="#A3876E"/>
<path d="M125.491 928.832C121.817 928.832 118.37 927.4 115.788 924.804C110.44 919.456 110.44 910.731 115.788 905.384C121.136 900.036 129.86 900.036 135.208 905.384C140.556 910.731 140.556 919.456 135.208 924.804C132.612 927.4 129.165 928.832 125.491 928.832ZM125.491 903.213C122.441 903.213 119.405 904.376 117.079 906.689C112.44 911.327 112.44 918.86 117.079 923.498C119.32 925.74 122.313 926.974 125.491 926.974C128.668 926.974 131.647 925.74 133.903 923.498C138.541 918.86 138.541 911.327 133.903 906.689C131.591 904.376 128.541 903.213 125.491 903.213Z" fill="#A3876E"/>
<path d="M117.079 905.394L115.775 906.698L133.891 924.813L135.195 923.509L117.079 905.394Z" fill="#A3876E"/>
<path d="M133.891 905.394L115.775 923.509L117.079 924.813L135.195 906.698L133.891 905.394Z" fill="#A3876E"/>
<path d="M125.581 927.655L123.736 927.514C123.963 924.62 122.914 921.783 120.871 919.726C118.772 917.626 115.878 916.591 112.927 916.874L112.757 915.044C116.261 914.704 119.694 915.938 122.19 918.435C124.616 920.861 125.85 924.223 125.581 927.655Z" fill="#A3876E"/>
<path d="M137.023 915.328C133.916 915.328 130.937 914.108 128.724 911.895C126.242 909.412 125.007 905.965 125.334 902.462L127.164 902.632C126.88 905.582 127.916 908.49 130.015 910.576C132.072 912.633 134.909 913.668 137.803 913.441L137.945 915.285C137.633 915.314 137.321 915.328 137.023 915.328Z" fill="#A3876E"/>
<path d="M224.049 929.518L222.853 927.978C223.286 927.649 223.481 927.2 223.451 926.632C223.421 926.019 223.122 925.331 222.613 924.673C222.314 924.284 222.045 924.12 221.641 923.88C220.954 923.477 220.101 922.968 218.89 921.383C218.591 920.994 216.991 918.93 215.45 916.941L213.91 914.967C213.028 913.831 212.983 912.53 212.923 911.169C212.848 909.21 212.743 906.996 210.485 903.976C209.364 902.525 208.003 902.136 207.046 902.076C205.819 901.987 204.578 902.36 203.606 903.108L202.41 901.568C203.756 900.536 205.49 900.013 207.18 900.132C209.079 900.267 210.799 901.224 212.026 902.794C214.658 906.294 214.777 909.06 214.852 911.079C214.897 912.26 214.942 913.128 215.435 913.771L216.961 915.745C218.501 917.734 220.101 919.798 220.4 920.186C221.387 921.473 222 921.846 222.599 922.19C223.092 922.475 223.586 922.789 224.109 923.462C224.857 924.419 225.29 925.495 225.35 926.482C225.47 927.724 224.991 928.8 224.049 929.518Z" fill="#A3876E"/>
<path d="M221.853 930.31C220.567 930.31 219.236 929.577 218.144 928.157C217.636 927.499 217.456 926.945 217.277 926.422C217.068 925.794 216.843 925.076 215.826 923.79C215.408 923.266 212.671 919.722 210.861 917.374L210.846 917.359C210.353 916.716 209.545 916.462 208.424 916.103C206.51 915.505 203.878 914.682 201.201 911.213C199.915 909.553 199.421 907.699 199.78 905.829C200.094 904.184 201.036 902.674 202.442 901.582L203.638 903.122C202.621 903.915 201.918 905.022 201.694 906.188C201.455 907.489 201.814 908.82 202.741 910.032C205.044 913.022 207.153 913.68 209.007 914.264C210.293 914.667 211.519 915.056 212.387 916.178L212.402 916.193C214.211 918.541 216.948 922.07 217.367 922.593C218.593 924.149 218.892 925.076 219.131 925.824C219.281 926.272 219.371 926.571 219.685 926.975C220.193 927.633 221.509 929.039 222.87 927.992L224.066 929.532C223.363 930.056 222.616 930.31 221.853 930.31Z" fill="#A3876E"/>
<path d="M204.494 912.559L202.355 912.29L202.595 910.361L202.804 910.39L203.103 908.028L205.451 908.327L205.75 905.979L208.098 906.278L208.397 903.93L210.775 904.229L210.82 903.945L212.749 904.259L212.39 906.398L210.072 906.098L209.788 908.461L207.425 908.162L207.141 910.51L204.793 910.211L204.494 912.559Z" fill="#A3876E"/>
<path d="M216.739 916.658L215.198 915.462L216.484 913.802C216.978 913.159 217.008 912.306 217.068 911.11C217.157 909.091 217.262 906.324 219.894 902.84C221.12 901.255 222.84 900.298 224.739 900.163C226.429 900.043 228.179 900.567 229.51 901.599L228.314 903.139C227.341 902.391 226.085 902.017 224.874 902.107C223.917 902.182 222.556 902.571 221.434 904.021C219.176 907.027 219.086 909.24 219.012 911.2C218.952 912.575 218.907 913.861 218.025 914.998L216.739 916.658Z" fill="#A3876E"/>
<path d="M207.901 929.52C206.959 928.787 206.48 927.725 206.555 926.529C206.615 925.542 207.063 924.465 207.796 923.508C208.32 922.835 208.828 922.536 209.307 922.237C209.905 921.878 210.518 921.519 211.505 920.233C211.655 920.039 212.118 919.44 212.731 918.633L214.272 919.829C213.658 920.622 213.195 921.22 213.045 921.414C211.834 923 210.982 923.508 210.294 923.912C209.89 924.151 209.621 924.316 209.322 924.704C208.813 925.362 208.514 926.05 208.484 926.664C208.454 927.232 208.649 927.665 209.082 928.009L207.901 929.52Z" fill="#A3876E"/>
<path d="M219.15 919.903L217.609 918.706L219.568 916.179C220.436 915.057 221.662 914.669 222.948 914.265C224.803 913.682 226.911 913.024 229.214 910.033C230.141 908.821 230.515 907.505 230.261 906.189C230.037 905.023 229.334 903.916 228.317 903.124L229.513 901.583C230.919 902.675 231.861 904.185 232.175 905.83C232.519 907.7 232.041 909.554 230.755 911.214C228.078 914.684 225.446 915.506 223.531 916.104C222.41 916.463 221.602 916.717 221.109 917.36L219.15 919.903Z" fill="#A3876E"/>
<path d="M210.117 930.312C209.354 930.312 208.592 930.058 207.904 929.519L209.1 927.979C210.461 929.026 211.777 927.62 212.286 926.962C212.6 926.558 212.689 926.259 212.839 925.81C213.078 925.063 213.377 924.15 214.604 922.58C214.693 922.461 214.918 922.176 215.217 921.788L216.757 922.984C216.458 923.373 216.234 923.657 216.144 923.777C215.142 925.063 214.903 925.781 214.693 926.409C214.529 926.932 214.349 927.485 213.826 928.143C212.734 929.579 211.403 930.312 210.117 930.312Z" fill="#A3876E"/>
<path d="M227.481 912.56L227.182 910.212L224.834 910.511L224.535 908.163L222.187 908.463L221.888 906.1L219.57 906.399L219.226 904.26L221.14 903.946L221.185 904.23L223.578 903.931L223.877 906.279L226.225 905.98L226.524 908.328L228.872 908.029L229.171 910.392L229.38 910.362L229.62 912.291L227.481 912.56Z" fill="#A3876E"/>
<path fill-rule="evenodd" clip-rule="evenodd" d="M297.341 916.818H297.325H297.324C295.993 916.818 294.707 918.329 294.677 919.944C294.632 922.217 295.305 924.101 296.696 925.522C298.655 927.526 302.05 928.633 306.267 928.633C310.454 928.633 313.849 927.541 315.808 925.537C317.214 924.116 317.902 922.232 317.857 919.944C317.827 918.41 316.388 916.846 315.003 916.834V914.859C316.59 914.812 317.977 913.534 317.977 912.123C317.977 909.042 315.644 908.324 311.785 907.487C309.737 907.053 307.508 906.56 306.267 905.214C305.026 906.56 302.783 907.053 300.734 907.502C296.875 908.339 294.528 909.072 294.528 912.153C294.528 912.826 294.827 913.499 295.365 914.022C295.903 914.56 296.621 914.859 297.309 914.844C297.32 914.844 297.331 914.844 297.341 914.844V916.818ZM317.801 915.938C319.073 915.075 319.921 913.679 319.921 912.153C319.921 907.295 315.674 906.372 312.241 905.625L312.204 905.617C308.839 904.885 307.254 904.346 307.254 902.567H305.31C305.31 904.346 303.71 904.9 300.33 905.632C296.876 906.38 292.583 907.322 292.583 912.183C292.583 913.364 293.107 914.56 294.004 915.443C294.192 915.628 294.393 915.795 294.605 915.945C293.513 916.882 292.768 918.334 292.733 919.899C292.673 922.711 293.541 925.059 295.305 926.868C297.638 929.246 301.526 930.562 306.267 930.562C310.993 930.562 314.866 929.261 317.199 926.883C318.979 925.073 319.846 922.726 319.801 919.899C319.775 918.349 318.965 916.883 317.801 915.938Z" fill="#A3876E"/>
<path d="M315.005 918.643H297.343L296.371 917.671V913.933L297.343 912.961H315.005L315.977 913.933V917.671L315.005 918.643ZM298.315 916.699H314.033V914.905H298.315V916.699Z" fill="#A3876E"/>
<path d="M307.261 899.487H305.317V905.14H307.261V899.487Z" fill="#A3876E"/>
<path d="M46.1909 1018.56L44.8898 1018.13L32.7466 993.858L33.1803 992.557L36.6647 990.822L37.9658 991.256L50.109 1015.53L49.6753 1016.83L46.1909 1018.56ZM34.915 993.858L46.1909 1016.39L47.9256 1015.53L36.6498 992.99L34.915 993.858Z" fill="#A3876E"/>
<path d="M34.0003 1011.39C33.0881 1011.39 32.2207 1010.88 31.787 1010.02L30.5159 1007.48C30.2168 1006.9 30.1719 1006.23 30.3813 1005.6C30.5906 1004.97 31.0243 1004.46 31.6225 1004.18L32.5048 1003.74C33.0881 1003.44 33.761 1003.4 34.3891 1003.61C35.0172 1003.82 35.5257 1004.25 35.8098 1004.85L37.081 1007.39C37.6941 1008.6 37.1857 1010.1 35.9743 1010.7L35.092 1011.13C34.748 1011.3 34.3742 1011.39 34.0003 1011.39ZM33.6115 1005.42C33.5367 1005.42 33.4619 1005.43 33.3872 1005.48L32.5048 1005.91C32.3403 1006 32.2656 1006.14 32.2506 1006.21C32.2207 1006.29 32.1908 1006.45 32.2805 1006.61L33.5517 1009.16C33.6713 1009.41 34.0003 1009.52 34.2546 1009.4L35.1369 1008.96C35.3911 1008.84 35.4958 1008.51 35.3762 1008.26L34.105 1005.72C34.0153 1005.55 33.8807 1005.48 33.8059 1005.46C33.7311 1005.42 33.6713 1005.42 33.6115 1005.42Z" fill="#A3876E"/>
<path d="M30.2793 1018.68C29.3073 1018.68 28.3053 1018.5 27.3482 1018.13C25.7779 1017.52 23.5796 1016.13 22.0991 1012.93C19.9905 1008.38 20.3494 1003.1 23.131 998.09C25.4489 993.888 29.2923 990.164 33.3899 988.115L34.2573 989.85C27.3781 993.275 19.7213 1003.17 23.8638 1012.1C25.8826 1016.47 29.8456 1017.5 32.5375 1016.25C34.3021 1015.44 35.678 1013.48 34.2573 1010.43L36.0219 1009.61C37.9062 1013.67 36.0369 1016.75 33.345 1017.99C32.4029 1018.46 31.3561 1018.68 30.2793 1018.68Z" fill="#A3876E"/>
<path d="M138.817 1018.9H117.542C113.323 1018.9 109.891 1015.47 109.891 1011.25C109.891 1007 113.323 1003.54 117.557 1003.54H121.45C126.739 1003.54 130.824 1004.98 133.959 1007.93C136.856 1010.67 138.505 1014.34 139.723 1017.58L138.817 1018.9ZM117.973 1016.97H137.406C135.058 1011.19 131.418 1005.47 121.45 1005.47H117.557C114.393 1005.47 111.822 1008.07 111.822 1011.25C111.822 1014.4 114.393 1016.97 117.542 1016.97H117.973Z" fill="#A3876E"/>
<path d="M121.344 1015.15C119.204 1015.15 117.481 1013.41 117.481 1011.28C117.481 1009.14 119.219 1007.42 121.344 1007.42C123.483 1007.42 125.206 1009.16 125.206 1011.28C125.206 1013.41 123.468 1015.15 121.344 1015.15ZM121.344 1009.34C120.274 1009.34 119.412 1010.2 119.412 1011.27C119.412 1012.34 120.274 1013.2 121.344 1013.2C122.413 1013.2 123.275 1012.34 123.275 1011.27C123.275 1010.21 122.398 1009.34 121.344 1009.34Z" fill="#A3876E"/>
<path d="M132.369 1007.97L130.838 1006.78C132.799 1004.24 133.022 1003.84 133.037 1000.25V990.143H134.969V1000.25C134.954 1004.32 134.553 1005.13 132.369 1007.97Z" fill="#A3876E"/>
<path d="M135.652 988.115L129.241 992.265L130.291 993.886L136.701 989.737L135.652 988.115Z" fill="#A3876E"/>
<path d="M115.571 994.454L113.785 995.19L117.781 1004.89L119.567 1004.15L115.571 994.454Z" fill="#A3876E"/>
<path d="M119.576 993.841H111.85V995.773H119.576V993.841Z" fill="#A3876E"/>
<path d="M129.171 1010.3H121.342V1012.23H129.171V1010.3Z" fill="#A3876E"/>
<path d="M133.959 995.937V994.005C135.103 994.005 135.831 993.976 136.129 993.827C136.337 993.723 136.515 993.411 136.886 992.713L136.975 992.549L139.011 988.479L140.734 989.34L138.669 993.456L138.58 993.634C138.104 994.525 137.763 995.164 137.005 995.55C136.337 995.877 135.519 995.937 133.959 995.937Z" fill="#A3876E"/>
<path d="M221.038 1015.96H202.18L208.012 1010.15L209.119 1011.79L206.89 1014.02H221.038C223.55 1014.02 225.599 1011.97 225.599 1009.46V1008.83C225.599 1006.32 223.55 1004.27 221.038 1004.27H208.73C205.141 1004.27 202.225 1001.35 202.225 997.763V997.135C202.225 993.546 205.141 990.63 208.73 990.63H229.218L223.385 996.477H222.249L222.264 994.847L224.537 992.559H208.73C206.217 992.559 204.169 994.608 204.169 997.12V997.748C204.169 1000.26 206.217 1002.31 208.73 1002.31H221.038C224.627 1002.31 227.543 1005.23 227.543 1008.81V1009.44C227.543 1013.05 224.627 1015.96 221.038 1015.96Z" fill="#A3876E"/>
<path d="M215.6 1000.49H208.9C207.375 1000.49 206.133 999.244 206.133 997.719V997.33C206.133 995.805 207.375 994.564 208.9 994.564H223.675L223.077 996.508H208.9C208.451 996.508 208.077 996.882 208.077 997.33V997.719C208.077 998.168 208.451 998.542 208.9 998.542H217.544L215.6 1000.49Z" fill="#A3876E"/>
<path d="M220.85 1012.11H207.72L208.019 1010.16H220.85C221.299 1010.16 221.672 1009.79 221.672 1009.34V1009.1C221.672 1008.65 221.299 1008.28 220.85 1008.28H213.702L215.496 1006.33H220.85C222.375 1006.33 223.617 1007.57 223.617 1009.1V1009.34C223.617 1010.86 222.375 1012.11 220.85 1012.11Z" fill="#A3876E"/>
<path d="M306.252 1015.78C302.199 1015.78 298.37 1014.89 295.469 1013.27C292.389 1011.55 290.699 1009.2 290.699 1006.65C290.699 1005.97 290.818 1005.32 291.058 1004.67L292.882 1005.34C292.718 1005.78 292.643 1006.21 292.643 1006.66C292.643 1010.56 298.879 1013.85 306.252 1013.85C313.624 1013.85 319.86 1010.56 319.86 1006.66C319.86 1006.2 319.771 1005.72 319.591 1005.26L321.401 1004.55C321.67 1005.24 321.805 1005.94 321.805 1006.66C321.805 1009.2 320.115 1011.57 317.034 1013.29C314.148 1014.89 310.319 1015.78 306.252 1015.78Z" fill="#A3876E"/>
<path d="M306.252 1011.9C302.199 1011.9 298.37 1011 295.469 1009.38C292.389 1007.66 290.699 1005.32 290.699 1002.76C290.699 1000.17 292.389 997.105 295.125 994.757C298.206 992.095 302.154 990.63 306.252 990.63C310.484 990.63 314.492 992.095 317.527 994.757C320.174 997.075 321.805 1000.14 321.805 1002.76C321.805 1005.3 320.115 1007.66 317.034 1009.38C314.148 1011 310.319 1011.9 306.252 1011.9ZM306.252 992.574C298.356 992.574 292.643 998.66 292.643 1002.76C292.643 1006.66 298.879 1009.95 306.252 1009.95C313.624 1009.95 319.86 1006.66 319.86 1002.76C319.86 1000.69 318.47 998.182 316.241 996.223C313.564 993.875 310.02 992.574 306.252 992.574Z" fill="#A3876E"/>
<path d="M306.369 1000.28C302.002 1000.28 298.593 998.062 298.593 995.221C298.593 993.815 299.43 992.514 300.956 991.572C301.404 991.288 302.017 991.422 302.302 991.886C302.586 992.335 302.451 992.948 301.988 993.232C301.449 993.561 300.552 994.279 300.552 995.236C300.552 996.701 302.945 998.346 306.384 998.346C309.824 998.346 312.217 996.701 312.217 995.236C312.217 994.339 311.424 993.666 310.945 993.352C310.497 993.052 310.392 992.439 310.691 992.006C310.99 991.557 311.603 991.452 312.037 991.751C313.398 992.679 314.146 993.92 314.146 995.251C314.146 998.062 310.736 1000.28 306.369 1000.28Z" fill="#A3876E"/>
<path d="M28.2348 1101.7H20.4584L19.4863 1100.73V1085L20.4584 1084.03H28.2348L29.2069 1085V1100.73L28.2348 1101.7ZM21.4304 1099.76H27.2628V1085.97H21.4304V1099.76Z" fill="#A3876E"/>
<path d="M40.4775 1103.77C37.1127 1103.77 33.2843 1103.11 27.9604 1101.64L28.4689 1099.77C34.8396 1101.52 38.9522 1102.08 42.6609 1101.72C45.5322 1101.43 48.4783 1100.18 48.4783 1092.97H50.4224C50.4224 1096.57 49.7345 1099.19 48.3138 1100.97C47.0576 1102.54 45.278 1103.42 42.8404 1103.66C42.0927 1103.72 41.3 1103.77 40.4775 1103.77Z" fill="#A3876E"/>
<path d="M40.3045 1086.38L39.6316 1084.55C40.4541 1084.25 40.7083 1083.7 40.7681 1083.28C40.8728 1082.62 40.6036 1081.92 40.0952 1081.52C39.6166 1081.13 38.9885 1081.08 38.2707 1081.38C34.846 1082.77 33.8142 1083.19 28.6548 1085.82L27.7725 1084.09C33.0066 1081.43 34.0534 1080.99 37.5229 1079.59C38.8838 1079.03 40.2597 1079.18 41.2915 1080.01C42.3384 1080.84 42.8917 1082.25 42.6674 1083.59C42.4879 1084.88 41.6056 1085.9 40.3045 1086.38Z" fill="#A3876E"/>
<path d="M50.4385 1092.97H48.4944C48.4944 1089.76 47.7467 1087.6 46.2811 1086.6C44.6361 1085.48 41.9442 1085.64 38.2654 1087.06L37.5625 1085.25C41.8844 1083.58 45.1744 1083.49 47.3877 1085C49.4066 1086.39 50.4385 1089.07 50.4385 1092.97Z" fill="#A3876E"/>
<path d="M25.3172 1085H23.373V1090.91H25.3172V1085Z" fill="#A3876E"/>
<path d="M136.567 1101.89H122.031C120.52 1101.89 119.653 1101.32 119.174 1100.85C118.516 1100.2 118.172 1099.25 118.172 1098.13L120.116 1098.15C120.116 1098.75 120.251 1099.19 120.55 1099.48C120.849 1099.79 121.358 1099.94 122.031 1099.94H136.567V1101.89Z" fill="#A3876E"/>
<path d="M138.514 1096.08H135.523V1098.03H138.514V1096.08Z" fill="#A3876E"/>
<path d="M138.664 1092.14H135.523V1094.08H138.664V1092.14Z" fill="#A3876E"/>
<path d="M138.664 1088.28H135.523V1090.22H138.664V1088.28Z" fill="#A3876E"/>
<path d="M138.363 1084.39H127.746V1086.33H138.363V1084.39Z" fill="#A3876E"/>
<path d="M138.32 1098.01V1096.07C138.888 1096.07 139.337 1095.62 139.337 1095.07C139.337 1094.51 138.873 1094.06 138.32 1094.06V1092.12C139.95 1092.12 141.281 1093.44 141.281 1095.07C141.281 1096.7 139.95 1098.01 138.32 1098.01Z" fill="#A3876E"/>
<path d="M136.422 1101.89V1099.94C136.99 1099.94 137.439 1099.51 137.439 1098.98C137.439 1098.46 136.975 1098.03 136.422 1098.03V1096.08C138.052 1096.08 139.383 1097.38 139.383 1098.98C139.383 1100.58 138.052 1101.89 136.422 1101.89Z" fill="#A3876E"/>
<path d="M138.32 1090.22V1088.28C138.888 1088.28 139.337 1087.84 139.337 1087.31C139.337 1086.77 138.873 1086.33 138.32 1086.33V1084.39C139.95 1084.39 141.281 1085.69 141.281 1087.31C141.281 1088.91 139.95 1090.22 138.32 1090.22Z" fill="#A3876E"/>
<path d="M138.381 1094.08V1092.14C138.905 1092.14 139.338 1091.7 139.338 1091.18C139.338 1090.65 138.905 1090.22 138.381 1090.22V1088.28C139.982 1088.28 141.283 1089.58 141.283 1091.18C141.283 1092.78 139.982 1094.08 138.381 1094.08Z" fill="#A3876E"/>
<path d="M133.61 1085.36H131.666V1100.91H133.61V1085.36Z" fill="#A3876E"/>
<path d="M119.148 1099.99H111.491L110.519 1099.01V1085.36L111.491 1084.39H119.148V1086.33H112.463V1098.04H119.148V1099.99Z" fill="#A3876E"/>
<path d="M119.837 1086.05L118.461 1084.67L119.508 1083.63C121.586 1081.56 122.618 1080.52 123.964 1080.52H131.696V1085.36H129.752V1082.46H123.964C123.426 1082.46 122.349 1083.52 120.869 1085L119.837 1086.05Z" fill="#A3876E"/>
<path d="M135.614 1085.38L133.67 1085.36C133.685 1084.18 133.475 1083.36 133.057 1082.94C132.743 1082.62 132.264 1082.47 131.576 1082.47V1080.53C132.788 1080.53 133.76 1080.87 134.433 1081.56C135.255 1082.37 135.629 1083.63 135.614 1085.38Z" fill="#A3876E"/>
<path d="M120.116 1085.36H118.172V1099.01H120.116V1085.36Z" fill="#A3876E"/>
<path d="M115.32 1095.84H111.491L110.519 1094.87V1089.11L111.491 1088.14H115.32L116.292 1089.11V1094.87L115.32 1095.84ZM112.463 1093.9H114.347V1090.09H112.463V1093.9Z" fill="#A3876E"/>
<path d="M215.745 1106.73C208.237 1106.73 205.56 1101.52 204.753 1099.29C203.975 1097.13 202.255 1094.37 202.241 1094.33L202.181 1094.17V1083.91L204.887 1079.39H215.76V1081.33H205.994L204.125 1084.44V1093.82C204.439 1094.66 205.889 1096.69 206.592 1098.65C207.265 1100.51 209.494 1104.8 215.76 1104.8V1106.73H215.745Z" fill="#A3876E"/>
<path d="M215.75 1106.73V1104.78C222.016 1104.78 224.244 1100.49 224.917 1098.64C225.62 1096.69 227.07 1094.66 227.384 1093.81V1084.43L225.515 1081.32H215.75V1079.38H226.622L229.328 1083.89V1094.15L229.269 1094.32C229.254 1094.36 227.534 1097.11 226.756 1099.28C225.934 1101.54 223.242 1106.73 215.75 1106.73Z" fill="#A3876E"/>
<path d="M222.689 1080.83C221.492 1078.54 219.219 1077.43 215.75 1077.43V1075.49C219.952 1075.49 222.868 1076.98 224.408 1079.93L222.689 1080.83Z" fill="#A3876E"/>
<path d="M208.821 1080.83L207.102 1079.93C208.642 1076.98 211.558 1075.49 215.76 1075.49V1077.43C212.291 1077.42 210.018 1078.54 208.821 1080.83Z" fill="#A3876E"/>
<path d="M215.685 1102.79C211.497 1102.79 210.047 1100.55 209.987 1100.45L209.837 1100.21V1096.59L205.979 1094.48V1087.11H215.685V1089.05H207.923V1093.33L211.781 1095.44V1099.59C212.17 1099.98 213.292 1100.85 215.685 1100.85V1102.79Z" fill="#A3876E"/>
<path d="M215.64 1102.79V1100.85C218.063 1100.85 219.259 1099.97 219.693 1099.56V1095.44L223.551 1093.33V1089.05H215.64V1087.11H225.495V1094.48L221.637 1096.59V1100.25L221.458 1100.51C221.383 1100.6 219.783 1102.79 215.64 1102.79Z" fill="#A3876E"/>
<path d="M221.58 1091.1H219.636V1093.04H221.58V1091.1Z" fill="#A3876E"/>
<path d="M217.796 1097.1H213.908V1099.04H217.796V1097.1Z" fill="#A3876E"/>
<path d="M211.857 1091.1H209.913V1093.05H211.857V1091.1Z" fill="#A3876E"/>
<path d="M314.226 1106.52C312.985 1106.52 311.744 1106.04 310.786 1105.1L292.751 1087.07C290.852 1085.17 290.852 1082.09 292.751 1080.19L295.398 1077.54C297.297 1075.64 300.378 1075.64 302.277 1077.54L320.313 1095.58C322.212 1097.47 322.212 1100.56 320.313 1102.45L317.666 1105.1C316.709 1106.04 315.467 1106.52 314.226 1106.52ZM298.838 1078.08C298.09 1078.08 297.342 1078.36 296.774 1078.93L294.127 1081.58C292.99 1082.71 292.99 1084.57 294.127 1085.71L312.162 1103.74C313.299 1104.88 315.153 1104.88 316.29 1103.74L318.937 1101.09C320.073 1099.96 320.073 1098.1 318.937 1096.97L300.901 1078.93C300.333 1078.36 299.585 1078.08 298.838 1078.08Z" fill="#A3876E"/>
<path d="M298.477 1091.28L297.101 1089.91C299.838 1087.17 302.335 1087.47 304.623 1088.19C307.196 1089.01 309.05 1088.68 310.605 1087.13L311.981 1088.5C309.902 1090.58 307.3 1091.09 304.025 1090.04C301.961 1089.38 300.391 1089.38 298.477 1091.28Z" fill="#A3876E"/>
<path d="M309.101 1085.75L307.725 1084.37L309.819 1082.28L305.721 1078.18L303.627 1080.28L302.251 1078.9L305.033 1076.12H306.409L311.882 1081.59V1082.95L309.101 1085.75Z" fill="#A3876E"/>
<path d="M318.816 1095.47L317.44 1094.1L319.533 1092L315.436 1087.9L313.342 1090L311.966 1088.62L314.748 1085.84H316.124L321.597 1091.31V1092.69L318.816 1095.47Z" fill="#A3876E"/>
<path d="M306.658 1105.13H305.282L302.59 1102.44V1101.06L305.999 1097.64L307.375 1099.01L304.654 1101.75L305.97 1103.07L308.706 1100.33L310.082 1101.71L306.658 1105.13Z" fill="#A3876E"/>
<path d="M297.045 1095.32H295.669L292.977 1092.63V1091.25L296.177 1088.05L297.553 1089.43L295.041 1091.94L296.357 1093.26L298.869 1090.74L300.245 1092.12L297.045 1095.32Z" fill="#A3876E"/>
</svg>
