<svg width="832" height="1264" viewBox="0 0 832 1264" fill="none" xmlns="http://www.w3.org/2000/svg">
<path d="M60.3103 50.9375C60.0472 50.9375 57.4882 50.9375 57.2012 50.9375C57.3925 51.2962 57.536 51.5833 57.9187 52.3247C58.9949 54.4293 60.119 56.8688 60.8126 58.9735C61.0757 59.7149 61.1235 59.8584 61.267 60.265C61.8649 60.265 63.8978 60.265 64.424 60.265C64.424 60.265 64.2805 59.8105 63.9217 58.7582C63.2281 56.6536 61.9606 53.9032 61.0278 52.1812C60.5256 51.3202 60.4777 51.2006 60.3103 50.9375Z" fill="#A3876E"/>
<path d="M57.4112 35.6308L55.5936 33L53.8955 35.4156C53.8238 35.4873 53.7759 35.583 53.7042 35.6787L56.2154 39.2901C56.2632 39.3379 56.2872 39.3857 56.335 39.4336C60.1377 44.8148 68.0063 56.773 68.0063 63.374C68.0063 70.238 62.4337 75.8106 55.5697 75.8106C48.7056 75.8106 43.1331 70.238 43.1331 63.374C43.1331 57.3949 49.6384 46.9912 53.6563 41.0838L51.743 38.3573C47.6055 44.2647 40 56.1512 40 63.374C40 71.9361 46.9836 78.9197 55.5457 78.9197C64.1079 78.9197 71.0915 71.9361 71.0915 63.374C71.1154 54.7162 60.1616 39.3618 57.4112 35.6308Z" fill="#A3876E"/>
<path d="M69.5833 633.414C68.818 633.271 68.0287 633.199 67.2873 633.199C64.226 633.199 61.4995 634.371 59.3231 636.595C58.0555 636.069 56.6684 635.806 55.2812 635.806C52.9852 635.806 50.761 636.547 48.8477 637.887C48.7281 636.715 48.5846 635.591 48.4172 634.491C47.9389 631.07 47.5084 628.057 48.7759 624.35C49.2782 624.398 49.7326 624.422 50.1392 624.422C52.9613 624.422 54.3246 623.322 56.2379 621.528C57.4815 620.356 58.1034 619.16 58.1034 617.869C58.1273 615.979 56.8358 614.448 55.5682 613.205C54.5159 612.152 52.8657 610.765 51.9329 610H48.6803C48.1063 610.502 47.2453 611.268 46.7191 611.794C41.0509 617.271 40.5008 618.634 40.3095 619.088C37.8939 625.163 35.0479 635.065 35.0239 642.957C35.0239 644.225 35.0239 644.703 35 644.966C35 645.373 35 645.42 35 646.497C35.0478 650.658 38.8745 652.237 41.7445 653.074C44.5427 653.887 48.4889 654.03 54.7551 654.03C56.2857 654.03 57.9838 654.03 59.8254 654.006C62.0257 654.006 64.5369 653.983 67.2634 653.983H67.3591C71.5684 653.983 73.7926 652.021 74.9167 650.371C76.1603 648.53 76.7822 646.09 76.7822 643.1C76.7822 639.25 74.8928 634.395 69.5833 633.414ZM72.3337 648.625C71.3053 650.132 69.679 650.873 67.3591 650.873H67.2634C64.513 650.873 62.0018 650.897 59.8015 650.897C57.9599 650.897 56.2857 650.921 54.7311 650.921C48.752 650.921 45.045 650.778 42.5816 650.084C38.6353 648.936 38.1092 647.621 38.0852 646.449C38.0613 645.373 38.0613 645.349 38.0852 644.99C38.0852 644.703 38.0852 644.225 38.1091 642.933C38.1331 635.495 40.8596 626.048 43.1795 620.212C43.3469 619.782 44.7579 617.94 48.8477 613.994C49.2303 613.635 49.8043 613.109 50.2827 612.679C51.1915 613.444 52.5069 614.568 53.344 615.405C54.4442 616.481 54.9703 617.271 54.9703 617.821C54.9703 618.203 54.6594 618.682 54.0615 619.256C52.4112 620.81 51.7416 621.313 50.1153 621.313C49.613 621.313 48.9912 621.265 48.2737 621.169L46.8865 620.882L46.8387 620.978H46.7669L46.2886 622.102C46.193 622.341 46.0973 622.58 46.0016 622.819V622.843C44.2557 627.507 44.7819 631.142 45.308 634.993C45.5711 636.858 45.8342 638.795 45.8581 640.924L48.6085 642.383C50.3544 640.207 52.6983 638.987 55.2334 638.987C56.5249 638.987 57.7924 639.322 58.9165 639.943L60.0645 640.589L60.8777 639.561C62.5758 637.456 64.7043 636.38 67.2395 636.38C67.8135 636.38 68.3875 636.428 68.9854 636.547C73.41 637.361 73.6252 642.192 73.6252 643.148C73.673 645.42 73.2186 647.334 72.3337 648.625Z" fill="#A3876E"/>
<path d="M208.68 72.529C204.662 75.1837 199.544 76.1404 194.569 74.7293C189.57 73.3182 185.696 69.8025 183.687 65.4019L183.543 65.4258C183.041 66.6216 182.587 67.8653 182.156 69.1089C184.739 73.1508 188.733 76.3078 193.708 77.7189C199.807 79.4409 206.049 78.1733 210.88 74.8011L208.68 72.529Z" fill="#A3876E"/>
<path d="M200.862 41.1492L200.91 41.0057C200.12 40.0729 199.522 39.0206 198.901 37.9683C190.195 38.1118 182.255 43.8996 179.767 52.7009C179.05 55.1882 178.859 57.7233 179.098 60.1628L182.159 59.3975C182.039 57.4842 182.207 55.523 182.757 53.5619C185.029 45.4781 192.778 40.3838 200.862 41.1492Z" fill="#A3876E"/>
<path d="M213.186 68.2459L213.329 68.4133C214.477 68.3176 215.697 68.1741 216.845 68.2937C217.634 66.9065 218.28 65.3759 218.758 63.7735C221.509 54.0155 216.653 43.9227 207.709 39.833L206.848 42.8704C214.118 46.4579 218.065 54.8526 215.769 62.9364C215.195 64.8736 214.31 66.6674 213.186 68.2459Z" fill="#A3876E"/>
<path d="M203.88 40.2183C202.301 38.592 197.925 34 197.925 34L196.418 39.3095C196.418 39.3095 197.422 41.0075 199.575 41.0315C200.914 41.151 201.967 41.2706 203.186 41.5576C203.88 41.7011 204.621 41.0075 203.88 40.2183Z" fill="#A3876E"/>
<path d="M181.348 63.2746C180.726 65.451 179.004 71.5736 179.004 71.5736L184.337 70.1865C184.337 70.1865 185.294 68.4645 184.218 66.5751C183.644 65.3793 183.213 64.3987 182.831 63.2028C182.615 62.5093 181.635 62.2223 181.348 63.2746Z" fill="#A3876E"/>
<path d="M212.565 71.2389C214.765 70.6888 220.936 69.1821 220.936 69.1821L217.085 65.2358C217.085 65.2358 215.1 65.2598 214.024 67.1252C213.259 68.2254 212.637 69.0864 211.776 69.9952C211.274 70.4975 211.513 71.4781 212.565 71.2389Z" fill="#A3876E"/>
<path d="M199.097 55.0217C200.819 55.0217 202.206 56.4089 202.206 58.1309C202.206 59.8529 200.819 61.24 199.097 61.24C197.375 61.24 195.988 59.8529 195.988 58.1309C195.988 56.4328 197.375 55.0217 199.097 55.0217ZM199.097 51.9126C195.653 51.9126 192.879 54.6869 192.879 58.1309C192.879 61.5749 195.653 64.3492 199.097 64.3492C202.541 64.3492 205.316 61.5749 205.316 58.1309C205.316 54.6869 202.517 51.9126 199.097 51.9126Z" fill="#A3876E"/>
<path d="M222.758 618.156C222.304 615.883 220.677 614.138 218.405 613.42C217.042 612.99 215.751 613.085 214.65 613.444C214.914 612.583 215.105 612.057 215.105 612.033L215.751 610H200.707H200.468H185.185L185.831 612.033C185.831 612.057 185.998 612.583 186.285 613.444C185.161 613.085 183.87 612.99 182.483 613.42C180.235 614.114 178.608 615.883 178.13 618.156C177.652 620.475 178.513 622.843 180.402 624.47C181.885 625.785 185.831 629.229 188.629 631.525C189.706 632.41 189.801 633.558 189.419 634.323C188.988 635.16 188.031 635.495 186.836 635.184L186.046 638.198C186.596 638.341 187.17 638.413 187.697 638.413C189.634 638.413 191.308 637.456 192.193 635.758C192.767 634.61 192.886 633.343 192.552 632.147C193.46 634.084 194.537 635.639 195.996 636.643C195.924 642.742 193.915 643.818 191.978 644.846C190.327 645.731 188.247 646.808 188.247 650.371V653.48H200.564H200.635H212.952V650.371C212.952 646.831 210.896 645.731 209.221 644.846C207.26 643.794 205.203 642.718 205.203 636.404C206.471 635.423 207.428 634.036 208.241 632.314C207.978 633.462 208.097 634.682 208.647 635.782C209.508 637.48 211.183 638.437 213.144 638.437C213.67 638.437 214.22 638.365 214.794 638.222L214.005 635.208C212.833 635.519 211.852 635.208 211.422 634.347C211.039 633.606 211.135 632.434 212.211 631.549C215.009 629.253 218.955 625.809 220.438 624.493C222.375 622.843 223.236 620.499 222.758 618.156ZM190.614 629.157C187.84 626.885 183.942 623.465 182.459 622.15L182.435 622.126C181.407 621.241 180.928 619.997 181.167 618.777C181.406 617.653 182.22 616.744 183.392 616.386C185.281 615.788 187.051 617.271 187.673 617.845C188.773 621.265 190.064 625.307 190.71 627.268C191.093 628.464 191.499 629.588 191.906 630.616C191.595 630.09 191.141 629.588 190.614 629.157ZM207.81 647.597C209.269 648.362 209.867 648.697 209.867 650.371H200.659H200.588H191.38C191.38 648.697 191.978 648.386 193.437 647.597C196.235 646.114 198.746 644.225 199.081 637.815C199.511 637.887 199.942 637.911 200.42 637.911H200.444H200.468C201.066 637.911 201.616 637.839 202.142 637.743C202.477 644.225 205.012 646.114 207.81 647.597ZM200.468 634.801C197.287 634.754 195.9 632.984 193.7 626.335C192.791 623.537 190.543 616.601 189.442 613.133H200.468H200.707H211.493C210.393 616.601 208.169 623.561 207.236 626.335C205.036 632.984 203.625 634.73 200.468 634.801ZM218.453 622.126L218.429 622.15C216.97 623.441 213.048 626.861 210.274 629.157C209.771 629.564 209.365 630.018 209.054 630.52C209.437 629.516 209.819 628.44 210.202 627.292C210.848 625.307 212.163 621.241 213.263 617.821C213.909 617.223 215.655 615.836 217.496 616.41C218.644 616.768 219.482 617.653 219.721 618.801C219.96 619.997 219.482 621.241 218.453 622.126Z" fill="#A3876E"/>
<path d="M327.109 220.421H324V215.16C324 209.468 328.425 204.828 333.877 204.804C334.236 204.804 334.571 204.804 334.93 204.804C337.106 204.828 338.996 204.852 340.048 203.823C340.933 202.962 341.363 201.216 341.363 198.657C341.363 195.74 340.191 194.448 338.709 192.846C337.011 190.98 335.073 188.875 335.073 184.331V180.026H338.182V184.331C338.182 187.656 339.498 189.091 341.005 190.741C342.631 192.511 344.449 194.544 344.449 198.657C344.449 202.125 343.707 204.541 342.2 206.048C340.215 208.009 337.513 207.961 334.858 207.937C334.523 207.937 334.188 207.937 333.854 207.937C330.123 207.937 327.085 211.19 327.085 215.184V220.421H327.109Z" fill="#A3876E"/>
<path d="M347.628 220.419C344.375 220.419 341.434 219.008 339.449 216.353C338.061 214.512 337.368 214.201 336.339 214.201C334.617 214.201 333.948 214.488 333.709 214.751C333.613 214.846 333.326 215.133 333.326 216.377V220.419H330.217V216.377C330.217 215.301 330.36 213.722 331.532 212.55C332.537 211.546 334.02 211.091 336.316 211.091C336.339 211.091 336.363 211.091 336.387 211.091C338.922 211.091 340.405 212.407 341.96 214.512C343.897 217.095 347.054 217.979 350.45 216.855C354.827 215.42 359.969 210.278 360.041 200.496C360.041 194.278 357.816 189.04 354.468 187.438C351.646 186.099 348.633 187.749 346.6 189.399L345.595 190.212L344.615 189.351C342.414 187.438 341.362 185.836 341.314 181.937V181.913V180H344.423V181.889C344.471 184.161 344.83 185.142 345.763 186.123C350.187 183.037 353.655 183.564 355.831 184.592C360.28 186.721 363.174 192.939 363.174 200.473C363.102 211.905 356.812 218.003 351.455 219.773C350.139 220.228 348.872 220.419 347.628 220.419Z" fill="#A3876E"/>
<path d="M346.504 204.874C345.404 208.007 342.893 210.709 344.878 212.79C348.011 216.066 354.205 212.383 356.286 204.874H346.504Z" fill="#A3876E"/>
<path d="M348.821 45.3649L356.522 33H341.096L339.9 36.1092H350.926L343.2 48.474H355.422L335.81 70.2859L340.378 54.6684H329.568L336.767 36.1092H336.791L338.011 33H334.662L325 57.8254C325 57.8254 326.1 57.8015 327.966 57.8015H336.241L330.309 78.0109H333.06L362.429 45.3888L348.821 45.3649Z" fill="#A3876E"/>
<path d="M352.882 611C349.183 611 345.793 612.567 343.455 615.161C343.404 615.213 342.299 616.266 342.299 616.266C342.299 616.266 341.194 615.187 341.117 615.136C338.78 612.567 335.415 611 331.716 611C324.703 611 319 616.703 319 623.716C319 626.849 320.156 629.855 322.237 632.193L322.288 632.27C327.04 637.87 334.259 646.038 338.215 650.508L339.936 652.435H344.765C345.227 651.921 345.818 651.253 346.486 650.482C348.361 648.35 350.982 645.422 353.704 642.314H349.26C346.358 645.602 343.789 648.504 342.35 650.123C339.114 646.501 330.328 636.611 324.831 630.138L324.754 630.035C323.187 628.314 322.339 626.079 322.339 623.741C322.339 618.552 326.552 614.365 331.716 614.365C334.233 614.365 336.545 615.341 338.24 616.985L342.299 620.941C342.299 620.941 344.611 618.681 346.075 617.268C347.796 615.444 350.237 614.365 352.882 614.365C358.071 614.365 362.259 618.578 362.259 623.741C362.259 624.383 362.207 625 362.079 625.616H365.47C365.572 625 365.598 624.383 365.598 623.741C365.598 616.703 359.895 611 352.882 611Z" fill="#A3876E"/>
<path d="M362.526 632.397L359.187 640.746L353.51 622.379H350.016L346.446 632.526H342.027V635.865H348.809L351.66 627.696L357.26 645.806H360.754L364.787 635.737H369V632.397H362.526Z" fill="#A3876E"/>
<path d="M775.978 366.9L775.38 366.661C774.711 366.374 759 359.653 759 346.091V328.056L760.267 327.817C760.363 327.793 769.211 326.143 775.093 321.718L776.026 321L776.958 321.718C782.745 326.143 791.689 327.793 791.784 327.817L793.076 328.056V329.348C793.076 329.348 793.076 334.921 793.076 346.067C793.076 359.653 777.245 366.35 776.576 366.637L775.978 366.9ZM762.085 330.615V346.091C762.085 356.232 773.228 362.212 775.978 363.527C778.728 362.212 789.967 356.232 789.967 346.091C789.967 338.006 789.967 332.84 789.967 330.615C787.289 330.017 780.976 328.295 776.026 324.875C771.004 328.295 764.739 329.993 762.085 330.615Z" fill="#A3876E"/>
<path d="M776.008 330.613C773.33 332.168 769.576 333.651 766.945 334.488C766.945 334.584 766.945 336.426 766.945 336.473V343.218L776.032 343.242L776.008 330.613C776.032 330.637 776.032 330.613 776.008 330.613ZM785.119 343.218L776.032 343.242V358.12C779.189 356.302 785.119 352.116 785.119 346.017C785.119 345.036 785.119 344.103 785.119 343.218Z" fill="#A3876E"/>
<path d="M775.816 941.684C769.972 941.684 764.488 939.404 760.381 935.275C751.873 926.767 751.873 912.888 760.381 904.381C768.888 895.873 782.767 895.873 791.275 904.381C799.782 912.888 799.782 926.767 791.275 935.275C787.145 939.404 781.661 941.684 775.816 941.684ZM775.816 900.928C770.965 900.928 766.135 902.778 762.434 906.457C755.055 913.836 755.055 925.819 762.434 933.198C766 936.764 770.761 938.727 775.816 938.727C780.871 938.727 785.61 936.764 789.198 933.198C796.578 925.819 796.578 913.836 789.198 906.457C785.52 902.778 780.668 900.928 775.816 900.928Z" fill="#A3876E"/>
<path d="M762.436 904.397L760.361 906.472L789.18 935.29L791.254 933.215L762.436 904.397Z" fill="#A3876E"/>
<path d="M789.179 904.398L760.361 933.216L762.436 935.29L791.254 906.472L789.179 904.398Z" fill="#A3876E"/>
<path d="M775.959 939.811L773.025 939.586C773.386 934.982 771.716 930.469 768.467 927.197C765.127 923.857 760.523 922.209 755.829 922.661L755.559 919.75C761.133 919.208 766.594 921.171 770.565 925.143C774.424 929.002 776.388 934.35 775.959 939.811Z" fill="#A3876E"/>
<path d="M794.161 920.2C789.219 920.2 784.48 918.26 780.96 914.739C777.011 910.79 775.047 905.306 775.566 899.732L778.477 900.003C778.026 904.697 779.673 909.323 783.013 912.641C786.286 915.913 790.799 917.56 795.402 917.199L795.628 920.133C795.132 920.178 794.635 920.2 794.161 920.2Z" fill="#A3876E"/>
<path d="M775.742 1084.01C769.295 1084.01 763.204 1082.59 758.589 1080.02C753.688 1077.28 751 1073.55 751 1069.48C751 1068.41 751.19 1067.36 751.571 1066.34L754.473 1067.41C754.212 1068.1 754.093 1068.79 754.093 1069.5C754.093 1075.71 764.013 1080.95 775.742 1080.95C787.47 1080.95 797.391 1075.71 797.391 1069.5C797.391 1068.77 797.248 1068 796.963 1067.27L799.841 1066.15C800.27 1067.24 800.484 1068.36 800.484 1069.5C800.484 1073.55 797.795 1077.31 792.895 1080.04C788.303 1082.59 782.213 1084.01 775.742 1084.01Z" fill="#A3876E"/>
<path d="M775.742 1077.83C769.295 1077.83 763.204 1076.4 758.589 1073.83C753.688 1071.1 751 1067.36 751 1063.29C751 1059.18 753.688 1054.3 758.042 1050.57C762.943 1046.33 769.223 1044 775.742 1044C782.475 1044 788.85 1046.33 793.68 1050.57C797.891 1054.25 800.484 1059.13 800.484 1063.29C800.484 1067.34 797.795 1071.1 792.895 1073.83C788.303 1076.4 782.213 1077.83 775.742 1077.83ZM775.742 1047.09C763.181 1047.09 754.093 1056.78 754.093 1063.29C754.093 1069.5 764.013 1074.74 775.742 1074.74C787.47 1074.74 797.391 1069.5 797.391 1063.29C797.391 1060.01 795.179 1056.01 791.634 1052.9C787.375 1049.16 781.737 1047.09 775.742 1047.09Z" fill="#A3876E"/>
<path d="M775.93 1059.34C768.983 1059.34 763.559 1055.82 763.559 1051.3C763.559 1049.07 764.891 1047 767.317 1045.5C768.031 1045.05 769.007 1045.26 769.459 1046C769.911 1046.71 769.697 1047.69 768.959 1048.14C768.103 1048.66 766.675 1049.8 766.675 1051.33C766.675 1053.66 770.482 1056.28 775.953 1056.28C781.425 1056.28 785.232 1053.66 785.232 1051.33C785.232 1049.9 783.971 1048.83 783.209 1048.33C782.496 1047.85 782.329 1046.88 782.805 1046.19C783.281 1045.47 784.256 1045.31 784.946 1045.78C787.111 1047.26 788.3 1049.23 788.3 1051.35C788.3 1055.82 782.876 1059.34 775.93 1059.34Z" fill="#A3876E"/>
<path d="M205.018 323.105L202.698 325.185C206.668 329.084 212.815 336.091 212.815 342.142C212.815 347.021 208.701 351.517 205.09 354.531C204.372 355.129 203.655 355.679 203.009 356.157C202.459 356.468 202.005 356.157 202.005 355.488C202.005 355.464 202.005 355.44 202.005 355.416V335.78H198.896V355.392C198.896 355.416 198.896 355.44 198.896 355.488C198.896 356.157 198.417 356.468 197.891 356.157C196.791 355.344 195.499 354.34 194.256 353.168C191.099 350.226 188.085 346.328 188.085 342.142C188.085 335.613 195.284 327.936 199.111 324.324C199.159 324.277 202.842 321 202.842 321H198.154C194.519 324.253 185 333.604 185 342.166C185 348.456 190.094 353.909 194.28 357.329C195.595 358.382 196.815 359.266 197.771 359.888C198.393 360.319 198.896 360.725 198.943 361.658V366.92H202.052V363.763V361.658C202.124 360.749 202.603 360.343 203.224 359.912C204.181 359.266 205.401 358.405 206.716 357.353C210.926 353.933 215.996 348.504 215.996 342.19C215.9 335.015 209.323 327.362 205.018 323.105Z" fill="#A3876E"/>
<path d="M200.365 935.21C196.067 935.21 192.592 931.71 192.592 927.436C192.592 923.139 196.091 919.663 200.365 919.663C204.663 919.663 208.138 923.162 208.138 927.436C208.138 931.71 204.663 935.21 200.365 935.21ZM200.365 922.693C197.758 922.693 195.645 924.806 195.645 927.413C195.645 930.02 197.758 932.133 200.365 932.133C202.972 932.133 205.085 930.02 205.085 927.413C205.085 924.806 202.972 922.693 200.365 922.693Z" fill="#A3876E"/>
<path d="M190.454 942.583L189.562 942.301C184.818 938.849 182 933.307 182 927.436C182 923.866 183.033 920.414 184.959 917.431V905.572C184.959 900.851 188.81 897 193.531 897H206.917C211.637 897 215.488 900.851 215.488 905.572V917.009C217.602 920.085 218.729 923.678 218.729 927.436C218.729 933.236 215.935 938.778 211.261 942.231L210.369 942.536L190.454 942.583ZM193.531 900.076C190.478 900.076 188.012 902.542 188.012 905.595V917.924L187.754 918.793C185.992 921.353 185.053 924.359 185.053 927.459C185.053 932.179 187.26 936.665 190.971 939.553L209.829 939.506C213.492 936.618 215.676 932.156 215.676 927.459C215.676 924.195 214.666 921.071 212.741 918.441L212.435 917.549V905.619C212.435 902.566 209.97 900.1 206.917 900.1H193.531V900.076ZM193.155 913.932L190.9 912.593V906.112C190.9 904.374 192.333 902.942 194.071 902.942H206.353C208.091 902.942 209.523 904.374 209.523 906.112V912.453L207.292 913.815C205.132 912.711 202.783 912.147 200.341 912.147C197.852 912.124 195.362 912.758 193.155 913.932ZM194.071 905.994C194 905.994 193.953 906.041 193.953 906.112V910.222C195.997 909.47 198.157 909.071 200.341 909.071C202.455 909.071 204.498 909.423 206.447 910.104V906.112C206.447 906.041 206.4 905.994 206.33 905.994H194.071Z" fill="#A3876E"/>
<path d="M217.438 1225H194.314C191.911 1225 190.531 1224.09 189.77 1223.36C188.723 1222.31 188.176 1220.81 188.176 1219.03L191.269 1219.05C191.269 1220 191.483 1220.71 191.958 1221.17C192.434 1221.67 193.243 1221.9 194.314 1221.9H217.438V1225Z" fill="#A3876E"/>
<path d="M220.536 1215.77H215.777V1218.86H220.536V1215.77Z" fill="#A3876E"/>
<path d="M220.774 1209.49H215.777V1212.58H220.774V1209.49Z" fill="#A3876E"/>
<path d="M220.774 1203.35H215.777V1206.44H220.774V1203.35Z" fill="#A3876E"/>
<path d="M220.295 1197.16H203.404V1200.25H220.295V1197.16Z" fill="#A3876E"/>
<path d="M220.227 1218.83V1215.74C221.131 1215.74 221.844 1215.03 221.844 1214.15C221.844 1213.27 221.107 1212.55 220.227 1212.55V1209.46C222.82 1209.46 224.937 1211.55 224.937 1214.15C224.937 1216.74 222.82 1218.83 220.227 1218.83Z" fill="#A3876E"/>
<path d="M217.207 1225V1221.9C218.111 1221.9 218.825 1221.21 218.825 1220.38C218.825 1219.55 218.087 1218.86 217.207 1218.86V1215.77C219.8 1215.77 221.917 1217.83 221.917 1220.38C221.917 1222.93 219.8 1225 217.207 1225Z" fill="#A3876E"/>
<path d="M220.227 1206.44V1203.35C221.131 1203.35 221.844 1202.66 221.844 1201.8C221.844 1200.94 221.107 1200.25 220.227 1200.25V1197.16C222.82 1197.16 224.937 1199.23 224.937 1201.8C224.937 1204.35 222.82 1206.44 220.227 1206.44Z" fill="#A3876E"/>
<path d="M220.324 1212.58V1209.48C221.157 1209.48 221.847 1208.79 221.847 1207.96C221.847 1207.13 221.157 1206.44 220.324 1206.44V1203.35C222.87 1203.35 224.94 1205.42 224.94 1207.96C224.94 1210.51 222.87 1212.58 220.324 1212.58Z" fill="#A3876E"/>
<path d="M212.733 1198.71H209.641V1223.45H212.733V1198.71Z" fill="#A3876E"/>
<path d="M189.727 1221.98H177.546L176 1220.43V1198.71L177.546 1197.16H189.727V1200.25H179.093V1218.88H189.727V1221.98Z" fill="#A3876E"/>
<path d="M190.823 1199.8L188.635 1197.61L190.3 1195.95C193.607 1192.67 195.248 1191 197.39 1191H209.689V1198.71H206.596V1194.09H197.39C196.533 1194.09 194.82 1195.78 192.465 1198.14L190.823 1199.8Z" fill="#A3876E"/>
<path d="M215.921 1198.73L212.829 1198.71C212.852 1196.83 212.519 1195.52 211.853 1194.85C211.354 1194.35 210.592 1194.12 209.498 1194.12V1191.02C211.425 1191.02 212.971 1191.57 214.042 1192.66C215.35 1193.95 215.945 1195.95 215.921 1198.73Z" fill="#A3876E"/>
<path d="M191.269 1198.71H188.176V1220.43H191.269V1198.71Z" fill="#A3876E"/>
<path d="M183.637 1215.39H177.546L176 1213.84V1204.68L177.546 1203.13H183.637L185.183 1204.68V1213.84L183.637 1215.39ZM179.093 1212.29H182.09V1206.23H179.093V1212.29Z" fill="#A3876E"/>
<path d="M43.6623 336.791L45.8626 334.591L43.7819 332.51C46.6518 330.094 50.2632 328.516 54.2095 328.181V331.147H57.3186V328.181C60.2604 328.42 62.9868 329.329 65.3785 330.788L68.5355 329.138C64.948 326.531 60.5473 325 55.788 325C43.7819 325 34 334.782 34 346.788C34 353.006 36.6547 358.938 41.2945 363.051L41.3902 363.147C41.3902 363.147 41.3902 363.147 41.4141 363.171L41.5815 362.979L45.8387 358.818L43.6623 356.594L41.462 358.77C38.9746 355.804 37.4679 352.145 37.1809 348.271H40.2183V345.162H37.2048C37.5396 341.191 39.1421 337.58 41.5815 334.71L43.6623 336.791Z" fill="#A3876E"/>
<path d="M72.2421 361.043C75.6621 357.096 77.5755 352.05 77.5755 346.765C77.5755 341.981 76.0209 337.557 73.3901 333.945L71.7877 337.15C73.2226 339.518 74.1315 342.22 74.3706 345.114H71.3093V348.223H74.3706C74.0597 352.122 72.5291 355.829 70.0178 358.795L67.8414 356.57L65.6172 358.747L69.9939 363.219L70.0178 363.195C70.7114 362.597 71.3572 361.952 71.9551 361.282L72.2421 361.043Z" fill="#A3876E"/>
<path d="M71.3802 331.148L67.0753 333.348C64.7793 334.52 53.2754 340.428 51.386 342.317C50.2141 343.489 49.5684 345.043 49.5684 346.694C49.5684 348.344 50.2141 349.899 51.386 351.07C52.5579 352.242 54.1125 352.888 55.7627 352.888C57.413 352.888 58.9676 352.242 60.1395 351.07C62.0289 349.181 67.9841 337.701 69.156 335.429L71.3802 331.148ZM57.9631 348.87C57.3891 349.444 56.5998 349.779 55.7867 349.779C54.9496 349.779 54.1843 349.468 53.6103 348.87C53.0363 348.296 52.7014 347.507 52.7014 346.694C52.7014 345.881 53.0123 345.091 53.6103 344.517C54.4952 343.632 59.5176 340.834 64.1335 338.395C61.6462 342.987 58.848 347.985 57.9631 348.87Z" fill="#A3876E"/>
<path d="M762.093 764.681H759V779.002H762.093V764.681Z" fill="#A3876E"/>
<path d="M768.274 758.733H765.182V772.531H768.274V758.733Z" fill="#A3876E"/>
<path d="M774.505 754.926H771.412V772.531H774.505V754.926Z" fill="#A3876E"/>
<path d="M780.649 755.162H777.557V772.529H780.649V755.162Z" fill="#A3876E"/>
<path d="M777.554 787.995H774.461C774.461 781.572 778.91 777.908 783.739 777.266V758.733H786.832V780.263H785.286C781.431 780.263 777.554 782.666 777.554 787.995Z" fill="#A3876E"/>
<path d="M774.507 758.804H771.415C771.415 757.9 770.701 757.186 769.845 757.186C768.988 757.186 768.274 757.924 768.274 758.804H765.182C765.182 756.211 767.275 754.094 769.845 754.094C772.414 754.094 774.507 756.211 774.507 758.804Z" fill="#A3876E"/>
<path d="M768.326 764.918H765.233C765.233 764.013 764.519 763.3 763.663 763.3C762.806 763.3 762.093 764.037 762.093 764.918H759C759 762.324 761.094 760.207 763.663 760.207C766.232 760.207 768.326 762.324 768.326 764.918Z" fill="#A3876E"/>
<path d="M786.835 758.804H783.742C783.742 757.9 783.052 757.186 782.196 757.186C781.339 757.186 780.649 757.924 780.649 758.804H777.557C777.557 756.211 779.626 754.094 782.196 754.094C784.765 754.094 786.835 756.211 786.835 758.804Z" fill="#A3876E"/>
<path d="M780.643 755.615H777.55C777.55 754.783 776.86 754.093 776.027 754.093C775.195 754.093 774.505 754.783 774.505 755.615H771.412C771.412 753.07 773.482 751 776.027 751C778.573 751 780.643 753.07 780.643 755.615Z" fill="#A3876E"/>
<path d="M792.761 778.716H789.668V769.7C788.074 770.033 786.837 771.08 786.837 774.22H783.744C783.768 769.248 786.409 766.488 791.214 766.488H792.761V778.716Z" fill="#A3876E"/>
<path d="M776.938 800.2H774.821C766.09 800.2 759 793.61 759 785.497V772.341H762.093V785.497C762.093 791.897 767.802 797.107 774.821 797.107H776.938C783.956 797.107 789.666 791.897 789.666 785.497V772.341H792.758V785.497C792.758 793.61 785.669 800.2 776.938 800.2Z" fill="#A3876E"/>
<path d="M44.9173 1224.71H32.5464L31 1223.16V1198.13L32.5464 1196.59H44.9173L46.4637 1198.13V1223.16L44.9173 1224.71ZM34.0927 1221.61H43.3709V1199.68H34.0927V1221.61Z" fill="#A3876E"/>
<path d="M64.3929 1227.99C59.0401 1227.99 52.9498 1226.94 44.4805 1224.61L45.2893 1221.64C55.424 1224.42 61.9663 1225.3 67.8663 1224.73C72.4341 1224.28 77.1207 1222.28 77.1207 1210.81H80.2135C80.2135 1216.55 79.1192 1220.71 76.8591 1223.54C74.8607 1226.04 72.0296 1227.44 68.1518 1227.82C66.9623 1227.92 65.7014 1227.99 64.3929 1227.99Z" fill="#A3876E"/>
<path d="M64.1179 1200.32L63.0473 1197.42C64.3558 1196.95 64.7603 1196.06 64.8554 1195.4C65.022 1194.35 64.5937 1193.23 63.7849 1192.59C63.0236 1191.97 62.0243 1191.9 60.8824 1192.38C55.4344 1194.59 53.7929 1195.26 45.5853 1199.44L44.1816 1196.68C52.5082 1192.45 54.1735 1191.76 59.6929 1189.52C61.8578 1188.64 64.0466 1188.88 65.6881 1190.19C67.3534 1191.52 68.2336 1193.76 67.8768 1195.9C67.5913 1197.94 66.1877 1199.56 64.1179 1200.32Z" fill="#A3876E"/>
<path d="M80.2393 1210.81H77.1466C77.1466 1205.7 75.9571 1202.27 73.6256 1200.68C71.0087 1198.9 66.7264 1199.16 60.874 1201.42L59.7559 1198.54C66.6312 1195.87 71.8651 1195.73 75.3861 1198.13C78.5977 1200.35 80.2393 1204.61 80.2393 1210.81Z" fill="#A3876E"/>
<path d="M40.2744 1198.13H37.1816V1207.53H40.2744V1198.13Z" fill="#A3876E"/>
<path d="M628.777 44.021C626.553 44.021 624.304 43.1839 622.08 41.5098C621.434 41.0315 621.267 40.1465 621.674 39.453C623.802 35.9372 626.816 34 630.116 34C632.364 34 634.636 34.9088 636.693 36.6547C637.267 37.1331 637.411 37.9701 637.028 38.6398C634.995 42.1077 632.053 44.021 628.777 44.021ZM625.189 39.8596C626.433 40.577 627.629 40.9358 628.777 40.9358C630.929 40.9358 632.508 39.6443 633.608 38.2332C632.46 37.5157 631.264 37.1331 630.14 37.1331C628.322 37.1092 626.6 38.0658 625.189 39.8596Z" fill="#A3876E"/>
<path fill-rule="evenodd" clip-rule="evenodd" d="M621.591 77.4566C623.122 78.3654 624.7 78.8199 626.255 78.8199C627.02 78.8199 627.809 78.7003 628.551 78.4611C630.018 78.0095 630.975 77.3234 631.64 76.8456C631.661 76.8311 631.68 76.8168 631.7 76.8027C632.347 77.3046 633.346 78.0356 634.885 78.4854C635.65 78.7006 636.416 78.8202 637.205 78.8202C638.76 78.8202 640.338 78.3658 641.869 77.4809C645.624 75.2566 648.518 70.5212 649.809 64.4942C651.029 58.7303 650.455 53.4687 648.207 50.0486C646.843 47.9679 644.834 46.6046 642.419 46.1263C638.475 45.3469 635.93 46.4567 634.07 47.2676C634.047 47.2779 634.023 47.2881 634 47.2982C633.163 47.663 632.5 47.9508 631.923 48.0061C631.853 47.9964 631.781 47.9914 631.708 47.9914C631.062 47.9914 630.345 47.6805 629.436 47.2739C627.57 46.4369 625.011 45.3128 621.017 46.102C618.601 46.5804 616.616 47.9436 615.229 50.0244C612.981 53.4444 612.407 58.7061 613.627 64.4699C614.918 70.4969 617.812 75.2324 621.591 77.4566ZM631.405 51.0916C630.263 51.0236 629.248 50.5819 628.192 50.12L628.184 50.1165C626.441 49.3523 624.648 48.5664 621.639 49.1634C620.036 49.4743 618.745 50.3592 617.836 51.7463C616.066 54.425 615.636 58.9452 616.688 63.8242C617.788 68.9902 620.156 72.9842 623.193 74.778C624.7 75.6629 626.255 75.926 627.69 75.4955C628.718 75.1845 629.388 74.7062 629.938 74.2757C630.321 73.9887 630.679 73.7256 631.11 73.5343C631.65 73.3053 632.245 73.4007 632.675 73.7363C632.961 73.9 633.223 74.0938 633.498 74.3C634.072 74.7305 634.718 75.2088 635.746 75.5197C637.181 75.9502 638.736 75.711 640.242 74.8022C643.256 73.0085 645.624 69.0144 646.748 63.8484C647.8 58.9695 647.37 54.4492 645.6 51.7706C644.667 50.3834 643.399 49.4985 641.797 49.1876C638.784 48.5897 636.966 49.3789 635.244 50.1443L635.199 50.1637C634.068 50.6588 633.003 51.1249 631.728 51.1249C631.617 51.1249 631.51 51.1134 631.405 51.0916Z" fill="#A3876E"/>
<path d="M633.258 49.5689L630.148 49.5449C630.196 42.6092 632.564 37.7541 637.204 35.1472C637.658 34.8841 638.137 34.6689 638.639 34.4536L639.859 37.3236C639.476 37.491 639.093 37.6823 638.734 37.8737C635.075 39.9066 633.282 43.7332 633.258 49.5689Z" fill="#A3876E"/>
<path d="M633.665 609H630.387V618.785H633.665V609Z" fill="#A3876E"/>
<path d="M647.175 614.514L640.256 621.433L642.574 623.751L649.493 616.832L647.175 614.514Z" fill="#A3876E"/>
<path d="M616.853 614.474L614.535 616.792L621.454 623.711L623.772 621.393L616.853 614.474Z" fill="#A3876E"/>
<path d="M655.101 630.31H645.316V633.589H655.101V630.31Z" fill="#A3876E"/>
<path d="M618.785 630.31H609V633.589H618.785V630.31Z" fill="#A3876E"/>
<path d="M651.823 655L632.025 634.32L612.279 654.924L609.908 652.655L632.025 629.579L654.193 652.73L651.823 655Z" fill="#A3876E"/>
<path d="M642.239 642.617L639.969 640.247C642.264 638.053 643.525 635.127 643.525 631.95C643.525 625.62 638.38 620.475 632.05 620.475C625.72 620.475 620.575 625.62 620.575 631.95C620.575 635.102 621.836 638.053 624.106 640.222L621.836 642.592C618.911 639.793 617.297 636.01 617.297 631.95C617.297 623.804 623.904 617.196 632.05 617.196C640.196 617.196 646.803 623.804 646.803 631.95C646.778 636.01 645.164 639.818 642.239 642.617Z" fill="#A3876E"/>
<path d="M650.259 349.698C650.082 349.698 649.883 349.653 649.706 349.587C648.976 349.277 648.622 348.436 648.931 347.706C649.418 346.534 649.374 345.228 648.821 344.1C648.312 343.06 647.427 342.285 646.321 341.931C645.236 341.555 644.064 341.644 643.024 342.153C642.227 342.551 641.586 343.148 641.165 343.923C640.789 344.609 639.904 344.874 639.218 344.476C638.532 344.1 638.267 343.215 638.665 342.529C639.373 341.245 640.435 340.228 641.763 339.586C643.488 338.723 645.435 338.59 647.25 339.21C649.064 339.829 650.547 341.113 651.41 342.839C652.339 344.719 652.405 346.91 651.609 348.835C651.365 349.366 650.812 349.698 650.259 349.698Z" fill="#A3876E"/>
<path d="M629.878 358.815C629.767 358.815 629.657 358.793 629.568 358.77C627.864 358.372 626.426 357.266 625.652 355.695C624.236 352.841 625.408 349.345 628.263 347.929C629.103 347.508 630.033 347.309 630.962 347.331C631.759 347.353 632.378 347.995 632.378 348.792C632.356 349.566 631.714 350.208 630.94 350.208H630.918C630.453 350.208 629.989 350.296 629.568 350.517C628.13 351.225 627.532 352.996 628.263 354.434C628.661 355.23 629.369 355.783 630.232 355.983C631.006 356.16 631.493 356.934 631.316 357.708C631.139 358.372 630.542 358.815 629.878 358.815Z" fill="#A3876E"/>
<path d="M641.368 367.82C641.368 367.798 640.195 365.475 639.421 363.926C638.956 363.019 638.138 361.824 636.81 361.271C634.774 360.43 631.832 359.412 629.486 358.749L630.261 355.983C632.695 356.669 635.77 357.731 637.916 358.616C640.04 359.501 641.302 361.293 641.988 362.621C643.271 365.143 644.023 366.626 644.045 366.67L641.368 367.82Z" fill="#A3876E"/>
<path d="M649.198 364.435C649.198 364.435 648.336 362.709 647.074 360.12C646.676 359.324 645.503 356.912 646.366 354.368C646.919 352.686 647.517 351.248 648.092 349.854C648.358 349.19 648.645 348.526 648.911 347.84L651.588 348.88C651.3 349.588 651.035 350.274 650.747 350.938C650.172 352.354 649.619 353.682 649.088 355.275C648.756 356.248 648.933 357.399 649.663 358.859C650.924 361.448 651.809 363.306 651.809 363.306L649.198 364.435Z" fill="#A3876E"/>
<path d="M634.22 350.606C633.181 350.606 631.986 350.451 630.592 350.186L631.145 347.353C633.756 347.862 635.106 347.884 635.924 347.376C636.809 346.867 637.539 345.561 638.491 342.862L641.212 343.813C639.464 348.747 637.827 350.606 634.22 350.606Z" fill="#A3876E"/>
<path d="M612.901 339.146C613.078 339.146 613.277 339.19 613.454 339.257C614.184 339.566 614.538 340.407 614.229 341.137C613.742 342.31 613.786 343.615 614.339 344.744C614.848 345.784 615.733 346.558 616.84 346.912C617.924 347.288 619.096 347.2 620.136 346.691C620.933 346.293 621.575 345.695 621.995 344.921C622.371 344.235 623.256 343.969 623.942 344.368C624.628 344.744 624.893 345.629 624.495 346.315C623.787 347.598 622.725 348.616 621.398 349.258C619.672 350.121 617.725 350.253 615.91 349.634C614.096 349.014 612.614 347.731 611.751 346.005C610.821 344.124 610.755 341.934 611.551 340.009C611.817 339.478 612.348 339.146 612.901 339.146Z" fill="#A3876E"/>
<path d="M633.281 330.03C633.392 330.03 633.503 330.052 633.591 330.075C635.295 330.473 636.733 331.579 637.508 333.15C638.924 336.004 637.751 339.5 634.897 340.916C634.056 341.337 633.127 341.536 632.197 341.514C631.401 341.492 630.781 340.85 630.781 340.053C630.803 339.279 631.445 338.637 632.219 338.637H632.242C632.706 338.637 633.171 338.549 633.591 338.328C635.029 337.62 635.627 335.849 634.897 334.411C634.498 333.615 633.79 333.062 632.927 332.862C632.153 332.685 631.666 331.911 631.843 331.137C632.02 330.473 632.618 330.03 633.281 330.03Z" fill="#A3876E"/>
<path d="M621.796 321C621.796 321.022 622.969 323.345 623.744 324.894C624.208 325.801 625.027 326.996 626.354 327.549C628.39 328.39 631.333 329.408 633.678 330.072L632.904 332.837C630.47 332.152 627.394 331.089 625.248 330.204C623.124 329.319 621.863 327.527 621.177 326.2C619.894 323.677 619.141 322.195 619.119 322.151L621.796 321Z" fill="#A3876E"/>
<path d="M613.998 324.409C613.998 324.409 614.861 326.135 616.122 328.724C616.52 329.52 617.693 331.932 616.83 334.477C616.277 336.158 615.679 337.596 615.104 338.99C614.838 339.654 614.551 340.318 614.285 341.004L611.608 339.964C611.896 339.256 612.161 338.57 612.449 337.906C613.024 336.49 613.577 335.162 614.108 333.569C614.44 332.596 614.263 331.445 613.533 329.985C612.272 327.396 611.387 325.538 611.387 325.538L613.998 324.409Z" fill="#A3876E"/>
<path d="M628.966 338.237C630.006 338.237 631.201 338.392 632.595 338.658L632.042 341.49C629.431 340.981 628.081 340.959 627.263 341.468C626.378 341.977 625.648 343.282 624.696 345.981L621.975 345.03C623.7 340.096 625.36 338.237 628.966 338.237Z" fill="#A3876E"/>
<path d="M644.6 335.941C642.21 335.941 640.285 334.016 640.285 331.627C640.285 329.812 642.454 326.161 643.383 324.679L644.6 322.732L645.817 324.679C646.746 326.161 648.914 329.834 648.914 331.627C648.914 334.016 646.989 335.941 644.6 335.941ZM644.6 328.308C643.759 329.834 643.162 331.206 643.162 331.649C643.162 332.445 643.803 333.087 644.6 333.087C645.396 333.087 646.038 332.445 646.038 331.649C646.038 331.184 645.441 329.834 644.6 328.308Z" fill="#A3876E"/>
<path d="M628.961 940.206C626.392 940.206 624.322 938.136 624.322 935.566V904.639C624.322 902.07 626.392 900 628.961 900C631.531 900 633.6 902.07 633.6 904.639V935.59C633.6 938.136 631.531 940.206 628.961 940.206ZM628.961 903.093C628.105 903.093 627.415 903.783 627.415 904.639V935.59C627.415 936.447 628.105 937.137 628.961 937.137C629.818 937.137 630.508 936.447 630.508 935.59V904.639C630.508 903.783 629.818 903.093 628.961 903.093Z" fill="#A3876E"/>
<path d="M635.143 940.11C632.574 940.11 630.504 938.041 630.504 935.471V904.639C630.504 902.07 632.574 900 635.143 900C637.712 900 639.782 902.07 639.782 904.639V935.471C639.782 938.017 637.712 940.11 635.143 940.11ZM635.143 903.093C634.287 903.093 633.597 903.783 633.597 904.639V935.471C633.597 936.328 634.287 937.018 635.143 937.018C635.999 937.018 636.689 936.328 636.689 935.471V904.639C636.689 903.783 635.999 903.093 635.143 903.093Z" fill="#A3876E"/>
<path d="M638.996 927.788L637.664 925.005L643.255 922.316V917.986L637.664 915.298L638.996 912.515L646.348 916.036V924.267L638.996 927.788Z" fill="#A3876E"/>
<path d="M625.338 927.788L617.986 924.267V916.036L625.338 912.515L626.67 915.298L621.079 917.986V922.316L626.67 925.005L625.338 927.788Z" fill="#A3876E"/>
<path d="M658.215 924.837H644.797V921.744H656.668V918.651H644.797V915.559H658.215L659.761 917.105V923.29L658.215 924.837Z" fill="#A3876E"/>
<path d="M619.678 924.837H605.546L604 923.29V917.105L605.546 915.559H619.678V918.651H607.093V921.744H619.678V924.837Z" fill="#A3876E"/>
<path d="M471.141 327.482C468.011 330.612 466.572 335.021 466.983 340.024L469.93 337.077C470.181 334.084 471.301 331.503 473.22 329.584C475.139 327.665 477.697 326.545 480.713 326.294L483.66 323.347C483.112 323.301 482.563 323.279 482.015 323.279C477.674 323.256 473.905 324.718 471.141 327.482ZM508.881 348.523L505.934 351.47C505.683 354.371 504.609 356.998 502.621 358.963C500.702 360.882 498.144 362.001 495.128 362.253L492.181 365.2C492.729 365.245 493.278 365.268 493.826 365.268C498.212 365.268 501.982 363.806 504.746 361.042C507.853 357.958 509.315 353.549 508.881 348.523Z" fill="#A3876E"/>
<path d="M470.568 346.606C470.751 346.675 470.956 346.698 471.162 346.675C471.984 346.606 472.578 345.898 472.533 345.076C472.441 343.773 472.898 342.494 473.812 341.58C474.657 340.735 475.777 340.255 476.965 340.255C478.153 340.255 479.272 340.712 480.117 341.557C480.757 342.197 481.191 342.997 481.351 343.888C481.511 344.687 482.288 345.213 483.087 345.076C483.887 344.916 484.412 344.139 484.275 343.339C484.001 341.854 483.27 340.506 482.196 339.456C480.78 338.062 478.907 337.285 476.919 337.308C474.931 337.308 473.058 338.108 471.665 339.501C470.134 341.032 469.357 343.156 469.54 345.327C469.608 345.921 470.02 346.423 470.568 346.606Z" fill="#A3876E"/>
<path d="M487.594 362.14C487.709 362.186 487.8 362.209 487.914 362.209C489.719 362.392 491.478 361.752 492.734 360.473C495.065 358.12 495.042 354.327 492.712 351.997C492.026 351.312 491.181 350.809 490.267 350.535C489.49 350.284 488.645 350.741 488.417 351.517C488.188 352.294 488.6 353.117 489.376 353.368H489.399C489.856 353.505 490.267 353.756 490.633 354.099C491.821 355.264 491.821 357.183 490.656 358.371C490.016 359.011 489.125 359.33 488.211 359.239C487.389 359.171 486.658 359.765 486.589 360.564C486.521 361.295 486.955 361.935 487.594 362.14Z" fill="#A3876E"/>
<path d="M474.237 366.368C474.259 366.345 475.287 365.34 476.567 364.061C477.298 363.33 478.509 362.416 479.971 362.302C482.255 362.119 485.454 362.096 487.967 362.21L488.104 359.24C485.476 359.126 482.118 359.172 479.742 359.355C477.366 359.537 475.562 360.863 474.465 361.959C473.277 363.147 473.049 363.353 472.135 364.266L474.237 366.368Z" fill="#A3876E"/>
<path d="M468.056 360.177C468.056 360.177 468.262 359.971 470.341 357.869C470.98 357.23 472.922 355.242 472.899 352.455C472.899 350.627 472.785 349.005 472.671 347.475C472.625 346.744 472.557 345.99 472.534 345.236L469.564 345.396C469.61 346.173 469.655 346.949 469.724 347.703C469.838 349.279 469.929 350.742 469.952 352.478C469.952 353.552 469.404 354.602 468.239 355.79C466.16 357.915 466 358.098 466 358.098L468.056 360.177Z" fill="#A3876E"/>
<path d="M486.012 352.683C487.017 353.025 488.251 353.254 489.713 353.437L490.078 350.49C487.36 350.147 486.035 349.713 485.372 348.959C484.687 348.182 484.367 346.652 484.321 343.705L481.352 343.773C481.466 349.165 482.494 351.518 486.012 352.683Z" fill="#A3876E"/>
<path d="M505.44 341.762C505.257 341.694 505.051 341.671 504.846 341.694C504.023 341.762 503.429 342.47 503.475 343.293C503.566 344.595 503.11 345.874 502.196 346.788C501.351 347.633 500.231 348.113 499.043 348.113C497.855 348.113 496.736 347.656 495.89 346.811C495.251 346.171 494.817 345.372 494.657 344.481C494.497 343.681 493.72 343.156 492.921 343.293C492.121 343.453 491.596 344.229 491.733 345.029C492.007 346.514 492.738 347.862 493.812 348.913C495.228 350.306 497.101 351.083 499.089 351.06C501.076 351.06 502.95 350.261 504.343 348.867C505.874 347.336 506.651 345.212 506.468 343.042C506.399 342.448 505.988 341.945 505.44 341.762Z" fill="#A3876E"/>
<path d="M488.441 326.226C488.327 326.181 488.235 326.158 488.121 326.158C486.316 325.975 484.557 326.615 483.301 327.894C480.971 330.247 480.993 334.039 483.324 336.37C484.009 337.055 484.854 337.557 485.768 337.832C486.545 338.083 487.39 337.626 487.618 336.849C487.847 336.073 487.436 335.25 486.659 334.999H486.636C486.179 334.862 485.768 334.61 485.402 334.268C484.215 333.103 484.215 331.184 485.38 329.996C486.019 329.356 486.91 329.036 487.824 329.128C488.647 329.196 489.378 328.602 489.446 327.803C489.515 327.071 489.081 326.432 488.441 326.226Z" fill="#A3876E"/>
<path d="M501.756 322C501.733 322.023 500.705 323.028 499.426 324.307C498.694 325.038 497.484 325.952 496.022 326.066C493.737 326.249 490.539 326.272 488.026 326.158L487.889 329.128C490.516 329.242 493.874 329.196 496.25 329.013C498.626 328.831 500.431 327.506 501.527 326.409C502.715 325.221 502.944 325.016 503.858 324.102L501.756 322Z" fill="#A3876E"/>
<path d="M507.945 328.192C507.945 328.192 507.739 328.397 505.66 330.499C505.021 331.139 503.079 333.126 503.102 335.914C503.102 337.741 503.216 339.363 503.33 340.894C503.376 341.625 503.444 342.379 503.467 343.133L506.437 342.973C506.391 342.196 506.346 341.419 506.277 340.665C506.163 339.089 506.072 337.627 506.049 335.891C506.049 334.817 506.597 333.766 507.762 332.578C509.841 330.454 510.001 330.271 510.001 330.271L507.945 328.192Z" fill="#A3876E"/>
<path d="M489.988 335.687C488.983 335.344 487.749 335.115 486.287 334.933L485.922 337.88C488.64 338.222 489.965 338.656 490.628 339.41C491.313 340.187 491.633 341.718 491.679 344.665L494.649 344.596C494.535 339.205 493.529 336.852 489.988 335.687Z" fill="#A3876E"/>
<path d="M505.086 943.39H496.926V921.741H505.133L509.106 925.857V939.608L505.086 943.39ZM500.019 940.298H503.873L506.037 938.275V927.118L503.825 924.834H500.019V940.298Z" fill="#A3876E"/>
<path d="M478.181 943.39H470.021L466 939.608V925.857L469.973 921.741H478.181V943.39ZM471.234 940.298H475.088V924.834H471.281L469.069 927.118V938.275L471.234 940.298Z" fill="#A3876E"/>
<path d="M498.433 927.929H476.902V931.021H498.433V927.929Z" fill="#A3876E"/>
<path d="M498.433 934.113H476.902V937.206H498.433V934.113Z" fill="#A3876E"/>
<path d="M505.086 918.649H496.926V897H505.133L509.106 901.116V914.867L505.086 918.649ZM500.019 915.556H503.873L506.037 913.534V902.377L503.825 900.093H500.019V915.556Z" fill="#A3876E"/>
<path d="M478.181 918.649H470.021L466 914.867V901.116L469.973 897H478.181V918.649ZM471.234 915.556H475.088V900.093H471.281L469.069 902.377V913.534L471.234 915.556Z" fill="#A3876E"/>
<path d="M498.433 903.185H476.902V906.277H498.433V903.185Z" fill="#A3876E"/>
<path d="M498.433 909.371H476.902V912.464H498.433V909.371Z" fill="#A3876E"/>
<path d="M500.429 1232.37C498.454 1232.37 496.48 1231.61 494.957 1230.11L466.266 1201.42C463.245 1198.4 463.245 1193.5 466.266 1190.48L470.477 1186.27C473.498 1183.24 478.399 1183.24 481.42 1186.27L510.112 1214.96C513.133 1217.98 513.133 1222.88 510.112 1225.9L505.901 1230.11C504.378 1231.61 502.403 1232.37 500.429 1232.37ZM475.949 1187.12C474.759 1187.12 473.57 1187.57 472.666 1188.48L468.455 1192.69C466.647 1194.5 466.647 1197.45 468.455 1199.26L497.146 1227.95C498.954 1229.75 501.904 1229.75 503.712 1227.95L507.923 1223.74C509.731 1221.93 509.731 1218.98 507.923 1217.17L479.232 1188.48C478.328 1187.57 477.138 1187.12 475.949 1187.12Z" fill="#A3876E"/>
<path d="M475.374 1208.13L473.186 1205.94C477.539 1201.59 481.512 1202.06 485.152 1203.21C489.244 1204.51 492.194 1203.99 494.668 1201.52L496.857 1203.71C493.55 1207.01 489.411 1207.82 484.2 1206.16C480.917 1205.11 478.419 1205.11 475.374 1208.13Z" fill="#A3876E"/>
<path d="M492.275 1199.33L490.086 1197.14L493.417 1193.81L486.898 1187.29L483.568 1190.62L481.379 1188.43L485.804 1184.01H487.993L496.7 1192.71V1194.88L492.275 1199.33Z" fill="#A3876E"/>
<path d="M507.73 1214.79L505.541 1212.6L508.872 1209.27L502.353 1202.75L499.023 1206.08L496.834 1203.9L501.259 1199.47H503.448L512.155 1208.18V1210.37L507.73 1214.79Z" fill="#A3876E"/>
<path d="M488.389 1230.16H486.2L481.918 1225.88V1223.69L487.342 1218.24L489.531 1220.43L485.201 1224.78L487.295 1226.87L491.648 1222.52L493.837 1224.71L488.389 1230.16Z" fill="#A3876E"/>
<path d="M473.096 1214.55H470.907L466.625 1210.27V1208.08L471.716 1202.99L473.905 1205.18L469.908 1209.18L472.002 1211.27L475.998 1207.27L478.187 1209.46L473.096 1214.55Z" fill="#A3876E"/>
<path d="M623.099 1205.01C622.94 1204.87 619.071 1201.93 615.018 1204.64C614.408 1205.03 613.587 1205.01 613.004 1204.56C612.421 1204.11 612.183 1203.31 612.448 1202.62C612.845 1201.54 613.295 1200.1 613.772 1198.62C614.302 1196.98 614.832 1195.26 615.336 1193.88L618.568 1195.04C618.091 1196.37 617.561 1198.04 617.058 1199.65C617.005 1199.84 616.925 1200.05 616.872 1200.24C620.476 1199.57 623.761 1201.11 625.271 1202.33L623.099 1205.01Z" fill="#A3876E"/>
<path d="M641.275 1205.01L639.129 1202.33C640.639 1201.11 643.898 1199.57 647.528 1200.24C647.475 1200.05 647.396 1199.84 647.343 1199.65C646.839 1198.04 646.309 1196.37 645.832 1195.04L649.065 1193.88C649.568 1195.26 650.098 1196.95 650.628 1198.59C651.105 1200.1 651.555 1201.51 651.953 1202.62C652.191 1203.31 651.979 1204.11 651.396 1204.56C650.814 1205.01 649.992 1205.03 649.383 1204.64C645.223 1201.91 641.302 1204.98 641.275 1205.01Z" fill="#A3876E"/>
<path d="M621.536 1230.68C621.536 1229.54 621.536 1228.19 621.536 1226.97V1225.38C621.536 1220.48 620.396 1216.72 618.224 1214.57C616.819 1213.17 614.938 1212.45 612.686 1212.45C612.686 1212.45 612.686 1212.45 612.66 1212.45C609.851 1212.45 607.493 1211.39 606.062 1209.43C604.923 1207.89 603.837 1205.17 605.161 1200.79C605.877 1198.44 606.195 1197.53 607.413 1194.2L608.102 1192.26L611.335 1193.43L610.646 1195.36C609.427 1198.73 609.136 1199.52 608.473 1201.77C607.784 1204.11 607.917 1206.09 608.844 1207.36C609.613 1208.42 610.99 1208.98 612.686 1208.98C612.686 1208.98 612.686 1208.98 612.713 1208.98C615.919 1208.98 618.595 1210.04 620.688 1212.11C623.523 1214.94 625.007 1219.53 625.007 1225.35V1226.94C625.007 1228.16 625.007 1229.51 625.007 1230.65L621.536 1230.68Z" fill="#A3876E"/>
<path d="M611.309 1193.45L608.076 1192.26C610.169 1186.62 611.388 1184.13 617.906 1184.13V1187.57C613.64 1187.55 613.296 1188.13 611.309 1193.45Z" fill="#A3876E"/>
<path d="M642.706 1230.68L639.262 1230.66C639.262 1229.52 639.262 1228.16 639.262 1226.95V1225.36C639.262 1219.5 640.772 1214.92 643.581 1212.11C645.674 1210.01 648.35 1208.98 651.556 1208.98C651.556 1208.98 651.556 1208.98 651.582 1208.98C653.278 1208.98 654.629 1208.4 655.424 1207.37C656.378 1206.09 656.51 1204.11 655.795 1201.77C655.106 1199.5 654.815 1198.7 653.596 1195.31L652.907 1193.4L656.139 1192.24L656.828 1194.12C658.047 1197.48 658.365 1198.38 659.081 1200.77C660.379 1205.14 659.292 1207.87 658.18 1209.41C656.722 1211.34 654.391 1212.43 651.582 1212.43C651.582 1212.43 651.582 1212.43 651.556 1212.43C649.304 1212.43 647.422 1213.14 646.018 1214.55C643.845 1216.72 642.706 1220.45 642.706 1225.36V1226.95C642.706 1228.19 642.706 1229.57 642.706 1230.68Z" fill="#A3876E"/>
<path d="M652.933 1193.45C650.946 1188.13 650.602 1187.55 646.336 1187.55V1184.1C652.854 1184.1 654.073 1186.59 656.166 1192.24L652.933 1193.45Z" fill="#A3876E"/>
<path d="M632.399 1201.38C628.61 1201.38 625.51 1197.98 625.51 1193.82V1191.68C625.51 1187.52 628.61 1184.13 632.399 1184.13C636.188 1184.13 639.288 1187.52 639.288 1191.68V1193.82C639.288 1197.98 636.188 1201.38 632.399 1201.38ZM632.399 1187.57C630.544 1187.57 628.954 1189.45 628.954 1191.68V1193.82C628.954 1196.08 630.491 1197.93 632.399 1197.93C634.253 1197.93 635.843 1196.05 635.843 1193.82V1191.68C635.843 1189.45 634.253 1187.57 632.399 1187.57Z" fill="#A3876E"/>
<path d="M357.822 324H354.713L355.526 326.726C358.707 335.719 361.123 349.806 355.981 356.909C354.163 359.42 351.461 360.879 348.567 360.879C346.366 360.879 344.333 359.994 343.018 358.488C341.655 356.909 341.081 354.733 341.392 352.198C344.023 348.299 347.036 343.922 349.189 340.813H345.41C343.425 343.683 341.009 347.199 338.857 350.404C337.589 351.002 336.274 351.313 335.006 351.313C332.471 351.313 330.247 350.069 329.027 348.012C327.616 345.597 327.807 342.392 329.601 339.211C332.184 334.595 336.872 333.399 342.277 332.012C345.625 331.151 349.26 330.218 352.8 328.353L351.891 325.315C348.567 327.205 344.979 328.114 341.511 329.022C335.676 330.529 330.151 331.94 326.898 337.728C324.578 341.89 324.363 346.218 326.372 349.615C328.142 352.652 331.395 354.446 335.03 354.446C335.437 354.446 335.819 354.422 336.226 354.374C332.16 360.353 330.558 361.286 325.152 361.286V364.395C331.586 364.395 334.049 363.032 338.57 356.455C339.024 358.296 339.885 359.636 340.698 360.568C342.611 362.769 345.481 364.036 348.591 364.036C352.489 364.036 356.1 362.123 358.516 358.775C365.141 349.567 361.051 332.299 357.822 324Z" fill="#A3876E"/>
<path d="M361.06 923.929H358.872L339.078 904.135V901.947L343.456 897.569H345.644L351.235 903.184L349.046 905.349L344.55 900.852L342.361 903.041L359.966 920.646L362.155 918.457L357.801 914.104L359.99 911.915L365.438 917.363V919.552L361.06 923.929Z" fill="#A3876E"/>
<path d="M362.683 916.793L360.495 914.604L363.754 911.345L351.716 899.283L348.433 902.566L346.244 900.377L350.622 896H352.81L367.037 910.25V912.439L362.683 916.793Z" fill="#A3876E"/>
<path d="M362.137 907.514H359.948L355.547 903.113V900.925L359.877 896.595H362.065L366.467 900.996V903.185L362.137 907.514ZM358.83 902.043L361.042 904.255L363.184 902.114L360.971 899.902L358.83 902.043Z" fill="#A3876E"/>
<path d="M341.32 941.606L335.753 936.039L337.942 933.85L342.415 938.323L344.603 936.134L327.046 918.577L324.857 920.766L329.258 925.167L327.07 927.356L321.574 921.86V919.671L325.952 915.294H328.14L347.886 935.04V937.229L343.509 941.606H341.32Z" fill="#A3876E"/>
<path d="M336.391 943.223H334.203L320 929.02V926.831L324.377 922.478L326.566 924.642L323.283 927.926L335.297 939.94L338.58 936.657L340.769 938.845L336.391 943.223Z" fill="#A3876E"/>
<path d="M327.07 942.534H324.881L320.504 938.156V935.968L324.834 931.638H327.022L331.4 936.015V938.204L327.07 942.534ZM323.787 937.086L325.976 939.274L328.117 937.133L325.928 934.945L323.787 937.086Z" fill="#A3876E"/>
<path d="M340.15 929.447H337.961L333.584 925.07V922.881L346.788 909.678H348.976L353.354 914.055V916.244L340.15 929.447ZM336.867 923.976L339.056 926.164L350.094 915.149L347.906 912.961L336.867 923.976Z" fill="#A3876E"/>
<path fill-rule="evenodd" clip-rule="evenodd" d="M326.092 1220.87C327.377 1224.42 331.635 1232.7 343.578 1232.7H343.586V1232.72C355.505 1232.72 359.787 1224.47 361.096 1220.87C362.17 1217.88 364.375 1214.18 364.952 1213.22C365.039 1213.07 365.089 1212.99 365.092 1212.98L365.188 1212.71V1196.39L360.882 1189.21H326.306L322 1196.39V1212.71L322.095 1212.98C322.098 1212.99 322.148 1213.07 322.236 1213.22C322.812 1214.18 325.017 1217.88 326.092 1220.87ZM328.067 1192.3L325.093 1197.25V1212.17C325.286 1212.68 325.748 1213.48 326.308 1214.45C327.198 1215.98 328.332 1217.94 329.018 1219.85C330.089 1222.8 333.633 1229.63 343.599 1229.63C353.557 1229.62 357.099 1222.8 358.169 1219.85C358.846 1217.98 359.96 1216.05 360.843 1214.53C361.419 1213.53 361.898 1212.7 362.095 1212.17V1197.25L359.121 1192.3L328.067 1192.3Z" fill="#A3876E"/>
<path d="M343.68 1186.09C338.214 1186.11 334.628 1187.87 332.736 1191.49L330 1190.07C332.427 1185.42 337.002 1183.05 343.586 1183C343.617 1183 343.649 1183 343.68 1183C343.712 1183 343.743 1183 343.775 1183C350.358 1183.04 354.933 1185.42 357.361 1190.07L354.625 1191.49C352.732 1187.87 349.147 1186.11 343.68 1186.09Z" fill="#A3876E"/>
<path fill-rule="evenodd" clip-rule="evenodd" d="M343.447 1226.44C343.459 1226.44 343.471 1226.44 343.483 1226.44C349.82 1226.42 352.389 1223.15 352.649 1222.82C352.657 1222.81 352.663 1222.81 352.667 1222.8L352.952 1222.4V1216.57L359.09 1213.21V1201.49H328.043V1213.21L334.181 1216.57V1222.33L334.419 1222.71C334.514 1222.87 336.805 1226.42 343.412 1226.44C343.424 1226.44 343.436 1226.44 343.447 1226.44ZM343.448 1223.35C347.278 1223.34 349.171 1221.94 349.859 1221.3V1214.74L355.997 1211.38V1204.58H331.136V1211.38L337.274 1214.74V1221.35C337.89 1221.97 339.665 1223.34 343.448 1223.35Z" fill="#A3876E"/>
<path d="M352.861 1207.84H349.768V1210.93H352.861V1207.84Z" fill="#A3876E"/>
<path d="M346.842 1217.38H340.656V1220.47H346.842V1217.38Z" fill="#A3876E"/>
<path d="M337.394 1207.84H334.301V1210.93H337.394V1207.84Z" fill="#A3876E"/>
<path d="M489.703 217.419H486.594V222.155H489.703V217.419Z" fill="#A3876E"/>
<path d="M506.402 202.57L505.441 205.527L509.946 206.991L510.907 204.033L506.402 202.57Z" fill="#A3876E"/>
<path d="M500.356 178.775L497.572 182.607L500.088 184.434L502.872 180.603L500.356 178.775Z" fill="#A3876E"/>
<path d="M475.447 178.844L472.932 180.672L475.716 184.503L478.232 182.675L475.447 178.844Z" fill="#A3876E"/>
<path d="M469.504 202.705L465 204.169L465.961 207.126L470.465 205.662L469.504 202.705Z" fill="#A3876E"/>
<path d="M502.372 215.745L499.311 202.136L509.284 193.359L508.279 190.298L495.054 189.078L489.84 177H486.515L481.302 189.078L467.884 190.321L466.928 193.239L477.068 202.136L473.983 215.817L476.112 217.371L488.166 210.22L500.148 217.347L502.372 215.745ZM488.189 206.585L477.882 212.707L480.512 201.012L471.496 193.096L483.43 191.996L488.166 180.97L492.901 191.996L504.835 193.096L495.819 201.012L498.45 212.707L488.189 206.585Z" fill="#A3876E"/>
<path d="M343.762 787.855C335.269 787.855 328.346 780.932 328.346 772.438H331.438C331.438 779.242 336.958 784.762 343.762 784.762C350.566 784.762 356.085 779.242 356.085 772.438H359.178C359.178 780.955 352.255 787.855 343.762 787.855Z" fill="#A3876E"/>
<path fill-rule="evenodd" clip-rule="evenodd" d="M319.09 769.25V763.159C319.09 758.377 330.866 754 343.784 754C356.619 754.048 368.482 758.404 368.482 763.159V769.25H319.09ZM365.389 766.157V763.159C365.365 762.85 364.247 761.232 359.608 759.567C355.159 757.973 349.545 757.093 343.787 757.093H343.784C338.027 757.093 332.412 757.973 327.964 759.567C323.325 761.232 322.206 762.85 322.183 763.159V766.157H365.389Z" fill="#A3876E"/>
<path d="M368.484 772.485H362.299V775.578H368.484V772.485Z" fill="#A3876E"/>
<path d="M325.185 772.485H319V775.578H325.185V772.485Z" fill="#A3876E"/>
<path d="M345.286 790.994H342.193V797.18H345.286V790.994Z" fill="#A3876E"/>
<path d="M333.769 788.197L330.689 793.562L333.372 795.101L336.451 789.736L333.769 788.197Z" fill="#A3876E"/>
<path d="M327.502 781.505L322.17 784.64L323.737 787.306L329.07 784.172L327.502 781.505Z" fill="#A3876E"/>
<path d="M354.02 788.197L351.338 789.737L354.417 795.101L357.099 793.562L354.02 788.197Z" fill="#A3876E"/>
<path d="M360.284 781.532L358.717 784.198L364.049 787.333L365.617 784.667L360.284 781.532Z" fill="#A3876E"/>
<path d="M506.558 475.042L488.764 495.395L473.673 481.069L471.544 483.317L486.731 497.739L484.603 500.154L469.129 485.637L467 487.909L484.818 504.627L508.902 477.099L506.558 475.042ZM504.095 473.057L501.751 471L486.277 488.674L488.525 490.827L504.095 473.057Z" fill="#A3876E"/>
<path d="M488.981 654.915C483.105 654.915 477.205 652.679 472.733 648.206C468.403 643.877 466 638.096 466 631.958C466 625.82 468.379 620.062 472.733 615.709C481.702 606.764 496.261 606.764 505.23 615.709C507.823 618.302 509.774 621.49 510.868 624.963L507.918 625.891C506.943 622.846 505.302 620.158 503.041 617.874C495.286 610.118 482.677 610.118 474.921 617.874C471.162 621.633 469.093 626.629 469.093 631.934C469.093 637.239 471.162 642.235 474.921 645.994C482.677 653.75 495.286 653.75 503.041 645.994C505.254 643.781 506.872 641.188 507.847 638.238L510.773 639.214C509.631 642.616 507.776 645.637 505.23 648.183C500.758 652.655 494.858 654.915 488.981 654.915Z" fill="#A3876E"/>
<path d="M488.976 646.611C485.051 646.611 481.363 645.089 478.604 642.305C477.771 641.472 477.033 640.545 476.415 639.522L479.056 637.928C479.531 638.713 480.126 639.45 480.769 640.116C482.957 642.305 485.86 643.518 488.952 643.518C492.045 643.518 494.948 642.305 497.136 640.116C499.325 637.928 500.538 635.025 500.538 631.933C500.538 628.84 499.325 625.937 497.136 623.749C492.616 619.228 485.289 619.228 480.769 623.749C480.031 624.486 479.413 625.295 478.913 626.175L476.225 624.629C476.867 623.511 477.652 622.464 478.58 621.536C484.289 615.826 493.615 615.826 499.325 621.536C502.085 624.296 503.631 627.983 503.631 631.909C503.631 635.834 502.108 639.522 499.325 642.281C496.589 645.089 492.902 646.611 488.976 646.611Z" fill="#A3876E"/>
<path d="M488.98 638.404C487.267 638.404 485.626 637.737 484.413 636.524C483.199 635.311 482.533 633.693 482.533 631.956C482.533 630.244 483.199 628.602 484.413 627.389C485.626 626.175 487.244 625.509 488.98 625.509C490.693 625.509 492.311 626.175 493.548 627.389L491.359 629.577C490.717 628.935 489.884 628.602 488.98 628.602C488.076 628.602 487.244 628.959 486.601 629.577C485.959 630.22 485.626 631.052 485.626 631.956C485.626 632.86 485.983 633.693 486.601 634.335C487.244 634.978 488.076 635.311 488.98 635.311C489.884 635.311 490.717 634.954 491.359 634.335L493.548 636.524C492.311 637.714 490.693 638.404 488.98 638.404Z" fill="#A3876E"/>
<path d="M646.465 181.377C642.447 177.67 639.218 177 632.091 177C624.868 177 621.568 177.67 617.55 181.377C613.627 185.012 611.953 187.786 612.001 190.632C612.025 192.833 612.216 196.683 612.384 199.792C612.432 200.653 612.479 201.443 612.503 202.16C612.455 202.591 612.455 203.045 612.479 203.547C612.718 208.522 616.354 210.459 618.985 210.962C619.2 213.473 620.133 215.721 621.831 217.826C623.17 219.5 624.653 220.767 625.657 221.628C625.849 221.796 626.016 221.939 626.136 222.059C627.164 222.968 628.958 223.661 630.345 223.661H631.947H633.526C634.889 223.661 636.707 222.968 637.735 222.059C637.879 221.939 638.046 221.796 638.214 221.628C639.194 220.791 640.677 219.5 642.016 217.826C643.69 215.745 644.623 213.521 644.862 211.033C647.517 210.603 651.296 208.689 651.535 203.595C651.559 203.26 651.559 202.949 651.535 202.639H651.559C651.75 200.151 651.87 195.918 651.942 192.833C651.966 191.996 651.989 191.254 651.989 190.704C652.109 187.834 650.459 185.06 646.465 181.377ZM615.588 203.38C615.541 202.495 615.612 201.323 616.186 200.725C616.713 200.175 617.669 200.127 618.458 200.127C618.554 202.352 618.698 205.341 618.817 207.709C617.502 207.254 615.732 206.178 615.588 203.38ZM648.45 203.404C648.306 206.322 646.393 207.374 645.054 207.757C645.173 205.437 645.293 202.447 645.412 200.127C646.226 200.127 647.302 200.151 647.852 200.725C648.426 201.347 648.498 202.519 648.45 203.404ZM648.856 192.689C648.809 194.1 648.761 195.894 648.713 197.616C647.589 197.09 646.393 197.042 645.556 197.042C645.556 196.779 645.58 196.635 645.58 196.635C645.675 193.933 644.456 191.374 642.518 190.13C640.749 189.006 638.572 188.982 636.372 190.082C635.702 190.417 635.104 190.752 634.506 191.063C631.756 192.546 629.58 193.694 624.533 193.766L624.629 196.875C630.393 196.779 632.976 195.392 635.965 193.789C636.539 193.479 637.137 193.168 637.759 192.857C638.979 192.235 640.031 192.211 640.844 192.737C641.873 193.407 642.542 194.914 642.495 196.492C642.495 196.588 642.016 207.159 641.849 210.292C641.753 212.349 641.036 214.119 639.649 215.841C638.477 217.275 637.113 218.447 636.228 219.237C636.037 219.404 635.846 219.572 635.702 219.691C635.248 220.098 634.172 220.504 633.574 220.504H631.947H630.369C629.771 220.504 628.695 220.098 628.24 219.691C628.097 219.548 627.905 219.404 627.714 219.237C626.805 218.471 625.466 217.299 624.294 215.841C622.907 214.119 622.189 212.349 622.094 210.292C621.926 207.159 621.472 196.97 621.472 196.875L618.937 196.994H618.793C617.98 196.994 616.665 196.994 615.421 197.544C615.301 194.961 615.158 192.259 615.158 190.561C615.134 189.317 615.66 187.404 619.726 183.625C622.835 180.731 625.155 180.085 632.139 180.085C639.051 180.085 641.227 180.707 644.384 183.625C647.589 186.591 649 188.719 648.952 190.513C648.904 191.111 648.88 191.852 648.856 192.689Z" fill="#A3876E"/>
<path d="M500.181 797.465H475.439L473.893 795.918V755.546L475.439 754H500.181L501.727 755.546V795.918L500.181 797.465ZM476.985 794.372H498.634V757.093H476.985V794.372Z" fill="#A3876E"/>
<path d="M487.906 791.256C483.648 791.256 480.15 787.783 480.15 783.501C480.15 779.242 483.624 775.745 487.906 775.745C492.164 775.745 495.638 779.219 495.638 783.501C495.638 787.783 492.164 791.256 487.906 791.256ZM487.906 778.862C485.337 778.862 483.243 780.955 483.243 783.525C483.243 786.094 485.337 788.187 487.906 788.187C490.475 788.187 492.545 786.094 492.545 783.525C492.545 780.955 490.452 778.862 487.906 778.862Z" fill="#A3876E"/>
<path d="M487.836 772.511C484.434 772.511 481.65 769.751 481.65 766.325C481.65 762.923 484.434 760.14 487.836 760.14C491.238 760.14 494.021 762.899 494.021 766.325C494.021 769.727 491.238 772.511 487.836 772.511ZM487.836 763.232C486.123 763.232 484.743 764.612 484.743 766.325C484.743 768.014 486.123 769.418 487.836 769.418C489.549 769.418 490.929 768.038 490.929 766.325C490.929 764.612 489.549 763.232 487.836 763.232Z" fill="#A3876E"/>
<path d="M468.587 782.478C466.969 780.36 466.137 778.077 466.137 775.674C466.137 773.39 466.898 771.201 468.373 769.155L470.871 770.963C469.777 772.462 469.229 774.056 469.229 775.674C469.229 777.363 469.848 779.028 471.038 780.598L468.587 782.478Z" fill="#A3876E"/>
<path d="M463.783 786.045C461.285 782.762 460 779.264 460 775.601C460 772.103 461.166 768.749 463.45 765.585L465.948 767.393C464.044 770.01 463.093 772.77 463.093 775.577C463.093 778.527 464.139 781.429 466.233 784.141L463.783 786.045Z" fill="#A3876E"/>
<path d="M507.03 782.478L504.58 780.598C505.793 779.028 506.388 777.363 506.388 775.674C506.388 774.056 505.841 772.486 504.723 770.963L507.221 769.155C508.72 771.201 509.457 773.39 509.457 775.674C509.481 778.053 508.648 780.337 507.03 782.478Z" fill="#A3876E"/>
<path d="M511.835 786.045L509.385 784.166C511.478 781.454 512.525 778.575 512.525 775.601C512.525 772.77 511.55 770.034 509.67 767.417L512.168 765.609C514.452 768.75 515.618 772.128 515.618 775.625C515.618 779.241 514.357 782.762 511.835 786.045Z" fill="#A3876E"/>
<path d="M489.454 781.954H486.361V785.047H489.454V781.954Z" fill="#A3876E"/>
<path d="M500.201 47.4754H497.092V53.6937H490.873V56.8029H497.092V63.0212H500.201V56.8029H506.419V53.6937H500.201V47.4754ZM497.546 37C494.102 37 490.945 38.4589 488.769 40.8745C488.721 40.9223 487.692 41.9029 487.692 41.9029C487.692 41.9029 486.664 40.8984 486.592 40.8506C484.416 38.4589 481.283 37 477.839 37C471.309 37 466 42.3095 466 48.8387C466 51.7565 467.076 54.5547 469.013 56.7311L469.061 56.8029C473.486 62.0167 480.206 69.6222 483.89 73.7836L485.492 75.5774H489.988C490.419 75.099 490.969 74.4772 491.591 73.7597C493.337 71.7746 495.776 69.0482 498.311 66.1543H494.174C491.471 69.2156 489.079 71.9181 487.74 73.4249C484.727 70.0527 476.547 60.8448 471.429 54.8178L471.357 54.7222C469.898 53.1197 469.109 51.039 469.109 48.8626C469.109 44.0315 473.031 40.1331 477.839 40.1331C480.183 40.1331 482.335 41.0419 483.913 42.5726L487.692 46.2557C487.692 46.2557 489.845 44.151 491.208 42.8356C492.81 41.1376 495.083 40.1331 497.546 40.1331C502.377 40.1331 506.275 44.0554 506.275 48.8626C506.275 49.4605 506.228 50.0345 506.108 50.6085H509.265C509.361 50.0345 509.385 49.4605 509.385 48.8626C509.409 42.3095 504.075 37 497.546 37Z" fill="#A3876E"/>
<path d="M794.453 37.0469V44.7002C794.453 48.9812 793.114 49.3639 791.344 49.3639V40.0364L788.235 37.0469V49.3639C786.441 49.3639 785.078 49.0291 785.078 44.7002V40.0364L781.969 37.0469V45.1785C781.993 47.4267 782.423 52.4013 788.139 52.473L785.389 68.7602C785.365 68.8559 785.365 68.9276 785.365 69.0233V69.5016C785.365 72.0846 787.446 74.1653 790.029 74.1653C792.612 74.1653 794.692 72.0846 794.692 69.5016V69.0233C794.692 68.9276 794.692 68.808 794.668 68.7124L791.464 52.497C797.132 52.4013 797.538 47.4506 797.586 45.2024V40.0604L794.453 37.0469ZM791.583 69.1668V69.5016C791.583 70.3626 790.89 71.0562 790.029 71.0562C789.168 71.0562 788.474 70.3626 788.474 69.5016V69.1429L789.909 60.6764L791.583 69.1668Z" fill="#A3876E"/>
<path d="M771.1 65.8433V61.1318C772.798 60.6056 774.257 59.7446 775.405 58.5727C777.773 56.1811 778.921 52.6414 778.873 47.7385V37H754V38.5546C754 38.5546 754 41.3289 754 47.7385C754 56.2289 757.611 59.8164 761.773 61.1079V65.8433C761.773 69.6939 760.649 70.8658 756.966 70.8658V73.975C762.132 73.975 764.667 71.6072 764.858 66.513V58.5727C759.501 58.0466 757.085 54.6265 757.085 47.7146C757.085 44.0075 757.085 41.5202 757.085 40.0852H775.74V47.7385C775.764 51.7326 774.903 54.6265 773.181 56.3724C771.961 57.6161 770.215 58.3336 767.967 58.5727V66.4413C768.135 71.5833 770.67 73.975 775.86 73.975V70.8658C772.224 70.8658 771.1 69.67 771.1 65.8433Z" fill="#A3876E"/>
<path d="M775.719 627.487C772.317 627.487 769.533 624.442 769.533 620.707V618.78C769.533 615.045 772.317 612 775.719 612C779.121 612 781.904 615.045 781.904 618.78V620.707C781.904 624.442 779.144 627.487 775.719 627.487ZM775.719 615.093C774.053 615.093 772.626 616.782 772.626 618.78V620.707C772.626 622.729 774.006 624.395 775.719 624.395C777.384 624.395 778.811 622.706 778.811 620.707V618.78C778.811 616.782 777.408 615.093 775.719 615.093Z" fill="#A3876E"/>
<path d="M760.367 627.369C756.965 627.369 754.182 624.919 754.182 621.921V620.494C754.182 617.496 756.965 615.046 760.367 615.046C763.769 615.046 766.553 617.496 766.553 620.494V621.921C766.553 624.943 763.769 627.369 760.367 627.369ZM760.367 618.139C758.702 618.139 757.274 619.209 757.274 620.494V621.921C757.274 623.206 758.702 624.277 760.367 624.277C762.032 624.277 763.46 623.206 763.46 621.921V620.494C763.46 619.209 762.056 618.139 760.367 618.139Z" fill="#A3876E"/>
<path d="M791.06 627.369C787.658 627.369 784.875 624.919 784.875 621.921V620.494C784.875 617.496 787.658 615.046 791.06 615.046C794.462 615.046 797.246 617.496 797.246 620.494V621.921C797.246 624.943 794.462 627.369 791.06 627.369ZM791.06 618.139C789.395 618.139 787.968 619.209 787.968 620.494V621.921C787.968 623.206 789.395 624.277 791.06 624.277C792.726 624.277 794.153 623.206 794.153 621.921V620.494C794.153 619.209 792.75 618.139 791.06 618.139Z" fill="#A3876E"/>
<path d="M766.317 652.136H763.225V639.813C763.225 636.078 763.819 633.271 765.056 631.272C766.627 628.75 769.172 627.466 772.622 627.466V630.559C769.339 630.559 766.317 631.677 766.317 639.813V652.136Z" fill="#A3876E"/>
<path d="M751.093 645.973L748 645.949C748 645.902 748.048 641.453 748.048 638.36C748.048 632.722 749.166 627.512 757.231 627.512V630.604C752.52 630.604 751.14 632.341 751.14 638.36C751.14 641.453 751.093 645.925 751.093 645.973Z" fill="#A3876E"/>
<path d="M800.578 645.951C800.578 645.903 800.53 641.43 800.53 638.314C800.53 632.39 799.079 630.582 794.273 630.582V627.489C802.505 627.489 803.623 632.961 803.623 638.314C803.623 641.407 803.671 645.855 803.671 645.903L800.578 645.951Z" fill="#A3876E"/>
<path d="M788.204 652.136H785.111V639.813C785.111 631.677 782.09 630.559 778.807 630.559V627.466C782.256 627.466 784.802 628.75 786.372 631.272C787.609 633.271 788.204 636.054 788.204 639.813V652.136Z" fill="#A3876E"/>
<path d="M781.9 636.67H778.807V639.763H781.9V636.67Z" fill="#A3876E"/>
<path d="M198.822 508.408L201.884 510.178H201.931V490.304L217.621 499.248L220.706 497.431L203.51 487.625L219.271 478.585V475.117L219.223 475.021L201.931 484.946V466.674L199.014 465H198.822V484.946L183.061 475.954L180.024 477.748L180 477.795L197.244 487.625L181.555 496.618L181.531 500.133L181.578 500.181L198.822 490.304V508.408Z" fill="#A3876E"/>
<path fill-rule="evenodd" clip-rule="evenodd" d="M68.7878 1086.77C70.2866 1085.63 71.0479 1083.92 70.8576 1081.95C70.7625 1080.38 70.0725 1078.66 68.883 1077.14C68.0503 1076.07 67.2652 1075.57 66.4802 1075.12C65.5286 1074.57 64.5532 1073.98 62.983 1071.93C62.6783 1071.53 61.5247 1070.04 60.0909 1068.19C59.2858 1067.15 58.3924 1066 57.5112 1064.86L55.0846 1061.72C54.2996 1060.7 54.2282 1059.32 54.1568 1057.44C54.0378 1054.23 53.8475 1049.83 49.6604 1044.26C47.7096 1041.76 44.9738 1040.24 41.9524 1040.03C39.2641 1039.84 36.5044 1040.67 34.3633 1042.31C32.1277 1044.05 30.6299 1046.45 30.1304 1049.07C29.5595 1052.04 30.3445 1054.99 32.3905 1057.63C36.649 1063.15 40.836 1064.46 43.8812 1065.41L43.9266 1065.42C45.6873 1065.99 46.9568 1066.39 47.7352 1067.41L47.759 1067.43C50.6376 1071.17 54.9912 1076.81 55.6574 1077.64C57.2362 1079.64 57.6141 1080.77 57.941 1081.75C57.949 1081.78 57.957 1081.8 57.9651 1081.83C57.9747 1081.85 57.9844 1081.88 57.9941 1081.91C58.2705 1082.72 58.5634 1083.57 59.3448 1084.59C61.0815 1086.85 63.1989 1088.01 65.2449 1088.01C66.458 1088.01 67.6698 1087.61 68.7878 1086.77ZM66.8856 1084.33L66.8846 1084.32C67.5745 1083.8 67.8838 1083.09 67.8362 1082.18C67.7886 1081.21 67.3128 1080.11 66.504 1079.07C66.0282 1078.45 65.5999 1078.19 64.9576 1077.81C63.8633 1077.16 62.5072 1076.35 60.5802 1073.83C60.2754 1073.44 59.1219 1071.95 57.688 1070.1C56.8829 1069.06 55.9895 1067.9 55.1084 1066.77L52.658 1063.63C51.2746 1061.84 51.1854 1059.81 51.092 1057.68L51.0879 1057.58C50.9689 1054.47 50.8024 1050.95 47.21 1046.14C45.4258 1043.83 43.2608 1043.21 41.7383 1043.12C39.7892 1042.98 37.8163 1043.57 36.2705 1044.76L36.2683 1044.76C34.6505 1046.02 33.5324 1047.78 33.1755 1049.64C32.7949 1051.71 33.3659 1053.82 34.8409 1055.75C38.4962 1060.5 41.8438 1061.55 44.7889 1062.48L44.809 1062.48C46.855 1063.13 48.8057 1063.75 50.1856 1065.53L50.2094 1065.55C53.088 1069.29 57.4416 1074.9 58.1078 1075.74C60.0586 1078.21 60.5344 1079.68 60.915 1080.87C60.9271 1080.91 60.939 1080.95 60.9506 1080.98C61.1684 1081.64 61.3211 1082.1 61.7953 1082.71C62.6038 1083.75 64.7215 1085.99 66.8856 1084.33Z" fill="#A3876E"/>
<path d="M37.6813 1059.8L34.2793 1059.37L34.6599 1056.3L34.993 1056.35L35.4688 1052.59L39.2039 1053.06L39.6797 1049.33L43.4147 1049.8L43.8905 1046.07L47.6732 1046.54L47.7446 1046.09L50.8135 1046.59L50.2425 1049.99L46.555 1049.52L46.1031 1053.28L42.3442 1052.8L41.8922 1056.54L38.1571 1056.06L37.6813 1059.8Z" fill="#A3876E"/>
<path d="M54.709 1064.41L57.1594 1066.32L59.2054 1063.68C60.5908 1061.89 60.6783 1059.87 60.7718 1057.72L60.7755 1057.63C60.8945 1054.52 61.0372 1051 64.6295 1046.21C66.4138 1043.91 68.5787 1043.29 70.1013 1043.17C72.0283 1043.03 74.0267 1043.62 75.5731 1044.81L75.5738 1044.81C77.1858 1046.07 78.2998 1047.83 78.6558 1049.68C79.0603 1051.77 78.4655 1053.86 76.9905 1055.79C73.3351 1060.54 69.9876 1061.59 67.0425 1062.52L67.0224 1062.52C64.9765 1063.17 63.0256 1063.79 61.6458 1065.57L58.5293 1069.59L60.9797 1071.49L64.0962 1067.45C64.8746 1066.43 66.1442 1066.03 67.9049 1065.46L67.9502 1065.45C70.9954 1064.5 75.1825 1063.19 79.4409 1057.67C81.4869 1055.03 82.2482 1052.08 81.701 1049.11C81.2014 1046.49 79.7026 1044.09 77.4663 1042.35L77.4624 1042.35C75.3468 1040.71 72.5696 1039.89 69.8872 1040.08C66.8658 1040.29 64.13 1041.81 62.1792 1044.33C58.0224 1049.84 57.8281 1054.21 57.6859 1057.42L57.6828 1057.49C57.6803 1057.54 57.6778 1057.59 57.6753 1057.64C57.5846 1059.46 57.5194 1060.78 56.755 1061.77L54.709 1064.41Z" fill="#A3876E"/>
<path d="M40.9594 1082.02C40.8404 1083.92 41.6017 1085.61 43.1005 1086.78C44.1946 1087.63 45.4132 1088.04 46.6261 1088.04C48.672 1088.04 50.7894 1086.87 52.5261 1084.59C53.3587 1083.54 53.6442 1082.66 53.9059 1081.83C54.239 1080.83 54.6196 1079.69 56.2135 1077.64C56.2849 1077.55 56.4097 1077.39 56.5762 1077.17C56.7427 1076.96 56.951 1076.69 57.189 1076.38L54.7386 1074.48C54.5006 1074.79 54.2923 1075.05 54.1258 1075.27C53.9593 1075.48 53.8345 1075.64 53.7631 1075.74C51.8123 1078.24 51.3365 1079.69 50.9559 1080.88C50.9438 1080.91 50.9319 1080.95 50.9203 1080.98C50.7025 1081.64 50.5498 1082.1 50.0756 1082.71C49.2679 1083.75 47.1402 1086.03 44.9783 1084.38L44.98 1084.37C44.29 1083.83 43.9808 1083.14 44.0283 1082.23C44.0759 1081.26 44.5517 1080.16 45.3606 1079.12C45.8364 1078.5 46.2646 1078.24 46.9069 1077.86C48.0013 1077.21 49.3574 1076.4 51.2844 1073.88C51.4316 1073.69 51.77 1073.25 52.2376 1072.65C52.5259 1072.28 52.8632 1071.84 53.2352 1071.36L50.7848 1069.46C49.9792 1070.52 49.336 1071.35 49.0023 1071.79C48.932 1071.88 48.8754 1071.95 48.834 1072C47.2836 1074.02 46.3131 1074.61 45.3728 1075.17C45.3608 1075.18 45.3488 1075.18 45.3368 1075.19C45.2998 1075.21 45.2626 1075.24 45.2253 1075.26C44.4967 1075.71 43.7261 1076.2 42.934 1077.21C41.7682 1078.74 41.0545 1080.45 40.9594 1082.02Z" fill="#A3876E"/>
<path d="M74.2494 1059.8L73.7736 1056.06L70.0385 1056.54L69.5627 1052.8L65.8276 1053.28L65.3518 1049.52L61.6643 1050L61.1172 1046.59L64.1623 1046.09L64.2337 1046.55L68.0401 1046.07L68.5159 1049.81L72.251 1049.33L72.7268 1053.06L76.4619 1052.59L76.9377 1056.35L77.2708 1056.3L77.6514 1059.37L74.2494 1059.8Z" fill="#A3876E"/>
<path d="M357.903 486.894L351.254 503.301L342.979 468H339.774L332.91 493.782L330.447 486.894H321V490.003H328.247L331.523 499.163H334.68L341.281 474.41L349.245 508.419H352.522L359.984 490.003H367.278V486.894H357.903Z" fill="#A3876E"/>
<path fill-rule="evenodd" clip-rule="evenodd" d="M185.568 1066.57H185.543H185.542C183.424 1066.57 181.378 1068.97 181.331 1071.54C181.259 1075.16 182.33 1078.16 184.542 1080.42C187.659 1083.61 193.059 1085.37 199.768 1085.37C206.429 1085.37 211.83 1083.63 214.946 1080.44C217.183 1078.18 218.277 1075.18 218.206 1071.54C218.158 1069.1 215.869 1066.62 213.665 1066.6V1063.45C216.189 1063.38 218.396 1061.35 218.396 1059.1C218.396 1054.2 214.685 1053.06 208.547 1051.73C205.287 1051.04 201.743 1050.25 199.768 1048.11C197.794 1050.25 194.225 1051.04 190.966 1051.75C184.828 1053.08 181.093 1054.25 181.093 1059.15C181.093 1060.22 181.569 1061.29 182.425 1062.12C183.281 1062.98 184.423 1063.46 185.518 1063.43C185.535 1063.43 185.551 1063.43 185.568 1063.43V1066.57ZM218.116 1065.17C220.14 1063.8 221.489 1061.58 221.489 1059.15C221.489 1051.42 214.733 1049.95 209.272 1048.77L209.213 1048.75C203.86 1047.59 201.338 1046.73 201.338 1043.9H198.246C198.246 1046.73 195.7 1047.61 190.323 1048.78C184.828 1049.97 178 1051.46 178 1059.2C178 1061.08 178.833 1062.98 180.26 1064.38C180.559 1064.68 180.879 1064.94 181.215 1065.18C179.479 1066.67 178.294 1068.98 178.238 1071.47C178.143 1075.94 179.523 1079.68 182.33 1082.56C186.041 1086.34 192.227 1088.43 199.768 1088.43C207.286 1088.43 213.448 1086.37 217.159 1082.58C219.99 1079.7 221.37 1075.97 221.298 1071.47C221.256 1069.01 219.969 1066.67 218.116 1065.17Z" fill="#A3876E"/>
<path d="M213.668 1069.47H185.572L184.025 1067.93V1061.98L185.572 1060.43H213.668L215.214 1061.98V1067.93L213.668 1069.47ZM187.118 1066.38H212.122V1063.53H187.118V1066.38Z" fill="#A3876E"/>
<path d="M201.349 1039H198.256V1047.99H201.349V1039Z" fill="#A3876E"/>
<path d="M778.94 488.493C778.605 490.168 776.955 491.244 775.304 490.885C773.63 490.55 772.554 488.9 772.913 487.25C773.248 485.576 774.898 484.499 776.548 484.858C778.198 485.193 779.275 486.843 778.94 488.493Z" fill="#A3876E"/>
<path d="M800.776 486.319H795.25V489.429H800.776V486.319Z" fill="#A3876E"/>
<path d="M756.525 486.319H751V489.429H756.525V486.319Z" fill="#A3876E"/>
<path d="M777.447 463H774.338V468.525H777.447V463Z" fill="#A3876E"/>
<path d="M777.447 507.246H774.338V512.771H777.447V507.246Z" fill="#A3876E"/>
<path d="M790.555 475.435L777.019 488.971L774.822 486.775L788.334 473.263V467.52H791.441V472.328H796.226V475.435H790.555Z" fill="#A3876E"/>
<path d="M775.92 466.133C779.257 466.133 782.421 466.889 785.248 468.238V471.745C782.504 470.154 779.318 469.242 775.92 469.242C765.636 469.242 757.289 477.613 757.289 487.873C757.289 498.158 765.636 506.504 775.92 506.504C786.204 506.504 794.551 498.158 794.551 487.873C794.551 484.486 793.645 481.309 792.064 478.571L792.066 478.569H795.559C796.9 481.389 797.653 484.544 797.66 487.873C797.66 499.88 787.926 509.614 775.92 509.614C763.914 509.614 754.18 499.88 754.18 487.873C754.18 475.867 763.914 466.133 775.92 466.133Z" fill="#A3876E"/>
<path d="M780.858 476.489C779.345 475.828 777.675 475.461 775.92 475.461C769.056 475.461 763.507 481.009 763.507 487.873C763.507 494.737 769.056 500.286 775.92 500.286C782.784 500.286 788.333 494.737 788.333 487.873C788.327 486.209 787.994 484.62 787.395 483.167L784.939 485.585C785.125 486.317 785.224 487.084 785.224 487.873C785.224 492.992 781.062 497.177 775.92 497.177C770.778 497.177 766.617 493.015 766.617 487.873C766.617 482.755 770.778 478.57 775.92 478.57C776.776 478.57 777.607 478.686 778.396 478.905L780.858 476.489Z" fill="#A3876E"/>
<path d="M509.016 1088.98H475.172C468.46 1088.98 463 1083.52 463 1076.81C463 1070.05 468.46 1064.54 475.195 1064.54H481.387C489.801 1064.54 496.301 1066.83 501.287 1071.51C505.896 1075.89 508.52 1081.72 510.458 1086.88L509.016 1088.98ZM475.857 1085.91H506.771C503.036 1076.71 497.246 1067.61 481.387 1067.61H475.195C470.161 1067.61 466.072 1071.75 466.072 1076.81C466.072 1081.82 470.161 1085.91 475.172 1085.91H475.857Z" fill="#A3876E"/>
<path d="M481.219 1083C477.816 1083 475.074 1080.24 475.074 1076.86C475.074 1073.45 477.839 1070.71 481.219 1070.71C484.622 1070.71 487.364 1073.48 487.364 1076.86C487.364 1080.24 484.599 1083 481.219 1083ZM481.219 1073.76C479.517 1073.76 478.147 1075.13 478.147 1076.83C478.147 1078.53 479.517 1079.9 481.219 1079.9C482.921 1079.9 484.292 1078.53 484.292 1076.83C484.292 1075.15 482.897 1073.76 481.219 1073.76Z" fill="#A3876E"/>
<path d="M498.759 1071.59L496.324 1069.7C499.444 1065.65 499.798 1065.02 499.822 1059.3V1043.23H502.895V1059.3C502.871 1065.77 502.233 1067.07 498.759 1071.59Z" fill="#A3876E"/>
<path d="M503.981 1040L493.783 1046.6L495.453 1049.18L505.651 1042.58L503.981 1040Z" fill="#A3876E"/>
<path d="M472.036 1050.08L469.195 1051.25L475.553 1066.68L478.393 1065.51L472.036 1050.08Z" fill="#A3876E"/>
<path d="M478.407 1049.11H466.117V1052.18H478.407V1049.11Z" fill="#A3876E"/>
<path d="M493.672 1075.3H481.217V1078.37H493.672V1075.3Z" fill="#A3876E"/>
<path d="M501.289 1052.44V1049.37C503.109 1049.37 504.267 1049.32 504.74 1049.09C505.071 1048.92 505.354 1048.42 505.945 1047.31L506.087 1047.05L509.325 1040.58L512.066 1041.95L508.781 1048.5L508.639 1048.78C507.883 1050.2 507.339 1051.21 506.134 1051.83C505.071 1052.35 503.771 1052.44 501.289 1052.44Z" fill="#A3876E"/>
<path d="M618.364 510.561L615.781 508.815L616.379 507.858C618.843 504.127 620.11 502.477 624.009 502.429H636.469C638.454 502.429 640.607 500.994 643.046 498.029C645.39 495.159 650.293 488.988 651.656 487.051C652.517 485.831 651.823 484.851 651.465 484.587C650.723 483.99 649.551 484.396 648.786 485.114C647.375 486.453 639.483 493.341 639.148 493.628L637.091 491.284C637.163 491.212 645.246 484.157 646.634 482.842C648.666 480.952 651.489 480.665 653.378 482.172C655.076 483.535 655.937 486.357 654.143 488.869C652.756 490.83 647.782 497.12 645.414 500.014C642.353 503.745 639.435 505.538 636.445 505.538H624.009C621.808 505.562 621.378 505.897 618.962 509.556L618.364 510.561Z" fill="#A3876E"/>
<path d="M609.866 502.503L608 499.585C608.024 499.562 609.507 497.337 611.874 493.893C614.577 489.995 617.28 488.321 620.939 488.321C621.058 488.321 631.964 488.345 635.05 488.321H635.074C636.724 488.321 638.135 489.11 638.924 490.473C639.785 491.98 639.785 494.013 638.9 495.52C638.087 496.907 636.7 497.696 635.05 497.696H635.026C631.893 497.672 627.253 497.696 627.205 497.696L627.181 494.587C627.229 494.587 631.893 494.563 635.026 494.587C635.576 494.587 635.935 494.372 636.198 493.941C636.532 493.367 636.532 492.554 636.222 492.004C635.982 491.597 635.624 491.406 635.05 491.406C635.05 491.406 635.05 491.406 635.026 491.406C631.94 491.43 621.011 491.406 620.915 491.406C618.762 491.406 616.849 492.124 614.434 495.639C612.066 499.059 609.889 502.479 609.866 502.503Z" fill="#A3876E"/>
<path d="M638.123 483.68C639.84 483.68 641.232 482.288 641.232 480.571C641.232 478.854 639.84 477.462 638.123 477.462C636.406 477.462 635.014 478.854 635.014 480.571C635.014 482.288 636.406 483.68 638.123 483.68Z" fill="#A3876E"/>
<path d="M625.822 471.218C627.539 471.218 628.931 469.826 628.931 468.109C628.931 466.392 627.539 465 625.822 465C624.105 465 622.713 466.392 622.713 468.109C622.713 469.826 624.105 471.218 625.822 471.218Z" fill="#A3876E"/>
<path d="M626.937 483.632H622.752L637.03 465.001L641.216 465.025L626.937 483.632Z" fill="#A3876E"/>
<path d="M361.481 1088.44L359.411 1087.75L340.094 1049.14L340.784 1047.07L346.327 1044.31L348.397 1045L367.714 1083.61L367.024 1085.68L361.481 1088.44ZM343.543 1049.14L361.481 1084.99L364.241 1083.61L346.303 1047.76L343.543 1049.14Z" fill="#A3876E"/>
<path d="M342.088 1077.02C340.637 1077.02 339.257 1076.21 338.567 1074.85L336.545 1070.81C336.069 1069.88 335.998 1068.81 336.331 1067.81C336.664 1066.81 337.354 1066 338.305 1065.55L339.709 1064.86C340.637 1064.39 341.707 1064.31 342.707 1064.65C343.706 1064.98 344.515 1065.67 344.967 1066.62L346.989 1070.67C347.964 1072.59 347.155 1074.97 345.228 1075.92L343.825 1076.61C343.277 1076.88 342.683 1077.02 342.088 1077.02ZM341.469 1067.53C341.35 1067.53 341.232 1067.55 341.113 1067.62L339.709 1068.31C339.447 1068.45 339.328 1068.67 339.304 1068.79C339.257 1068.91 339.209 1069.17 339.352 1069.43L341.374 1073.47C341.565 1073.88 342.088 1074.04 342.492 1073.85L343.896 1073.16C344.3 1072.97 344.467 1072.45 344.277 1072.05L342.255 1068C342.112 1067.74 341.898 1067.62 341.779 1067.6C341.66 1067.53 341.565 1067.53 341.469 1067.53Z" fill="#A3876E"/>
<path d="M336.169 1088.63C334.622 1088.63 333.028 1088.34 331.506 1087.75C329.008 1086.77 325.511 1084.56 323.155 1079.47C319.801 1072.24 320.372 1063.84 324.797 1055.87C328.484 1049.18 334.599 1043.26 341.117 1040L342.497 1042.76C331.553 1048.21 319.373 1063.96 325.963 1078.16C329.174 1085.11 335.479 1086.75 339.761 1084.75C342.568 1083.46 344.757 1080.35 342.497 1075.5L345.304 1074.19C348.302 1080.66 345.328 1085.56 341.046 1087.53C339.547 1088.27 337.882 1088.63 336.169 1088.63Z" fill="#A3876E"/>
<path d="M71.2141 471.62L68.966 473.797L65.7612 476.93H45.0734V497.02L41.4859 500.512C38.7594 497.187 37.1331 492.954 37.1331 488.338C37.1331 477.743 45.7669 469.109 56.362 469.109C60.0451 469.109 63.4891 470.161 66.4069 471.955L68.7029 469.731C65.1632 467.387 60.9061 466 56.338 466C43.9971 466 34 475.997 34 488.338C34 494.939 36.8461 500.846 41.3902 504.936L43.6384 502.76L46.9628 499.531H67.6506V479.441L71.1424 476.045C73.9167 479.393 75.5909 483.674 75.5909 488.338C75.5909 498.933 66.957 507.567 56.362 507.567C52.631 507.567 49.1392 506.491 46.1735 504.625L43.8775 506.849C47.4411 509.265 51.7461 510.652 56.362 510.652C68.7029 510.652 78.7 500.655 78.7 488.314C78.7239 481.665 75.8061 475.71 71.2141 471.62ZM48.1825 480.039H62.5563L48.1825 494.006V480.039ZM64.5414 496.398H50.1676L64.5414 482.431V496.398Z" fill="#A3876E"/>
<path d="M68.873 932.852C67.1601 932.852 65.5186 932.281 64.1863 931.21C60.8794 928.569 60.4036 923.621 63.1633 920.171L64.4004 918.625L66.8032 920.552L65.5661 922.098C63.877 924.192 64.1387 927.19 66.1133 928.783C67.0649 929.545 68.2544 929.854 69.5153 929.688C70.7762 929.521 71.9419 928.855 72.7508 927.832L78.2701 920.956C79.9592 918.863 79.6975 915.865 77.7229 914.271C76.9617 913.653 76.0339 913.32 75.0109 913.32L75.0584 910.227C76.7476 910.251 78.3415 910.822 79.65 911.869C82.9568 914.509 83.4326 919.458 80.673 922.907L75.1536 929.783C73.8451 931.424 71.9657 932.495 69.896 932.756C69.5867 932.828 69.2298 932.852 68.873 932.852Z" fill="#A3876E"/>
<path d="M75.0543 922.695L50.7168 917.985V910.253H75.3635V913.346H53.8095V915.439L75.649 919.65L75.0543 922.695Z" fill="#A3876E"/>
<path d="M66.3039 929.069C64.9241 927.713 43.2988 913.201 37.6605 909.228L32.8786 901.354L30 902.162V914.486L40.8959 925.358H45.2971L33.1403 913.249L33.1165 907.729L35.3528 911.393L35.6145 911.583C47.6524 920.053 62.9733 930.211 64.1391 931.282C65.8995 933.018 65.9471 935.873 64.2104 937.634C63.3539 938.514 62.212 938.99 60.9987 938.99C59.8092 938.99 58.6911 938.538 57.8584 937.705L45.4874 925.524V929.878L55.6935 939.918C57.1209 941.321 59.0003 942.083 60.9987 942.083C63.0447 942.083 64.9717 941.274 66.4229 939.799C69.3491 936.801 69.2777 931.995 66.3039 929.069Z" fill="#A3876E"/>
<path d="M53.6966 910.252H45.4414V913.345H53.6966V910.252Z" fill="#A3876E"/>
<path d="M76.4863 910.371C73.0842 910.371 70.3008 907.587 70.3008 904.185C70.3008 900.783 73.0842 898 76.4863 898C79.8883 898 82.6717 900.783 82.6717 904.185C82.6717 907.587 79.8883 910.371 76.4863 910.371ZM76.4863 901.093C74.7734 901.093 73.3935 902.473 73.3935 904.185C73.3935 905.898 74.7734 907.278 76.4863 907.278C78.1992 907.278 79.579 905.898 79.579 904.185C79.579 902.473 78.1754 901.093 76.4863 901.093Z" fill="#A3876E"/>
<path d="M640 1084.3H610L619.278 1075.05L621.039 1077.66L617.494 1081.21H640C643.996 1081.21 647.256 1077.95 647.256 1073.95V1072.95C647.256 1068.96 643.996 1065.7 640 1065.7H620.42C614.71 1065.7 610.071 1061.06 610.071 1055.35V1054.35C610.071 1048.64 614.71 1044 620.42 1044H653.013L643.735 1053.3H641.927L641.95 1050.71L645.566 1047.07H620.42C616.423 1047.07 613.164 1050.33 613.164 1054.33V1055.32C613.164 1059.32 616.423 1062.58 620.42 1062.58H640C645.709 1062.58 650.348 1067.22 650.348 1072.93V1073.93C650.348 1079.66 645.709 1084.3 640 1084.3Z" fill="#A3876E"/>
<path d="M631.348 1059.68H620.69C618.264 1059.68 616.289 1057.7 616.289 1055.28V1054.66C616.289 1052.23 618.264 1050.26 620.69 1050.26H644.195L643.243 1053.35H620.69C619.977 1053.35 619.382 1053.95 619.382 1054.66V1055.28C619.382 1055.99 619.977 1056.59 620.69 1056.59H634.441L631.348 1059.68Z" fill="#A3876E"/>
<path d="M639.7 1078.16H618.812L619.288 1075.07H639.7C640.414 1075.07 641.009 1074.48 641.009 1073.76V1073.38C641.009 1072.67 640.414 1072.07 639.7 1072.07H628.329L631.183 1068.98H639.7C642.127 1068.98 644.102 1070.96 644.102 1073.38V1073.76C644.102 1076.19 642.127 1078.16 639.7 1078.16Z" fill="#A3876E"/>
<path d="M796.624 197.133C795.332 195.866 793.634 195.579 792.295 195.507C792.032 192.422 790.979 189.576 789.281 187.304H791.41L794.519 184.17H788.062V178L784.929 181.109V183.453C782.393 181.994 779.308 181.229 775.816 181.181C775.792 181.181 775.769 181.181 775.745 181.181H775.721H775.697H775.673C775.649 181.181 775.625 181.181 775.601 181.181C770.555 181.253 766.322 182.855 763.404 185.821C760.964 188.308 759.481 191.704 759.123 195.507V195.531C757.759 195.579 756.013 195.866 754.674 197.157C753.574 198.233 753 199.812 753 201.797C753 206.891 757.018 208.948 759.864 209.498C760.342 212.272 761.419 215.118 764.265 217.51C767.326 220.069 770.842 221.217 775.673 221.217C780.552 221.217 784.091 220.069 787.153 217.51C789.951 215.166 791.051 212.368 791.53 209.642C794.352 209.02 798.298 206.891 798.298 201.821C798.298 199.788 797.748 198.233 796.624 197.133ZM756.109 201.797C756.109 200.673 756.348 199.86 756.851 199.381C757.401 198.855 758.286 198.688 759.099 198.64C759.17 200.434 759.314 203.902 759.481 206.174C757.999 205.695 756.109 204.547 756.109 201.797ZM788.803 206.509C788.492 210.287 787.775 212.918 785.168 215.095C782.704 217.151 779.763 218.084 775.673 218.084C771.583 218.084 768.761 217.199 766.274 215.095C763.667 212.918 762.973 210.287 762.638 206.509C762.423 203.949 762.232 198.831 762.184 197.612C762.088 194.096 762.973 191.896 763.882 190.365C764.193 189.815 764.528 189.289 764.934 188.81C764.982 188.739 765.03 188.667 765.078 188.595H765.102C765.269 188.38 765.461 188.188 765.652 187.973C768.044 185.558 771.44 184.29 775.745 184.266C779.571 184.314 782.68 185.295 785 187.232C784.881 189.719 784.307 191.298 783.207 192.398C781.604 193.976 778.519 194.813 773.52 194.981L774.955 190.413H772.827C771.129 190.413 769.191 190.508 767.35 190.771C766.728 191.632 766.011 192.661 765.604 194.263C766.991 193.928 768.713 193.689 770.698 193.594L769.287 198.114H771.392C771.511 198.114 771.607 198.114 771.727 198.114C778.854 198.114 782.944 197.061 785.407 194.598C786.603 193.402 787.296 191.967 787.679 190.484C788.755 192.469 789.329 194.813 789.305 197.372C789.257 197.755 789.042 203.686 788.803 206.509ZM791.936 206.245C792.104 203.973 792.271 200.458 792.343 198.616C793.132 198.664 793.945 198.831 794.471 199.334C794.95 199.812 795.213 200.625 795.213 201.749C795.189 204.5 793.395 205.719 791.936 206.245ZM775.745 208.996C773.783 208.996 771.942 208.135 770.674 206.628L768.283 208.613C770.148 210.837 772.851 212.105 775.745 212.105C778.639 212.105 781.341 210.837 783.207 208.613L780.815 206.628C779.571 208.135 777.706 208.996 775.745 208.996Z" fill="#A3876E"/>
<path d="M648.8 784.546H622.63C615.921 784.546 613.4 782.548 611.306 775.601V775.577L607 760.113L609.974 759.281L614.28 774.721C615.969 780.311 617.373 781.453 622.654 781.453H648.823C652.13 781.453 653.106 779.193 653.367 777.48C651.631 777.028 648.419 776.196 644.66 775.22C637 773.222 627.483 770.724 624.438 770.01L623.51 769.796L623.296 768.868C622.273 764.705 619.419 753.88 619.395 753.785L622.392 753C622.416 753.095 624.914 762.564 626.08 767.227C629.839 768.154 638.451 770.391 645.469 772.223C650.37 773.507 654.604 774.602 655.389 774.792L656.579 775.077V776.314C656.531 780.097 654.509 784.546 648.8 784.546Z" fill="#A3876E"/>
<path d="M634.927 784.547V781.454C635.451 781.454 635.688 781.287 635.807 781.169C636.045 780.931 636.307 780.407 636.426 779.289C633.048 778.623 625.578 777.1 625.221 777.005L625.839 773.984C625.934 774.008 636.355 776.125 638.305 776.506L639.542 776.744V778.004C639.566 779.598 639.4 781.882 637.972 783.333C637.211 784.119 636.164 784.547 634.927 784.547Z" fill="#A3876E"/>
<path d="M631.91 793.61C636.12 793.61 639.903 791.731 642.449 788.757L640.236 786.592C638.238 788.995 635.24 790.518 631.91 790.518C628.627 790.518 625.677 789.043 623.678 786.711L621.466 788.876C624.035 791.779 627.77 793.61 631.91 793.61ZM644.661 790.946C641.545 794.467 636.977 796.703 631.91 796.703C626.89 796.703 622.393 794.514 619.277 791.065L617.064 793.23C620.752 797.25 626.033 799.796 631.91 799.796C637.833 799.796 643.186 797.203 646.874 793.111L644.661 790.946Z" fill="#A3876E"/>
<path d="M185.7 190.375C186.37 190.375 187.063 190.232 187.685 189.921L195.578 197.813C196.032 196.833 196.797 196.067 197.778 195.613L189.885 187.721C190.531 186.357 190.531 184.731 189.718 183.32C188.857 181.837 187.279 181 185.676 181C184.863 181 184.05 181.215 183.308 181.646C181.084 182.961 180.343 185.807 181.634 188.031C182.519 189.538 184.098 190.375 185.7 190.375ZM184.122 184.133H187.255V187.266H184.122V184.133ZM186.848 198.148C186.322 197.215 185.293 196.57 184.145 196.57C182.423 196.57 181.036 197.957 181.036 199.679C181.036 201.401 182.423 202.788 184.145 202.788C185.293 202.788 186.274 202.166 186.824 201.257H195.482C195.291 200.755 195.195 200.229 195.195 199.679C195.195 199.153 195.291 198.626 195.458 198.148H186.848ZM201.557 195.613C202.513 196.067 203.303 196.857 203.757 197.813L211.673 189.897C212.295 190.208 212.989 190.351 213.682 190.351C214.496 190.351 215.309 190.136 216.05 189.706C218.274 188.39 219.016 185.544 217.724 183.32C216.863 181.837 215.285 181 213.682 181C212.869 181 212.056 181.215 211.315 181.646C209.21 182.889 208.421 185.52 209.473 187.697L201.557 195.613ZM212.104 184.133H215.237V187.266H212.104V184.133ZM213.658 209.006C212.965 209.006 212.271 209.15 211.626 209.485L203.709 201.568C203.255 202.525 202.466 203.314 201.509 203.769L209.425 211.685C208.779 213.024 208.803 214.674 209.617 216.038C210.478 217.521 212.056 218.358 213.658 218.358C214.472 218.358 215.285 218.142 216.026 217.712C218.25 216.396 218.992 213.55 217.7 211.326C216.839 209.843 215.285 209.006 213.658 209.006ZM215.237 215.248H212.104V212.115H215.237V215.248ZM198.113 186.812V195.47C198.591 195.278 199.117 195.183 199.667 195.183C200.217 195.183 200.744 195.278 201.222 195.47V186.812C202.155 186.286 202.776 185.281 202.776 184.133C202.776 182.411 201.389 181.024 199.667 181.024C197.945 181.024 196.558 182.411 196.558 184.133C196.558 185.281 197.18 186.286 198.113 186.812ZM212.534 201.257C213.084 202.166 214.065 202.788 215.213 202.788C216.935 202.788 218.322 201.401 218.322 199.679C218.322 197.957 216.935 196.57 215.213 196.57C214.041 196.57 213.037 197.215 212.51 198.148H203.877C204.044 198.626 204.14 199.129 204.14 199.679C204.14 200.229 204.044 200.755 203.853 201.257H212.534ZM201.222 212.761V203.864C200.744 204.056 200.217 204.151 199.667 204.151C199.117 204.151 198.591 204.056 198.113 203.864V212.761C197.18 213.287 196.558 214.292 196.558 215.44C196.558 217.162 197.945 218.549 199.667 218.549C201.389 218.549 202.776 217.162 202.776 215.44C202.776 214.316 202.155 213.311 201.222 212.761ZM197.826 203.769C196.845 203.314 196.08 202.549 195.625 201.568L187.733 209.461C187.111 209.15 186.418 209.006 185.7 209.006C184.887 209.006 184.074 209.222 183.332 209.652C181.108 210.967 180.367 213.813 181.658 216.038C182.519 217.521 184.098 218.358 185.7 218.358C186.513 218.358 187.326 218.142 188.068 217.712C190.172 216.468 190.962 213.837 189.909 211.661L197.826 203.769ZM187.255 215.248H184.122V212.115H187.255V215.248Z" fill="#A3876E"/>
<path d="M199.664 192.074C195.455 192.074 192.059 195.47 192.059 199.68C192.059 203.889 195.455 207.285 199.664 207.285C203.873 207.285 207.27 203.889 207.27 199.68C207.27 195.47 203.873 192.074 199.664 192.074ZM199.664 204.176C197.177 204.176 195.168 202.167 195.168 199.68C195.168 197.192 197.177 195.183 199.664 195.183C202.151 195.183 204.16 197.192 204.16 199.68C204.16 202.167 202.151 204.176 199.664 204.176Z" fill="#A3876E"/>
<path d="M222.841 766.203C218.505 766.203 213.055 766.819 209.098 771.558C208.766 764.639 205.117 757.886 201.965 754H197.558C193.862 758.55 189.478 767.056 190.568 775.136C191.066 778.88 192.653 782.103 195.331 784.733H190.686C183.625 784.733 178.08 779.354 178.08 772.459V769.307C182.748 769.544 185.781 770.871 188.033 773.644L190.426 771.701C186.469 766.819 180.924 766.179 176.54 766.179H175V772.459C175 779.236 179.265 784.828 185.355 786.937C182.677 788.785 181.184 791.747 181.137 795.562L181.113 797.126H182.677C192.25 797.126 197.44 796.391 199.762 792.884C202.108 796.368 207.273 797.126 216.846 797.126H218.41L218.386 795.562C218.339 791.723 216.822 788.761 214.121 786.913C220.164 784.804 224.381 779.212 224.381 772.482V766.203H222.841ZM184.36 794.045C185.189 788.951 189.691 787.837 193.53 787.837H198.198C197.819 792.529 195.591 793.927 184.36 794.045ZM199.762 784.449C196.207 781.984 194.146 778.738 193.625 774.757C192.7 767.814 196.563 760.256 199.762 756.204C202.961 760.256 206.823 767.814 205.899 774.757C205.378 778.714 203.316 781.984 199.762 784.449ZM215.187 794.045C203.956 793.927 201.728 792.529 201.349 787.837H206.017C209.832 787.837 214.358 788.951 215.187 794.045ZM221.301 772.482C221.301 779.354 215.756 784.757 208.695 784.757H204.216C206.87 782.127 208.482 778.904 208.979 775.16C209.121 774.07 209.169 772.956 209.121 771.843L211.373 773.667C213.624 770.895 216.633 769.568 221.325 769.331L221.301 772.482Z" fill="#A3876E"/>
<path d="M73.7205 195.149C71.9985 195.149 70.6113 193.762 70.6113 192.04C70.6113 190.318 71.9985 188.931 73.7205 188.931C75.4425 188.931 76.8296 190.318 76.8296 192.04C76.8296 193.762 75.4425 195.149 73.7205 195.149Z" fill="#A3876E"/>
<path d="M44.1079 215.43L41.4531 213.803L45.6864 206.652L48.365 208.231L44.1079 215.43Z" fill="#A3876E"/>
<path d="M57.0751 193.497L54.3965 191.895L59.1559 183.859L61.6432 185.772L57.0751 193.497Z" fill="#A3876E"/>
<path d="M58.9252 213.296L54.0078 220.71L56.599 222.429L61.5163 215.014L58.9252 213.296Z" fill="#A3876E"/>
<path d="M72.4339 191.185L67.5156 198.599L70.1065 200.318L75.0247 192.904L72.4339 191.185Z" fill="#A3876E"/>
<path d="M70.2607 213.81L67.668 215.526L72.2614 222.467L74.8541 220.751L70.2607 213.81Z" fill="#A3876E"/>
<path d="M61.3214 201.533H68.4725L72.0361 207.727L68.4725 213.898H61.3214L57.7579 207.703L61.3214 201.533ZM59.5277 198.424L54.1465 207.703L59.5038 217.007H70.2423L75.6235 207.727L70.2662 198.424H59.5277Z" fill="#A3876E"/>
<path d="M47.9796 193.69H55.1307L58.6943 199.885L55.1307 206.055H47.9796L44.4161 199.861L47.9796 193.69ZM46.1859 190.581L40.8047 199.861L46.162 209.164H56.9005L62.2817 199.885L56.9244 190.581H46.1859Z" fill="#A3876E"/>
<path d="M65.6555 180.32C64.7945 178.837 63.216 178 61.6136 178C60.8005 178 59.9873 178.215 59.2459 178.646C57.0217 179.961 56.2802 182.807 57.5717 185.031C58.4327 186.514 60.0112 187.351 61.6136 187.351C62.4268 187.351 63.24 187.136 63.9814 186.706C66.2295 185.414 66.9709 182.568 65.6555 180.32ZM63.1921 184.266H60.0591V181.133H63.1921V184.266Z" fill="#A3876E"/>
<path d="M45.5032 214.496C44.6422 213.013 43.0637 212.176 41.4613 212.176C40.6481 212.176 39.835 212.392 39.0935 212.822C36.8693 214.137 36.1279 216.984 37.4194 219.208C38.2804 220.691 39.8589 221.528 41.4613 221.528C42.2744 221.528 43.0876 221.312 43.829 220.882C46.0533 219.59 46.7947 216.72 45.5032 214.496ZM43.0398 218.418H39.9067V215.285H43.0398V218.418Z" fill="#A3876E"/>
<path d="M43.0315 198.305H36V201.414H43.0315V198.305Z" fill="#A3876E"/>
<path d="M42.8058 765.837C44.2088 767.994 46.6379 769.293 49.6115 769.293C52.5851 769.293 55.0143 767.994 56.4173 765.837C57.8203 767.994 60.2495 769.293 63.2231 769.293C66.1967 769.293 68.6258 767.994 70.0288 765.837C71.4319 767.994 73.861 769.293 76.8346 769.293V766.57C73.5259 766.57 71.39 764.392 71.39 761.042V761.021H68.6677V761.042C68.6677 764.413 66.5317 766.57 63.2231 766.57C59.9144 766.57 57.7784 764.392 57.7784 761.021C57.7784 761.021 57.7784 761.021 57.7784 761H55.0561C55.0561 761 55.0561 761 55.0561 761.021C55.0561 764.392 52.9202 766.57 49.6115 766.57C46.3029 766.57 44.1669 764.392 44.1669 761.021H41.4446C41.4446 764.392 39.3086 766.57 36 766.57V769.293C38.9736 769.272 41.4027 767.973 42.8058 765.837Z" fill="#A3876E"/>
<path d="M71.39 771.91C71.39 771.91 71.39 771.889 71.39 771.91L68.6677 771.889V771.91C68.6677 775.282 66.5317 777.438 63.2231 777.438C59.9144 777.438 57.7784 775.261 57.7784 771.889C57.7784 771.889 57.7784 771.889 57.7784 771.868H55.0561C55.0561 771.868 55.0561 771.868 55.0561 771.889C55.0561 775.261 52.9202 777.438 49.6115 777.438C46.3029 777.438 44.1669 775.261 44.1669 771.889H41.4446C41.4446 775.261 39.3086 777.438 36 777.438V780.161C38.9736 780.161 41.4027 778.862 42.8058 776.705C44.2088 778.862 46.6379 780.161 49.6115 780.161C52.5851 780.161 55.0143 778.862 56.4173 776.705C57.8203 778.862 60.2495 780.161 63.2231 780.161C66.1967 780.161 68.6258 778.862 70.0288 776.705C71.4319 778.862 73.861 780.161 76.8346 780.161V777.438C73.5469 777.438 71.4109 775.282 71.39 771.91Z" fill="#A3876E"/>
<path d="M71.39 783.009C71.39 783.009 71.39 782.988 71.39 783.009L68.6677 782.988V783.009C68.6677 786.38 66.5317 788.537 63.2231 788.537C59.9144 788.537 57.7784 786.359 57.7784 782.988C57.7784 782.988 57.7784 782.988 57.7784 782.967H55.0561C55.0561 782.967 55.0561 782.967 55.0561 782.988C55.0561 786.359 52.9202 788.537 49.6115 788.537C46.3029 788.537 44.1669 786.359 44.1669 782.988H41.4446C41.4446 786.359 39.3086 788.537 36 788.537V791.259C38.9736 791.259 41.4027 789.961 42.8058 787.804C44.2088 789.961 46.6379 791.259 49.6115 791.259C52.5851 791.259 55.0143 789.961 56.4173 787.804C57.8203 789.961 60.2495 791.259 63.2231 791.259C66.1967 791.259 68.6258 789.961 70.0288 787.804C71.4319 789.961 73.861 791.259 76.8346 791.259V788.537C73.5469 788.537 71.4109 786.38 71.39 783.009Z" fill="#A3876E"/>
</svg>
